<svg width="300" height="245" viewBox="0 0 300 245" fill="none" xmlns="http://www.w3.org/2000/svg">
<path fill-rule="evenodd" clip-rule="evenodd" d="M6.88839 0.628627L0 0.938609V2.08667V3.23474H2.29613H4.59226L4.51075 4.3828C4.46597 5.01424 4.0917 6.35633 3.67955 7.3649L2.92929 9.19894L3.74269 10.719L4.55609 12.239L3.28289 14.4519C2.58199 15.6688 2.00911 17.4725 2.00911 18.4586V20.2531L2.93618 20.0671C3.49414 19.9557 4.25358 18.624 4.84311 16.7245C6.20242 12.3446 7.0319 10.9842 8.34356 10.9842C9.68508 10.9842 9.78783 12.1518 8.64148 14.3687C6.7466 18.0333 8.98877 19.5654 15.4937 19.0511L19.5062 18.7336L19.714 17.6407L19.9224 16.5483L15.8846 16.8864L11.8475 17.2251L11.1138 16.341L10.3802 15.457L11.3607 13.7481C11.9003 12.8084 12.3417 11.4991 12.3417 10.8395C12.3417 10.1794 12.7693 9.16737 13.2917 8.58989L14.2417 7.53998L13.2917 6.49007C12.7693 5.91259 12.3417 5.00849 12.3417 4.48096V3.52175H14.6378H16.934V2.08667C16.934 1.23079 16.6056 0.651593 16.12 0.651593C15.6722 0.651593 14.9616 0.57639 14.5414 0.485119C14.1206 0.393273 10.677 0.458139 6.88839 0.628627ZM277.948 31.9961C277.884 32.0512 259.491 32.2538 237.075 32.4473C214.659 32.6401 189.086 32.926 180.246 33.0821C171.406 33.2388 153.582 33.4977 140.638 33.6579C127.693 33.8175 108.616 34.1137 98.2439 34.3152L79.3852 34.6819L79.7469 53.4C79.9455 63.6953 80.2204 75.2184 80.3588 79.007C80.4965 82.7956 80.7772 97.7779 80.9822 112.301C81.1871 126.824 81.4322 140.515 81.5269 142.725C81.6217 144.935 81.8696 158.625 82.0786 173.148C82.287 187.671 82.6985 201.456 82.993 203.78L83.528 208.006L84.9602 209.708C86.8568 211.962 86.7684 212.717 84.4396 214.157C82.7772 215.184 81.4001 216.936 81.9293 217.348C82.016 217.416 83.3455 217.943 84.8833 218.519C86.4217 219.096 88.6151 220.449 89.7574 221.526L91.8343 223.485L90.3395 224.722C89.5175 225.402 88.0347 226.4 87.0445 226.937C85.1043 227.991 84.5928 230.158 86.0073 231.332L86.7713 231.965L88.4113 230.254L90.0507 228.542H92.4628C93.9645 228.542 95.376 228.948 96.2015 229.616L97.5275 230.69L96.5522 232.179C94.7389 234.946 95.8307 236.535 98.776 235.415C99.5831 235.108 103.851 234.857 108.261 234.857C121.203 234.857 124.824 232.585 128.573 222.117C131.464 214.043 135.598 206.727 139.916 202.042C141.464 200.363 142.471 198.408 143.525 195.041C144.328 192.471 146.044 188.127 147.337 185.386L149.689 180.402L152.14 179.102L154.592 177.801L161.104 180.735C164.686 182.349 168.038 183.801 168.553 183.961C170.166 184.464 174.614 188.009 175.513 189.508C177.129 192.203 177.629 204.616 176.628 217.193L176.138 223.351L173.454 226.664C163.559 238.879 166.363 243.486 184.264 244.432L190.579 244.765L195.171 243.757C203.73 241.877 209.029 238.095 213.053 230.995C214.085 229.173 215.437 226.777 216.057 225.672C216.676 224.567 218.505 222.113 220.121 220.219C221.737 218.325 223.2 216.129 223.374 215.34C224.476 210.321 226.731 204.523 228.174 202.998C229.975 201.094 235.066 191.417 235.066 189.897V188.934H233.057H231.048V187.003C231.048 184.896 232.1 183.253 236.164 179.01L238.797 176.261L238.868 172.695C238.907 170.734 239.133 167.916 239.37 166.432L239.801 163.735L238.349 163.37C237.549 163.169 236.372 163.285 235.732 163.628C231.603 165.837 230.945 162.741 234.779 159.146L237.362 156.725L237.382 154.317C237.393 152.993 237.777 150.23 238.234 148.178C238.691 146.126 239.236 140.637 239.445 135.98L239.825 127.513H238.915C237.542 127.513 237.301 128.268 237.072 133.279C236.269 150.84 233.111 161.245 233.447 145.223L233.631 136.41L232.626 132.208C232.073 129.897 231.346 124.86 231.01 121.014C230.172 111.435 229.951 110.179 229.15 110.444C228.057 110.805 228.008 117.946 229.049 125.197C229.577 128.874 229.83 132.863 229.624 134.238L229.255 136.697H228.124C227.503 136.697 226.906 136.375 226.798 135.98C226.691 135.585 226.146 133.325 225.588 130.957C224.37 125.791 224.071 125.386 222.358 126.585C220.514 127.877 219.628 127.746 218.997 126.086L218.454 124.66L215.853 125.016L213.253 125.373L213.196 118.55C213.164 114.797 212.929 111.081 212.673 110.292L212.207 108.857L211.802 110.148C211.579 110.859 211.04 111.44 210.603 111.44H209.809V105.125V98.8111L209.091 98.8197C207.227 98.8427 206.611 100.097 205.742 105.64C205.415 107.725 205.046 110.081 204.922 110.875C204.617 112.828 203.074 116.444 202.355 116.888C201.555 117.382 201.613 115.832 202.765 105.917C204.843 88.0469 203.007 82.7841 200.039 98.1039C198.567 105.701 195.989 113.886 194.393 116.032C192.036 119.2 190.531 116.624 192.489 112.776C194.375 109.069 195.938 102.801 196.352 97.2899L196.745 92.0375L195.562 91.4044C194.723 90.9555 194.278 89.9802 194.029 88.0463C192.844 78.8268 189.203 70.1095 186.538 70.1095C185.371 70.1095 185.491 71.4705 186.907 74.2988C189.294 79.069 190.34 83.4793 190.679 90.2006L191.013 96.802L189.085 101.666C187.063 106.769 184.76 110.253 182.11 112.217L180.53 113.389L179.843 112.701C178.823 111.681 178.024 111.852 176.174 113.49C175.256 114.301 173.867 115.22 173.088 115.533L171.67 116.1L170.935 115.095C169.627 113.305 170.038 111.21 171.915 110.101C176.001 107.687 178.948 99.7055 176.94 96.4903L176.254 95.3905L177.245 93.7114C177.791 92.7884 178.237 91.0158 178.237 89.773V87.5136L174.936 86.7978C169.467 85.6118 168.055 84.768 166.695 81.8755C163.023 74.0623 154.93 72.796 151.448 79.4898L150.6 81.1206L151.635 82.2635C152.204 82.8926 153.45 83.7365 154.403 84.1389L156.137 84.8707L157.501 90.8361C158.25 94.1173 159.752 98.9977 160.838 101.681C163.522 108.318 162.922 111.44 158.964 111.44C154.04 111.44 152.83 109.387 154.988 104.69L156.502 101.394L156.139 98.9437C155.661 95.7154 154.176 94.7946 148.793 94.3876C143.377 93.9783 139.385 94.9094 136.925 97.1568L135.045 98.8743L135.381 100.951C135.592 102.244 136.484 103.81 137.748 105.105C140.368 107.788 140.319 109.09 137.515 111.344C134.721 113.588 134.562 113.588 131.999 111.338L129.921 109.513L130.164 106.889C130.808 99.9161 133.625 86.2886 134.994 83.5229C137.423 78.6161 135.142 75.9715 129.025 76.603C123.787 77.1431 120.299 79.6494 119.712 83.2927L119.385 85.3214L117.845 85.4999L116.305 85.6784L115.677 83.3473C114.898 80.4559 114.26 80.4226 109.525 83.0252C105.141 85.435 104.78 85.4597 102.47 83.5155L100.665 81.9966L99.71 82.9506L98.7559 83.9047L99.4626 85.0361C100.46 86.633 100.341 88.1048 99.0843 89.7024C98.4879 90.4607 97.6062 92.0226 97.1251 93.1735L96.2509 95.2665L97.8897 96.7268L99.5286 98.1871L98.9878 100.074C98.1268 103.075 98.3444 104.471 99.8816 105.807L101.317 107.055V109.787V112.52L103.756 113L106.196 113.481L106.369 116.46L106.542 119.44L108.122 120.565C108.991 121.184 110.188 122.593 110.782 123.697L111.863 125.703L111.112 126.607C110.088 127.841 108.593 127.745 107.344 126.365C104.936 123.704 103.354 125.138 102.249 130.983L101.45 135.207L99.9126 136.432C99.0671 137.107 97.7824 138.927 97.0574 140.478C95.5327 143.741 93.697 145.591 92.4577 145.115L91.592 144.783L92.352 142.606C92.7705 141.408 93.4565 138.684 93.8761 136.552L94.6396 132.676L93.7108 130.728L92.782 128.781L94.127 126.958C94.9937 125.783 95.7974 123.362 96.3863 120.153C97.6217 113.424 97.5591 112.506 95.6464 109.263L93.9943 106.461L93.5931 102.205C92.4743 90.351 93.9553 81.6062 98.2916 74.467L100.352 71.075L99.6354 69.3007C98.2984 65.988 97.7548 62.945 97.6699 58.2999L97.5855 53.6664L99.206 51.2175C100.28 49.5942 101.731 48.3508 103.511 47.5282L106.196 46.2872L112.797 46.4008L119.399 46.5139L127.722 44.2654C150.742 38.0469 173.175 37.8357 180.326 43.77C181.45 44.7034 187.992 44.526 196.319 43.3355L203.781 42.2689L218.993 42.2925L234.205 42.3154L238.334 43.2965C268.352 50.4254 287.206 71.8724 294.705 107.422L295.856 112.875L296.167 130.67C297.102 184.166 297.215 186.638 298.736 186.638C300.186 186.638 300.374 171.133 299.373 134.114C299.074 123.064 298.671 95.8118 298.477 73.5537C298.284 51.2956 298.022 32.7584 297.896 32.36L297.667 31.6361L287.865 31.7659C282.474 31.837 278.011 31.9404 277.948 31.9961ZM168.547 48.9053C165.015 49.6143 163.382 50.8616 162.053 53.8661L160.902 56.4693L158.52 56.1358C157.209 55.9522 154.724 55.4045 152.998 54.9195C149.107 53.8253 146.312 53.8254 138.629 54.9206C135.314 55.3936 130.692 56.0451 128.359 56.3695C126.025 56.6938 123.217 57.335 122.118 57.7942C119.255 58.9905 118.998 58.9015 117.23 56.1025C115.34 53.1107 112.772 51.7405 109.055 51.7405H106.348L104.053 54.036L101.757 56.3316L101.989 59.987C102.151 62.5277 102.712 64.5844 103.827 66.7325C104.709 68.4322 105.554 70.8557 105.705 72.1186C106.45 78.3796 110.068 78.6333 113.439 72.6617C118.488 63.7154 127.559 59.3435 142.237 58.7827C156.292 58.246 164.413 60.8527 169.955 67.6808C174.167 72.8695 174.22 72.8666 175.327 67.3639C175.662 65.6958 176.459 63.3072 177.098 62.0558C181.115 54.1813 176.63 47.282 168.547 48.9053ZM184.18 51.2204C184.643 51.8811 187.955 53.772 191.541 55.4223C202.543 60.4853 207.518 64.461 212.399 72.0911C214.419 75.2482 217.271 82.4845 217.271 84.4511C217.271 84.9672 217.654 85.8902 218.121 86.5033L218.971 87.6175L219.548 86.7564C221.052 84.5085 219.966 79.3135 216.547 72.4056L214.133 67.5264L209.75 63.2211C203.61 57.1903 190.233 50.0758 184.949 50.0316L183.338 50.0184L184.18 51.2204ZM232.583 54.2697C231.735 56.4803 241.003 60.6322 242.257 58.6036C242.834 57.6708 241.536 56.49 238.2 54.9114C234.75 53.2794 233.038 53.0837 232.583 54.2697ZM247.306 83.6578C247.116 84.1526 247.38 86.6945 247.894 89.3057C248.407 91.917 248.997 96.7383 249.205 100.02C249.413 103.302 249.802 106.578 250.069 107.301L250.554 108.616L251.749 107.977L252.943 107.337L252.632 104.079C252.46 102.287 252.159 98.7537 251.961 96.228C251.219 86.7432 248.716 79.984 247.306 83.6578ZM257.106 98.5367C256.125 100.033 255.83 105.515 256.332 112.882L256.568 116.334L254.95 119.429L253.331 122.524L253.726 126.975C254.32 133.689 252.505 136.787 251.141 131.387C250.04 127.027 249.099 124.93 248.245 124.93C246.908 124.93 246.929 128.575 248.298 134.195C250.604 143.66 250.512 155.077 248.073 162.118C247.462 163.881 247.121 166.707 247.121 170.006V175.148L245.056 177.853L242.991 180.558L243.312 182.542L243.634 184.526L241.862 186.544C237.854 191.109 237.542 194.416 240.866 197.087C246.188 201.363 248.25 213.523 245.399 223.811C242.918 232.762 244.759 235.724 253.914 237.512L258.315 238.372L266.514 237.979L274.713 237.586L278.612 235.718C282.901 233.663 286.729 230.627 286.729 229.282V228.418L285.168 228.81C284.31 229.025 282.139 230.108 280.345 231.215C272.327 236.164 268.008 232.764 274.409 226.542C275.983 225.013 276.971 223.541 276.971 222.728C276.971 221.913 278.062 220.292 279.807 218.515C281.529 216.761 283.058 214.5 283.699 212.759L284.754 209.892L286.459 209.598C289.055 209.152 289.068 207.14 286.485 205.466C283.996 203.854 283.965 203.557 286.171 202.416L287.909 201.517L287.75 193.647L287.59 185.777L285.475 185.899L283.36 186.021L282.699 184.019L282.039 182.018L282.949 177.526C284.133 171.681 284.151 168.269 282.998 168.269C282.52 168.269 282.137 168.779 282.137 169.417C282.137 170.832 281.07 170.933 280.632 169.561C280.455 169.008 280.053 168.013 279.737 167.349L279.163 166.142L281.224 159.982C284.625 149.817 283.64 147.254 278.057 151.741C276.728 152.809 275.522 153.352 274.96 153.136L274.04 152.783L274.214 149.783L274.387 146.784L276.792 145.041C278.973 143.461 280.233 140.715 278.778 140.715C277.661 140.715 274.243 142.153 272.249 143.463C266.972 146.929 267.105 142.415 272.485 135.463C275.704 131.303 275.22 128.713 271.42 129.762C267.47 130.853 266.722 128.34 269.277 122.561C270.89 118.915 271.741 113.545 270.798 112.962C270.107 112.536 267.665 114.877 266.013 117.549C264.405 120.151 262.899 120.066 262.015 117.324C261.634 116.14 261.142 114.913 260.921 114.597C260.7 114.281 260.69 112.086 260.898 109.718C261.834 99.0815 260.1 93.9674 257.106 98.5367ZM281.846 120.056C281.193 121.113 280.397 134.613 280.956 135.171C282.667 136.883 284.395 131.604 284.52 124.276C284.594 119.949 283.237 117.806 281.846 120.056ZM297.075 194.351C295.987 197.215 294.472 214.188 294.702 220.936C294.766 222.805 295.98 223.514 296.811 222.168C297.575 220.932 299.244 197.647 298.854 193.67C298.735 192.455 297.636 192.876 297.075 194.351ZM266.549 227.418C265.009 229.037 264.342 230.252 264.342 231.437V233.135H265.437C266.794 233.135 271.804 227.666 271.804 226.184C271.804 224.18 269.004 224.838 266.549 227.418ZM187.932 232.876C185.264 234.274 182.113 240.023 184.015 240.023C185.536 240.023 190.866 234.541 190.866 232.976C190.866 232.241 189.249 232.186 187.932 232.876ZM194.884 232.964C193.173 233.584 190.292 236.823 190.292 238.126V239.449H191.641C193.719 239.449 197.754 236.267 197.754 234.628C197.754 233.573 196.533 232.282 195.841 232.606C195.789 232.631 195.358 232.792 194.884 232.964Z" fill="#FBFDFD"/>
</svg>
