<svg width="300" height="267" viewBox="0 0 300 267" fill="none" xmlns="http://www.w3.org/2000/svg">
<path fill-rule="evenodd" clip-rule="evenodd" d="M90.7635 3.11521L88.283 5.70427L85.558 6.07763L82.8329 6.45098L80.1252 4.3832C78.6354 3.24583 77.0829 2.31541 76.6749 2.31541C75.457 2.31541 70.5974 4.77923 68.9954 6.20825C68.1754 6.94005 66.5084 7.71539 65.2905 7.93189L63.0766 8.32493L61.8611 7.10943C61.1925 6.44084 60.6456 5.66549 60.6456 5.38637C60.6456 4.84124 54.9354 1.12257 54.0975 1.12257C53.4647 1.12257 45.1691 5.81043 43.8987 6.88577C42.3629 8.18656 41.3556 7.82931 38.578 4.9993C34.9226 1.27466 33.6922 1.40827 24.1172 6.57386C21.388 8.04642 19.0316 7.67602 16.3173 5.3482C15.2193 4.40705 12.9559 3.38182 10.9328 2.91005L7.44315 2.09592L5.01215 2.9512C2.32707 3.89593 1.34417 5.29751 3.36663 5.29751C6.67318 5.29751 8.16899 9.45455 6.43818 13.8353C6.07318 14.7585 5.77497 15.8786 5.77497 16.3241C5.77497 16.7696 5.00618 17.9034 4.06563 18.8434C1.59526 21.3138 1.238 22.908 2.86384 24.2112C7.64414 28.0426 8.00378 29.5151 4.94117 32.7078C3.82646 33.8696 2.7374 35.6672 2.5203 36.702L2.12667 38.5831L4.24932 40.2018L6.37139 41.8204V43.9252C6.37139 45.4514 5.79167 46.7367 4.26126 48.6047L2.15113 51.1801L3.36663 53.5627C4.03521 54.8731 4.58213 56.3027 4.58213 56.7393C4.58213 57.1759 6.12506 58.278 8.01154 59.1882C9.89801 60.0977 11.8435 61.0532 12.3356 61.3108C13.767 62.0605 13.7461 64.5577 12.298 65.8651L11.0109 67.0269H7.20519C2.94317 67.0269 1.71573 67.9394 5.58948 68.2281C10.2618 68.5764 12.8932 70.9871 12.0904 74.184C11.8948 74.9641 12.0129 75.774 12.3535 75.984C12.7215 76.2118 12.4209 76.7998 11.6103 77.4374C10.3161 78.4543 9.72744 82.2118 10.7079 83.1929C11.4171 83.9014 15.1966 84.4382 16.0638 83.9533C17.7505 83.0092 18.592 68.1351 17.0938 65.7363L16.3489 64.544L17.6455 60.3548L18.9421 56.1649L18.9099 48.4747C18.8914 44.2449 18.9487 37.0998 19.0358 32.5968L19.1944 24.4092L21.057 22.5454L22.919 20.681L24.1703 21.3507C25.6369 22.1356 31.4007 22.0843 32.4266 21.278C32.8733 20.9267 33.617 20.9804 34.4443 21.4229C36.351 22.4434 48.5973 21.9633 49.2909 20.8414L49.808 20.004L51.3265 20.9988L52.8456 21.9943L83.1371 22.1869C99.7975 22.2925 114.24 22.2012 115.231 21.9835C116.222 21.7658 117.564 21.7796 118.213 22.0134C118.938 22.2752 120.246 22.0092 121.606 21.3239C122.823 20.7102 124.483 20.208 125.294 20.208C126.106 20.208 127.418 19.9617 128.21 19.6605C129.002 19.3599 130.831 18.9794 132.275 18.8154C135.856 18.4086 136.717 17.9953 137.483 16.3152C138.636 13.7822 143.037 13.8215 142.117 16.3563C141.993 16.6981 142.275 17.502 142.743 18.1426L143.595 19.3074L144.159 18.4158L144.722 17.5241L144.732 18.5678C144.744 19.9319 147.104 19.9462 150.618 18.6042L153.255 17.5975L154.217 18.7778C154.746 19.4267 155.715 20.0082 156.371 20.0696C157.027 20.1311 158.556 20.3487 159.768 20.5545C161.142 20.7871 162.94 20.5825 164.539 20.013C165.951 19.5096 167.826 18.9448 168.705 18.7575C169.585 18.5702 171.267 17.508 172.445 16.3975C175.911 13.1285 178.924 13.5502 182.315 17.7794C184.716 20.774 195.124 21.5314 198.689 18.971L201.242 17.137L203.576 17.7657C204.86 18.1116 206.4 18.7521 206.997 19.1887L208.084 19.9837L211.611 19.4153L215.137 18.8476L216.219 19.8257C216.813 20.3643 218.298 20.8044 219.519 20.8044C220.739 20.8044 222.493 21.1945 223.415 21.6716L225.092 22.5388L238.445 22.3104C245.789 22.1851 252.201 22.0754 252.693 22.0676C253.185 22.0593 254.929 22.1541 256.569 22.2782C258.21 22.4016 264.085 22.5615 269.626 22.6324L279.7 22.7619L280.808 23.8706C281.418 24.4801 281.92 25.5829 281.923 26.3213C281.927 27.0597 282.106 34.2388 282.322 42.2755C282.708 56.6743 282.752 62.6242 282.5 66.7287C282.429 67.8768 282.705 70.8291 283.112 73.2893C283.964 78.4352 283.986 86.7034 283.157 89.8919C282.821 91.1795 282.772 95.1374 283.037 99.5318C283.284 103.632 283.366 114.099 283.219 122.792C282.895 141.892 282.948 144.604 283.888 157.086C284.011 158.726 283.882 162.806 283.602 166.152C283.276 170.035 283.312 173.218 283.7 174.952C284.284 177.558 284.352 179.835 284.262 193.766C284.24 197.21 284.366 211.357 284.543 225.203C284.72 239.049 284.635 250.519 284.355 250.691C284.076 250.864 281.869 251.051 279.453 251.106C277.035 251.161 274.499 251.409 273.816 251.658C273.133 251.907 272.207 251.884 271.76 251.608C271.304 251.326 270.47 251.361 269.861 251.687C268.406 252.466 262.805 252.439 254.546 251.615C250.802 251.241 247.053 251.153 246.196 251.42C244.744 251.871 238.885 252.043 221.381 252.148C217.444 252.172 213.016 252.2 211.54 252.211C210.064 252.222 199.328 252.367 187.683 252.532C176.038 252.698 164.9 252.807 162.932 252.774C159.462 252.716 158.14 252.735 155.327 252.881C154.589 252.92 151.033 252.826 147.425 252.674L140.864 252.398L138.594 253.577L136.323 254.756L132.201 254.461C127.757 254.143 126.91 254.377 128.439 255.495C130.613 257.084 128.652 257.468 119.543 257.235C114.54 257.108 109.507 257.034 108.359 257.073C107.211 257.112 105.802 257.096 105.228 257.04C102.359 256.753 99.0675 256.985 92.7079 257.918C90.8154 258.196 89.5928 258.095 89.013 257.614C88.0963 256.853 86.9644 256.732 74.6614 256.076C69.7773 255.816 65.6203 255.904 63.4279 256.314L59.9477 256.965L58.0601 255.982L56.1724 255L43.6476 254.873C36.759 254.803 30.7202 254.687 30.2282 254.616C27.1423 254.168 10.7121 255.391 9.65169 256.148C8.99563 256.616 7.45269 257.671 6.22228 258.491C3.79843 260.109 3.46862 261.35 4.91434 263.414C6.00638 264.974 9.01472 265.184 10.8093 263.826C12.3809 262.638 13.6781 262.726 15.4805 264.144C18.1197 266.22 25.4568 265.546 25.4568 263.228C25.4568 262.382 26.4224 262.103 28.588 262.323C29.1618 262.382 29.6317 262.144 29.6317 261.795C29.6317 261.447 30.0343 261.161 30.5264 261.161C31.0184 261.161 31.421 261.556 31.421 262.038C31.421 262.571 31.0715 262.779 30.5264 262.57C29.522 262.184 29.3413 263.357 30.1971 264.71C30.9492 265.899 34.8325 265.597 37.7204 264.124C40.6315 262.641 42.2007 262.643 44.0949 264.133C45.1041 264.927 46.944 265.435 49.6923 265.681L53.7867 266.047L54.9796 263.76C56.5529 260.745 60.0026 260.492 61.966 263.248C62.1998 263.576 62.6024 263.857 62.8607 263.872C63.1183 263.887 64.4531 264.488 65.8261 265.207L68.3233 266.515L72.3867 266.167C74.6727 265.972 77.0721 265.388 77.8713 264.832C82.3248 261.738 85.7184 261.447 88.6421 263.907C89.9023 264.968 90.9109 265.354 91.821 265.126C92.554 264.942 95.4347 265.026 98.2218 265.312C101.258 265.624 103.517 265.614 103.856 265.286C104.167 264.986 105.04 264.74 105.795 264.74C106.711 264.74 107.166 264.389 107.166 263.68C107.166 263.096 107.719 262.146 108.395 261.567L109.625 260.515L112.504 262.926C115.487 265.423 118.649 266.14 120.135 264.654C121.25 263.539 128.807 263.727 130.62 264.915C133.496 266.799 137.584 265.085 137.584 261.994C137.584 260.459 138.098 260.086 140.564 259.827L142.053 259.67L142.24 260.969C142.342 261.683 142.811 262.587 143.282 262.978L144.137 263.687L147.086 262.722C151.041 261.429 151.405 261.476 153.389 263.547L155.103 265.336H157.329C158.553 265.336 160.365 264.871 161.356 264.303L163.157 263.269L164.958 264.601C167.312 266.341 168.837 266.292 172.56 264.358L175.628 262.765L177.263 264.05C179.355 265.696 180.04 265.667 182.207 263.845C184.482 261.93 185.002 261.968 186.287 264.144C187.596 266.359 188.943 266.416 193.406 264.442C197.504 262.629 198.945 262.587 202.078 264.185C206.331 266.354 209.097 265.772 213.34 261.815C216.431 258.933 216.554 258.915 219.513 260.926L221.799 262.48L223.637 262.112L225.476 261.744L227.072 263.273L228.669 264.803L230.392 264.522C231.34 264.368 232.303 264.219 232.531 264.192C232.759 264.166 234.253 262.814 235.853 261.189L238.761 258.235L240.022 258.565C240.716 258.747 241.745 259.405 242.309 260.028C242.873 260.651 244.065 261.161 244.959 261.161C245.852 261.161 246.908 261.554 247.306 262.033C248.298 263.229 254.979 263.154 257.249 261.921C259.193 260.866 264.306 260.358 272.015 260.455L277.322 260.522L278.645 261.765L279.968 263.008L282.75 262.308L285.533 261.607L286.566 262.541C287.703 263.57 291.332 263.728 292.504 262.799C293.828 261.749 293.398 259.969 291.822 259.969C291.037 259.969 290.231 259.543 290.032 259.023L289.669 258.077L292.598 256.84L295.527 255.603L295.877 253.462C296.84 247.581 297.265 246.277 298.752 244.65L299.943 243.348L297.938 240.933C296.835 239.606 295.732 238.514 295.486 238.508C294.305 238.48 295.279 236.595 297.424 234.759L299.81 232.717V230.907V229.096L297.722 227.504C295.129 225.526 295.133 225.295 297.818 222.019L300 219.355L298.707 217.743C297.995 216.857 297.135 215.477 296.794 214.677L296.175 213.221L297.423 211.532C299.253 209.056 298.114 208.245 291.311 207.182C288.787 206.788 288.604 206.184 290 202.842C291.183 200.011 293.599 197.476 296.128 196.412C298.646 195.354 298.469 193.737 295.759 193.035C294.583 192.73 293.595 191.999 293.291 191.208C293.012 190.483 291.958 189.284 290.949 188.544C289.881 187.761 289.247 186.852 289.433 186.368C289.609 185.911 289.465 185.36 289.115 185.143C287.763 184.308 288.579 183.048 290.924 182.345C293.955 181.437 296.902 178.104 297.199 175.248C297.855 168.932 297.882 167.508 297.353 167.182C296.974 166.947 296.977 166.572 297.361 166.108C297.992 165.348 297.928 163.654 297.243 162.968C297.014 162.74 296.828 161.94 296.828 161.19V159.827L294.23 160.79C289.074 162.701 288.15 160.687 293.018 158.147L296.366 156.401L296.486 153.931C296.555 152.502 297.073 150.944 297.716 150.234C299.123 148.679 298.248 147.578 296.179 148.3C294.928 148.738 293.172 148.753 290.416 148.349C289.228 148.175 289.547 147.493 291.162 146.757C292.815 146.004 293.145 144.415 291.758 143.883C290.196 143.283 291.719 138.522 294.107 136.54L295.053 135.755L294.376 134.939C294.004 134.491 293.33 134.124 292.878 134.124C292.426 134.124 292.056 133.856 292.056 133.528C292.056 133.2 291.721 132.929 291.311 132.927C290.901 132.924 290.253 132.248 289.871 131.425L289.176 129.928L290.086 128.105C290.586 127.103 291.311 126.161 291.698 126.013C292.085 125.864 292.456 125.28 292.523 124.715C292.59 124.15 292.714 123.15 292.798 122.494C292.901 121.693 292.642 121.351 292.01 121.453L291.069 121.604L291.326 119.86C291.466 118.9 292.225 117.51 293.012 116.771C294.76 115.129 294.816 114.176 293.231 113.065C292.564 112.598 291.768 111.343 291.462 110.276L290.906 108.336L291.794 106.618C292.284 105.673 292.945 104.9 293.265 104.9C293.584 104.9 293.846 104.518 293.846 104.051C293.846 103.584 294.517 102.404 295.337 101.43C297.139 99.2879 297.178 98.6741 295.635 96.7125C294.177 94.8582 294.118 93.3797 295.452 92.0461L296.462 91.0364L295.452 90.298C294.441 89.5591 294.047 88.1372 294.889 88.2702C296.065 88.4563 296.31 88.1187 295.609 87.2742C295.187 86.7654 294.81 84.9541 294.771 83.2483L294.701 80.1482L291.924 80.3479L289.148 80.5478L288.469 78.0291L287.791 75.5104L288.88 72.4842C289.647 70.3508 290.453 69.2307 291.609 68.6897C292.511 68.2669 293.987 67.5756 294.889 67.1534C296.89 66.2158 297.006 64.8476 295.152 64.0448L293.775 63.4484L294.147 61.448C294.352 60.3482 295.231 58.8357 296.101 58.0872L297.684 56.7262L296.884 55.7635C296.445 55.2339 295.563 54.8003 294.924 54.8003C293.63 54.8003 288.478 51.4675 288.478 50.6308C288.478 50.3367 288.948 49.7421 289.522 49.3079C290.579 48.5093 291.527 47.196 292.725 44.8699C293.089 44.165 294.434 43.1153 295.714 42.5385L298.041 41.4888L297.687 40.2423C297.491 39.5564 296.413 38.1191 295.291 37.0491C294.168 35.9785 293.249 34.6539 293.249 34.1052C293.249 33.5565 292.682 32.5038 291.988 31.766L290.727 30.4241L292.029 28.596C292.745 27.5911 293.577 26.7686 293.878 26.7686C294.314 26.7686 296.231 23.0827 296.231 22.246C296.231 22.1344 295.697 21.5458 295.044 20.9374C294.38 20.3189 293.588 18.4146 293.247 16.6187L292.638 13.4064L293.479 12.5655C294.435 11.61 293.952 9.14203 292.322 6.65556L291.354 5.17764L289.767 5.47941C288.894 5.64522 287.106 6.19751 285.794 6.70625C282.242 8.08279 276.838 7.95874 274.388 6.44503L272.384 5.20625L269.136 6.74324C264.358 9.00307 259.677 8.19134 255.94 4.45537C254.448 2.96313 251.694 3.26789 250.154 5.09591C249.418 5.96967 248.316 7.11002 247.705 7.63069C247.095 8.15196 246.236 8.91896 245.798 9.33526C243.731 11.2987 235.396 7.21679 235.396 4.24185C235.396 3.01323 233.296 3.83628 228.736 6.85237C222.46 11.0029 219.714 10.7911 212.965 5.63807C209.505 2.99593 209.546 2.99414 206.401 5.89393C204.832 7.34025 203.162 8.31956 202.159 8.38159C199.022 8.57542 198.712 8.63686 197.545 9.29769L196.375 9.96031L194.629 8.49192C193.516 7.55555 192.535 7.17563 191.923 7.44402C191.395 7.67543 190.072 7.98974 188.982 8.14242L187 8.42036L185.403 6.89054L183.806 5.36072L179.902 4.96113L175.997 4.56152L172.271 6.44264L168.544 8.32374L166.334 7.92474C165.119 7.70525 162.571 6.62394 160.673 5.52295C155.011 2.23728 153.898 2.28321 149.64 5.9816C147.261 8.04879 146.681 8.07802 144.011 6.26491C142.861 5.48539 140.963 4.5311 139.792 4.14462L137.662 3.44205L134.194 5.21043L130.725 6.97882L126.848 6.75099C121.599 6.44204 120.85 6.21064 118.15 4.06472L115.814 2.20806L113.806 2.5337C112.702 2.71322 110.002 3.94483 107.806 5.27126C102.976 8.18954 103.459 8.17762 100.616 5.44661C94.5502 -0.382194 94.1953 -0.466287 90.7635 3.11521ZM108.728 43.9515C108.521 44.2849 107.213 44.731 105.821 44.9433C102.592 45.4359 96.9001 47.0821 96.1623 47.7369C95.8504 48.0137 95.1961 48.2397 94.7083 48.2397C93.4534 48.2397 89.879 50.7751 89.8743 51.6691C89.8689 52.6437 90.0759 52.6192 93.0341 51.2934C94.5323 50.6218 98.1675 49.9294 102.097 49.5667C117.793 48.118 124.611 50.9063 126.944 59.7268L127.695 62.5651L126.628 64.3717C126.041 65.3653 125.24 66.7717 124.848 67.4969C123.676 69.6673 117.534 75.675 116.488 75.675C115.294 75.675 115.226 73.9692 116.355 72.3565C116.818 71.6969 117.23 70.4969 117.274 69.6888C117.317 68.8806 117.425 66.6094 117.515 64.6412L117.678 61.0627L115.106 58.4498L112.535 55.8369L110.419 56.1804C109.254 56.3695 106.708 57.6124 104.759 58.9425C98.7031 63.0756 96.9037 61.6961 102.073 56.8842L105.475 53.719L104.261 53.3337C103.593 53.122 101.644 53.3647 99.9287 53.8741C98.214 54.3834 95.4997 54.8003 93.8977 54.8003C92.2951 54.8003 90.5327 55.0323 89.9798 55.3162C89.4276 55.6001 86.0906 56.0111 82.564 56.2299L76.1525 56.6271V55.8333C76.1525 55.3973 77.0918 54.7001 78.2399 54.285C79.388 53.8699 80.3274 53.2795 80.3274 52.9723C80.3274 52.1898 77.5027 52.2739 77.0101 53.0713C76.7727 53.4548 75.8554 53.5777 74.8022 53.3671C73.8109 53.1691 72.7028 53.2413 72.3395 53.5276C71.9763 53.8138 70.6815 54.3697 69.4624 54.7622C68.2433 55.1552 65.4253 56.6969 63.2 58.1892L59.1545 60.9017L57.6635 59.9534C54.4833 57.9309 51.0003 56.6295 48.9712 56.7059L46.8534 56.7858L45.1613 58.8387C44.2303 59.9677 42.982 61.7951 42.3868 62.9003L41.3049 64.9096L42.0206 67.5858C42.4249 69.0977 42.5717 71.4625 42.3581 73.0215L41.98 75.7812L40.4729 76.4677C37.7174 77.7231 34.9608 80.5782 35.3425 81.7812C35.5608 82.4676 35.1236 83.6372 34.192 84.8581L32.6902 86.8275L33.6057 87.743L34.5212 88.6585L33.4512 90.2909C32.4719 91.7855 32.1343 93.224 31.0512 100.513L30.6838 102.985L31.9876 103.399L33.2914 103.813L33.116 105.698C33.0194 106.735 33.3289 109.027 33.8043 110.792L34.6679 114L36.277 114.561C38.3812 115.295 38.8029 116.552 37.6918 118.779C36.5168 121.135 36.5478 121.397 38.0424 121.788L39.2955 122.116L37.9023 124.596C37.1353 125.959 36.0122 127.341 35.4051 127.665C33.1309 128.883 31.6113 138.098 33.2478 140.746C33.5174 141.182 33.122 142.352 32.296 143.568L30.8842 145.646L31.4657 146.732L32.0472 147.818L30.6468 150.067C27.9683 154.367 27.9397 156.832 30.5973 154.336L32.0329 152.986L32.7415 153.695L33.4494 154.403L32.6944 156.493C32.2787 157.642 32.0818 159.051 32.2566 159.623C32.4319 160.196 32.2083 163.751 31.7598 167.524C30.9045 174.717 30.7864 175.362 29.596 179.337C29.0783 181.064 29.0443 182.028 29.482 182.564C30.15 183.382 29.5262 188.819 28.4353 191.688C27.1184 195.152 28.0178 206.504 30.1518 213.354C30.4936 214.45 30.6361 216.06 30.4691 216.932C30.3015 217.804 30.0814 221.067 29.9789 224.183C29.8763 227.3 29.6431 230.386 29.4594 231.042C29.2763 231.698 29.1063 232.394 29.0812 232.588C29.0556 232.781 28.0292 234.004 26.7988 235.305C23.6556 238.629 22.5821 240.045 21.2091 242.678C20.5501 243.942 19.6262 245.297 19.1556 245.687C18.1143 246.551 18.0386 248.733 19.0155 249.71C20.0228 250.718 21.8783 250.601 21.8783 249.531C21.8783 248.237 22.8761 248.427 25.1395 250.154L27.1286 251.671L28.8278 251.295C29.7618 251.09 31.5999 250.492 32.9121 249.969C34.2242 249.445 36.7649 248.864 38.5584 248.678L41.8184 248.338L42.6802 246.549C43.1544 245.565 43.7323 244.357 43.9643 243.865C44.3705 243.005 46.4687 242.847 50.5064 243.373L51.9975 243.567L51.8227 241.72C51.6987 240.417 52.2503 238.958 53.6955 236.763C55.8396 233.508 55.9004 232.704 54.2794 229.069C52.8927 225.959 56.2124 223.74 59.2875 225.722L60.6139 226.576L61.4841 225.231C61.9625 224.491 62.5308 223.167 62.7467 222.288C63.2752 220.137 64.8455 219.611 66.104 221.165C67.4591 222.839 67.8026 222.714 67.8026 220.549C67.8026 219.206 67.4781 218.619 66.6097 218.392C65.1855 218.019 65.065 216.868 66.339 215.81L67.2616 215.045L70.27 215.739C74.5779 216.734 75.7976 215.018 73.1704 211.659C70.2145 207.88 72.3127 206.006 76.7334 208.476L79.762 210.168L80.3369 209.273C80.6524 208.781 80.7473 207.976 80.5469 207.484C78.4224 202.268 78.0127 200.662 78.6187 199.931L79.2688 199.148L80.8415 200.237C84.7075 202.912 85.3558 202.294 82.9642 198.213C81.0377 194.925 81.2602 193.653 83.9131 192.794C86.5671 191.936 86.8349 190.522 84.754 188.349L83.1061 186.629L84.1946 185.426C85.5759 183.9 87.0037 183.896 88.3791 185.416C89.7806 186.965 91.6594 186.985 91.6594 185.451C91.6594 184.814 91.391 184.128 91.0629 183.925C89.7687 183.125 90.7623 178.679 92.4943 177.523C93.8452 176.621 94.6176 177.144 96.0025 179.899C98.0834 184.041 98.9572 185.512 100.457 187.398C102.081 189.441 102.149 191.093 100.709 193.468C97.8866 198.121 98.0202 200.78 100.978 198.842C104.522 196.52 105.174 199.321 102.097 203.649C99.4677 207.347 99.3985 208.309 101.799 207.782L103.589 207.389L103.965 208.369C104.353 209.38 103.986 210.267 101.49 214.343C99.0263 218.365 99.6526 220.84 102.395 217.921C105.352 214.774 106.457 217.344 104.117 221.93L102.857 224.399L103.838 225.116C104.522 225.617 104.999 227.423 105.417 231.101L106.016 236.369L104.707 239.124C103.439 241.798 100.838 243.745 97.3254 244.656C96.6693 244.826 94.5222 245.65 92.554 246.488C90.5858 247.326 88.2425 248.018 87.3467 248.026L85.7178 248.04L85.3522 249.497C84.8715 251.414 85.5121 252.354 86.9811 251.888C87.6932 251.662 88.589 251.894 89.2242 252.469L90.2822 253.426L91.8103 252.224C93.7128 250.728 93.9562 250.731 95.5904 252.266L96.9144 253.51L98.2367 252.803C98.9637 252.414 100.291 252.241 101.186 252.421C102.081 252.6 104.519 252.505 106.603 252.21C108.687 251.916 110.673 251.894 111.016 252.161C112.425 253.259 114.976 253.38 117.431 252.464C118.838 251.94 121.6 251.148 123.568 250.706C127.554 249.81 130.034 249.132 134.005 247.85L136.689 246.983L136.547 245.723L136.405 244.462H139.359H142.313L144.351 242.672C145.472 241.688 146.958 240.883 147.652 240.883C149.336 240.883 149.256 239.409 147.409 236.41C145.001 232.5 145.579 230.064 148.589 231.436C151.819 232.908 151.748 230.674 148.359 224.175C147.559 222.641 148.324 219.412 149.488 219.412C151.208 219.412 153.687 215.686 153.687 213.099C153.687 212.242 154.057 210.695 154.509 209.661C154.961 208.628 155.781 206.527 156.331 204.993L157.331 202.204L156.553 200.931L155.774 199.657L156.932 198.799C158.318 197.772 159.765 197.697 160.673 198.605C162.363 200.294 163.317 197.299 161.669 195.478L160.705 194.413L161.85 192.452C163.284 189.997 164.671 189.706 166.94 191.383C168.976 192.889 169.627 192.508 169.897 189.651C170.004 188.515 170.555 187.335 171.149 186.967L172.21 186.311L172.78 187.205C173.094 187.697 173.356 189.308 173.363 190.784C173.371 192.26 173.731 194.147 174.164 194.977C174.597 195.807 175.28 198.223 175.682 200.345C176.084 202.467 177.257 205.814 178.288 207.782C179.319 209.75 180.315 212.3 180.501 213.448L180.84 215.535L182.173 215.726C183.048 215.851 183.637 216.465 183.888 217.515C184.098 218.395 184.522 219.606 184.831 220.207L185.392 221.3L186.153 220.259C187.283 218.714 188.487 219.521 190.579 223.228C193.026 227.565 192.995 227.761 189.332 231.055C185.422 234.571 184.599 234.875 178.088 235.211L172.794 235.484L169.773 237.015C168.111 237.857 166.598 238.948 166.41 239.439C165.856 240.882 168.004 242.801 169.698 242.376C170.765 242.108 171.572 242.417 172.746 243.542L174.343 245.072L176.304 244.388L178.265 243.705L179.581 245.354L180.896 247.003L183.742 246.946C186.704 246.887 190.12 245.945 192.14 244.63C193.951 243.452 195.982 243.634 195.639 244.944C194.977 247.475 205.259 248.054 206.99 245.583C207.412 244.979 208.724 244.082 209.904 243.589C211.166 243.062 212.209 242.136 212.439 241.341C213.13 238.935 214.478 236.295 215.406 235.524C215.904 235.111 216.311 234.283 216.311 233.683C216.311 233.083 216.662 232.378 217.092 232.116C218.083 231.51 219.424 228.225 219.272 226.778C219.049 224.656 219.305 224.149 220.911 223.539C222.084 223.093 222.906 223.127 223.905 223.661C225.515 224.523 226.835 223.662 226.248 222.132C226.002 221.491 225.265 221.241 223.932 221.346L221.977 221.5L221.789 219.864L221.601 218.229L223.16 217.518L224.72 216.808L226.671 217.514C227.744 217.902 229.167 218.219 229.833 218.219C230.518 218.219 232.336 219.58 234.02 221.35C235.657 223.073 238.091 225.422 239.429 226.572C240.767 227.721 242.059 229.451 242.301 230.415L242.741 232.169L240.594 234.026C239.407 235.051 236.286 236.634 233.619 237.562C228.139 239.47 225.561 241.061 224.183 243.388L223.228 244.998L224.338 246.223C224.947 246.897 226.142 247.464 226.992 247.484C230.626 247.567 233.426 247.548 235.098 247.428C236.082 247.358 237.424 247.332 238.08 247.369C241.504 247.566 250.022 246.111 254.541 244.559C263.285 241.554 264.926 240.292 266.692 235.217C267.263 233.577 267.97 231.698 268.265 231.042C268.559 230.386 269.07 228.392 269.4 226.611C269.729 224.829 270.434 222.89 270.967 222.302L271.935 221.232L270.883 219.577C270.304 218.666 269.284 217.318 268.615 216.581C267.947 215.845 267.584 215.057 267.81 214.832C268.036 214.606 267.375 213.549 266.342 212.483C263.379 209.425 265.715 207.122 269.261 209.606C270.532 210.496 271.778 210.347 271.778 209.305C271.778 209.033 269.899 207.293 267.603 205.438C264.965 203.306 263.428 201.628 263.428 200.879C263.428 198.861 265.133 198.855 267.791 200.863C273.505 205.182 275.004 204.82 270.968 200.097C269.445 198.314 268.2 196.579 268.2 196.241C268.2 194.943 269.575 194.87 271.214 196.081C273.237 197.577 273.567 197.632 273.567 196.471C273.567 195.991 273.002 195.295 272.311 194.925L271.055 194.253L271.389 192.579C271.637 191.342 271.343 190.464 270.261 189.205C269.456 188.269 268.797 186.781 268.797 185.899C268.797 185.016 268.528 184.128 268.2 183.925C267.294 183.366 267.487 181.845 268.513 181.451C269.012 181.259 270.459 181.789 271.728 182.629C275.766 185.3 275.339 182.928 270.965 178.385L268.502 175.827L269.395 175.263C269.886 174.953 270.875 174.695 271.594 174.69C273.551 174.676 273.857 173.574 272.349 171.97L271.006 170.541L271.787 169.6L272.567 168.66L270.025 166.069L267.481 163.478L267.89 162.192C268.127 161.445 267.981 160.524 267.543 159.996C267.128 159.495 266.697 157.584 266.587 155.747C266.477 153.911 266.16 152.119 265.882 151.766C265.605 151.411 265.225 150.451 265.038 149.631C264.851 148.811 264.143 146.261 263.464 143.965C262.785 141.669 261.806 137.643 261.289 135.019C260.772 132.394 259.926 128.771 259.41 126.967C258.893 125.163 258.384 122.613 258.278 121.301C257.937 117.089 256.324 110.122 255.46 109.136C254.681 108.246 253.747 105.981 253.59 104.601C253.52 103.983 252.703 101.956 251.071 98.3479C249.919 95.8006 243.841 89.3938 242.572 89.3897C241.341 89.3849 235.889 83.6694 236.113 82.6179C236.302 81.7298 230.072 75.369 226.126 72.4215C224.828 71.4524 223.432 70.2011 223.024 69.6416C221.749 67.8941 216.981 65.6015 213.19 64.9144C211.181 64.55 208.733 63.6345 207.715 62.8669C202.387 58.8488 198.587 58.2602 176.351 58.012C146.349 57.6775 142.098 57.1264 137.285 52.9479C136.629 52.3783 134.214 51.4264 131.918 50.8323C129.621 50.2383 126.132 48.8612 124.164 47.7721C122.196 46.6831 119.781 45.43 118.796 44.9874C116.384 43.9031 109.213 43.1648 108.728 43.9515ZM83.019 67.1719C81.7111 67.3049 80.3226 67.6782 79.9332 68.0009C79.5443 68.3241 76.7226 68.7094 73.6636 68.8579C70.604 69.0064 67.4298 69.3679 66.6097 69.6607C65.7897 69.9535 63.7768 70.538 62.1366 70.9597C60.4964 71.3808 57.1911 72.8158 54.7917 74.1476C52.3923 75.48 49.7871 76.9144 49.0023 77.3354C46.2211 78.8283 38.8733 86.7207 37.2236 89.9879C35.38 93.638 35.9204 94.5982 38.4766 92.2143C40.7532 90.0911 43.9333 89.231 47.7432 89.707C49.8706 89.9724 51.0975 89.8835 51.3694 89.4439C52.072 88.3066 56.3358 86.4106 58.1901 86.4106C62.0084 86.4106 64.9767 90.7656 62.3931 92.5757C61.7137 93.0511 61.0165 94.3382 60.8436 95.4356C60.4541 97.9059 59.3943 99.997 57.2376 102.547C55.6851 104.383 55.2384 105.809 53.1152 115.7C52.9046 116.682 53.2601 118.193 54.0796 119.8C54.7935 121.2 55.2432 122.861 55.078 123.492L54.778 124.639L57.5627 126.419L60.3473 128.199L62.3072 127.915C63.3855 127.759 66.1761 127.995 68.5087 128.44C72.6103 129.221 73.1543 129.215 75.4069 128.36C75.9807 128.143 77.6399 127.528 79.0934 126.993C82.1041 125.887 82.7751 124.871 80.8886 124.272C80.0035 123.991 79.029 124.28 77.8051 125.184L76.0159 126.507L71.1634 125.756C68.495 125.344 64.9267 124.977 63.2346 124.943L60.1577 124.88L58.8819 123.258L57.6062 121.636L59.275 121.278C64.0773 120.248 64.9779 118.418 61.2807 117.203C57.0641 115.817 57.4046 110.249 61.9255 106.676L64.8449 104.369L69.1565 104.404C74.3024 104.446 76.4405 105.393 77.5874 108.138C79.4095 112.498 77.659 117.098 73.9207 117.774C71.2511 118.258 68.399 119.617 68.399 120.405C68.399 122.552 79.6797 123.237 81.29 121.188C84.9389 116.543 86.2057 112.794 84.8339 110.7C84.3049 109.892 83.625 107.068 83.3232 104.423C83.0214 101.778 82.4495 99.0934 82.0522 98.457L81.3294 97.3L82.6385 95.4612L83.9477 93.6225L82.4256 92.6253L80.9029 91.6274L81.5829 90.8085C81.9568 90.3577 82.496 89.9891 82.7811 89.9891C83.0662 89.9891 84.5662 89.0223 86.1145 87.8402L88.9302 85.6907L91.147 85.9883C92.3667 86.1517 94.2812 86.9849 95.4013 87.839C96.5214 88.6936 98.1943 89.3927 99.1188 89.3927C101.283 89.3927 105.973 92.1326 105.973 93.3964C105.973 93.9308 106.377 94.8147 106.872 95.3604L107.769 96.3529L107.134 98.1755L106.499 99.9976L107.471 103.343C108.067 105.392 108.774 106.689 109.296 106.689C109.765 106.689 110.349 106.756 110.596 106.838C112.22 107.379 111.599 96.6839 109.844 93.8897C109.424 93.2205 108.899 92.0694 108.679 91.331L108.279 89.9891H109.81C111.738 89.9891 111.726 89.7982 109.576 86.4487C106.031 80.9241 103.247 79.3531 96.8685 79.2798C94.1822 79.2482 89.8701 77.9873 89.8701 77.2323C89.8701 76.9197 91.6796 76.8899 94.1941 77.1601C96.5727 77.4165 99.7259 77.6563 101.202 77.6939L103.886 77.7625L104.071 76.4617L104.256 75.1615L100.961 73.0531C99.148 71.8937 97.0564 70.3317 96.3126 69.582C93.8989 67.1504 90.0598 66.4538 83.019 67.1719ZM111.418 78.8629L110.752 79.6651L112.157 83.1165C112.929 85.0149 114.001 86.8143 114.539 87.1155C115.821 87.833 117.429 90.9493 117.87 93.5676L118.22 95.6551H119.677H121.133L121.52 93.7638C121.733 92.7231 121.681 91.5153 121.405 91.0799C121.128 90.6439 120.898 89.6527 120.893 88.8768C120.882 87.2217 118.237 82.1515 116.129 79.7444C114.55 77.9414 112.501 77.5579 111.418 78.8629ZM4.13481 102.209C3.24734 102.85 2.79287 103.795 2.79287 105V106.822L4.80757 106.444L6.82169 106.066L7.2362 107.421C7.46403 108.166 7.73897 110.196 7.84693 111.933L8.04315 115.088L6.67138 115.987C5.91631 116.481 4.96861 117.684 4.56424 118.66C4.15986 119.636 3.44476 120.65 2.97537 120.913C2.38492 121.243 2.24654 121.89 2.52686 123.007L2.93244 124.623L5.47199 125.302L8.01154 125.982L8.03003 127.518C8.04196 128.548 7.16223 129.966 5.36283 131.817L2.67836 134.58L5.4195 137.441C8.12008 140.259 8.68967 141.48 7.61373 142.145C7.31254 142.331 6.05826 144.524 4.82546 147.019L2.58472 151.554L3.19903 152.531C3.54376 153.078 5.47198 153.869 7.58927 154.329L11.3652 155.15L13.6531 152.697L15.9409 150.245L15.5551 148.596C15.1227 146.751 13.1604 144.893 11.6241 144.873C11.0682 144.866 10.2082 144.281 9.71194 143.572L8.81014 142.285L10.365 140.441C11.2203 139.427 12.4829 138.597 13.1712 138.597C14.0557 138.597 14.4815 138.159 14.6228 137.106C14.7326 136.286 15.0678 135.36 15.3684 135.049C16.0244 134.367 16.0978 132.336 15.4668 132.331C14.7857 132.326 9.35348 127.044 9.35348 126.386C9.35348 126.069 10.1724 125.205 11.1738 124.464C12.4728 123.504 12.9063 122.772 12.6892 121.906C12.2163 120.021 13.1682 119.005 15.0672 119.369C17.4696 119.828 18.2998 119.316 18.2998 117.376V115.666L16.5403 114.756C15.5723 114.256 14.3932 113.846 13.9203 113.846C12.9815 113.846 12.3356 112.61 12.3356 110.815V109.671H14.0055C16.3197 109.671 17.1069 108.662 17.1069 105.698V103.156L14.8704 102.597C13.6405 102.289 12.2312 102.02 11.7392 101.999C11.2471 101.978 9.63678 101.799 8.16064 101.6C6.18471 101.335 5.12308 101.495 4.13481 102.209ZM4.48491 166.182C3.52408 167.323 3.65349 173.447 4.63997 173.537C6.65527 173.723 9.21511 173.564 10.099 173.197C10.6728 172.959 11.5203 172.909 11.9813 173.086C14.0479 173.878 15.3684 170.193 14.0521 167.304C12.9678 164.924 6.21095 164.131 4.48491 166.182ZM4.54634 195.623C4.14197 196.378 3.75729 197.887 3.69108 198.976C3.62428 200.085 3.09705 201.304 2.49526 201.744C1.74735 202.291 1.62866 202.66 2.10639 202.954C2.48392 203.188 2.79287 204.007 2.79287 204.775C2.79287 205.805 3.437 206.506 5.25608 207.454L7.7193 208.739L7.40378 207.53L7.08768 206.322L9.7018 206.436C13.0811 206.582 13.4562 206.127 13.6328 201.658C13.7998 197.43 13.1557 196.38 9.88489 195.552C8.77257 195.27 7.28152 194.862 6.57178 194.645L5.28053 194.25L4.54634 195.623ZM2.53701 217.367C0.850936 219.053 1.43661 220.493 4.43302 222.028C5.49942 222.574 6.37139 223.237 6.37139 223.5C6.37139 224.439 2.66762 229.551 1.9877 229.551C1.11216 229.551 -0.40454 232.895 0.100627 233.712C0.560466 234.457 11.1022 234.519 12.2634 233.783C13.0942 233.257 13.3507 228.325 12.6087 227.125C12.4078 226.8 12.9296 225.362 13.7688 223.931L15.2938 221.328L14.4111 220.595C13.9256 220.192 13.5284 219.368 13.5284 218.764C13.5284 216.412 4.62389 215.281 2.53701 217.367ZM3.69525 246.588L2.51077 247.483L3.43343 249.104C4.39247 250.789 4.66921 250.836 9.25627 250.083L11.8423 249.658L12.5026 248.21L13.1622 246.762L12.3016 246.218C10.9083 245.336 5.01692 245.59 3.69525 246.588Z" fill="#FBFDFD"/>
</svg>
