<svg width="500" height="500" viewBox="0 0 500 500" fill="none" xmlns="http://www.w3.org/2000/svg">
<path fill-rule="evenodd" clip-rule="evenodd" d="M386.989 89.4299C393.775 89.5618 398.654 89.8369 398.899 90.1007C399.993 91.2823 400.209 97.4648 399.821 116.526C399.602 127.328 399.348 140.09 399.259 144.887C399.17 149.683 398.828 167.897 398.499 185.361C398.17 202.825 397.94 219.831 397.986 223.152C398.032 226.473 398.177 235.932 398.306 244.172C398.436 252.412 398.488 266.299 398.423 275.031C398.357 283.763 398.313 297.448 398.325 305.443C398.387 347.418 398.396 357.879 398.375 361.346C398.362 363.437 398.605 374.104 398.914 385.05C399.223 395.996 399.346 405.838 399.187 406.921L398.899 408.89L365.953 408.584C347.833 408.416 312.178 408.32 286.719 408.371C233.741 408.476 236.863 408.479 233.051 408.327C231.452 408.263 228.232 408.305 225.896 408.421C216.143 408.902 166.701 409.62 149.419 409.532C139.485 409.481 139.979 409.471 129.517 409.902C125.582 410.064 117.701 410.051 112.005 409.873L101.648 409.55L101.475 390.927C101.366 379.324 101.477 371.123 101.768 369.173C102.025 367.451 102.185 362.017 102.122 357.098C101.703 324.195 101.709 306.874 102.139 305.443C102.509 304.211 102.717 272.619 102.455 257.365C102.442 256.627 102.562 253.858 102.72 251.213L103.009 246.401L101.795 243.92C100.925 242.142 100.652 241.034 100.831 240.01C101.215 237.823 100.982 165.248 100.487 132.588C100.382 125.7 100.23 113.524 100.148 105.53L100 90.9952L103.801 90.6517C105.892 90.463 129.137 90.2434 155.457 90.1638C190.405 90.0578 203.65 89.8794 204.569 89.5005C206.333 88.7751 212.45 88.8547 214.654 89.632L216.495 90.2814L230.252 90.255C237.818 90.2407 245.92 90.2251 248.257 90.2201C250.594 90.2157 256.451 90.2863 261.272 90.3776C267.724 90.4997 270.213 90.3995 270.697 89.9979L271.354 89.4522L282.055 89.5954C289.772 89.6991 293.155 89.9075 294.186 90.344L295.615 90.9496L299.686 90.3735C302.049 90.039 308.108 89.7948 314.133 89.7912C319.841 89.7877 329.091 89.6978 334.69 89.5913C340.289 89.4844 347.735 89.5837 351.238 89.8118C355.573 90.094 357.887 90.0775 358.486 89.7595C359.497 89.2242 370.107 89.1016 386.989 89.4299ZM381.756 98.0266C382.494 98.2882 383.631 98.8759 384.284 99.3329C385.859 100.434 386.872 100.381 389.176 99.0722C390.232 98.472 391.264 98.0847 391.469 98.2113C391.829 98.4335 391.616 122.473 391.133 136.166C390.69 148.706 390.292 209.417 390.497 233.215C390.721 259.37 390.763 289.51 390.586 298.511C390.524 301.708 390.579 313.884 390.708 325.568L390.944 346.811L389.292 355.773L390.943 364.254L390.496 366.937C390.25 368.413 390.169 370.074 390.315 370.628C390.462 371.183 390.36 372.516 390.09 373.59L389.598 375.545L391.039 379.776L390.688 382.301C390.242 385.504 390.245 388.09 390.698 394.119L391.06 398.94L385.737 398.856C382.809 398.81 372.968 398.786 363.866 398.804C354.765 398.821 345.809 398.803 343.965 398.764C342.12 398.725 336.523 398.825 331.528 398.988C326.532 399.151 321.859 399.116 321.142 398.91C320.417 398.702 315.736 398.752 310.592 399.024L301.346 399.511L299.368 398.982C298.28 398.691 297.152 398.6 296.862 398.78C296.572 398.96 280.134 399.162 260.332 399.228C240.531 399.295 222.016 399.551 219.187 399.798C212.716 400.362 207.285 400.379 206.275 399.839C205.794 399.582 204.228 399.586 202.168 399.85C199.369 400.21 190.907 400.462 185.868 400.336C185.13 400.318 183.923 400.298 183.185 400.292C182.447 400.286 181.441 400.275 180.949 400.267C177.817 400.219 149.249 400.727 145.394 400.9C142.811 401.016 136.572 401.185 131.53 401.276C126.487 401.367 121.827 401.594 121.173 401.781C120.476 401.98 119.599 401.914 119.049 401.62L118.113 401.119L116.212 402.136L114.2 401.059L113.211 401.588C112.667 401.879 112.103 401.998 111.958 401.852C110.97 400.864 110.705 381.413 111.505 368.576C112.166 357.968 112.163 356.126 111.472 352.511L110.937 349.714L112.35 346.981L111.825 345.389C111.496 344.392 111.426 343.025 111.637 341.727C112.15 338.576 112.103 335.048 111.505 331.829C110.69 327.45 110.818 322.823 111.836 319.8C112.32 318.364 112.743 316.006 112.778 314.559L112.84 311.927L109.959 305.248L110.168 301.879C110.312 299.572 110.711 297.836 111.436 296.368L112.494 294.226L109.954 287.077L110.214 284.744C110.357 283.46 110.688 281.303 110.95 279.95C111.575 276.723 111.107 261.247 110.236 256.332L109.577 252.616L110.267 251.301C110.646 250.578 111.28 249.37 111.675 248.617L112.392 247.248L111.85 240.231C111.552 236.372 110.927 231.718 110.462 229.888C109.429 225.827 109.406 224.373 110.334 221.65L111.052 219.542L110.543 218.313C109.876 216.702 109.87 214.837 110.502 204.145C111.099 194.023 110.784 170.467 109.959 163.67C109.369 158.801 109.4 156.596 110.12 152.437C110.693 149.125 110.357 146.228 109.398 146.228C109.055 146.228 108.644 146.018 108.485 145.761C108.11 145.154 109.459 143.098 110.234 143.098C111.039 143.098 111.223 137.025 110.447 136.09C110.148 135.729 109.845 133.911 109.774 132.05C109.687 129.788 109.417 128.414 108.959 127.908C108.077 126.933 108.077 125.656 108.958 125.656C109.954 125.656 110.271 124.421 109.599 123.166L109.018 122.078L109.483 120.177C109.739 119.132 110.592 115.861 111.378 112.91C112.163 109.958 112.944 105.734 113.111 103.523L113.417 99.502L115.811 98.3575L118.993 99.875L121.302 98.6393L122.055 99.1791C123.798 100.426 125.122 100.688 128.283 100.411C130.343 100.23 131.859 100.308 132.45 100.624L133.379 101.121L135.423 99.7819L144.419 100.781L148.031 99.5883L150.852 100.757L152.288 100.238C153.077 99.9528 155.622 99.7381 157.944 99.7605C160.265 99.7833 163.574 99.7712 165.296 99.7336C170.999 99.6098 175.513 99.6563 181.62 99.9027C184.94 100.036 189.77 100.12 192.353 100.088C194.936 100.057 200.188 99.9971 204.025 99.9559C208.588 99.9072 211.488 99.6795 212.411 99.2971L213.821 98.7131L215.152 99.8173L216.993 99.0807C218.177 98.6071 219.018 98.4944 219.346 98.7645C219.628 98.9962 223.078 99.3298 227.014 99.506C230.949 99.6822 234.427 100.033 234.743 100.285C235.139 100.602 235.842 100.571 237.013 100.184C238.084 99.8307 239.686 99.7287 241.359 99.9072C246.897 100.499 251.444 100.032 253.265 98.6858L254.526 97.7533L256.87 98.7891C260.319 100.313 261.171 100.347 264.035 99.0753C267.145 97.6934 267.645 97.6643 268.44 98.8186L269.053 99.7095L281.129 99.7609C287.77 99.7891 294.311 99.7708 295.664 99.7202C299.461 99.5785 319.042 100.489 319.947 100.849C320.388 101.025 322.986 100.922 325.72 100.621L330.69 100.071L333.28 100.621C334.717 100.926 336.228 101.01 336.675 100.811C338.223 100.12 352.848 99.8799 362.785 100.382L369.753 100.734L373.071 99.9953C374.896 99.5887 376.993 98.858 377.731 98.3714C379.226 97.3848 379.806 97.3351 381.756 98.0266ZM223.436 151.617C226.338 153.041 227.237 153.205 227.994 152.448C228.348 152.094 228.775 152.138 229.537 152.607C230.117 152.964 232.503 153.707 234.84 154.26C240.348 155.562 245.414 158.032 249.599 161.454C251.444 162.962 253.776 164.576 254.781 165.04L256.609 165.884L266.633 165.942C278.177 166.009 284.321 165.652 287.134 164.752C288.318 164.372 290.978 164.118 293.746 164.118H298.377L303.043 166.572L310.87 166.815C316.538 166.99 319.066 167.242 320.038 167.729L321.379 168.401L321.114 171.748L324.154 173.162C328.837 175.341 334.552 178.94 340.528 183.471L345.97 187.597L344.967 187.74C343.573 187.939 343.711 188.475 345.53 189.926C346.605 190.784 347.095 191.543 347.095 192.35C347.095 192.997 347.412 193.788 347.799 194.109C349.367 195.41 350.282 198.222 350.924 203.712C351.281 206.76 351.877 210.701 352.249 212.469L352.925 215.685L351.405 217.364L352.147 223.277C352.555 226.529 353.105 231.403 353.369 234.109C353.634 236.815 354.048 240.681 354.289 242.701L354.727 246.374L353.636 248.121L354.866 251.85L354.335 252.701C354.043 253.169 353.804 253.975 353.804 254.492C353.804 255.01 353.378 255.778 352.857 256.2L351.909 256.967L351.965 262.272C351.995 265.19 352.234 268.368 352.494 269.335L352.967 271.094L352.198 271.945C351.017 273.25 350.763 273.004 350.422 270.223C350.009 266.865 349.523 265.639 348.604 265.639H347.854L348.144 271.118C348.304 274.131 348.485 276.977 348.547 277.442C348.723 278.755 347.601 278.821 347.109 277.527C346.247 275.259 344.859 276.338 344.859 279.276C344.859 280.095 344.457 282.041 343.966 283.6C343.475 285.159 342.962 287.542 342.827 288.895C342.262 294.557 342.146 295.06 341.347 295.269C340.812 295.409 340.386 296.252 340.024 297.887L339.49 300.299L339.989 302.088C340.263 303.072 340.972 304.833 341.563 306.002C342.646 308.142 342.447 308.582 340.848 307.584C339.632 306.825 339.229 307.448 339.841 309.143C340.127 309.937 340.561 311.999 340.805 313.727C341.049 315.454 341.558 317.743 341.936 318.814C342.74 321.093 342.81 322.519 342.149 323.179C341.889 323.44 341.407 325.204 341.077 327.098C340.339 331.348 340.538 331.179 337.401 330.227C335.969 329.792 333.808 329.32 332.601 329.179L330.406 328.922L330.336 327.581C330.075 322.647 329.495 319.876 328.379 318.226L327.193 316.475L327.312 307.94C327.376 303.246 327.545 298.652 327.685 297.731L327.942 296.058L325.798 295.243L325.317 291.598C324.599 286.162 323.682 285.85 323.789 291.078L323.853 294.191L321.221 296.066L320.934 295.163C320.735 294.534 320.259 294.262 319.357 294.262H318.066L317.847 292.808C317.727 292.009 317.466 290.047 317.268 288.448L316.907 285.541L315.269 285.404C313.344 285.244 312.998 284.626 313.605 282.428C313.85 281.54 313.921 280.407 313.764 279.91C313.339 278.572 312.102 279.058 311.668 280.734C311.303 282.14 310.72 282.582 310.244 281.813C310.117 281.608 310.247 280.677 310.534 279.745L311.054 278.05L309.819 276.988C308.243 275.632 307.526 275.65 306.095 277.081L304.939 278.238L305.247 282.029C305.573 286.06 305.173 288.137 303.648 290.311C303.188 290.967 302.697 292.174 302.556 292.994C302.415 293.815 302.124 294.888 301.91 295.38C301.695 295.872 300.896 297.683 300.134 299.405C298.089 304.027 297.015 310.588 296.932 318.971C296.914 320.864 296.268 321.123 295.068 319.72L294.272 318.791L293.626 319.327C292.805 320.009 292.818 321.474 293.681 325.121L294.368 328.028L293.229 329.01C292.603 329.551 290.991 330.339 289.647 330.763L287.203 331.534L284.613 330.961C277.778 329.449 277.414 328.939 280.134 324.687C281.268 322.914 282.832 319.937 283.608 318.073L285.02 314.682L282.918 313.075L284.554 310.041C285.455 308.373 286.33 306.002 286.498 304.772C286.666 303.542 287.288 300.965 287.88 299.046L288.955 295.557V291.094C288.955 288.172 288.728 286.085 288.296 285.052L287.636 283.473L284.259 283.752L283.981 286.341C283.828 287.764 283.601 289.032 283.476 289.157C283.01 289.623 282.674 286.998 283.13 286.449C283.706 285.755 283.319 284.587 282.395 284.232C281.334 283.825 280.905 284.346 280.905 286.044C280.905 287.711 280.246 289.342 279.572 289.342C279.349 289.342 279.205 288.206 279.253 286.818C279.311 285.135 279.154 284.228 278.781 284.097C278.396 283.962 278.222 284.442 278.222 285.642C278.222 286.599 277.926 287.773 277.565 288.251C276.851 289.195 276.748 288.977 276.869 286.771L276.948 285.317L276.132 285.322C275.56 285.326 275.046 286.031 274.42 287.67L273.526 290.013H272.631C271.696 290.013 271.698 290.035 272.262 286.508L272.536 284.791L270.42 285.094L269.883 286.883C269.587 287.866 269.33 290.217 269.311 292.105L269.277 295.539L268.207 296.354C267.619 296.802 266.787 297.377 266.359 297.632L265.58 298.095L266.301 300.575C266.811 302.331 266.905 303.463 266.621 304.453C266.4 305.222 266.335 306.289 266.475 306.825C266.656 307.518 266.555 307.74 266.123 307.596C265.79 307.485 265.338 306.704 265.12 305.859C264.67 304.115 263.973 303.111 263.355 303.317C262.864 303.481 259.887 310.991 259.881 312.083C259.874 313.234 257.75 317.518 257.185 317.518C256.908 317.518 256.785 317.266 256.912 316.959C257.039 316.652 257.387 315.654 257.685 314.743L258.225 313.086L257.48 311.948C256.438 310.358 256.127 310.49 254.616 313.157C253.884 314.449 252.858 315.889 252.335 316.359C250.197 318.278 250.22 320.269 252.472 328.475C254.202 334.774 253.794 337.38 251.611 333.979C251.119 333.212 250.233 332.269 249.641 331.882L248.565 331.181L248.799 333.253C248.928 334.393 249.462 335.928 249.987 336.665C251.165 338.32 251.172 338.538 250.046 338.538H249.152L249.096 340.327C248.931 345.596 249.048 345.425 245.333 345.862C240.714 346.404 240.165 345.685 241.38 340.682C242.444 336.295 241.175 334.444 239.527 337.979C238.522 340.134 238.558 340.105 237.763 339.446L237.087 338.884L236.893 339.493C236.786 339.829 236.365 341.159 235.957 342.451L235.215 344.799H230.059L228.56 343.142L231.877 336.158L232.487 328.475L235.271 323.555L235.287 315.789L234.477 315.532C233.954 315.366 233.378 314.314 232.856 312.571C231.585 308.329 230.212 307.499 229.243 310.389C228.899 311.415 228.405 311.975 227.759 312.071C226.625 312.238 226.543 311.69 227.441 309.954C228.021 308.831 228.563 305.849 229.317 299.629C229.768 295.913 228.037 292.585 227.224 295.604C227.059 296.218 226.417 297.728 225.798 298.958C225.179 300.188 224.535 302.134 224.367 303.284L224.062 305.373L225.652 306.263L224.823 308.568C224.245 310.174 224.076 311.474 224.265 312.854L224.537 314.834H223.683C223.214 314.834 222.426 314.321 221.933 313.694L221.036 312.554L220.223 312.991C219.776 313.231 219.058 313.537 218.628 313.67C218.116 313.828 217.845 314.364 217.845 315.22C217.845 316.503 216.875 317.353 216.016 316.822C215.792 316.684 215.609 315.677 215.609 314.584C215.609 312.274 215.425 312.224 212.464 313.724L210.242 314.85V318.532C210.242 320.557 210.541 323.623 210.906 325.344C211.654 328.876 211.766 332.191 211.171 333.132L210.771 333.763L209.286 332.278L208.428 332.738C207.44 333.266 207.263 333.935 206.893 338.538C206.427 344.324 204.914 346.571 201.469 346.598C200.76 346.603 199.677 347.001 199.062 347.482C196.348 349.605 195.816 348.273 197.222 342.878C197.658 341.206 197.837 339.728 197.618 339.593C196.86 339.124 195.107 339.886 193.618 341.332L192.12 342.786H189.479C186.183 342.786 186.049 342.4 188.343 339.52C189.981 337.463 191.847 334.379 194.008 330.159L194.748 328.713L193.573 326.517L194.102 322.352C194.656 317.995 194.242 299.132 193.578 298.468C192.979 297.869 192.631 298.721 192.139 301.99L191.654 305.219H189.446L189.542 300.597C189.594 298.055 189.947 294.769 190.325 293.294C191.169 289.999 191.182 290.237 190.154 290.237C189.172 290.237 187.677 292.447 187.231 294.56C186.713 297.013 185.723 296.786 184.456 293.922L183.319 291.355L183.505 288.773C183.75 285.362 183.152 285.615 181.115 289.785C178.535 295.066 177.831 294.748 179.637 289.119C181.53 283.213 182.462 279.302 182.071 278.896C181.598 278.403 180.416 280.214 179.452 282.909C179.036 284.073 178.432 285.113 178.11 285.22L177.525 285.415L177.814 283.242C177.972 282.047 178.631 279.495 179.278 277.572L180.454 274.074L179.919 273.217C179.617 272.734 179.384 270.771 179.384 268.721V265.082L178.785 265.579C177.569 266.588 174.239 279.751 174.541 282.347C174.763 284.241 174.025 284.335 173.375 282.497C173.099 281.714 173.156 280.09 173.545 277.694L174.133 274.074L173.085 273.026L172.678 273.684C172.455 274.046 172.147 275.082 171.994 275.987C171.659 277.973 170.763 279.309 170.06 278.874C169.251 278.374 169.452 276.894 170.886 272.795C171.617 270.704 172.218 268.653 172.222 268.237C172.232 266.891 171.414 266.93 170.596 268.314C170.158 269.057 169.524 269.664 169.189 269.664H168.579L168.888 268.211C169.058 267.411 169.879 265.27 170.713 263.452C172.633 259.261 172.636 258.921 170.74 259.228C168.844 259.536 167.614 258.483 168.154 257.015C168.851 255.118 170.096 247.772 169.835 247.092C169.691 246.716 169.063 246.408 168.44 246.408C167.136 246.408 166.944 245.362 167.993 243.975C168.354 243.497 168.65 242.541 168.65 241.85V240.594H167.81C167.349 240.594 166.726 240.299 166.426 239.938C166.027 239.457 165.354 239.353 163.911 239.551L161.942 239.821V239.178C161.942 238.194 164.431 234.928 168.096 231.105C171.602 227.448 172.052 226.17 169.922 225.922L168.742 225.785L166.795 228.333C163.446 232.717 162.275 233.951 161.858 233.534C161.627 233.302 161.645 232.655 161.901 231.98L162.34 230.824L161.655 230.255C161.221 229.896 161.056 229.259 161.203 228.523C161.331 227.882 161.258 227.071 161.04 226.719L160.645 226.078L154.026 226.031C144.493 225.962 141.634 224.831 135.505 218.702C130.931 214.128 128.304 210.266 126.995 206.189L126.051 203.25L125.826 195.509C125.482 183.655 126.384 179.691 131.165 172.013C135.788 164.591 142.918 157.409 145.665 157.409H146.696L146.041 159.265C145.681 160.285 144.091 163.354 142.508 166.085C136.803 175.925 135.108 181.314 135.108 189.613V194.099L136.674 198.898C138.558 204.668 140.257 207.498 142.99 209.417L145.035 210.853L144.097 210.996C143.059 211.154 142.872 211.954 143.684 212.766L144.21 213.292L142.587 215.085L143.151 215.764C143.461 216.138 144.093 216.444 144.554 216.444C145.016 216.444 145.394 216.75 145.394 217.126C145.394 217.948 146.674 218.468 150.83 219.335L153.97 219.99L156.5 219.33C157.891 218.968 160.217 217.939 161.668 217.043L164.307 215.414L165.131 215.929C166.715 216.919 169.686 215.173 171.112 212.414C171.972 210.752 174.377 209.022 174.985 209.63C175.289 209.934 175.277 210.18 174.95 210.382C174.683 210.547 174.464 211.116 174.464 211.645C174.464 212.175 173.911 213.051 173.234 213.592C172.557 214.132 172.159 214.731 172.349 214.923C172.69 215.266 174.648 214.363 178.405 212.126L180.334 210.979L180.054 214.878L178.817 214.749C177.374 214.597 176.741 215.638 177.627 216.706L178.207 217.405L175.29 220.131L176.301 221.139L179.072 219.634C180.596 218.806 182.093 217.814 182.398 217.431C183.283 216.316 183.541 217.126 182.774 218.61C182.388 219.355 182.174 220.229 182.297 220.552C182.454 220.965 182.054 221.149 180.952 221.173C180.089 221.191 179.032 221.553 178.601 221.976C178.171 222.4 177.416 223.022 176.925 223.36C175.346 224.443 176.697 224.739 178.496 223.704C180.705 222.432 182.514 222.372 182.514 223.569C182.514 224.045 182.128 224.556 181.656 224.706C180.343 225.123 178.489 226.719 178.489 227.433C178.489 228.466 179.828 228.175 183.626 226.318C187.126 224.606 188.459 224.377 187.385 225.67L186.846 226.321L187.363 226.838C188.166 227.641 187.978 228.071 186.876 227.954C186.149 227.877 185.833 228.111 185.734 228.803C185.535 230.179 188.289 231.827 190.116 231.426C192.215 230.965 191.751 232.003 189.409 233.007C188.282 233.49 187.051 233.886 186.673 233.886C186.181 233.886 186.063 234.169 186.257 234.892C186.406 235.446 186.53 236.049 186.533 236.234C186.544 236.814 187.61 236.601 189.339 235.675C191.566 234.481 193.824 234.713 191.851 235.933C191.574 236.103 190.787 237.474 190.101 238.978C189.416 240.482 188.234 242.303 187.474 243.026C185.238 245.151 185.683 246.269 188.664 246.014C189.806 245.915 189.896 246.389 189.137 248.489C188.533 250.158 188.869 250.836 189.883 249.995C190.308 249.642 190.564 249.608 190.564 249.905C190.564 250.166 190.363 250.505 190.117 250.657C189.327 251.145 189.639 251.775 190.676 251.782C192.189 251.792 192.936 252.432 192.615 253.443L192.334 254.329L195.707 255.635L199.956 253.892V252.833C199.956 252.251 200.157 251.775 200.403 251.775C200.649 251.775 200.851 251.574 200.851 251.328C200.851 251.082 200.549 250.88 200.18 250.88C199.811 250.88 199.509 250.578 199.509 250.21C199.509 249.841 199.811 249.539 200.18 249.539C200.549 249.539 200.851 249.23 200.851 248.852C200.851 248.474 201.173 247.673 201.567 247.072L202.284 245.978L203.103 246.417C204.619 247.228 204.984 246.421 203.729 245.034C203.269 244.527 203.191 244.16 203.501 243.969C203.764 243.806 204.308 244.38 204.731 245.266C206.131 248.203 207.025 247.339 206.156 243.888L205.647 241.867L207.112 240.402V241.169C207.112 241.591 207.32 241.936 207.575 241.936C207.891 241.936 207.894 241.667 207.582 241.084C207.136 240.251 207.117 236.562 207.559 236.586C207.682 236.592 208.174 236.893 208.651 237.254C209.825 238.142 210.242 238.08 210.242 237.016C210.242 235.067 212.251 236.324 212.877 238.665C213.062 239.357 213.578 239.993 214.022 240.079L214.829 240.234L214.414 237.403L216.504 237.928V237.051C216.504 236.569 216.294 236.045 216.038 235.887C215.782 235.729 215.111 234.861 214.546 233.96L213.519 232.32L213.876 228.519C214.073 226.428 214.483 223.936 214.789 222.982L215.344 221.247L213.393 217.686L214.277 217.918C214.93 218.088 215.162 217.925 215.162 217.296C215.162 216.077 216.002 216.243 216.504 217.562C217.073 219.059 217.926 218.986 217.807 217.45C217.622 215.083 217.799 214.655 218.964 214.655H220.082V212.866C220.082 210.825 220.823 210.465 221.234 212.307C221.385 212.983 221.822 214.402 222.206 215.459L222.903 217.381L221.939 218.056C221.396 218.436 220.976 219.211 220.976 219.832C220.976 220.995 222.952 224.494 223.609 224.494C224.332 224.494 224.623 221.625 223.95 221.133L223.325 220.676L223.517 210.969L224.229 210.57C225.198 210.028 225.653 210.872 225.504 212.935C225.244 216.536 227.349 217.633 228.739 214.62L229.569 212.82L231.323 212.118C232.288 211.732 233.27 211.057 233.505 210.617L233.933 209.817L230.767 205.215L231.066 203.227C231.455 200.63 231.296 200.564 236.548 205.519L241.087 209.8L241.989 209.514C242.485 209.356 243.099 208.838 243.354 208.363C244.002 207.152 244.679 207.287 244.679 208.628C244.679 209.372 245.023 209.906 245.686 210.192C246.239 210.431 247.038 210.875 247.462 211.177C248.825 212.151 249.246 211.067 248.433 208.681L247.71 206.559L245.301 204.779C242.638 202.812 242.075 201.688 244.339 202.858C245.137 203.271 246.394 203.628 247.135 203.653L248.481 203.697L249.3 205.375C250.16 207.134 251.208 207.706 250.713 206.145C250.555 205.646 250.351 204.654 250.261 203.94C249.937 201.384 246.015 195.086 243.38 192.892C242.742 192.361 242.359 191.785 242.529 191.614C243.048 191.09 245.559 193.086 250.717 198.122C257.467 204.712 259.689 205.24 256.307 199.449C255.323 197.764 254.518 196.167 254.518 195.899C254.518 195.631 254.342 195.062 254.126 194.635C253.91 194.208 253.409 193.101 253.012 192.175C252.615 191.25 250.642 188.775 248.627 186.676L244.964 182.86L246.828 182.373L245.14 180.848C243.165 179.063 242.443 178.93 242.443 180.352C242.443 183.233 237.384 182.896 234.659 179.834C233.752 178.814 232.398 178.572 231.921 179.343C231.53 179.976 232.654 181.602 235.882 185.072C238.885 188.301 238.732 188.895 235.338 187.175C234.096 186.547 232.743 186.032 232.329 186.032C231.915 186.032 229.915 185.126 227.885 184.019C225.854 182.912 223.771 182.007 223.255 182.007C222.134 182.007 222.027 181.32 223.057 180.742C223.481 180.506 223.685 180.034 223.534 179.641L223.27 178.954L221.341 179.199C220.279 179.334 219.209 179.58 218.964 179.746C218.718 179.911 218.071 179.583 217.526 179.014C216.494 177.938 216.553 177.834 218.124 177.957C219.328 178.051 219.803 176.89 218.876 176.12C218.17 175.534 218.022 175.492 216.18 175.366C214.9 175.279 213.61 172.949 214.214 171.82C214.674 170.961 217.477 170.069 221.591 169.471L224.218 169.089L226.389 170.512L227.395 169.505L226.645 168.677C225.388 167.287 226.231 165.906 228.337 165.906C229.252 165.906 230.173 168.157 229.443 168.609C228.519 169.18 229.46 170.796 230.956 171.206C233.017 171.771 233.536 171.022 231.956 169.762L230.655 168.725L232.828 168.813L232.681 167.919C232.215 165.087 228.344 163.317 223.844 163.88L221.44 164.18L220.438 163.478C219.886 163.092 219.102 162.776 218.695 162.776C218.288 162.776 217.679 162.363 217.341 161.858C216.596 160.743 214.101 160.117 210.34 160.103L207.531 160.092L207.243 160.844C207.041 161.371 207.513 162.09 208.822 163.253C211.517 165.644 210.68 166.66 207.925 164.341C206.466 163.113 206.275 163.059 205.393 163.618L204.791 163.999L205.501 165.372C205.892 166.126 206.414 166.869 206.662 167.023C207.728 167.681 206.912 167.91 203.982 167.77L200.851 167.622V170.249L199.398 170.666C198.407 170.95 197.945 171.356 197.945 171.945C197.944 172.48 197.264 173.199 196.155 173.841C195.171 174.409 194.091 175.041 193.756 175.244L193.146 175.614L193.669 176.592C193.957 177.129 194.131 178.369 194.055 179.347L193.919 181.126L192.232 180.218C190.221 179.137 188.869 179.363 187.325 181.037C185.858 182.626 185.486 183.763 186.327 184.085C187.175 184.411 189.223 183.092 189.223 182.22C189.223 181.216 189.704 181.412 191.463 183.129L193.071 184.699L196.504 183.821C198.393 183.338 200.313 182.742 200.771 182.496C201.731 181.983 204.836 183.204 204.861 184.105C204.883 184.915 205.785 185.301 206.346 184.741C207.242 183.844 208.708 184.21 209.725 185.585C210.952 187.245 211.272 187.249 213.316 185.63L214.953 184.333L216.201 185.406C216.887 185.996 217.971 186.479 218.611 186.479H219.773L218.921 187.439C218.308 188.129 218.226 188.454 218.628 188.594C219.482 188.893 219.294 189.61 218.362 189.61C217.907 189.61 216.893 189.93 216.109 190.322L214.682 191.033L213.378 189.951L211.128 191.425L210.268 190.965C209.794 190.711 208.918 190.504 208.32 190.504C207.722 190.504 206.72 190.101 206.094 189.608C205.467 189.116 204.662 188.826 204.302 188.963C203.943 189.101 203.536 188.918 203.397 188.557L203.145 187.899L188.818 188.188L188.295 187.557C187.622 186.746 186.235 186.758 183.863 187.594C182.715 188 181.308 188.158 180.293 187.995L178.618 187.727L178.386 188.614C178.048 189.908 167.896 192.583 166.942 191.629C166.487 191.174 169.437 189.893 171.368 189.708C173.888 189.465 174.332 189.094 173.318 188.081C172.528 187.291 169.764 187.142 168.043 187.797C167.227 188.107 166.794 188.055 166.417 187.601L165.903 186.982L168.774 185.497L169.851 185.988C170.443 186.258 171.094 186.479 171.295 186.479C171.866 186.479 172.218 182.824 171.734 181.92C171.252 181.019 171.775 180.85 173.04 181.498C173.454 181.71 174.333 182.012 174.993 182.17L176.193 182.456L176.477 179.994L177.943 180.11C179.68 180.246 180.205 179.383 179.426 177.672C178.706 176.092 179.007 175.983 181.111 177.056C183.817 178.436 185.447 177.962 183.768 176.284L183.233 175.749L184.104 175.11C184.61 174.738 184.974 173.943 184.974 173.207V171.944L186.406 171.929C188.216 171.909 188.663 171.465 187.976 170.364C187.263 169.224 187.278 169.152 188.346 168.58L189.258 168.092L190.694 168.964C192.152 169.849 194.142 169.641 194.142 168.604C194.142 168.351 194.561 167.724 195.073 167.212L196.004 166.281L194.373 164.479L195.425 163.628C196.004 163.159 196.854 162.776 197.315 162.776C197.863 162.776 198.527 162.042 199.239 160.651C200.835 157.533 203.306 155.373 206.243 154.531C207.61 154.139 209.817 153.117 211.147 152.259L213.567 150.701L216.265 150.694C217.749 150.691 219.366 150.601 219.858 150.494C220.35 150.388 221.96 150.892 223.436 151.617ZM295.112 167.707C300.229 169.789 311.758 181.889 311.762 185.182C311.763 185.822 312.38 187.195 313.132 188.234C313.885 189.272 314.425 190.346 314.335 190.619C314.122 191.256 307.556 185.19 305.503 182.458C302.56 178.544 298.395 174.181 295.466 171.944L292.539 169.708L292.648 168.594C292.768 167.365 293.566 167.078 295.112 167.707ZM256.125 169.889L257.956 170.719L262.555 176.444C271.527 187.608 273.764 192.964 273.845 203.474C274.019 225.853 258.86 236.741 237.859 229.318C234.732 228.213 234.578 227.627 237.412 227.618C238.58 227.614 239.783 227.454 240.085 227.262L240.635 226.913L239.037 223.218C237.262 219.111 237.28 217.893 239.135 216.678L240.31 215.908L242.405 218.105C244.816 220.633 247.25 221.537 251.592 221.52C257.134 221.498 261.231 218.442 264.281 212.054L265.923 208.617L265.895 195.647L264.677 192.167C263.047 187.507 260.929 183.42 257.903 179.1C252.621 171.557 251.932 167.986 256.125 169.889ZM287.961 170.938C288.956 171.737 291.007 173.448 292.517 174.739C294.91 176.785 297.358 178.156 295.753 176.551C295.458 176.255 295.216 175.752 295.216 175.432C295.216 174.445 296.497 174.789 297.624 176.081C303.657 182.998 305.456 185.197 305.648 185.89C306.437 188.751 306.882 191.423 306.636 191.821C306.478 192.078 307.365 193.304 308.609 194.548C311.516 197.455 311.741 200.295 308.886 198.05C307.406 196.886 307.186 197.074 307.747 199.028C308.673 202.259 307.313 202.746 305.115 199.97L303.756 198.256L302.33 198.465C300.609 198.718 300.87 197.997 302.875 196.96C303.849 196.456 304.178 195.998 304.077 195.286L303.937 194.306L302.372 194.457C301.511 194.54 300.489 194.892 300.101 195.239C299.712 195.587 298.857 195.871 298.2 195.871C296.739 195.871 296.73 196.008 298.067 197.802C298.651 198.585 300.208 201.238 301.527 203.697L303.925 208.17L303.861 211.908C303.825 213.964 303.6 215.842 303.361 216.081C302.368 217.074 298.347 207.614 298.347 204.283C298.347 203.833 297.267 202.291 295.948 200.856C292.115 196.688 288.683 190.331 289.869 189.598L290.431 189.251L288.423 186.703L289.106 186.564C289.482 186.488 290.413 186.747 291.174 187.141C293.309 188.245 293.72 187.498 292 185.645C291.17 184.751 290.118 183.57 289.661 183.022L288.832 182.024L289.38 181.363C289.756 180.91 290.371 180.789 291.342 180.976L292.757 181.249L291.046 179.316L289.381 180.823L288.347 179.788L288.95 178.662C289.732 177.202 289.317 176.829 287.926 177.741L286.82 178.466L286.099 177.745C285.702 177.348 285.377 176.743 285.377 176.4C285.377 175.578 283.843 174.781 282.933 175.131C281.037 175.858 279.748 172.486 281.154 170.478L281.85 169.484H286.151L287.961 170.938ZM251.231 185.061C255.005 188.228 256.123 189.526 255.558 190.091C255.124 190.525 249.424 186.411 247.878 184.549L247.352 183.914L248.615 182.866L251.231 185.061ZM233.604 192.181C234.219 193.104 235.931 195.295 237.408 197.051C240.914 201.22 241.024 201.411 239.704 201.015C236.062 199.923 229.476 196.925 228.079 195.724C227.173 194.944 225.887 193.928 225.222 193.467L224.013 192.628L224.619 192.243C224.952 192.032 225.852 191.857 226.619 191.853L228.013 191.846L229.197 193.635C230.973 196.319 231.906 195.889 231.776 192.446C231.686 190.064 232.147 189.997 233.604 192.181ZM176.269 195.722L175.164 196.915C174.557 197.57 173.822 198.107 173.532 198.107C173.242 198.107 172.309 198.537 171.459 199.062L169.913 200.018L171.11 200.807L169.768 201.993C169.03 202.646 168.485 203.447 168.558 203.774C168.64 204.146 168.268 204.368 167.564 204.368C166.946 204.368 165.302 204.871 163.911 205.486C159.908 207.257 158.855 206.783 161.718 204.499C164.35 202.399 162.976 201.825 159.303 203.492C157.084 204.499 156.424 204.312 157.718 203.043C158.837 201.945 168.721 196.765 169.697 196.765C170.565 196.765 170.694 196.04 169.88 195.738L169.321 195.531L169.992 194.862C170.361 194.493 171.485 194.069 172.491 193.92L174.32 193.647L176.269 195.722ZM291.398 200.926C291.77 201.493 292.453 203.053 292.917 204.392C293.381 205.732 294.195 207.561 294.727 208.456C295.931 210.483 296.464 214.361 295.67 215.317C294.437 216.803 293.647 216.057 290.975 210.886L288.334 205.775L288.859 204.625C289.148 203.992 289.69 203.474 290.064 203.474C290.819 203.474 291.002 201.897 290.297 201.461C289.722 201.106 289.714 199.896 290.287 199.896C290.527 199.896 291.027 200.36 291.398 200.926ZM211.334 217.735C212.283 219.569 212.217 220.399 210.915 222.965C209.555 225.646 209.548 225.848 210.765 227.395C211.477 228.301 211.617 228.814 211.292 229.329C210.475 230.625 209.85 230.387 209.539 228.659C209.37 227.721 209.084 226.752 208.904 226.506C208.724 226.26 208.45 225.524 208.293 224.871C208.138 224.217 207.883 223.352 207.728 222.947L207.446 222.212L209.756 222.792L210.05 221.622C210.212 220.979 210.214 219.902 210.056 219.231C209.553 217.101 209.559 216.768 210.104 216.575C210.398 216.471 210.951 216.993 211.334 217.735ZM255.844 245.931C256.099 246.407 256.307 247.57 256.307 248.515C256.307 249.461 256.608 250.664 256.976 251.189C257.855 252.443 257.603 257.727 256.56 259.926L255.801 261.524L256.693 267.959L255.933 270.454C254.714 274.459 254.182 273.93 253.926 268.458C253.802 265.801 253.386 262.016 253.003 260.049C252.62 258.081 252.173 255.615 252.01 254.57L251.713 252.669H254.126L253.83 250.693C253.228 246.683 254.561 243.533 255.844 245.931ZM262.739 248.264C263.654 252.841 263.586 260.719 262.631 260.719C261.591 260.719 260.5 253.192 260.98 249.341C261.329 246.554 262.28 245.971 262.739 248.264ZM250.354 257.238L251.294 258.26L251.788 264.81C252.498 274.222 252.438 279.577 251.611 280.648L250.941 281.516L250.276 280.655C249.91 280.182 249.483 279.117 249.327 278.288C248.823 275.599 248.034 276.743 246.303 282.673C245.776 284.48 245.574 286.987 245.574 291.721V298.27L244.435 298.556C242.877 298.947 242.941 299.478 243.414 289.985L243.838 281.46L242.917 279.123C241.91 276.568 241.669 273.881 242.493 274.391C243.841 275.224 244.268 269.548 243.101 266.31C242.342 264.202 242.25 261.022 242.913 259.783C243.475 258.733 244.232 259.062 244.232 260.358C244.232 260.867 244.618 261.912 245.09 262.679C245.749 263.751 246.915 269.291 246.915 271.351C246.915 271.506 247.167 271.379 247.475 271.07C247.874 270.668 248.034 268.508 248.034 263.498V256.489L248.724 256.353C249.104 256.278 249.838 256.676 250.354 257.238ZM187.657 259.923L189.446 260.876L195.559 261.133C202.985 261.445 204.068 262.033 199.763 263.41C198.796 263.72 197.096 264.55 195.986 265.253C194.834 265.984 193.344 266.533 192.517 266.533H191.067L187.35 263.768C185.305 262.247 183.566 260.956 183.484 260.899C183.403 260.842 183.561 260.376 183.835 259.863C184.46 258.696 185.381 258.71 187.657 259.923ZM260.488 264.856C260.628 265.902 260.861 267.864 261.005 269.217L261.267 271.677L260.359 273.13C258.668 275.837 257.23 274.818 258.299 271.67C258.679 270.55 258.991 268.449 258.991 267.002C258.991 262.801 260.012 261.337 260.488 264.856ZM190.117 272.137C193.078 273.417 194.658 273.483 198.414 272.482C201.399 271.686 201.941 271.762 201.5 272.913C200.467 275.605 185.304 274.489 186.204 271.788C186.497 270.906 187.471 270.993 190.117 272.137ZM237.199 274.919C238.082 276.605 236.119 289.918 234.495 293.256C233.362 295.587 231.71 296.536 231.71 294.858C231.71 292.746 233.218 283.564 233.767 282.335C234.115 281.556 234.523 279.946 234.674 278.757C235.044 275.833 236.511 273.604 237.199 274.919ZM240.033 287.633C240.516 288.414 240.25 291.086 239.553 292.467C239.24 293.085 238.839 294.396 238.661 295.38C238.307 297.338 237.644 298.414 237.026 298.032C236.412 297.652 236.561 289.728 237.206 288.448C237.83 287.209 239.477 286.734 240.033 287.633ZM233.647 299.927C234.084 300.363 234.011 302.203 233.523 303.101C233.291 303.528 232.977 304.645 232.827 305.582L232.553 307.287L231.039 306.98L231.09 304.437C231.153 301.261 232.539 298.818 233.647 299.927Z" fill="#FBFDFD"/>
</svg>
