<svg width="300" height="322" viewBox="0 0 300 322" fill="none" xmlns="http://www.w3.org/2000/svg">
<path fill-rule="evenodd" clip-rule="evenodd" d="M13.0108 1.05879C6.22495 1.19072 1.3461 1.46577 1.10147 1.72963C0.00664454 2.91122 -0.20937 9.09375 0.178827 28.1552C0.398418 38.9567 0.651552 51.7189 0.740998 56.5155C0.829997 61.312 1.17212 79.5255 1.50084 96.9899C1.82955 114.454 2.06033 131.46 2.01382 134.781C1.96775 138.102 1.8233 147.561 1.69405 155.801C1.56435 164.041 1.51202 177.928 1.57732 186.66C1.64306 195.392 1.68689 209.077 1.67526 217.072C1.61309 259.047 1.60371 269.508 1.62473 272.975C1.6377 275.066 1.39485 285.733 1.08581 296.679C0.776775 307.625 0.653783 317.466 0.81255 318.55L1.10102 320.519L34.0468 320.213C52.1668 320.045 87.8223 319.949 113.281 320C166.259 320.105 163.137 320.108 166.949 319.956C168.548 319.892 171.768 319.934 174.104 320.05C183.857 320.531 233.299 321.249 250.581 321.161C260.515 321.11 260.021 321.1 270.483 321.531C274.418 321.693 282.299 321.68 287.995 321.502L298.352 321.179L298.525 302.556C298.634 290.953 298.523 282.752 298.232 280.802C297.975 279.08 297.815 273.646 297.878 268.727C298.297 235.824 298.291 218.503 297.861 217.072C297.491 215.84 297.283 184.248 297.545 168.994C297.558 168.256 297.438 165.487 297.28 162.842L296.991 158.03L298.205 155.549C299.075 153.771 299.348 152.663 299.169 151.639C298.785 149.452 299.018 76.8766 299.513 44.2166C299.618 37.3292 299.77 25.1534 299.852 17.1591L300 2.6241L296.199 2.28062C294.108 2.09189 270.863 1.8723 244.543 1.7927C209.595 1.6867 196.35 1.50826 195.431 1.12945C193.667 0.404043 187.55 0.483646 185.346 1.26093L183.505 1.91032L169.748 1.88393C162.182 1.86962 154.08 1.85396 151.743 1.84904C149.406 1.84457 143.549 1.91524 138.728 2.00647C132.276 2.12857 129.787 2.02839 129.303 1.62677L128.646 1.08115L117.945 1.22426C110.228 1.32802 106.845 1.53643 105.814 1.97293L104.385 2.57848L100.314 2.00245C97.9512 1.66792 91.8917 1.42373 85.867 1.42015C80.1594 1.41657 70.9089 1.32668 65.31 1.22023C59.7111 1.11335 52.2647 1.21264 48.7625 1.44072C44.4266 1.72293 42.1135 1.70638 41.5137 1.3884C40.5025 0.853061 29.8933 0.730519 13.0108 1.05879ZM18.2443 9.65547C17.5064 9.9171 16.3686 10.5048 15.7156 10.9618C14.1409 12.0634 13.1275 12.0097 10.8243 10.7011C9.76791 10.1009 8.7357 9.7136 8.53132 9.84017C8.1713 10.0624 8.38418 34.1016 8.86719 47.7945C9.30995 60.3353 9.70754 121.046 9.50315 144.844C9.27864 170.999 9.23705 201.138 9.41371 210.139C9.47632 213.337 9.42131 225.513 9.29161 237.197L9.05636 258.44L9.8824 262.921L10.7084 267.402L9.8824 271.642L9.05681 275.882L9.50405 278.566C9.75047 280.042 9.83142 281.703 9.68472 282.257C9.53803 282.812 9.63956 284.145 9.91013 285.219L10.4021 287.174L9.68115 289.289L8.96066 291.404L9.31173 293.93C9.75762 297.133 9.75539 299.719 9.30234 305.748L8.93964 310.569L14.263 310.485C17.1906 310.439 27.0324 310.415 36.1335 310.433C45.2347 310.45 54.1905 310.432 56.0353 310.393C57.8802 310.354 63.4768 310.454 68.472 310.617C73.4675 310.779 78.1411 310.745 78.858 310.539C79.5834 310.331 84.2637 310.381 89.4077 310.653L98.6543 311.14L100.632 310.611C101.72 310.32 102.848 310.229 103.138 310.409C103.428 310.589 119.866 310.791 139.668 310.857C159.469 310.924 177.984 311.18 180.813 311.427C187.284 311.991 192.715 312.008 193.725 311.468C194.206 311.211 195.772 311.215 197.832 311.479C200.631 311.838 209.093 312.091 214.132 311.965C214.87 311.947 216.077 311.927 216.815 311.921C217.553 311.915 218.559 311.904 219.051 311.896C222.183 311.848 250.751 312.356 254.606 312.529C257.189 312.645 263.428 312.814 268.47 312.905C273.513 312.996 278.173 313.223 278.827 313.41C279.524 313.609 280.401 313.543 280.951 313.249L281.887 312.748L282.838 313.256L283.788 313.765L284.794 313.226L285.8 312.688L286.789 313.217C287.333 313.508 287.897 313.627 288.042 313.481C289.03 312.493 289.295 293.042 288.495 280.204C287.834 269.597 287.837 267.754 288.528 264.14L289.063 261.342L288.356 259.976L287.65 258.609L288.175 257.018C288.504 256.021 288.574 254.654 288.363 253.356C287.85 250.205 287.897 246.677 288.495 243.458C289.31 239.079 289.182 234.452 288.164 231.429C287.68 229.993 287.257 227.635 287.222 226.188L287.16 223.556L288.601 220.216L290.041 216.877L289.832 213.508C289.688 211.201 289.289 209.465 288.564 207.997L287.506 205.855L288.775 202.281L290.046 198.706L289.786 196.373C289.643 195.089 289.312 192.932 289.05 191.579C288.425 188.352 288.893 172.876 289.764 167.961L290.423 164.245L289.733 162.93C289.354 162.207 288.72 160.999 288.325 160.246L287.608 158.876L288.15 151.86C288.448 148.001 289.073 143.347 289.538 141.517C290.571 137.456 290.594 136.002 289.666 133.279L288.948 131.171L289.457 129.942C290.124 128.331 290.13 126.466 289.498 115.774C288.901 105.651 289.216 82.0962 290.041 75.2992C290.631 70.4297 290.6 68.2249 289.88 64.0661C289.307 60.7534 289.643 57.8572 290.602 57.8572C290.945 57.8572 291.356 57.647 291.515 57.3902C291.89 56.7825 290.541 54.7265 289.766 54.7265C288.961 54.7265 288.777 48.654 289.553 47.7189C289.852 47.358 290.155 45.54 290.226 43.6786C290.313 41.4169 290.583 40.0426 291.041 39.5368C291.923 38.5618 291.923 37.2845 291.042 37.2845C290.046 37.2845 289.729 36.0502 290.401 34.7948L290.982 33.7071L290.517 31.8064C290.261 30.7608 289.408 27.4902 288.622 24.5384C287.837 21.5867 287.056 17.3626 286.889 15.1515L286.583 11.1309L285.386 10.5584L284.189 9.98642L282.598 10.7449L281.007 11.5039L279.853 10.8862L278.698 10.2682L277.945 10.808C276.202 12.0549 274.878 12.3169 271.717 12.0397C269.657 11.859 268.141 11.9368 267.55 12.253L266.621 12.7503L265.599 12.0808L264.577 11.4109L260.079 11.91L255.581 12.4095L253.775 11.8134L251.969 11.2172L250.558 11.8017L249.148 12.3863L247.712 11.867C246.923 11.5817 244.378 11.367 242.056 11.3894C239.735 11.4122 236.426 11.4001 234.704 11.3625C229.001 11.2387 224.487 11.2852 218.38 11.5316C215.06 11.6653 210.23 11.749 207.647 11.7172C205.064 11.6855 199.812 11.626 195.975 11.5848C191.412 11.5361 188.512 11.3084 187.589 10.9261L186.179 10.342L185.513 10.8938L184.848 11.4462L183.007 10.7096C181.823 10.236 180.982 10.1233 180.654 10.3934C180.372 10.6251 176.922 10.9587 172.986 11.1349C169.051 11.3111 165.573 11.6617 165.257 11.914C164.861 12.2311 164.158 12.1998 162.987 11.8134C161.916 11.4596 160.314 11.3576 158.641 11.5361C153.103 12.1278 148.556 11.6613 146.735 10.3147L145.474 9.38221L143.13 10.418C139.681 11.9422 138.829 11.9762 135.965 10.7042C132.855 9.32228 132.355 9.29321 131.56 10.4475L130.947 11.3384L118.871 11.3898C112.23 11.418 105.689 11.3997 104.336 11.3491C100.539 11.2074 80.9578 12.1175 80.0535 12.4779C79.612 12.6542 77.0136 12.5513 74.2801 12.2494L69.3096 11.7002L66.7197 12.2499C65.2832 12.5549 63.7715 12.6394 63.3252 12.4404C61.7769 11.7494 47.1515 11.5088 37.2154 12.0106L30.2466 12.363L26.9291 11.6242C25.1039 11.2176 23.0073 10.4869 22.2694 10.0003C20.7743 9.01369 20.1938 8.96405 18.2443 9.65547ZM176.564 63.2459C173.662 64.6703 172.763 64.834 172.006 64.0768C171.652 63.7231 171.225 63.7673 170.463 64.236C169.883 64.5925 167.497 65.3362 165.16 65.889C159.652 67.1913 154.586 69.6605 150.401 73.0827C148.556 74.5912 146.224 76.2053 145.219 76.669L143.391 77.513L133.367 77.5711C121.823 77.6382 115.679 77.2813 112.866 76.3806C111.682 76.0013 109.022 75.7464 106.254 75.7464H101.623L99.2902 76.9736L96.957 78.2013L89.1305 78.4437C83.4618 78.619 80.934 78.8712 79.9622 79.3578L78.6205 80.03L78.7533 81.7035L78.8862 83.3766L75.8463 84.7912C71.1629 86.9701 65.4478 90.5685 59.4719 95.0999L54.0304 99.2261L55.0326 99.3692C56.4271 99.5677 56.2889 100.104 54.47 101.555C53.3953 102.413 52.9047 103.172 52.9047 103.979C52.9047 104.625 52.5881 105.417 52.2012 105.738C50.6332 107.039 49.7182 109.851 49.076 115.341C48.7191 118.389 48.1229 122.33 47.7508 124.098L47.0746 127.314L47.8349 128.153L48.5952 128.993L47.8532 134.906C47.4454 138.158 46.8953 143.032 46.6305 145.738C46.3658 148.444 45.9521 152.31 45.711 154.33L45.2732 158.003L45.8188 158.877L46.3644 159.75L45.749 161.615L45.1336 163.479L45.6649 164.33C45.957 164.798 46.1962 165.604 46.1962 166.121C46.1962 166.639 46.6225 167.407 47.1435 167.829L48.0912 168.596L48.0353 173.901C48.0049 176.818 47.7665 179.997 47.5062 180.964L47.0326 182.723L47.8018 183.573C48.9829 184.878 49.237 184.632 49.5782 181.852C49.9906 178.494 50.4767 177.268 51.3962 177.268H52.1462L51.856 182.747C51.6963 185.76 51.5147 188.606 51.4526 189.071C51.2772 190.384 52.3989 190.45 52.8908 189.156C53.7531 186.888 55.1409 187.967 55.1409 190.905C55.1409 191.724 55.5429 193.67 56.0344 195.229C56.5255 196.788 57.038 199.171 57.1731 200.524C57.7375 206.185 57.8542 206.689 58.6534 206.898C59.1879 207.037 59.6141 207.881 59.9759 209.516L60.5099 211.928L60.0108 213.717C59.7366 214.701 59.0282 216.462 58.437 217.631C57.3542 219.771 57.5532 220.211 59.1516 219.213C60.3681 218.453 60.7706 219.076 60.1593 220.772C59.873 221.566 59.4392 223.628 59.195 225.356C58.9508 227.083 58.4419 229.372 58.064 230.443C57.2599 232.722 57.1901 234.148 57.8506 234.808C58.1109 235.069 58.5935 236.832 58.9227 238.727C59.6606 242.976 59.462 242.808 62.5989 241.856C64.0314 241.421 66.1915 240.949 67.3986 240.808L69.5936 240.551L69.6643 239.209C69.9254 234.276 70.5051 231.505 71.6214 229.855L72.8065 228.104L72.6884 219.569C72.6236 214.875 72.4554 210.281 72.3146 209.36L72.0583 207.687L73.1303 207.279L74.2019 206.872L74.6831 203.227C75.4009 197.791 76.3182 197.479 76.2108 202.707L76.1469 205.82L77.4631 206.757L78.7793 207.694L79.0655 206.792C79.2654 206.163 79.7408 205.891 80.6429 205.891H81.9341L82.1532 204.437C82.2735 203.638 82.5342 201.676 82.7324 200.077L83.0928 197.17L84.7315 197.033C86.6564 196.873 87.0016 196.255 86.3952 194.057C86.1497 193.169 86.0785 192.036 86.2364 191.539C86.6608 190.201 87.8983 190.687 88.3321 192.363C88.6966 193.769 89.2803 194.211 89.7557 193.442C89.8827 193.237 89.7526 192.306 89.4663 191.374L88.9462 189.679L90.1815 188.617C91.757 187.261 92.474 187.279 93.9051 188.71L95.0612 189.866L94.7535 193.658C94.4266 197.688 94.8273 199.766 96.3519 201.94C96.8117 202.596 97.3032 203.803 97.444 204.623C97.5849 205.443 97.8761 206.517 98.0903 207.009C98.305 207.501 99.1042 209.312 99.8662 211.034C101.911 215.656 102.985 222.216 103.068 230.6C103.086 232.492 103.732 232.751 104.932 231.349L105.728 230.42L106.374 230.956C107.195 231.638 107.182 233.102 106.319 236.75L105.632 239.657L106.771 240.639C107.397 241.18 109.009 241.968 110.353 242.392L112.797 243.163L115.387 242.59C122.222 241.078 122.586 240.568 119.866 236.316C118.732 234.543 117.168 231.566 116.392 229.702L114.98 226.311L116.031 225.507L117.082 224.704L115.446 221.67C114.545 220.002 113.67 217.631 113.502 216.401C113.334 215.171 112.712 212.594 112.12 210.675L111.045 207.186V202.723C111.045 199.801 111.272 197.714 111.704 196.68L112.364 195.102L114.052 195.241L115.741 195.381L116.019 197.97C116.172 199.393 116.399 200.661 116.524 200.786C116.99 201.252 117.326 198.627 116.87 198.078C116.294 197.383 116.681 196.216 117.605 195.861C118.666 195.454 119.095 195.975 119.095 197.673C119.095 199.34 119.754 200.971 120.428 200.971C120.651 200.971 120.795 199.835 120.747 198.447C120.689 196.764 120.846 195.857 121.219 195.726C121.604 195.591 121.778 196.071 121.778 197.271C121.778 198.228 122.074 199.402 122.435 199.879C123.149 200.824 123.252 200.606 123.131 198.4L123.052 196.946L123.868 196.951C124.44 196.955 124.954 197.66 125.58 199.299L126.474 201.642H127.369C128.304 201.642 128.302 201.664 127.738 198.137L127.464 196.42L128.522 196.571L129.58 196.722L130.117 198.511C130.413 199.495 130.67 201.846 130.689 203.734L130.723 207.168L131.793 207.982C132.381 208.431 133.213 209.006 133.641 209.261L134.42 209.724L133.699 212.204C133.189 213.96 133.095 215.092 133.379 216.082C133.6 216.851 133.665 217.918 133.525 218.453C133.344 219.147 133.445 219.369 133.877 219.225C134.21 219.114 134.662 218.333 134.88 217.488C135.33 215.744 136.027 214.74 136.645 214.946C137.136 215.11 140.113 222.62 140.119 223.712C140.126 224.863 142.25 229.147 142.815 229.147C143.092 229.147 143.215 228.895 143.088 228.588C142.961 228.28 142.613 227.283 142.315 226.372L141.774 224.715L142.52 223.576C143.562 221.987 143.873 222.119 145.384 224.786C146.116 226.078 147.142 227.518 147.665 227.988C149.803 229.907 149.78 231.898 147.528 240.104C145.798 246.403 146.206 249.009 148.389 245.608C148.881 244.841 149.767 243.898 150.359 243.511L151.435 242.81L151.201 244.882C151.072 246.022 150.538 247.557 150.013 248.294C148.835 249.949 148.828 250.167 149.954 250.167H150.848L150.904 251.956C151.069 257.225 150.952 257.054 154.667 257.49C159.286 258.033 159.835 257.314 158.62 252.311C157.556 247.924 158.825 246.073 160.473 249.608C161.478 251.763 161.442 251.734 162.237 251.074L162.913 250.513L163.107 251.122C163.214 251.458 163.635 252.788 164.043 254.08L164.785 256.428H167.362H169.941L170.69 255.6L171.44 254.771L169.781 251.279L168.123 247.787L167.818 243.946L167.513 240.104L166.121 237.644L164.729 235.184L164.721 231.301L164.713 227.418L165.523 227.161C166.046 226.995 166.622 225.943 167.144 224.2C168.415 219.957 169.788 219.128 170.757 222.018C171.101 223.044 171.595 223.604 172.241 223.699C173.375 223.867 173.457 223.319 172.559 221.583C171.979 220.46 171.437 217.478 170.683 211.257C170.232 207.542 171.963 204.214 172.776 207.232C172.941 207.847 173.583 209.357 174.202 210.587C174.821 211.817 175.465 213.763 175.633 214.913L175.938 217.002L175.143 217.447L174.348 217.892L175.177 220.197C175.755 221.803 175.924 223.103 175.735 224.483L175.463 226.463H176.317C176.786 226.463 177.574 225.95 178.067 225.323L178.964 224.182L179.777 224.619C180.224 224.86 180.942 225.165 181.372 225.299C181.884 225.457 182.155 225.993 182.155 226.849C182.155 228.132 183.125 228.982 183.984 228.451C184.208 228.313 184.391 227.306 184.391 226.213C184.391 223.903 184.575 223.852 187.536 225.353L189.758 226.479V230.161C189.758 232.186 189.459 235.252 189.094 236.973C188.346 240.505 188.234 243.819 188.829 244.76L189.229 245.392L189.972 244.65L190.714 243.907L191.572 244.366C192.56 244.895 192.737 245.564 193.107 250.167C193.573 255.952 195.086 258.2 198.531 258.227C199.24 258.232 200.323 258.63 200.938 259.111C203.652 261.234 204.184 259.901 202.778 254.507C202.342 252.835 202.163 251.357 202.381 251.222C203.14 250.753 204.893 251.515 206.382 252.96L207.88 254.415H210.521C213.817 254.415 213.951 254.029 211.657 251.149C210.019 249.091 208.153 246.008 205.992 241.788L205.252 240.342L205.839 239.243L206.427 238.145L205.898 233.981C205.344 229.624 205.758 210.761 206.422 210.097C207.021 209.498 207.369 210.35 207.861 213.618L208.346 216.848H209.45H210.554L210.458 212.226C210.406 209.684 210.053 206.397 209.675 204.922C208.831 201.628 208.818 201.866 209.846 201.866C210.828 201.866 212.323 204.075 212.769 206.189C213.287 208.642 214.277 208.414 215.544 205.551L216.681 202.984L216.495 200.402C216.25 196.991 216.848 197.244 218.885 201.414C221.465 206.695 222.169 206.377 220.363 200.748C218.47 194.842 217.538 190.931 217.929 190.525C218.402 190.032 219.584 191.843 220.548 194.538C220.964 195.702 221.568 196.742 221.89 196.849L222.475 197.044L222.186 194.871C222.028 193.675 221.369 191.124 220.722 189.201L219.546 185.703L220.081 184.846C220.383 184.363 220.616 182.399 220.616 180.35V176.711L221.215 177.208C222.431 178.217 225.761 191.379 225.459 193.976C225.237 195.87 225.975 195.964 226.625 194.125C226.901 193.343 226.844 191.719 226.455 189.323L225.867 185.703L226.391 185.179L226.915 184.655L227.322 185.313C227.545 185.675 227.853 186.711 228.006 187.616C228.341 189.602 229.237 190.938 229.94 190.503C230.749 190.003 230.548 188.523 229.114 184.424C228.383 182.333 227.782 180.282 227.778 179.866C227.768 178.52 228.586 178.559 229.404 179.943C229.842 180.686 230.476 181.293 230.811 181.293H231.421L231.112 179.839C230.942 179.04 230.121 176.899 229.287 175.081C227.367 170.89 227.364 170.55 229.26 170.857C231.156 171.165 232.386 170.112 231.846 168.644C231.149 166.747 229.904 159.401 230.165 158.721C230.309 158.345 230.937 158.037 231.56 158.037C232.864 158.037 233.056 156.991 232.007 155.604C231.646 155.126 231.35 154.17 231.35 153.479V152.223H232.19C232.651 152.223 233.274 151.928 233.574 151.566C233.973 151.086 234.646 150.982 236.089 151.18L238.058 151.45V150.807C238.058 149.823 235.569 146.557 231.904 142.734C228.398 139.077 227.948 137.798 230.078 137.551L231.258 137.414L233.205 139.962C236.554 144.346 237.725 145.58 238.142 145.163C238.373 144.931 238.355 144.284 238.099 143.609L237.66 142.453L238.345 141.884C238.779 141.525 238.944 140.888 238.797 140.152C238.669 139.511 238.742 138.7 238.96 138.348L239.355 137.707L245.974 137.66C255.507 137.591 258.366 136.46 264.495 130.331C269.069 125.757 271.696 121.894 273.005 117.818L273.949 114.879L274.174 107.138C274.518 95.2842 273.616 91.3199 268.835 83.6423C264.212 76.2196 257.082 69.0379 254.335 69.0379H253.304L253.959 70.8935C254.319 71.9141 255.909 74.983 257.492 77.7138C263.197 87.5542 264.892 92.9429 264.892 101.242V105.727L263.326 110.527C261.442 116.297 259.743 119.127 257.01 121.046L254.965 122.482L255.903 122.625C256.941 122.783 257.128 123.583 256.316 124.394L255.79 124.921L256.602 125.818L257.413 126.714L256.849 127.393C256.539 127.767 255.907 128.072 255.446 128.072C254.984 128.072 254.606 128.379 254.606 128.755C254.606 129.577 253.326 130.097 249.17 130.964L246.03 131.619L243.5 130.959C242.109 130.597 239.783 129.568 238.332 128.672L235.693 127.043L234.869 127.558C233.285 128.547 230.314 126.801 228.888 124.042C228.028 122.381 225.623 120.651 225.015 121.258C224.711 121.563 224.723 121.809 225.05 122.011C225.317 122.176 225.536 122.745 225.536 123.274C225.536 123.804 226.089 124.68 226.766 125.22C227.443 125.761 227.841 126.36 227.651 126.551C227.31 126.895 225.352 125.992 221.595 123.755L219.666 122.608L219.806 124.557L219.946 126.507L221.183 126.377C222.626 126.226 223.259 127.267 222.373 128.335L221.793 129.034L223.252 130.397L224.71 131.76L224.205 132.264L223.699 132.768L220.928 131.263C219.404 130.435 217.907 129.443 217.602 129.06C216.717 127.945 216.459 128.755 217.226 130.239C217.612 130.984 217.826 131.858 217.703 132.181C217.546 132.594 217.946 132.778 219.048 132.802C219.911 132.82 220.968 133.182 221.399 133.605C221.829 134.029 222.584 134.651 223.075 134.988C224.654 136.072 223.303 136.368 221.504 135.333C219.295 134.061 217.486 134.001 217.486 135.198C217.486 135.674 217.872 136.185 218.344 136.335C219.657 136.751 221.511 138.348 221.511 139.062C221.511 140.095 220.172 139.804 216.374 137.947C212.874 136.235 211.541 136.005 212.615 137.299L213.154 137.95L212.637 138.467C211.834 139.27 212.022 139.7 213.124 139.583C213.851 139.506 214.167 139.74 214.266 140.432C214.465 141.808 211.711 143.456 209.884 143.055C207.785 142.594 208.249 143.632 210.591 144.636C211.718 145.119 212.949 145.514 213.327 145.514C213.819 145.514 213.937 145.798 213.743 146.521C213.594 147.074 213.47 147.678 213.467 147.862C213.456 148.443 212.39 148.23 210.661 147.303C208.434 146.11 206.176 146.342 208.149 147.561C208.426 147.732 209.213 149.103 209.899 150.607C210.584 152.111 211.766 153.932 212.526 154.655C214.762 156.78 214.317 157.898 211.336 157.643C210.194 157.544 210.104 158.018 210.863 160.118C211.467 161.787 211.131 162.465 210.117 161.624C209.692 161.271 209.436 161.237 209.436 161.534C209.436 161.795 209.637 162.134 209.883 162.286C210.673 162.774 210.361 163.404 209.324 163.41C207.811 163.421 207.064 164.061 207.385 165.072L207.666 165.958L205.979 166.611L204.293 167.264L202.168 166.393L200.044 165.52V164.462C200.044 163.88 199.843 163.404 199.597 163.404C199.351 163.404 199.149 163.202 199.149 162.957C199.149 162.711 199.451 162.509 199.82 162.509C200.189 162.509 200.491 162.207 200.491 161.838C200.491 161.469 200.189 161.168 199.82 161.168C199.451 161.168 199.149 160.859 199.149 160.481C199.149 160.103 198.827 159.302 198.433 158.701L197.716 157.607L196.897 158.046C195.381 158.857 195.016 158.05 196.271 156.663C196.731 156.155 196.809 155.789 196.499 155.598C196.236 155.435 195.692 156.009 195.269 156.895C193.869 159.832 192.975 158.968 193.844 155.517L194.353 153.496L193.621 152.764L192.888 152.031V152.798C192.888 153.22 192.68 153.565 192.425 153.565C192.109 153.565 192.106 153.295 192.418 152.713C192.864 151.879 192.883 148.191 192.441 148.214C192.318 148.221 191.826 148.522 191.349 148.883C190.175 149.771 189.758 149.709 189.758 148.645C189.758 146.696 187.749 147.953 187.123 150.294C186.938 150.986 186.422 151.622 185.978 151.708L185.171 151.863L185.379 150.448L185.586 149.032L184.541 149.294L183.496 149.557V148.68C183.496 148.198 183.706 147.674 183.962 147.516C184.218 147.358 184.889 146.49 185.454 145.589L186.481 143.949L186.124 140.148C185.927 138.057 185.517 135.565 185.211 134.611L184.656 132.876L185.632 131.095L186.607 129.315L185.723 129.547C185.07 129.717 184.838 129.554 184.838 128.925C184.838 127.706 183.998 127.872 183.496 129.191C182.927 130.688 182.074 130.615 182.193 129.079C182.378 126.712 182.201 126.284 181.036 126.284H179.918V124.495C179.918 122.454 179.177 122.094 178.766 123.936C178.615 124.612 178.178 126.03 177.795 127.088L177.097 129.01L178.061 129.685C178.604 130.065 179.024 130.84 179.024 131.461C179.024 132.624 177.048 136.123 176.391 136.123C175.668 136.123 175.377 133.254 176.05 132.762L176.675 132.305L176.579 127.451L176.483 122.597L175.771 122.199C174.802 121.657 174.347 122.501 174.496 124.563C174.756 128.165 172.651 129.262 171.261 126.249L170.431 124.449L168.677 123.747C167.712 123.361 166.73 122.686 166.495 122.246L166.067 121.446L167.65 119.145L169.233 116.844L168.934 114.855C168.545 112.259 168.704 112.193 163.452 117.148L158.913 121.429L158.011 121.143C157.515 120.985 156.901 120.467 156.646 119.992C155.998 118.781 155.321 118.916 155.321 120.257C155.321 121.001 154.977 121.534 154.314 121.821C153.761 122.06 152.962 122.504 152.538 122.806C151.175 123.78 150.754 122.696 151.567 120.31L152.29 118.188L154.699 116.408C157.362 114.441 157.925 113.317 155.661 114.487C154.863 114.9 153.606 115.257 152.865 115.282L151.519 115.326L150.7 117.004C149.84 118.763 148.792 119.334 149.287 117.774C149.445 117.275 149.649 116.283 149.739 115.569C150.063 113.013 153.985 106.714 156.62 104.521C157.258 103.99 157.641 103.414 157.471 103.243C156.952 102.719 154.441 104.715 149.283 109.751C142.533 116.341 140.311 116.868 143.693 111.078C144.677 109.393 145.482 107.795 145.482 107.528C145.482 107.26 145.658 106.691 145.874 106.264C146.09 105.837 146.591 104.73 146.988 103.804C147.385 102.879 149.358 100.404 151.373 98.3052L155.036 94.489L154.104 94.2452L153.172 94.0015L154.86 92.4769C156.835 90.692 157.557 90.5592 157.557 91.9809C157.557 94.862 162.616 94.5252 165.341 91.4626C166.248 90.4433 167.602 90.2005 168.079 90.972C168.47 91.6052 167.346 93.2314 164.118 96.701C161.115 99.9296 161.268 100.524 164.662 98.8043C165.904 98.1755 167.257 97.6607 167.671 97.6607C168.085 97.6607 170.085 96.7551 172.115 95.6482C174.146 94.5413 176.229 93.6357 176.745 93.6357C177.866 93.6357 177.973 92.9487 176.943 92.3713C176.519 92.1348 176.315 91.6634 176.466 91.2698L176.73 90.5824L178.659 90.8279C179.721 90.9626 180.791 91.209 181.036 91.3745C181.282 91.5404 181.929 91.2117 182.474 90.6432C183.506 89.5672 183.447 89.463 181.876 89.5855C180.672 89.6795 180.197 88.5185 181.124 87.7492C181.83 87.1629 181.978 87.1213 183.82 86.9952C185.1 86.9075 186.39 84.5783 185.786 83.4486C185.326 82.5904 182.523 81.6982 178.409 81.1002L175.782 80.7183L174.697 81.4294L173.611 82.1405L173.108 81.6373L172.605 81.1342L173.355 80.3059C174.612 78.9164 173.769 77.5353 171.663 77.5353C170.748 77.5353 169.827 79.7863 170.557 80.2375C171.481 80.8086 170.54 82.4249 169.044 82.8346C166.983 83.3994 166.464 82.6512 168.044 81.3914L169.345 80.3542L168.259 80.3981L167.172 80.4423L167.319 79.5479C167.785 76.7156 171.656 74.9463 176.156 75.5085L178.56 75.8086L179.562 75.1069C180.114 74.7205 180.898 74.4047 181.305 74.4047C181.712 74.4047 182.321 73.9915 182.659 73.4866C183.404 72.3716 185.899 71.7464 189.66 71.7321L192.469 71.7213L192.757 72.4727C192.959 72.9995 192.487 73.7191 191.178 74.8815C188.483 77.2728 189.32 78.2885 192.075 75.97C193.534 74.7424 193.725 74.6878 194.607 75.2469L195.209 75.6279L194.499 77.0004C194.108 77.7554 193.586 78.4982 193.338 78.6516C192.272 79.3104 193.088 79.5385 196.018 79.3994L199.149 79.2509V80.5644V81.8784L200.602 82.2948C201.593 82.5792 202.055 82.9849 202.055 83.5739C202.056 84.1088 202.736 84.8283 203.845 85.4697C204.829 86.0381 205.909 86.6696 206.244 86.8731L206.854 87.2434L206.331 88.2206C206.043 88.7577 205.869 89.9979 205.945 90.976L206.081 92.7546L207.768 91.8472C209.779 90.7662 211.131 90.9916 212.675 92.6656C214.142 94.2551 214.514 95.3915 213.673 95.7144C212.825 96.0395 210.777 94.7206 210.777 93.849C210.777 92.845 210.296 93.0404 208.537 94.7582L206.929 96.3276L203.496 95.4496C201.607 94.9666 199.687 94.3709 199.229 94.1254C198.269 93.6115 195.164 94.8329 195.139 95.7336C195.117 96.5436 194.215 96.93 193.654 96.3696C192.758 95.4729 191.292 95.8387 190.275 97.2135C189.048 98.8741 188.728 98.8781 186.684 97.2587L185.047 95.9622L183.799 97.0351C183.113 97.625 182.029 98.108 181.389 98.108H180.227L181.079 99.0677C181.692 99.7583 181.774 100.083 181.372 100.223C180.518 100.522 180.706 101.239 181.638 101.239C182.093 101.239 183.107 101.559 183.891 101.951L185.318 102.662L185.97 102.121L186.622 101.58L187.747 102.317L188.872 103.054L189.732 102.594C190.206 102.34 191.082 102.133 191.68 102.133C192.278 102.133 193.28 101.73 193.906 101.237C194.533 100.745 195.338 100.455 195.698 100.592C196.057 100.73 196.464 100.547 196.603 100.186L196.855 99.5284L204.018 99.6728L211.182 99.8169L211.705 99.1863C212.378 98.375 213.765 98.3866 216.137 99.2234C217.285 99.6286 218.692 99.7864 219.707 99.6241L221.382 99.3558L221.614 100.243C221.952 101.537 232.104 104.212 233.058 103.258C233.513 102.803 230.563 101.522 228.632 101.337C226.112 101.094 225.668 100.723 226.682 99.7095C227.472 98.9197 230.236 98.7708 231.957 99.4255C232.773 99.7359 233.206 99.6836 233.583 99.2296L234.097 98.6111L232.661 97.8687L231.226 97.1263L230.149 97.6174C229.557 97.8871 228.906 98.108 228.705 98.108C228.134 98.108 227.782 94.4528 228.266 93.5485C228.748 92.6482 228.225 92.4791 226.96 93.1267C226.546 93.3387 225.667 93.641 225.007 93.7985L223.807 94.0851L223.665 92.8539L223.523 91.6231L222.057 91.7385C220.32 91.8749 219.795 91.0118 220.574 89.3007C221.294 87.721 220.993 87.6115 218.889 88.6848C216.183 90.065 214.553 89.5914 216.232 87.9129L216.767 87.3776L215.896 86.7389C215.39 86.3673 215.026 85.5716 215.026 84.8364V83.573L213.594 83.5578C211.784 83.5381 211.337 83.0935 212.024 81.9933C212.737 80.8525 212.722 80.7809 211.654 80.2089L210.742 79.721L209.306 80.5926C207.848 81.4777 205.858 81.2702 205.858 80.233C205.858 79.9795 205.439 79.3524 204.927 78.8408L203.996 77.9097L204.811 77.0089L205.627 76.1082L204.575 75.2567C203.996 74.788 203.146 74.4047 202.685 74.4047C202.137 74.4047 201.473 73.6713 200.761 72.2804C199.165 69.1623 196.694 67.0022 193.757 66.16C192.39 65.7678 190.183 64.7454 188.853 63.8881L186.433 62.3295L183.735 62.3232C182.251 62.3201 180.634 62.2297 180.142 62.1229C179.65 62.0164 178.04 62.5213 176.564 63.2459ZM104.888 79.3354C99.7705 81.4182 88.2423 93.5176 88.2378 96.811C88.2369 97.4506 87.6202 98.8236 86.8679 99.8625C86.1152 100.901 85.5745 101.975 85.6653 102.248C85.8777 102.885 92.4435 96.8186 94.4972 94.0874C97.4405 90.1728 101.605 85.81 104.534 83.573L107.461 81.3368L107.352 80.2228C107.232 78.9938 106.434 78.7066 104.888 79.3354ZM143.875 81.5175L142.044 82.348L137.445 88.0726C128.473 99.2372 126.236 104.593 126.155 115.103C125.981 137.482 141.14 148.37 162.141 140.947C165.268 139.842 165.422 139.255 162.588 139.247C161.42 139.243 160.217 139.082 159.915 138.891L159.365 138.542L160.963 134.847C162.738 130.74 162.72 129.522 160.865 128.307L159.69 127.537L157.595 129.734C155.184 132.262 152.75 133.166 148.408 133.149C142.866 133.127 138.769 130.071 135.719 123.683L134.077 120.246L134.091 113.761L134.105 107.276L135.323 103.795C136.953 99.1357 139.071 95.0494 142.097 90.7287C147.379 83.1857 148.068 79.6145 143.875 81.5175ZM112.039 82.5667C111.044 83.3663 108.993 85.077 107.483 86.3682C105.09 88.4142 102.642 89.7846 104.247 88.1794C104.542 87.8843 104.784 87.3811 104.784 87.0614C104.784 86.0734 103.503 86.4182 102.376 87.7099C96.3425 94.6267 94.5437 96.8258 94.3523 97.519C93.563 100.38 93.118 103.052 93.3639 103.45C93.5223 103.706 92.6345 104.933 91.3912 106.176C88.4838 109.083 88.2592 111.924 91.1139 109.679C92.5938 108.515 92.8139 108.703 92.2535 110.657C91.3268 113.888 92.6873 114.375 94.8854 111.599L96.2437 109.884L97.6699 110.094C99.3908 110.346 99.1297 109.626 97.1247 108.589C96.1511 108.085 95.8219 107.627 95.923 106.915L96.0625 105.935L97.6278 106.086C98.4888 106.169 99.5107 106.521 99.8993 106.868C100.288 107.216 101.143 107.5 101.8 107.5C103.261 107.5 103.27 107.637 101.933 109.431C101.349 110.214 99.792 112.867 98.4727 115.326L96.0746 119.799L96.1395 123.537C96.1752 125.593 96.3998 127.471 96.639 127.71C97.6323 128.703 101.653 119.243 101.653 115.912C101.653 115.462 102.733 113.92 104.052 112.485C107.885 108.316 111.317 101.96 110.131 101.227L109.569 100.879L110.573 99.6053L111.577 98.3316L110.894 98.193C110.518 98.1165 109.587 98.3763 108.826 98.7699C106.691 99.8737 106.28 99.1272 108 97.2739C108.83 96.3799 109.882 95.1992 110.339 94.6504L111.168 93.6527L110.62 92.9921C110.244 92.5386 109.629 92.4174 108.658 92.6048L107.243 92.8776L108.098 91.9116L108.954 90.9451L109.786 91.6983L110.619 92.4518L111.136 91.9348L111.653 91.4174L111.05 90.2913C110.268 88.8311 110.683 88.4581 112.074 89.3695L113.18 90.0945L113.901 89.3736C114.298 88.9769 114.623 88.3718 114.623 88.0292C114.623 87.2072 116.157 86.4102 117.067 86.7595C118.963 87.4871 120.252 84.115 118.846 82.1074L118.15 81.1132H116H113.849L112.039 82.5667ZM148.769 96.6898C144.995 99.8567 143.877 101.155 144.442 101.72C144.876 102.154 150.576 98.04 152.122 96.1782L152.648 95.5431L152.017 95.0189L151.385 94.4948L148.769 96.6898ZM166.396 103.81C165.781 104.733 164.069 106.924 162.592 108.68C159.086 112.849 158.976 113.04 160.296 112.644C163.938 111.552 170.524 108.554 171.921 107.353C172.827 106.573 174.113 105.557 174.778 105.096L175.987 104.257L175.381 103.872C175.048 103.661 174.148 103.485 173.381 103.481L171.987 103.475L170.803 105.264C169.027 107.948 168.094 107.518 168.224 104.075C168.314 101.693 167.853 101.626 166.396 103.81ZM224.706 106.314L223.731 107.351L224.836 108.544C225.443 109.199 226.178 109.736 226.468 109.736C226.758 109.736 227.691 110.166 228.541 110.691L230.087 111.647L229.489 112.041L228.89 112.435L230.232 113.622C230.97 114.275 231.515 115.076 231.442 115.403C231.36 115.775 231.732 115.997 232.436 115.997C233.054 115.997 234.698 116.5 236.089 117.115C240.092 118.886 241.145 118.412 238.282 116.128C235.65 114.028 237.024 113.454 240.697 115.121C242.916 116.128 243.576 115.941 242.282 114.672C241.163 113.574 231.279 108.394 230.303 108.394C229.435 108.394 229.306 107.669 230.12 107.367L230.679 107.16L230.008 106.49C229.639 106.122 228.515 105.698 227.509 105.549L225.68 105.276L224.706 106.314ZM108.602 112.555C108.23 113.122 107.547 114.681 107.083 116.021C106.619 117.361 105.805 119.19 105.273 120.085C104.069 122.112 103.536 125.99 104.33 126.946C105.563 128.432 106.353 127.686 109.025 122.515L111.666 117.404L111.141 116.253C110.852 115.621 110.31 115.103 109.936 115.103C109.181 115.103 108.998 113.526 109.703 113.09C110.278 112.735 110.286 111.525 109.713 111.525C109.473 111.525 108.973 111.989 108.602 112.555ZM188.666 129.364C187.717 131.198 187.783 132.028 189.085 134.594C190.445 137.275 190.452 137.476 189.235 139.024C188.523 139.929 188.383 140.442 188.708 140.958C189.525 142.254 190.15 142.016 190.461 140.288C190.63 139.35 190.916 138.381 191.096 138.135C191.276 137.889 191.55 137.153 191.707 136.5C191.862 135.846 192.117 134.98 192.272 134.576L192.554 133.841L191.399 134.131L190.244 134.421L189.95 133.251C189.788 132.607 189.786 131.531 189.944 130.86C190.447 128.73 190.441 128.397 189.896 128.204C189.602 128.1 189.049 128.622 188.666 129.364ZM144.156 157.56C143.901 158.036 143.693 159.199 143.693 160.144C143.693 161.09 143.392 162.293 143.024 162.818C142.145 164.072 142.397 169.355 143.44 171.555L144.199 173.152L143.753 176.37L143.307 179.588L144.067 182.083C145.286 186.088 145.818 185.559 146.074 180.087C146.198 177.43 146.614 173.645 146.997 171.678C147.38 169.71 147.827 167.244 147.99 166.199L148.287 164.298H147.08H145.874L146.17 162.321C146.772 158.312 145.439 155.162 144.156 157.56ZM137.261 159.893C136.346 164.47 136.414 172.348 137.369 172.348C138.409 172.348 139.5 164.821 139.02 160.97C138.671 158.183 137.72 157.6 137.261 159.893ZM149.646 168.867L148.706 169.889L148.212 176.439C147.502 185.851 147.562 191.206 148.389 192.277L149.059 193.145L149.724 192.284C150.09 191.811 150.517 190.746 150.673 189.917C151.177 187.228 151.966 188.372 153.697 194.302C154.224 196.109 154.426 198.616 154.426 203.35V209.899L155.565 210.185C157.123 210.575 157.059 211.107 156.586 201.614L156.162 193.089L157.083 190.752C158.09 188.196 158.331 185.51 157.507 186.02C156.159 186.853 155.732 181.177 156.899 177.939C157.658 175.831 157.75 172.651 157.087 171.412C156.525 170.362 155.768 170.691 155.768 171.987C155.768 172.496 155.382 173.541 154.91 174.308C154.251 175.38 153.085 180.92 153.085 182.98C153.085 183.135 152.833 183.008 152.525 182.699C152.126 182.297 151.966 180.137 151.966 175.127V168.118L151.276 167.982C150.896 167.907 150.162 168.305 149.646 168.867ZM212.343 171.552L210.554 172.505L204.441 172.762C197.015 173.074 195.932 173.661 200.237 175.039C201.204 175.349 202.904 176.178 204.014 176.882C205.166 177.613 206.656 178.162 207.483 178.162H208.933L212.65 175.397C214.695 173.876 216.434 172.585 216.516 172.528C216.597 172.471 216.439 172.005 216.165 171.492C215.54 170.325 214.619 170.339 212.343 171.552ZM139.512 176.485C139.372 177.53 139.139 179.493 138.995 180.846L138.733 183.306L139.641 184.759C141.332 187.466 142.77 186.446 141.701 183.299C141.321 182.179 141.009 180.078 141.009 178.631C141.009 174.43 139.988 172.966 139.512 176.485ZM209.883 183.766C206.922 185.046 205.342 185.111 201.586 184.111C198.601 183.315 198.059 183.391 198.5 184.542C199.533 187.234 214.696 186.118 213.796 183.417C213.503 182.535 212.529 182.622 209.883 183.766ZM162.801 186.548C161.918 188.234 163.881 201.547 165.505 204.884C166.638 207.215 168.29 208.165 168.29 206.486C168.29 204.375 166.782 195.192 166.233 193.964C165.885 193.185 165.477 191.575 165.326 190.386C164.956 187.462 163.489 185.233 162.801 186.548ZM159.967 199.262C159.484 200.043 159.75 202.715 160.447 204.096C160.76 204.714 161.161 206.025 161.339 207.009C161.693 208.967 162.356 210.043 162.974 209.661C163.588 209.281 163.439 201.357 162.794 200.077C162.17 198.838 160.523 198.363 159.967 199.262ZM166.353 211.556C165.916 211.992 165.989 213.832 166.477 214.73C166.709 215.157 167.023 216.274 167.173 217.211L167.447 218.916L168.204 218.762L168.961 218.609L168.91 216.066C168.847 212.89 167.461 210.447 166.353 211.556Z" fill="#FBFDFD"/>
</svg>
