<svg width="300" height="357" viewBox="0 0 300 357" fill="none" xmlns="http://www.w3.org/2000/svg">
<path fill-rule="evenodd" clip-rule="evenodd" d="M246.429 0.373032C245.514 0.990069 239.726 9.61535 236.026 15.875C222.939 38.0172 211.652 50.0567 193.536 61.1941C190.729 62.9197 187.299 65.2108 185.913 66.2845C183.441 68.2004 179.259 70.2579 177.838 70.2579C174.737 70.2579 182.586 63.6832 196.292 54.8006C207.908 47.272 221.099 35.273 223.754 29.8193L224.603 28.0763L222.997 29.9065C216.01 37.8701 200.478 50.6884 191.055 56.2675C188.183 57.9681 184.525 60.4 182.927 61.671C181.329 62.9427 179.839 63.983 179.616 63.983C178.951 63.983 179.156 61.3098 179.853 60.879C181.375 59.9384 191.39 44.037 193.163 39.7463C194.231 37.1624 196.274 32.5385 197.704 29.4707L200.302 23.893L200.389 18.3152L200.475 12.7375L198.918 12.5165L197.361 12.2948L195.677 16.0026C194.751 18.0412 193.674 20.8078 193.283 22.1499C187.241 42.9228 164.695 77.4393 153.446 83.1397C149.53 85.124 137.956 93.9068 134.524 97.4982C131.309 100.862 123.432 114.144 123.432 116.2C123.432 117.14 121.938 119.362 119.714 121.729C115.877 125.812 110.714 131.969 105.39 138.809C101.642 143.625 100.366 144.117 97.4284 141.881C91.1004 137.063 85.8601 135.796 72.2602 135.796H62.2921L56.4327 137.968C47.693 141.207 44.2962 141.874 33.7131 142.427C28.4143 142.704 22.824 143.34 21.2901 143.839C19.7563 144.338 17.3592 145.051 15.9634 145.424L13.4248 146.1L12.6935 144.608C12.2905 143.789 11.9586 140.764 11.9551 137.888C11.9244 113.088 11.9906 98.8738 12.1629 93.2661L12.3664 86.6425L14.7168 85.0389C16.0101 84.157 17.2526 83.1369 17.4778 82.7716C17.7281 82.3672 36.8332 81.9503 66.3032 81.7062C92.9306 81.4859 121.012 81.2293 128.705 81.1352L142.693 80.9651L145.787 79.1377C147.489 78.1323 150.311 76.5329 152.059 75.5826C153.807 74.633 156.258 72.9025 157.506 71.736L159.776 69.6165L159.557 67.1016L159.339 64.5868L132.148 64.6697C83.3683 64.8196 69.9559 65.148 59.4209 66.4518L49.4431 67.6873L45.4766 66.8436C43.2943 66.38 38.8426 65.6723 35.5831 65.2714C32.3236 64.8705 29.4532 64.2144 29.2043 63.8129C28.9553 63.4113 28.2093 63.2906 27.547 63.5451C26.8846 63.7989 25.9155 63.6525 25.3939 63.2195C24.8578 62.7747 23.911 62.6638 23.2165 62.9643C21.4114 63.7459 20.3747 63.9084 15.3638 64.1956C10.3215 64.485 6.30136 66.1764 6.29717 68.0101C6.29578 68.6711 5.66688 70.2419 4.89925 71.5004L3.50411 73.7893L2.20451 73.0942C-0.228082 71.7918 -0.713359 74.7034 1.07849 79.8474C1.68786 81.5975 2.06228 84.8911 1.99116 87.8815C1.92423 90.669 2.20033 93.5401 2.60472 94.2617C3.10602 95.1577 3.11786 96.3701 2.64306 98.0804C1.9556 100.556 1.8301 110.573 1.97582 151.484C2.01626 162.988 2.07204 178.989 2.09923 187.042C2.12572 195.095 2.1062 211.41 2.05461 223.297C1.93399 251.207 1.92979 252.956 1.94722 268.268C1.95489 275.362 1.91306 293.089 1.85379 307.66L1.74643 334.155L2.66048 337.641L3.57454 341.127L2.77762 343.875L1.98069 346.624L3.25521 347.556C4.01448 348.111 5.3106 348.317 6.46101 348.063C7.52705 347.829 8.39161 347.94 8.39161 348.311C8.39161 350.548 35.1125 352.018 38.8321 349.986L40.3374 349.163L42.6668 350.123L44.9955 351.083L69.7467 351.561L94.498 352.04L106.178 353.73C112.603 354.659 120.823 355.42 124.445 355.42H131.03L132.911 353.677C135.176 351.577 136.257 351.528 141.279 353.293C143.406 354.041 146.485 354.853 148.122 355.098L151.097 355.545L151.035 354.262C150.94 352.323 151.147 352.317 158.642 354.032L165.614 355.628L180.953 355.677C189.389 355.704 197.547 355.622 199.081 355.495C200.614 355.368 204.379 355.49 207.447 355.768L213.025 356.272L219.648 355.013L226.272 353.755L245.446 353.699C259.582 353.658 265.515 353.892 268.03 354.588L271.441 355.533L273.735 354.297L276.029 353.062L277.677 353.812L279.325 354.563L280.646 353.597C281.373 353.066 283.268 352.631 284.858 352.631H287.748L291.697 349.804C295.827 346.846 296.124 346.417 294.892 345.185C294.357 344.65 294.353 343.658 294.874 341.768L295.61 339.106L294.526 337.908L293.443 336.711L294.248 335.206C295.207 333.413 295.133 320.196 294.09 306.963C293.416 298.421 293.057 288.06 292.884 272.158C292.843 268.354 292.523 263.962 292.174 262.397C291.658 260.089 291.262 239.427 291.384 221.205C291.397 219.288 291.252 216.778 291.062 215.628C290.41 211.69 290.744 202.604 291.754 196.803C291.954 195.652 291.805 192.201 291.422 189.133C291.039 186.066 290.581 182.172 290.403 180.48C290.226 178.789 289.607 176.882 289.028 176.242C287.653 174.723 287.7 173.933 289.326 171.26L290.675 169.04L290.25 164.445C290.016 161.918 289.874 144.993 289.934 126.833L290.043 93.8155L289.054 92.4029L288.064 90.9904L288.997 89.5137C290.352 87.3704 290.966 83.7421 290.205 82.3818L289.547 81.2056L288.741 83.6473C287.753 86.6425 285.665 88.6247 282.224 89.8365C279.231 90.8907 279.316 90.6501 280.635 94.3119C282.351 99.0746 282.018 100.656 278.513 104.403L275.325 107.811L276.009 109.08C276.385 109.777 277.506 111.109 278.499 112.038C280.829 114.218 280.854 117.236 278.568 120.6C277.561 122.081 277.013 123.634 277.264 124.289C277.536 124.997 276.994 126.157 275.818 127.384L273.937 129.347L276.076 132.823C278.6 136.924 278.62 137.124 276.847 140.28L275.48 142.714L276.495 144.659C277.052 145.728 277.511 147.671 277.513 148.977L277.518 151.351L274.717 154.015C270.202 158.31 265.199 158.949 268.45 154.816L269.953 152.905L265.891 152.164C263.658 151.756 259.477 150.703 256.601 149.824C253.725 148.946 248.705 147.434 245.446 146.464C242.186 145.495 238.336 144.267 236.891 143.735C235.445 143.204 233.003 142.769 231.465 142.769C229.926 142.769 227.501 142.274 226.075 141.67C219.966 139.08 205.074 135.289 196.292 134.087C194.374 133.825 191.707 133.337 190.365 133.001C189.023 132.667 186.356 132.012 184.439 131.547C182.522 131.082 180.169 130.274 179.21 129.75L177.467 128.799L190.365 129.136L203.264 129.473L210.236 131.15C214.071 132.073 219.496 133.53 222.293 134.389L227.378 135.95L232.403 135.528C235.166 135.296 237.955 135.083 238.601 135.056C239.246 135.028 240.405 135.637 241.176 136.408C242.844 138.075 247.305 139.059 248.868 138.105C249.711 137.59 263.895 137.367 267.251 137.815C267.548 137.855 268.089 138.672 268.454 139.631C269.596 142.636 273.069 140.936 273.492 137.164L273.683 135.469L266.711 134.515C262.876 133.99 258.64 133.654 257.298 133.768C245.169 134.797 227.991 133.473 220.21 130.908C216.651 129.735 210.598 128.316 206.758 127.754C202.919 127.192 198.366 126.44 196.64 126.082C194.915 125.724 188.64 124.886 182.696 124.218C172.012 123.02 167.964 121.952 173.318 121.746C174.833 121.687 176.386 121.588 176.77 121.526C184.701 120.238 190.247 119.719 194.2 119.893L199.081 120.109L198.954 121.991L198.827 123.873L201.743 124.226C203.346 124.421 208.282 124.722 212.71 124.895L220.763 125.21L226.07 126.991L231.377 128.773L237.868 128.396C241.438 128.188 244.676 127.822 245.066 127.582C245.454 127.343 249.071 126.616 253.104 125.969C257.136 125.322 259.394 124.758 258.121 124.716L255.807 124.641L256.029 123.101L256.252 121.56L259.041 120.969C264.313 119.853 268.818 121.135 266.885 123.202L266.013 124.133L267.756 123.7C268.715 123.46 270.211 123.261 271.079 123.256C272.199 123.249 273.004 122.523 273.843 120.765L275.026 118.284L274.146 117.739C273.661 117.44 263.79 116.983 252.209 116.723C240.628 116.463 228.329 116.113 224.878 115.945L218.603 115.64L222.089 116.587C224.008 117.109 229.267 117.565 233.789 117.602L242.003 117.669L242.422 118.761C242.653 119.362 242.487 120.209 242.052 120.644C240.643 122.053 241.176 122.204 246.744 121.976L252.23 121.752L252.641 122.822C253.273 124.47 249.817 124.788 239.171 124.062L229.758 123.42L223.832 121.416L217.905 119.412L217.209 117.823C216.782 116.85 215.531 115.97 213.984 115.553C210.111 114.511 171.341 114.774 164.045 115.893C161.525 116.279 160.385 116.217 160.385 115.693C160.385 114.915 162.955 114.071 169.1 112.834C174.188 111.809 207.544 110.69 211.282 111.419C216.298 112.396 227.324 112.193 230.455 111.065C234.27 109.691 238.473 109.681 238.473 111.045V112.091H247.115H255.757L260.537 110.631C263.165 109.828 265.63 108.852 266.013 108.461C266.484 107.982 266.258 107.886 265.316 108.166C262.178 109.101 251.58 110.692 250.976 110.319C250.107 109.782 250.149 108.099 251.045 107.546C251.44 107.302 255.754 106.517 260.632 105.801C273.296 103.945 277.518 102.52 277.518 100.103C277.518 98.0797 274.296 97.1649 270.545 98.1222C267.691 98.8508 262.331 100.001 255.904 101.262C254.562 101.526 251.628 102.395 249.383 103.193L245.303 104.645L246.886 105.492L248.469 106.339L247.003 107.123C244.743 108.332 239.82 108.108 238.828 106.751L237.982 105.595L230.384 106.793C212.875 109.554 198.091 110.49 197.545 108.871C197.212 107.883 203.027 105.559 210.236 103.8C227.168 99.6707 244.488 95.758 249.28 94.9799C251.579 94.6069 253.656 94.086 261.482 91.9198C264.358 91.1242 267.729 90.4737 268.975 90.4751C273.944 90.48 283.814 84.2915 282.848 81.7766L282.426 80.6743L277.706 81.1185C275.109 81.3632 271.59 82.0172 269.884 82.5729C266.748 83.5936 260.703 85.0089 252.418 86.6634C249.925 87.1613 246.16 88.0858 244.051 88.7188C229.26 93.1559 211.616 97.4473 208.144 97.4522C203.748 97.4578 175.853 103.563 172.413 105.271C170.637 106.154 169.782 105.678 170.374 104.136C170.596 103.556 173.496 102.264 176.909 101.225C182.876 99.4079 192.777 95.9002 195.594 94.6048C196.768 94.0658 207.175 91.157 215.209 89.1225C216.411 88.8185 218.426 88.0544 219.688 87.4248C222.296 86.1238 239.155 81.9391 246.491 80.7713C251.574 79.9625 276.698 74.018 279.435 72.9764C280.348 72.6291 281.004 71.7897 281.004 70.9698C281.004 70.0181 281.463 69.5607 282.42 69.5607C284.255 69.5607 284.955 71.4432 283.805 73.2852L282.901 74.7341L285.554 77.0279C288.742 79.7833 289.016 79.8126 290.49 77.5641C291.295 76.3349 291.527 74.9544 291.262 72.9743C290.8 69.5265 290.726 69.4485 287.486 68.9214L284.889 68.4995L287.479 65.634C290.517 62.2706 290.649 61.2506 288.384 58.6186L286.701 56.6622L281.81 56.7438C276.475 56.833 272.493 58.4903 272.046 60.8071L271.8 62.0872L276.193 61.5901C278.609 61.3168 281.13 60.8023 281.795 60.4467C283.7 59.4267 287.273 59.67 287.725 60.8511C289.101 64.4355 283.703 66.7816 270.115 68.5044C265.558 69.0824 259.791 70.0069 257.298 70.5598C254.806 71.1127 247.433 72.5553 240.914 73.7656C234.395 74.976 226.865 76.7037 224.18 77.6052C221.496 78.5067 216.947 79.9053 214.071 80.7141C207.352 82.6036 200.227 85.2844 192.616 88.7858C188.449 90.7031 187.576 90.8454 187.577 89.6057C187.578 88.5404 199.821 82.0318 210.236 77.5599C214.454 75.7485 219.788 73.242 222.089 71.9898C224.39 70.7376 228.926 68.8684 232.17 67.8365C235.414 66.8039 238.917 65.5203 239.956 64.9828L241.845 64.006L244.168 64.9451L246.491 65.8843L252.317 65.2937C256.227 64.8977 258.932 64.2151 260.546 63.2181C263.87 61.1634 263.151 60.9347 257.221 62.1625C251.241 63.4001 251.547 63.5277 252.262 60.0897L252.824 57.3803L254.887 56.3366C256.022 55.7628 258.483 54.3642 260.358 53.2284C262.233 52.0926 266.597 49.8287 270.055 48.198C273.513 46.5672 277.627 44.0126 279.196 42.5212C283.148 38.7653 285.882 36.7915 287.132 36.7915H288.192L286.864 38.3058C285.25 40.1451 286.254 39.6131 291.462 35.867C299.092 30.3792 301.79 26.5382 298.817 25.3976C297.237 24.7903 277.725 34.9013 266.711 42.0346C255.948 49.0046 232.93 61.1941 230.531 61.1941C228.347 61.1941 236.483 53.1914 245.188 46.7749C253.663 40.5293 255.711 38.7151 254.684 38.3658C254.205 38.2034 253.812 37.4957 253.812 36.7936C253.812 35.1265 269.31 19.3715 270.994 19.3262C271.706 19.3074 273.543 17.7093 275.077 15.776C276.611 13.8419 278.58 11.4497 279.453 10.4597C284.282 4.98234 284.871 1.67683 280.857 2.58252L278.526 3.10822L263.903 17.5566C255.861 25.5035 248.259 32.8069 247.013 33.7851L244.745 35.5651L243.604 34.6183L242.464 33.6714L236.111 40.3822C229.326 47.5489 224.714 51.0391 222.66 50.5629L221.392 50.2687L224.887 46.8419C231.767 40.0977 234.609 35.8475 241.789 21.5636L248.995 7.22669L248.789 3.76222C248.586 0.341673 247.912 -0.626081 246.429 0.373032ZM183.061 32.9568C182.476 33.9155 181.46 35.563 180.803 36.6172C180.146 37.6714 178.782 40.2601 177.772 42.3692C176.761 44.4783 173.821 49.759 171.238 54.1041C168.655 58.4498 166.684 62.1486 166.86 62.3236C168.588 64.0527 184.081 40.1862 185.878 33.0265L186.333 31.2138H185.228C184.62 31.2138 183.645 31.9981 183.061 32.9568ZM207.421 61.2359C207.17 61.6424 205.627 62.9762 203.991 64.1991C192.599 72.7205 188.274 76.2519 188.274 77.0314C188.274 78.0556 190.777 78.2571 191.379 77.2817C191.599 76.9268 194.362 74.8428 197.521 72.6508C208.165 65.2638 209.887 63.794 209.887 62.097C209.887 60.4502 208.259 59.8812 207.421 61.2359ZM63.9556 138.334C62.8464 139.443 64.6577 139.983 69.6136 140.021C82.692 140.123 87.334 143.475 81.5423 148.636L79.3934 150.55L80.4992 151.772C81.1079 152.445 82.7457 153.345 84.1401 153.773L86.6745 154.55L89.2988 153.211C92.3184 151.671 96.3665 147.098 96.0737 145.557C95.8262 144.256 90.2617 141.175 84.776 139.303L80.6317 137.888H72.5161C68.0532 137.888 64.2011 138.089 63.9556 138.334ZM171.669 139.366C171.957 140.271 173.809 140.963 183.567 143.818C187.965 145.104 188.949 145.97 185.217 145.27L182.858 144.827L182.454 145.879C181.976 147.124 182.383 147.356 191.063 150.795C208.495 157.7 222.437 164.482 222.437 166.056C222.437 166.519 224.765 168.096 227.61 169.559C236.387 174.074 240.409 178.343 235.859 178.315C230.975 178.284 220.788 176.836 219.02 175.922C217.94 175.363 212.541 173.443 207.023 171.654C201.504 169.864 193.269 166.997 188.723 165.28C181.162 162.427 178.455 162.077 179.762 164.121C182.004 167.63 208.587 178.668 222.437 181.841C227.884 183.088 233.501 187.291 234.678 191.001C235.259 192.832 235.04 192.981 230.069 194.13L225.789 195.119L224.81 194.307C222.473 192.366 224.811 190.877 230.194 190.877H232.198V189.495C232.198 187.938 231.355 187.676 224.403 187.07C219.768 186.666 201.977 181.168 194.897 177.952C189.177 175.354 178.621 171.354 177.482 171.354C172.597 171.354 183.228 178.584 194.897 183.197C201.448 185.787 215.384 190.838 216.453 191.01C217.205 191.131 218.086 192.113 218.467 193.256L219.143 195.287L217.868 196.219C215.457 197.982 213.483 197.347 211.17 194.066L208.995 190.98L203.238 189.185C193.964 186.294 193.25 187.394 201.46 191.927C204.243 193.462 207.115 195.537 207.842 196.536L209.165 198.352L207.771 199.615C206.849 200.449 204.785 201.013 201.683 201.28L196.989 201.683V203.064C196.989 203.967 198.014 205.011 199.952 206.079L202.915 207.714V209.738C202.915 212.246 200.868 213.714 196.545 214.307L193.403 214.737L190.316 213.181C188.617 212.325 185.188 210.306 182.696 208.695C180.203 207.083 176.125 204.889 173.632 203.82C171.14 202.751 168.056 201.28 166.781 200.551C165.505 199.823 164.146 199.422 163.76 199.66C162.67 200.334 166.508 203.914 171.174 206.576C173.485 207.894 177.055 210.513 179.109 212.398C183.809 216.711 190.275 220.234 202.723 225.262C212.751 229.313 231.86 238.546 233.396 240.083C233.868 240.554 235.36 241.623 236.711 242.459C238.064 243.295 239.171 244.267 239.171 244.619C239.171 244.972 239.607 245.259 240.14 245.259C241.057 245.259 249.059 250.424 257.126 256.223C259.14 257.671 262.905 260.339 265.493 262.152C273.709 267.909 275.389 269.919 274.317 272.712C273.768 274.144 270.503 273.513 266.362 271.177C257.523 266.191 248.828 260.771 244.785 257.727C240.522 254.518 238.473 253.597 238.473 254.89C238.473 255.575 241.358 258.239 244.936 260.858C246.381 261.916 248.308 263.467 249.218 264.305C250.127 265.142 252.031 266.769 253.449 267.919C258.409 271.945 269.151 284.356 269.151 286.061V287.688L264.001 287.565L258.852 287.441L257.401 288.748C255.09 290.83 253.1 290.353 242.871 285.262C233.133 280.417 229.965 278.935 215.465 272.444C207.672 268.955 203.753 267.034 196.059 262.93C194.013 261.839 188.921 258.359 184.744 255.195C176.305 248.804 175.983 248.709 171.54 251.265L168.403 253.07L164.917 252.713C161.287 252.342 151.225 249.048 142.288 245.305C139.429 244.108 136.679 243.286 136.177 243.479C135.213 243.849 135.548 248.069 136.811 251.485L137.437 253.178L136.137 254.478L134.838 255.778L132.924 255.051C131.872 254.65 129.815 254.323 128.353 254.323C126.891 254.323 124.637 253.883 123.343 253.344C120.599 252.201 101.271 249.759 100.564 250.466C100.3 250.73 102.199 252.92 104.786 255.335C109.56 259.791 110.26 261.339 108.767 264.13C108.369 264.872 107.731 265.479 107.348 265.479C106.906 265.479 106.933 264.95 107.42 264.04L108.191 262.601L107.36 261.599C106.218 260.224 105.053 260.344 103.562 261.993C102.868 262.76 101.721 263.387 101.013 263.387C99.6323 263.387 99.2816 262.35 100.424 261.644C103.037 260.029 97.9311 253.915 91.4246 250.867L87.8772 249.206L86.3071 249.981C85.4432 250.407 83.7831 250.942 82.6174 251.168C78.7889 251.914 76.1402 254.028 75.6298 256.748C74.7674 261.345 71.6174 262.396 68.3293 259.182C65.7078 256.619 65.8716 255.139 68.9819 253.287C72.7406 251.048 75.6229 248.068 74.8127 247.258C73.8603 246.305 69.2594 247.577 66.1916 249.639L63.8204 251.234L63.1992 254.871C62.5054 258.933 61.9825 259.338 60.7952 256.731C59.2271 253.29 59.787 250.562 62.7522 247.194L65.5188 244.05L68.2184 243.619C69.7035 243.381 72.1326 242.363 73.6163 241.356L76.3145 239.525L82.6174 239.988C86.0839 240.243 89.9312 240.77 91.1673 241.161C92.4035 241.55 95.3841 241.973 97.7909 242.099C100.198 242.225 102.56 242.36 103.039 242.399C104.672 242.533 103.917 244.469 102.146 244.691C98.3382 245.166 100.38 246.345 106.351 247.117C114.964 248.231 116.196 248.213 117.457 246.953C119.348 245.061 118.687 244.131 114.049 242.16C109.611 240.274 103.588 235.646 94.1166 226.842C91.6059 224.509 86.9415 220.561 83.751 218.068C73.5814 210.123 69.6303 204.464 66.2265 192.968C60.3315 173.058 52.2034 161.589 39.4568 155.196C34.2918 152.606 24.1466 149.649 19.0305 149.244L13.9819 148.843L12.9918 151.212C12.3316 152.793 12.1684 154.508 12.501 156.367C12.7757 157.9 13.072 173.115 13.1592 190.179C13.2463 207.244 13.4667 229.363 13.6479 239.333C13.8299 249.303 14.1332 273.289 14.3214 292.634C14.5104 311.98 14.9001 328.043 15.1881 328.329C16.3566 329.493 24.04 333 24.6263 332.638C24.9728 332.423 27.031 332.291 29.2001 332.343C34.0032 332.46 28.2518 332.489 76.8604 332.099L117.789 331.772L117.399 332.789C117.164 333.402 117.424 333.806 118.054 333.806C118.629 333.806 119.281 333.335 119.502 332.76C119.99 331.489 125.534 331.306 126.75 332.522L127.557 333.328L128.613 332.452L129.668 331.576L130.784 332.691C132.113 334.02 132.574 334.048 136.053 333.005C137.906 332.45 139.001 332.426 139.62 332.926C141.217 334.216 145.8 334.561 163.29 334.708L180.487 334.852L182.517 333.351L184.548 331.85L201.227 331.809C210.4 331.786 225.278 331.542 234.29 331.267C251.001 330.757 261.875 330.711 268.105 331.125L271.591 331.356L275.24 328.94L278.888 326.523L278.533 309.074C278.337 299.476 278.038 284.879 277.868 276.634C277.698 268.39 277.37 260.489 277.14 259.078C276.908 257.666 277.067 255.862 277.492 255.069L278.264 253.626L277.418 252.057C276.935 251.16 276.509 247.206 276.423 242.819C276.34 238.601 276.054 228.718 275.787 220.857C275.52 212.996 275.234 196.516 275.153 184.234C275.07 171.953 274.766 161.52 274.476 161.052C274.147 160.519 272.198 160.195 269.284 160.188C266.718 160.182 264.2 159.912 263.688 159.587L262.758 158.998L264.285 158.599C267.024 157.883 265.322 156.41 259.05 154.066C252.532 151.632 250.494 151.8 252.261 154.629C253.421 156.486 253.404 156.527 251.004 157.768C248.129 159.256 245.331 158.66 236.025 154.583C231.804 152.733 224.901 150.28 220.687 149.13C211.112 146.52 201.915 142.603 208.409 143.902C209.556 144.132 210.62 143.973 210.893 143.531C211.225 142.994 211.692 143.079 212.422 143.809C213.024 144.411 214.721 144.86 216.391 144.86C217.996 144.86 220.389 145.17 221.709 145.548L224.109 146.236L224.657 145.374C226.456 142.542 224.604 141.73 214.768 141.039C203.254 140.231 202.58 140.24 202.573 141.225C202.563 142.629 200.808 143.371 198.087 143.122C193.993 142.747 186.722 141.343 183.742 140.352C182.208 139.842 178.795 139.195 176.158 138.914L171.364 138.404L171.669 139.366ZM217.091 154.327C216.323 156.327 218.667 157.702 223.076 157.841C225.343 157.913 227.761 158.286 228.449 158.671L229.7 159.371L230.524 158.244L231.348 157.117L233.168 157.946C235.204 158.874 235.578 160.714 233.864 161.371L232.74 161.803L236.827 165.496C241.61 169.818 243.143 170.358 246.571 168.926C247.963 168.345 250.429 167.868 252.05 167.868C256.056 167.868 259.39 166.627 259.39 165.135V163.931L255.381 163.12C253.176 162.673 249.803 161.989 247.886 161.6C245.968 161.211 241.041 159.638 236.937 158.105C232.831 156.573 228.596 155.315 227.524 155.31C226.452 155.306 223.849 154.839 221.74 154.273C219.631 153.706 217.817 153.239 217.709 153.235C217.601 153.23 217.323 153.722 217.091 154.327ZM109.129 189.499C107.956 191.396 111.679 200.016 116.527 206.63L119.131 210.182L125.91 214.131L132.689 218.078L133.58 217.34C134.84 216.294 133.119 211.518 127.375 200.125C125.035 195.485 121.371 195.577 122.377 200.25C122.629 201.422 122.91 203.251 123.001 204.314L123.166 206.247L122.283 205.36C121.139 204.21 112.278 189.994 112.277 189.308C112.277 188.519 109.635 188.68 109.129 189.499ZM134.588 206.479C134.588 207.493 141.525 213.187 142.759 213.187C143.156 213.187 143.912 213.707 144.438 214.341L145.395 215.495L143.164 214.341C137.729 211.532 137.362 213.745 142.463 218.568C146.034 221.946 151.021 224.715 154.982 225.521L156.899 225.912V224.48C156.899 223.694 155.88 222.246 154.633 221.264C153.386 220.282 152.596 219.474 152.876 219.47C153.609 219.459 158.744 221.434 163.018 223.372C166.716 225.049 171.128 225.574 171.84 224.422C172.388 223.536 171.032 222.639 166.66 220.993C154.97 216.591 147.367 212.794 138.848 207.098C136.162 205.302 134.588 205.073 134.588 206.479Z" fill="#FBFDFD"/>
</svg>
