<svg width="500" height="500" viewBox="0 0 500 500" fill="none" xmlns="http://www.w3.org/2000/svg">
<path fill-rule="evenodd" clip-rule="evenodd" d="M346.429 72.373C345.514 72.9901 339.726 81.6154 336.026 87.875C322.939 110.017 311.652 122.057 293.536 133.194C290.729 134.92 287.299 137.211 285.913 138.284C283.441 140.2 279.259 142.258 277.838 142.258C274.737 142.258 282.586 135.683 296.292 126.801C307.908 119.272 321.099 107.273 323.754 101.819L324.603 100.076L322.997 101.906C316.01 109.87 300.478 122.688 291.055 128.268C288.183 129.968 284.525 132.4 282.927 133.671C281.329 134.943 279.839 135.983 279.616 135.983C278.951 135.983 279.156 133.31 279.853 132.879C281.375 131.938 291.39 116.037 293.163 111.746C294.231 109.162 296.274 104.538 297.704 101.471L300.302 95.893L300.475 84.7375L297.361 84.2948L295.677 88.0026C294.751 90.0412 293.674 92.8078 293.283 94.1499C287.241 114.923 264.695 149.439 253.446 155.14C249.53 157.124 237.956 165.907 234.524 169.498C231.309 172.862 223.432 186.144 223.432 188.2C223.432 189.14 221.938 191.362 219.713 193.729C215.877 197.812 210.714 203.969 205.39 210.809C201.642 215.625 200.366 216.117 197.428 213.881C191.1 209.063 185.86 207.796 172.26 207.796H162.292L156.433 209.968C147.693 213.207 144.296 213.874 133.713 214.427C128.414 214.704 122.824 215.34 121.29 215.839C119.756 216.338 117.359 217.051 115.963 217.424L113.425 218.1L112.693 216.608C112.29 215.789 111.959 212.764 111.955 209.888C111.924 185.088 111.991 170.874 112.163 165.266L112.366 158.643L114.717 157.039C116.01 156.157 117.253 155.137 117.478 154.772C117.728 154.367 136.833 153.95 166.303 153.706C192.931 153.486 221.012 153.229 228.705 153.135L242.693 152.965L245.787 151.138C247.489 150.132 250.311 148.533 252.059 147.583C253.807 146.633 256.258 144.902 257.506 143.736L259.776 141.616L259.339 136.587L232.148 136.67C183.368 136.82 169.956 137.148 159.421 138.452L149.443 139.687L145.477 138.844C143.294 138.38 138.843 137.672 135.583 137.271C132.324 136.871 129.453 136.214 129.204 135.813C128.955 135.411 128.209 135.291 127.547 135.545C126.885 135.799 125.915 135.652 125.394 135.22C124.858 134.775 123.911 134.664 123.217 134.964C121.411 135.746 120.375 135.908 115.364 136.196C110.321 136.485 106.301 138.176 106.297 140.01C106.296 140.671 105.667 142.242 104.899 143.5L103.504 145.789L102.205 145.094C99.7719 143.792 99.2866 146.703 101.078 151.847C101.688 153.597 102.062 156.891 101.991 159.881C101.924 162.669 102.2 165.54 102.605 166.262C103.106 167.158 103.118 168.37 102.643 170.08C101.956 172.556 101.83 182.573 101.976 223.484C102.016 234.988 102.072 250.989 102.099 259.042C102.126 267.095 102.106 283.41 102.055 295.297C101.934 323.207 101.93 324.956 101.947 340.268C101.955 347.362 101.913 365.089 101.854 379.66L101.746 406.155L103.575 413.127L101.981 418.624L103.255 419.556C104.014 420.111 105.311 420.317 106.461 420.063C107.527 419.829 108.392 419.94 108.392 420.311C108.392 422.548 135.112 424.018 138.832 421.986L140.337 421.163L144.996 423.083L194.498 424.04L206.178 425.73C212.603 426.659 220.823 427.42 224.445 427.42H231.03L232.911 425.677C235.176 423.577 236.257 423.528 241.279 425.293C243.406 426.041 246.485 426.853 248.122 427.098L251.097 427.545L251.035 426.262C250.94 424.323 251.147 424.317 258.642 426.032L265.614 427.628L280.953 427.677C289.389 427.704 297.547 427.622 299.081 427.495C300.614 427.367 304.379 427.49 307.447 427.768L313.025 428.272L326.272 425.755L345.445 425.699C359.582 425.658 365.515 425.892 368.03 426.588L371.441 427.533L376.029 425.062L379.325 426.563L380.646 425.597C381.373 425.066 383.268 424.631 384.858 424.631H387.748L391.697 421.804C395.827 418.846 396.124 418.417 394.892 417.185C394.357 416.65 394.353 415.658 394.874 413.768L395.61 411.106L393.443 408.711L394.248 407.206C395.207 405.413 395.133 392.196 394.09 378.963C393.416 370.421 393.057 360.06 392.884 344.158C392.843 340.354 392.523 335.962 392.174 334.397C391.658 332.089 391.262 311.427 391.384 293.205C391.397 291.288 391.252 288.778 391.062 287.628C390.41 283.69 390.744 274.604 391.754 268.803C391.954 267.652 391.805 264.201 391.422 261.133C391.039 258.066 390.581 254.172 390.403 252.48C390.226 250.789 389.607 248.882 389.028 248.242C387.653 246.723 387.7 245.933 389.326 243.26L390.675 241.04L390.25 236.445C390.016 233.918 389.874 216.993 389.934 198.833L390.043 165.815L388.064 162.99L388.997 161.514C390.352 159.37 390.966 155.742 390.205 154.382L389.547 153.206L388.741 155.647C387.753 158.643 385.665 160.625 382.224 161.836C379.231 162.891 379.316 162.65 380.635 166.312C382.351 171.075 382.018 172.656 378.513 176.403L375.325 179.811L376.009 181.08C376.385 181.777 377.506 183.109 378.499 184.038C380.829 186.218 380.854 189.236 378.568 192.6C377.561 194.081 377.013 195.634 377.264 196.289C377.536 196.997 376.994 198.157 375.818 199.384L373.937 201.347L376.076 204.823C378.6 208.924 378.62 209.124 376.847 212.28L375.48 214.714L376.495 216.659C377.052 217.728 377.511 219.671 377.513 220.977L377.518 223.351L374.717 226.015C370.202 230.31 365.199 230.949 368.45 226.816L369.953 224.905L365.891 224.164C363.658 223.756 359.477 222.703 356.601 221.824C353.725 220.946 348.705 219.434 345.445 218.464C342.186 217.495 338.336 216.267 336.891 215.735C335.445 215.204 333.003 214.769 331.465 214.769C329.926 214.769 327.501 214.274 326.075 213.67C319.966 211.08 305.074 207.289 296.292 206.087C294.374 205.825 291.707 205.337 290.365 205.001C289.023 204.667 286.356 204.012 284.439 203.547C282.522 203.082 280.169 202.274 279.21 201.75L277.467 200.799L303.264 201.473L310.236 203.15C314.071 204.073 319.496 205.53 322.293 206.389L327.378 207.95L332.403 207.528C335.166 207.296 337.955 207.083 338.601 207.056C339.246 207.028 340.405 207.637 341.176 208.408C342.843 210.075 347.305 211.059 348.868 210.105C349.711 209.59 363.895 209.367 367.251 209.815C367.548 209.855 368.089 210.672 368.454 211.631C369.596 214.636 373.069 212.936 373.492 209.164L373.683 207.469L366.711 206.515C362.876 205.99 358.64 205.654 357.298 205.768C345.169 206.797 327.991 205.473 320.21 202.908C316.651 201.735 310.598 200.316 306.758 199.754C302.919 199.192 298.366 198.44 296.64 198.082C294.915 197.724 288.64 196.886 282.696 196.218C272.012 195.02 267.964 193.952 273.318 193.746C274.833 193.687 276.386 193.588 276.77 193.526C284.701 192.238 290.247 191.719 294.2 191.893L299.081 192.109L298.827 195.873L301.743 196.226C303.346 196.421 308.282 196.722 312.71 196.895L320.763 197.21L331.377 200.773L337.868 200.396C341.438 200.188 344.677 199.822 345.066 199.582C345.454 199.343 349.071 198.616 353.104 197.969C357.136 197.322 359.394 196.758 358.121 196.716L355.807 196.641L356.252 193.56L359.041 192.969C364.313 191.853 368.818 193.135 366.885 195.202L366.013 196.133L367.756 195.7C368.715 195.46 370.211 195.261 371.079 195.256C372.199 195.249 373.004 194.523 373.843 192.765L375.026 190.284L374.146 189.739C373.661 189.44 363.79 188.983 352.208 188.723C340.628 188.463 328.329 188.113 324.878 187.945L318.603 187.64L322.089 188.587C324.008 189.109 329.267 189.565 333.789 189.602L342.003 189.669L342.422 190.761C342.653 191.362 342.486 192.209 342.052 192.644C340.643 194.053 341.176 194.204 346.744 193.976L352.23 193.752L352.641 194.822C353.273 196.47 349.817 196.788 339.171 196.062L329.758 195.42L317.905 191.412L317.209 189.823C316.782 188.85 315.531 187.97 313.984 187.553C310.111 186.511 271.341 186.774 264.045 187.893C261.525 188.279 260.385 188.217 260.385 187.693C260.385 186.915 262.955 186.071 269.1 184.834C274.189 183.809 307.544 182.69 311.282 183.419C316.298 184.396 327.324 184.193 330.455 183.065C334.27 181.691 338.473 181.681 338.473 183.045V184.091H355.757L360.537 182.631C363.165 181.828 365.63 180.852 366.013 180.461C366.484 179.982 366.258 179.886 365.316 180.166C362.178 181.101 351.58 182.692 350.976 182.319C350.107 181.782 350.149 180.099 351.045 179.546C351.44 179.302 355.754 178.517 360.632 177.801C373.296 175.945 377.518 174.52 377.518 172.103C377.518 170.08 374.296 169.165 370.545 170.122C367.691 170.851 362.331 172.001 355.904 173.262C354.562 173.526 351.628 174.395 349.383 175.193L345.303 176.645L348.469 178.339L347.003 179.123C344.743 180.332 339.82 180.108 338.828 178.751L337.982 177.595L330.383 178.793C312.875 181.554 298.091 182.49 297.545 180.871C297.212 179.883 303.027 177.559 310.236 175.8C327.168 171.671 344.488 167.758 349.28 166.98C351.579 166.607 353.656 166.086 361.482 163.92C364.358 163.124 367.729 162.474 368.974 162.475C373.944 162.48 383.814 156.292 382.848 153.777L382.426 152.674L377.706 153.118C375.109 153.363 371.59 154.017 369.884 154.573C366.748 155.594 360.703 157.009 352.418 158.663C349.925 159.161 346.16 160.086 344.051 160.719C329.26 165.156 311.616 169.447 308.144 169.452C303.748 169.458 275.853 175.563 272.413 177.271C270.637 178.154 269.782 177.678 270.374 176.136C270.596 175.556 273.496 174.264 276.909 173.225C282.876 171.408 292.777 167.9 295.594 166.605C296.768 166.066 307.175 163.157 315.209 161.123C316.411 160.819 318.426 160.054 319.688 159.425C322.296 158.124 339.155 153.939 346.491 152.771C351.574 151.962 376.698 146.018 379.435 144.976C380.348 144.629 381.004 143.79 381.004 142.97C381.004 142.018 381.463 141.561 382.42 141.561C384.255 141.561 384.955 143.443 383.805 145.285L382.901 146.734L385.554 149.028C388.742 151.783 389.016 151.813 390.49 149.564C391.295 148.335 391.527 146.954 391.262 144.974C390.8 141.527 390.726 141.448 387.486 140.921L384.889 140.5L387.479 137.634C390.517 134.271 390.649 133.251 388.384 130.619L386.701 128.662L381.81 128.744C376.475 128.833 372.493 130.49 372.046 132.807L371.8 134.087L376.193 133.59C378.609 133.317 381.13 132.802 381.795 132.447C383.7 131.427 387.273 131.67 387.725 132.851C389.101 136.435 383.703 138.782 370.115 140.504C365.558 141.082 359.791 142.007 357.298 142.56C354.806 143.113 347.433 144.555 340.914 145.766C334.395 146.976 326.865 148.704 324.18 149.605C321.496 150.507 316.947 151.905 314.071 152.714C307.352 154.604 300.227 157.284 292.616 160.786C288.449 162.703 287.576 162.845 287.577 161.606C287.578 160.54 299.821 154.032 310.236 149.56C314.454 147.748 319.788 145.242 322.089 143.99C324.39 142.738 328.926 140.868 332.17 139.836C335.414 138.804 338.917 137.52 339.956 136.983L341.845 136.006L346.491 137.884L352.317 137.294C356.227 136.898 358.932 136.215 360.546 135.218C363.87 133.163 363.151 132.935 357.221 134.163C351.241 135.4 351.547 135.528 352.261 132.09L352.824 129.38L354.887 128.337C356.022 127.763 358.483 126.364 360.358 125.228C362.233 124.093 366.597 121.829 370.055 120.198C373.513 118.567 377.627 116.013 379.196 114.521C383.148 110.765 385.882 108.791 387.132 108.791H388.192L386.864 110.306C385.25 112.145 386.254 111.613 391.462 107.867C399.092 102.379 401.79 98.5382 398.818 97.3976C397.237 96.7903 377.725 106.901 366.711 114.035C355.948 121.005 332.93 133.194 330.531 133.194C328.347 133.194 336.483 125.191 345.188 118.775C353.663 112.529 355.711 110.715 354.684 110.366C354.205 110.203 353.812 109.496 353.812 108.794C353.812 107.127 369.31 91.3715 370.994 91.3262C371.706 91.3074 373.543 89.7093 375.077 87.776C376.611 85.8419 378.58 83.4497 379.453 82.4597C384.282 76.9823 384.871 73.6768 380.857 74.5825L378.526 75.1082L363.903 89.5566C355.861 97.5035 348.259 104.807 347.013 105.785L344.745 107.565L342.464 105.671L336.111 112.382C329.326 119.549 324.714 123.039 322.66 122.563L321.391 122.269L324.887 118.842C331.767 112.098 334.609 107.847 341.789 93.5636L348.995 79.2267L348.789 75.7622C348.586 72.3417 347.912 71.3739 346.429 72.373ZM283.061 104.957C282.476 105.915 281.46 107.563 280.803 108.617C280.146 109.671 278.782 112.26 277.771 114.369C276.761 116.478 273.821 121.759 271.238 126.104C268.655 130.45 266.684 134.149 266.86 134.324C268.588 136.053 284.081 112.186 285.878 105.027L286.333 103.214H285.228C284.62 103.214 283.645 103.998 283.061 104.957ZM307.421 133.236C307.17 133.642 305.627 134.976 303.991 136.199C292.599 144.72 288.274 148.252 288.274 149.031C288.274 150.056 290.777 150.257 291.379 149.282C291.599 148.927 294.362 146.843 297.521 144.651C308.165 137.264 309.887 135.794 309.887 134.097C309.887 132.45 308.259 131.881 307.421 133.236ZM163.956 210.334C162.846 211.443 164.658 211.983 169.614 212.021C182.692 212.123 187.334 215.475 181.542 220.636L179.393 222.55L180.499 223.772C181.108 224.445 182.746 225.345 184.14 225.773L186.674 226.55L189.299 225.211C192.318 223.671 196.366 219.098 196.074 217.557C195.826 216.256 190.262 213.175 184.776 211.303L180.632 209.888H172.516C168.053 209.888 164.201 210.089 163.956 210.334ZM271.669 211.366C271.957 212.271 273.808 212.963 283.567 215.818C287.965 217.104 288.949 217.97 285.217 217.27L282.858 216.827L282.454 217.879C281.976 219.124 282.383 219.356 291.063 222.795C308.495 229.7 322.437 236.482 322.437 238.056C322.437 238.519 324.765 240.096 327.61 241.559C336.387 246.074 340.409 250.343 335.859 250.315C330.975 250.284 320.788 248.836 319.02 247.922C317.94 247.363 312.541 245.443 307.023 243.654C301.504 241.864 293.269 238.997 288.723 237.28C281.162 234.427 278.455 234.077 279.762 236.121C282.004 239.63 308.587 250.668 322.437 253.841C327.884 255.088 333.501 259.291 334.678 263.001C335.259 264.832 335.04 264.981 330.069 266.13L325.789 267.119L324.81 266.307C322.473 264.366 324.811 262.877 330.194 262.877H332.198V261.495C332.198 259.938 331.355 259.676 324.403 259.07C319.768 258.666 301.978 253.168 294.897 249.952C289.177 247.354 278.621 243.354 277.482 243.354C272.597 243.354 283.228 250.584 294.897 255.197C301.448 257.787 315.384 262.838 316.453 263.01C317.205 263.131 318.086 264.113 318.467 265.256L319.143 267.287L317.868 268.219C315.457 269.982 313.483 269.347 311.17 266.066L308.995 262.98L303.238 261.185C293.964 258.294 293.25 259.394 301.46 263.927C304.243 265.462 307.115 267.537 307.842 268.536L309.165 270.352L307.771 271.615C306.849 272.449 304.785 273.013 301.683 273.28L296.989 273.683V275.064C296.989 275.967 298.014 277.011 299.952 278.079L302.915 279.714V281.738C302.915 284.246 300.868 285.714 296.545 286.307L293.403 286.737L290.316 285.181C288.617 284.325 285.188 282.306 282.696 280.695C280.203 279.083 276.125 276.889 273.632 275.82C271.14 274.751 268.056 273.28 266.781 272.551C265.505 271.823 264.146 271.422 263.76 271.66C262.67 272.334 266.508 275.914 271.174 278.576C273.485 279.894 277.055 282.513 279.109 284.398C283.809 288.711 290.275 292.234 302.723 297.262C312.751 301.313 331.86 310.546 333.396 312.083C333.867 312.554 335.36 313.623 336.711 314.459C338.064 315.295 339.171 316.267 339.171 316.619C339.171 316.972 339.607 317.259 340.14 317.259C341.057 317.259 349.059 322.424 357.126 328.223C359.14 329.671 362.905 332.339 365.493 334.152C373.709 339.909 375.389 341.919 374.317 344.712C373.768 346.144 370.503 345.513 366.362 343.177C357.523 338.191 348.828 332.771 344.785 329.727C340.522 326.518 338.473 325.597 338.473 326.89C338.473 327.576 341.358 330.239 344.936 332.858C346.381 333.916 348.308 335.467 349.218 336.305C350.127 337.142 352.031 338.769 353.449 339.919C358.409 343.945 369.151 356.356 369.151 358.061V359.688L358.852 359.441L357.401 360.748C355.09 362.83 353.1 362.353 342.871 357.262C333.133 352.417 329.965 350.935 315.465 344.444C307.672 340.955 303.753 339.034 296.059 334.93C294.013 333.839 288.921 330.359 284.744 327.195C276.305 320.804 275.983 320.709 271.54 323.265L268.403 325.07L264.917 324.713C261.287 324.342 251.225 321.048 242.288 317.305C239.429 316.108 236.679 315.286 236.177 315.479C235.213 315.849 235.548 320.069 236.811 323.485L237.438 325.178L234.838 327.778L232.924 327.051C231.872 326.65 229.815 326.323 228.353 326.323C226.891 326.323 224.637 325.883 223.343 325.344C220.599 324.201 201.271 321.759 200.564 322.466C200.299 322.73 202.199 324.92 204.786 327.335C209.56 331.791 210.26 333.339 208.766 336.13C208.369 336.872 207.731 337.479 207.348 337.479C206.906 337.479 206.933 336.95 207.42 336.04L208.191 334.601L207.359 333.599C206.218 332.224 205.053 332.344 203.562 333.993C202.868 334.76 201.721 335.387 201.013 335.387C199.632 335.387 199.282 334.35 200.424 333.644C203.037 332.029 197.931 325.915 191.425 322.867L187.877 321.206L186.307 321.981C185.443 322.407 183.783 322.942 182.617 323.168C178.789 323.914 176.14 326.028 175.63 328.748C174.767 333.345 171.617 334.396 168.329 331.182C165.708 328.619 165.872 327.139 168.982 325.287C172.741 323.048 175.623 320.068 174.813 319.258C173.86 318.305 169.259 319.577 166.192 321.639L163.82 323.234L163.199 326.871C162.505 330.933 161.983 331.338 160.795 328.731C159.227 325.29 159.787 322.562 162.752 319.194L165.519 316.05L168.218 315.619C169.704 315.381 172.133 314.363 173.616 313.356L176.315 311.525L182.617 311.988C186.084 312.243 189.931 312.77 191.167 313.161C192.404 313.55 195.384 313.973 197.791 314.099C200.198 314.225 202.56 314.36 203.039 314.4C204.672 314.533 203.917 316.469 202.146 316.691C198.338 317.166 200.38 318.345 206.351 319.117C214.964 320.231 216.196 320.213 217.457 318.953C219.348 317.061 218.687 316.131 214.049 314.16C209.611 312.274 203.588 307.646 194.117 298.842C191.606 296.509 186.941 292.561 183.751 290.068C173.581 282.123 169.63 276.464 166.226 264.968C160.332 245.058 152.203 233.589 139.457 227.196C134.292 224.606 124.147 221.649 119.03 221.244L113.982 220.843L112.992 223.212C112.332 224.793 112.168 226.508 112.501 228.367C112.776 229.9 113.072 245.115 113.159 262.179C113.246 279.244 113.467 301.363 113.648 311.333C113.83 321.303 114.133 345.289 114.321 364.634C114.51 383.98 114.9 400.043 115.188 400.329C116.357 401.493 124.04 405 124.626 404.638C124.973 404.423 127.031 404.291 129.2 404.343C134.003 404.46 128.252 404.489 176.86 404.099L217.789 403.772L217.399 404.789C217.164 405.402 217.424 405.806 218.054 405.806C218.629 405.806 219.281 405.335 219.502 404.76C219.99 403.489 225.534 403.306 226.75 404.522L227.557 405.328L229.668 403.576L230.784 404.691C232.113 406.02 232.574 406.048 236.053 405.005C237.906 404.45 239.001 404.426 239.62 404.926C241.217 406.216 245.8 406.561 263.29 406.708L280.487 406.852L284.548 403.85L301.227 403.809C310.4 403.786 325.279 403.542 334.29 403.267C351.001 402.757 361.875 402.711 368.105 403.125L371.591 403.356L378.888 398.523L378.533 381.074C378.337 371.476 378.038 356.879 377.868 348.634C377.698 340.39 377.37 332.489 377.14 331.078C376.908 329.666 377.067 327.862 377.492 327.069L378.264 325.626L377.418 324.057C376.935 323.16 376.509 319.206 376.423 314.819C376.34 310.601 376.054 300.718 375.787 292.857C375.52 284.996 375.234 268.516 375.153 256.234C375.07 243.953 374.766 233.52 374.476 233.052C374.147 232.519 372.198 232.195 369.284 232.188C366.718 232.182 364.2 231.912 363.688 231.587L362.758 230.998L364.285 230.599C367.024 229.883 365.322 228.41 359.05 226.066C352.532 223.632 350.494 223.8 352.261 226.629C353.421 228.486 353.404 228.527 351.004 229.768C348.129 231.256 345.331 230.66 336.025 226.583C331.804 224.733 324.901 222.28 320.687 221.13C311.112 218.52 301.915 214.603 308.409 215.902C309.556 216.132 310.62 215.973 310.893 215.531C311.225 214.994 311.692 215.079 312.422 215.809C313.024 216.411 314.721 216.86 316.391 216.86C317.996 216.86 320.389 217.17 321.709 217.548L324.109 218.236L324.657 217.374C326.456 214.542 324.604 213.73 314.768 213.039C303.254 212.231 302.58 212.24 302.573 213.225C302.563 214.629 300.808 215.371 298.087 215.122C293.993 214.747 286.722 213.343 283.742 212.352C282.208 211.842 278.795 211.195 276.158 210.914L271.364 210.404L271.669 211.366ZM317.091 226.327C316.323 228.327 318.667 229.702 323.076 229.841C325.343 229.913 327.761 230.286 328.449 230.671L329.7 231.371L331.348 229.117L333.168 229.946C335.204 230.874 335.578 232.714 333.864 233.371L332.74 233.803L336.827 237.496C341.61 241.818 343.143 242.358 346.571 240.926C347.963 240.345 350.429 239.868 352.05 239.868C356.056 239.868 359.39 238.627 359.39 237.135V235.931L355.381 235.12C353.176 234.673 349.803 233.989 347.886 233.6C345.968 233.211 341.041 231.638 336.937 230.105C332.831 228.573 328.596 227.315 327.524 227.31C326.452 227.306 323.849 226.839 321.74 226.273C319.631 225.706 317.817 225.239 317.709 225.235C317.601 225.23 317.323 225.722 317.091 226.327ZM209.129 261.499C207.956 263.396 211.679 272.016 216.527 278.63L219.131 282.182L232.689 290.078L233.58 289.34C234.84 288.294 233.119 283.518 227.375 272.125C225.035 267.485 221.371 267.577 222.377 272.25C222.629 273.422 222.91 275.251 223.001 276.314L223.166 278.247L222.283 277.36C221.139 276.21 212.278 261.994 212.277 261.308C212.277 260.519 209.635 260.68 209.129 261.499ZM234.588 278.479C234.588 279.493 241.525 285.187 242.759 285.187C243.156 285.187 243.912 285.707 244.438 286.341L245.395 287.495L243.164 286.341C237.729 283.532 237.362 285.745 242.463 290.568C246.034 293.946 251.021 296.715 254.982 297.521L256.899 297.912V296.48C256.899 295.694 255.88 294.246 254.633 293.264C253.386 292.282 252.596 291.474 252.876 291.47C253.609 291.459 258.744 293.434 263.018 295.372C266.716 297.049 271.128 297.574 271.84 296.422C272.388 295.536 271.032 294.639 266.66 292.993C254.97 288.591 247.367 284.794 238.848 279.098C236.162 277.302 234.588 277.073 234.588 278.479Z" fill="#FBFDFD"/>
</svg>
