<svg width="500" height="500" viewBox="0 0 500 500" fill="none" xmlns="http://www.w3.org/2000/svg">
<path fill-rule="evenodd" clip-rule="evenodd" d="M373.85 81.196C356.994 98.8235 349.267 106.414 338.896 115.537L330.457 122.959L326.144 122.533C323.771 122.297 311.801 121.925 299.544 121.705C287.288 121.485 277.021 121.158 276.729 120.977C276.438 120.797 264.149 120.697 249.421 120.754C234.694 120.811 221.687 120.861 220.518 120.866C219.35 120.869 208.603 120.628 196.638 120.329L174.882 119.786L174.021 121.676C173.496 122.827 173.416 123.813 173.814 124.2C174.174 124.549 187.22 125.033 202.807 125.276C218.393 125.519 235.449 125.826 240.71 125.959C273.603 126.788 287.52 127.135 301.88 127.481C318.628 127.886 320.059 128.045 320.059 129.511C320.059 130.626 309.136 139.307 305.879 140.781C301.859 142.6 294.325 146.882 292.79 148.22C288.824 151.679 280.068 156.667 273.226 159.365C262.581 163.563 252.522 171.561 249.688 178.08C249.265 179.054 248.108 181.126 247.117 182.685C243.662 188.118 239.293 198.043 239.293 200.457C239.293 201.368 238.684 202.683 237.939 203.38C237.195 204.077 235.734 206.879 234.693 209.607C230.3 221.116 226.159 227.367 216.732 236.725C207.853 245.538 206.148 246.682 200.977 247.294C199.038 247.524 197.283 247.985 197.077 248.32C196.214 249.715 188.403 248.371 182.261 245.769C170.26 240.685 163.876 240.221 149.32 243.372C136.084 246.237 128.558 251.715 123.442 262.206L120.798 267.63L121.145 273.73C121.336 277.086 121.863 280.522 122.314 281.366L123.135 282.899L121.036 286.636C118.841 290.544 115.31 300.562 115.31 302.883C115.31 306.655 124.589 302.793 132.534 295.716L137.36 291.418L141.515 291.728C146.033 292.065 148.21 292.918 148.857 294.603C149.421 296.074 151.328 295.964 154.288 294.288C155.645 293.519 157.805 292.361 159.088 291.714C163.021 289.729 172.048 280.787 173.472 277.464C174.947 274.022 175.341 273.876 177.849 275.849C181.205 278.488 183.192 277.538 185.999 271.952C189.122 265.739 191.001 265.451 192.956 270.887C194.692 275.713 195.535 275.342 194.962 270.004C194.7 267.569 194.479 265.416 194.469 265.222C194.357 262.976 195.817 258.655 196.88 258.086C197.606 257.697 198.202 257.045 198.202 256.637C198.202 255.139 203.305 249.723 205.408 248.991L207.575 248.235L211.624 250.626L213.464 248.891C215.325 247.136 222.589 242.361 227.376 239.746C228.81 238.963 231.401 236.484 233.135 234.237C234.868 231.991 236.963 229.545 237.789 228.803C238.616 228.06 239.293 226.879 239.293 226.177C239.293 225.476 240.062 223.768 241.003 222.381C241.944 220.995 242.932 218.574 243.197 217.002L243.68 214.142L240.585 206.517L241.533 204.792C245.015 198.455 246.479 195.152 249.254 187.375L252.383 178.604L253.989 177.872C256.237 176.848 256.645 177.6 255.813 181.234C254.694 186.124 258.533 187.895 261.887 184.038L263.482 182.203L264.849 183.439C266.92 185.314 266.531 187.574 263.71 190.05C262.333 191.259 260.899 192.249 260.522 192.249C260.146 192.249 259.839 192.761 259.839 193.388C259.839 194.138 260.223 194.379 260.967 194.093C261.588 193.855 262.837 193.474 263.743 193.247L265.39 192.833L267.045 195.925L265.443 197.629C264.563 198.566 263.021 199.358 262.018 199.388C257.588 199.519 252.365 202.876 256.592 202.876C257.656 202.876 258.422 203.276 258.422 203.833C258.422 205.84 256.824 209.252 255.884 209.252C255.343 209.252 253.868 210.175 252.606 211.303L250.31 213.354L252.728 220.917L249.923 224.917C248.379 227.117 246.799 229.753 246.41 230.774C246.022 231.796 245.218 232.632 244.624 232.632C242.937 232.632 243.334 233.697 246.023 236.387C249.779 240.142 248.738 242.639 243.919 241.43C242.553 241.087 241.63 241.353 240.494 242.419C239.453 243.395 237.768 243.951 235.396 244.1L231.854 244.322L231.5 246.447C230.982 249.554 230.073 250.694 226.785 252.357C222.936 254.304 220.873 256.997 220.873 260.072C220.873 261.42 220.315 263.473 219.633 264.634L218.393 266.743L220.341 268.167C222.741 269.92 222.881 271.598 220.628 271.598C218.718 271.598 216.028 274.167 217.028 275.036C217.389 275.35 219.178 276.799 221.004 278.255C223.03 279.871 224.495 281.687 224.764 282.912C225.058 284.245 225.907 285.212 227.29 285.784C230.773 287.227 229.715 289.322 224.599 291.113L221.935 292.046L222.137 294.383C222.353 296.874 223.288 297.709 227.243 298.938C230.815 300.048 230.324 301.41 225.478 303.833L221.227 305.959L219.792 309.007C217.956 312.909 217.491 313.158 211.73 313.325C206.411 313.481 204.931 312.613 205.631 309.746L206.035 308.084L200.743 302.948C197.832 300.123 195.272 297.811 195.055 297.811C194.389 297.811 194.615 301.014 195.45 303.41C196.636 306.813 195.673 306.902 192.342 303.695C190.694 302.108 188.608 300.433 187.706 299.97L186.067 299.13L185.049 299.974C184.36 300.547 184.032 302.275 184.032 305.337V309.855H182.505C181.665 309.855 179.933 309.058 178.655 308.084C177.378 307.11 175.595 306.312 174.692 306.31C173.79 306.309 171.979 305.654 170.669 304.856L168.287 303.403L167.07 304.504C166.402 305.109 165.162 305.605 164.316 305.605C162.721 305.605 162.25 306.611 163.487 307.376C164.692 308.121 164.268 309.147 162.755 309.147C160.208 309.147 154.337 305.664 148.922 300.941L143.649 296.343V297.679C143.649 299.942 151.654 311.901 156.455 316.81C168.889 329.523 181.083 338.31 189.7 340.769C191.843 341.38 194.572 342.439 195.764 343.122C199.276 345.134 208.927 348.63 212.371 349.138C214.124 349.397 218.828 350.282 222.823 351.105L230.086 352.601L231.679 351.855C232.555 351.445 234.387 351.071 235.751 351.025C237.114 350.979 239.688 350.578 241.471 350.133L244.711 349.326L252.806 353.314C257.258 355.507 262.017 357.487 263.381 357.713C264.745 357.939 266.602 358.275 267.507 358.459L269.154 358.793L268.924 357.173C268.685 355.485 265.451 353.473 261.787 352.731C260.715 352.514 259.839 352.03 259.839 351.655C259.839 351.28 260.715 350.765 261.787 350.511C264.555 349.854 265.992 348.391 267.34 344.857C267.988 343.163 269.115 341.586 269.846 341.354C271.329 340.884 271.495 339.839 270.504 337.233C270.012 335.939 270.095 335.253 270.816 334.655L271.798 333.84L274.852 335.202C278.097 336.65 284.635 343.095 284.635 344.847C284.635 345.421 283.998 346.094 283.218 346.342C282.359 346.614 281.801 347.414 281.801 348.373C281.801 350.237 280.567 351.655 278.945 351.655C278.31 351.655 277.363 352.452 276.842 353.426C276.321 354.401 275.709 355.189 275.482 355.179C275.093 355.162 273.254 351.331 272.346 348.644C271.857 347.197 270.466 346.972 270.466 348.338C270.466 351.8 272.994 357.125 276.294 360.615C280.463 365.023 281.164 365.249 280.919 362.105L280.738 359.803L282.986 359.584C284.433 359.444 285.64 358.748 286.373 357.628L287.512 355.89L291.011 356.768V355.316C291.011 353.014 292.199 352.865 295.059 354.809L297.716 356.615H307.759L310.958 352.935L313.437 353.4C314.985 353.691 316.302 353.544 316.945 353.011L317.975 352.155L319.817 352.994C322.318 354.134 322.625 353.555 320.844 351.055C318.859 348.267 318.928 347.271 321.072 347.81L322.793 348.242L322.809 343.321C322.82 339.697 322.443 337.688 321.376 335.699C320.464 333.996 320.071 332.288 320.314 331.076C320.764 328.823 317.878 323.782 314.71 321.29C312.084 319.224 310.009 315.74 310.278 313.848L310.494 312.335L320.413 312.018L323.07 316.17C324.531 318.454 325.726 320.684 325.726 321.126C325.726 321.568 326.524 322.293 327.498 322.737C328.692 323.281 329.269 324.114 329.269 325.297C329.269 326.262 330.066 327.789 331.04 328.692C332.015 329.596 332.811 331.126 332.811 332.096C332.811 333.066 333.13 334.057 333.52 334.298C334.914 335.159 334.188 336.849 331.824 338.244C328.913 339.961 327.91 342.256 327.82 347.404C327.758 351.013 328.894 360.804 329.606 362.791C330.123 364.233 328.82 364.475 325.241 363.602C322.297 362.885 318.827 362.559 310.849 362.25C309.874 362.212 308.135 362.343 306.983 362.54C305.831 362.737 303.354 362.544 301.478 362.112L298.069 361.324L295.679 362.464C290.711 364.834 289.921 369.41 293.464 375.295C299.565 385.425 307.33 392.684 312.718 393.291L316.028 393.664L317.923 391.073L321.221 392.72C323.315 393.766 326.298 394.495 329.389 394.716L334.258 395.065L335.627 393.826C336.621 392.926 336.883 392.03 336.586 390.543L336.177 388.499L339.276 388.882C342.816 389.32 343.538 388.958 344.923 386.057C345.561 384.72 346.695 383.772 348.082 383.416C351.171 382.621 353.691 379.705 353.496 377.15L353.337 375.068L356.252 373.139C357.856 372.078 359.431 370.517 359.753 369.67C360.075 368.823 361.2 367.913 362.252 367.649C364.186 367.164 368.379 364.117 371.584 360.866L373.33 359.095L372.484 352.718L377.356 348.831L377.84 345.604C378.45 341.542 377.038 334.048 375.31 332.172L374.004 330.755L375.435 325.088C377.32 317.621 377.252 316.995 374.234 314.221L371.662 311.856L369.877 312.304C368.895 312.55 367.088 312.433 365.861 312.042C364.634 311.651 359.645 311.168 354.774 310.967C344.895 310.56 330.277 309.324 328.402 308.737C327.73 308.527 326.047 308.893 324.661 309.55L322.142 310.745L320.923 309.651C319.772 308.617 300.518 303.479 297.795 303.479C295.051 303.479 269.757 283.086 269.757 280.874C269.757 279.356 273.186 279.275 276.443 280.715C280.802 282.644 293.569 285.659 296.7 285.5L299.2 285.372L302.19 282.382C303.835 280.737 305.474 279.391 305.833 279.391C306.192 279.391 306.698 278.42 306.959 277.232C307.221 276.044 308.042 274.693 308.787 274.228C309.772 273.613 310.14 272.568 310.14 270.392V267.402L312.831 266.677C314.31 266.279 316.445 264.989 317.574 263.81L319.627 261.667L319.756 256.891C319.901 251.566 319.245 250.31 315.58 248.897C314.341 248.42 310.778 246.833 307.661 245.37C304.543 243.907 299.639 241.834 296.764 240.762C291.363 238.75 284.463 233.832 284.053 231.703C283.83 230.546 287.733 226.61 289.104 226.61C289.464 226.61 290.28 227.96 290.916 229.611C291.553 231.262 293.072 234.006 294.29 235.708L296.506 238.804L299.604 239.157C301.359 239.356 306.098 241.206 310.541 243.425C316.251 246.277 319.549 247.476 322.681 247.839L326.981 248.339L329.143 247.221C332.114 245.684 332.305 245.149 330.92 242.243L329.713 239.713L331.319 237.541C333.594 234.464 332.884 233.34 328.662 233.34C324.95 233.34 313.869 230.49 310.739 228.73C309.705 228.149 308.334 227.673 307.692 227.673C304.98 227.673 295.293 223.167 293.066 220.869L290.734 218.462H291.958C292.632 218.462 294.303 218.931 295.673 219.503C297.247 220.161 300.055 220.487 303.305 220.389L308.445 220.234L311.796 223.178C313.639 224.797 316.537 226.775 318.235 227.573L321.323 229.025L333.537 228.679L334.931 227.284C338.144 224.072 338.096 215.629 334.865 215.629C334.074 215.629 332.852 215.321 332.151 214.946C330.959 214.308 324.079 212.798 317.579 211.749C308.96 210.358 303.764 207.631 303.764 204.501C303.764 202.236 305.479 201.745 309.364 202.901C311.155 203.433 314.483 203.791 316.76 203.696C319.038 203.6 321.27 203.824 321.719 204.192C324.032 206.087 333.74 210.612 335.45 210.593C336.531 210.58 339.703 210.793 342.497 211.065L347.578 211.56L351.264 210.234C353.291 209.505 355.098 208.428 355.278 207.841C355.459 207.253 356.217 205.614 356.962 204.197C359.466 199.433 358.172 196.624 353.895 197.541C352.625 197.813 347.441 198.282 342.376 198.583L333.165 199.131L331.571 198.153C330.695 197.616 329.977 196.558 329.977 195.802V194.429L332.988 193.68C334.644 193.268 337.567 192.454 339.483 191.87C341.399 191.286 345.122 190.474 347.758 190.065L352.55 189.322L355.238 186.786C356.717 185.391 358.959 183.819 360.22 183.292C361.482 182.765 363.243 181.685 364.135 180.893C369.237 176.358 371.923 174.393 374.705 173.163C378.799 171.351 388.554 162.074 389.203 159.372C389.883 156.544 388.758 155.095 385.682 154.833L383.081 154.613L378.219 157.844C372.694 161.518 372.451 161.579 370.76 159.71C368.917 157.673 369.687 156.383 377.07 149.126C383.76 142.552 392.818 130.262 396.828 122.321L398.689 118.635L398.003 116.83C397.104 114.467 395.876 114.552 393.386 117.151C391.3 119.328 388.123 119.959 386.005 118.619L384.999 117.983L389.318 113.27C394.027 108.131 399.288 98.504 399.906 93.8933C400.625 88.5386 397.072 86.1943 393.852 89.8982C391.756 92.3084 388.929 93.3605 387.573 92.2347C387.005 91.7622 385.218 91.454 383.604 91.5489L380.669 91.7225L383.555 89.0275C386.901 85.9031 389.701 80.6618 390.825 75.4184L391.614 71.7387L390.533 69.6479C388.702 66.1056 387.452 66.9706 373.85 81.196ZM160.275 118.016C159.219 119.271 157.856 121.344 157.247 122.621C155.654 125.961 154.347 125.542 151.772 120.868C151.107 119.661 132.883 118.455 130.061 119.432C128.855 119.849 127.68 119.83 126.838 119.379C123.953 117.835 107.814 118.48 105.215 120.243C103.338 121.516 102.541 124.412 103.844 125.218C104.399 125.561 104.241 132.951 103.499 141.32C103.305 143.507 103.465 146.453 103.856 147.866C104.348 149.649 104.326 151.071 103.782 152.51L102.999 154.585L104.328 157.53C105.202 159.469 105.403 160.638 104.918 160.953C104.512 161.216 104.014 162.933 103.813 164.769L103.446 168.108L106.406 170.073L104.836 170.913C103.185 171.797 102.6 175.459 103.975 176.308C104.913 176.888 104.884 179.997 103.936 180.583C103.44 180.89 103.558 181.608 104.291 182.725C105.68 184.846 105.677 185.801 104.272 187.352C103.468 188.241 103.344 188.954 103.83 189.888C104.389 190.963 104.09 195.998 103.289 198.98C103.184 199.369 103.173 200.007 103.263 200.396C103.406 201.009 103.888 219.818 103.943 226.964C104.027 237.754 103.745 243.746 103.116 244.503C102.395 245.372 102.299 255.833 102.95 262.768C103.13 264.689 102.818 267.415 102.216 269.188C101.229 272.096 101.365 274.432 102.521 274.432C102.807 274.432 102.792 275.946 102.488 277.797C101.626 283.031 101.744 289.63 102.717 290.603L103.585 291.471L102.717 292.86C102.184 293.713 101.849 296.956 101.849 301.257V308.265L102.912 309.147C104.276 310.279 104.27 312.661 102.899 314.619L101.822 316.156L101.55 337.271C101.225 362.645 100.567 397.697 100.099 414.709C99.9118 421.528 99.9981 427.489 100.291 427.957L100.826 428.806L152.524 428.943C180.959 429.018 204.95 429.349 205.838 429.678C206.756 430.018 209.735 429.958 212.751 429.539C215.665 429.134 218.446 429.057 218.93 429.369C219.414 429.681 243.561 430.002 272.591 430.084C301.621 430.166 327.285 430.378 329.623 430.556C331.961 430.734 341.207 430.955 350.169 431.046C359.131 431.138 367.234 431.497 368.176 431.844C370.537 432.715 371.033 431.655 371.06 425.691C371.071 422.963 371.264 410.724 371.489 398.493C371.938 374.075 371.757 371.492 369.602 371.492C367.12 371.492 366.746 374.564 366.473 397.151L366.209 418.96H369.106L367.962 420.706C367.333 421.666 366.818 423.26 366.818 424.249V426.045L362.744 426.181C360.503 426.256 357.874 426.3 356.899 426.279C355.925 426.257 346.361 426.015 335.645 425.741C324.93 425.467 315.843 425.246 315.454 425.251C313.399 425.278 309.63 425.29 301.638 425.296C296.768 425.3 289.913 425.319 286.406 425.339C280.306 425.374 236.925 424.674 233.979 424.494C233.2 424.446 230.809 424.466 228.666 424.539C226.523 424.612 219.349 424.508 212.725 424.308C197.97 423.863 153.566 423.261 127.709 423.155L108.58 423.077L105.249 420.959L105.704 418.72C106.286 415.849 106.274 415.382 105.445 409.144C105.061 406.254 105.008 402.574 105.324 400.878C105.639 399.197 105.902 386.166 105.91 371.919L105.925 346.016L103.943 344.371L106.232 340.877L106.174 309.602C106.142 292.401 106.135 277.691 106.159 276.911C106.182 276.132 106.317 266.297 106.458 255.055C106.599 243.814 106.84 234.49 106.994 234.336C107.147 234.182 107.122 228.237 106.936 221.123C106.751 214.01 106.657 207.473 106.728 206.596C106.873 204.798 106.95 199.793 106.851 198.448C106.816 197.961 106.989 190.07 107.237 180.913C107.728 162.725 107.752 158.73 107.485 138.901C107.363 129.857 107.558 125.329 108.092 124.795C108.996 123.891 126.135 123.718 130.377 124.57C131.906 124.878 134.36 124.776 136.12 124.332L139.194 123.558L142.237 124.439C147.307 125.907 147.412 127.357 142.941 134.154C141.787 135.908 140.553 137.99 140.197 138.781C139.247 140.897 136.242 147.043 135.358 148.678C131.247 156.281 128.134 163.695 125.182 172.913C124.407 175.332 123.463 177.503 123.084 177.737C122.705 177.971 122.395 178.849 122.395 179.687C122.395 180.526 121.609 183.616 120.648 186.553C115.752 201.524 116.008 219.408 121.262 229.342C123.954 234.435 130.385 242.348 132.681 243.394L134.375 244.166L136.533 243.272C137.719 242.781 138.689 242.019 138.687 241.579C138.679 238.997 132.723 232.976 128.417 231.197C127.638 230.875 125.697 229.392 124.103 227.902L121.206 225.193L120.246 216.944L121.723 214.869C123.726 212.056 125.489 212.236 127.406 215.452C133.489 225.655 142.202 237.653 144.734 239.312L146.486 240.46L148.608 239.363C149.775 238.76 153.306 237.902 156.457 237.456L162.185 236.645L166.909 237.531C169.508 238.018 173.547 239.012 175.885 239.74C183.865 242.226 198.928 243.533 199.98 241.83C200.391 241.166 192.461 235.466 191.125 235.466C190.515 235.466 189.327 234.984 188.486 234.395L186.957 233.324L187.771 228.31L185.754 226.205C184.487 224.882 182.717 223.937 180.991 223.661C177.918 223.17 177.167 222.116 178.335 219.935C180.056 216.719 176.142 214.224 169.361 214.216L166.38 214.212L162.774 208.059L163.547 205.842C164.113 204.215 164.099 202.962 163.493 201.123C163.015 199.676 162.885 197.65 163.185 196.321C163.469 195.055 163.685 191.315 163.663 188.007C163.637 184.048 163.977 181.311 164.659 179.992C166.143 177.123 165.664 173.533 163.761 173.261C162.937 173.144 161.899 172.246 161.452 171.267C160.905 170.067 160.239 169.602 159.407 169.841C158.728 170.037 156.456 170.296 154.356 170.419L150.54 170.641L149.08 168.335L152.047 163.638C153.986 160.567 155.161 157.777 155.441 155.581C155.697 153.57 157.544 148.883 160.039 143.909C163.784 136.444 165.792 130.302 166.819 123.173C167.241 120.242 165.254 115.734 163.539 115.734C162.801 115.734 161.331 116.761 160.275 118.016ZM351.586 136.346C349.637 137.136 346.449 138.536 344.501 139.457C342.553 140.376 339.926 141.338 338.664 141.593C337.402 141.848 336.188 142.351 335.965 142.711C335.744 143.07 334.845 143.364 333.967 143.364C333.091 143.364 331.808 143.778 331.117 144.283L329.859 145.203L330.828 150.368L334.978 151.28L338.322 149.169C340.162 148.008 342.464 146.824 343.438 146.537C346.503 145.634 351.531 142.869 352.935 141.316C353.678 140.494 354.696 139.822 355.198 139.822C355.7 139.822 356.978 139.077 358.036 138.167C361.834 134.9 357.892 133.787 351.586 136.346ZM352.294 154.106C349.956 155.328 344.855 157.477 340.959 158.881L333.874 161.435L333.647 163.03C333.33 165.255 334.907 165.635 339.327 164.398C341.393 163.82 344.247 163.146 345.669 162.902C347.091 162.657 349.003 161.87 349.92 161.155C350.836 160.439 353.01 159.131 354.752 158.246C356.493 157.362 358.805 155.982 359.888 155.182C364.996 151.406 359.067 150.566 352.294 154.106ZM344.501 172.072C342.553 172.579 339.205 173.586 337.062 174.31L333.165 175.626L333.248 178.294C333.356 181.766 333.847 182.153 336.308 180.699C337.427 180.038 338.943 179.497 339.676 179.497C341.662 179.497 350.86 176.36 353.016 174.948L354.893 173.718L353.661 172.357C352.245 170.791 349.729 170.713 344.501 172.072ZM369.713 189.513C368.136 191.206 367.825 192.621 368.887 193.277C369.412 193.601 369.495 206.064 368.972 206.064C368.892 206.064 368.737 209.252 368.629 213.149C368.52 217.046 368.181 229.16 367.874 240.071C367.567 250.981 367.354 261.024 367.4 262.388C367.55 266.825 367.463 281.636 367.226 292.144L366.994 302.416L368.714 304.719C370.71 307.393 372.447 307.712 372.574 305.427C372.859 300.278 373.101 287.604 373.17 274.214C373.179 272.341 373.532 270.164 373.954 269.377L374.72 267.944L372.662 262.742L372.938 251.761C373.091 245.721 373.322 237.301 373.453 233.051C373.584 228.799 373.472 221.148 373.204 216.047C372.936 210.946 372.977 206.054 373.293 205.176C373.631 204.24 373.553 202.884 373.105 201.901C372.547 200.674 372.564 199.803 373.171 198.67C373.776 197.538 373.79 196.864 373.222 196.18C372.762 195.625 372.625 194.108 372.887 192.471C373.21 190.448 373.041 189.462 372.26 188.814L371.191 187.926L369.713 189.513ZM159.59 251.908C158.421 252.314 156.65 253.403 155.654 254.329C154.659 255.254 153.136 256.012 152.269 256.012C146.072 256.012 137.273 264.412 137.273 270.329C137.273 272.058 133.104 277.974 131.886 277.974C131.393 277.974 130.166 277.661 129.159 277.278L127.329 276.583L125.925 277.987C121.821 282.09 127.464 284.257 134.079 281.118L136.624 279.91L137.48 281.008C137.95 281.611 139.77 282.282 141.524 282.497C143.277 282.712 146.064 283.091 147.716 283.339L150.72 283.789L152.782 282.476C153.916 281.753 156.629 279.497 158.811 277.463L162.778 273.764V271.759C162.778 269.243 163.936 268.056 166.393 268.056H168.307L169.046 265.937C169.728 263.98 171.688 262.646 175.724 261.393C179.073 260.353 177.51 256.72 173.715 256.72C172.421 256.72 171.156 256.385 170.903 255.975C170.649 255.565 169.594 255.295 168.558 255.373C164.439 255.687 163.588 255.366 163.356 253.409C163.092 251.175 162.445 250.917 159.59 251.908ZM145.923 264.914C144.234 266.097 141.524 270.837 141.524 272.607C141.524 275.623 147.867 275.56 151.493 272.509C156.602 268.21 151.382 261.091 145.923 264.914ZM130.531 285.001C124.878 289.289 117.529 299.558 119.036 301.065C121.172 303.201 135.148 287.805 135.148 283.316C135.148 281.749 134.515 281.98 130.531 285.001ZM278.695 308.306C278.197 309.111 280.547 312.676 286.063 319.486C288.302 322.25 290.538 325.279 291.033 326.216C291.526 327.154 292.729 328.878 293.706 330.047L295.48 332.172L293.954 332.399C293.115 332.523 292.428 333.051 292.428 333.571C292.428 334.266 291.675 334.416 289.594 334.137C286.28 333.693 286.149 334.071 288.532 337.195C289.506 338.472 290.303 339.832 290.303 340.218C290.303 342.361 297.84 348.113 300.648 348.113C301.249 348.113 299.998 344.173 298.349 340.874C296.389 336.952 296.319 336.224 297.75 334.642L298.822 333.458L297.042 330.835C294.909 327.691 294.787 326.569 296.632 327.051L298.001 327.41L297.34 325.669C296.345 323.052 293.189 319.177 291.657 318.691C290.074 318.189 289.837 316.94 291.324 316.94C296.129 316.94 291.288 311.69 284.533 309.575C282.836 309.044 280.921 308.39 280.279 308.121C279.636 307.853 278.923 307.936 278.695 308.306Z" fill="#FBFDFD"/>
</svg>
