<svg width="500" height="500" viewBox="0 0 500 500" fill="none" xmlns="http://www.w3.org/2000/svg">
<path fill-rule="evenodd" clip-rule="evenodd" d="M386.656 106.045C386.562 106.137 382.254 106.397 377.084 106.622C371.913 106.848 363.296 107.233 357.934 107.478C352.572 107.724 346.696 107.866 344.877 107.793C341.489 107.656 340.775 108.292 342.607 109.813C343.177 110.286 343.472 110.951 343.262 111.29C342.504 112.517 340.264 111.868 338.928 110.034L337.563 108.16L320.707 108.288C303.172 108.421 301.938 108.562 303.353 110.267L304.2 111.288L301.24 114.248L299.599 113.5C298.462 112.982 297.564 112.973 296.672 113.472C295.767 113.979 295.005 113.954 294.101 113.389L292.815 112.587L286.726 114.12L282.115 111.735L283.425 110.777C285.102 109.551 286.485 109.569 289.569 110.857C291.14 111.513 292.211 111.641 292.481 111.205C292.715 110.826 293.75 110.51 294.781 110.505C296.807 110.493 298.919 109.486 297.948 108.994C297.62 108.828 294.688 108.772 291.432 108.871C288.177 108.969 282.693 109.099 279.246 109.158C271.211 109.297 271.058 109.347 268.792 112.617L266.883 115.371L267.775 117.523C268.757 119.895 271.463 122.03 272.597 121.33C273.775 120.601 281.749 120.328 313.019 119.943C329.297 119.743 347.941 119.378 354.452 119.134C368.136 118.619 385.503 118.702 386.085 119.284C386.305 119.504 386.53 135.459 386.585 154.74C386.641 174.021 386.887 190.121 387.132 190.518C387.396 190.944 388.209 191.016 389.12 190.695C390.853 190.084 393.1 190.404 393.1 191.262C393.1 192.056 390.011 192.78 389.759 192.045C389.645 191.712 388.94 191.6 388.192 191.796L386.833 192.151L386.786 197.815C386.759 200.93 386.609 204.464 386.452 205.668C386.277 206.999 386.544 208.172 387.133 208.661C388.466 209.768 389.332 208.294 388.171 206.895L387.301 205.846L388.405 204.741C389.032 204.114 390.012 203.829 390.67 204.081L391.829 204.526L391.338 207.484C391.067 209.11 390.586 210.541 390.267 210.663C389.949 210.784 388.919 211.488 387.979 212.227L386.271 213.571L386.535 217.229C386.679 219.241 386.945 237.182 387.126 257.098C387.308 277.013 387.631 300.045 387.844 308.28C388.844 346.753 389.496 366.539 390.019 374.249C390.268 377.906 390.076 379.837 389.323 381.295L388.284 383.302L384.947 383.621C383.111 383.797 380.091 383.76 378.235 383.539L374.859 383.137L373.989 380.597C373.037 377.82 373.374 376.762 376.169 373.747C377.055 372.792 378.226 371.067 378.771 369.914L379.762 367.818L378.704 363.988C375.184 351.237 374.242 345.297 374.064 334.736C373.97 329.181 373.617 324.167 373.278 323.594C371.818 321.128 364.072 311.309 362.723 310.214C361.91 309.554 360.715 307.897 360.067 306.533L358.89 304.053L359.706 300.073C360.154 297.884 361.269 294.5 362.183 292.552C364.563 287.482 365.74 280.026 365.928 268.823C365.936 268.378 367.201 267.801 368.741 267.541C370.804 267.192 372.018 266.439 373.365 264.673L375.192 262.278L373.606 259.195C371.448 254.999 365.06 249.638 356.715 245.019C340.788 236.204 337.582 234.86 329.893 233.784L324.831 233.075L314.225 234.877C305.056 236.435 295.941 238.726 291.084 240.696C287.724 242.058 281.462 243.024 274.193 243.303L266.354 243.603L262.007 241.398C259.615 240.184 254.996 237.438 251.74 235.295C248.485 233.153 244.881 231.062 243.732 230.649C242.583 230.236 241.006 229.541 240.228 229.106C238.354 228.055 230.827 227.805 221.74 228.49L214.37 229.046L207.214 223.226C203.278 220.024 199.583 217.029 199.002 216.568C197.122 215.078 198.501 213.576 201.755 213.569C205.846 213.559 211.327 210.856 213.938 207.56L216.093 204.838L215.722 202.898C215.518 201.829 214.6 200.465 213.682 199.863L212.014 198.77L205.791 198.896C202.369 198.965 199.007 199.126 198.322 199.254C190.231 200.763 186.283 200.321 186.283 197.907C186.283 196.339 201.454 192.142 212.679 190.605C221.227 189.434 236.66 185.07 237.837 183.49C238.042 183.215 239.354 182.512 240.752 181.928C242.151 181.343 244.42 180.102 245.796 179.168C247.172 178.234 249.777 176.766 251.586 175.906C253.394 175.045 255.856 173.533 257.055 172.546C260.497 169.713 263.715 167.289 264.37 167.036C264.701 166.908 264.971 166.41 264.971 165.928C264.971 165.447 266.017 164.298 267.296 163.375C270.257 161.238 277.505 153.103 277.505 151.917C277.505 150.801 272.81 147.829 270.994 147.795C268.485 147.749 268.141 145.853 270.115 142.944C272.354 139.646 272.356 139.424 270.179 137.247C267.665 134.733 266.506 135.258 260.778 141.503C257.967 144.567 254.947 147.534 254.066 148.097L252.464 149.12L250.844 147.501L251.682 143.805C252.143 141.773 252.857 138.314 253.269 136.117L254.018 132.124L253.142 131.069C252.241 129.984 250.364 129.747 247.903 130.409C247.075 130.631 245.981 132.049 245.223 133.881L243.942 136.977H240.709L240.254 134.904C240.004 133.765 239.98 132.54 240.201 132.182C241.247 130.489 239.7 129.317 236.42 129.317C232.934 129.317 232.262 129.911 232.223 133.03C232.213 133.86 231.329 135.595 230.259 136.885L228.313 139.231L223.871 136.933L224.291 135.257C224.851 133.025 222.651 129.313 220.776 129.327C217.928 129.349 217.702 130.055 217.763 138.732C217.795 143.32 217.663 147.857 217.469 148.815C215.487 158.58 211.031 168.313 208.541 168.313C206.549 168.313 206.443 167.593 207.3 159.866C208.274 151.088 207.777 147.667 205.366 146.568L203.633 145.779L200.594 148.818L200.448 155.954C200.236 166.368 199.196 174.394 197.683 177.293C197.163 178.291 196.735 179.473 196.732 179.922C196.727 181.051 191.417 185.495 189.552 185.932C182.667 187.547 176.602 191.576 176.557 194.567C176.52 197.08 174.997 199.687 172.951 200.745C168.743 202.921 166.276 201.18 168.422 197.548C170.202 194.535 169.841 193.273 166.07 189.319C164.145 187.301 162.718 185.409 162.899 185.116C163.08 184.823 162.776 183.269 162.222 181.662L161.215 178.74L162.757 175.442C165.715 169.113 172.219 161.078 177.265 157.519C181.276 154.69 185.397 150.51 185.977 148.682C186.832 145.988 182.562 144.148 180.691 146.404C180.202 146.993 178.589 148.435 177.107 149.609L174.412 151.744L172.325 150.011L173.523 148.194C174.182 147.195 175.46 145.063 176.363 143.456L178.003 140.535L176.572 139.104C174.686 137.218 172.492 137.278 171.642 139.24C171.268 140.102 169.588 143.314 167.908 146.377L164.854 151.948L161.214 152.389L161.231 151.124C161.262 148.807 164.586 136.858 165.448 135.967C167.093 134.268 165.62 130.709 163.272 130.709C160.964 130.709 158.756 135.634 154.608 150.033C154.116 151.742 152.068 152.129 150.924 150.73C150.534 150.251 149.989 147.134 149.715 143.802L149.218 137.745L147.932 136.582C144.48 133.458 141.536 137.266 142.525 143.573C142.879 145.832 143.077 149.581 142.965 151.903L142.761 156.126H139.996L138.852 151.948C136.446 143.171 133.41 139.633 130.523 142.246C128.553 144.029 128.521 143.871 132.858 153.468C134.667 157.47 131.364 158.39 128.939 154.56C126.74 151.086 123.072 148.111 121.623 148.625C117.403 150.122 117.828 151.92 124.042 158.847C126.959 162.1 129.8 165.636 130.355 166.707C131.899 169.683 134.766 173.311 137.401 175.624C138.71 176.773 141.116 178.967 142.749 180.499C148.222 185.636 151.101 187.794 153.554 188.598C155.843 189.347 159.216 191.372 160.925 193.019C161.34 193.42 161.891 195.066 162.149 196.678L162.617 199.609L160.945 200.706C160.025 201.308 158.064 201.989 156.588 202.217C153.58 202.684 147.667 205.416 145.546 207.319C143.804 208.882 140.151 211.078 136.396 212.819C134.811 213.555 133.304 214.496 133.048 214.91C132.791 215.325 132.019 215.665 131.332 215.665C130.644 215.665 129.236 216.448 128.204 217.405C127.17 218.363 126.091 219.146 125.804 219.146C124.627 219.146 123.485 224.234 123.952 227.395C125.125 235.338 131.478 238.949 139.531 236.25C146.81 233.811 162.156 236.043 163.578 239.747C163.812 240.357 164.18 244.667 164.396 249.325C164.899 260.174 167.213 268.938 170.441 272.222C171.111 272.904 171.66 273.832 171.66 274.284C171.66 274.735 173.694 277.061 176.181 279.452L180.702 283.799L181.13 288.553C181.888 296.977 187.019 305.603 194.826 311.575L195.948 312.434L195.545 315.057C195.324 316.5 194.806 318.105 194.396 318.625C193.985 319.145 193.324 320.131 192.926 320.818C189.222 327.209 187.949 329.169 187.502 329.169C187.214 329.17 186.979 329.467 186.979 329.832C186.979 330.195 186.085 331.841 184.992 333.487C182.319 337.516 182.038 338.727 181.712 347.623C181.269 359.702 180.551 363.326 176.36 374.609C175.252 377.591 172.784 380.69 171.49 380.722C171.009 380.734 168.735 380.865 166.437 381.013C142.682 382.543 117.81 382.833 116.568 381.594C115.658 380.685 115.542 376.837 115.006 329.518C114.841 314.965 114.504 297.886 114.256 291.567C114.008 285.248 113.678 273.183 113.521 264.757C113.364 256.332 113.08 243.954 112.889 237.251C112.699 230.549 112.546 219.895 112.551 213.576C112.555 207.256 112.539 201.302 112.516 200.345C112.114 184.141 111.882 178.635 111.592 178.344C111.398 178.151 111.523 176.735 111.869 175.197C112.214 173.66 112.289 172.067 112.036 171.656C111.261 170.403 111.344 122.999 112.121 122.355C112.504 122.037 122.375 121.704 134.057 121.613C160.162 121.411 164.932 120.572 163.479 116.434C163.209 115.668 163.037 114.022 163.097 112.776C163.252 109.507 162.19 109.235 150.421 109.538C144.676 109.686 130.981 109.794 119.988 109.779L100 109.75L100.319 118.077L102.217 119.569C104.315 121.22 104.768 122.754 102.95 122.056C101.788 121.61 100.662 122.666 100.642 124.222C100.637 124.676 101.493 125.146 102.547 125.267L104.461 125.487L104.682 127.402C104.934 129.595 103.698 129.96 102.322 128.098C101.669 127.214 101.209 127.088 100.649 127.64C100.084 128.196 100.165 128.641 100.95 129.292C101.541 129.783 102.024 130.586 102.024 131.078C102.024 131.66 102.57 131.831 103.591 131.568L105.158 131.164L104.177 132.359C103.498 133.188 102.976 133.332 102.471 132.828C101.038 131.394 100.565 132.16 100.771 135.584C100.993 139.282 101.518 139.74 103.492 137.953C106.116 135.578 107.334 139.678 104.81 142.387C103.084 144.239 103.084 144.387 104.81 144.839C106.478 145.274 106.687 147.422 105.06 147.422C104.432 147.422 103.518 146.874 103.028 146.205C102.539 145.535 101.882 145.243 101.57 145.556C101.256 145.868 101.699 146.652 102.552 147.295C105.902 149.824 107.502 155.08 105.362 156.529C105.035 156.75 105.241 157.844 105.82 158.959L106.872 160.987L105.175 162.561C104.241 163.426 102.838 164.134 102.055 164.134C100.302 164.134 100.302 164.239 102.024 167.616C103.676 170.854 103.825 173.187 102.38 173.187C101.761 173.187 101.355 173.818 101.372 174.754C101.387 175.616 101.305 177.611 101.189 179.189L100.98 182.056L105.854 179.408L107.769 181.668C109.955 184.247 110.278 186.974 108.466 187.535C107.795 187.742 106.668 188.224 105.961 188.605L104.676 189.299L103.346 188.095C101.493 186.417 100.775 187.498 102.15 189.894L103.294 191.887L102.311 192.264C101.77 192.471 101.328 193.443 101.328 194.422V196.202L103.417 195.122C104.606 194.507 105.506 194.349 105.506 194.756C105.506 195.149 105.193 195.47 104.81 195.47C103.247 195.47 104.266 196.997 106.432 197.903C109.181 199.052 110.689 200.675 110.016 201.763C109.419 202.73 106.137 202.028 105.127 200.719C104.728 200.2 103.799 199.669 103.064 199.538C101.228 199.212 100.87 201.469 102.476 203.245L103.746 204.649L102.538 205.533C100.861 206.759 101.025 207.308 103.069 207.308C105.236 207.308 105.51 209.778 103.417 210.442L102.024 210.884L101.942 217.278C101.896 220.795 101.914 223.959 101.98 224.308C102.116 225.031 102.476 248.219 103.064 294.352C103.286 311.779 103.593 333.87 103.746 343.445C103.898 353.02 104.065 367.631 104.117 375.915L104.211 390.975L106.365 394.05L114.118 393.632C123.118 393.147 149.401 392.448 166.351 392.244L178.104 392.102L179.046 390.813C179.564 390.105 180.517 388.088 181.164 386.332C182.957 381.465 185.58 379.12 186.49 381.571C186.674 382.068 187.128 381.653 187.545 380.604C187.949 379.594 189.602 378.027 191.221 377.122C195.464 374.751 195.778 373.964 194.787 368.189C192.997 357.748 193.952 350.52 197.919 344.49C200.859 340.02 209.097 331.259 210.359 331.259C211.639 331.259 219.012 348.618 219.012 351.632C219.012 352.146 219.288 352.865 219.626 353.229C220.202 353.848 220.833 356.007 223.488 366.425C225.584 374.653 225.975 376.572 225.975 378.621V380.7L223.712 380.742C222.467 380.766 215.098 380.793 207.337 380.803L193.224 380.822L192.191 381.855C191.488 382.558 191.157 384.344 191.157 387.435V391.982L212.918 391.519C228.215 391.194 234.928 390.811 235.517 390.23C236.323 389.437 238.51 382.089 238.51 380.177C238.51 379.667 239.169 378.558 239.975 377.711C242.818 374.729 243.525 373.178 243.042 370.98C242.786 369.815 242.36 368.862 242.094 368.862C241.623 368.862 240.938 367.607 237.91 361.202C237.094 359.477 235.975 354.783 235.42 350.757C234.525 344.266 232.629 338.233 230.088 333.79C229.679 333.075 228.997 329.733 228.571 326.362L227.798 320.234L228.662 319.192C231.217 316.114 243.785 316.171 253.481 319.304C262.328 322.163 282.448 321.952 290.736 318.914C291.31 318.704 292.25 318.455 292.825 318.363C293.399 318.269 295.127 317.726 296.664 317.156C298.201 316.585 300.708 315.914 302.235 315.664L305.011 315.21L313.019 323.079C323.172 333.054 323.564 333.659 323.428 339.122C323.266 345.615 318.589 358.441 314.943 362.395C313.39 364.078 312.918 364.826 310.046 370.163C308.985 372.134 306.609 375.17 304.765 376.909L301.414 380.072L249.516 380.31L248.627 381.578C247.639 382.988 247.982 388.827 249.138 390.283L249.835 391.162L271.852 390.735C312.31 389.949 309.973 390.365 313.072 383.405C314.439 380.335 315.128 379.752 319.432 378.03C320.554 377.581 321.933 376.063 322.835 374.287C323.668 372.643 325.052 370.462 325.907 369.437C326.763 368.414 328.652 365.437 330.104 362.822C331.557 360.208 332.929 357.912 333.155 357.721C333.38 357.529 334.033 356.432 334.606 355.283C335.179 354.134 335.807 353.038 336 352.846C336.193 352.655 337.167 351.244 338.165 349.712C346.643 336.696 347.406 333.164 342.784 328.34C337.8 323.138 336.96 319.334 341.021 320.353C343.386 320.947 355.711 333.836 357.809 337.909C358.83 339.892 360.056 344.166 360.693 347.972C361.302 351.61 362.148 356.197 362.571 358.164C362.994 360.131 363.153 362.795 362.921 364.083C362.69 365.371 362.451 369.324 362.389 372.866C362.318 376.991 361.997 379.356 361.499 379.442C361.07 379.516 355.079 379.632 348.185 379.7C341.291 379.768 333.152 380.005 330.097 380.225L324.544 380.627L323.625 381.883C322.447 383.49 323.155 388.368 324.747 389.611L325.902 390.513L352.363 390.212C366.917 390.047 383.192 390.194 388.529 390.538C394.864 390.947 398.474 390.925 398.924 390.474C399.361 390.038 399.55 381.126 399.439 366.266C399.128 324.784 399.091 311.476 399.278 308.628C399.379 307.096 399.304 292.368 399.112 275.899C398.92 259.43 398.754 238.749 398.743 229.94C398.733 221.131 398.674 198.882 398.614 180.499C398.554 162.115 398.532 145.82 398.564 144.288C398.597 142.756 398.625 140.307 398.627 138.846C398.629 137.385 398.939 135.074 399.315 133.709L400 131.23L396.975 128.78L397.728 127.83C398.142 127.307 398.678 122.785 398.92 117.781L399.359 108.682L397.453 106.075L392.141 105.976C389.219 105.921 386.751 105.953 386.656 106.045ZM239.459 108.976C235.646 109.567 235.028 109.898 235.028 111.35C235.028 112.177 234.65 113.897 234.189 115.173L233.35 117.493L234.363 118.442C235.315 119.334 249.502 120.978 256.139 120.965L258.798 120.961L257.913 118.175H260.05C262.433 118.175 262.918 117.109 260.834 116.447C259.956 116.168 259.408 115.264 259.268 113.859C259.056 111.744 258.765 111.461 255.222 109.919C253.588 109.208 242.31 108.533 239.459 108.976ZM179.668 109.634C175.979 110.002 175.606 110.489 175.338 115.288C175.051 120.429 175.347 120.658 182.975 121.218C188.982 121.659 190.102 121.293 188.024 119.568C186.335 118.166 187.156 114.693 189.176 114.693C189.696 114.693 190.873 119.433 190.602 120.438C190.446 121.017 191.279 121.066 201.055 121.048C204.775 121.042 208.487 120.679 209.303 120.243L210.786 119.449L209.154 117.613C208.256 116.604 207.052 115.398 206.477 114.934L205.433 114.091L206.303 113.208C206.782 112.723 207.174 111.762 207.174 111.072C207.174 109.66 207.341 109.683 195.336 109.455L187.328 109.303L185.09 111.246L184.208 110.184C183.724 109.6 183.131 109.175 182.89 109.24C182.649 109.304 181.2 109.482 179.668 109.634ZM177.673 165.253C174.191 168.119 171.66 171.53 171.66 173.356C171.66 173.715 171.057 174.529 170.321 175.165C169.585 175.8 168.778 177.629 168.528 179.228L168.073 182.134L169.518 182.908C170.313 183.334 170.973 184.375 170.986 185.223L171.008 186.766L172.003 185.45C172.551 184.728 173.716 183.78 174.593 183.345C175.617 182.838 176.261 181.815 176.396 180.483C176.656 177.92 178.245 174.368 179.655 173.197C180.236 172.715 180.712 172.069 180.712 171.762C180.712 171.456 181.652 170.265 182.801 169.116C185.223 166.694 185.557 163.843 183.543 162.766C181.72 161.791 182.044 161.653 177.673 165.253ZM321.672 240.12C321.398 240.564 322.207 241.689 323.546 242.726C332.037 249.302 340.233 258.406 341.186 262.32C341.233 262.512 341.62 263.295 342.047 264.061C342.475 264.827 343.214 267.432 343.689 269.851C344.68 274.891 346.92 278.685 348.906 278.685H350.268L351.535 272.675L349.941 267.589C347.776 260.689 342.44 252.957 336.507 248.126C333.915 246.014 331.296 243.79 330.69 243.184C327.921 240.414 322.606 238.609 321.672 240.12Z" fill="#FBFDFD"/>
</svg>
