<svg width="300" height="293" viewBox="0 0 300 293" fill="none" xmlns="http://www.w3.org/2000/svg">
<path fill-rule="evenodd" clip-rule="evenodd" d="M74.7252 1.92366C70.4404 4.68288 66.3801 5.42723 60.7448 4.48631L58.2029 4.06224L56.6972 5.08704C54.829 6.35841 55.0615 6.36561 49.8324 4.87268C47.446 4.19103 44.4186 3.53988 43.1053 3.4255L40.7172 3.21706L38.1487 4.89556L35.5801 6.57362L33.8812 5.70726C31.6321 4.56003 30.7933 4.60747 32.2807 5.79835C33.4216 6.71089 33.5597 8.22966 32.5019 8.22966C32.2799 8.22966 32.2303 8.44276 32.3913 8.7033C32.5773 9.00451 33.372 9.08246 34.5752 8.91766C35.9448 8.72999 126.808 8.58722 147.804 8.73973C148.853 8.74736 158.385 8.74778 168.987 8.74101C179.589 8.73423 211.283 8.75923 239.418 8.79693L290.573 8.86514L290.624 10.5597C290.651 11.4918 290.631 12.445 290.578 12.678C289.979 15.3101 290.581 51.8654 291.222 51.8654C291.492 51.8654 292.076 52.2662 292.52 52.7563L293.326 53.6473L291.697 55.0152L290.067 56.3832L290.354 58.9963C290.561 60.876 290.501 61.6093 290.144 61.6093C289.791 61.6093 289.73 62.252 289.932 63.8335C290.387 67.3735 290.941 69.0986 292.405 71.529L293.774 73.8019L294.925 72.8118C295.558 72.2674 296.402 71.6396 296.8 71.4168L297.524 71.0118L296.978 70.3538C296.678 69.9916 296.556 69.4955 296.707 69.2506C296.858 69.0058 296.615 68.2826 296.166 67.6433C295.716 67.0041 295.087 65.745 294.765 64.8447L294.182 63.2082L296.241 61.4216L298.3 59.6351L297.121 58.7764L295.943 57.9177L297.08 55.0771C298.212 52.2492 298.231 51.4418 297.167 51.4418C296.233 51.4418 294.953 47.4866 295.416 46.0292C295.558 45.5819 296.17 44.9896 296.777 44.713L297.88 44.2101L297.252 43.4835C296.906 43.084 295.933 41.5068 295.09 39.9787L293.558 37.2004L294.263 36.1926C294.771 35.4681 294.826 35.1368 294.461 35.0148C294.182 34.922 293.766 34.4967 293.539 34.0705L293.124 33.2956L294.639 31.4824L296.153 29.6692L295.313 29.3587C293.755 28.7821 293.931 27.4942 296.13 23.3577C296.352 22.9404 296.428 22.4291 296.3 22.2211C296.171 22.0131 296.341 21.0442 296.677 20.0681L297.289 18.2934L296.579 16.7564C296.189 15.9112 295.748 15.1245 295.599 15.008C295.45 14.8915 295.12 14.04 294.866 13.1156L294.404 11.435L295.488 10.3043L296.571 9.17355L295.261 7.83397C292.471 4.97986 287.337 3.1497 281.963 3.09293L278.076 3.05184L274.687 4.60874C272.823 5.46494 270.693 6.47491 269.954 6.85238L268.611 7.53911L266.777 6.3474C265.768 5.69201 264.528 4.77863 264.021 4.31812C263.514 3.85761 262.884 3.61402 262.621 3.7767C262.357 3.93938 261.151 4.23678 259.942 4.43717C258.731 4.63755 256.721 4.99214 255.475 5.22557C254.005 5.50094 252.459 5.50773 251.075 5.24506C248.308 4.72059 245.786 4.72906 245.455 5.26413C245.009 5.98645 243.601 5.73056 243.125 4.84048C242.505 3.68265 241.956 3.7606 238.553 5.48951L235.607 6.98583L233.905 6.71385C232.674 6.51685 232.077 6.16184 231.743 5.42935C231.415 4.71 230.935 4.41683 230.086 4.41683C229.429 4.41683 228.71 4.24356 228.488 4.03174C227.729 3.3056 224.323 3.37805 222.578 4.15756C221.646 4.57358 219.626 5.09424 218.088 5.31412L215.292 5.71404L211.521 5.03663C209.447 4.66382 207.369 4.29779 206.903 4.22365C206.437 4.14909 204.817 3.88982 203.302 3.64664C201.788 3.40389 198.663 3.07937 196.358 2.92559L192.168 2.64599L192.437 3.34754L192.706 4.04868L191.853 3.77797C191.275 3.59453 190.584 3.85804 189.705 4.59773C188.238 5.83224 187.472 5.93307 185.88 5.10229C184.646 4.45835 180.843 3.74366 176.546 3.34797L173.726 3.08785L171.917 3.96183C169.462 5.14805 165.473 5.17262 161.156 4.02708L157.773 3.12979L155.526 3.83644C154.04 4.30372 152.987 4.95359 152.416 5.75641L151.552 6.96973L150.354 6.11693C148.85 5.04552 148.82 5.04764 147.317 6.31223L146.071 7.35992L144.29 6.66555C143.31 6.28342 141.959 5.58991 141.286 5.1239L140.063 4.27703L138.109 5.03832C134.702 6.36476 134.167 6.3313 132.172 4.66467C130.173 2.99422 129.531 2.829 128.74 3.78136C128.069 4.5901 126.902 4.5774 124.504 3.73434C121.964 2.84171 119.24 3.19334 115.685 4.87268L112.858 6.20844L110.737 5.9606C109.571 5.82419 106.572 4.97181 104.072 4.06648L99.5268 2.41975L97.975 3.47421L96.4231 4.52868L92.8683 4.3071L89.313 4.08511L87.3147 4.8104C86.2158 5.20905 85.1058 5.52213 84.8486 5.50561C84.1085 5.45858 82.139 3.84406 82.139 3.28484C82.139 3.00566 81.956 2.29562 81.7319 1.70675L81.3252 0.636618L80.0182 1.09204L78.7113 1.54746L77.9889 0.9175L77.267 0.287109L74.7252 1.92366ZM50.3531 15.3652C49.4779 16.0828 47.8235 21.9249 47.8235 24.2982C47.8235 29.3227 42.6859 45.3764 40.8528 46.0801C39.6645 46.5363 38.0906 45.2501 38.6765 44.302C38.7735 44.1453 38.9743 42.8756 39.1226 41.4805C39.2709 40.0855 39.57 37.705 39.7869 36.1904C40.9879 27.8026 39.0523 26.6795 35.7682 33.8595C34.2566 37.1636 32.5879 37.4474 33.2725 34.284C33.4237 33.585 33.525 32.7271 33.4974 32.3776C33.4699 32.0281 33.4267 29.5976 33.4008 26.9761L33.3547 22.21H32.7366C32.3968 22.21 31.6757 21.9199 31.1343 21.5648C28.4234 19.7889 27.0817 24.8701 28.2789 32.3776C28.8966 36.2497 27.5888 39.3127 26.1539 37.3555C25.1024 35.9218 23.5722 35.821 22.9384 37.1436C22.075 38.945 22.0386 39.5076 22.6397 41.7652C22.9706 43.0095 23.2443 44.7363 23.2468 45.6018L23.2519 47.1756L22.3661 47.6497L21.4806 48.1233L20.2449 47.6116C17.7081 46.5609 12.6607 40.0948 12.6607 37.896C12.6607 35.9752 10.1226 35.2635 9.05928 36.8856L8.32637 38.0045L9.07285 40.5926C9.48336 42.016 11.1004 45.8496 12.6671 49.1117C16.1156 56.2942 16.2469 56.6819 15.4534 57.3406L14.8378 57.8516L11.5338 55.9176C9.68417 54.8348 7.69345 53.9837 7.01095 53.9837H5.79169L6.09672 54.725C6.2649 55.1326 6.50511 55.8274 6.63094 56.2684L6.86013 57.0699L3.42985 56.7708L0 56.4717L0.0639713 57.3241L0.128363 58.1769L0.736297 57.6724L1.34423 57.1678L1.02269 58.1816L0.70071 59.1958L1.4243 58.9179C1.9259 58.7255 2.21398 58.892 2.36268 59.461C2.69567 60.7345 5.04692 61.6093 8.13785 61.6093H10.9009L15.0738 64.9371C17.3691 66.7672 20.802 69.168 22.702 70.2725C26.5187 72.4899 26.6322 72.6462 26.9224 76.0845L27.1253 78.4862L25.5655 80.2121C24.6991 81.1713 24.1081 82.2037 24.2352 82.5354C24.3615 82.8637 24.3373 83.2594 24.1823 83.4149C23.8111 83.7856 23.6891 86.2758 24.0158 86.8087C24.156 87.0379 24.2954 87.5594 24.3254 87.9678C24.3555 88.3762 24.6983 89.0617 25.0872 89.4913C26.1094 90.6212 25.9561 92.3793 24.6906 94.0387L23.587 95.4851L24.0552 96.8272C24.3123 97.5656 24.5229 99.3174 24.5229 100.721C24.5229 102.549 24.7313 103.502 25.2592 104.086L25.9959 104.899L25.9408 108.018C25.8887 110.959 24.9986 115.034 24.0064 116.876C23.6857 117.471 23.6955 117.749 24.0416 117.865C24.3064 117.953 24.5229 118.301 24.5229 118.639C24.5229 118.976 24.8076 119.361 25.1554 119.495C25.5964 119.664 25.7061 120.063 25.5172 120.815C25.3282 121.569 25.3926 121.803 25.732 121.594C25.9989 121.429 26.2175 121.496 26.2175 121.742C26.2175 121.989 26.0061 122.191 25.7481 122.191C25.166 122.191 25.6248 124.249 26.4085 125.157C28.2107 127.243 28.195 132.47 26.3784 135.147C25.8239 135.964 25.3702 136.824 25.3702 137.058C25.3702 137.293 25.0469 138.094 24.6521 138.84C23.6544 140.723 22.8329 146.648 23.6383 146.15C23.7751 146.065 23.9272 146.645 23.9755 147.438C24.1335 150.021 24.2255 150.321 25.4409 152.238C27.4088 155.341 26.936 159.684 24.2416 163.248C22.5893 165.434 22.5508 165.646 23.6756 166.349C24.1416 166.64 24.5229 167.213 24.5229 167.623C24.5229 168.033 24.7936 168.369 25.1244 168.369C25.8086 168.369 26.4945 173.138 26.0599 174.87C25.8768 175.599 26.1704 176.387 27.1088 177.682L28.4115 179.481L28.1506 180.872C28.0074 181.637 27.5134 182.741 27.0537 183.326C26.5937 183.911 26.2175 184.56 26.2175 184.769C26.2175 184.977 25.5684 185.777 24.7754 186.546L23.3333 187.944L23.9954 189.912C24.3598 190.995 24.8004 191.977 24.9745 192.093C25.1486 192.21 25.8201 194.403 26.467 196.965C27.1139 199.528 27.8913 201.834 28.1946 202.091C28.498 202.346 28.6267 202.676 28.4806 202.822C28.3344 202.968 28.4425 203.361 28.7199 203.696L29.2254 204.305L28.5687 206.839C27.8214 209.723 27.7396 211.232 28.2993 211.814C29.3355 212.891 28.953 215.827 27.496 217.978C25.8853 220.354 25.9124 220.877 27.7129 222.172C28.5229 222.754 29.2948 223.637 29.4291 224.133C29.6804 225.063 28.1319 230.967 27.449 231.683C27.2376 231.904 27.0648 232.403 27.0648 232.791C27.0648 233.179 26.6703 233.998 26.1882 234.61C25.7061 235.223 25.4108 236.059 25.532 236.468C26.1997 238.723 26.4492 246.189 25.9798 249.879L25.6621 252.378L26.4445 252.95C26.8745 253.264 27.0681 253.522 26.8745 253.522C26.6809 253.522 27.169 254.141 27.9586 254.899C28.7488 255.656 29.4473 256.657 29.5113 257.123C29.5753 257.589 29.7376 259.019 29.8718 260.3L30.1159 262.63L29.191 264.958C28.6827 266.238 27.599 268.214 26.7834 269.35L25.3003 271.414L26.5504 272.742L27.8006 274.069L27.6642 276.911C27.5892 278.475 27.2177 280.354 26.8389 281.086L26.1505 282.417L26.6801 283.695C27.3566 285.329 29.2965 286.207 30.9526 285.63C31.6088 285.401 33.1475 285.325 34.3714 285.461C35.5953 285.596 36.8828 285.736 37.2323 285.77C37.5818 285.805 38.7498 285.49 39.8276 285.069L41.7878 284.304L42.8329 285.126L43.8785 285.949L47.4147 285.867C49.9002 285.809 51.2063 285.963 51.8113 286.387C52.2849 286.719 53.0128 286.99 53.4292 286.99C53.8457 286.99 54.5061 287.363 54.8967 287.82L55.6068 288.649L58.1533 288.425C59.5539 288.302 61.0312 288.024 61.4357 287.808C62.419 287.282 63.784 287.31 64.847 287.879C65.3253 288.135 66.6949 288.408 67.8909 288.485C69.0864 288.562 71.0182 288.81 72.1833 289.037L74.3015 289.449L76.3714 288.188C78.9875 286.594 80.1436 286.87 84.4564 290.117C84.7584 290.345 85.5218 290.231 86.4056 289.826C89.8791 288.236 91.1746 287.856 92.2222 288.119L93.3203 288.395L92.4129 287.241C91.7855 286.443 91.5584 285.67 91.6779 284.737C91.7732 283.994 91.699 283.142 91.5139 282.842L91.1771 282.297L82.6855 282.242L74.1939 282.186L73.0683 283.072L71.9426 283.957L70.609 283.575C68.6911 283.025 68.3463 282.549 68.9326 281.262C69.2059 280.662 69.4296 279.738 69.4296 279.206C69.4296 277.855 71.1224 276.399 72.6942 276.399H73.9977L74.2706 277.486C74.7718 279.483 75.8453 278.542 76.7214 275.34C77.4433 272.7 79.3277 268.02 82.4017 261.231C83.5252 258.75 87.7553 251.91 90.1396 248.719C91.9452 246.302 101.022 239.539 105.863 237.001C107.899 235.935 111.606 232.839 114.548 229.749C121.956 221.97 123.146 221.003 123.874 222.181C124.304 222.877 124.211 231.879 123.743 234.881C123.507 236.396 123.306 237.921 123.297 238.271C123.288 238.62 123.174 239.955 123.044 241.236C122.041 251.137 122.396 253.289 125.521 256.276C131.153 261.657 134.376 266.283 138.801 275.333C140.056 277.9 141.347 280.47 141.669 281.045C141.991 281.619 142.168 282.176 142.062 282.282C141.676 282.668 101.411 282.275 101.013 281.881C100.192 281.069 96.543 281.521 96.543 282.435C96.543 282.675 96.2511 283.086 95.894 283.347L95.2454 283.821L95.7203 285.184L96.1956 286.548L100.344 286.451L104.492 286.355L105.284 287.063C105.796 287.521 106.808 287.77 108.156 287.769L110.237 287.767L111.823 286.492C113.561 285.096 114.629 285.054 115.35 286.353C116.687 288.762 117.415 289.553 118.099 289.336C118.493 289.211 119.953 289.089 121.342 289.064C123.91 289.02 126.521 288.147 128.675 286.613C129.336 286.142 130.941 285.657 132.364 285.497L134.883 285.213L136.079 286.157L137.275 287.1L138.197 286.655C141.686 284.971 144.954 285.742 149.235 289.257C152.517 291.953 152.936 292.075 153.894 290.613L154.574 289.575L157.015 290.65C158.357 291.241 159.756 291.993 160.124 292.323C160.491 292.652 161.034 292.921 161.329 292.921H161.864L161.579 290.849C161.279 288.664 161.764 287.789 162.8 288.648C163.172 288.957 163.757 288.977 164.582 288.708C165.807 288.309 171.645 287.361 172.262 287.461C173.123 287.601 173.647 287.359 173.647 286.824C173.647 285.424 175.818 285.407 179.947 286.777C182.096 287.489 183.298 287.69 183.798 287.423C184.656 286.963 186.291 287.294 187.252 288.122C187.666 288.48 189.316 288.787 191.451 288.905L194.967 289.1L196.528 287.409C198.48 285.295 198.414 285.289 201.273 287.837C202.58 289.002 204.037 289.956 204.51 289.956C204.983 289.956 205.481 290.134 205.615 290.352C205.755 290.578 208.223 290.684 211.361 290.598L216.861 290.448L218.551 289.672C219.789 289.104 220.213 288.67 220.139 288.049C220.063 287.425 220.316 287.171 221.096 287.085C222.126 286.971 222.933 287.162 229.56 289.091C231.304 289.598 233.782 290.103 235.068 290.214L237.406 290.414L238.821 289.533L240.235 288.651L239.62 287.712C239.268 287.174 239.088 286.208 239.199 285.449C239.489 283.48 239.256 283.439 227.072 283.323C220.914 283.264 215.643 283.126 215.359 283.018L214.843 282.82L215.254 280.774C215.48 279.65 215.747 278.3 215.847 277.776C216.079 276.553 217.701 276.494 218.765 277.67C220.12 279.167 220.586 278.72 220.865 275.657C221.562 267.992 225.471 259.779 233.589 248.922C239.336 241.237 243.636 233.929 244.209 230.873L244.47 229.481L242.845 226.779C240.754 223.306 239.467 220.125 238.485 216.001L237.698 212.7L238.342 211.716C239.1 210.56 239.051 210.566 241.461 211.321C242.493 211.643 244.576 212.237 246.091 212.64C254.642 214.913 257.694 216.576 260.98 220.753C265.283 226.222 267.22 230.525 269.626 239.965C270.249 242.412 270.865 244.699 270.996 245.049C271.126 245.398 271.283 246.114 271.346 246.64C272.146 253.373 273.163 256.077 276.404 260.088C277.157 261.02 278.68 263.117 279.788 264.749C283.218 269.795 283.485 270.121 287.155 273.723L290.726 277.229L290.212 278.19C289.9 278.773 289.775 280.101 289.895 281.554C290.129 284.383 289.919 284.546 287.002 283.802L284.913 283.269L283.189 283.878C282.099 284.263 280.853 284.383 279.8 284.205C278.884 284.05 276.349 283.883 274.165 283.832L270.196 283.739L270.323 284.797C270.393 285.379 270.751 285.898 271.118 285.95C271.485 286.003 272.323 286.544 272.98 287.154C274.359 288.431 274.413 288.441 275.509 287.612C276.474 286.882 278.765 286.789 279.429 287.453C279.764 287.788 280.131 287.788 280.757 287.453C281.966 286.806 283.618 286.877 285.091 287.638L286.345 288.287L287.225 287.816C287.709 287.556 289.328 287.408 290.823 287.485L293.541 287.626L293.547 283.813C293.55 281.716 293.713 279.747 293.909 279.438L294.265 278.876L296.074 279.363C298.149 279.921 299.141 279.439 298.214 278.323L297.672 277.67L298.199 277.034C298.49 276.685 299.013 276.399 299.363 276.399H300L299.746 275.13C299.607 274.433 299.093 273.051 298.604 272.059C298.116 271.067 297.634 269.922 297.534 269.515C297.434 269.107 297.237 268.344 297.095 267.82C296.954 267.296 296.743 265.711 296.627 264.3L296.416 261.733L297.291 260.102C297.772 259.204 298.061 258.301 297.934 258.096C297.807 257.89 297.877 257.491 298.09 257.21C298.77 256.314 298.207 252.708 297.313 252.23C295.023 251.005 292.752 254.061 292.997 258.038C293.239 261.976 291.608 262.215 288.269 258.73C286.428 256.809 286.201 255.289 287.848 255.921C288.754 256.269 289.08 254.87 288.295 254.002C287.918 253.585 287.608 252.836 287.608 252.337C287.608 251.724 286.819 250.847 285.175 249.633C281.487 246.908 280.945 246.132 279.498 241.494C278.762 239.139 277.542 235.305 276.785 232.975C274.69 226.522 272.408 214.864 271.526 206.116C270.703 197.949 269.976 196.868 264.93 196.302C259.677 195.713 255.886 193.125 252.157 187.584L250.69 185.404L250.692 183.135L250.695 180.866L252.614 176.097C256.096 167.444 256.557 164.012 255.172 157.073C254.807 155.247 254.434 152.873 254.343 151.798L254.177 149.843L256.434 149.61C258.597 149.387 262.195 147.931 262.184 147.284C262.178 146.885 259.447 145.076 257.495 144.177C256.114 143.542 251.86 142.523 246.938 141.65C244.789 141.268 241.843 140.508 231.475 137.66L224.273 135.681L218.077 135.934C214.542 136.078 209.311 136.637 205.895 137.236C199.395 138.376 198.707 138.527 192.711 140.124C190.498 140.714 186.971 141.41 184.874 141.67C182.777 141.931 179.25 142.441 177.036 142.802C170.406 143.886 164.51 142.943 154.371 139.18C151.342 138.055 147.434 136.695 145.686 136.156L142.509 135.176L135.519 135.144C131.674 135.127 126.813 135.277 124.716 135.477L120.903 135.842L117.292 132.65C115.306 130.894 113.224 128.633 112.665 127.625C112.106 126.617 110.474 123.981 109.039 121.767C107.604 119.554 105.904 116.764 105.259 115.567L104.087 113.391L104.566 112.497C104.829 112.005 105.753 111.237 106.619 110.791C109.332 109.392 111.78 106.944 113.12 104.29L114.408 101.738L113.856 101.397C112.577 100.607 107.968 100.485 105.241 101.17C102.185 101.938 100.78 102.037 100.78 101.483C100.78 100.006 113.694 97.2546 126.834 95.9337C134.32 95.1809 149.259 92.6034 151.405 91.6943C151.871 91.4968 153.195 91.1168 154.347 90.8495C155.499 90.5826 157.252 89.9946 158.242 89.5434C159.233 89.0922 160.239 88.7228 160.478 88.7228C160.717 88.7228 161.919 88.2758 163.149 87.7298C164.379 87.1837 166.053 86.4825 166.869 86.1716C167.684 85.8606 170.258 84.4329 172.588 82.9989C174.918 81.5653 177.396 80.1833 178.095 79.9279C180.349 79.1056 189.868 76.4764 192.923 75.8329C201.004 74.1307 207.929 70.5038 209.69 67.0519L210.563 65.3417L209.802 64.5007C209.255 63.897 208.71 63.7263 207.866 63.8949L206.692 64.13V63.2802C206.692 61.2708 204.902 61.8317 201.184 65.0053C199.903 66.0991 198.23 67.3514 197.467 67.7882L196.08 68.5826L195.349 68.1212C194.947 67.8679 194.596 67.2489 194.569 66.7465C194.518 65.7729 197.626 60.4121 199.268 58.6438C201.855 55.8562 202.849 52.2247 201.364 50.9914C200.875 50.586 200.77 50.0425 200.971 48.971C201.271 47.373 200.807 46.7994 199.207 46.788C198.274 46.7816 195.677 49.5853 195.677 50.6004C195.677 52.4259 191.284 56.9492 189.511 56.9492C187.144 56.9492 187.076 48.9435 189.408 44.7401L190.187 43.334L189.646 42.1982C189.298 41.4691 188.706 41.0162 187.993 40.9332C186.623 40.7739 185.976 41.5542 182.272 47.8408C180.762 50.4038 178.964 53.1681 178.275 53.9837C177.587 54.7992 176.553 56.1731 175.977 57.0369C174.699 58.9547 173.405 59.7457 172.617 59.0912L172.064 58.6328L172.432 56.6259C172.635 55.5223 173.075 53.6659 173.409 52.5009C174.452 48.8656 175 43.9728 174.654 41.3814C174.475 40.041 174.349 38.8488 174.374 38.7323C174.825 36.6446 174.851 25.3955 174.409 23.6928L173.859 21.5746L172.645 21.4356L171.431 21.2971L171.693 25.6721C171.837 28.0788 172.029 31.0499 172.12 32.2747C172.211 33.4998 172.138 34.5933 171.957 34.7051C171.657 34.8903 170.872 39.4017 171.022 40.0799C171.103 40.4456 168.187 49.285 167.657 50.2767C166.2 53.0118 163.579 48.0716 162.805 41.1276C162.653 39.7652 162.171 37.6707 161.734 36.4734C161.296 35.2758 160.938 33.8849 160.938 33.3821C160.938 32.8796 160.688 32.3725 160.382 32.2552C159.889 32.0658 158.566 23.7098 158.826 22.4219C159.039 21.364 158.198 20.1058 156.998 19.6876L155.686 19.2301L155.081 19.8355C154.246 20.6705 154.317 22.7252 155.42 29.6239C157.032 39.7207 157.041 39.5864 154.845 38.7514C153.374 38.1922 153.236 38.601 153.728 42.0694C154.241 45.684 153.799 47.3349 152.376 47.1286C150.801 46.9007 148.652 41.1708 148.652 37.2008C148.652 33.8265 146.445 31.862 145.222 34.1472C144.705 35.1131 144.905 39.7601 145.655 44.2397C147.867 57.441 147.856 58.2201 145.46 57.6185C144.375 57.3466 141.765 54.0824 140.351 51.2299C139.889 50.2979 138.994 48.7287 138.362 47.7433C137.73 46.7575 137.213 45.7619 137.213 45.5302C137.213 45.2989 136.582 43.8119 135.81 42.2261C134.402 39.3331 132.082 32.5805 131.888 30.811C131.83 30.2907 131.465 28.905 131.075 27.7315L130.366 25.5984L129.276 25.3247C126.874 24.7219 126.235 27.1362 127.466 32.1658C127.781 33.4524 127.414 34.4958 126.647 34.4958C125.48 34.4958 125.086 35.3728 125.964 36.0146C126.373 36.3133 126.595 36.7378 126.459 36.9581C126.323 37.1784 126.505 37.9452 126.863 38.6628C127.221 39.3801 127.889 41.3572 128.348 43.0565C128.808 44.7557 129.363 46.5274 129.583 46.9935C129.802 47.4595 130.362 48.9846 130.825 50.3826C131.29 51.7807 132.059 54.0159 132.535 55.3499C134.304 60.3066 133.218 62.7968 130.631 59.716C129.057 57.8405 128.267 58.0075 128.613 60.1426L128.854 61.6263L128.221 61.3835C127.646 61.1628 127.144 60.3901 126.444 58.6438C125.273 55.7253 123.542 54.5263 122.519 55.9248C121.773 56.9462 121.786 62.0126 122.538 63.1035C123.284 64.1855 124.6 70.1568 124.426 71.6684L124.292 72.836L123.233 72.9529C121.441 73.1503 119.293 70.6652 116.355 64.9985C112.935 58.4031 112.303 57.6635 108.677 56.0032C107.014 55.2423 104.637 54.9949 104.538 55.5723C104.508 55.7473 104.429 56.6929 104.364 57.674L104.245 59.4585L107.316 62.9696C110.272 66.3495 113.913 71.6155 113.913 72.5123C113.913 72.7496 113.624 73.1838 113.271 73.4765L112.629 74.0091L110.199 72.3098C108.074 70.8228 104.232 69.0393 101.335 68.1941C98.1707 67.2709 99.5946 73.3592 102.879 74.7954C111.92 78.7488 120.362 83.9915 122.197 86.7922L122.869 87.8187L122.39 88.7147C121.805 89.8069 120.355 90.4292 117.367 90.869L115.103 91.2024L112.707 89.6747C111.39 88.8342 109.305 87.1345 108.074 85.8975C105.86 83.6721 104.34 82.8964 103.115 83.3662L102.483 83.6089L102.914 84.7418C103.151 85.365 104.386 86.9447 105.658 88.2521C106.93 89.5595 107.973 91.0202 107.976 91.4981C107.984 92.6962 104.84 94.1645 101.262 94.6348C97.0527 95.1877 93.6792 96.5366 91.2474 98.6383L89.9765 99.7368L87.2228 99.7419C85.7082 99.7448 83.7705 99.8626 82.9168 100.004L81.3646 100.26L80.6744 98.9255C80.2949 98.1913 77.722 95.2783 74.9577 92.4517C71.5957 89.0147 69.8494 86.9032 69.6837 86.0746C68.9381 82.346 72.5175 76.6814 80.8803 68.3551C88.8449 60.4256 90.5124 57.7173 88.534 55.9265L87.6875 55.1606L86.5382 56.0646C85.9061 56.562 84.0823 58.6328 82.4851 60.6659C78.6558 65.542 74.9124 69.8429 73.9507 70.4716C72.0096 71.7409 71.741 68.9439 73.4453 65.2103C79.0142 53.0135 81.3307 48.6906 85.4795 42.757C92.0791 33.3173 95.0505 28.4313 94.7184 27.5654C93.8507 25.3048 91.4406 26.4398 88.9979 30.2594C84.5563 37.2034 81.0456 40.0287 83.0409 35.0529C84.1742 32.2268 85.7968 24.7663 85.3706 24.3402C84.1467 23.1162 81.5844 25.8966 81.576 28.4589C81.5751 28.7503 81.4412 28.9884 81.279 28.9884C81.1167 28.9884 80.6414 30.0848 80.2224 31.4244C79.8034 32.764 79.3222 34.1463 79.1531 34.4958C77.3141 38.2985 74.3867 44.5778 73.4254 46.7816C72.7654 48.2962 71.8202 50.2026 71.3254 51.0181C70.831 51.8336 69.3529 54.6488 68.0408 57.2741C65.7713 61.8144 62.1835 67.1167 61.3807 67.1167C60.0229 67.1167 60.1822 64.1101 61.717 60.762C62.4114 59.2475 63.121 57.5317 63.2943 56.9492C63.4676 56.3667 63.9382 55.1275 64.3411 54.1955C66.8241 48.4478 68.4641 43.1277 69.0072 39.059C69.6037 34.5945 69.8185 33.4854 70.3832 31.954C71.0326 30.1933 71.6635 27.0977 71.6635 25.6696C71.6635 21.3742 68.3221 20.8895 67.5384 25.0714C67.4397 25.5963 67.263 26.1818 67.1457 26.372C67.0279 26.5622 66.8432 27.207 66.7347 27.8052C65.8146 32.8796 62.8287 39.3004 60.4605 41.2984C59.6666 41.9681 59.1315 42.8574 59.0591 43.6284C58.9947 44.3143 58.7413 45.376 58.4969 45.9877C58.2524 46.5995 57.8474 47.8386 57.5975 48.7414C56.968 51.0143 55.3505 53.7384 54.5379 53.8951C53.5029 54.0942 53.2564 52.8131 54.041 51.3092C54.4282 50.5665 54.8781 49.2917 55.0404 48.4762C55.203 47.6607 55.4093 46.7075 55.4987 46.358C55.6148 45.9034 55.2996 45.7128 54.39 45.6878C52.0189 45.6225 51.6363 45.5115 51.6363 44.89C51.6363 44.5486 52.1858 43.6428 52.8573 42.8777C54.8777 40.5748 55.231 39.9211 61.1676 27.5056C66.3738 16.6175 66.6267 15.8066 65.1096 14.8559C64.6284 14.5543 63.9975 14.5403 63.2032 14.8132L62.0157 15.2211L59.1637 20.8366C55.3085 28.4279 53.1911 30.65 51.6177 28.7541L51.0716 28.0962L51.5652 25.6827C51.8371 24.3554 52.4298 21.6555 52.8831 19.683C53.4292 17.3046 53.5678 15.9286 53.2932 15.5982C52.5811 14.7403 51.2445 14.6344 50.3531 15.3652ZM30.4145 75.6143L29.8574 75.9583L30.3684 76.939C31.1788 78.4968 32.1104 81.9741 31.8787 82.5782C31.7622 82.8815 31.8715 83.256 32.121 83.4102C32.4201 83.5949 32.4375 83.9466 32.1714 84.4435C31.7185 85.29 32.0363 87.0282 32.6438 87.0282C33.034 87.0282 32.8891 91.6515 32.476 92.3776C31.7507 93.6524 31.7999 94.9983 32.6031 95.8604C33.0759 96.3679 33.3547 96.9581 33.2225 97.172C33.0903 97.386 33.1759 97.6804 33.4127 97.827C34.1121 98.2595 33.9448 102.939 33.2076 103.55C32.2455 104.349 32.4455 105.931 33.6262 106.86L34.6802 107.689L34.1867 109.105C33.9156 109.884 33.4423 111.002 33.1352 111.59C32.4112 112.978 32.4281 113.747 33.2076 114.86C33.8321 115.752 33.8287 116.05 33.1725 117.743C32.3387 119.893 32.3531 121.321 33.2356 124.127L33.9435 126.377L33.4695 127.737C33.2089 128.484 32.9958 130.627 32.9958 132.497C32.9958 134.369 32.7658 136.535 32.4849 137.313L31.9736 138.726L32.651 139.885L33.328 141.043L32.9912 143.162C32.6849 145.09 33.0551 148.796 33.6508 149.759C34.174 150.606 33.8694 154.337 33.0314 157.345C31.6575 162.277 32.193 165.424 34.9827 168.82L35.528 169.484L34.0499 173.041C32.365 177.096 32.318 177.472 33.2564 179.353C34.1981 181.242 33.4724 184.889 31.469 188.336C31.3834 188.483 31.7944 189.312 32.3828 190.179C33.0272 191.129 33.3123 191.948 33.1005 192.242C31.9083 193.892 31.5003 197.6 32.5107 197.6C32.6785 197.6 33.4762 198.172 34.2829 198.871L35.7495 200.142L34.3096 201.391L32.8696 202.64L32.8819 205.945C32.8937 209.06 33.0873 212.105 33.6648 218.234C33.8215 219.902 33.7156 221.405 33.3746 222.349L32.8365 223.836L33.6122 224.693C34.5099 225.684 34.5777 227.115 33.8546 229.798C33.2386 232.081 33.5228 236.463 34.4561 239.076L35.1217 240.941L34.2706 242.384C33.2564 244.103 33.1928 245.674 34.0549 247.737C34.8154 249.557 34.8764 251.472 34.196 252.152L33.702 252.646L34.2015 254.885L34.701 257.123L34.1418 259.029L33.5822 260.936L34.31 262.943C35.2276 265.475 35.0154 266.252 32.9543 267.908L31.2966 269.24L31.3241 274.832C31.3394 277.907 31.455 280.847 31.5813 281.365L31.8109 282.307L40.5622 282.311L49.3139 282.315L50.4205 281.581C57.5729 276.839 62.1869 272.769 64.6516 269.029C67.4964 264.712 71.7812 259.286 75.3009 255.546C78.2868 252.372 81.6687 247.128 82.966 243.661C85.0312 238.139 85.4413 237.547 91.0801 231.935C95.689 227.348 99.9322 222.361 99.9322 221.531C99.9322 221.392 101.273 219.248 102.911 216.767C104.55 214.287 105.998 211.825 106.131 211.298L106.371 210.339L103.293 206.947C101.601 205.082 100.087 203.502 99.9288 203.437C99.1366 203.112 95.6885 197.78 95.4509 196.514C95.3005 195.713 95.0446 195.058 94.8823 195.058C94.6349 195.058 93.9223 191.865 92.878 186.076C92.6048 184.56 91.164 182.773 90.215 182.773C89.7977 182.773 88.9254 182.007 88.2764 181.07C87.6278 180.134 86.6627 179.259 86.1319 179.126C85.601 178.992 84.6639 178.124 84.0497 177.196L82.9329 175.508L81.8971 176.187L80.8609 176.866L80.4804 175.901C79.8386 174.272 78.3232 168.623 78.3249 167.864C78.327 166.701 77.4013 166.465 76.6201 167.43L75.8987 168.321L75.4521 167.341C75.2064 166.802 74.8828 165.526 74.7324 164.505C74.582 163.484 74.3905 162.268 74.307 161.802C74.2231 161.336 74.1401 160.701 74.1223 160.392C74.0986 159.986 73.7253 159.908 72.787 160.114L71.4847 160.401L71.691 157.924C71.8045 156.562 72.0269 155.121 72.1854 154.722C72.376 154.242 72.1265 153.67 71.4457 153.027L70.4175 152.058L69.7138 148.457C69.3266 146.477 68.8987 143.712 68.7632 142.314L68.5166 139.772L67.2291 138.641C62.5406 134.522 56.3583 133.303 51.9143 135.621L49.8625 136.691L47.3761 136.511C44.6381 136.313 43.1634 135.383 43.1634 133.853V132.937L40.9392 132.542L38.7151 132.147L37.8042 130.24C36.041 126.551 36.2994 123.737 38.6092 121.478C41.8869 118.271 42.2911 117.967 46.0243 115.894C48.0624 114.762 50.4353 113.358 51.2974 112.772C52.16 112.187 54.5214 111.255 56.546 110.701L60.2267 109.693L61.1693 108.204C62.4593 106.167 62.9816 105.82 65.2435 105.493C66.5932 105.298 67.7282 104.758 68.903 103.752C69.8396 102.951 71.1038 102.105 71.7122 101.874C74.8959 100.663 69.8401 95.7769 60.5329 91.0689C55.6542 88.6008 53.278 87.3133 47.1122 83.7975C44.5076 82.3121 42.2733 81.0971 42.1475 81.0971C42.0216 81.0971 40.3046 80.1439 38.3321 78.9789C36.3596 77.8139 34.471 76.8606 34.1346 76.8606C33.7982 76.8606 33.303 76.5954 33.034 76.2709C32.3947 75.5012 31.1161 75.1805 30.4145 75.6143ZM292.189 76.8162C290.658 78.418 290.334 80.2498 291.581 80.2498C291.847 80.2498 292.851 81.0128 293.812 81.9453L295.559 83.6407L296.168 82.6867C296.85 81.6195 298.199 78.3243 298.199 77.7279C298.199 77.3868 296.821 76.7268 295.989 76.6696C295.822 76.6581 295.295 76.315 294.819 75.9074C293.747 74.989 294.027 74.8919 292.189 76.8162ZM294.8 85.4497C294.456 85.9686 294.172 86.774 294.168 87.24C294.164 87.7802 293.589 88.3945 292.584 88.9346C291.436 89.5519 291.072 89.9831 291.243 90.5233C291.372 90.9308 291.295 91.2647 291.071 91.2647C290.847 91.2647 290.691 91.7413 290.725 92.3234C290.758 92.9059 290.952 93.3825 291.155 93.3825C291.358 93.3829 291.316 93.6346 291.061 93.9421C290.724 94.3476 290.729 95.2101 291.077 97.0818L291.557 99.6622L293.168 100.296L294.78 100.929L294.605 102.316C294.481 103.296 293.908 104.151 292.652 105.234L290.874 106.764L290.748 110.397L290.623 114.031L292.717 115.387C293.868 116.134 294.81 116.835 294.81 116.947C294.81 117.591 293.247 120.07 292.038 121.344L290.629 122.826L290.69 126.568L290.75 130.31L291.933 130.922C293.548 131.757 293.476 133.128 291.743 134.552L290.362 135.686V138.365C290.362 139.838 290.171 141.184 289.938 141.355C289.669 141.552 289.693 141.668 290.004 141.672C290.299 141.676 290.401 142.059 290.26 142.632C290.131 143.156 290.176 143.446 290.362 143.276C290.769 142.901 293.087 145.861 293.104 146.776C293.11 147.132 292.552 147.637 291.863 147.897L290.61 148.37L290.588 156.992C290.576 161.735 290.549 166.064 290.528 166.613C290.503 167.272 291.008 168.038 292.015 168.868C293.886 170.411 293.951 171.52 292.286 173.468C290.715 175.306 290.715 175.451 292.282 177.068C293.808 178.642 293.65 179.408 291.547 180.649L290.054 181.53L291.014 182.363C291.542 182.821 292.129 183.196 292.318 183.196C292.507 183.196 292.873 183.59 293.131 184.072L293.6 184.948L292.924 185.978C292.553 186.545 291.967 187.009 291.623 187.009C290.949 187.009 290.91 187.192 290.91 190.398C290.91 191.563 290.93 193.116 290.954 193.849L290.997 195.181L293.834 194.916C297.194 194.602 297.783 194.126 297.953 191.58C298.024 190.526 298.374 189.078 298.731 188.362C299.088 187.646 299.277 186.957 299.15 186.83C298.791 186.471 297.444 182.264 297.287 181.014C297.203 180.346 297.467 179.535 297.938 179.015L298.729 178.14L297.984 175.902C297.573 174.671 297.175 173.283 297.098 172.817C297.021 172.351 296.844 171.349 296.705 170.589L296.453 169.209L297.22 168.97C299.614 168.225 299.955 166.775 298.167 164.946C297.033 163.786 296.903 162.605 297.776 161.378C298.692 160.09 298.204 155.713 296.979 154.237C296.739 153.948 296.417 152.93 296.265 151.976L295.988 150.242L297.517 147.633C299.518 144.218 299.468 143.628 296.841 139.696C296.052 138.516 295.658 137.376 295.658 136.279V134.633L297.308 133.705C299.4 132.53 299.564 132.055 298.593 130.002C298.16 129.085 297.798 128.032 297.79 127.663C297.782 127.294 297.64 126.857 297.474 126.691C297.308 126.524 296.846 125.531 296.449 124.482L295.725 122.576L297.174 121.126C298.641 119.659 298.925 118.876 298.253 118.145C297.718 117.564 296.081 112.235 296.081 111.076C296.081 110.536 296.385 109.66 296.756 109.131C297.748 107.714 297.816 101.561 296.878 97.9418C296.124 95.033 296.241 93.6062 297.417 91.3706L297.919 90.4174L297.435 89.4642C297.169 88.9397 296.607 87.6103 296.188 86.5088L295.425 84.5071L294.8 85.4497ZM291.305 203.425C290.66 206.455 290.54 217.294 291.14 218.253C291.322 218.545 291.317 218.783 291.128 218.783C290.94 218.783 290.79 221.881 290.795 225.667L290.804 232.551L291.491 234.083C291.958 235.126 292.552 235.708 293.353 235.909C294.678 236.242 296.55 237.423 295.752 237.423C295.467 237.423 295.234 237.789 295.234 238.236C295.234 239.456 294.784 240.389 294.195 240.389C293.907 240.389 293.308 240.79 292.864 241.282L292.057 242.174L293.523 243.4L294.99 244.625L294.868 246.32C294.801 247.252 294.912 248.014 295.114 248.014C295.619 248.014 298.86 244.546 298.735 244.139C298.679 243.959 298.552 241.85 298.452 239.453L298.269 235.093L297.181 232.128L296.093 229.162L296.819 227.785C297.218 227.028 297.776 226.408 298.059 226.408C298.342 226.408 298.702 226.2 298.86 225.945C299.222 225.359 298.224 223.443 297.559 223.443C296.741 223.443 294.893 221.623 294.412 220.344C293.677 218.39 293.903 217.42 295.662 214.988L297.334 212.676L296.747 211.779C296.004 210.646 295.794 209.405 296.227 208.714C297.226 207.121 297.355 201.522 296.406 200.919C296.111 200.732 294.979 200.576 293.891 200.572L291.913 200.566L291.305 203.425ZM195.138 207.121C183.624 212.944 174.477 214.805 155.104 215.268L144.399 215.524L144.221 216.412C144.123 216.9 143.929 218.766 143.79 220.558C143.651 222.35 143.268 224.733 142.938 225.854C142.609 226.974 142.253 228.368 142.146 228.95C141.577 232.055 140.001 236.477 137.904 240.853C136.61 243.555 135.318 246.633 135.035 247.692L134.52 249.62L135.457 252.069C138.582 260.237 145.986 269.172 150.201 269.866C152.351 270.219 159.027 273.104 158.947 273.645C158.882 274.089 158.571 274.276 156.489 275.123C151.549 277.135 151.559 277.052 155.774 280.783L158.025 282.776L171.237 282.753C178.505 282.741 184.79 282.736 185.206 282.742C185.621 282.749 186.355 283.421 186.836 284.236C187.91 286.056 187.911 286.056 190.27 284.255L192.187 282.791L195.387 282.928L198.586 283.065L200.253 281.956C202 280.793 205.841 276.56 205.849 275.789C205.866 274.057 211.261 265.115 216.854 257.547C219.22 254.345 221.282 250.65 222.292 247.803C223.332 244.874 224.625 239.566 224.924 237L225.244 234.246L223.394 230.433C222.376 228.336 220.537 225.348 219.307 223.792C216.582 220.346 208.269 210.632 206.374 208.679C205.617 207.898 204.997 206.993 204.997 206.666C204.997 205.597 203.359 204.379 201.925 204.382C201.077 204.383 198.472 205.434 195.138 207.121ZM157.548 237.166C157.548 237.491 157.834 237.866 158.184 238L158.819 238.244V241.837V245.431L158.125 245.82C156.357 246.808 157.694 247.001 164.856 246.79L166.445 246.743V245.261C166.445 243.604 165.868 243.329 165.162 244.648L164.696 245.519L162.923 245.39L161.149 245.261L161.018 243.672L160.886 242.083H161.675C162.108 242.083 162.691 242.312 162.971 242.592C163.673 243.294 164.362 242.521 164.06 241.368L163.822 240.455L162.348 240.694L160.875 240.934L161.012 239.496L161.149 238.059L162.507 237.927C164.097 237.774 165.598 238.462 165.598 239.344C165.598 239.686 165.788 239.965 166.021 239.965C166.254 239.965 166.445 239.203 166.445 238.271V236.576H161.997H157.548V237.166ZM168.563 239.38C168.563 239.524 169.135 240.293 169.834 241.089C171.451 242.931 171.433 243.195 169.544 245.129C168.685 246.008 168.091 246.836 168.223 246.968C168.758 247.504 170.765 246.579 171.125 245.631C171.621 244.328 172.712 244.339 173.041 245.65L173.298 246.674L182.408 246.496C187.419 246.398 191.805 246.158 192.154 245.963L192.789 245.607L191.436 245.047L190.082 244.486L188.749 244.935C186.925 245.55 182.339 245.62 181.274 245.05L180.403 244.583L179.126 245.493C177.493 246.656 176.263 246.363 174.541 244.402C172.895 242.527 172.898 242.457 174.727 240.851L176.23 239.531L175.573 239.279C174.474 238.856 172.887 239.462 172.952 240.279C173.04 241.382 171.763 241.185 171.605 240.071L171.47 239.118H170.016C169.217 239.118 168.563 239.236 168.563 239.38ZM156.383 248.778C154.165 248.906 153.4 249.59 155.006 250.01L155.854 250.231V253.571V256.911H155.187C154.78 256.911 154.576 257.2 154.665 257.652L154.808 258.394H159.573H164.337L164.582 257.622C164.903 256.611 164.436 254.793 163.855 254.793C163.605 254.793 163.305 255.155 163.19 255.598C162.944 256.538 161.852 256.815 159.349 256.573L157.548 256.398V253.61V250.823L158.427 249.887C159.495 248.751 159.242 248.613 156.383 248.778ZM171.635 248.74C170.547 248.946 170.375 249.618 171.317 249.979L171.952 250.223V253.542C171.952 255.368 171.762 256.979 171.529 257.123C171.296 257.267 171.105 257.544 171.105 257.738C171.105 258.36 172.463 258.637 173.065 258.138L173.647 257.655L174.265 258.168C175.961 259.575 178.731 257.464 178.731 254.764C178.731 252.76 177.686 251.827 175.44 251.827H173.698L173.566 250.271C173.428 248.637 173.188 248.446 171.635 248.74ZM197.177 250.952C197.042 251.17 196.307 251.246 195.543 251.122C193.858 250.849 193.013 251.671 193.21 253.391L193.347 254.581L195.375 255.19C197.753 255.904 197.991 257.042 195.807 257.253L194.462 257.384L193.995 256.512C193.329 255.267 192.711 255.435 192.711 256.863V258.086L194.549 258.361C197.694 258.833 199.841 257.402 198.709 255.59C198.439 255.158 198.219 253.848 198.219 252.68C198.219 250.724 197.774 249.986 197.177 250.952ZM183.851 251.372C183.521 251.581 182.616 251.648 181.839 251.522L180.425 251.293V251.959C180.425 252.325 180.616 252.742 180.849 252.886C181.648 253.38 181.332 256.399 180.388 257.278L179.505 258.101L180.283 258.306C182.476 258.88 184.527 258.056 183.242 257.117L182.46 256.544L182.747 254.846C183.077 252.887 183.848 252.07 185.015 252.44C185.815 252.694 186.593 251.782 186.045 251.233C185.675 250.863 184.541 250.936 183.851 251.372ZM166.36 251.912C167.016 252.568 167.022 256.589 166.367 257.243C165.724 257.886 165.893 258.01 167.822 258.307L169.41 258.552V257.757C169.41 257.319 169.261 256.869 169.079 256.756C168.896 256.643 168.753 255.393 168.761 253.978L168.775 251.404L167.313 251.404L165.852 251.404L166.36 251.912ZM188.036 252.223C188.75 253.557 188.584 256.808 187.78 257.258C186.636 257.898 187.446 258.434 189.29 258.258C190.963 258.098 191.464 257.661 190.593 257.123C190.36 256.979 190.169 255.633 190.169 254.132V251.404H188.883H187.598L188.036 252.223ZM246.451 284.13C246.416 284.422 246.364 285.518 246.336 286.566C246.307 287.615 246.123 288.728 245.928 289.039C245.464 289.776 246.024 290.305 247.587 290.605L248.845 290.847L250.903 289.13C253.328 287.108 253.91 287.035 255.494 288.552C256.348 289.371 256.682 289.508 256.682 289.041C256.682 288.684 257.029 288.078 257.453 287.695L258.224 286.997L260.665 287.632C262.008 287.982 263.472 288.464 263.919 288.703L264.731 289.138V286.369V283.601H255.623H246.514L246.451 284.13Z" fill="#FBFDFD"/>
</svg>
