<svg width="300" height="298" viewBox="0 0 300 298" fill="none" xmlns="http://www.w3.org/2000/svg">
<path fill-rule="evenodd" clip-rule="evenodd" d="M133.745 2.86147C132.52 4.16962 131.515 5.45105 131.514 5.71051C131.499 7.73418 121.979 8.29576 115.248 6.67031C112.863 6.09429 109.545 5.61799 107.874 5.61221C104.97 5.60137 103.874 5.91143 98.3566 8.30731C97.0166 8.88984 94.9026 9.67763 93.6588 10.0592C90.9579 10.8868 67.333 10.8492 58.152 10.0021C54.5745 9.67184 47.9072 9.55909 43.3359 9.75206C38.7645 9.94431 31.5466 10.0744 27.2954 10.0412L19.5664 9.97972L15.0088 8.43523C12.5024 7.58529 8.89663 6.86327 6.99582 6.83002L3.5404 6.76933L1.9634 8.34635C0.124033 10.1864 -0.0154738 14.4087 1.6555 17.6653C4.97215 24.1288 6.3591 41.5829 4.39325 52.1234C3.95816 54.4571 3.39153 59.3667 3.13351 63.0338L2.66446 69.7018L4.62235 75.9824C6.79707 82.9605 6.68506 84.9726 3.89456 89.085C1.70538 92.3106 1.60999 91.7866 5.07263 95.5434L8.00477 98.7249L7.68821 101.489C7.51476 103.01 6.64746 105.845 5.76211 107.787L4.15185 111.32L4.16197 118.267C4.16703 122.088 4.34989 127.791 4.56743 130.939C4.94615 136.427 4.2711 142.161 2.83718 145.639L2.16359 147.274L4.40481 150.917C8.53093 157.622 8.5808 162.91 4.56454 167.731C2.42162 170.302 2.43679 170.868 4.7351 174.25L6.60699 177.006L6.65181 181.103C6.68361 184.062 6.17914 186.31 4.83557 189.188C3.81217 191.38 2.75408 194.056 2.48305 195.134L1.99159 197.093L4.95626 200.028C8.49624 203.533 8.54539 203.995 5.77369 207.658C3.23398 211.015 3.10099 212.495 5.00686 216.232L6.42777 219.02L6.16684 224.154C6.02302 226.978 5.34438 230.589 4.65777 232.179L3.41032 235.07L3.93431 244.105C4.61513 255.845 4.47131 259.675 3.12557 265.602C-0.459216 281.396 -0.738213 284.671 1.16331 288.679C3.29829 293.178 6.77612 294.123 12.6195 291.793C20.3398 288.714 32.4818 288.05 47.6152 289.877L55.8696 290.874L61.7086 289.838C70.2449 288.322 93.0292 290.172 98.2503 292.804L100.071 293.722L103.685 291.885L107.298 290.048L111.996 290.105C116.809 290.163 124.968 292.45 130.586 295.316L133.444 296.774L137.356 294.959C139.507 293.961 142.731 292.976 144.519 292.77L147.772 292.395L150.262 294.991C153.297 298.155 153.8 298.184 156.49 295.355C159.057 292.655 161.524 291.296 164.406 290.995C166.789 290.747 174.099 291.711 175.236 292.424C179.022 294.8 185.537 295.301 189.753 293.539L192.522 292.382L198.695 292.896C202.669 293.227 207.036 294.194 210.954 295.611L217.04 297.813L220.349 294.148C224.305 289.767 225.322 289.214 230.628 288.552C234.901 288.02 247.296 289.519 255.46 291.557C263.894 293.661 266.147 293.829 272.717 292.845C288.041 290.551 290.752 287.019 291.553 268.316C291.775 263.149 292.186 257.782 292.467 256.391C292.749 255 292.988 251.585 292.998 248.802L293.017 243.743L291.063 240.257L289.109 236.77L290.862 235.017C291.827 234.053 293.099 233.263 293.69 233.263C295.766 233.263 295.667 231.731 293.357 228.131C292.074 226.131 290.779 223.157 290.48 221.522L289.937 218.548L291.663 215.968C292.612 214.549 293.905 212.678 294.537 211.81L295.685 210.231L294.387 207.473C293.673 205.956 292.347 203.613 291.439 202.265C289.194 198.93 289.309 198.49 293.021 196.248C297.16 193.748 297.702 191.766 295.385 187.616C293.427 184.109 292.623 180.712 292.279 174.499C292.067 170.65 292.596 166.886 294.888 155.93C295.764 151.746 295.418 144.859 294.259 143.413C292.213 140.861 293.808 122.405 296.77 114.373C298.567 109.499 298.606 109.2 297.588 108.157C291.452 101.875 289.926 97.3835 293.433 95.9308C294.642 95.4299 296.415 94.4036 297.374 93.6498L299.117 92.2788L296.267 87.7869L293.417 83.2951L293.423 79.6814C293.426 77.6939 293.942 73.7911 294.57 71.0085C295.373 67.4469 295.685 62.6096 295.624 54.6696L295.536 43.3898L296.701 39.1307C300.69 24.5552 300.764 23.6272 298.508 16.574C295.13 6.01768 288.759 3.09275 276.781 6.59804C266.69 9.55115 246.916 10.7502 234.924 9.13629L228.974 8.3355L220.896 9.58006C211.71 10.9959 205.419 10.6989 197.374 8.4692C191.179 6.75269 189.636 6.71366 185.349 8.16926C181.378 9.51717 180.556 9.30035 175.581 5.58764C170.929 2.11777 170.189 2.06428 167.18 4.97981L164.838 7.25066L161.244 7.59542C156.578 8.04424 147.469 6.00538 142.764 3.4599C140.745 2.36856 138.392 1.25192 137.533 0.97945L135.973 0.484375L133.745 2.86147ZM97.8463 30.7158C97.1821 32.2068 95.6998 35.4447 94.5535 37.9122C89.6606 48.4381 88.0395 61.4987 90.2843 72.3095C91.002 75.7671 90.9427 78.1557 90.0125 83.2951C88.2541 93.0152 82.8321 102.318 76.9281 105.745C74.8365 106.959 76.2321 108.087 81.8586 109.729C98.1462 114.484 100.773 115.889 104.73 121.962C108.237 127.345 112.922 133.525 113.496 133.525C113.753 133.525 113.808 132.71 113.618 131.714C113.427 130.718 113.675 129.417 114.168 128.823C115.332 127.42 122.059 127.376 123.951 128.76L125.34 129.776L124.538 132.783L123.735 135.791L126.598 135.308C131.392 134.498 132.739 133.557 142.934 123.908L147.493 119.593L152.418 120.051L157.343 120.509L159.412 118.886L161.482 117.264H166.552H171.622L171.703 115.663C171.827 113.214 173.993 110.403 175.794 110.356C183.489 110.157 183.991 109.85 184.602 104.964C185.238 99.874 187.095 97.6769 192.228 95.9438C196.965 94.3436 197.48 93.0261 194.586 89.9038C191.742 86.8344 190.431 84.6026 189.006 80.4085L187.806 76.8729L187.994 66.7133C188.376 46.0726 187.661 37.1822 185.368 34.0455L184.448 32.7879L178.542 34.1366C175.294 34.8788 172.47 35.754 172.267 36.0822C172.064 36.4103 171.32 36.6784 170.613 36.6784C169.194 36.6784 162.582 41.1674 157.529 45.5602C152.806 49.6668 148.406 52.0793 146.495 51.6102C145.607 51.392 140.653 51.1462 135.485 51.0631L126.09 50.9121L123.199 47.8383C121.609 46.1478 118.223 42.4661 115.675 39.6561C111.079 34.5875 102.321 28.0056 100.173 28.0056C99.5577 28.0056 98.5112 29.2256 97.8463 30.7158ZM175.86 51.3139C172.31 55.1242 170.538 57.7434 170.538 59.1809V60.5288H173.068C176.229 60.5288 176.304 61.532 173.477 65.9898C171.238 69.5197 171.258 70.9305 173.563 72.1642L174.971 72.918L176.72 71.7718C181.315 68.7616 183.682 57.7658 181.011 51.8408C179.439 48.3536 178.69 48.277 175.86 51.3139ZM98.7266 52.0366C96.3849 55.7855 96.854 66.3837 99.4464 68.2788C102.524 70.5294 104.1 68.0995 101.886 64.5176C99.8664 61.2501 100.002 60.32 102.42 60.849C106.489 61.7394 107.024 56.7467 103.296 52.6654C100.845 49.9819 100.077 49.8764 98.7266 52.0366ZM94.4697 98.3274C91.1429 99.642 92.0066 101.002 96.1681 101.002H99.8541L102.131 103.394C103.382 104.709 105.254 106.902 106.289 108.268L108.171 110.751L109.312 109.804L110.453 108.857L109.393 105.853C106.988 99.0364 100.7 95.8657 94.4697 98.3274ZM150.663 100.642C146.318 102.753 145.405 103.481 142.864 106.852C138.731 112.335 142.387 113.805 147.726 108.806C148.546 108.039 150.301 106.739 151.627 105.917L154.037 104.423L158.239 104.862C163.175 105.378 164.484 104.532 163.086 101.728C161.486 98.5174 156.015 98.039 150.663 100.642ZM193.044 105.013C192.193 106.095 191.495 107.342 191.493 107.785C191.482 110.135 189.798 114.069 188.059 115.808L186.084 117.783L182.431 117.353C178.54 116.896 175.597 118.125 175.597 120.205C175.597 124.834 170.492 127.092 166.727 124.13C164.365 122.272 163.344 122.309 161.135 124.334C160.145 125.242 158.168 126.7 156.741 127.574L154.147 129.164L151.085 127.961L148.023 126.758L143.1 131.85C140.393 134.651 136.969 137.863 135.492 138.989L132.807 141.038L133.265 144.488C133.516 146.385 135.05 151.248 136.673 155.292L139.624 162.647L139.287 166.146C138.729 171.961 132.538 183.188 124.594 192.79C116.559 202.503 115.258 204.78 116.252 207.394C121.235 220.5 141.909 203.321 157.97 172.728C159.693 169.446 162.347 164.887 163.867 162.599C167.51 157.115 169.996 151.902 169.996 149.747C169.996 144.744 179.962 146.246 182.875 151.688L183.645 153.127L178.191 158.224C173.217 162.874 171.281 165.28 165.289 174.259C156.788 186.996 151.962 208.873 155.374 219.211C157.783 226.51 152.026 231.401 137.653 234.269C134.473 234.903 129.665 235.917 126.968 236.522L122.065 237.62L117.227 236.498C111.952 235.275 106.214 232.312 106.214 230.812C106.214 230.128 108.229 229.735 113.517 229.388C125.616 228.595 134.918 225.793 136.186 222.56L136.557 221.614L131.487 222.113C120.243 223.221 112.954 219.963 100.949 208.466C92.2689 200.152 80.7282 194.368 85.0914 200.518C87.8197 204.363 89.5912 208.016 89.5912 209.796V211.581H87.1968C84.5364 211.581 82.6088 209.85 79.1512 204.354C74.6565 197.209 67.9646 192.712 56.0821 188.854C47.368 186.024 45.1485 186.384 47.9795 190.169C50.3031 193.276 52.0434 196.85 51.4978 197.396C50.126 198.769 45.7607 197.061 42.2518 193.78C35.9524 187.891 25.5854 182.018 18.1043 180.102C11.5007 178.41 10.8509 179.233 15.0276 184C16.5382 185.725 18.1448 188.522 18.598 190.215L19.4219 193.295L23.5639 194.598C31.0985 196.968 35.0511 201.674 37.2208 210.859C38.4104 215.895 39.9209 219.552 42.0624 222.583L42.942 223.828L42.1079 224.662C40.8077 225.962 37.7375 224.816 34.5799 221.852L31.7222 219.17L31.2943 215.606C30.4726 208.767 28.2306 205.659 25.2638 207.247C22.693 208.622 22.6887 210.137 25.232 217.725C29.2967 229.849 34.9882 235.308 48.1761 239.732C58.139 243.074 56.3965 246.089 44.7257 245.701C38.1184 245.482 36.6209 246.08 38.3952 248.229C41.3874 251.854 48.1768 252.772 54.8997 250.463C59.2058 248.983 65.4589 248.593 66.5994 249.733C69.0625 252.196 64.8171 256.305 57.6259 258.418C52.9823 259.783 52.2422 261.162 55.8031 261.817C63.376 263.209 69.5771 262.361 73.9851 259.328C78.6113 256.145 81.0788 256.429 82.0385 260.254L82.5517 262.296L80.1088 264.539C78.7653 265.772 75.5592 267.674 72.9848 268.764C67.2058 271.212 66.8524 272.018 71.3059 272.596C78.9207 273.583 87.8219 271.78 93.9493 268.01C98.1275 265.44 100.441 265.2 101.695 267.208C103.513 270.118 99.776 274.238 92.3289 277.534C87.3796 279.725 91.7327 280.781 100.432 279.501L106.576 278.597L113.441 275.029C117.216 273.067 121.154 271.438 122.19 271.408C128.225 271.237 125.561 276.717 117.905 280.222C113.027 282.455 114.593 283.421 122.216 282.88C125.735 282.63 129.346 282.046 130.242 281.582C131.139 281.118 132.522 280.394 133.317 279.973C140.028 276.416 141.439 275.905 144.553 275.905C146.705 275.905 148.288 276.306 148.861 276.996L149.766 278.086L147.797 280.928C146.714 282.491 146.052 284.134 146.327 284.579C147.144 285.902 158.329 284.319 165.479 281.867C173.363 279.164 188.922 273.669 196.557 270.891C201.128 269.228 206.332 267.383 208.12 266.791C216.648 263.968 223.694 258.668 234.32 247.08C237.003 244.154 239.198 241.449 239.198 241.067C239.198 240.685 240.271 239.017 241.583 237.36C249.157 227.792 256.175 211.378 258.717 197.29L260.317 188.42L259.935 181.751C257.997 147.916 236.771 116.978 209.205 107.808C204.832 106.354 200.929 104.907 200.532 104.594C200.134 104.279 198.634 103.803 197.2 103.535L194.59 103.048L193.044 105.013ZM111.353 136.991C110.971 137.705 110.671 141.721 110.688 145.917C110.707 150.801 110.384 154.168 109.79 155.279C109.279 156.234 108.872 157.177 108.885 157.376C109.258 162.918 93.7498 179.688 83.4674 184.861L79.8342 186.689L79.6109 188.973L79.3875 191.256L81.198 192.442L83.0085 193.628L90.4556 192.869C102.814 191.608 105.067 190.478 117.721 179.191C121.926 175.44 127.049 171.544 129.105 170.533C131.161 169.521 133.227 167.976 133.696 167.1L134.549 165.506L132.002 161.803C128.417 156.593 124.278 145.574 124.28 141.251L124.283 137.773L121.061 138.257L117.838 138.74L115.374 137.217C112.381 135.368 112.226 135.358 111.353 136.991ZM188.751 138.729C186.964 140.516 189.385 146.358 192.005 146.585C200.844 147.348 206.105 149.649 212.191 155.412C216.657 159.642 219.739 160.998 221.521 159.519C222.788 158.468 222.295 157.243 218.338 151.594C214.624 146.291 214.492 146.147 211.011 143.6C205.481 139.552 191.079 136.401 188.751 138.729ZM215.709 210.689C210.665 211.825 212.88 215.426 220.046 217.738L221.491 218.204L218.747 219.625L216.003 221.046L205.952 220.831L195.902 220.616L194.732 221.777L193.562 222.938L194.731 224.107C195.373 224.75 197.104 225.609 198.577 226.017C200.05 226.425 201.739 227.07 202.333 227.451L203.41 228.144L202.542 229.012C201.293 230.262 195.804 229.883 187.207 227.956C183.091 227.032 178.957 226.423 178.021 226.602C175.497 227.085 175.916 229.283 178.883 231.116C182.879 233.586 181.162 235.198 174.366 235.359C165.303 235.575 164.03 242.482 172.917 243.218C176.289 243.498 187.113 241.499 189.195 240.212C189.495 240.027 193.059 239.51 197.112 239.063C207.417 237.93 211.596 236.295 219.427 230.331C228.375 223.516 234.273 216.302 233.194 213.492C232.743 212.316 218.571 210.043 215.709 210.689ZM215.219 242.517C212.648 244.681 212.631 246.475 215.166 248.322C217.43 249.971 217.142 250.572 213.759 251.265C210.709 251.888 210.56 253.791 213.541 254.049C216.529 254.308 219.076 252.816 219.903 250.323L220.598 248.23L218.876 246.862L217.155 245.493L218.781 244.35C219.675 243.72 220.407 242.664 220.407 242.003C220.407 240.226 217.612 240.503 215.219 242.517ZM182.501 246.933C182.25 247.34 181.848 250.886 181.609 254.812L181.175 261.951L182.705 262.351C184.61 262.85 189 261.901 190.481 260.671C195.341 256.638 193.585 249.302 188.245 251.332C185.319 252.444 185.024 252.255 185.195 249.373L185.354 246.69L184.157 246.441C183.498 246.305 182.754 246.526 182.501 246.933ZM162.696 249.394C161.591 250.726 157.198 266.421 157.772 266.993C158.033 267.255 159.956 266.937 162.044 266.287C164.132 265.636 166.734 264.927 167.828 264.709C169.009 264.474 169.815 263.842 169.815 263.15V261.987L165.488 262.476L161.161 262.965L161.584 261.864C161.816 261.258 162.576 258.141 163.271 254.937C164.495 249.295 164.305 247.457 162.696 249.394Z" fill="#FBFDFD"/>
</svg>
