<svg width="300" height="373" viewBox="0 0 300 373" fill="none" xmlns="http://www.w3.org/2000/svg">
<path fill-rule="evenodd" clip-rule="evenodd" d="M236.977 1.41257C236.722 1.82466 235.805 1.97722 234.939 1.75073C233.525 1.38032 230.643 2.42705 229.613 3.68456C229.397 3.9488 228.07 4.75411 226.664 5.47448L224.108 6.7839V9.96109C224.108 14.4328 224.96 15.916 230.841 21.686C232.384 23.1999 234.388 25.2258 235.294 26.1884C236.199 27.1502 238.122 28.3282 239.568 28.8048C242.226 29.6817 242.858 30.6215 241.397 31.5243C240.281 32.214 241.226 33.4825 242.854 33.4825C243.598 33.4825 244.812 34.1903 245.553 35.0554C246.294 35.9205 247.434 36.6282 248.087 36.6282C248.74 36.6282 249.274 37.1386 249.274 37.7631C249.274 38.3875 249.917 39.3611 250.702 39.9258C251.488 40.4912 252.367 41.5891 252.657 42.3653C252.947 43.1415 254.428 44.2968 255.948 44.9322C258.788 46.1189 259.459 47.2278 257.728 47.8742C257.101 48.1086 257.815 49.3063 259.694 51.1757C261.317 52.7887 262.643 54.7107 262.643 55.4452C262.643 56.1798 263.705 57.7982 265.003 59.0416C267.413 61.3506 267.995 63.0249 266.556 63.5046C266.109 63.6532 266.986 66.2846 268.517 69.3926C270.04 72.4833 271.376 75.8429 271.487 76.8574L271.687 78.7024L270.311 78.4712C268.343 78.1409 268.581 79.1751 271.662 84.3474C273.162 86.8656 274.489 89.8108 274.611 90.8921L274.833 92.8582L273.064 92.6121C271.167 92.3486 270.66 93.8759 272.151 95.3669C273.225 96.4404 273.394 108.154 272.346 108.856C270.813 109.882 270.634 112.057 271.713 116.573C273.153 122.602 273.145 125.438 271.687 125.997C270.86 126.315 270.508 127.606 270.508 130.323C270.508 135.205 268.705 139.815 267.045 139.178C266.203 138.855 265.722 139.375 265.401 140.956C263.808 148.809 258.711 157.7 258.711 152.627C258.711 151.022 257.656 151.145 256.032 152.939C253.41 155.837 243.904 157.214 243.252 154.79C243.048 154.033 241.135 152.611 238.999 151.629C235.375 149.962 233.907 148.302 236.059 148.302C236.576 148.302 235.887 147.152 234.526 145.746C232.709 143.869 232.054 142.459 232.054 140.437C232.056 138.924 231.949 136.629 231.818 135.337L231.579 132.989L233.152 132.978L234.725 132.966L234.61 131C233.805 117.242 230.727 99.7395 228.74 97.6161C228.355 97.2048 228.04 96.2674 228.04 95.5313C228.04 89.1109 212.438 68.2342 199.449 57.2753C187.174 46.9187 170.63 36.6282 166.256 36.6282C165.119 36.6282 162.188 36.0109 159.742 35.2567L155.295 33.8844L141.14 33.8805L126.984 33.8757L121.463 35.2205C106.282 38.9176 90.2031 38.5715 81.5618 34.3618C78.7927 33.013 75.9364 31.9097 75.2137 31.9097H73.8995V28.1175C73.8995 26.0319 73.3443 22.6974 72.6664 20.7069L71.4333 17.0878L68.4189 16.5781C65.4234 16.0725 64.913 16.2408 56.9912 20.3436C55.6936 21.016 52.8624 21.7466 50.6998 21.9668C48.5371 22.187 45.352 22.7233 43.6219 23.159C41.8917 23.5947 36.9372 24.7217 32.6118 25.663C27.7162 26.7278 23.3177 28.2401 20.9592 29.6675L17.1702 31.96L14.8038 29.9687C13.5022 28.8732 11.9742 27.9775 11.408 27.9775C10.8418 27.9775 9.36485 27.449 8.12543 26.8026C5.10002 25.225 4.48029 25.2997 2.0683 27.5355L0 29.452L0.378265 35.2032C0.804511 41.685 1.47849 45.4843 2.30424 46.0654C2.61174 46.2817 3.80947 48.0874 4.96474 50.0786C6.1208 52.0699 7.77152 54.3364 8.63267 55.1157C11.997 58.16 10.1143 61.0195 6.09248 58.974C2.96955 57.3854 3.34941 57.8855 7.30439 60.5696C10.156 62.5043 14.1306 63.2907 14.1306 61.9192C14.1306 61.555 13.6131 59.537 12.9801 57.4341C11.6337 52.9617 11.9664 52.2028 14.2643 54.5007L15.9276 56.1632L16.1525 61.5346C16.2768 64.4892 16.8454 68.2853 17.4171 69.9722L18.456 73.0385L21.9949 74.0892C26.7749 75.5079 26.5492 75.6172 27.1547 71.5805L27.6919 67.9975L25.8862 66.0755C23.5214 63.5589 22.9182 63.6477 21.6355 66.6983C20.8798 68.4945 20.798 69.6781 21.3564 70.7217L22.1475 72.1994L21.1244 71.8589C19.9817 71.4775 19.1858 68.7171 18.6369 63.2278L18.2688 59.5504L19.5421 60.2055C20.2428 60.5657 22.4078 61.2837 24.3542 61.802C26.3007 62.3195 28.3674 63.1303 28.9478 63.6037L30.0016 64.464L29.4401 71.5836C29.1318 75.4985 28.5947 79.4543 28.2463 80.3736L27.6132 82.0448L25.5905 81.6586C23.5426 81.267 22.7248 82.5363 24.569 83.2441C25.1202 83.4548 26.3856 85.936 27.3812 88.757C29.4606 94.6466 29.7366 94.7976 38.4479 94.8133L44.2848 94.8243L47.7302 91.2287C51.8605 86.9175 52.9183 84.6101 53.3516 78.9682C53.42 78.0843 54.4699 77.489 56.5957 77.1296C59.8216 76.5846 63.6861 74.1309 62.7691 73.21C62.4868 72.9269 60.7716 73.4514 58.9573 74.377C57.143 75.3027 55.136 75.8587 54.4974 75.6141C53.8581 75.3687 52.8058 75.6975 52.1578 76.3455C50.6675 77.8358 48.7337 77.8688 48.7337 76.4037C48.7337 75.1194 57.0722 69.6584 59.0328 69.6584C59.7508 69.6584 60.7779 69.1276 61.3166 68.4788L62.2957 67.2991H60.9541C58.7717 67.2991 60.0166 65.5194 62.9367 64.464C64.5331 63.8876 65.038 63.4621 64.1698 63.4267L62.6968 63.367L63.6759 62.1873C64.2146 61.5385 65.296 61.0077 66.08 61.0077C66.8641 61.0077 68.4519 60.6483 69.6088 60.2079L71.7109 59.4089L70.7428 58.2418L69.7747 57.0755H70.7923C72.0506 57.0755 81.9125 53.2125 82.8145 52.3663C84.0862 51.1733 74.2448 53.8991 70.1679 55.8691C63.1364 59.2665 61.9992 57.5804 68.3347 53.1512C71.125 51.2001 70.5493 49.9968 67.5845 51.5831C65.3062 52.802 64.6723 51.9385 66.4237 50.0023L67.8519 48.4247H66.5503C64.4828 48.4247 65.0238 47.0949 68.0555 44.723C69.5993 43.515 71.3782 41.5529 72.0082 40.3638C73.2303 38.0564 75.4724 37.4202 75.4724 39.3808C75.4724 40.7161 76.704 40.9623 77.4385 39.774C77.7059 39.3414 78.3272 38.9875 78.8187 38.9875C79.9747 38.9875 74.7827 44.4242 72.7199 45.375L71.147 46.0993L73.1131 45.7524C74.1944 45.5621 75.916 45.1485 76.9383 44.8339L78.7974 44.2622L78.2611 45.9506C77.9198 47.028 78.0621 47.6383 78.6567 47.6383C79.2009 47.6383 79.4171 48.2926 79.1765 49.2112C78.6913 51.0672 79.5721 51.193 82.4292 49.6752C83.5774 49.0649 85.7951 48.0095 87.357 47.33C88.9196 46.6506 90.6443 45.5574 91.1892 44.9C92.3469 43.5056 93.5604 43.3342 93.5604 44.5665C93.5604 45.0391 92.8526 45.6117 91.9875 45.8374C89.0722 46.6002 90.3839 47.2459 94.5426 47.0965L98.6722 46.9478L94.9366 47.7712C90.7544 48.6937 89.9483 49.9976 93.5604 49.9976C96.2067 49.9976 96.7658 51.4966 94.3554 52.1265C93.4951 52.3514 92.9855 52.8492 93.2222 53.233C93.4597 53.616 93.013 53.9581 92.2305 53.9919C91.2773 54.0336 91.5219 54.3143 92.9705 54.8436C94.1596 55.2785 95.1332 55.958 95.1332 56.3544C95.1332 57.5458 89.0447 57.166 87.7746 55.8959C86.2379 54.3592 83.0646 54.4032 77.7782 56.0343C72.3967 57.6952 74.741 58.4769 80.7667 57.0315L84.9607 56.0256L85.8785 56.9434C86.3842 57.4491 88.4957 57.8619 90.5719 57.8619C92.6481 57.8619 94.3468 58.2158 94.3468 58.6484C94.3468 59.0809 93.2851 59.4348 91.9875 59.4348C90.6899 59.4348 89.6282 59.7887 89.6282 60.2212C89.6282 60.6538 91.0225 61.0077 92.7275 61.0077C95.8984 61.0077 97.7064 62.2463 95.6751 63.0257C95.053 63.2647 90.8763 63.1279 86.3936 62.7213C81.9109 62.3155 77.5313 62.2723 76.6607 62.6254L75.0792 63.2671L76.8487 63.4157C77.8223 63.4967 78.972 63.6525 79.4046 63.7602C79.8371 63.8679 81.097 64.0008 82.2035 64.0551C85.9445 64.2376 83.2856 65.7263 79.1616 65.7577L75.0792 65.7884L80.5842 67.9865C86.2426 70.2459 88.3086 70.3607 86.2489 68.3018L85.0779 67.1309L86.6162 65.5926L88.1536 64.0551L90.218 64.7432C92.7857 65.5989 93.4833 67.2991 91.2663 67.2991C89.2601 67.2991 89.1516 69.0026 90.9628 72.0689C92.792 75.165 91.7657 75.7769 88.6664 73.438C86.4172 71.7409 79.4926 69.3085 78.821 69.9793C78.6889 70.1122 80.7124 70.9977 83.3179 71.9478C86.1301 72.9733 88.0553 74.1372 88.0553 74.8127C88.0553 76.4225 87.3397 76.2629 82.2892 73.5277C79.8292 72.1955 77.4456 71.229 76.991 71.3807C76.5364 71.5317 78.4829 72.8875 81.3172 74.3928C84.1507 75.898 86.4722 77.3946 86.4762 77.7194C86.4888 78.8345 84.0272 78.3061 80.7352 76.4871C76.1817 73.9697 74.8134 73.5348 74.2613 74.4282C74.0002 74.8505 74.9746 75.6927 76.4271 76.2999C80.3931 77.9569 85.9375 83.1678 85.5922 84.9144L85.3028 86.3788L81.3706 82.8485C79.208 80.9068 76.5537 79.0799 75.4724 78.7882C74.1331 78.428 74.4257 78.7638 76.3909 79.8428C78.9712 81.2591 84.9096 87.5113 84.9096 88.8104C84.9096 90.4415 82.1956 88.7585 78.755 84.9939C73.6809 79.4425 72.6593 79.3591 77.3779 84.8822C82.7697 91.1933 81.7151 91.7784 75.5062 85.9211C70.1648 80.8824 66.7666 78.4162 66.8759 79.6579C66.9058 79.9977 69.0174 81.9575 71.567 84.0132C77.0453 88.4298 81.4524 94.6898 84.4385 102.295C85.6276 105.323 87.1368 108.633 87.7919 109.651C88.4478 110.669 89.268 113.512 89.6156 115.969C89.9632 118.427 90.9604 122.018 91.8326 123.95C95.506 132.085 98.1437 142.351 98.5959 150.268C98.8428 154.593 99.1952 159.371 99.3776 160.885C99.5608 162.399 99.369 166.645 98.9506 170.322L98.1893 177.007L96.1092 179.182C94.3216 181.051 91.3174 182.339 86.4856 183.307C77.7483 185.057 74.8794 187.029 71.4954 193.61C69.1856 198.1 68.0579 198.677 60.6552 199.152C53.6135 199.605 51.509 200.444 50.349 203.261C49.2716 205.876 48.6212 228.906 49.5555 231.364L50.2578 233.21L53.6001 233.745L56.9432 234.279L59.6517 237.297C61.2222 239.046 63.0821 240.314 64.0762 240.314C65.0199 240.314 66.408 240.996 67.1622 241.829L68.5329 243.344L68.864 255.788C69.1707 267.321 70.083 279.752 71.25 288.287C71.8383 292.59 71.8171 293.134 70.7098 302.141L69.8282 309.31L71.6008 312.758C73.6667 316.776 74.6655 327.485 73.6817 335.08C72.6837 342.784 73.3207 369.815 74.5287 371.021L75.551 372.042L96.3561 372.094C107.8 372.122 119.372 371.852 122.072 371.495C127.859 370.728 140.119 370.184 160.925 369.771L175.991 369.472L181.321 366.954L186.65 364.436L190.23 364.973C192.199 365.268 194.7 365.961 195.786 366.513L197.763 367.518L212.705 366.948C220.923 366.634 228.352 366.631 229.213 366.938C230.074 367.246 231.699 367.234 232.823 366.912C233.947 366.59 238.228 366.332 242.335 366.34C247.134 366.348 250.621 365.96 252.094 365.255L254.386 364.157L254.933 359.842C255.234 357.469 255.145 354.25 254.736 352.688C254.259 350.871 254.274 348.36 254.776 345.714C255.207 343.439 255.489 337.285 255.403 332.037L255.246 322.497L256.898 317.778L258.549 313.059L258.21 307.572C258.022 304.516 257.337 301.269 256.666 300.245L255.46 298.405L256.396 297.278L257.331 296.151L256.251 296.152L255.172 296.153L255.069 288.877C254.507 249.473 254.13 234.881 253.651 234.106C253.34 233.603 253.121 228.159 253.164 222.008C253.25 209.649 251.983 196.135 250.463 193.187C249.254 190.844 244.138 189.184 239.565 189.652C232.937 190.33 202.387 191.346 199.569 190.981L196.657 190.606L198.293 188.393L199.929 186.181L199.412 183.429C199.051 181.503 197.595 179.42 194.558 176.483C192.173 174.175 189.346 170.831 188.276 169.049L186.332 165.811L187.209 161.721C188.198 157.109 189.598 156.081 191.969 158.227L193.588 159.692L195.175 157.732C196.053 156.649 197.404 155.879 198.196 156.01C199.012 156.146 200.002 155.552 200.493 154.634C201.55 152.659 203.553 152.529 204.15 154.397C204.392 155.153 204.876 156.481 205.226 157.346C206.353 160.135 207.452 163.578 207.986 165.992C208.648 168.99 209.558 170.061 212.71 171.557C214.374 172.346 215.647 173.77 216.398 175.683L217.545 178.605L221.62 178.524L225.694 178.445L229.024 181.658L232.353 184.871L232.618 183.043L232.884 181.215L236.163 181.756C237.968 182.053 239.861 182.633 240.372 183.045C240.883 183.457 243.272 183.997 245.681 184.246L250.061 184.698V183.408V182.118H253.993C257.94 182.118 258.673 181.608 257.053 179.988C256.415 179.35 257.576 178.966 261.389 178.558C265.7 178.097 269.641 176.613 266.557 176.613C264.126 176.613 266.76 174.679 270.49 173.724C275.472 172.449 276.991 171.378 276.411 169.55C276.102 168.576 276.79 167.847 278.949 166.863C283.39 164.839 285.242 163.301 284.093 162.591C283.423 162.177 284.012 161.069 286.063 158.883C287.673 157.169 289.697 154.92 290.562 153.885L292.135 152.005L289.953 152.407C286.803 152.988 286.702 152.011 289.592 148.925C290.99 147.432 292.925 144.712 293.891 142.882L295.646 139.553L294.153 140.028C291.561 140.85 291.63 139.135 294.418 133.408C295.906 130.351 297.356 126.788 297.64 125.492L298.158 123.136H296.915C294.946 123.136 296.209 115.63 298.9 111.339C300.506 108.78 300.309 103.872 298.601 103.858C296.514 103.842 296.437 103.147 298.052 98.898C299.948 93.9073 300.048 92.1268 298.396 92.7607C296.832 93.3608 295.994 91.2224 297.216 89.7494C298.631 88.0437 297.636 78.9722 295.891 77.6934C294.982 77.0265 294.601 75.8799 294.765 74.3118C294.902 73.0063 294.574 71.4083 294.036 70.761C293.452 70.0564 293.126 67.7262 293.226 64.9619L293.392 60.3408L291.584 60.0844L289.775 59.828L289.192 53.9754C288.871 50.7565 288.251 47.7657 287.816 47.33C287.38 46.8943 287.023 45.8783 287.023 45.0722C287.023 44.0042 286.543 43.6739 285.253 43.8532L283.484 44.0994L283.238 41.1093L282.991 38.1193L281.394 38.3568L279.798 38.5943L278.611 35.0554C277.958 33.109 276.93 30.9581 276.325 30.2746C275.721 29.592 275.226 28.2858 275.226 27.3719C275.226 25.295 273.918 24.4197 272.531 25.5702L271.478 26.4447L270.993 25.1809C270.726 24.4857 270.497 23.3265 270.483 22.6046C270.469 21.8834 269.231 20.0715 267.73 18.578C266.23 17.0854 265.003 15.5573 265.003 15.183C265.003 14.8087 264.383 14.6852 263.627 14.9093C262.664 15.194 261.602 14.3832 260.095 12.2103C257.731 8.80109 256.352 8.2388 256.352 10.6822V12.2622L254.779 11.2799C253.914 10.7397 253.206 9.9139 253.206 9.4444C253.206 8.19711 249.767 5.17093 248.35 5.17093C247.682 5.17093 245.909 4.33966 244.412 3.3228C241.332 1.23325 237.669 0.291901 236.977 1.41257ZM128.819 66.5119C128.675 66.9445 128.757 70.0406 129.002 73.3932C129.463 79.7169 129.327 81.1647 128.509 78.6183C127.438 75.2893 125.469 70.7901 124.757 70.0517C124.267 69.5436 124.203 69.822 124.574 70.8381C125.505 73.3877 125.954 90.5697 125.066 89.6818C124.642 89.2579 124.235 86.437 124.162 83.4132C124.017 77.3859 123.385 75.2681 122.641 78.3171L122.164 80.2753L120.383 74.9755C117.365 65.9874 116.534 66.8367 118.218 77.1893C119.344 84.1107 119.847 85.3871 121.45 85.3871C122.886 85.3871 123.467 93.2923 122.069 93.8287C121.497 94.0481 121.086 95.5966 121.086 97.5296C121.086 99.3581 120.861 101.078 120.587 101.352C120.312 101.627 119.923 105.098 119.723 109.067L119.356 116.282L121.086 115.83L122.814 115.379L122.354 117.095C122.101 118.038 121.888 119.389 121.883 120.095C121.877 120.802 121.164 121.565 120.299 121.791C118.471 122.269 118.166 123.922 119.906 123.922C120.555 123.922 121.086 123.525 121.086 123.04C121.086 122.423 121.435 122.446 122.245 123.119L123.403 124.08L122.242 126.326C121.604 127.561 121.089 129.737 121.099 131.162C121.124 134.668 121.086 137.37 120.985 139.258C120.938 140.123 120.917 141.892 120.938 143.19C121.089 152.699 120.919 155.812 120.198 156.68C119.745 157.227 119.584 158.662 119.842 159.869C120.12 161.171 119.828 162.981 119.125 164.317C118.463 165.576 117.94 168.589 117.94 171.147C117.94 176.819 117.172 178.89 113.341 183.554C111.679 185.576 109.881 188.348 109.346 189.715L108.371 192.2L109.276 193.891C110.498 196.173 111.955 195.52 112.435 192.476L112.828 189.982L115.974 188.323C117.704 187.412 119.65 186.218 120.299 185.671C121.938 184.292 126.058 182.549 132.217 180.63C138.065 178.809 140.987 177.154 148.03 171.673C150.688 169.605 153.676 167.708 154.669 167.458C157.147 166.837 157.026 166.539 152.502 162.101C149.658 159.309 147.385 155.852 144.487 149.911L140.443 141.617L140.478 136.112L140.513 130.607L142.551 126.675C146.436 119.182 158.188 111.339 165.532 111.339C170.543 111.339 178.943 108.489 181.244 106.008C183.542 103.531 183.792 102.291 181.837 103.068C181.081 103.369 179.633 103.774 178.621 103.967C177.609 104.16 175.928 104.876 174.885 105.56L172.99 106.802V105.628C172.99 104.983 173.521 104.014 174.17 103.475C174.819 102.936 175.349 101.743 175.35 100.823C175.351 98.4293 179.597 90.0239 181.83 87.9949C184.109 85.925 186.703 79.8813 185.313 79.8837C184.807 79.8844 183.388 81.477 182.158 83.4226C180.929 85.3682 179.623 86.96 179.256 86.96C177.707 86.96 177.721 85.2259 179.287 83.2354C180.46 81.7436 180.674 81.0019 179.996 80.7755C179.462 80.5977 178.54 81.116 177.947 81.9276C177.353 82.7392 176.337 83.4069 175.689 83.4124C175.041 83.4171 174.182 83.9503 173.781 84.5967L173.052 85.7724L171.906 84.2051C171.275 83.3424 170.497 82.8996 170.175 83.2205C169.222 84.1752 167.233 80.7464 168.106 79.6516C168.522 79.1295 168.592 77.9946 168.259 77.1296L167.654 75.5567L167.105 77.1296C165.81 80.8392 164.971 81.8537 163.105 81.963L161.139 82.0786L161.668 80.3901C161.958 79.4621 162.362 78.2604 162.565 77.7194C163.421 75.4427 161.445 76.9966 159.782 79.9088L157.977 83.0695L156.821 81.9134L155.666 80.7582L156.768 77.5589C158.43 72.7334 156.76 72.9001 154.605 77.7744C151.491 84.8162 149.27 85.001 151.29 78.0497C152.82 72.7869 152.82 72.8042 151.363 72.8042C150.7 72.8042 150.184 73.5065 150.184 74.4085C150.184 75.2909 149.387 77.5023 148.414 79.3237L146.645 82.6346L146.388 79.4889C146.247 77.7587 146.762 74.4871 147.532 72.2183L148.934 68.0942L148.011 67.1718L147.09 66.25L146.803 67.3644C145.437 72.6925 142.468 80.2257 141.625 80.5065C140.92 80.7416 140.72 80.3767 141.007 79.3851C141.241 78.5774 141.641 75.6715 141.897 72.9284L142.36 67.9409L141.357 68.268C140.449 68.5645 139.939 70.5912 138.632 79.0956L138.209 81.8482L137.461 79.8821C137.049 78.8007 136.952 75.8351 137.245 73.2926C137.627 69.9817 137.53 68.8225 136.903 69.2102C136.422 69.5074 136.022 70.5267 136.016 71.4743C136.009 72.422 135.66 73.7282 135.241 74.377C134.686 75.2366 134.472 74.5957 134.455 72.0177C134.438 69.4398 134.224 68.7989 133.668 69.6584C132.663 71.2132 132.663 75.9499 133.668 75.9499C134.101 75.9499 134.455 76.524 134.455 77.2255V78.5019L133.275 77.5228L132.096 76.5437L132.084 79.9827C132.075 82.4922 131.866 83.1025 131.309 82.2414C130.89 81.5926 130.542 77.6116 130.535 73.394C130.524 66.8351 129.749 63.724 128.819 66.5119ZM60.5302 81.2583C60.5302 81.5831 61.7727 82.8398 63.2921 84.0517C67.4288 87.3524 72.182 97.1836 69.6418 97.1836C68.6226 97.1836 63.6759 90.123 63.6759 88.6689C63.6759 87.4515 58.8362 84.4788 57.6164 84.9467L56.3841 85.4201L57.8445 87.1731C58.6482 88.1373 60.1369 89.8564 61.153 90.9936L63.0011 93.0611L62.0983 96.4145C61.6013 98.2594 60.1605 102.027 58.8967 104.787C57.6322 107.547 56.598 109.969 56.598 110.168C56.598 110.367 55.5332 112.26 54.2324 114.373C52.9317 116.488 51.4595 119.413 50.9616 120.873C49.5248 125.091 46.2635 129.301 38.5486 136.898C34.5952 140.791 30.5199 145.591 29.492 147.565C28.4641 149.538 27.0399 151.637 26.3274 152.228L25.0329 153.303L25.5197 159.256C26.1756 167.292 26.5429 168.749 27.9081 168.749C28.5491 168.749 29.0728 169.103 29.0728 169.535C29.0728 170.915 31.3464 170.379 32.1911 168.801C33.432 166.481 33.1702 164.424 31.4321 162.851C30.5671 162.068 29.8593 160.731 29.8593 159.88V158.333L31.0389 159.312C31.6877 159.851 32.2186 160.922 32.2186 161.694C32.2186 163.938 34.9286 162.697 35.9526 159.985C36.6092 158.245 36.6163 157.108 35.9777 155.708C34.8508 153.234 35.4438 152.732 38.0744 153.93L40.2009 154.9L44.0167 150.814C46.1156 148.568 48.1832 146.729 48.6118 146.729C49.0412 146.729 50.1477 145.506 51.0709 144.012L52.75 141.295L54.6744 142.026L56.598 142.757V141.663C56.598 141.061 56.156 140.408 55.615 140.21C55.0747 140.014 56.0475 139.603 57.7777 139.297C62.5867 138.449 62.7243 138.354 62.3075 136.174L61.9198 134.146H63.2646C64.0046 134.146 64.795 133.438 65.0207 132.573C65.2472 131.708 65.933 131 66.5448 131C67.1567 131 67.8857 130.381 68.1641 129.624C68.4425 128.867 69.7763 127.186 71.1282 125.888C72.4792 124.591 73.835 122.876 74.1394 122.078C74.4445 121.28 75.4 120.442 76.2628 120.217C77.1255 119.991 77.8317 119.355 77.8317 118.803C77.8317 118.251 78.4215 117.573 79.1427 117.296L80.4537 116.793L79.5359 115.875C78.2163 114.555 78.3971 113.875 80.224 113.295C81.3415 112.941 81.6907 112.347 81.3714 111.343C81.1198 110.548 81.3046 109.657 81.7827 109.362C82.3867 108.988 82.2884 108.422 81.4619 107.508C80.6872 106.652 80.5134 105.798 80.9656 105.067C82.0831 103.259 80.9468 99.4179 78.1675 95.6107C72.9039 88.4015 60.5302 78.3312 60.5302 81.2583ZM176.526 157.842C176.834 159.732 177.581 163.21 178.184 165.572C178.788 167.933 179.282 170.482 179.282 171.233C179.282 173.648 171.321 178.542 161.587 182.114C158.992 183.065 155.983 184.211 154.902 184.659C153.821 185.108 152.228 185.732 151.363 186.047C150.498 186.362 147.667 187.537 145.072 188.658C142.476 189.778 139.557 190.913 138.584 191.178C134.195 192.377 137.206 193.228 144.792 192.935L152.769 192.627L154.256 190.791C155.875 188.791 161.779 185.803 166.754 184.463C169.004 183.856 169.833 183.244 169.674 182.303L169.451 180.99L173.58 179.868C175.851 179.25 177.709 178.382 177.709 177.938C177.709 177.493 178.241 176.543 178.892 175.823C181.252 173.215 179.654 155.634 176.974 154.742L175.966 154.405L176.526 157.842ZM179.796 243.208C179.717 243.286 175.588 243.575 170.621 243.849C165.652 244.124 160.348 244.663 158.834 245.048C157.32 245.433 155.02 245.598 153.722 245.414C152.425 245.23 144.922 244.903 137.048 244.689L122.732 244.298L121.039 246.434L119.346 248.572L119.922 254.47C120.239 257.714 120.386 261.607 120.25 263.121C119.673 269.517 120.961 295.232 121.951 297.082C122.34 297.811 122.672 301.881 122.687 306.126C122.731 317.475 123.984 333.968 124.871 334.855C126.206 336.189 178.288 333.11 188.687 331.081C191.949 330.445 197.34 329.732 200.669 329.496C203.998 329.261 207.714 328.803 208.927 328.48L211.132 327.892L211.707 322.442C212.378 316.079 212.371 316.655 212.026 297.331C211.88 289.113 211.37 278.496 210.895 273.738C210.418 268.98 209.805 260.84 209.531 255.65L209.034 246.213L207.33 244.854C206.303 244.033 204.068 243.443 201.695 243.363C195.624 243.161 179.955 243.05 179.796 243.208ZM173.721 251.231C170.627 257.466 167.834 262.206 165.803 264.677C161.902 269.418 163.672 271.444 167.878 267.053C170.511 264.305 173.347 263.996 174.591 266.319L175.461 267.945L174.184 269.895C172.701 272.156 173.269 274.929 175.205 274.893C176.745 274.864 178.816 272.235 179.524 269.412C179.795 268.331 181.613 266.208 183.564 264.694C185.516 263.18 187.02 261.41 186.907 260.762L186.701 259.582L182.673 259.684L178.645 259.787L178.34 257.172C178.172 255.735 178.328 253.765 178.686 252.796C180.232 248.619 175.724 247.198 173.721 251.231ZM157.478 256.24C157.489 258.078 157.031 260.821 156.462 262.335L155.425 265.087L151.256 265.128C145.963 265.181 145.964 265.177 147.147 270.902L148.139 275.704H149.972C152.423 275.704 153.072 273.666 151.481 270.973C149.402 267.453 149.775 266.267 152.96 266.267C154.519 266.267 155.853 266.698 155.999 267.25C156.143 267.791 156.701 270.002 157.242 272.165C157.781 274.328 158.392 276.68 158.599 277.392L158.975 278.688L155.563 279.258C153.686 279.572 150.493 280.478 148.47 281.272C146.039 282.225 143.303 282.632 140.409 282.472L136.028 282.229V283.724C136.028 289.323 143.564 294.023 144.881 289.244C145.426 287.265 152.093 284.197 161.582 281.557C163.742 280.955 165.905 279.923 166.388 279.263C166.87 278.603 167.622 278.063 168.058 278.063C168.901 278.063 170.005 284.245 169.351 285.302C168.559 286.583 164.71 285.915 163.716 284.324C162.216 281.922 160.962 283.266 161.587 286.608C162.355 290.722 163.126 291.336 166.926 290.859C170.706 290.385 173.777 288.008 173.777 285.555C173.777 283.067 175.252 282.019 178.02 282.539C181.02 283.103 183.214 284.91 183.214 286.818C183.214 287.606 184.113 288.84 185.212 289.56L187.21 290.869L189.204 289.96L191.198 289.052L190.654 286.507C189.742 282.24 185.942 280.044 182.655 281.884L181.25 282.67L178.677 280.708C177.262 279.629 174.785 278.538 173.171 278.284C169.671 277.734 167.122 275.89 164.395 271.938L162.381 269.019L162.347 261.939C162.309 254.052 161.917 252.897 159.28 252.897H157.46L157.478 256.24ZM155.427 292.744C155.138 293.031 154.902 294.073 154.902 295.056C154.902 296.04 154.548 297.063 154.116 297.331C152.825 298.128 153.218 300.517 155.016 302.802L156.703 304.947L160.325 304.461L163.946 303.976L159.787 307.906C157.241 310.311 154.418 312.161 152.512 312.675C148.169 313.844 148.313 315.821 152.739 315.784C156.538 315.752 158.307 314.919 162.284 311.29C165.979 307.917 167.778 308.022 170.248 311.754C172.443 315.071 177.779 318.958 180.138 318.958C182.089 318.958 189.479 314.882 189.494 313.798C189.5 313.339 187.648 312.496 185.376 311.923C175.309 309.386 170.744 304.65 176.312 302.521C177.297 302.145 178.776 301.088 179.599 300.175L181.097 298.512L179.282 296.938C176.586 294.6 171.298 294.883 165.589 297.668C163.032 298.916 160.426 299.74 159.797 299.498L158.653 299.059L159.122 295.639L159.591 292.219H157.771C156.77 292.219 155.715 292.455 155.427 292.744Z" fill="#FBFDFD"/>
</svg>
