<svg width="300" height="341" viewBox="0 0 300 341" fill="none" xmlns="http://www.w3.org/2000/svg">
<path fill-rule="evenodd" clip-rule="evenodd" d="M284.173 0.810389C283.634 1.21863 282.783 1.55967 282.283 1.56826C281.783 1.57736 280.672 1.9472 279.814 2.3908L278.255 3.19719L277.079 2.56764L275.902 1.93861L273.711 2.7753L271.519 3.6125L269.105 3.16131C266.435 2.66263 265.242 2.81724 262.967 3.95809L261.437 4.72556L259.128 3.6408L256.82 2.55552L254.596 3.11533C253.373 3.42303 251.804 3.79742 251.109 3.94647C250.414 4.09552 248.02 4.76042 245.789 5.42382C241.143 6.80517 235.668 7.06941 231.146 6.13066C229.154 5.71686 225.906 5.61935 221.21 5.83206L214.233 6.14835L212.374 5.37127L210.515 4.5947L208.707 5.18029C207.713 5.50264 205.371 6.53031 203.502 7.46452C199.792 9.31929 197.923 9.54311 195.298 8.44621C194.355 8.05161 192.287 7.56708 190.704 7.36953C188.592 7.10579 187.041 6.48888 184.882 5.05499C180.768 2.3226 179.341 2.48478 175.819 6.08468C174.156 7.78383 170.812 9.16317 168.354 9.16317C167.864 9.16317 165.773 8.11124 163.707 6.82538L159.95 4.48708L155.962 4.31833C151.324 4.12229 146.368 5.10955 142.838 6.933C141.507 7.62114 139.24 8.48512 137.801 8.85395L135.183 9.52341L133.4 8.77665C131.278 7.88842 125.662 8.19258 123.445 9.31625C122.66 9.71439 120.834 10.3379 119.388 10.7016L116.757 11.3635L113.83 10.4505C112.22 9.94832 110.359 9.3299 109.695 9.07677C105.96 7.64994 98.1128 8.11578 91.1975 10.1747C89.1613 10.781 81.964 10.7668 81.5866 10.1555C81.4209 9.8877 80.7439 9.66841 80.082 9.66841C79.4201 9.66841 78.7299 9.42842 78.5485 9.13436C78.0691 8.35881 73.01 6.13167 71.7277 6.13167C71.1264 6.13167 69.3151 6.94613 67.7024 7.94147C66.0896 8.93681 63.8605 9.87355 62.7489 10.0226L60.7279 10.2934L57.9314 8.97067C54.5492 7.37054 53.567 7.33921 49.719 8.71097C45.4689 10.2257 43.5095 10.3763 39.942 9.46227C36.2693 8.5215 33.2828 8.43864 30.8167 9.20965C28.4314 9.95539 27.3527 10.113 21.4731 10.5728C18.6942 10.7906 16.1265 11.1503 15.7668 11.3726C15.3843 11.6091 14.5785 11.4262 13.8246 10.932C11.9037 9.67398 10.3849 10.3434 8.07894 13.4649C6.95274 14.9892 5.85584 16.2367 5.64161 16.2367C4.95195 16.2367 0 21.3553 0 22.0682C0 23.5047 1.22927 25.367 2.36608 25.652C3.73632 25.996 5.43193 28.1838 6.08067 30.4448L6.53136 32.0171L5.28693 34.9743C4.60232 36.6012 4.04199 38.8627 4.04199 40.0005C4.04199 41.1389 3.60849 43.1351 3.07898 44.4371C0.0479957 51.889 0.0282955 53.0941 2.86729 57.2209C3.89648 58.717 5.03582 61.1912 5.3996 62.7196C6.25448 66.3129 6.32673 85.7928 5.50368 90.8943L4.90445 94.6079L5.5441 97.4842C5.89576 99.0662 6.72486 101.433 7.38674 102.744C9.01162 105.964 8.90906 107.234 6.72739 110.886L4.86555 114.002L4.84787 118.044L4.83069 122.086L6.68394 125.924L8.5377 129.761L9.00303 135.271L9.46887 140.781L8.76153 144.57C8.37198 146.654 7.84601 149.992 7.59237 151.986C7.33823 153.982 6.66323 156.53 6.09179 157.65C4.74025 160.299 4.68871 160.041 7.36956 164.074L9.68714 167.559L9.40471 171.132C9.24959 173.097 8.5276 176.394 7.80004 178.458C5.93516 183.751 5.87554 184.173 6.75569 185.875C9.00758 190.229 9.53052 193.609 8.53518 197.368C6.70112 204.294 6.98204 210.125 9.32083 213.659C10.0241 214.721 10.7461 216.659 10.925 217.965L11.2504 220.34L8.85803 224.98L6.46517 229.62L6.81682 233.371L7.16848 237.124L9.14197 240.849C11.5838 245.458 11.6121 246.946 9.3466 251.545L7.57773 255.135L9.61994 259.093L11.6617 263.051L11.7172 266.716L11.7733 270.381L9.92865 273.902C7.7101 278.137 7.7096 278.152 9.53456 281.621L10.9846 284.378L11.3439 289.649L11.7031 294.919L10.4389 297.778C9.08185 300.846 9.1157 301.894 10.6658 304.829C12.1209 307.583 13.1254 311.254 13.1284 313.828C13.1345 318.812 9.66794 331.796 8.06681 332.786C7.48678 333.145 9.83063 336.68 12.0295 338.762L13.5493 340.202L15.213 339.837C16.1286 339.635 17.899 338.835 19.1474 338.058L21.418 336.645L23.3567 337.634C26.2436 339.106 28.9978 338.964 33.0387 337.131C37.2859 335.206 39.1442 335.16 42.8022 336.89C44.4063 337.649 47.067 338.38 48.9602 338.581L52.2933 338.935L59.6194 336.464C63.6488 335.104 68.196 333.802 69.7244 333.57C73.1661 333.048 82.4294 333.842 84.8616 334.868C87.0867 335.807 94.2284 335.815 97.7657 334.884C99.1551 334.518 100.86 334.277 101.555 334.348C108.818 335.092 110.303 335.143 111.301 334.682C118.717 331.248 124.854 330.039 126.728 331.642C127.849 332.601 131.995 334.544 132.921 334.544C133.324 334.544 134.472 334.982 135.472 335.518C136.472 336.054 138.087 336.642 139.061 336.825L140.831 337.157L145.805 334.738L150.779 332.317L154.193 332.395C156.07 332.437 158.693 332.848 160.022 333.308C162.846 334.286 170.239 334.626 174.58 333.978C180.697 333.065 184.217 332.375 186.324 331.675C189.488 330.625 202.073 330.44 205.587 331.393C208.771 332.257 211.745 331.977 214.965 330.51C218.2 329.036 219.646 329.223 224.652 331.762C230.046 334.497 229.956 334.493 236.238 332.235L241.256 330.431L243.382 331.581L245.507 332.73L247.929 331.904C249.261 331.45 251.374 330.696 252.625 330.227C255.811 329.034 263.397 329.164 266.428 330.463L268.653 331.417L278.359 331.24L288.065 331.064L292.829 327.469C295.448 325.491 297.589 323.602 297.586 323.271C297.583 322.941 297.244 321.42 296.834 319.891C296.424 318.363 296.085 315.342 296.082 313.177L296.076 309.241L294.982 307.114C293.724 304.667 293.408 299.117 294.413 297.111C295.829 294.287 297.085 289.328 296.788 287.741C296.366 285.491 298.758 270.265 299.73 269.012C300.455 268.078 299.685 266.247 297.838 264.507L296.165 262.932L295.826 260.212C295.64 258.717 295.582 255.561 295.699 253.198L295.91 248.904L297.776 243.599L299.642 238.294L298.238 237.159C297.466 236.535 296.664 236.024 296.455 236.023C295.876 236.018 296.004 229.556 296.589 229.194C296.872 229.019 297 228.71 296.873 228.505C296.746 228.3 296.859 227.236 297.121 226.14C297.385 225.043 297.454 221.917 297.276 219.192L296.952 214.238L295.679 212.371C293.366 208.98 292.901 202.701 294.237 192.891L294.985 187.403L296.359 185.969L297.733 184.534L296.339 181.604C293.87 176.415 293.513 174.968 293.863 171.552L294.188 168.379L292.606 166.227L291.023 164.076V161.664C291.023 160.219 291.507 158.156 292.231 156.522C292.894 155.021 293.59 152.681 293.777 151.322L294.117 148.85L292.866 146.584C290.533 142.36 289.577 136.695 290.188 130.719C290.3 129.631 290.183 127.989 289.93 127.07L289.468 125.4L291.159 122.227C292.089 120.483 293.253 117.977 293.746 116.658L294.641 114.262L294.056 112.49C293.735 111.516 293.3 110.718 293.09 110.718C291.801 110.718 290.693 105.673 289.737 95.4385L289.459 92.4656L291.757 87.8047C294.508 82.2242 294.485 82.5152 292.308 80.7782C289.865 78.8289 289.001 76.6897 288.866 72.2582L288.75 68.4617L290.171 66.5933C291.17 65.2792 291.491 64.4086 291.253 63.6583L290.915 62.5917L292.358 61.3761L293.802 60.1605L292.821 59.5456C292.281 59.2071 290.921 58.0981 289.799 57.0815L287.76 55.2328L287.823 51.9861C287.867 49.7463 288.228 48.0699 288.987 46.5814C289.593 45.3946 290.393 42.9669 290.765 41.1869C291.217 39.0249 292.05 37.105 293.272 35.4038L295.101 32.8573L294.773 31.1066C294.592 30.1431 293.944 28.9613 293.333 28.4798C290.845 26.5205 289.021 21.7807 289.009 17.2436L289.002 14.9665L291.233 12.2467C292.46 10.7512 293.352 9.23642 293.216 8.88073C293.079 8.52503 293.332 7.67824 293.778 6.99868L294.587 5.76284L294.105 4.49466C293.766 3.60239 293.111 3.13049 291.899 2.90313C290.95 2.72478 289.644 2.0144 288.995 1.32423C287.662 -0.0950178 285.653 -0.309243 284.173 0.810389ZM117.149 50.969C115.998 52.0088 113.673 54.6806 111.983 56.9057C107.849 62.3502 102.302 67.8302 99.0394 69.6935L96.3626 71.2224L94.5377 70.9405C93.2983 70.749 92.256 70.1149 91.2869 68.9629L89.8606 67.2668L88.2554 67.2779C87.3727 67.284 86.0818 67.7337 85.3871 68.2773C83.7112 69.5884 83.6021 69.5687 81.2082 67.5194C78.9967 65.6268 77.6098 65.3251 76.3325 66.4589C75.4908 67.2062 70.7546 67.9661 67.5988 67.861C66.5686 67.8266 65.5889 68.0196 65.4217 68.2904C64.4354 69.8865 61.5995 67.959 53.6736 60.305C48.8323 55.6294 43.794 52.5605 39.8667 51.8956L38.0508 51.5879L36.817 52.558C33.6748 55.0297 33.3848 70.4413 36.3688 76.3613C41.9842 87.5015 42.5258 89.5296 40.4725 91.7153C39.8919 92.3337 39.2816 93.849 39.1164 95.0843L38.8158 97.3291L40.376 99.0621C42.3485 101.254 42.3459 101.276 39.8677 102.98C34.4656 106.695 34.3403 107.368 38.6591 109.481C42.1838 111.205 43.9567 113.794 43.9567 117.214C43.9567 120.801 45.2107 121.403 54.5669 122.306C56.9289 122.534 60.3894 123.21 62.2568 123.809L65.6521 124.897L69.7592 129.807C74.1488 135.055 75.2452 135.935 77.4294 135.963C78.8669 135.981 79.0174 135.656 78.8431 132.909C78.7198 130.962 79.7975 130.423 83.98 130.344C89.2922 130.243 89.324 130.279 88.1377 135.097L87.7956 136.486H88.8071C90.5437 136.486 94.7696 133.882 95.2354 132.525C95.3936 132.064 96.6279 130.483 97.9784 129.013L100.433 126.34L103.479 125.719C105.153 125.378 107.016 124.652 107.618 124.108L108.711 123.118L107.297 121.991L105.883 120.863L107.788 120.067C108.835 119.63 111.467 119.135 113.635 118.968L117.578 118.664L117.98 119.315C118.589 120.299 117.048 121.162 113.595 121.77C110.098 122.385 109.134 123 109.134 124.613C109.134 126.144 108.066 126.933 105.288 127.452C104.013 127.69 102.139 128.121 101.125 128.409L99.2814 128.931L97.3979 131.841C94.6003 136.162 92.6723 137.761 88.1776 139.486C80.0966 142.588 73.7472 140.331 64.3091 131.002C58.2128 124.976 57.5393 124.613 52.4742 124.613H49.4048L48.3417 127.8L47.2782 130.988L48.0174 131.463C48.4241 131.724 49.9671 132.326 51.447 132.801C54.7251 133.851 55.1464 134.539 54.429 137.672L53.8737 140.099L54.5992 140.571C54.9984 140.83 55.8932 141.185 56.5879 141.36C58.8651 141.933 59.1141 142.457 59.1141 146.679V150.685L60.593 151.201C62.3023 151.797 63.1561 153.716 63.1561 156.962C63.1561 159.796 63.9246 160.367 67.1648 159.937L69.7496 159.594L70.7278 160.479L71.7055 161.364L73.9215 161.031C76.663 160.621 76.8666 160.842 78.5576 166.067C80.1724 171.058 81.7609 173.899 83.2363 174.437L84.37 174.85L85.3916 173.753L86.4138 172.656L89.6666 175.88L92.9193 179.104L94.8873 178.454L96.8557 177.805L100.254 179.378C102.122 180.243 105.277 181.289 107.263 181.703L110.875 182.457L112.334 183.915L113.793 185.373L113.92 192.045C113.999 196.168 113.786 200.003 113.364 202.084C111.652 210.517 111.098 213.756 110.864 216.694L110.612 219.852H111.573C112.102 219.852 113.158 220.342 113.92 220.942C114.839 221.665 116.069 222.047 117.58 222.079L119.854 222.126L121.26 220.442C122.833 218.558 123.281 216.917 123.281 213.03C123.281 211.304 123.542 210.159 124.028 209.756L124.775 209.136L126.404 209.704L128.034 210.272L128.949 209.356C129.616 208.689 129.952 207.31 130.186 204.277C130.554 199.501 130.644 199.385 133.359 200.199L135.375 200.803L136.148 200.16C137.255 199.242 137.112 197.965 135.573 195.021L134.223 192.44L134.783 190.957L135.343 189.474L134.044 188.369C131.744 186.41 131.316 185.894 131.508 185.31C131.807 184.4 133.8 184.339 135.89 185.175L137.815 185.945L138.759 185.248L139.701 184.551L138.789 183.129C135.897 178.615 135.891 176.502 138.771 176.502C139.926 176.502 140.959 176.125 141.622 175.462L142.662 174.423L142.066 173.114C141.132 171.065 141.311 170.873 143.87 171.161C145.464 171.341 146.566 171.206 147.152 170.759L148.034 170.085L147.489 168.124L146.944 166.163L147.745 165.361L148.547 164.56L150.187 165.264C152.027 166.055 159.155 166.606 159.15 165.957C159.148 165.726 158.695 164.856 158.143 164.022C157.003 162.301 156.828 160.763 157.764 160.687C158.112 160.659 159.119 160.675 160.004 160.723C161.716 160.815 163.707 159.995 164.333 158.94C164.596 158.495 165.601 158.369 167.617 158.528C174.5 159.072 179.732 160.715 181.888 163.009L182.995 164.188L182.005 164.718C180.936 165.29 180.189 165.114 174.257 162.895C170.086 161.334 169.057 161.477 168.848 163.647C168.673 165.449 168.292 165.565 165.029 164.807C163.953 164.558 162.737 164.482 162.327 164.639L161.582 164.926L161.924 167.67L162.267 170.413L157.3 170.249L152.333 170.085L152.163 171.28C152.07 171.937 152.241 172.722 152.542 173.023C152.844 173.325 153.09 173.756 153.09 173.982C153.09 174.398 147.985 176.906 147.138 176.906C145.322 176.906 144.606 179.64 145.96 181.402L146.892 182.613L145.508 184.686C143.534 187.639 143.307 188.728 144.275 190.6L145.113 192.218L145.046 197.319L144.979 202.421L146.747 205.2C147.719 206.728 148.869 208.726 149.302 209.641L150.089 211.303L151.969 211.157L153.848 211.01L153.881 214.065C153.929 218.544 155.048 219.609 157.042 217.073C157.589 216.378 158.406 215.81 158.858 215.81H159.681L159.543 219.076L159.406 222.342L160.269 223.204L161.131 224.067L163.119 223.171C166.56 221.619 169.61 223.054 172.835 227.741C174.565 230.256 174.909 230.37 176.364 228.914L177.407 227.871L177.064 225.125L176.721 222.378L177.663 222.382C178.315 222.384 179.339 223.679 180.983 226.578C185.681 234.864 190.307 236.301 189.233 229.142L188.901 226.926H190.136C190.958 226.926 192 227.644 193.248 229.073C199.496 236.222 201.294 236.644 200.983 230.892L200.837 228.189L202.232 228.028L203.627 227.868L205.13 231.218L206.633 234.568L208.914 234.226C210.266 234.023 211.194 234.081 211.194 234.367C211.194 234.633 211.948 235.257 212.87 235.753L214.545 236.655L216.919 235.605L219.293 234.554L219.598 233.028C219.872 231.659 220.951 230.799 222.131 231.01C222.368 231.052 224.44 231.06 226.736 231.027L230.908 230.968L232.192 229.073C236.461 222.773 236.615 222.116 234.956 217.326C233.205 212.272 236.389 213.082 239.129 218.386L240.538 221.115L240.261 223.369C239.359 230.702 236.071 235.376 232.95 233.762C230.428 232.458 226.352 233.014 226.352 234.662C226.352 235.007 227.034 235.888 227.867 236.62C230.394 238.837 229.201 240.062 224.513 240.062H222.235L222.405 240.942C222.498 241.427 223.197 242.121 223.958 242.486C224.812 242.895 225.341 243.552 225.341 244.204V245.258L222.308 244.941C219.504 244.649 217.73 243.932 212.725 241.071L210.97 240.069L210.214 240.825L209.458 241.581L210.065 243.188C210.786 245.1 211.017 244.801 207.857 246.046L205.279 247.063L203.77 246.145C202.941 245.641 201.65 244.184 200.902 242.907C198.656 239.074 197.103 238.751 195.81 241.847C194.646 244.631 193.458 244.545 187.215 241.225L181.703 238.294L179.396 235.179C176.211 230.877 174.246 230.566 174.11 234.345L174.058 235.767L171.719 235.919L169.378 236.071L166.303 233.023C164.292 231.032 162.959 230.079 162.454 230.273C161.643 230.585 161.58 230.779 161.485 233.241L161.427 234.757L160.343 234.912C159.126 235.085 155.735 231.503 154.219 228.443C153.119 226.225 151.735 225.858 151.282 227.665L150.953 228.976L152.4 231.071C153.197 232.224 154.692 234.073 155.722 235.18C160.353 240.157 153.206 238.659 144.046 232.733C142.115 231.484 140.032 230.462 139.418 230.462H138.301L138.626 232.61C139.255 236.765 139.255 236.769 138.072 236.938L136.948 237.098L131.805 232.011C126.195 226.464 125.658 226.187 124.872 228.441C124.073 230.735 120.929 230.232 117.387 227.246L115.788 225.897L114.513 226.478L113.238 227.059L109.912 224.685C107.808 223.184 106.171 222.37 105.459 222.471L104.334 222.631V224.629V226.627L102.771 227.08L101.207 227.532L99.1279 226.471C96.3187 225.038 94.237 225.103 92.6672 226.673C91.0297 228.311 90.7043 228.275 88.1372 226.171L85.9833 224.406L84.3958 224.724C82.2743 225.148 80.3346 227.722 80.3346 230.113C80.3346 231.379 80.0456 232.097 79.3948 232.445L78.4551 232.948L76.7706 231.705C75.844 231.022 74.7208 230.462 74.2747 230.462C73.8285 230.462 73.2192 230.218 72.9211 229.92C72.623 229.622 71.6115 229.452 70.6727 229.541L68.9665 229.704V231.805C68.9665 234.531 68.7048 234.726 66.3685 233.744L64.4193 232.925L63.0126 234.599L61.6055 236.273L56.9497 236.32C50.8654 236.381 51.1696 236.305 50.3056 237.977C49.8928 238.775 49.088 239.55 48.5176 239.7C47.546 239.954 41.0116 237.928 38.5586 236.612C36.8832 235.713 35.3674 235.867 35.3674 236.936C35.3674 238.807 40.7913 242.479 44.806 243.325C47.8961 243.976 47.9769 245.464 44.9722 246.388C42.7709 247.065 35.1381 246.761 31.7771 245.862C30.0002 245.386 28.0353 244.884 27.4098 244.745L26.273 244.492V245.627C26.273 248.196 34.6303 253.319 41.6436 255.05C46.0337 256.133 45.6866 256.948 40.7539 257.135L36.8746 257.283L32.2733 255.704C26.8813 253.852 25.9546 254.117 27.5376 257.056C29.3186 260.363 34.0715 262.816 40.1764 263.579C44.2578 264.089 48.2144 265.485 48.4099 266.484C48.514 267.017 47.7319 267.742 46.1363 268.592C39.129 272.329 37.6284 273.292 37.4607 274.164C37.1868 275.586 38.7142 276.487 40.3457 275.867C41.0813 275.587 41.7497 275.398 41.8311 275.446C42.0761 275.592 45.0334 274.412 48.2513 272.885C49.9186 272.093 51.9649 271.287 52.7985 271.092C54.624 270.666 57.8187 269.102 59.6937 267.716C60.5203 267.105 61.41 266.838 61.94 267.041L62.8176 267.378L61.1831 269.064C60.2843 269.992 57.942 271.631 55.9786 272.708C49.2714 276.384 49.5942 280.027 56.3353 276.74C61.215 274.359 63.5083 273.482 66.0648 273.017C69.5612 272.382 70.3044 272.971 67.8747 274.453C64.2874 276.639 56.5879 284.583 56.5879 286.098C56.5879 286.324 57.0406 286.752 57.5938 287.048L58.5998 287.586L60.2434 286.736C61.1473 286.269 63.0253 285.067 64.4162 284.066C69.5516 280.37 72.0475 279.111 77.2036 277.616C83.4247 275.812 84.7586 276.723 79.6672 279.299C75.1174 281.6 66.6752 290.516 67.3588 292.298C68.0515 294.103 73.9846 291.633 76.2926 288.579C76.7569 287.965 86.628 280.658 88.2923 279.697C89.1957 279.175 89.9343 278.613 89.9343 278.446C89.9343 278.281 92.549 278.156 95.7447 278.169C102.617 278.199 102.733 278.38 98.0097 281.697C93.6424 284.763 89.4291 289.14 89.4291 290.612V291.707L90.7043 291.387C91.4061 291.211 92.9866 290.298 94.2168 289.36C97.3954 286.933 101.115 285.327 106.355 284.118C115.723 281.957 117.415 281.752 120.91 282.352L122.328 282.596L122.173 283.655L122.018 284.715L119.239 285.645C117.71 286.156 116.005 286.77 115.449 287.009C114.894 287.248 113.496 287.698 112.344 288.01C109.589 288.753 109.204 289.832 111.249 291.075L112.837 292.042L118.943 291.832C122.302 291.717 125.731 291.523 126.565 291.401C127.399 291.279 129.748 291.044 131.786 290.878C133.824 290.712 135.913 290.352 136.427 290.077C137.907 289.284 140.964 289.446 140.964 290.317C140.964 291.244 139.774 291.871 137.175 292.314C133.862 292.879 131.87 293.654 131.87 294.378V295.06L136.291 295.224C138.723 295.313 140.788 295.216 140.88 295.008C140.973 294.799 141.727 294.629 142.558 294.629H144.066L143.905 295.711L143.743 296.792L139.526 298.64C135.368 300.462 133.808 301.821 134.77 302.783C135.414 303.428 144.421 302.068 146.553 301.005C147.455 300.555 148.507 300.187 148.89 300.187C149.522 300.187 161.661 294.08 165.574 291.793L167.194 290.846L167.811 291.464L168.43 292.082L167.779 293.298C166.982 294.788 162.137 298.344 157.385 300.927C148.429 305.797 150.414 307.153 163.195 304.895C165.835 304.428 168.109 303.892 168.248 303.702C168.387 303.513 169.183 303.234 170.016 303.083C173.883 302.382 177.928 300.135 180.909 297.029C186.361 291.351 186.513 297.689 181.084 304.273C179.843 305.777 178.391 307.741 177.857 308.637L176.885 310.268L177.672 311.055C178.105 311.488 178.833 311.731 179.29 311.596C179.747 311.461 180.802 311.187 181.634 310.988C182.466 310.789 184.238 309.982 185.572 309.195C186.906 308.409 188.228 307.765 188.51 307.765C188.792 307.765 188.882 307.538 188.711 307.26C188.539 306.982 188.637 306.755 188.929 306.755C189.221 306.755 190.088 306.05 190.854 305.188C192.732 303.076 194.548 302.211 197.148 302.19C200.7 302.161 203.17 300.292 205.66 295.753C206.774 293.722 207.674 292.637 208.16 292.737L208.92 292.891L208.853 296.516L208.785 300.139L207.231 303.46C206.377 305.286 205.809 307.122 205.969 307.54C206.374 308.592 208.015 309.424 208.414 308.777C208.587 308.498 209.112 308.256 209.582 308.239C211.334 308.176 217.675 299.929 220.821 293.624C223.34 288.576 225.226 288.158 224.896 292.72L224.759 294.629H225.58C226.032 294.629 227.077 294.28 227.902 293.853L229.401 293.078L229.684 293.814C229.839 294.219 228.641 297.076 227.022 300.164L224.078 305.779L225.068 306.526L226.059 307.274L228.983 304.201C230.592 302.511 232.522 300.063 233.272 298.762C236.18 293.724 244.043 282.067 245.555 280.556C248.405 277.706 248.43 277.853 247.273 290.392C246.65 297.137 250.239 295.029 252.804 287.141C253.285 285.663 254.578 282.707 255.677 280.573C256.776 278.439 257.676 276.487 257.676 276.236C257.678 275.334 260.173 270.525 260.992 269.846L261.828 269.152L262.543 270.129C262.936 270.666 263.105 271.454 262.92 271.878C262.607 272.595 262.162 278.62 262.21 281.478C262.234 282.903 263.391 284.294 264.157 283.82C265.558 282.954 268.65 269.82 269.223 262.293L269.55 257.998L270.686 257.837C272.006 257.65 272.471 258.582 273.303 263.087C273.603 264.709 274.075 266.262 274.352 266.539C274.629 266.816 274.856 267.774 274.856 268.668C274.856 270.932 275.313 271.893 276.391 271.893C277.762 271.893 277.922 270.719 277.462 264.053C277.231 260.723 277.176 255.614 277.339 252.698L277.634 247.398L278.484 247.237C279.099 247.119 279.75 247.976 280.842 250.333C282.554 254.034 283.059 254.522 284.1 253.482L284.836 252.745L284.877 246.024C284.903 241.581 284.661 238.314 284.163 236.381C283.143 232.432 283.714 231.536 285.992 233.512C290.915 237.782 288.035 227.006 282.342 219.856C280.233 217.208 280.001 215.649 281.681 215.421C282.42 215.32 283.156 216.029 284.455 218.092C287.256 222.539 287.751 223.084 288.671 222.731C290.138 222.168 289.571 220.366 284.618 209.867C282.709 205.818 282.732 205.469 284.95 205.025L286.476 204.72L286.462 203.57C286.454 202.938 285.784 200.943 284.971 199.137L283.494 195.853L284.43 194.906L285.367 193.959L284.506 190.864C284.032 189.162 282.804 186.457 281.776 184.854C279.575 181.419 279.472 180.584 281.171 179.937C283.74 178.961 281.946 174.807 276.178 168.38C272.783 164.597 272.655 164.369 272.811 162.41C272.905 161.23 271.365 160.183 268.54 159.506C267.706 159.307 266.638 158.795 266.165 158.369L265.306 157.595L266.07 156.429L266.834 155.262L265.836 153.326C264.712 151.145 262.338 148.785 259.665 147.192C258.674 146.602 257.442 145.653 256.928 145.084L255.992 144.051L254.429 144.344C252.728 144.663 250.098 143.892 250.098 143.073C250.098 142.792 250.894 142.23 251.867 141.823C253.804 141.014 254.278 139.376 252.751 138.769C252.265 138.575 249.252 137.748 246.056 136.93C242.861 136.112 239.45 135.07 238.478 134.615C237.505 134.16 235.231 133.429 233.425 132.99L230.141 132.191L229.981 131.063L229.82 129.934L231.623 129.074C232.932 128.449 233.425 127.891 233.425 127.029C233.425 125.329 232.185 125.079 228.408 126.02C226.582 126.475 224.236 126.995 223.194 127.176L221.299 127.504L221.313 126.816C221.321 126.438 222.003 125.465 222.829 124.655C225.844 121.696 224.731 121.019 218.489 122.012C211.325 123.151 209.447 122.561 211.181 119.717C212.367 117.772 212.472 116.622 211.537 115.846L210.87 115.292L204.337 117.547C197.864 119.782 195.531 120.256 195.531 119.336C195.531 118.473 197.742 115.038 199.176 113.673C200.011 112.878 200.584 111.8 200.584 111.021V109.708H199.101H197.618L194.716 112.992C193.121 114.798 191.494 116.276 191.103 116.276H190.39L190.723 114.307C191.176 111.624 190.342 111.313 188.649 113.533C187.153 115.493 181.506 119.597 180.999 119.091C180.831 118.922 180.981 117.66 181.333 116.286C182.494 111.755 181.328 111.633 176.639 115.795C172.58 119.399 172.037 119.39 172.037 115.722C172.037 110.53 170.67 110.636 168.075 116.028C166.136 120.054 164.799 121.263 161.648 121.839C159.221 122.283 158.938 121.943 158.917 118.561L158.901 116.046L157.957 115.86C157.32 115.734 156.276 116.514 154.759 118.248C152.215 121.157 152.031 121.217 150.035 119.795C149.092 119.124 147.951 118.81 146.747 118.892L144.902 119.016L143.542 117.35L142.182 115.683L139.859 116.812L137.535 117.941L135.826 116.884L134.116 115.827L131.951 116.314L129.786 116.8L127.417 115.747L125.049 114.694L122.836 115.02C121.619 115.2 120.085 115.592 119.428 115.891L118.232 116.436L117.254 115.551C115.259 113.745 117.555 112.234 122.294 112.234H125.302V110.777C125.302 109.065 123.193 106.984 118.355 103.923C116.62 102.825 115.066 101.501 114.901 100.982C114.572 99.9473 115.938 98.087 117.026 98.087C118.724 98.087 118.735 94.7706 117.046 92.1316C116.304 90.9726 117.288 87.3793 119.977 81.43C124.121 72.2632 124.803 69.3004 124.79 60.5359C124.776 50.5906 121.754 46.8078 117.149 50.969ZM140.563 56.0195L137.888 56.2059L137.497 57.3154C137.282 57.9258 137.174 62.1759 137.256 66.76L137.405 75.0951L138.226 75.6954C139.208 76.4138 147.94 76.04 148.922 75.2376C151.158 73.4111 148.699 71.0299 145.025 71.4649C142.036 71.8191 141.353 71.3841 141.559 69.2555L141.722 67.5604L144.61 67.6129C147.777 67.67 148.727 67.0612 148.456 65.1473L148.291 63.9827L145.133 63.8321L141.975 63.6821V61.6848V59.6881L143.87 59.6284C144.912 59.5951 145.977 59.6093 146.237 59.6593C148.359 60.0685 150.248 57.8495 149.028 56.3797C148.42 55.6476 146.857 55.5809 140.563 56.0195ZM171.087 56.5303C170.759 57.6428 170.673 60.6915 170.729 69.1615L170.774 75.856H175.22C180.181 75.856 180.879 75.5034 180.879 73.0004V71.3568L177.721 71.2067L174.564 71.0562L174.263 63.4774C174.098 59.3091 173.927 55.8416 173.884 55.7724C173.535 55.2095 171.298 55.8163 171.087 56.5303ZM190.092 56.0675C189.206 56.6303 188.917 74.0841 189.775 75.2573L190.368 76.0687L191.716 75.4549C192.651 75.0284 193.353 74.9961 194.011 75.3483C196.976 76.9353 201.106 74.9168 202.082 71.4028C203.719 65.5065 200.194 61.3908 195.269 63.4486C194.234 63.8811 193.301 64.2353 193.196 64.2353C193.091 64.2353 193.005 62.5756 193.005 60.547C193.005 56.1806 192.102 54.7917 190.092 56.0675ZM40.6993 59.6451C40.1693 60.5025 41.3647 64.9381 45.2036 76.3613C46.1843 79.2791 46.9872 82.4753 46.9877 83.4646C46.9877 84.4534 47.2888 85.674 47.6561 86.1763L48.3245 87.0902L49.904 86.2738C52.0892 85.1435 54.1016 82.3379 54.4178 79.9799L54.6831 78.0028L53.2411 75.5398C52.4484 74.1852 50.8872 71.9404 49.7726 70.5509C48.658 69.1615 47.071 67.0016 46.2465 65.7511C45.4214 64.5006 44.4589 63.1364 44.1067 62.7196C43.7551 62.3027 42.9315 61.2993 42.2772 60.4894C41.4269 59.437 40.9767 59.196 40.6993 59.6451ZM116.766 59.6451C116.293 59.9442 116.16 60.5884 116.362 61.5989C116.855 64.061 115.781 66.7373 113.196 69.4924C110.435 72.435 109.134 74.7182 109.134 76.622C109.134 78.8623 108.267 79.898 106.391 79.898C103.007 79.898 104.156 83.1028 107.838 83.933C111.105 84.6691 111.67 84.078 114.789 76.6644C118.631 67.5331 119.767 57.7464 116.766 59.6451ZM151.196 60.5278C150.149 60.9502 150.471 62.084 152.333 64.5223C154.542 67.4164 154.538 67.5093 152.064 70.8243C149.936 73.6774 149.75 74.6359 151.153 75.52C152.194 76.1749 153.232 75.4018 154.934 72.7058C156.471 70.2705 156.636 70.2993 158.617 73.3581L160.273 75.9126L161.608 75.758C163.615 75.5256 163.564 73.8416 161.458 70.7793C159.272 67.6013 159.265 67.4169 161.211 64.254C162.917 61.4812 162.819 60.6981 160.766 60.7001C159.818 60.7011 159.1 61.1604 158.396 62.2143C157.119 64.1252 156.93 64.1105 155.044 61.9617C153.575 60.2888 152.646 59.9427 151.196 60.5278ZM233.462 62.5129L231.855 63.8655L232.009 65.4237C232.205 67.4224 234.83 69.2878 237.445 69.2878C241.11 69.2878 241.969 71.2446 238.875 72.5451C237.441 73.1484 236.666 73.0888 232.338 72.0399L230.998 71.715L230.685 72.7038C229.993 74.8819 230.957 75.6641 235.173 76.3446C241.783 77.4117 247.598 72.2177 244.052 68.4122C243 67.282 242.776 67.1936 238.581 66.2442C235.523 65.5525 235.264 64.4228 238.204 64.6052C240.688 64.7588 242.119 63.9701 241.919 62.5589L241.762 61.4564L238.416 61.3084L235.07 61.1604L233.462 62.5129ZM208.45 62.8843L207.534 63.5542L207.414 69.0736C207.292 74.694 207.593 75.856 209.173 75.856C210.617 75.856 211.309 74.5207 211.403 71.5554L211.491 68.7664L212.557 67.7008C213.147 67.1097 214.263 66.6388 215.061 66.6428C217.832 66.657 218.805 64.3677 216.479 63.3077L215.196 62.7231L213.366 63.487L211.537 64.2515L210.588 63.2329C209.463 62.0248 209.595 62.0466 208.45 62.8843ZM220.837 63.4249C220.454 63.8867 220.302 65.938 220.397 69.3616L220.541 74.5929L221.615 74.746C222.206 74.8304 223.065 74.5237 223.524 74.0639L224.359 73.2287L224.034 68.6057C223.663 63.3274 222.492 61.4307 220.837 63.4249ZM183.215 65.1195C182.789 66.5771 182.729 74.0205 183.136 74.9719C183.642 76.1582 185.263 76.0945 185.923 74.8622C186.226 74.2963 186.36 72.1748 186.235 69.936C186.115 67.7731 185.997 65.6056 185.974 65.1195C185.946 64.5314 185.52 64.2353 184.702 64.2353C183.967 64.2353 183.37 64.5905 183.215 65.1195ZM195.687 66.2886C192.923 67.3335 192.423 70.5732 194.787 72.1222C196.722 73.3899 198.943 72.0399 199.392 69.3227C199.707 67.4133 197.498 65.6045 195.687 66.2886ZM56.5879 100.624C51.2141 103.135 50.5396 106.612 55.4162 106.66L57.0239 106.676L59.6431 109.688C62.5549 113.035 64.0413 113.726 68.2086 113.667C69.737 113.646 71.5559 113.712 72.2506 113.815L73.5137 114.002L73.6623 112.964C73.9882 110.687 69.4637 103.294 66.2715 100.886C65.5313 100.328 63.8882 99.9029 61.9678 99.772L58.8615 99.5608L56.5879 100.624ZM97.2604 101.621C95.1177 102.552 90.3896 108.021 88.5055 111.748C86.9412 114.842 89.2886 116.916 92.5768 115.345C93.7631 114.778 95.4163 114.157 96.25 113.966C98.5514 113.436 103.074 110.539 105.408 108.099C107.329 106.089 108.672 103.218 107.754 103.082C107.54 103.05 106.797 102.954 106.102 102.867C105.408 102.781 104.157 102.353 103.323 101.917C101.681 101.058 98.8732 100.921 97.2604 101.621ZM96.7491 183.989C96.5743 184.272 96.4819 186.262 96.544 188.41C96.6799 193.105 96.257 195.454 94.614 199.137C93.2988 202.085 92.6192 203.904 89.7727 212.101C87.6774 218.135 87.3429 220.308 88.4186 220.892C90.2729 221.899 92.5697 222.827 93.9687 223.135L95.487 223.468L95.9832 222.163C96.2636 221.425 97.2893 220.473 98.3412 219.976L100.203 219.094L100.416 219.726C100.802 220.87 102.036 220.384 102.338 218.968C102.896 216.361 104.215 213.033 105.091 212.021C110.302 206.001 111.736 199.476 109.329 192.736C108.054 189.166 97.9092 182.112 96.7491 183.989Z" fill="#FBFDFD"/>
</svg>
