<svg width="300" height="303" viewBox="0 0 300 303" fill="none" xmlns="http://www.w3.org/2000/svg">
<path fill-rule="evenodd" clip-rule="evenodd" d="M271.135 0.852447C261.629 1.10326 200.45 1.35848 135.183 1.42027C64.7803 1.48573 15.2677 1.81082 13.4488 2.21829C9.06222 3.20167 5.38833 4.85217 2.86993 6.97119L0.683253 8.81069L0.581011 54.2551C0.525112 79.2494 0.333136 136.766 0.155142 182.07C-0.199376 272.193 -0.307484 269.653 3.99306 272.311L6.45702 273.834L150.935 273.783C230.397 273.754 295.729 273.535 296.118 273.296C298.12 272.058 298.485 266.19 298.796 230.253C298.974 209.824 299.292 192.627 299.505 192.037C299.717 191.448 299.817 174.568 299.728 154.526C299.638 134.484 299.606 115.77 299.659 112.938C300.037 92.3768 300.126 36.8014 299.798 25.0442L299.398 10.7017L297.295 6.85644C294.69 2.09546 292.901 0.428046 290.376 0.410394C289.3 0.402303 280.642 0.601637 271.135 0.852447ZM216.707 6.03707C213.802 6.47102 196.631 6.58871 172.944 6.33863L133.962 5.92601L123.665 7.06826C118.001 7.69639 109.561 8.49074 104.909 8.83349C54.108 12.578 44.4051 13.0274 25.8415 12.4978L18.4864 12.2882L15.4354 13.8622L12.3845 15.4362L11.9403 19.6882C11.6968 22.0271 11.546 32.712 11.6071 43.4321C11.7248 64.4266 11.0944 72.5621 8.20828 87.3018C5.87965 99.1877 5.74946 108.031 7.82066 113.482C9.69475 118.413 9.6749 120.838 7.72726 124.736L6.16208 127.87L7.35951 131.384C8.87908 135.844 8.88276 142.835 7.37275 159.056C5.90614 174.806 6.33566 199.914 8.24211 209.927L9.48439 216.447L8.31567 218.898C7.67283 220.246 6.9454 222.938 6.69827 224.881L6.24962 228.414L8.44071 235.033C9.64622 238.674 10.9937 244.669 11.4357 248.354C12.7979 259.711 13.9166 261.762 20.3251 264.652L24.3705 266.476L34.6677 267.151C52.84 268.344 117.801 269.155 200.815 269.224L281.643 269.294L283.39 267.651C288.274 263.064 289.634 252.124 289.803 216.079L289.945 185.754L291.146 183.515C294.261 177.707 295.513 167.404 293.824 161.482C293.253 159.478 292.954 146.811 292.886 121.764L292.786 84.9886L290.811 79.2619L288.835 73.5352L289.489 70.0679C289.849 68.1608 290.231 58.1607 290.338 47.8451L290.533 29.0895L289.187 23.9409C286.385 13.226 281.6 10.598 263.088 9.60651C257.198 9.29098 250.394 8.6783 247.967 8.24435C245.539 7.8104 241.402 7.07783 238.773 6.61593C232.113 5.4472 222.376 5.19196 216.707 6.03707ZM120.618 42.8804C117.3 45.7857 112.957 52.3443 111.571 56.5426C110.898 58.5814 109.458 60.5305 107.341 62.2656C99.0604 69.05 95.1806 85.3563 101.846 85.3563C104.649 85.3563 105.645 84.1074 105.645 80.5917C105.645 74.8561 113.848 61.3521 123.844 50.6327C128.233 45.9247 129.001 44.2647 127.999 41.6536C127.235 39.6618 123.605 40.2649 120.618 42.8804ZM78.4307 44.4706C74.1331 47.3509 68.5528 53.1475 65.3878 58.018L62.3906 62.6304L61.4845 68.722L60.5783 74.8142L61.3874 79.4075L62.1965 84.0015L59.6751 91.4824C56.1682 101.887 54.9178 107.689 54.9053 113.613C54.8958 118.044 54.1411 124.561 53.0033 130.039C52.1743 134.032 51.1255 131.422 51.316 125.837C51.6492 116.07 49.6162 117.592 48.3114 128.087C47.8885 131.486 47.2251 135.374 46.8375 136.726C45.5201 141.317 47.4031 147.387 50.6695 149.075C54.0514 150.824 54.8347 149.336 52.4377 145.714C51.3616 144.088 50.4812 142.124 50.4812 141.35C50.4812 138.232 55.3143 138.848 57.4781 142.242C58.5498 143.924 59.6104 144.628 61.319 144.794L63.68 145.023L63.6175 138.435C63.5836 134.812 63.9595 130.624 64.453 129.128L65.3503 126.41L64.4802 125.558L63.6109 124.706L61.8316 126.913L60.0524 129.119L60.3157 118.087L60.5791 107.054L62.067 102.476C62.8849 99.9585 65.2466 95.26 67.3149 92.0355L71.0756 86.1735V83.1726V80.171L69.3368 79.5105C66.8993 78.5837 66.5735 77.1936 67.4113 71.286C68.1983 65.7365 70.8924 59.2015 73.2858 57.0361C75.7034 54.848 75.7542 56.2682 73.4336 61.2109C69.1581 70.318 68.8492 75.7248 72.5392 76.8957C74.6509 77.5658 75.2261 76.9715 76.6375 72.6599C78.1998 67.8872 81.0263 62.181 83.316 59.1765C86.2867 55.2775 85.0665 52.2729 80.5019 52.2494L78.7985 52.2406L82.3275 48.8425C84.281 46.9603 85.7557 44.9127 85.6314 44.2544C85.2769 42.381 81.3728 42.4987 78.4307 44.4706ZM134.29 50.6864C120.754 59.4015 107.951 80.4387 113.911 84.1699L115.19 84.9709L116.919 83.141C117.869 82.1348 119.758 78.6632 121.116 75.4269L123.584 69.5428L128.789 64.3942C131.652 61.5625 136.057 58.0872 138.577 56.6713C143.67 53.8109 145.14 51.3123 142.756 49.5692C140.645 48.0253 137.849 48.3946 134.29 50.6864ZM163.383 52.5583C161.35 53.4586 155.832 57.4451 149.948 62.2656L147.545 64.2331L146.121 62.9438L144.697 61.6551L141.434 63.2343C136.214 65.7608 128.391 72.832 124.248 78.7669C122.142 81.7839 118.041 86.8156 115.136 89.9474C112.23 93.0792 108.841 97.051 107.603 98.7736C106.365 100.496 103.819 103.726 101.946 105.951C94.84 114.389 89.7539 122.395 87.2664 129.055C85.7491 133.119 84.7238 130.115 86.1565 125.802L87.4246 121.984L86.1926 120.771L84.9606 119.558L83.3506 121.732C80.9432 124.983 79.1699 130.054 78.7087 135.004L78.2983 139.417L79.4244 140.888L80.5512 142.359L81.8501 141.563C82.565 141.124 83.4212 139.718 83.7529 138.437C84.4693 135.674 84.7878 135.604 87.0355 137.715C89.2663 139.811 89.9878 139.041 91.3765 133.087C92.5599 128.013 94.8444 123.52 100.766 114.617L104.541 108.941L107.814 109.101L111.088 109.261L111.755 107.054C113.144 102.456 114.999 99.6466 120.101 94.4098L125.365 89.0074L127.584 91.2272C131.621 95.2644 134.778 93.9398 138.447 86.6685C144.127 75.4115 154.974 63.8676 162.818 60.7328C168.889 58.3064 169.41 57.8967 170.034 55.0576C170.797 51.5845 167.974 50.5239 163.383 52.5583ZM194.642 57.0016C184.441 58.7543 177.412 61.0778 167.796 65.8763L158.234 70.6475L156.978 72.857C156.087 74.4273 154.117 75.7991 150.175 77.5959C144.287 80.2791 143.723 81.1551 146.059 83.9875L147.49 85.7241L149.553 84.5796C155.216 81.4368 159.147 79.5568 160.808 79.1964C161.82 78.9772 162.978 78.0483 163.383 77.1311C165.217 72.974 176.686 66.5397 187.396 63.6587L194.274 61.8089L199.423 62.259L204.571 62.7084L206.293 60.8586C207.24 59.8414 207.899 58.4005 207.757 57.6561L207.499 56.3035L203.829 56.1792C201.81 56.1101 197.676 56.4808 194.642 57.0016ZM93.5896 62.743C88.3638 68.0762 78.4645 81.8634 76.5191 86.5199C75.0503 90.0364 75.1974 94.426 76.8339 95.9073C79.4354 98.2624 80.8969 97.0731 82.3672 91.4045C83.8794 85.577 89.2619 76.9685 96.6347 68.5866C103.598 60.6703 104.087 59.8208 102.556 58.2894C100.76 56.4941 98.7191 57.5083 93.5896 62.743ZM190.964 68.9367C174.272 74.7054 153.094 85.0717 145.383 91.25C142.36 93.6721 139.493 95.6535 139.013 95.6535C136.364 95.6535 133.421 101.806 135.212 103.597C137.437 105.822 140.201 104.297 149.263 95.844C154.946 90.5424 159.162 87.9049 164.854 86.0904C166.472 85.574 168.623 84.5789 169.634 83.8772C173.241 81.3772 179.68 78.4285 187.287 75.7925C195.168 73.0615 196.567 71.8619 194.612 69.5075C193.699 68.4072 192.872 68.2777 190.964 68.9367ZM50.7666 69.8958C43.8241 72.7011 36.9367 96.0823 40.5246 104.669C41.5646 107.158 43.9667 108.944 44.4257 107.568C44.9067 106.125 46.7065 104.138 47.1405 104.571C47.3913 104.822 47.6973 106.838 47.8201 109.05C48.0915 113.941 48.5527 114.777 50.9784 114.777H52.8591L52.5119 113.449C51.9684 111.37 53.2482 97.1371 54.2058 94.6128C55.8762 90.2092 57.1479 87.6202 57.8562 87.1826C60.0539 85.8249 57.9776 81.6788 55.0988 81.6788C53.3012 81.6788 49.0102 87.3783 49.0102 89.7665C49.0102 90.4152 48.7012 91.2603 48.3239 91.645C47.9466 92.0289 47.5325 93.6419 47.4045 95.2291C47.2721 96.8642 46.7301 98.2594 46.1534 98.4492L45.1347 98.7839L45.5003 94.8283C46.0181 89.2303 48.7351 82.6798 52.017 79.1199C53.5608 77.4444 55.148 75.2232 55.543 74.1846L56.2609 72.2958L55.1679 70.7351C53.9955 69.0618 53.2048 68.911 50.7666 69.8958ZM134.603 75.243C127.381 82.2061 125.47 84.8819 126.786 86.1978C128.272 87.6835 142.255 71.9876 141.489 69.6921C141.338 69.2398 138.24 71.7376 134.603 75.243ZM221.12 71.8589C220.109 72.0112 215.515 72.6503 210.912 73.2799C206.309 73.9103 200.269 75.268 197.489 76.2985L192.435 78.1718V80.1459C192.435 83.3359 196.514 85.4755 198.003 83.0667C198.281 82.6158 200.039 81.5523 201.908 80.702L205.307 79.156L217.719 78.9765L230.131 78.797L231.51 77.5496C235.407 74.0228 229.232 70.6402 221.12 71.8589ZM178.828 85.6175C176.806 86.5618 173.263 88.5441 170.957 90.0232C168.65 91.5016 166.235 92.7115 165.589 92.7115C163.986 92.7115 162.2 97.0723 163.107 98.7692C164.394 101.173 167.505 100.306 172.951 96.025C175.779 93.8015 179.83 90.9565 181.954 89.7025C186.594 86.9627 186.902 86.5471 185.402 85.0482C183.875 83.5198 183.192 83.5793 178.828 85.6175ZM207.694 86.2154C198.762 87.098 184.121 91.7178 180.471 94.804L179.173 95.9021L180.833 97.6688C182.768 99.7283 183.099 99.6812 191.759 96.1265C204.092 91.0632 219.474 89.7128 230.314 92.7416C238.467 95.0202 241.225 95.2917 242.357 93.9273L243.284 92.81L241.807 91.3324C238.05 87.5761 220.523 84.9467 207.694 86.2154ZM105.73 88.1719C101.357 90.502 88.7279 103.779 88.7279 106.046C88.7279 106.755 88.3969 107.539 87.9924 107.79C86.8899 108.471 87.1061 111.292 88.4021 113.142C90.0349 115.474 90.4674 115.24 92.4636 110.946C95.0452 105.392 98.9008 100.832 106.422 94.4348C115.148 87.0127 114.746 83.3682 105.73 88.1719ZM93.8449 88.9015C87.0759 91.8833 81.7626 98.6449 79.4965 107.159C78.9434 109.24 76.5735 114.36 74.2309 118.536L69.9723 126.129L69.7119 132.238C69.3832 139.978 71.8479 144.173 72.957 137.762C74.0485 131.46 81.2183 115.082 84.6958 110.95C85.7432 109.705 86.414 108.203 86.1874 107.612C85.4607 105.719 89.5465 99.473 94.7532 94.5179C97.5342 91.8722 99.6128 89.3899 99.3737 89.003C98.8817 88.2065 95.5608 88.1461 93.8449 88.9015ZM31.9904 95.8036C29.1689 98.0337 28.0951 107.956 29.5816 118.065C30.5407 124.582 30.3987 125.397 28.7247 123.007C26.5822 119.948 26.0018 121.086 26.4181 127.53C26.8661 134.453 27.937 138.67 29.9126 141.289L31.2608 143.077L32.136 140.879C32.617 139.67 33.1738 137.15 33.3724 135.278L33.7343 131.875L35.8312 131.98C36.9845 132.038 38.3364 132.494 38.8351 132.993C40.3936 134.551 44.5971 133.88 44.5971 132.072C44.5971 131.559 44.1006 130.726 43.4938 130.223C42.887 129.719 42.3905 128.349 42.3905 127.177V125.046L44.1492 125.487C46.3961 126.052 46.633 125.607 47.2398 119.681L47.7421 114.777H46.4344C44.7743 114.777 43.1798 116.85 43.1496 119.049C43.1364 119.984 42.8399 120.571 42.4898 120.354C42.1397 120.138 41.975 119.043 42.1228 117.92C42.9591 111.586 39.5765 108.239 38.0165 113.857C37.595 115.375 37.2486 117.36 37.2464 118.271C37.2442 119.181 36.947 119.925 36.5859 119.925C35.3281 119.925 34.9927 116.114 35.4686 107.203L35.9474 98.2278L34.572 96.5391L33.1966 94.8503L31.9904 95.8036ZM123.193 97.4555C120.393 99.3583 119.619 100.622 119.619 103.293C119.619 105.089 117.34 107.42 109.972 113.162C99.6628 121.195 94.6936 127.932 95.841 132.32C96.4059 134.478 97.1937 134.31 99.5708 131.52C105.04 125.103 112.441 117.923 117.413 114.212C120.447 111.947 123.493 109.475 124.183 108.718L125.437 107.342L124.734 105.495C123.676 102.711 123.796 102.441 126.99 100.425L129.948 98.5573L129.171 97.1054C128.137 95.1732 126.402 95.2747 123.193 97.4555ZM206.89 98.5801C202.574 99.3664 202.813 99.1421 202.151 103.024L201.612 106.185L193.898 108.209C184.912 110.569 172.112 115.649 170.11 117.652C168.441 119.321 168.888 120.257 171.845 121.288L174.059 122.059L179.386 119.239C186.167 115.647 193.186 113.59 201.909 112.64C209.64 111.797 209.053 112.052 210.704 108.827L211.926 106.44L215.236 105.426C219.916 103.994 225.687 104.723 233.757 107.767C241.716 110.77 243.364 110.921 245.452 108.833L246.983 107.302L245.767 105.959C241.17 100.879 218.201 96.52 206.89 98.5801ZM68.299 99.0891C65.9704 100.025 62.7179 112.906 63.705 117.284C65.4482 125.011 69.5295 121.888 69.5222 112.833C69.5192 108.955 71.0057 104.383 72.9776 102.203L74.0875 100.977L72.8967 99.7864C71.7162 98.6059 70.1069 98.3617 68.299 99.0891ZM146.449 102.899C144.031 104.495 140.234 107.324 138.012 109.186C135.79 111.047 133.474 112.573 132.864 112.575C132.254 112.578 130.868 113.043 129.782 113.609C128.697 114.175 126.711 114.867 125.369 115.147C120.714 116.116 111.758 122.704 109.622 126.729L108.549 128.752L109.663 130.906C111.83 135.095 116.196 134.742 117.397 130.281C118.233 127.178 123.548 120.661 125.244 120.661C127.056 120.661 134.159 117.018 134.603 115.86C135.276 114.109 137.065 114.616 137.919 116.8C138.354 117.912 139.225 119.523 139.855 120.38L141 121.938L131.964 126.458C126.995 128.944 122.686 130.973 122.387 130.968C121.352 130.949 116.717 136.483 116.697 137.762C116.686 138.469 117.371 139.742 118.219 140.59L119.76 142.131L121.752 140.223C122.848 139.172 124.138 138.313 124.619 138.313C125.099 138.313 126.389 137.306 127.486 136.076C128.582 134.845 131.958 132.47 134.987 130.798C138.018 129.125 141.674 126.722 143.113 125.455C148.457 120.754 164.865 113.697 182.365 108.571C186.916 107.238 188.341 105.598 186.265 104.08C182.996 101.69 161.328 107.714 151.966 113.617C147.88 116.193 145.251 116.274 144.769 113.836C144.554 112.751 151.648 106.233 154.989 104.445C155.941 103.936 156.401 103.061 156.256 102.039L156.027 100.434L153.436 100.216L150.846 99.9975L146.449 102.899ZM206.549 115.73C203.592 116.052 199.951 116.716 198.458 117.204L195.745 118.093V119.848C195.745 122.724 197.627 123.317 202.11 121.853C204.273 121.147 208.28 120.376 211.014 120.14L215.986 119.711L217.422 121.01L218.858 122.309L223.851 121.36C226.596 120.838 232.319 120.411 236.566 120.412L244.289 120.414L251.759 122.744C260.752 125.549 260.655 125.545 261.72 123.208L262.57 121.342L261.52 120.351C260.277 119.179 251.558 116.509 246.863 115.864C241.792 115.167 212.61 115.07 206.549 115.73ZM156.384 121.78C154.57 122.799 152.34 124.011 151.43 124.472C149.155 125.625 149.358 127.712 152.005 130.359L154.234 132.588L157.751 129.299C159.684 127.489 161.992 125.622 162.877 125.148C165.063 123.978 165.034 120.979 162.831 120.389C160.296 119.71 159.922 119.791 156.384 121.78ZM183.417 124.339C181.907 125.148 179.752 125.81 178.627 125.81C172.689 125.81 162.737 130.423 161.458 133.767C159.187 139.706 164.98 140.587 170.877 135.199C174.107 132.248 190.661 129.418 192.002 131.588C192.216 131.933 196.073 132.45 200.573 132.734C210.175 133.343 219.92 135.908 224.734 139.097C226.526 140.284 228.734 141.255 229.641 141.255C231.734 141.255 240.257 145.582 240.763 146.901C240.973 147.447 240.743 148.376 240.254 148.966C238.448 151.142 240.53 159.52 242.672 158.697C244.032 158.176 245.108 159.036 248.643 163.473C253.837 169.992 249.611 169.089 239.549 161.53C232.128 155.955 219.758 149.969 215.356 149.824L211.996 149.714L211.284 151.692L210.571 153.669L215.058 158.466C219.515 163.231 224.256 170.728 225.177 174.468C225.442 175.542 226.439 177.154 227.394 178.051L229.129 179.682L232.376 179.195L235.622 178.708L236.783 180.479C237.422 181.453 239.01 185.355 240.312 189.151C244.043 200.024 254.524 213.061 263.751 218.309L266.677 219.973L267.92 218.076L269.163 216.178L263.52 210.896C258.974 206.64 249.805 194.222 249.805 192.32C249.805 192.175 248.812 190.491 247.599 188.578C246.381 186.657 245.392 184.086 245.392 182.838C245.392 179.97 242.14 175.089 240.228 175.089C239.388 175.089 238.028 173.945 236.95 172.331C235.936 170.814 233.118 167.771 230.687 165.568C224.562 160.015 224.896 157.124 231.123 161.795C232.701 162.978 235.978 165.43 238.405 167.245C246.207 173.078 246.885 173.72 248.403 176.694C249.224 178.303 249.799 180.355 249.681 181.253C249.56 182.181 250.608 184.615 252.11 186.894C253.564 189.099 256.332 193.633 258.263 196.971C261.841 203.156 263.354 204.22 265.28 201.901L266.224 200.764L265.37 197.064C264.167 191.855 264.138 191.908 268.009 192.153L271.503 192.374L271.719 190.866C271.841 190.008 270.776 187.841 269.247 185.839C265.778 181.296 259.663 169.349 258.159 164.173C256.998 160.178 255.84 158.6 251.735 155.411L249.618 153.768L250.496 152.71L251.374 151.653L248.389 149.948C245.895 148.524 244.341 146.404 245.789 146.404C249.791 146.404 259.277 155.728 263.649 163.96C267.678 171.546 270.925 173.556 272.734 169.585L273.567 167.759L270.696 163.517C269.117 161.184 267.696 158.944 267.537 158.54C266.468 155.815 256.288 145.201 252.024 142.367C246.624 138.777 245.108 138.413 243.105 140.225L241.805 141.402L236.795 138.716C228.453 134.244 218.689 130.34 212.948 129.181C204.009 127.378 195.552 126.446 192.808 126.961L190.229 127.445V125.917C190.229 124.539 188.335 122.868 186.773 122.868C186.436 122.868 184.926 123.529 183.417 124.339ZM229.409 126.548C224.735 127.239 224.259 128.872 228.014 131.333L229.839 132.528L232.509 131.791C239.351 129.902 253.941 135.179 263.092 142.853C270.078 148.711 274.738 143.816 267.903 137.8C259.046 130.004 241.236 124.798 229.409 126.548ZM137.51 134.629C131.593 136.18 128.867 137.443 126.385 139.785L124.693 141.383L125.557 142.422C126.031 142.994 127.391 143.462 128.579 143.462C131.43 143.462 130.76 144.343 126.062 146.772C115.56 152.202 113.835 157.55 123.816 153.732C138.527 148.104 144.837 146.364 152.659 145.77C159.215 145.273 160.599 144.386 157.448 142.699C155.489 141.651 142.213 141.451 137.823 142.404L135.801 142.843V141.681C135.801 141.043 135.937 140.52 136.104 140.52C136.271 140.52 139.001 140.023 142.172 139.417C145.343 138.81 148.828 138.313 149.918 138.313C152.264 138.313 156.135 135.264 155.366 134.021C154.535 132.676 143.531 133.051 137.51 134.629ZM35.7709 136.753C35.7709 137.916 35.3053 139.255 34.736 139.727C33.6894 140.596 32.7781 145.91 32.7943 151.053C32.8046 154.414 35.1097 157.978 37.6928 158.627C40.3826 159.302 40.4944 158.689 38.3997 154.753C35.465 149.24 36.1313 147.082 39.2712 151.929C42.7252 157.261 48.4328 152.228 45.123 146.77C43.766 144.534 36.3645 134.636 36.0482 134.636C35.896 134.636 35.7709 135.588 35.7709 136.753ZM100.122 138.175C96.9899 139.639 92.4055 144.295 92.4055 146.012C92.4055 147.859 94.9158 147.893 98.4683 146.095C104.524 143.029 107.432 145.471 107.556 153.726L107.628 158.54H109.681C112.695 158.54 115.867 154.332 116.371 149.666L116.765 146.036L115.312 143.731C111.666 137.943 105.469 135.676 100.122 138.175ZM174.047 138.562C160.551 142.588 161.209 142.136 164.042 145.429L165.803 147.477L169.006 145.92C178.145 141.476 182.67 141.174 194.274 144.236L200.158 145.788L202.933 144.958C208.545 143.28 219.574 145.781 226.05 150.201C232.247 154.431 238.773 156.212 238.773 153.675C238.773 151.284 228.617 145.031 219.925 142.069C213.535 139.891 210.53 139.448 197.216 138.727C194.384 138.574 188.758 138.252 184.712 138.011C179.551 137.704 176.37 137.869 174.047 138.562ZM147.937 148.685C145.51 148.947 142.659 149.508 141.601 149.932C137.094 151.742 139.412 155.085 144.512 154.128C153.398 152.461 171.469 154.85 176.99 158.421C178.405 159.337 181.55 161.041 183.977 162.208C189.016 164.631 195.185 170.485 199.302 176.751L202.085 180.987L201.857 183.732C201.473 188.355 199.739 187.491 196.673 181.147C193.262 174.087 188.553 169.149 182.462 166.242C179.567 164.86 176.971 162.948 175.544 161.146L173.259 158.261L169.169 157.072C166.919 156.418 164.035 155.985 162.76 156.108L160.44 156.333L160.579 158.356C160.741 160.719 160.134 160.824 154.67 159.37C147.624 157.496 141.675 156.636 139.099 157.12C136.48 157.611 135.844 156.952 137.419 155.377L138.302 154.495L137.406 153.599C135.633 151.826 124.325 153.606 120.751 156.222L119.307 157.278L120.344 158.527L121.381 159.776L125.273 159.29L129.165 158.804L128.742 160.919C128.456 162.35 128.69 163.344 129.464 163.986L130.609 164.936L137.3 163.643C142.1 162.715 144.756 162.539 146.7 163.019L149.408 163.689L149.624 165.539L149.84 167.39L153.903 169.517C162.181 173.851 168.277 181.296 169.523 188.594C170.377 193.591 174.973 192.167 176.249 186.512L176.891 183.664L175.477 180.89C172.184 174.436 167.624 168.884 163.547 166.364C160.51 164.487 159.879 162.944 162.463 163.715C170.87 166.223 181.789 178.565 179.229 182.665L178.311 184.134L179.965 187.665C181.96 191.924 183.277 192.574 185.562 190.427L187.287 188.807V185.266C187.287 183.318 186.625 179.983 185.816 177.855C185.007 175.727 184.356 173.489 184.368 172.882L184.392 171.779L185.527 173.25C189.034 177.792 190.417 181.172 190.587 185.608L190.761 190.167L193.542 190.402L196.323 190.636L195.897 201.434C195.221 218.597 192.991 222.549 182.322 225.483C179.983 226.127 180.157 229.009 182.652 230.971L184.637 232.533L192.888 232.411L201.139 232.288L202.855 233.923L204.571 235.559L211.191 235.081C220.408 234.416 226.315 233.045 227.449 231.309C228.834 229.188 232.88 211.787 232.94 207.696C233.066 199.058 234.446 199.971 236.565 210.095C238.623 219.919 241.062 225.552 245.068 229.733C248.686 233.508 250.492 233.979 252.742 231.729L254.207 230.264L253.826 227.232C253.616 225.564 253.153 223.655 252.797 222.989C252.44 222.323 252.318 220.892 252.525 219.807C253.252 216.006 248.524 206.382 245.005 204.499C243.878 203.896 242.094 201.258 240.286 197.521C236.791 190.303 231.372 183.915 228.741 183.915C227.479 183.915 226.559 183.226 225.683 181.623C214.143 160.514 201.75 149.276 188.681 148.071C184.547 147.689 179.196 148.852 179.196 150.132C179.196 151.024 191.801 157.478 196.602 159.042C198.691 159.723 201.768 161.144 203.441 162.201C205.113 163.256 207.293 164.428 208.285 164.805C209.276 165.182 210.088 165.979 210.088 166.575C210.088 167.172 211.086 169.139 212.305 170.947C215.549 175.752 216.756 179.851 216.925 186.634C217.088 193.178 216.369 194.919 214.043 193.617C213.08 193.079 212.118 193.175 210.596 193.962C207.819 195.398 206.41 194.763 206.41 192.072C206.41 189.271 207.411 188.691 210.23 189.859L212.491 190.795L213.496 189.421C217.021 184.6 210.574 172.791 199.539 163.857L195.243 160.379H192.129H189.014L187.312 158.567C180.983 151.83 162.288 147.138 147.937 148.685ZM44.1999 158.956C43.421 160.215 44.5096 164.482 46.138 166.553C47.128 167.811 47.4737 168.987 47.1523 170.001C45.8776 174.016 49.4758 180.238 53.0724 180.238H54.728L55.6497 185.124C56.1572 187.812 56.5962 191.726 56.6271 193.823L56.6823 197.635L54.3956 201.256C50.3201 207.713 50.7658 211.573 55.9578 214.782L58.6608 216.453L62.6363 216.123C65.4173 215.892 67.7407 215.092 70.3643 213.462C72.4274 212.179 74.3869 211.129 74.7178 211.129C78.2682 211.129 89.1236 200.675 95.4858 191.131C99.106 185.7 101.232 183.991 101.232 186.512C101.232 187.132 103.852 193.082 107.054 199.736C110.256 206.39 113.105 212.877 113.385 214.149L113.893 216.465L111.791 218.161L109.69 219.859L110.816 221.92C112.614 225.211 114.836 225.548 122.584 223.707C132.942 221.245 135.801 219.222 135.801 214.354C135.801 209.486 129.731 188.924 127.5 186.236L126.676 185.244L127.929 184.543C130.993 182.828 128.419 180.123 122.562 178.902C120.337 178.438 115.703 177.444 112.264 176.694L106.012 175.329L105.78 173.37C105.214 168.609 98.7647 175.171 90.2585 189.163C85.9168 196.305 81.4816 201.451 77.7658 203.659L75.2614 205.147L72.1296 201.923C70.4048 200.149 67.8945 198.415 66.5441 198.065C65.1944 197.716 64.0374 196.954 63.9727 196.373C63.563 192.699 61.9317 184.162 61.522 183.547C61.252 183.143 60.4342 181.157 59.7038 179.134C58.2217 175.032 54.4794 167.882 50.7533 162.034L48.293 158.172H46.4881C45.4959 158.172 44.4662 158.524 44.1999 158.956ZM82.8438 159.372C77.982 161.041 75.7159 164.428 76.536 168.8C77.679 174.888 84.1964 177.146 88.789 173.043L91.0793 170.996L91.4581 167.632L91.8377 164.267L89.7312 161.981C87.6195 159.69 84.9084 158.664 82.8438 159.372ZM121.881 167.959C119.337 168.846 117.583 171.819 118.379 173.894C118.582 174.424 120.848 175.424 123.413 176.116C125.979 176.809 129.011 177.739 130.153 178.183L132.227 178.988L131.821 180.606C131.594 181.509 132.071 183.582 132.9 185.298C135.407 190.486 139.398 203.201 139.923 207.671C140.197 210 140.706 212.082 141.053 212.296C141.4 212.511 141.685 213.868 141.685 215.313V217.939L139.111 220.788C135.355 224.944 135.96 228.782 140.372 228.782C144.234 228.782 158.448 225.094 158.875 223.981C161.158 218.033 163.237 189.265 161.533 187.212C160.939 186.496 160.927 185.802 161.493 184.746C164.309 179.483 151.664 169.737 139.478 167.778C133.226 166.773 125.044 166.857 121.881 167.959ZM125.684 170.85C125.851 171.349 127.414 172.002 129.159 172.3C133.158 172.982 140.849 176.557 145.485 179.888C149.545 182.805 150.511 183.025 150.511 181.039C150.511 177.957 141.698 172.697 133.691 171C127.577 169.704 125.288 169.661 125.684 170.85ZM182.322 280.097L180.667 280.37V291.437V302.504L182.652 302.125C183.744 301.916 185.447 302.053 186.436 302.429C190.859 304.111 196.113 299.779 196.113 294.45V291.575L194.05 289.599C191.946 287.584 187.839 286.869 186.919 288.358C185.799 290.17 185.08 288.75 185.08 284.724C185.08 280.036 184.867 279.678 182.322 280.097ZM104.174 291.3V302.333H112.264H120.355V300.862V299.391H114.839H109.322V295.75V292.109L113.551 291.889L117.781 291.668V290.565V289.461L113.551 289.241L109.322 289.02V286.149V283.276L114.28 283.059L119.236 282.842L119.482 281.555L119.728 280.267H111.95H104.174V291.3ZM151.982 291.3V302.333H159.705H167.428V300.894V299.456L162.095 299.239L156.763 299.023L156.557 289.645L156.351 280.267H154.167H151.982V291.3ZM205.7 288.129C204.443 289.009 203.843 289.116 203.636 288.496C203.477 288.016 202.546 287.623 201.568 287.623H199.79V294.978V302.333H201.997H204.204V297.604C204.204 292.463 205.327 290.419 207.797 291.065C209.568 291.528 210.803 288.527 209.247 287.542C207.889 286.682 207.727 286.708 205.7 288.129ZM125.512 291.398L128.496 295.174L127.205 296.73C126.495 297.587 125.098 299.197 124.1 300.31L122.286 302.333H124.926H127.566L129.051 299.987L130.537 297.64L132.729 299.987C134.297 301.666 135.579 302.333 137.243 302.333H139.566L136.58 298.792C132.998 294.544 132.991 294.466 135.874 290.85L138.154 287.99L136.133 287.747L134.112 287.504L132.442 289.586L130.773 291.668L128.649 289.645C127.4 288.455 125.703 287.623 124.527 287.623H122.527L125.512 291.398ZM223.491 288.768C220.352 290.966 221.556 294.586 226.069 296.521C227.974 297.337 229.201 298.303 229.017 298.839C228.719 299.703 227.794 299.767 223.35 299.239C220.176 298.861 220.649 301.206 223.968 302.301C228.4 303.764 233.624 301.574 233.624 298.252C233.624 296.599 230.278 293.757 227.73 293.247C225.414 292.784 224.764 291.017 226.645 290.295C227.256 290.061 228.705 290.059 229.866 290.291C232.196 290.757 233.74 289.35 232.063 288.287C230.415 287.243 225.254 287.532 223.491 288.768ZM171.841 295.345V302.333H174.047H176.254V295.345V288.358H174.047H171.841V295.345ZM213.03 295.345V302.333H215.236H217.443V295.345V288.358H215.236H213.03V295.345ZM186.236 291.72C184.807 293.149 184.713 298.171 186.094 299.317C187.651 300.609 190.588 299.133 191.673 296.515L192.61 294.251L191.403 292.408C190.027 290.307 187.928 290.028 186.236 291.72Z" fill="#FBFDFD"/>
</svg>
