<svg width="300" height="282" viewBox="0 0 300 282" fill="none" xmlns="http://www.w3.org/2000/svg">
<path fill-rule="evenodd" clip-rule="evenodd" d="M123.199 1.52166L122.011 2.90974L118.407 2.96045C116.425 2.98854 109.099 3.13858 102.128 3.29411C91.0336 3.54144 63.831 3.61818 38.0678 3.4743C33.5459 3.44895 24.7591 3.45238 18.5415 3.48047C12.3239 3.50924 6.01581 3.46949 4.52427 3.39275L1.81183 3.25231L0.992396 4.88089L0.172295 6.50875L0.0366396 51.4701C-0.0380401 76.198 0.00513344 99.3597 0.132569 102.94C0.260004 106.519 0.321649 113.148 0.268893 117.67C0.216823 122.192 0.206553 130.208 0.246291 135.483C0.36893 151.838 0.356589 158.015 0.194897 160.148C0.109941 161.279 0.190108 163.899 0.373039 165.972C0.556655 168.044 0.703962 173.748 0.701222 178.647C0.698481 183.546 0.742333 192.487 0.7992 198.516C0.856066 204.545 0.834827 214.257 0.751925 220.098C0.669024 225.938 0.625176 231.334 0.654637 232.088C0.683413 232.841 0.842369 241.011 1.0068 250.244L1.30619 267.029L2.38322 269.085C2.97518 270.215 3.46162 271.7 3.46437 272.384C3.48218 277.62 8.41585 278.758 29.5036 278.392C31.953 278.349 37.6567 278.367 42.1786 278.431C46.7005 278.496 51.9418 278.536 53.8259 278.52C55.71 278.504 65.8843 278.479 76.4354 278.466C103.308 278.429 108.5 278.415 121.132 278.342C128.125 278.301 132.788 278.561 133.685 279.041C134.677 279.572 135.713 279.595 137.086 279.117L139.06 278.428L140.826 279.817L142.591 281.206L144.395 280.024L146.199 278.842L160.543 278.704L174.887 278.566L175.831 279.511C176.521 280.2 177.126 280.267 178.08 279.757C179.753 278.861 187.054 279.023 188.648 279.991C189.546 280.538 190.004 280.512 190.389 279.894C190.945 279.003 202.68 278.414 203.973 279.213C204.357 279.451 206.958 279.389 209.752 279.076C212.609 278.756 215.118 278.769 215.484 279.106C215.841 279.435 216.588 279.704 217.142 279.704C217.697 279.704 218.691 280.194 219.351 280.791L220.552 281.878L222.51 280.43L224.468 278.982L229.071 279.228C231.601 279.364 233.878 279.68 234.13 279.932C234.382 280.183 235.292 280.39 236.154 280.39C237.015 280.39 238.509 280.749 239.472 281.188L241.224 281.986L242.892 280.419L244.56 278.851L246.476 279.332C247.529 279.597 248.587 280.13 248.826 280.518C249.121 280.995 250.287 281.003 252.44 280.544C254.188 280.172 255.764 280.103 255.943 280.393C256.122 280.682 257.365 281.125 258.705 281.377L261.142 281.834L262.31 280.407C263.405 279.069 264.117 278.924 269.13 279.022C269.977 279.038 271.057 279.01 271.528 278.958C271.999 278.906 273.367 279.054 274.569 279.286C275.771 279.519 276.926 279.431 277.135 279.091C277.499 278.503 287.834 278.746 289.719 279.386C291.44 279.97 296.161 277.986 297.5 276.116C298.421 274.83 299.034 272.349 299.449 268.237C300.127 261.518 300.207 157.751 299.534 157.75C299.298 157.749 299.049 139.019 298.98 116.128C298.913 93.2359 298.849 73.8898 298.841 73.1361C298.831 72.3825 298.887 64.8288 298.964 56.3503C299.041 47.8717 298.812 40.1037 298.455 39.0883C298.006 37.8133 298.062 36.7534 298.638 35.6626C299.249 34.5034 299.28 33.4455 298.758 31.6854C298.332 30.2535 298.149 24.251 298.303 16.7844L298.561 4.28139L297.669 3.54075C297.112 3.07828 291.089 2.70009 281.647 2.53429C273.326 2.38835 266.014 1.98687 265.4 1.64293C264.681 1.24075 263.527 1.33188 262.167 1.89781C260.806 2.46373 256.508 2.8008 250.117 2.84396L240.183 2.90974L237.976 1.73748L235.77 0.564522L233.523 1.36202C230.403 2.4692 209.009 3.35097 209.009 2.37191C209.009 0.839947 206.319 0.776238 204.31 2.26093C202.863 3.33111 201.985 3.56611 201.161 3.10501C200.506 2.73846 198.357 2.69051 196.127 2.99334L192.237 3.52157L190.228 2.24928L188.219 0.976967L186.785 1.91698L185.352 2.8563L180.223 1.5244C173.796 -0.144592 174.067 -0.161029 174.067 1.90328C174.067 4.28892 172.659 4.61573 169.758 2.90426L167.306 1.45726L165.293 2.49866C164.185 3.07143 163.157 3.41879 163.008 3.26944C162.86 3.12076 161.972 2.87342 161.037 2.71927C160.102 2.56511 158.452 2.07594 157.369 1.63197L155.402 0.824877L154.398 1.658C152.548 3.19271 133.608 2.84533 129.417 1.19895C128.573 0.868034 128.212 1.16882 128.047 2.34383C127.764 4.341 126.45 4.10187 126.45 2.05263C126.45 0.0609455 124.695 -0.226122 123.199 1.52166ZM207.639 56.8518C205.736 57.5801 198.433 63.5024 192.473 69.1507L186.557 74.7571L183.908 75.2224C182.453 75.4779 179.819 76.1432 178.056 76.7009C173.008 78.2979 172.996 80.9405 178.042 79.9943L180.557 79.5223L179.265 80.9494C178.555 81.7339 176.324 83.6488 174.308 85.2048C172.181 86.845 170.642 88.5736 170.642 89.3204C170.642 91.0483 170.833 90.9983 175.564 88.0378C189.308 79.4373 191.772 77.3511 202.561 65.1885C210.533 56.2016 210.896 55.6049 207.639 56.8518ZM130.736 64.0581C125.547 73.6164 123.933 77.3881 124.183 79.3743L124.395 81.0556L126.025 79.9066C126.922 79.2749 128.555 76.7221 129.654 74.2344C130.754 71.746 131.931 69.0938 132.27 68.3402C138.014 55.5857 136.949 52.6129 130.736 64.0581ZM163.05 60.977C152.932 67.7715 143.191 78.5391 140.492 85.9118C138.541 91.2429 133.078 99.7433 125.973 108.503C120.644 115.072 119.497 117.233 121.826 116.317C122.485 116.057 125.954 114.917 129.533 113.783C140.747 110.23 141.712 109.785 144.22 107.009C148.843 101.891 146.777 100.74 140.153 104.741C135.675 107.446 130.904 109.376 130.904 108.483C130.904 108.173 133.7 105.181 137.117 101.833L143.33 95.7456L145.609 90.9496C146.862 88.3119 148.227 84.891 148.642 83.3481C149.881 78.7467 157.808 69.3679 160.458 69.3679C160.712 69.3679 161.692 68.0572 162.636 66.456C163.58 64.8549 165.306 62.6385 166.47 61.532C170.597 57.6075 168.561 57.2773 163.05 60.977ZM183.214 61.3703C181.273 62.5658 178 65.2399 175.939 67.3125L172.192 71.0807L164.542 74.0857C157.269 76.9427 153.615 79.5168 154.591 81.096C155.651 82.8116 177.011 74.0919 178.837 71.1985L179.627 69.9454L178.801 68.9499L177.974 67.9544L179.276 66.974C179.991 66.4341 182.188 64.8254 184.158 63.3983C189.845 59.2792 189.124 57.7281 183.214 61.3703ZM215.86 69.7591C210.396 71.8166 204.384 73.959 202.5 74.5201C200.616 75.0812 198.15 76.298 197.019 77.225L194.964 78.9104L198.732 78.9214C207.767 78.9481 215.19 76.7797 220.435 72.5818C222.408 71.0026 224.813 69.152 225.779 68.469C227.318 67.3817 227.614 65.8723 226.268 65.9799C226.008 66.0004 221.324 67.7009 215.86 69.7591ZM140.249 70.9546C128.509 83.1932 124.084 87.5445 121.297 89.5903C114.786 94.3698 109.223 102.087 111.005 103.869C111.463 104.327 114.142 102.173 119.071 97.381C123.129 93.436 128.929 88.329 131.958 86.0331L137.466 81.8586L140.764 76.2727C145.932 67.5214 145.713 65.2584 140.249 70.9546ZM100.534 73.2964C100.36 73.5849 99.6985 75.517 99.0641 77.5895C95.0622 90.6742 94.7717 92.6625 96.862 92.6625C99.3004 92.6625 100.333 89.4279 101.812 77.1496C102.192 73.9932 101.457 71.7734 100.534 73.2964ZM113.285 76.3905C111.167 79.1468 104.575 91.0935 103.927 93.3476C101.695 101.123 101.439 102.524 102.125 103.211C104.129 105.215 106.628 101.134 109.986 90.3776C111.333 86.0633 113.176 81.1399 114.081 79.438C115.596 76.5885 115.69 75.5341 114.43 75.5341C114.162 75.5341 113.647 75.9198 113.285 76.3905ZM75.7831 77.4867C75.1809 79.3832 76.521 87.03 77.7968 88.9764C79.0848 90.9428 79.9255 91.0366 80.8449 89.3183L81.5348 88.0303L79.6213 82.3368C77.6679 76.5227 76.5409 75.0983 75.7831 77.4867ZM223.14 77.2257C219.945 78.3651 218.959 79.2461 219.643 80.3533C220.456 81.6674 230.696 80.8651 232.168 79.3715L233.331 78.191L232.002 77.2051C230.344 75.9767 226.62 75.9849 223.14 77.2257ZM88.33 81.1296C88.278 81.6318 88.1827 86.0509 88.119 90.9496C88.0546 95.8483 87.7511 101.784 87.4435 104.138L86.8851 108.421H87.9121C88.4767 108.421 89.1255 107.572 89.3536 106.536C89.5818 105.501 90.2443 102.494 90.826 99.8564C92.0161 94.4562 92.0592 84.6005 90.902 82.2998C90.0059 80.5178 88.4664 79.8175 88.33 81.1296ZM161.146 83.7413C154.293 87.093 147.347 92.4926 147.347 94.4692C147.347 95.6538 146.87 95.7682 152.835 93.1558C162.553 88.9004 171.104 83.2083 170.427 81.4454C169.784 79.7689 168.744 80.0258 161.146 83.7413ZM197.704 81.4996C189.734 83.3919 182.974 86.6744 182.974 88.6517C182.974 90.9866 184.979 90.8524 194.51 87.8795C205.176 84.5525 207.639 83.4543 207.639 82.0251V81.0152L203.357 81.0946C201.002 81.1385 198.458 81.3207 197.704 81.4996ZM212.435 84.3621C211.116 85.0417 207.813 86.9882 205.095 88.686C199.765 92.0164 195.726 93.4353 187.941 94.7124C184.314 95.3078 182.974 95.8079 182.974 96.5678V97.6078L192.054 97.27C202.599 96.8781 204.45 96.2834 210.777 91.2484C219.025 84.6854 220.048 80.4356 212.435 84.3621ZM228.193 84.7464C221.513 86.6264 213.12 91.6855 213.12 93.8306C213.12 95.0447 212.762 95.1543 222.177 91.0524C226.805 89.036 231.799 86.9519 233.277 86.4202C239.391 84.2189 235.092 82.8041 228.193 84.7464ZM237.1 90.7797C235.977 91.3669 235.387 92.2582 235.387 93.3682V95.0604L239.296 95.2653C245.912 95.6113 249.96 92.4165 244.585 91.0915C239.94 89.9466 238.786 89.898 237.1 90.7797ZM66.886 91.7718C66.64 92.4124 66.27 96.1889 66.0631 100.165L65.687 107.393L66.6804 108.703C68.5392 111.156 69.7231 109.618 70.1534 104.193C70.5604 99.063 70.5371 98.5738 69.6388 93.5189C69.1079 90.5331 67.7034 89.641 66.886 91.7718ZM80.6606 91.7492C80.4092 91.9999 80.2071 94.2355 80.2112 96.7164C80.2324 109.475 83.5711 109.826 84.7159 97.1905L85.1702 92.1815L83.543 91.7464C81.4752 91.1929 81.2163 91.1928 80.6606 91.7492ZM224.082 93.6518C218.132 95.8203 209.67 99.5878 207.6 100.99L205.926 102.123L206.765 102.994C208.138 104.417 211.802 104.057 220.47 101.645C223.23 100.877 231.619 94.0629 231.619 92.5885C231.619 91.5491 228.734 91.9561 224.082 93.6518ZM124.353 98.4032C107.82 112.341 92.6512 132.626 106.518 122.254C108.437 120.819 111.786 118.338 113.96 116.741C118.428 113.459 132.274 95.76 132.274 93.3312C132.274 91.9801 131.02 92.7831 124.353 98.4032ZM158.994 94.659C150.554 96.987 147.193 99.496 151.175 100.496L152.949 100.94L151.861 102.601C148.789 107.288 151.507 107.474 156.352 102.907C158.371 101.005 161.333 98.5245 162.934 97.3933C168.257 93.6347 166.678 92.5391 158.994 94.659ZM172.87 96.0553C164.028 100.11 152.089 109.791 155.932 109.791C159.959 109.791 179.143 98.3971 178.733 96.2485C178.414 94.5713 176.261 94.5007 172.87 96.0553ZM244.636 99.2048C239.549 100.099 234.231 101.036 232.818 101.287C228.418 102.07 229.95 102.706 238.299 103.563L246.349 104.389L250.617 102.637C252.965 101.673 255.45 100.884 256.139 100.884C256.828 100.884 257.99 100.428 258.722 99.8694L260.052 98.8547L259.024 98.1668C257.561 97.1885 255.11 97.3652 244.636 99.2048ZM186.057 101.212C185.68 101.361 183.573 101.837 181.376 102.271C176.819 103.171 172.859 106.069 173.589 107.971C174.28 109.772 177.284 109.337 184.344 106.411C187.924 104.928 191.7 103.534 192.737 103.314C195.219 102.787 195.159 101.569 192.651 101.569C191.568 101.569 189.795 101.428 188.712 101.255C187.629 101.083 186.434 101.063 186.057 101.212ZM51.2375 103.594C49.698 109.48 54.9098 123.711 57.6147 121.007C59.0987 119.523 53.9801 102.254 52.0562 102.254C51.7986 102.254 51.43 102.857 51.2375 103.594ZM75.8688 104.481C74.8829 108.564 74.6061 115.83 75.3817 117.279L76.1983 118.804L74.9973 121.32C73.8997 123.621 72.7179 132.182 73.0426 135.483C73.1166 136.237 73.2166 138.19 73.2646 139.822C73.4989 147.764 77.8358 137.432 78.4291 127.521C78.6402 123.987 79.18 119.457 79.6274 117.453L80.4421 113.811L79.339 110.602C78.7327 108.837 78.0379 106.391 77.7954 105.166C77.2836 102.582 76.4032 102.269 75.8688 104.481ZM62.1332 107.136C61.8975 108.314 61.705 111.715 61.705 114.694V120.111L62.832 120.543C65.7486 121.663 66.5318 115.217 64.4085 107.564C63.5405 104.434 62.7053 104.277 62.1332 107.136ZM90.4738 109.962C88.9295 112.694 87.3702 115.392 87.0091 115.957C85.9136 117.672 83.6506 122.828 83.1929 124.653L82.7612 126.37L83.7643 126.131C87.4311 125.256 93.4898 115.34 94.2695 108.934C94.9217 103.581 93.929 103.85 90.4738 109.962ZM199.417 106.576C193.516 107.15 177.241 111.962 176.356 113.393C175.506 114.768 178.367 116.043 181.261 115.579C187.152 114.633 204.406 110.362 206.645 109.294C211.835 106.819 208.767 105.665 199.417 106.576ZM215.604 109.554C207.24 113.782 206.935 114.866 214.49 113.509C217.316 113.001 223.02 112.553 227.165 112.512C235.059 112.434 243.287 110.834 243.789 109.278C244.167 108.103 240.16 107.368 226.48 106.104L223.054 105.788L215.604 109.554ZM98.0918 111.741C96.2262 114.361 92.9102 121.793 92.2367 124.864C90.8705 131.089 90.7239 132.366 91.2795 133.208L91.877 134.113L92.943 132.743C95.5938 129.335 102.201 114.424 101.996 112.313C101.715 109.42 99.9307 109.159 98.0918 111.741ZM165.16 111.948C153.24 115.242 140.746 121.917 142.75 123.92C144.002 125.173 169.785 114.103 170.473 112.018C170.806 111.008 168.66 110.98 165.16 111.948ZM259.709 111.964C257.26 112.231 252.543 112.422 249.227 112.388C239.258 112.285 239.499 114.091 249.709 116.009L255.847 117.162L264.106 116.481C277.023 115.416 278.848 113.946 269.253 112.333C266.136 111.81 262.435 111.667 259.709 111.964ZM139.468 115.719C137.584 117.438 134.487 119.859 132.587 121.099C127.491 124.425 126.064 126.919 129.255 126.919H130.266L129.557 128.244C126.247 134.43 135.642 126.666 142.703 117.382C146.696 112.131 144.588 111.047 139.468 115.719ZM216.554 116.852C215.24 117.302 214.061 118.21 213.935 118.869L213.704 120.068L217.009 120.124C220.545 120.184 222.447 120.414 227.85 121.433C243.027 124.296 250.802 124.057 250.802 120.73C250.802 119.935 246.81 118.506 245.738 118.917C245.2 119.123 239.568 118.55 233.222 117.645C220.036 115.761 219.778 115.749 216.554 116.852ZM186.843 118.656L180.778 119.081L179.82 120.391C179.294 121.111 178.863 122.566 178.863 123.624V125.549L180.405 125.541C181.252 125.537 183.642 125.069 185.714 124.501C188.505 123.737 202.743 121.438 204.683 121.438C204.802 121.438 204.898 120.857 204.898 120.148C204.898 117.962 201.137 117.651 186.843 118.656ZM121.508 120.924C118.264 123.217 116.152 127.41 116.437 130.996C116.525 132.105 127.478 121.334 127.478 120.139C127.478 118.831 123.784 119.317 121.508 120.924ZM164.475 120.655C156.445 122.731 151.43 126.234 156.487 126.234C161.083 126.234 173.981 123.188 175.401 121.768L176.465 120.704L175.437 120.053C173.934 119.103 169.549 119.343 164.475 120.655ZM67.5458 121.609C67.3902 122.081 66.8113 124.315 66.2591 126.575L65.2554 130.684L66.0494 131.189C69.6265 133.465 71.7422 129.393 70.3137 122.98C69.8225 120.775 68.1021 119.923 67.5458 121.609ZM42.2451 123.387C41.4681 124.643 43.3865 129.048 45.7989 131.549C49.5137 135.401 52.8236 137.946 53.5416 137.503C55.042 136.576 53.8369 134.242 49.0046 128.715C43.9826 122.97 42.9871 122.186 42.2451 123.387ZM112.271 124.696C111.658 125.735 108.411 129.988 105.056 134.149C97.4348 143.6 96.2262 146.253 100.571 143.991C105.815 141.262 115.146 128.334 115.146 123.798C115.146 122.157 113.459 122.684 112.271 124.696ZM259.195 123.65C253.504 124.405 253.4 125.012 258.696 126.551L262.454 127.644L271.474 127.453C280.339 127.265 283.925 126.204 279.113 125.193C278.049 124.97 275.464 124.342 273.367 123.798C269.145 122.702 266.552 122.676 259.195 123.65ZM207.981 125.221C200.367 127.254 198.955 128.742 202.284 131.228L204.038 132.537L209.778 131.008C218.932 128.57 221.873 128.244 230.42 128.72C236.351 129.051 238.47 128.958 238.47 128.37C238.47 125.366 216.093 123.055 207.981 125.221ZM60.4286 129.457C58.6068 137.514 58.1231 140.683 57.8011 146.685C57.5695 151 57.7127 153.347 58.2396 153.874L59.0213 154.656L59.5838 153.746C60.6759 151.979 62.6169 138.83 62.6745 132.809C62.7409 125.83 61.6255 124.164 60.4286 129.457ZM27.2201 128.061C26.9686 128.312 26.7631 128.794 26.7631 129.133C26.7631 130.171 37.0059 139.665 39.8499 141.264L42.5287 142.769L42.9206 141.749C43.7318 139.635 39.2483 134.996 31.3535 129.778C27.701 127.364 27.8538 127.428 27.2201 128.061ZM100.406 129.935C92.8985 135.056 82.3385 148.844 85.9238 148.844C87.1132 148.844 99.1469 136.434 101.87 132.4C105.782 126.603 105.641 126.364 100.406 129.935ZM159.337 128.079C149.356 130.381 141.866 133.492 141.866 135.336C141.866 137.876 166.144 131.249 167.051 128.461C167.332 127.6 162.461 127.359 159.337 128.079ZM180.576 128.97C172.389 129.452 170.965 129.831 169.906 131.81C168.776 133.921 169.547 134.233 176.957 134.663L184.002 135.072L189.14 133.703C191.966 132.95 195.049 131.735 195.991 131.002L197.704 129.67L196.677 128.99C195.582 128.266 192.597 128.263 180.576 128.97ZM118.474 134.284C110.595 142.324 105.898 148.844 107.986 148.844C111.122 148.844 126.106 132.428 125.177 130.009C124.533 128.331 123.934 128.712 118.474 134.284ZM83.4066 132.559C82.4817 133.79 81.1094 136.186 80.3571 137.881C79.6048 139.577 78.3051 142.506 77.4686 144.39C76.6327 146.274 75.4872 148.895 74.9226 150.214C74.3587 151.533 73.6106 153.228 73.2598 153.982C72.909 154.736 72.0546 157.189 71.3606 159.434C68.6783 168.112 68.0843 164.958 69.2408 148.184C69.8841 138.856 69.643 137.507 67.4841 138.336C66.664 138.651 61.705 157.596 61.705 160.413C61.705 162.346 60.3183 162.973 59.8661 161.245C59.379 159.382 58.6794 159.431 55.9423 161.519C52.7626 163.944 52.6859 163.895 46.5443 155.524C43.5859 151.491 41.5675 155.096 39.7608 167.64C38.1966 178.503 38.5604 182.651 40.7124 178.489C41.2811 177.39 42.2382 176.083 42.8398 175.584L43.9346 174.675L44.9603 175.976L45.9859 177.277L45.6091 181.387C45.4022 183.648 44.4074 188.957 43.3982 193.184C41.401 201.554 41.4181 201.665 44.7205 202.003C51.789 202.725 54.5433 203.169 55.9601 203.815C58.1203 204.799 60.754 208.959 61.3138 212.271L61.7755 215.006L60.086 217.496C58.0265 220.531 58.2341 220.783 62.8046 220.783H66.4167L70.398 218.644C72.5883 217.467 75.1124 216.047 76.0072 215.489L77.6344 214.473L79.2616 216.227L80.8881 217.982L83.8006 216.858L86.7124 215.734L101.785 215.53C122.866 215.244 122.418 215.235 124.405 215.991C126.59 216.821 129.533 216.882 129.533 216.097C129.533 215.781 128.249 214.333 126.678 212.88C123.256 209.714 124.3 208.857 128.248 211.592L131.004 213.502L136.022 213.545L141.04 213.589L143.679 215.705C149.408 220.296 152.135 220.585 148.461 216.211C147.021 214.496 140.496 202.868 140.496 202.016C140.496 201.834 141.575 201.86 142.894 202.074L145.291 202.464V201.004C145.291 199.028 146.493 199.194 149.691 201.615C154.56 205.299 153.413 202.233 147.536 195.853L143.82 191.819L144.042 187.994L144.264 184.168L143.197 183.952C142.61 183.833 140.978 184.518 139.569 185.474C137.808 186.669 136.087 187.211 134.055 187.211H131.101L128.003 184.846C124.589 182.24 121.927 178.187 120.27 173.079C119.674 171.243 118.853 169.067 118.446 168.245C117.375 166.086 117.96 165.164 122.685 161.571C128.239 157.347 133.822 155.01 138.358 155.01C141.745 155.01 140.38 156.044 134.684 157.791C128.625 159.65 128.309 160.533 132.873 162.846C136.59 164.728 137.284 165.842 136.698 168.976C136.479 170.15 136.67 172.498 137.123 174.194C137.576 175.889 138.018 178.598 138.104 180.214C138.29 183.682 138.56 184.057 140.44 183.461C142.431 182.828 143.921 181.183 143.921 179.615C143.921 178.883 145.426 176.207 147.267 173.669L150.612 169.055L151.076 164.944L151.541 160.833L149.909 157.75C148.816 155.683 147.309 154.128 145.334 153.03L142.389 151.392L138.228 151.451C131.165 151.551 117.474 156.593 115.472 159.832C113.834 162.483 107.609 162.773 107.609 160.198C107.609 158.551 112.053 154.765 115.609 153.382C122.043 150.879 126.602 146.788 122.959 146.788C120.958 146.788 114.177 148.944 109.449 151.085L104.781 153.198L105.169 154.741L105.556 156.285L103.5 157.75L101.443 159.214V158.139C101.443 156.753 99.2353 156.754 96.5489 158.144C93.1054 159.924 93.6069 158.821 98.0816 154.772C103.838 149.563 107.66 143.362 105.116 143.362C104.555 143.362 96.6407 150.175 92.225 154.458C90.358 156.269 88.5609 157.75 88.2314 157.75C87.9018 157.75 85.3271 159.634 82.5091 161.936C72.8028 169.868 75.5653 165.176 87.1543 154.049C91.7591 149.627 94.5709 146.454 94.0434 146.272C92.6875 145.806 88.6582 148.763 82.677 154.613C72.7473 164.324 69.817 163.982 78.103 154.079C79.635 152.248 80.8888 150.302 80.8888 149.754C80.8888 148.685 82.3892 143.525 84.1212 138.638C86.7432 131.242 86.4253 128.54 83.4066 132.559ZM248.167 131.445C247.304 132.05 245.791 132.76 244.805 133.023C241.763 133.837 242.243 135.013 245.794 135.448C247.607 135.67 251.556 136.594 254.571 137.501C257.585 138.409 261.902 139.33 264.162 139.55C266.423 139.77 269.738 140.13 271.528 140.35C274.702 140.74 276.206 139.753 273.583 139C264.274 136.325 261.342 135.272 256.898 133.008C251.019 130.013 250.375 129.898 248.167 131.445ZM216.411 132.763C216.211 132.963 211.613 133.86 206.191 134.758C192.475 137.028 190.12 138.275 199.222 138.447C201.779 138.495 205.412 138.827 207.296 139.185C209.865 139.672 240.93 140.338 244.914 139.991C245.993 139.897 243.106 137.196 241.926 137.196C241.306 137.196 240.507 136.917 240.148 136.575C238.533 135.032 217.516 131.658 216.411 132.763ZM269.301 132.992C269.301 133.805 277.013 137.2 279.937 137.674C283.148 138.195 282.978 137.115 279.443 134.515L276.568 132.4H272.934C270.936 132.4 269.301 132.667 269.301 132.992ZM132.582 135.045C132.225 135.369 130.236 136.519 128.163 137.601C121.119 141.278 119.136 143.329 121.679 144.305C124.868 145.529 137.889 136.874 135.88 134.865C135.277 134.262 133.33 134.367 132.582 135.045ZM45.9469 137.71C45.9462 143.256 51.3053 156.636 53.3683 156.239L54.4487 156.031L54.2569 152.266C54.152 150.195 53.7807 148.208 53.432 147.85C53.0832 147.492 52.7982 146.509 52.7982 145.664C52.7982 144.819 52.5296 143.963 52.2015 143.76C51.8733 143.557 51.4314 142.522 51.219 141.46C50.8429 139.579 47.7248 135.826 46.5388 135.826C46.2134 135.826 45.9469 136.674 45.9469 137.71ZM146.319 138.906C139.253 140.835 134.917 143.598 136.058 145.444C136.881 146.777 142.598 144.975 152.088 140.394C156.786 138.127 152.874 137.117 146.319 138.906ZM166.722 138.662C160.539 139.55 157.343 140.742 157.048 142.271L156.797 143.577L164.576 143.107C173.222 142.584 176.808 141.637 176.808 139.872C176.808 137.792 174.617 137.529 166.722 138.662ZM191.744 141.673C190.867 142.549 173.895 145.059 164.825 145.654C162.052 145.836 161.899 147.532 164.522 149.015C166.807 150.307 171.3 150.527 175.78 149.566C177.287 149.243 180.37 148.608 182.631 148.155C184.892 147.701 187.667 146.926 188.798 146.431C189.928 145.937 191.932 145.334 193.251 145.092C194.57 144.851 196.111 144.568 196.677 144.463C202.683 143.352 206.269 142.394 206.269 141.903C206.269 141.271 192.366 141.05 191.744 141.673ZM255.039 143.876C255.241 144.947 265.265 151.584 266.678 151.584C268.12 151.584 266.978 149.403 264.334 147.104C259.775 143.14 254.558 141.329 255.039 143.876ZM269.927 145.467C274.163 149.296 280.867 152.008 281.914 150.315C283.18 148.265 273.545 142.639 268.879 142.705L266.903 142.734L269.927 145.467ZM213.462 143.996C205.756 145.295 203.291 146.649 205.185 148.542L206.155 149.514L220.6 149.871C236.848 150.273 239.141 149.575 230.016 147.007C224.586 145.479 216.382 143.352 216.287 143.448C216.241 143.495 214.97 143.742 213.462 143.996ZM148.546 145.567C147.51 145.925 146.662 146.496 146.662 146.837C146.662 149.178 168.521 158.718 170.742 157.346C171.846 156.663 170.748 155.916 163.293 152.282C159.233 150.302 154.986 148.004 153.856 147.173C150.795 144.925 150.589 144.863 148.546 145.567ZM241.21 146.684C241.21 149.21 251.303 154.93 261.043 157.923C274.265 161.987 277.023 162.454 275.767 160.422C275.149 159.421 261.413 152.728 255.598 150.593C252.772 149.555 249.489 148.295 248.302 147.791C245.066 146.419 241.21 145.817 241.21 146.684ZM190.624 148.715L189.709 149.338L191.537 150.776C195.293 153.73 208.937 157.411 210.465 155.883C212.654 153.694 193.483 146.768 190.624 148.715ZM174.907 153.762C175.222 154.706 175.961 155.147 180.576 157.142C182.46 157.957 185.543 159.311 187.427 160.152C200.504 165.991 220.272 170.725 221.146 168.227C221.306 167.772 220.413 166.967 219.162 166.439C217.912 165.91 215.501 164.838 213.805 164.056C206.573 160.72 201.717 159.016 189.14 155.4C180.525 152.923 174.393 152.217 174.907 153.762ZM231.105 153.443C220.85 153.8 221.482 154.882 232.989 156.666C245.904 158.669 249.417 158.176 244.386 155.067C241.561 153.321 240.021 153.133 231.105 153.443ZM214.846 159.098C214.359 159.888 214.88 160.207 223.739 164.552L230.591 167.913L234.017 167.67C235.901 167.536 239.388 167.87 241.767 168.412C246.463 169.483 261.079 169.773 261.079 168.796C261.079 167.569 259.203 166.768 252.858 165.289C249.278 164.454 244.345 163.214 241.896 162.534C228.49 158.809 216.005 157.223 214.846 159.098ZM161.76 160.32C161.811 161.362 177.666 170.083 179.511 170.083C182.03 170.083 173.364 162.929 168.264 160.798C165.754 159.75 161.718 159.452 161.76 160.32ZM178.863 162.837C178.863 163.74 181.191 165.216 190.168 170.012C197.545 173.951 202.086 173.93 197.353 169.979C195.28 168.248 181.288 161.861 179.569 161.861C179.181 161.861 178.863 162.3 178.863 162.837ZM260.395 163.403C260.396 163.874 261.958 165.184 263.867 166.315C265.776 167.445 268.595 169.111 270.131 170.017C274.4 172.535 283.713 174.348 283.663 172.652C283.57 169.456 260.392 160.243 260.395 163.403ZM158.606 164.674C157.284 166.814 170.069 175.029 179.754 178.263C183.221 179.421 190.038 182.371 194.904 184.817C207.252 191.027 211.321 190.886 201.965 184.572C199.222 182.721 195.291 179.766 193.23 178.007C187.682 173.271 183.517 171.543 182.802 173.68C182.47 174.672 175.047 171.643 166.132 166.877C160.254 163.734 159.351 163.471 158.606 164.674ZM157.966 172.138C157.443 172.986 158.159 174.242 159.868 175.473C165.122 179.258 172.655 185.859 178.307 191.63C187.124 200.631 187.749 200.086 181.327 188.999C178.503 184.123 172.526 178.472 167.41 175.839C166.017 175.123 163.819 173.842 162.525 172.995C159.972 171.321 158.628 171.069 157.966 172.138ZM213.61 171.876C212.929 172.557 215.83 175.562 217.179 175.573C218.827 175.586 226.449 178.087 229.367 179.571C232.707 181.27 240.865 183.785 243.036 183.785C245.519 183.785 244.372 182.556 239.929 180.454C235.368 178.297 231.126 175.803 229.221 174.161C228.274 173.345 226.156 172.866 222.369 172.613C219.355 172.412 216.264 172.05 215.501 171.81C214.737 171.57 213.887 171.6 213.61 171.876ZM235.729 172.531C235.729 173.003 238.407 174.669 241.68 176.232C244.953 177.794 249.357 180.084 251.467 181.321C253.576 182.558 256.063 183.751 256.992 183.973C257.921 184.194 260.051 184.721 261.724 185.141C263.398 185.562 265.534 185.815 266.471 185.702L268.176 185.498L264.039 182.667C261.764 181.111 257.315 178.564 254.153 177.009C248.828 174.39 246.398 173.637 238.641 172.207L235.729 171.67V172.531ZM258.339 174.087C258.339 175.833 262.712 177.882 268.612 178.899C274.173 179.858 275.261 178.59 270.821 176.325C267.083 174.418 258.339 172.851 258.339 174.087ZM149.687 175.658C149.056 176.678 151.495 178.595 156.596 181.089C161.97 183.717 163.239 183.689 160.664 180.998C156.283 176.42 150.849 173.777 149.687 175.658ZM198.408 176.219C197.695 177.373 212.414 184.462 218.433 185.864C227.041 187.869 213.478 178.99 203.871 176.33C200.497 175.396 198.936 175.364 198.408 176.219ZM84.013 182.68C81.9213 184.772 80.6373 186.86 79.7905 189.548L78.573 193.41L79.5918 194.43C82.27 197.107 91.6995 196.416 95.0183 193.299C98.5283 190.001 98.581 184.905 95.1437 181.246L93.6672 179.675H90.343H87.0187L84.013 182.68ZM148.717 183.737C148.717 184.583 151.234 187.113 155.713 190.77C163.86 197.422 166.801 200.99 168.253 205.985C169.454 210.115 172.016 212.886 175.266 213.571C177.975 214.142 178.003 213.868 175.602 210.263C174.562 208.7 172.656 205.419 171.368 202.969C164.741 190.373 160.596 185.822 153.829 183.71C148.755 182.126 148.717 182.127 148.717 183.737ZM273.051 183.13C271.824 185.115 277.569 189.734 282.119 190.42L284.717 190.813L281.633 187.587C277.441 183.2 274.085 181.457 273.051 183.13ZM225.966 183.574C224.242 184.023 224.486 185.315 226.695 187.432L228.623 189.279L232.747 189.186L236.871 189.093L243.665 192.706C247.402 194.693 251.068 196.736 251.812 197.246C252.554 197.756 253.704 198.173 254.366 198.173H255.569L254.804 196.495C253.625 193.908 242.694 187.211 239.65 187.211C239.126 187.211 238.483 186.996 238.22 186.734C237.957 186.47 235.825 185.739 233.481 185.107C231.138 184.475 228.758 183.803 228.193 183.611C227.628 183.42 226.625 183.403 225.966 183.574ZM183.857 185.628C182.92 188.07 197.169 199.326 198.946 197.548C200.141 196.353 187.731 184.471 185.289 184.471C184.746 184.471 184.102 184.991 183.857 185.628ZM168.311 189.771C166.804 191.277 169.342 194.463 176.123 199.577C177.818 200.856 181.002 203.606 183.197 205.69C192.81 214.813 194.439 212.294 185.3 202.44C178.214 194.8 169.66 188.421 168.311 189.771ZM263.82 190.604C263.82 191.405 272.024 196.715 275.921 198.438C281.143 200.745 281.933 198.028 277.009 194.702C272.076 191.37 263.82 188.805 263.82 190.604ZM200.102 191.116C200.102 192.111 201.573 193.76 204.898 196.496C206.594 197.891 210.863 201.768 214.385 205.112C217.907 208.455 221.067 211.191 221.407 211.191C225.208 211.191 212.853 195.295 207.145 192.841C202.891 191.012 200.102 190.329 200.102 191.116ZM150.087 192.457C150.087 195.645 163.382 209.087 164.968 207.501C165.592 206.877 160.564 199.854 156.235 195.303C152.492 191.368 150.087 190.255 150.087 192.457ZM219.971 192.61C219.971 193.32 221.431 195.076 223.226 196.527C225.015 197.974 229.449 201.711 233.078 204.831C239.858 210.663 240.799 211.195 241.43 209.55C241.913 208.293 227.232 193.479 224.283 192.246C221.25 190.979 219.971 191.087 219.971 192.61ZM232.989 193.387C232.989 194.388 240.73 201.537 244.751 204.25C249.271 207.299 250.717 206.29 247.312 202.462C241.791 196.256 232.989 190.679 232.989 193.387ZM219.971 201.01C219.971 202.377 230.141 211.876 231.605 211.876C233.64 211.876 233.296 210.347 230.648 207.62C224.999 201.804 219.971 198.691 219.971 201.01ZM252.336 201.06L251.595 201.953L253.25 204.688C255.922 209.102 255.268 210.776 251.176 209.994L249.239 209.624L249.581 213.18L249.922 216.736L251.777 218.672L253.632 220.608L252.496 224.515C250.552 231.204 253.259 230.563 256.755 223.507C259.919 217.119 260.661 205.299 258.102 202.047C256.962 200.598 253.247 199.962 252.336 201.06ZM191.196 202.537C191.196 204.509 199.94 213.931 201.769 213.931C203.366 213.931 201.398 210.513 197.46 206.448C192.857 201.697 191.196 200.66 191.196 202.537ZM200.559 202.056C199.641 202.975 200.185 203.859 204.322 208.167C211.149 215.276 213.179 213.148 206.554 205.826C202.937 201.829 201.616 200.999 200.559 202.056ZM154.198 209.605C154.198 209.864 154.844 210.761 155.632 211.601C157.16 213.228 160.364 221.321 160.364 223.554C160.364 225.972 159.372 224.926 157.076 220.091C154.837 215.372 150.987 210.506 149.493 210.506C148.238 210.506 148.615 212.026 150.614 215.032C151.643 216.58 153.334 219.117 154.37 220.671C156.274 223.526 156.792 225.579 155.609 225.579C155.254 225.579 154.763 225.254 154.518 224.857C154.273 224.46 152.482 223.376 150.538 222.448C148.595 221.519 145.771 219.999 144.264 219.069C140.511 216.756 140.578 216.677 141.003 222.876C141.243 226.37 141.051 229.771 140.48 232.149L139.58 235.904L137.04 238.199C135.643 239.462 132.997 241.353 131.161 242.402C124.954 245.946 123.779 247.663 127.992 247.032C129.724 246.772 131.483 245.761 133.393 243.927C135.011 242.373 136.411 241.509 136.658 241.91C136.897 242.297 136.779 242.806 136.396 243.043C135.551 243.565 135.462 246.133 136.289 246.133C136.614 246.133 138.015 245.362 139.403 244.42C142.314 242.444 142.783 242.363 143.851 243.65L144.633 244.593L147.532 243.597C149.126 243.049 150.892 242.209 151.458 241.731C152.023 241.252 152.994 240.68 153.617 240.461C158.89 238.6 168.967 219.574 167.179 214.854C165.622 210.748 162.07 208.266 163.153 212.042C164.909 218.166 163.541 219.563 160.469 214.788C157.723 210.522 154.198 207.609 154.198 209.605ZM227.427 214.709C227.301 216.158 227.305 216.203 227.77 218.385L228.209 220.44L225.841 217.713C223.46 214.969 223.152 215.015 222.581 218.19L222.369 219.367L219.355 217.334C214.553 214.097 214.097 214.562 213.515 223.288C213.386 225.231 213.077 227.15 212.829 227.551C212.255 228.479 207.113 230.765 204.123 231.422C201.234 232.057 198.732 233.674 198.732 234.907C198.732 236.143 200.18 236.117 201.856 234.85C203.431 233.659 207.052 233.487 208.118 234.553C209.378 235.814 211.328 234.658 214.015 231.06C217.249 226.728 218.239 226.636 217.679 230.717L217.257 233.8H218.87C220.284 233.8 224.215 231.124 231.323 225.322C232.802 224.115 233.755 222.425 234.537 219.625C235.796 215.116 235.292 213.886 232.744 215.25L231.101 216.129L229.305 214.951L227.508 213.774L227.427 214.709ZM99.5039 221.552C99.1011 222.824 98.5687 225.011 98.322 226.411C97.8507 229.088 95.1094 231.796 89.453 235.175C86.7385 236.795 85.7156 237.774 85.695 238.768C85.6765 239.69 87.1468 239.31 89.1755 237.865C90.4485 236.958 91.6701 236.609 92.5683 236.894C93.3644 237.147 94.451 236.944 95.0786 236.426L96.1844 235.513L96.4729 236.37C97.5718 239.636 109.109 233.066 110.989 228.103C113.013 222.761 110.972 220.211 104.179 219.595L100.237 219.237L99.5039 221.552ZM246.565 223.717C245.553 224.552 243.471 226.081 241.94 227.113C237.999 229.771 238.321 230.574 243.095 229.997C247.458 229.469 248.747 228.764 248.747 226.906C248.747 226.22 249.055 225.469 249.432 225.236C250.417 224.628 250.278 222.149 249.261 222.175C248.79 222.187 247.577 222.88 246.565 223.717Z" fill="#FBFDFD"/>
</svg>
