<svg width="300" height="196" viewBox="0 0 300 196" fill="none" xmlns="http://www.w3.org/2000/svg">
<path fill-rule="evenodd" clip-rule="evenodd" d="M238.457 1.66233C237.972 2.93685 238.218 2.92541 235.298 1.80808L232.911 0.894987L231.7 1.79029L230.488 2.68601L229.073 2.28009C227.099 1.71402 225.785 1.77377 225.099 2.45975C224.705 2.8538 223.911 2.97795 222.676 2.83855C221.318 2.68559 220.692 2.80889 220.274 3.31225C219.964 3.68639 219.254 3.99273 218.698 3.99273C214.601 3.99273 210.094 8.7565 212.135 10.9289C213.178 12.0394 213.319 13.3144 212.398 13.3144C212.049 13.3144 211.763 13.5038 211.763 13.7351C211.763 13.9664 212.482 14.1275 213.362 14.0931C214.466 14.0499 215.548 14.4012 216.857 15.2291L218.754 16.4278L223.839 16.4803C226.635 16.5091 229.337 16.3909 229.842 16.218C232.235 15.3994 237.221 15.8541 241.808 17.3095C243.577 17.8709 245.882 18.5718 246.931 18.8671C247.979 19.1624 249.343 19.7501 249.962 20.1725C250.581 20.5954 251.345 20.9411 251.66 20.9411C252.337 20.9411 256.171 22.9067 257.133 23.747C257.501 24.0681 258.023 24.3308 258.293 24.3308C259.076 24.3308 264.67 28.9937 264.952 29.8823C265.093 30.3267 265.66 30.9276 266.211 31.2178C267.421 31.8551 272.753 37.8845 272.767 38.631C272.773 38.9226 272.93 39.1607 273.116 39.1607C274.023 39.1607 275.937 44.2219 276.762 48.798L277.315 51.8677L276.767 53.9799C275.259 59.7945 270.633 63.4859 261.549 66.1252C258.712 66.9493 245.866 67.0895 242.905 66.3285C241.74 66.029 240.471 65.7188 240.086 65.6396C236.405 64.8807 224.609 60.4513 220.873 58.4251C217.499 56.5964 207.652 53.1118 201.594 51.6038L198.416 50.8127L190.577 50.8542C185.016 50.8839 181.938 51.0898 179.985 51.5631C178.47 51.93 176.322 52.3304 175.213 52.4529C174.103 52.5753 173.042 52.7703 172.855 52.8859C172.667 53.002 171.096 53.4999 169.364 53.9927C167.631 54.4854 164.975 55.2468 163.46 55.685C160.076 56.6633 152.337 59.8682 150.325 61.1237C149.509 61.6326 147.806 62.5537 146.54 63.1706C145.275 63.7876 143.463 64.8405 142.515 65.5108C137.773 68.864 131.286 73.8842 128.831 76.1006C127.846 76.9904 126.862 77.7183 126.646 77.7183C126.429 77.7183 125.042 78.9102 123.564 80.3665C117.871 85.976 110.156 93.0481 108.561 94.1189C107.644 94.7345 106.784 95.4023 106.648 95.6027C106.315 96.0967 104.309 97.2115 99.2677 99.7038C88.7237 104.917 86.6564 105.449 77.4051 105.326L71.6439 105.25L67.8716 104.237C65.7972 103.679 62.2884 102.678 60.0745 102.01L56.0493 100.797L55.7883 98.6644C55.0828 92.9045 52.5859 91.491 47.5259 93.9871C45.9218 94.7781 44.2278 95.5379 43.7617 95.6751L42.9143 95.9243L42.1927 94.6599C41.0669 92.688 38.7115 93.121 36.8167 95.6484C35.6489 97.2064 33.2138 98.4288 27.3603 100.396C22.7512 101.946 19.9318 103.44 17.7035 105.518C16.8879 106.278 15.7405 107.341 15.1532 107.881C14.2151 108.742 11.3479 112.992 11.3479 113.52C11.3479 114.008 8.3751 118.272 7.47557 119.075C6.92517 119.566 5.56718 120.949 4.45749 122.147C3.34736 123.346 2.08386 124.326 1.64913 124.326C-0.550348 124.326 -0.549498 127.747 1.65041 129.598C2.36012 130.195 4.28503 131.469 5.92733 132.428L8.91365 134.172L12.3771 134.388C14.9066 134.546 16.504 134.412 18.3005 133.889C19.6534 133.496 20.8504 133.264 20.9601 133.374C21.0699 133.484 22.4317 133.129 23.9863 132.586C26.834 131.592 36.9853 130.517 39.0284 130.993C40.2555 131.279 47.8907 134.531 48.4013 134.985C48.6229 135.182 49.0636 135.343 49.3814 135.343C50.2233 135.343 55.2769 137.845 55.8641 138.553C56.1395 138.885 56.5942 139.156 56.8747 139.156C57.1552 139.156 57.8467 139.65 58.4119 140.254C58.9767 140.858 60.3215 142.001 61.3999 142.794C64.3998 145.001 65.5154 146.715 65.7743 149.513L65.9967 151.915L64.8819 154.116C63.2295 157.379 62.166 158.608 57.6272 162.502C55.3612 164.446 52.6715 166.853 51.6503 167.85C50.6296 168.847 49.6373 169.663 49.4453 169.663C49.2534 169.663 48.6382 170.122 48.078 170.682C46.8204 171.94 43.4295 174.899 41.0317 176.832C40.0432 177.629 38.3467 179.221 37.2611 180.37C36.1756 181.518 34.4295 182.944 33.3808 183.538C32.3321 184.131 30.9021 185.151 30.203 185.803C29.5038 186.455 28.503 187.38 27.9785 187.86C26.915 188.831 26.7133 190.001 27.609 190.001C27.9298 190.001 28.4297 189.715 28.72 189.366C30.1237 187.674 31.1745 189.094 30.2161 191.387C29.2572 193.683 29.381 194.761 30.4102 193.073C31.6232 191.084 32.513 191.254 32.4067 193.456C32.2931 195.803 32.8965 195.888 35.1265 193.837C37.2255 191.906 38.192 191.806 38.3873 193.501C38.4611 194.139 38.6653 194.662 38.8407 194.662C39.3398 194.662 40.9131 192.709 41.0745 191.89C41.1542 191.484 41.5533 190.988 41.9609 190.788C42.369 190.589 43.0363 190.263 43.4439 190.064C43.8519 189.865 44.2515 189.246 44.332 188.687C44.4125 188.128 44.6761 187.43 44.9176 187.136L45.357 186.601L45.9688 187.109L46.5802 187.616L46.97 187.008C47.1844 186.674 47.3132 186.041 47.2556 185.603C47.1476 184.778 47.4997 184.495 49.758 183.588C50.7376 183.195 51.2186 182.635 51.5626 181.486C52.3439 178.879 54.4256 178.772 54.0053 181.362C53.7096 183.185 54.354 183.569 55.6569 182.345C56.3455 181.698 56.6848 180.914 56.6848 179.971C56.6848 179.12 56.8963 178.561 57.2183 178.561C57.5119 178.561 57.9903 178.18 58.2814 177.714C58.5725 177.248 59.0949 176.866 59.4424 176.866C59.8195 176.866 60.0745 176.473 60.0745 175.892C60.0745 173.776 62.0706 173.183 62.4702 175.181C62.8358 177.008 63.3273 177.11 64.6286 175.627C65.2569 174.91 66.0149 174.324 66.3128 174.324C66.6103 174.324 66.8539 174.156 66.8539 173.95C66.8539 173.744 67.2352 173.476 67.7013 173.354C68.1674 173.232 68.5487 172.829 68.5487 172.457C68.5487 171.813 68.7178 171.709 69.9258 171.612C70.2173 171.589 70.6953 171.249 70.9889 170.857C71.2821 170.466 71.9384 170.085 72.4469 170.01C73.0799 169.918 73.4811 169.45 73.7193 168.525C74.0616 167.197 75.309 166.374 76.1717 166.907C76.409 167.054 76.5992 166.763 76.5992 166.253V165.334L77.6585 165.6L78.7178 165.866V165.002C78.7178 164.491 79.1508 163.94 79.7771 163.654C80.3597 163.389 80.8363 162.912 80.8363 162.594C80.8363 162.276 81.2986 161.84 81.863 161.625C82.4579 161.399 82.9481 160.824 83.0282 160.259L83.1667 159.283L84.3362 159.405L85.5056 159.528L85.9166 158.447C86.1424 157.852 86.8221 157.14 87.4267 156.864L88.5258 156.364L89.3118 156.855L90.0974 157.345L90.3652 156.125C90.5236 155.405 90.4088 154.545 90.0863 154.028L89.5389 153.152L90.1851 152.507L90.8308 151.86L92.8248 152.233C95.0467 152.648 95.1628 152.526 93.9438 151.063L93.0972 150.046L91.5181 150.567C90.6495 150.854 89.6542 151.025 89.3067 150.948L88.675 150.808L88.5432 152.635L88.4118 154.462L87.4839 154.33L86.5564 154.198L86.4263 152.397C86.3068 150.748 85.4971 149.744 85.4971 151.245C85.4971 151.602 85.1836 152.015 84.8001 152.162C83.962 152.483 82.9549 151.265 82.9549 149.929C82.9549 148.971 81.366 147.63 80.2304 147.63C79.3271 147.63 78.7851 146.371 79.0212 144.819C79.2483 143.326 78.5568 141.699 77.6954 141.699C77.3822 141.699 76.8513 141.285 76.5158 140.779C75.8124 139.719 75.0463 139.999 74.465 141.528C74.0138 142.715 72.6045 142.88 71.2185 141.91C70.7186 141.56 69.8724 141.321 69.3377 141.38L68.3653 141.487L67.7996 139.797L67.2335 138.107L67.6928 137.1L68.1517 136.092L67.4128 135.551L66.6738 135.011L67.2755 134.286L67.8772 133.561L68.6661 134.535L69.4551 135.509L69.8427 134.897C70.0563 134.559 70.2334 134.045 70.2372 133.754C70.247 132.952 71.502 133.12 71.8202 133.966C71.9736 134.373 72.921 135.511 73.9256 136.492L75.7518 138.277V137.497C75.7518 136.587 76.806 135.582 77.3856 135.941C77.6055 136.076 78.0114 137.131 78.2877 138.283L78.7907 140.378L79.8635 140.509C81.0041 140.647 81.2995 141.222 82.7091 146.042C83.1011 147.382 83.5917 148.478 83.7989 148.478C84.4743 148.478 84.6692 147.715 84.2502 146.709C84.0248 146.167 83.3324 144.414 82.7125 142.813L81.585 139.903L82.1257 139.569C83.1218 138.953 83.7519 139.635 84.6336 142.285C85.5552 145.056 86.5471 146.783 87.2161 146.783C87.8606 146.783 87.6924 146.1 86.3446 143.248C84.8523 140.089 84.7989 139.536 85.8903 138.548C86.7941 137.73 87.7517 137.887 89.9169 139.208C91.6596 140.27 91.874 140.216 91.5875 138.784C91.1778 136.735 92.1574 136.844 94.6527 139.124C96.1229 140.468 97.3903 141.275 98.0309 141.275C99.1936 141.275 99.3783 142.222 98.5639 144.009C98.0559 145.124 97.0093 145.414 96.2462 144.651C95.9458 144.351 95.8602 144.649 95.9725 145.605C96.2827 148.246 96.5077 148.801 97.3564 149.023L98.2084 149.246V151.016V152.785L96.1958 155.568C93.168 159.755 82.1697 171.68 78.5114 174.743C75.2828 177.447 72.7261 180.484 72.1753 182.269L71.8812 183.222H72.7324C73.9303 183.222 74.1904 183.865 73.6519 185.496C73.396 186.272 73.3091 187.226 73.4595 187.617L73.7324 188.328L74.3315 187.831L74.9311 187.333L75.5205 188.138C75.8446 188.58 76.2154 189.466 76.3442 190.107C76.7128 191.943 77.4466 191.467 77.4466 189.391C77.4466 187.033 78.1123 186.582 79.3326 188.112C80.3974 189.448 81.6837 189.324 81.6837 187.887C81.6837 187.373 82.1121 186.822 82.7303 186.541L83.7773 186.064L84.429 186.605C84.7879 186.902 85.1988 187.883 85.3433 188.785C85.6853 190.923 86.2009 190.865 86.7666 188.624C87.4649 185.858 87.9881 184.851 88.8444 184.627C89.7741 184.384 90.3952 181.068 89.7402 179.843L89.3292 179.076L91.2545 177.301C92.61 176.052 93.3913 175.615 93.8934 175.827C94.2857 175.993 95.0387 176.222 95.5666 176.336C96.0941 176.45 96.6297 176.712 96.7568 176.917C97.3233 177.834 97.7047 177.128 97.6415 175.278L97.5729 173.265L99.5698 173.262L101.567 173.258L102.204 172.414C103.081 171.254 103.024 170.782 101.951 170.293C100.619 169.688 100.005 168.545 100.659 167.891L101.184 167.366L103.185 168.108L105.187 168.849L105.723 168.116C106.018 167.713 106.259 166.772 106.259 166.026C106.259 164.08 108.088 163.545 110.493 164.789L111.719 165.423L112.039 164.906C112.215 164.621 112.368 163.91 112.381 163.326C112.396 162.599 112.671 162.223 113.25 162.134C113.716 162.062 114.526 161.912 115.051 161.8L116.004 161.597V160.399C116.004 158.94 117.17 157.8 118.661 157.8C120.092 157.8 120.48 157.129 119.791 155.844L119.241 154.817L119.76 154.298L120.278 153.78L121.531 154.499C122.821 155.239 123.257 154.906 122.173 154.007C121.141 153.15 121.881 152.291 123.651 152.291C125.568 152.291 126.103 151.689 125.136 150.62L124.438 149.85L125.155 149.133C125.617 148.671 126.226 148.505 126.87 148.667C127.958 148.941 128.263 148.297 127.233 147.901C125.853 147.372 126.548 146.359 128.292 146.359C130.071 146.359 130.587 145.768 129.139 145.389C127.944 145.076 128.088 144.314 129.457 143.704C130.098 143.419 130.987 142.734 131.432 142.182L132.243 141.179L134.081 141.43C137.2 141.858 135.909 140.576 132.47 139.83C131.232 139.561 130.563 138.411 131.246 137.727C131.551 137.423 132.256 137.439 133.531 137.78C134.852 138.133 135.828 138.149 136.969 137.833C138.712 137.353 138.536 136.759 136.587 136.541C135.247 136.391 134.876 135.884 135.447 134.984L135.808 134.412L138.227 134.915C140.829 135.455 141.426 135.303 140.603 134.312C139.871 133.429 140.477 132.683 141.682 132.985C142.376 133.159 143.255 132.877 144.496 132.081C145.488 131.445 146.395 130.941 146.511 130.963C150.293 131.664 151.23 131.249 148.47 130.095C146.541 129.289 146.234 128.653 147.272 127.614L148.136 126.75L150.054 127.233C152.884 127.946 153.399 127.878 153.07 126.839L152.791 125.962L153.694 125.726C154.909 125.408 154.609 124.761 152.621 123.408C151.708 122.786 150.96 122.026 150.96 121.718C150.96 120.542 152.526 120.952 155.135 122.815C158.15 124.966 158.607 125.106 158.906 123.963C159.019 123.53 159.709 122.911 160.438 122.588C162.536 121.66 162.204 121.276 159.223 121.182L158.163 121.149L158.243 119.983L158.323 118.818H157.374C156.344 118.818 155.409 118.097 155.409 117.3C155.409 115.505 160.98 117.373 162.659 119.73L163.573 121.015L163.934 120.446C164.581 119.425 164.331 118.841 162.829 117.869C161.199 116.812 161.007 116.377 162.005 115.995C162.751 115.709 164.472 116.462 165.875 117.687C166.994 118.666 168.004 118.385 168.194 117.043L168.332 116.064H170.521C173.162 116.064 173.707 115.687 171.95 115.074C170.532 114.58 169.816 113.41 170.626 112.909C170.907 112.735 171.911 112.977 172.858 113.445L174.579 114.297L175.444 113.757L176.309 113.217L177.089 114.217C177.518 114.767 177.984 115.645 178.125 116.17C178.282 116.755 178.709 117.123 179.228 117.123C179.693 117.123 180.438 117.586 180.884 118.152C181.329 118.718 182.405 119.41 183.275 119.691C184.145 119.971 185.239 120.402 185.705 120.648C186.762 121.205 189.318 121.405 196.086 121.457L201.382 121.499L205.407 120.123C207.621 119.366 209.718 118.509 210.068 118.219C211.123 117.342 215.643 115.37 218.033 114.745C224.273 113.112 227.16 114.199 233.981 120.753C237.047 123.699 239.012 125.174 239.873 125.174C240.749 125.174 240.793 124.501 239.94 124.173C239.59 124.039 239.304 123.637 239.304 123.28C239.304 122.486 239.348 122.485 240.789 123.232C241.463 123.582 242.53 123.738 243.343 123.607C244.256 123.458 245.077 123.617 245.718 124.065C246.835 124.848 247.308 124.9 248.197 124.338L248.828 123.94L247.425 122.493L246.023 121.046L247.169 120.144C247.8 119.648 248.744 119.242 249.266 119.242C249.789 119.242 250.436 118.978 250.703 118.656L251.189 118.07L250.509 117.808C250.134 117.665 249.294 117.547 248.643 117.547C247.991 117.547 247.209 117.247 246.904 116.879L246.35 116.212L246.958 115.826C247.293 115.615 247.696 115.439 247.855 115.435C248.014 115.431 248.087 114.904 248.018 114.263L247.892 113.098L246.38 113.067C245.549 113.05 244.602 112.816 244.277 112.546C243.87 112.208 243.262 112.178 242.315 112.449C240.702 112.912 239.071 112.329 237.89 110.867C236.984 109.747 234.959 108.617 233.2 108.251C229.992 107.584 230.812 105.734 234.432 105.47C235.789 105.372 237.098 105.093 237.339 104.851C237.581 104.61 238.138 104.412 238.576 104.412C239.834 104.412 239.179 103.429 237.659 103.035C236.682 102.782 236.326 102.469 236.43 101.957C236.588 101.177 237.14 101.127 240.257 101.61L242.269 101.921L242.164 100.942L242.058 99.9631L243.117 100.004C243.7 100.027 244.51 100.19 244.918 100.367C245.443 100.596 245.66 100.498 245.66 100.033C245.66 99.2398 245.086 98.853 243.398 98.5076C242.01 98.2238 241.461 97.4475 242.394 97.0895C243.044 96.8403 246.367 97.5229 247.354 98.1085C247.704 98.3157 248.276 98.5996 248.626 98.7386C250.901 99.6453 253.078 101.001 254.165 102.188C254.858 102.945 255.564 103.566 255.733 103.567C256.09 103.571 257.523 105.981 257.523 106.578C257.523 107.311 262.459 111.946 264.137 112.788C265.969 113.708 266.845 113.614 266.845 112.498C266.845 111.09 267.741 111.185 271.215 112.958C271.637 113.174 272.304 113.249 272.698 113.126C273.091 113.003 274.154 112.809 275.06 112.694C277.684 112.363 277.252 111.709 273.942 111.001C271.639 110.508 273.041 108.649 275.715 108.649C276.429 108.649 277.014 108.482 277.014 108.277C277.014 107.453 275.674 106.881 273.957 106.972C272.958 107.025 271.808 107.042 271.4 107.011C270.275 106.925 270.514 105.736 271.718 105.434C273.146 105.075 273.054 104.54 271.506 104.2C268.781 103.602 270.026 101.807 273.413 101.45L275.531 101.227L273.413 100.532C272.247 100.15 270.675 99.9343 269.917 100.054L268.54 100.271V99.4275C268.54 98.9636 268.826 98.3466 269.176 98.0564C269.525 97.7662 269.811 97.2429 269.811 96.8933C269.811 96.4391 269.66 96.3798 269.281 96.6853C268.99 96.9209 267.953 97.245 266.977 97.406L265.202 97.6984L263.774 96.7124C260.151 94.2091 254.999 89.6063 253.779 87.7814C253.038 86.6743 252.243 85.7688 252.012 85.7688C251.298 85.7688 251.549 84.0638 252.306 83.7731C252.825 83.5744 253.667 84.218 255.378 86.1196C258.605 89.7063 262.437 90.7936 260.053 87.4458C259.55 86.7399 259.24 85.8989 259.364 85.5769C259.487 85.2548 259.315 84.8862 258.98 84.7578C258.645 84.6294 258.371 84.3104 258.371 84.0494C258.371 83.7879 257.942 83.224 257.418 82.7965L256.464 82.0185L257.239 81.7173C257.72 81.53 258.265 81.6677 258.677 82.08L259.342 82.7444L260.059 81.8588C260.865 80.8631 261.761 81.1499 261.761 82.4041C261.761 82.8566 261.988 83.1791 262.265 83.1206C262.542 83.0626 262.842 83.3486 262.932 83.7562C263.045 84.2761 262.831 84.4977 262.215 84.4977C261.671 84.4977 261.337 84.2235 261.337 83.7774V83.0571L260.837 83.557L260.336 84.0574L262.061 86.0781L263.785 88.0992L264.785 87.9751C265.336 87.9064 266.901 87.8412 268.263 87.8293L270.741 87.8077L269.534 86.4832C268.871 85.7544 267.994 84.9036 267.587 84.5922C266.6 83.8388 266.615 82.3791 267.609 82.3791C268.03 82.3791 269.014 83.0393 269.795 83.846C271.242 85.3379 276.037 87.3539 276.639 86.7226C276.806 86.5476 277.006 85.9277 277.084 85.3451L277.226 84.2858L279.507 84.2083C282.44 84.1087 282.889 83.6655 281.982 81.7639C281.154 80.0275 281.483 79.697 283.68 80.058L285.276 80.3203L283.952 79.0721C283.223 78.3857 282.379 77.7412 282.075 77.6399C281.331 77.3916 281.886 76.0235 282.73 76.0235C283.092 76.0235 284.133 76.5167 285.044 77.1196C287.052 78.4479 288.288 78.3416 288.135 76.8535C288.059 76.1125 288.137 75.9802 288.406 76.3955C288.613 76.7167 289.009 76.8399 289.286 76.6692C289.925 76.2743 288.842 75.4917 286.687 74.7909C284.61 74.1155 284.066 73.4261 284.809 72.4109L285.386 71.6215L286.482 72.3397C287.084 72.7342 287.782 73.0575 288.033 73.0575C288.284 73.0575 289.05 73.4731 289.737 73.9808C291.147 75.0231 291.716 74.8261 291.025 73.5354L290.562 72.6694L291.424 72.2084C291.897 71.9546 292.466 71.8592 292.688 71.9961C292.91 72.1334 293.585 71.9215 294.19 71.5258L295.288 70.8059L293.746 70.2758C291.323 69.4428 291.29 68.3064 293.672 67.756L295.022 67.4442L293.146 67.0823C292.113 66.8832 291.065 66.5137 290.815 66.2612C290.139 65.5777 292.948 63.4473 294.947 63.1274L296.587 62.8651L295.878 61.7834C295.085 60.5737 295.284 59.4988 296.301 59.4988C298.301 59.4988 300.613 57.0319 298.729 56.9078C298.322 56.8807 297.705 56.8332 297.359 56.8019C297.013 56.7705 296.666 56.4108 296.587 56.0032L296.443 55.2617H297.957C298.789 55.2617 299.471 55.071 299.471 54.838C299.471 54.6049 298.512 54.4142 297.339 54.4142C295.775 54.4142 295.138 54.2333 294.947 53.7359C294.615 52.8732 295.499 52.3105 297.198 52.3021C298.163 52.2974 298.727 51.9885 299.263 51.1707L300 50.0462L299.206 50.3881C298.769 50.5763 297.792 50.8169 297.034 50.9237L295.657 51.1174V50.4873C295.657 50.1407 295.94 49.6229 296.284 49.3369C297.05 48.7018 298.283 46.3061 297.994 46.0167C297.879 45.9015 297.012 46.1561 296.067 46.582L294.35 47.3565L293.73 46.7358L293.109 46.1155L294.385 44.3808C295.51 42.8503 296.659 38.737 295.961 38.737C295.832 38.737 295.314 39.4043 294.81 40.22C294.182 41.2369 293.579 41.7029 292.894 41.7029C291.399 41.7029 291.289 41.0864 292.472 39.3424C294.212 36.7794 293.874 34.5355 291.794 34.8405L290.505 35.0295L290.801 33.0537C291.111 30.9928 290.472 27.7713 289.458 26.2701L288.908 25.4558L288.645 26.1388C288.501 26.5142 288.565 27.1464 288.787 27.543C289.767 29.2933 288.249 30.4395 286.319 29.4064L285.511 28.9738L286.207 27.5146L286.902 26.0549L286.384 24.3266L285.867 22.5983L285.108 23.5351C283.981 24.9274 282.946 24.3325 282.946 22.2919C282.946 20.864 281.764 16.6053 281.044 15.441C280.668 14.8321 278.709 15.8778 278.709 16.6875C278.709 17.0693 278.914 17.5875 279.166 17.8387C279.417 18.09 279.56 18.8434 279.484 19.5124L279.345 20.7293H278.073H276.802L276.554 18.6107C276.225 15.8058 275.546 14.2393 273.939 12.5729C271.74 10.2933 271.066 10.9085 273.201 13.2461C276.104 16.4244 274.335 17.2498 271.278 14.1431C268.826 11.6513 264.308 8.43915 260.358 6.38034C257.498 4.8893 257.1 4.86219 257.1 6.15705C257.1 6.57059 256.924 7.01718 256.71 7.14937C256.048 7.5591 254.981 6.11595 254.981 4.81007C254.981 3.48682 253.994 3.06693 253.557 4.20459C253.154 5.25497 252.279 4.93464 250.54 3.09913L248.89 1.3581L248.56 2.25171C248.15 3.35971 247.051 3.39869 245.899 2.34662C245.418 1.90723 244.579 1.41276 244.034 1.24709L243.044 0.946683L243.505 1.80639C244.701 4.04188 243.071 4.22408 240.999 2.08604C239.288 0.320862 238.986 0.27044 238.457 1.66233ZM283.881 66.3599C282.944 67.2972 283.352 67.8815 285.476 68.6454L287.583 69.403L287.345 70.3521L287.107 71.3012L288.395 71.9677C290.086 72.8423 290.573 72.8079 290.573 71.8147C290.573 71.3449 290.178 70.8707 289.646 70.7021L288.72 70.408L289.434 69.8852C290.445 69.1462 290.337 68.7581 288.772 67.5103C287.136 66.2052 284.626 65.615 283.881 66.3599ZM224.134 71.0495C223.119 72.2728 227.146 74.4756 231.308 74.9748C236.08 75.5472 234.886 73.3511 229.96 72.494C228.224 72.1923 226.307 71.619 225.699 71.2207L224.594 70.4962L224.134 71.0495ZM235.914 75.1273C235.914 75.3337 236.364 75.7972 236.914 76.1574C238.525 77.2128 239.368 78.2115 239.143 78.7971C239.028 79.0975 239.167 79.4326 239.453 79.5419C240.114 79.7958 245.679 79.5352 245.977 79.2365C246.18 79.0339 248.84 80.9224 250.245 82.2673C250.944 82.9363 251.87 82.9566 252.269 82.3117C252.447 82.0224 251.837 81.1351 250.78 80.15L248.989 78.4784L247.87 78.6924C247.186 78.8229 246.58 78.6755 246.311 78.3119C246.069 77.9852 244.578 77.3603 242.997 76.9234C241.417 76.487 239.781 75.8197 239.362 75.4409C238.566 74.7201 235.914 74.479 235.914 75.1273ZM228.229 76.7611C228.864 77.948 230.846 78.5844 234.806 78.8742L238.146 79.1182L237.953 78.5242C237.607 77.4624 234.788 76.479 231.238 76.1832L227.764 75.8934L228.229 76.7611ZM21.1767 115.889L19.3984 117.197V118.398V119.6L20.8525 120.08L22.3067 120.56L23.9244 119.734C26.9726 118.178 28.0272 116.306 26.4701 115.215C25.0265 114.204 23.1418 114.443 21.1767 115.889ZM43.7663 129.827C43.3515 130.498 44.8447 132.046 45.6934 131.824C46.0747 131.724 46.845 131.896 47.4048 132.207C48.545 132.838 51.0101 132.989 51.3448 132.448C51.4647 132.253 52.1435 132.18 52.8528 132.284C53.7981 132.423 54.1426 132.304 54.1426 131.841C54.1426 130.577 52.8138 130.053 49.5263 130.023C47.7539 130.007 45.8006 129.847 45.1849 129.668C44.4722 129.461 43.9574 129.518 43.7663 129.827ZM55.698 130.539C55.5438 130.693 55.9103 131.465 56.5124 132.254C57.553 133.618 57.6437 134.919 56.698 134.919C55.9773 134.919 56.2052 136.132 57.0026 136.54C57.4102 136.749 58.4975 137.036 59.4178 137.178C60.6482 137.367 61.505 137.888 62.6528 139.144C64.2748 140.918 65.4345 141.307 65.8531 140.216C66.0001 139.833 65.5739 139.092 64.7807 138.351C64.0566 137.675 63.4642 136.817 63.4642 136.444C63.4642 136.044 63.1091 135.767 62.5969 135.767C62.06 135.767 61.4554 135.259 61.008 134.433C59.2602 131.203 56.8221 129.415 55.698 130.539ZM263.758 135.181C263.65 135.289 258.169 135.481 251.577 135.608C244.985 135.735 239.13 136.015 238.565 136.23C238 136.445 237.354 136.506 237.128 136.367C236.548 136.008 232.528 135.842 232.327 136.168C232.235 136.317 230.192 136.385 227.787 136.32C225.383 136.255 222.404 136.405 221.17 136.654L218.924 137.106L219.051 138.025L219.178 138.944L218.224 138.844L217.271 138.743L217.281 139.691C217.287 140.213 217.472 141.402 217.693 142.334C217.954 143.436 217.945 144.494 217.665 145.359C217.367 146.285 217.392 147.896 217.747 150.655C218.028 152.837 218.274 158.435 218.294 163.096L218.33 171.57L218.966 172.456C220.613 174.753 222.779 174.765 222.779 172.478C222.779 171.681 223.133 170.591 223.566 170.057L224.352 169.086L225.578 169.596C226.253 169.877 228.139 171.343 229.77 172.854C231.402 174.364 233.739 176.124 234.964 176.763C238.362 178.537 238.396 179.365 235.162 181.585C233.013 183.059 230.567 183.387 229.335 182.365L228.682 181.823L227.832 182.734C226.396 184.276 224.422 183.334 225.746 181.738C226.273 181.103 226.004 178.191 225.408 178.083C225.244 178.054 224.672 177.984 224.139 177.929C223.604 177.873 222.746 177.435 222.232 176.954C221.717 176.473 220.724 176.018 220.025 175.943L218.754 175.807L218.626 178.511L218.499 181.215L219.442 182.218C219.96 182.77 220.781 183.225 221.264 183.228C222.444 183.237 224.888 184.112 226.279 185.023C227.618 185.901 228.028 185.933 229.119 185.252L229.94 184.74L231.459 185.464C233.457 186.417 234.434 186.378 235.434 185.304L236.257 184.42L237.089 184.866C237.547 185.111 238.005 185.227 238.107 185.125C238.21 185.023 239.236 185.776 240.387 186.799L242.482 188.658L242.017 189.436C241.291 190.653 239.004 191.223 234.743 191.249C232.571 191.262 230.471 191.49 230.04 191.758C228.657 192.623 226.921 191.77 224.226 188.902L221.648 186.158L220.156 185.915L218.665 185.673L218.423 186.597C218.2 187.45 218.335 189.32 218.779 191.546C219.205 193.686 227.439 195.9 233.796 195.584C237.618 195.394 239.338 195.163 239.829 194.771C240.701 194.076 249.967 193.845 251.792 194.472C252.932 194.864 253.71 194.894 254.611 194.58C255.5 194.27 256.203 194.291 257.074 194.652L258.294 195.157L259.203 194.67C259.711 194.398 261.405 194.237 263.043 194.304L265.974 194.423L266.903 193.426L267.832 192.429L268.354 193.143L268.876 193.857L269.698 192.671C270.15 192.018 270.635 191.165 270.775 190.776C270.916 190.386 271.451 190.005 271.966 189.929L272.901 189.79L272.886 185.976C272.878 183.879 272.76 180.542 272.623 178.561C272.487 176.58 272.266 172.533 272.133 169.568C271.986 166.306 271.662 163.736 271.313 163.064L270.736 161.953L271.555 160.566L272.373 159.179L271.967 158.111C271.744 157.524 271.662 156.657 271.786 156.185C271.909 155.713 271.699 154.257 271.319 152.949C270.939 151.641 270.672 150.338 270.726 150.054C270.78 149.77 270.679 149.108 270.501 148.584L270.178 147.63H268.702C267.891 147.63 266.712 147.37 266.082 147.052C265.453 146.733 263.89 146.228 262.608 145.928C261.326 145.628 259.84 145.099 259.305 144.751L258.332 144.118L256.712 144.603C254.511 145.263 252.705 144.828 249.639 142.901C248.216 142.007 246.654 141.275 246.168 141.275C245.038 141.275 244.597 140.562 245.243 139.783C245.894 138.999 251.515 139.016 252.439 139.805C252.789 140.104 253.933 140.574 254.981 140.85C256.03 141.126 257.73 141.906 258.76 142.584C261.265 144.231 261.543 143.747 259.234 141.758C256.93 139.774 257.204 139.156 260.386 139.156C262.147 139.156 263.17 139.41 264.28 140.12C265.108 140.65 266.091 141.27 266.464 141.497C266.837 141.724 267.951 142.449 268.94 143.106C271.012 144.484 271.177 144.422 271.228 142.245C271.284 139.809 269.846 136.728 268.328 136.032C266.948 135.4 264.075 134.865 263.758 135.181ZM232.15 139.911C231.619 140.904 230.181 141 227.995 140.188C227.018 139.826 225.397 139.588 224.393 139.66L222.567 139.792L222.435 140.721L222.303 141.65L223.706 142.356C224.478 142.745 225.788 143.713 226.618 144.507L228.127 145.95L232.391 145.789C234.736 145.7 236.865 145.498 237.12 145.34C237.376 145.182 238.079 145.377 238.683 145.773C239.637 146.397 240.916 146.593 245.084 146.749C245.583 146.768 246.918 147.609 248.05 148.618C250.088 150.434 255.057 153.086 259.731 154.852C261.062 155.355 262.384 156.047 262.669 156.39C263.389 157.258 266.21 158.647 267.252 158.647C268.225 158.647 268.374 157.777 267.61 156.554L267.104 155.744L267.61 154.633C268.512 152.653 267.676 151.444 265.402 151.444C264.642 151.444 263.894 151.317 263.739 151.163C263.255 150.679 259.086 149.325 258.078 149.325C256.827 149.325 251.564 147.639 250.744 146.976C249.717 146.145 247.453 145.088 246.699 145.088C246.316 145.088 245.424 144.676 244.717 144.173L243.432 143.258L242.645 143.749C242.212 144.02 241.544 144.241 241.161 144.241H240.464L240.703 142.765C240.973 141.107 240.643 140.758 238.61 140.55C237.862 140.473 236.71 140.129 236.052 139.786C234.413 138.931 232.644 138.988 232.15 139.911ZM222.796 146.752C221.978 148.281 222.872 149.323 226.404 150.951L229.77 152.503L232.309 152.291C234.177 152.135 234.881 151.902 234.975 151.408C235.136 150.555 232.233 148.508 230.563 148.297C229.878 148.21 228.429 147.643 227.343 147.037C224.989 145.723 223.4 145.623 222.796 146.752ZM235.484 151.456L235.024 152.316L237.799 153.615C239.326 154.329 240.575 155.086 240.575 155.297C240.575 155.508 240.792 155.681 241.058 155.681C241.323 155.681 242.47 156.253 243.606 156.952C245.757 158.275 249.116 158.719 249.71 157.759C250.137 157.068 246.142 153.223 244.409 152.657C243.582 152.387 242.241 151.813 241.429 151.382C240.591 150.936 239.085 150.596 237.948 150.596H235.944L235.484 151.456ZM225.745 156.528C225.396 156.754 224.408 156.942 223.549 156.946L221.989 156.952L221.71 157.83C221.534 158.385 221.695 158.998 222.147 159.498C222.54 159.933 222.758 160.456 222.632 160.661C222.348 161.12 223.201 163.679 224.055 164.929C224.455 165.515 225.383 165.981 226.593 166.203C228.556 166.563 233.251 169.462 235.78 171.877C236.657 172.714 237.376 173.071 237.832 172.895L238.535 172.626L237.365 170.615C236.721 169.509 235.997 168.281 235.756 167.886L235.316 167.169L236.104 166.297C237.051 165.251 237.848 165.18 238.204 166.11C238.379 166.565 238.771 166.714 239.376 166.556C239.93 166.411 240.685 166.632 241.305 167.119C241.865 167.561 242.57 167.827 242.872 167.711C243.172 167.596 244.306 168.178 245.39 169.006C246.475 169.834 247.621 170.511 247.937 170.511C248.254 170.511 249.793 171.369 251.357 172.418L254.2 174.324H255.899C257.804 174.324 263.69 176.733 265.913 178.421C268.289 180.227 269.102 179.181 267.947 175.807L267.366 174.112L264.944 172.813C263.612 172.099 261.826 170.707 260.976 169.721C260.126 168.734 258.617 167.008 257.624 165.886L255.818 163.844L253.599 163.149C252.378 162.766 250.195 162.362 248.748 162.251C246.838 162.105 245.56 161.711 244.087 160.817C242.971 160.139 241.391 159.444 240.575 159.273C239.759 159.102 238.716 158.701 238.256 158.381C236.541 157.188 233.947 158.449 234.91 160.008C235.951 161.692 234.408 166.208 233.204 165.004C232.97 164.77 232.378 164.579 231.889 164.579C231.4 164.579 230.77 164.35 230.491 164.07C229.795 163.375 229.849 162.037 230.573 162.037C231.424 162.037 231.73 160.913 231.035 160.336C230.347 159.765 229.559 160.121 229.559 161.002C229.559 161.787 229.13 161.774 227.958 160.953C226.902 160.213 226.777 159.443 227.521 158.252L228.025 157.444L227.468 156.775C226.825 155.999 226.612 155.968 225.745 156.528ZM259.786 161.85C259.634 162.245 259.98 162.979 260.646 163.674C261.259 164.314 261.761 165.05 261.761 165.309C261.761 165.569 262.383 166.166 263.145 166.636C263.906 167.107 264.988 167.98 265.549 168.578C266.11 169.175 267.012 169.663 267.554 169.663H268.54V168.01V166.357L267.163 165.216C263.354 162.06 260.249 160.643 259.786 161.85ZM242.772 177.565C242.845 178.183 243.191 178.829 243.541 179.001C248.473 181.432 254.73 183.676 261.009 185.267C263.019 185.776 264.801 186.532 265.623 187.224C267.343 188.671 268.702 188.53 268.89 186.886C269.065 185.354 267.791 183.935 264.938 182.485C263.773 181.893 262.561 181.04 262.245 180.59L261.671 179.773L259.995 180.056C258.765 180.264 258.124 180.164 257.592 179.682C256.65 178.83 253.493 178.308 253.103 178.939C252.657 179.66 252.101 179.499 251.803 178.561L251.534 177.714H250.08H248.626L248.612 178.455L248.598 179.197L247.991 178.349C246.751 176.62 246.432 176.443 244.555 176.443H242.637L242.772 177.565ZM240.151 180.996C237.97 181.699 238.325 183.292 241.079 185.153C242.084 185.832 243.599 186.93 244.447 187.592L245.989 188.796L246.876 188.243L247.762 187.689L250.418 189.033C253.101 190.391 256.46 191.082 257.438 190.478L257.97 190.149L256.979 189.08C256.433 188.492 254.951 187.316 253.683 186.467C252.417 185.619 250.559 184.294 249.555 183.523C247.044 181.595 242.273 180.313 240.151 180.996Z" fill="#FBFDFD"/>
</svg>
