<svg width="500" height="500" viewBox="0 0 500 500" fill="none" xmlns="http://www.w3.org/2000/svg">
<path fill-rule="evenodd" clip-rule="evenodd" d="M338.457 153.979C337.972 155.253 338.218 155.242 335.298 154.124L332.911 153.211L330.488 155.002L329.073 154.597C327.099 154.03 325.785 154.09 325.099 154.776C324.705 155.17 323.911 155.294 322.676 155.155C321.318 155.002 320.692 155.125 320.274 155.629C319.964 156.003 319.254 156.309 318.698 156.309C314.601 156.309 310.094 161.073 312.135 163.245C313.178 164.356 313.319 165.631 312.398 165.631C312.049 165.631 311.763 165.82 311.763 166.052C311.763 166.283 312.482 166.444 313.362 166.41C314.466 166.366 315.548 166.718 316.857 167.546L318.754 168.744L323.839 168.797C326.635 168.826 329.337 168.707 329.842 168.534C332.235 167.716 337.221 168.17 341.809 169.626C343.577 170.187 345.882 170.888 346.931 171.183C347.979 171.479 349.343 172.066 349.962 172.489C350.581 172.912 351.345 173.258 351.66 173.258C352.337 173.258 356.171 175.223 357.133 176.063C357.501 176.385 358.023 176.647 358.292 176.647C359.076 176.647 364.67 181.31 364.952 182.199C365.093 182.643 365.659 183.244 366.211 183.534C367.421 184.171 372.753 190.201 372.767 190.947C372.773 191.239 372.93 191.477 373.116 191.477C374.023 191.477 375.938 196.538 376.762 201.114L377.315 204.184L376.767 206.296C375.259 212.111 370.633 215.802 361.549 218.442C358.712 219.266 345.866 219.406 342.906 218.645C341.74 218.345 340.471 218.035 340.086 217.956C336.405 217.197 324.609 212.768 320.873 210.741C317.499 208.913 307.652 205.428 301.594 203.92L298.416 203.129L290.577 203.171C285.016 203.2 281.938 203.406 279.985 203.88C278.47 204.246 276.322 204.647 275.213 204.769C274.103 204.892 273.042 205.087 272.855 205.202C272.667 205.318 271.096 205.816 269.364 206.309C267.631 206.802 264.974 207.563 263.46 208.001C260.076 208.98 252.336 212.185 250.325 213.44C249.509 213.949 247.806 214.87 246.54 215.487C245.275 216.104 243.463 217.157 242.515 217.827C237.773 221.18 231.286 226.201 228.831 228.417C227.846 229.307 226.862 230.035 226.646 230.035C226.429 230.035 225.043 231.227 223.564 232.683C217.871 238.292 210.156 245.365 208.561 246.435C207.644 247.051 206.784 247.719 206.648 247.919C206.315 248.413 204.309 249.528 199.268 252.02C188.724 257.234 186.656 257.765 177.405 257.642L171.644 257.566L167.872 256.553C165.797 255.996 162.288 254.994 160.074 254.327L156.049 253.114L155.788 250.981C155.083 245.221 152.586 243.807 147.526 246.303C145.922 247.095 144.228 247.854 143.762 247.992L142.914 248.241L142.193 246.976C141.067 245.004 138.711 245.437 136.817 247.965C135.649 249.523 133.214 250.745 127.36 252.713C122.751 254.262 119.932 255.757 117.704 257.834C116.888 258.594 115.741 259.658 115.153 260.197C114.215 261.059 111.348 265.308 111.348 265.837C111.348 266.324 108.375 270.589 107.476 271.392C106.925 271.882 105.567 273.265 104.458 274.464C103.347 275.662 102.084 276.643 101.649 276.643C99.4497 276.643 99.4505 280.063 101.65 281.915C102.36 282.512 104.285 283.785 105.927 284.745L108.914 286.489L112.377 286.705C114.906 286.863 116.504 286.728 118.301 286.206C119.653 285.812 120.85 285.581 120.96 285.69C121.07 285.8 122.432 285.445 123.986 284.903C126.834 283.908 136.985 282.833 139.028 283.31C140.255 283.596 147.891 286.848 148.401 287.302C148.623 287.498 149.064 287.659 149.381 287.659C150.223 287.659 155.277 290.162 155.864 290.869C156.139 291.201 156.594 291.473 156.875 291.473C157.155 291.473 157.847 291.967 158.412 292.571C158.977 293.174 160.322 294.317 161.4 295.111C164.4 297.318 165.515 299.031 165.774 301.829L165.997 304.231L164.882 306.432C163.229 309.696 162.166 310.925 157.627 314.818C155.361 316.762 152.672 319.169 151.65 320.166C150.63 321.164 149.637 321.98 149.445 321.98C149.253 321.98 148.638 322.438 148.078 322.998C146.821 324.256 143.43 327.216 141.032 329.149C140.043 329.946 138.347 331.537 137.261 332.686C136.176 333.835 134.43 335.26 133.381 335.854C132.332 336.448 130.902 337.467 130.203 338.119C129.504 338.771 128.503 339.697 127.979 340.176C126.915 341.147 126.713 342.318 127.609 342.318C127.93 342.318 128.43 342.032 128.72 341.682C130.124 339.991 131.174 341.41 130.216 343.704C129.257 346 129.381 347.078 130.41 345.39C131.623 343.4 132.513 343.571 132.407 345.773C132.293 348.12 132.896 348.204 135.126 346.153C137.226 344.222 138.192 344.123 138.387 345.817C138.461 346.456 138.665 346.979 138.841 346.979C139.34 346.979 140.913 345.025 141.074 344.206C141.154 343.8 141.553 343.305 141.961 343.105C142.369 342.905 143.036 342.579 143.444 342.381C143.852 342.182 144.252 341.562 144.332 341.004C144.413 340.445 144.676 339.747 144.917 339.453L145.357 338.918L146.58 339.933L146.97 339.325C147.184 338.99 147.313 338.358 147.256 337.92C147.148 337.095 147.5 336.811 149.758 335.905C150.738 335.511 151.218 334.951 151.562 333.803C152.344 331.195 154.426 331.089 154.005 333.678C153.71 335.502 154.354 335.886 155.657 334.661C156.346 334.015 156.685 333.231 156.685 332.287C156.685 331.436 156.896 330.878 157.218 330.878C157.512 330.878 157.99 330.496 158.281 330.03C158.573 329.564 159.095 329.183 159.442 329.183C159.819 329.183 160.074 328.79 160.074 328.208C160.074 326.092 162.071 325.5 162.47 327.497C162.836 329.324 163.327 329.426 164.629 327.943C165.257 327.227 166.015 326.641 166.313 326.641C166.61 326.641 166.854 326.472 166.854 326.266C166.854 326.061 167.235 325.792 167.701 325.67C168.167 325.549 168.549 325.145 168.549 324.774C168.549 324.129 168.718 324.025 169.926 323.929C170.217 323.906 170.695 323.566 170.989 323.174C171.282 322.782 171.938 322.401 172.447 322.326C173.08 322.234 173.481 321.766 173.719 320.842C174.062 319.513 175.309 318.69 176.172 319.223C176.409 319.37 176.599 319.079 176.599 318.569V317.651L178.718 318.183V317.318C178.718 316.807 179.151 316.256 179.777 315.971C180.36 315.706 180.836 315.228 180.836 314.91C180.836 314.592 181.299 314.156 181.863 313.942C182.458 313.715 182.948 313.14 183.028 312.575L183.167 311.599L185.506 311.844L185.916 310.763C186.142 310.168 186.822 309.457 187.427 309.181L188.526 308.68L190.097 309.662L190.365 308.441C190.524 307.722 190.409 306.862 190.086 306.345L189.539 305.469L190.831 304.177L192.825 304.55C195.047 304.964 195.163 304.843 193.944 303.379L193.097 302.362L191.518 302.884C190.649 303.17 189.654 303.342 189.307 303.265L188.675 303.125L188.412 306.778L186.556 306.514L186.426 304.714C186.307 303.065 185.497 302.061 185.497 303.562C185.497 303.919 185.183 304.331 184.8 304.478C183.962 304.8 182.955 303.581 182.955 302.245C182.955 301.287 181.366 299.947 180.23 299.947C179.327 299.947 178.785 298.687 179.021 297.136C179.248 295.643 178.557 294.015 177.695 294.015C177.382 294.015 176.851 293.601 176.516 293.095C175.813 292.036 175.046 292.316 174.465 293.844C174.014 295.031 172.604 295.197 171.218 294.226C170.719 293.876 169.872 293.637 169.338 293.696L168.365 293.803L167.234 290.424L168.152 288.408L166.674 287.327L167.877 285.878L169.455 287.826L169.843 287.213C170.056 286.876 170.233 286.362 170.237 286.07C170.247 285.268 171.502 285.437 171.82 286.282C171.974 286.69 172.921 287.827 173.926 288.809L175.752 290.593V289.814C175.752 288.903 176.806 287.899 177.386 288.257C177.606 288.393 178.011 289.447 178.288 290.599L178.791 292.695L179.864 292.825C181.004 292.964 181.3 293.538 182.709 298.358C183.101 299.698 183.592 300.794 183.799 300.794C184.474 300.794 184.669 300.031 184.25 299.025C184.025 298.483 183.332 296.73 182.712 295.13L181.585 292.219L182.126 291.885C183.122 291.27 183.752 291.952 184.634 294.602C185.555 297.372 186.547 299.099 187.216 299.099C187.861 299.099 187.692 298.416 186.344 295.564C184.852 292.405 184.799 291.853 185.89 290.865C186.794 290.047 187.752 290.204 189.917 291.524C191.659 292.587 191.874 292.532 191.588 291.1C191.178 289.052 192.157 289.16 194.653 291.44C196.123 292.784 197.39 293.591 198.031 293.591C199.194 293.591 199.378 294.539 198.564 296.325C198.056 297.441 197.009 297.731 196.246 296.968C195.946 296.667 195.86 296.966 195.972 297.921C196.283 300.563 196.508 301.118 197.356 301.34L198.208 301.562V305.101L196.196 307.884C193.168 312.071 182.17 323.997 178.511 327.06C175.283 329.763 172.726 332.8 172.175 334.585L171.881 335.539H172.732C173.93 335.539 174.19 336.181 173.652 337.813C173.396 338.588 173.309 339.543 173.459 339.934L173.732 340.645L174.931 339.65L175.521 340.454C175.845 340.897 176.215 341.783 176.344 342.424C176.713 344.26 177.447 343.783 177.447 341.707C177.447 339.349 178.112 338.898 179.333 340.429C180.397 341.764 181.684 341.641 181.684 340.204C181.684 339.69 182.112 339.138 182.73 338.857L183.777 338.38L184.429 338.921C184.788 339.218 185.199 340.2 185.343 341.102C185.685 343.239 186.201 343.181 186.767 340.941C187.465 338.174 187.988 337.167 188.844 336.944C189.774 336.7 190.395 333.384 189.74 332.16L189.329 331.392L191.255 329.617C192.61 328.368 193.391 327.932 193.893 328.144C194.286 328.309 195.039 328.538 195.567 328.652C196.094 328.767 196.63 329.028 196.757 329.233C197.323 330.151 197.705 329.444 197.642 327.594L197.573 325.581L201.567 325.574L202.204 324.731C203.081 323.571 203.024 323.099 201.951 322.61C200.619 322.004 200.005 320.861 200.659 320.207L201.184 319.682L205.187 321.165L205.723 320.432C206.018 320.029 206.259 319.089 206.259 318.343C206.259 316.396 208.088 315.862 210.493 317.105L211.719 317.74L212.039 317.222C212.215 316.938 212.368 316.227 212.381 315.642C212.396 314.916 212.671 314.539 213.25 314.45C213.716 314.378 214.526 314.228 215.051 314.117L216.004 313.913V312.716C216.004 311.257 217.17 310.116 218.661 310.116C220.092 310.116 220.48 309.446 219.791 308.16L219.241 307.133L220.278 306.096L221.531 306.815C222.821 307.556 223.257 307.223 222.173 306.323C221.141 305.467 221.881 304.608 223.651 304.608C225.568 304.608 226.103 304.006 225.136 302.937L224.438 302.166L225.155 301.45C225.617 300.988 226.226 300.822 226.87 300.984C227.958 301.257 228.263 300.613 227.233 300.217C225.853 299.688 226.548 298.676 228.292 298.676C230.071 298.676 230.587 298.084 229.139 297.705C227.944 297.393 228.088 296.63 229.457 296.02C230.098 295.735 230.987 295.05 231.432 294.498L232.243 293.495L234.081 293.747C237.199 294.174 235.909 292.893 232.47 292.146C231.232 291.878 230.562 290.727 231.246 290.044C231.551 289.739 232.256 289.756 233.531 290.097C234.852 290.45 235.828 290.465 236.969 290.15C238.712 289.669 238.536 289.075 236.587 288.857C235.247 288.707 234.876 288.201 235.447 287.3L235.808 286.729L238.228 287.231C240.829 287.771 241.426 287.62 240.603 286.629C239.871 285.746 240.477 285 241.682 285.302C242.376 285.476 243.255 285.194 244.496 284.398C245.488 283.761 246.395 283.258 246.511 283.279C250.293 283.98 251.23 283.565 248.47 282.412C246.541 281.606 246.234 280.969 247.272 279.931L248.136 279.067L250.054 279.549C252.884 280.262 253.399 280.195 253.07 279.155L252.791 278.278L253.694 278.042C254.909 277.725 254.609 277.078 252.621 275.724C251.708 275.102 250.96 274.342 250.96 274.035C250.96 272.858 252.526 273.269 255.135 275.131C258.15 277.283 258.607 277.422 258.906 276.279C259.019 275.846 259.709 275.228 260.438 274.905C262.536 273.976 262.204 273.593 259.223 273.498L258.163 273.465L258.323 271.135H257.374C256.344 271.135 255.409 270.413 255.409 269.616C255.409 267.822 260.98 269.689 262.659 272.047L263.573 273.332L263.934 272.762C264.581 271.741 264.331 271.157 262.829 270.185C261.199 269.129 261.007 268.694 262.005 268.311C262.75 268.025 264.472 268.778 265.874 270.004C266.994 270.982 268.004 270.702 268.194 269.36L268.333 268.38H270.521C273.162 268.38 273.707 268.003 271.95 267.39C270.532 266.896 269.816 265.726 270.626 265.226C270.907 265.052 271.911 265.293 272.858 265.762L274.579 266.613L276.309 265.533L277.089 266.533C277.518 267.083 277.984 267.962 278.125 268.486C278.282 269.071 278.709 269.44 279.228 269.44C279.693 269.44 280.438 269.902 280.884 270.469C281.328 271.034 282.405 271.727 283.275 272.007C284.145 272.287 285.238 272.718 285.705 272.964C286.762 273.522 289.318 273.721 296.085 273.774L301.382 273.815L305.407 272.439C307.621 271.682 309.718 270.826 310.068 270.535C311.123 269.658 315.643 267.687 318.033 267.061C324.273 265.428 327.16 266.515 333.981 273.07C337.047 276.016 339.012 277.49 339.873 277.49C340.749 277.49 340.793 276.817 339.939 276.489C339.59 276.356 339.304 275.954 339.304 275.597C339.304 274.803 339.348 274.801 340.789 275.549C341.463 275.898 342.53 276.055 343.343 275.923C344.256 275.775 345.077 275.933 345.718 276.381C346.835 277.164 347.308 277.217 348.197 276.655L348.828 276.256L346.023 273.362L347.169 272.46C347.8 271.964 348.744 271.558 349.266 271.558C349.789 271.558 350.436 271.295 350.703 270.972L351.189 270.386L350.509 270.125C350.134 269.981 349.294 269.863 348.643 269.863C347.991 269.863 347.209 269.563 346.904 269.196L346.35 268.528L346.958 268.143C347.292 267.931 347.696 267.755 347.855 267.751C348.014 267.748 348.088 267.221 348.018 266.58L347.892 265.415L346.38 265.384C345.549 265.367 344.602 265.132 344.277 264.863C343.87 264.524 343.262 264.494 342.315 264.766C340.702 265.228 339.071 264.645 337.89 263.183C336.984 262.063 334.959 260.933 333.2 260.568C329.993 259.9 330.812 258.05 334.432 257.787C335.789 257.688 337.098 257.409 337.339 257.168C337.581 256.926 338.138 256.728 338.576 256.728C339.834 256.728 339.179 255.745 337.659 255.352C336.682 255.098 336.326 254.786 336.43 254.273C336.588 253.493 337.14 253.443 340.257 253.926L342.269 254.238L342.058 252.279L343.117 252.321C343.7 252.343 344.511 252.507 344.918 252.684C345.444 252.912 345.66 252.815 345.66 252.35C345.66 251.556 345.086 251.169 343.398 250.824C342.01 250.54 341.461 249.764 342.394 249.406C343.044 249.157 346.367 249.839 347.354 250.425C347.704 250.632 348.276 250.916 348.625 251.055C350.901 251.962 353.078 253.318 354.165 254.504C354.858 255.262 355.564 255.882 355.733 255.884C356.09 255.887 357.523 258.298 357.523 258.894C357.523 259.627 362.459 264.262 364.137 265.105C365.969 266.025 366.845 265.931 366.845 264.814C366.845 263.407 367.741 263.501 371.215 265.275C371.637 265.49 372.304 265.566 372.698 265.443C373.091 265.32 374.154 265.125 375.06 265.011C377.684 264.679 377.252 264.025 373.942 263.317C371.639 262.824 373.041 260.966 375.715 260.966C376.429 260.966 377.014 260.798 377.014 260.594C377.014 259.77 375.673 259.197 373.957 259.288C372.958 259.341 371.807 259.359 371.4 259.327C370.274 259.241 370.514 258.052 371.718 257.75C373.146 257.392 373.054 256.856 371.506 256.517C368.781 255.918 370.026 254.123 373.413 253.767L375.531 253.544L373.413 252.848C372.247 252.466 370.675 252.251 369.917 252.37L368.54 252.588V251.744C368.54 251.28 368.826 250.663 369.176 250.373C369.525 250.083 369.811 249.559 369.811 249.21C369.811 248.755 369.66 248.696 369.281 249.002C368.99 249.237 367.953 249.561 366.977 249.722L365.202 250.015L363.774 249.029C360.151 246.526 355 241.923 353.779 240.098C353.038 238.991 352.243 238.085 352.012 238.085C351.298 238.085 351.549 236.38 352.306 236.09C352.825 235.891 353.667 236.534 355.378 238.436C358.605 242.023 362.437 243.11 360.053 239.762C359.55 239.056 359.24 238.215 359.364 237.893C359.487 237.571 359.314 237.203 358.98 237.074C358.645 236.946 358.371 236.627 358.371 236.366C358.371 236.104 357.942 235.54 357.417 235.113L356.464 234.335L357.239 234.034C357.72 233.846 358.265 233.984 358.677 234.396L359.342 235.061L360.059 234.175C360.865 233.179 361.76 233.466 361.76 234.721C361.76 235.173 361.988 235.495 362.265 235.437C362.542 235.379 362.842 235.665 362.932 236.073C363.045 236.592 362.831 236.814 362.215 236.814C361.671 236.814 361.337 236.54 361.337 236.094V235.373L360.336 236.374L363.785 240.416L364.785 240.291C365.336 240.223 366.901 240.158 368.263 240.146L370.741 240.124L369.534 238.8C368.871 238.071 367.994 237.22 367.587 236.909C366.6 236.155 366.615 234.696 367.609 234.696C368.03 234.696 369.014 235.356 369.795 236.162C371.242 237.654 376.037 239.67 376.639 239.039C376.806 238.864 377.006 238.244 377.084 237.661L377.226 236.602L379.507 236.525C382.44 236.425 382.889 235.982 381.982 234.08C381.154 232.344 381.483 232.013 383.68 232.374L385.277 232.637L383.952 231.388C383.223 230.702 382.379 230.058 382.075 229.956C381.331 229.708 381.885 228.34 382.73 228.34C383.092 228.34 384.133 228.833 385.044 229.436C387.052 230.764 388.288 230.658 388.135 229.17C388.059 228.429 388.137 228.297 388.405 228.712C388.613 229.033 389.009 229.156 389.286 228.986C389.925 228.591 388.842 227.808 386.687 227.107C384.61 226.432 384.066 225.743 384.809 224.727L385.386 223.938L386.481 224.656C387.084 225.051 387.782 225.374 388.033 225.374C388.284 225.374 389.05 225.79 389.737 226.297C391.147 227.339 391.716 227.142 391.025 225.852L390.562 224.986L391.424 224.525C391.897 224.271 392.466 224.176 392.688 224.313C392.91 224.45 393.585 224.238 394.19 223.842L395.288 223.122L393.746 222.592C391.323 221.759 391.29 220.623 393.672 220.072L395.022 219.761L393.146 219.399C392.114 219.2 391.065 218.83 390.815 218.578C390.139 217.894 392.948 215.764 394.947 215.444L396.587 215.182L395.878 214.1C395.085 212.89 395.284 211.815 396.301 211.815C398.301 211.815 400.613 209.348 398.729 209.224C398.322 209.197 397.705 209.15 397.359 209.118C397.013 209.087 396.666 208.727 396.587 208.32L396.443 207.578H397.957C398.789 207.578 399.471 207.387 399.471 207.154C399.471 206.921 398.511 206.731 397.339 206.731C395.775 206.731 395.138 206.55 394.947 206.052C394.615 205.19 395.499 204.627 397.197 204.618C398.163 204.614 398.727 204.305 399.263 203.487L400 202.363L399.206 202.705C398.769 202.893 397.792 203.133 397.034 203.24L395.657 203.434V202.804C395.657 202.457 395.94 201.939 396.284 201.653C397.05 201.018 398.283 198.623 397.994 198.333C397.879 198.218 397.012 198.473 396.067 198.898L394.35 199.673L393.109 198.432L394.384 196.697C395.51 195.167 396.659 191.053 395.961 191.053C395.832 191.053 395.314 191.721 394.81 192.536C394.182 193.553 393.579 194.019 392.894 194.019C391.399 194.019 391.289 193.403 392.472 191.659C394.212 189.096 393.873 186.852 391.794 187.157L390.505 187.346L390.801 185.37C391.111 183.309 390.472 180.088 389.458 178.587L388.908 177.772L388.645 178.455C388.501 178.831 388.565 179.463 388.787 179.859C389.767 181.61 388.249 182.756 386.319 181.723L385.511 181.29L386.902 178.371L385.867 174.915L385.108 175.852C383.981 177.244 382.946 176.649 382.946 174.608C382.946 173.18 381.764 168.922 381.044 167.757C380.668 167.148 378.709 168.194 378.709 169.004C378.709 169.386 378.914 169.904 379.166 170.155C379.417 170.406 379.56 171.16 379.484 171.829L379.344 173.046H376.802L376.554 170.927C376.225 168.122 375.546 166.556 373.939 164.889C371.74 162.61 371.066 163.225 373.201 165.563C376.103 168.741 374.334 169.566 371.278 166.46C368.826 163.968 364.308 160.756 360.358 158.697C357.498 157.206 357.1 157.179 357.1 158.473C357.1 158.887 356.924 159.334 356.71 159.466C356.048 159.876 354.981 158.432 354.981 157.126C354.981 155.803 353.993 155.383 353.557 156.521C353.154 157.571 352.279 157.251 350.54 155.416L348.89 153.675L348.56 154.568C348.15 155.676 347.051 155.715 345.899 154.663C345.418 154.224 344.579 153.729 344.034 153.563L343.044 153.263L343.505 154.123C344.701 156.358 343.071 156.54 340.999 154.402C339.288 152.637 338.986 152.587 338.457 153.979ZM383.881 218.676C382.944 219.614 383.352 220.198 385.477 220.962L387.583 221.719L387.107 223.618L388.395 224.284C390.086 225.159 390.573 225.124 390.573 224.131C390.573 223.661 390.178 223.187 389.646 223.019L388.719 222.724L389.434 222.202C390.445 221.463 390.337 221.075 388.772 219.827C387.136 218.522 384.626 217.931 383.881 218.676ZM324.134 223.366C323.119 224.589 327.146 226.792 331.308 227.291C336.08 227.864 334.886 225.668 329.96 224.81C328.224 224.509 326.307 223.935 325.699 223.537L324.593 222.813L324.134 223.366ZM335.914 227.444C335.914 227.65 336.364 228.114 336.914 228.474C338.525 229.529 339.368 230.528 339.143 231.113C339.028 231.414 339.167 231.749 339.453 231.858C340.114 232.112 345.679 231.852 345.977 231.553C346.18 231.35 348.84 233.239 350.245 234.584C350.944 235.253 351.87 235.273 352.269 234.628C352.447 234.339 351.837 233.452 350.78 232.466L348.989 230.795L347.87 231.009C347.186 231.139 346.58 230.992 346.311 230.628C346.069 230.302 344.578 229.677 342.997 229.24C341.416 228.803 339.781 228.136 339.362 227.757C338.566 227.037 335.914 226.795 335.914 227.444ZM328.229 229.078C328.864 230.264 330.846 230.901 334.806 231.191L338.146 231.435L337.953 230.841C337.607 229.779 334.788 228.795 331.238 228.5L327.764 228.21L328.229 229.078ZM121.177 268.205L119.398 269.513V271.916L122.307 272.876L123.924 272.05C126.972 270.495 128.027 268.622 126.47 267.531C125.026 266.52 123.142 266.76 121.177 268.205ZM143.766 282.143C143.352 282.815 144.845 284.362 145.693 284.14C146.075 284.04 146.845 284.213 147.405 284.523C148.545 285.155 151.01 285.306 151.345 284.764C151.465 284.57 152.143 284.496 152.853 284.6C153.798 284.739 154.143 284.621 154.143 284.158C154.143 282.893 152.814 282.37 149.526 282.34C147.754 282.323 145.8 282.163 145.185 281.984C144.472 281.777 143.957 281.835 143.766 282.143ZM155.698 282.855C155.544 283.009 155.91 283.781 156.512 284.571C157.553 285.935 157.644 287.236 156.698 287.236C155.977 287.236 156.205 288.448 157.003 288.857C157.41 289.066 158.497 289.352 159.418 289.494C160.648 289.684 161.505 290.205 162.653 291.46C164.275 293.234 165.434 293.623 165.853 292.532C166 292.149 165.574 291.409 164.781 290.668C164.057 289.991 163.464 289.133 163.464 288.761C163.464 288.361 163.109 288.083 162.597 288.083C162.06 288.083 161.455 287.575 161.008 286.749C159.26 283.519 156.822 281.731 155.698 282.855ZM363.758 287.497C363.65 287.605 358.169 287.798 351.577 287.925C344.985 288.052 339.13 288.331 338.565 288.546C338 288.761 337.354 288.822 337.128 288.683C336.548 288.325 332.528 288.158 332.327 288.484C332.235 288.633 330.192 288.702 327.787 288.636C325.383 288.571 322.404 288.722 321.17 288.97L318.924 289.423L319.178 291.261L317.271 291.059L317.281 292.007C317.287 292.529 317.472 293.718 317.693 294.651C317.955 295.753 317.945 296.811 317.666 297.675C317.367 298.601 317.392 300.213 317.747 302.972C318.028 305.153 318.274 310.751 318.294 315.412L318.33 323.887L318.966 324.772C320.613 327.069 322.779 327.081 322.779 324.794C322.779 323.997 323.133 322.908 323.566 322.374L324.352 321.403L325.578 321.913C326.253 322.194 328.139 323.659 329.77 325.17C331.402 326.681 333.739 328.44 334.964 329.079C338.362 330.853 338.396 331.682 335.162 333.901C333.013 335.376 330.567 335.703 329.335 334.681L328.682 334.139L327.833 335.051C326.397 336.592 324.422 335.65 325.746 334.055C326.273 333.42 326.004 330.508 325.408 330.4C325.244 330.37 324.672 330.301 324.138 330.245C323.604 330.19 322.746 329.751 322.232 329.27C321.717 328.789 320.724 328.335 320.025 328.26L318.754 328.124L318.499 333.531L319.442 334.535C319.96 335.087 320.781 335.542 321.264 335.545C322.444 335.553 324.888 336.428 326.279 337.34C327.618 338.217 328.028 338.25 329.119 337.569L329.94 337.056L331.458 337.78C333.457 338.733 334.434 338.694 335.434 337.621L336.257 336.737L337.089 337.182C337.547 337.427 338.005 337.544 338.107 337.441C338.21 337.339 339.236 338.092 340.387 339.115L342.482 340.974L342.017 341.752C341.291 342.97 339.004 343.539 334.743 343.565C332.571 343.578 330.471 343.806 330.04 344.075C328.657 344.939 326.922 344.086 324.226 341.218L321.647 338.474L318.665 337.99L318.423 338.913C318.2 339.767 318.335 341.637 318.779 343.862C319.205 346.002 327.439 348.216 333.796 347.901C337.618 347.711 339.338 347.479 339.829 347.088C340.701 346.393 349.968 346.161 351.792 346.789C352.932 347.181 353.71 347.21 354.611 346.897C355.5 346.587 356.203 346.607 357.074 346.968L358.294 347.473L359.203 346.987C359.711 346.715 361.405 346.553 363.043 346.62L365.974 346.74L367.832 344.746L368.876 346.173L369.698 344.987C370.151 344.335 370.635 343.482 370.775 343.092C370.916 342.703 371.451 342.321 371.966 342.245L372.901 342.106L372.886 338.293C372.878 336.195 372.76 332.859 372.623 330.878C372.487 328.897 372.266 324.85 372.133 321.884C371.986 318.623 371.662 316.053 371.313 315.38L370.737 314.269L372.373 311.495L371.967 310.427C371.744 309.84 371.662 308.974 371.786 308.502C371.909 308.03 371.699 306.573 371.319 305.265C370.939 303.957 370.672 302.654 370.726 302.37C370.78 302.086 370.679 301.424 370.501 300.9L370.177 299.947H368.702C367.891 299.947 366.712 299.686 366.082 299.368C365.453 299.05 363.89 298.544 362.608 298.245C361.326 297.945 359.84 297.415 359.305 297.067L358.332 296.435L356.712 296.92C354.511 297.58 352.705 297.144 349.639 295.218C348.216 294.323 346.654 293.591 346.168 293.591C345.038 293.591 344.597 292.879 345.243 292.1C345.894 291.315 351.515 291.333 352.439 292.122C352.789 292.421 353.933 292.891 354.981 293.167C356.03 293.443 357.73 294.223 358.76 294.9C361.265 296.548 361.543 296.063 359.234 294.075C356.93 292.09 357.204 291.473 360.386 291.473C362.147 291.473 363.17 291.726 364.28 292.437C365.108 292.967 366.091 293.587 366.464 293.814C366.837 294.041 367.951 294.765 368.94 295.423C371.012 296.8 371.177 296.738 371.228 294.562C371.284 292.125 369.846 289.044 368.328 288.348C366.948 287.716 364.075 287.181 363.758 287.497ZM332.15 292.227C331.619 293.22 330.181 293.316 327.995 292.504C327.018 292.142 325.397 291.904 324.393 291.977L322.567 292.108L322.303 293.966L323.706 294.673C324.478 295.062 325.789 296.029 326.618 296.823L328.127 298.267L332.391 298.105C334.736 298.017 336.865 297.815 337.12 297.657C337.376 297.499 338.079 297.693 338.683 298.089C339.637 298.714 340.916 298.909 345.084 299.066C345.583 299.084 346.918 299.925 348.05 300.934C350.088 302.751 355.057 305.403 359.731 307.168C361.062 307.671 362.384 308.363 362.669 308.706C363.389 309.574 366.21 310.963 367.252 310.963C368.225 310.963 368.374 310.093 367.61 308.871L367.104 308.06L367.61 306.95C368.512 304.97 367.676 303.76 365.402 303.76C364.642 303.76 363.894 303.634 363.739 303.479C363.255 302.995 359.086 301.642 358.078 301.642C356.827 301.642 351.564 299.956 350.744 299.292C349.717 298.461 347.453 297.405 346.699 297.405C346.316 297.405 345.424 296.993 344.717 296.489L343.432 295.574L342.645 296.066C342.212 296.336 341.544 296.557 341.161 296.557H340.464L340.703 295.082C340.973 293.423 340.643 293.075 338.61 292.866C337.862 292.79 336.71 292.446 336.052 292.102C334.413 291.248 332.644 291.304 332.15 292.227ZM322.796 299.068C321.978 300.598 322.872 301.639 326.404 303.267L329.77 304.82L332.309 304.608C334.177 304.452 334.881 304.218 334.975 303.724C335.136 302.872 332.233 300.824 330.563 300.613C329.878 300.526 328.429 299.96 327.343 299.354C324.989 298.039 323.4 297.939 322.796 299.068ZM335.024 304.632L337.799 305.931C339.326 306.645 340.575 307.402 340.575 307.613C340.575 307.825 340.792 307.997 341.058 307.997C341.323 307.997 342.47 308.569 343.606 309.269C345.757 310.592 349.116 311.036 349.71 310.075C350.137 309.384 346.142 305.539 344.409 304.974C343.582 304.704 342.241 304.13 341.429 303.698C340.591 303.252 339.085 302.913 337.948 302.913H335.944L335.024 304.632ZM325.745 308.845C325.396 309.071 324.407 309.258 323.549 309.262L321.989 309.269L321.71 310.146C321.534 310.701 321.695 311.315 322.147 311.815C322.54 312.249 322.759 312.773 322.632 312.977C322.348 313.437 323.201 315.996 324.055 317.245C324.456 317.832 325.382 318.297 326.593 318.519C328.556 318.879 333.251 321.779 335.78 324.194C336.657 325.031 337.376 325.387 337.832 325.212L338.535 324.942L337.365 322.931C336.721 321.826 335.997 320.598 335.756 320.203L335.316 319.485L336.104 318.614C337.051 317.567 337.848 317.497 338.204 318.426C338.379 318.881 338.771 319.03 339.376 318.872C339.93 318.727 340.685 318.948 341.305 319.436C341.865 319.877 342.57 320.143 342.872 320.027C343.172 319.912 344.306 320.495 345.39 321.322C346.475 322.15 347.621 322.827 347.937 322.827C348.254 322.827 349.793 323.685 351.357 324.734L354.2 326.641H355.899C357.804 326.641 363.69 329.049 365.913 330.738C368.289 332.543 369.102 331.498 367.947 328.124L367.366 326.429L364.944 325.13C363.612 324.415 361.826 323.023 360.976 322.037C360.126 321.05 358.617 319.324 357.624 318.202L355.818 316.161L353.599 315.465C352.378 315.083 350.195 314.679 348.748 314.568C346.838 314.421 345.56 314.028 344.087 313.133C342.971 312.455 341.391 311.76 340.575 311.59C339.759 311.419 338.716 311.017 338.256 310.697C336.541 309.505 333.947 310.765 334.91 312.324C335.951 314.008 334.408 318.525 333.204 317.321C332.97 317.087 332.378 316.895 331.889 316.895C331.4 316.895 330.77 316.666 330.491 316.387C329.795 315.691 329.849 314.353 330.572 314.353C331.424 314.353 331.73 313.229 331.035 312.653C330.347 312.082 329.559 312.437 329.559 313.319C329.559 314.103 329.13 314.09 327.958 313.27C326.902 312.53 326.777 311.759 327.52 310.568L328.025 309.761L327.468 309.091C326.825 308.315 326.612 308.285 325.745 308.845ZM359.786 314.167C359.634 314.561 359.98 315.295 360.646 315.99C361.259 316.63 361.76 317.366 361.76 317.625C361.76 317.885 362.383 318.482 363.145 318.953C363.906 319.424 364.988 320.297 365.549 320.894C366.11 321.491 367.012 321.98 367.554 321.98H368.54V318.674L367.163 317.533C363.354 314.376 360.249 312.959 359.786 314.167ZM342.771 329.882C342.845 330.499 343.191 331.145 343.541 331.318C348.473 333.749 354.729 335.993 361.009 337.584C363.019 338.093 364.801 338.848 365.623 339.54C367.343 340.987 368.702 340.846 368.89 339.202C369.065 337.671 367.791 336.252 364.938 334.801C363.773 334.209 362.561 333.356 362.245 332.907L361.671 332.09L359.995 332.373C358.765 332.581 358.124 332.481 357.592 331.999C356.65 331.146 353.493 330.624 353.103 331.256C352.657 331.977 352.101 331.815 351.803 330.878L351.534 330.03H348.625L348.598 331.513L347.991 330.666C346.751 328.936 346.432 328.759 344.555 328.759H342.637L342.771 329.882ZM340.151 333.313C337.97 334.015 338.325 335.608 341.079 337.47C342.084 338.149 343.599 339.246 344.447 339.909L345.989 341.113L347.762 340.006L350.418 341.35C353.101 342.707 356.46 343.398 357.438 342.794L357.97 342.466L356.978 341.396C356.433 340.808 354.951 339.632 353.683 338.784C352.416 337.935 350.558 336.61 349.555 335.839C347.044 333.912 342.273 332.63 340.151 333.313Z" fill="#FBFDFD"/>
</svg>
