<svg width="500" height="500" viewBox="0 0 500 500" fill="none" xmlns="http://www.w3.org/2000/svg">
<path fill-rule="evenodd" clip-rule="evenodd" d="M336.977 64.477C336.722 64.8891 335.805 65.0417 334.939 64.8152C333.525 64.4448 330.644 65.4915 329.613 66.749C329.397 67.0132 328.07 67.8185 326.664 68.5389L324.108 69.8483V73.0255C324.108 77.4972 324.96 78.9804 330.841 84.7505C332.384 86.2643 334.388 88.2902 335.294 89.2528C336.199 90.2146 338.122 91.3927 339.568 91.8692C342.226 92.7461 342.858 93.6859 341.397 94.5887C340.281 95.2784 341.226 96.547 342.854 96.547C343.598 96.547 344.812 97.2547 345.553 98.1198C346.294 98.9849 347.434 99.6927 348.087 99.6927C348.74 99.6927 349.274 100.203 349.274 100.827C349.274 101.452 349.917 102.426 350.702 102.99C351.488 103.556 352.367 104.654 352.657 105.43C352.947 106.206 354.428 107.361 355.948 107.997C358.788 109.183 359.459 110.292 357.728 110.939C357.101 111.173 357.815 112.371 359.694 114.24C361.317 115.853 362.644 117.775 362.644 118.51C362.644 119.244 363.705 120.863 365.003 122.106C367.413 124.415 367.995 126.089 366.556 126.569C366.109 126.718 366.986 129.349 368.517 132.457C370.04 135.548 371.376 138.907 371.487 139.922L371.688 141.767L370.311 141.536C368.343 141.205 368.581 142.24 371.662 147.412C373.162 149.93 374.489 152.875 374.611 153.957L374.833 155.923L373.064 155.676C371.167 155.413 370.66 156.94 372.151 158.431C373.225 159.505 373.394 171.219 372.346 171.92C370.813 172.947 370.634 175.122 371.713 179.638C373.153 185.666 373.146 188.502 371.688 189.061C370.86 189.379 370.508 190.67 370.508 193.388C370.508 198.269 368.705 202.88 367.045 202.243C366.203 201.92 365.722 202.439 365.402 204.02C363.808 211.873 358.711 220.765 358.711 215.692C358.711 214.086 357.656 214.209 356.032 216.004C353.41 218.901 343.903 220.278 343.251 217.854C343.048 217.098 341.134 215.675 338.999 214.694C335.375 213.026 333.907 211.366 336.059 211.366C336.576 211.366 335.887 210.216 334.526 208.81C332.709 206.933 332.054 205.524 332.054 203.502C332.056 201.988 331.949 199.693 331.818 198.402L331.579 196.054L334.725 196.031L334.61 194.065C333.805 180.307 330.727 162.804 328.74 160.681C328.355 160.269 328.041 159.332 328.041 158.596C328.041 152.175 312.437 131.299 299.449 120.34C287.174 109.983 270.63 99.6927 266.256 99.6927C265.119 99.6927 262.188 99.0753 259.742 98.3211L255.295 96.9488L226.984 96.9402L221.463 98.2849C206.282 101.982 190.203 101.636 181.562 97.4262C178.793 96.0774 175.936 94.9741 175.214 94.9741H173.899V91.1819C173.899 89.0963 173.344 85.7618 172.667 83.7713L171.433 80.1522L168.419 79.6426C165.423 79.1369 164.913 79.3052 156.991 83.408C155.694 84.0804 152.862 84.811 150.7 85.0312C148.537 85.2514 145.352 85.7877 143.622 86.2234C141.892 86.6591 136.937 87.7861 132.612 88.7275C127.716 89.7923 123.318 91.3046 120.959 92.732L117.17 95.0244L114.804 93.0332C113.502 91.9377 111.974 91.0419 111.408 91.0419C110.842 91.0419 109.365 90.5134 108.125 89.867C105.1 88.2894 104.48 88.3641 102.068 90.6L100 92.5165L100.378 98.2677C100.804 104.749 101.478 108.549 102.304 109.13C102.612 109.346 103.81 111.152 104.965 113.143C106.121 115.134 107.771 117.401 108.633 118.18C111.997 121.224 110.114 124.084 106.093 122.038C102.97 120.45 103.349 120.95 107.304 123.634C110.156 125.569 114.131 126.355 114.131 124.984C114.131 124.619 113.613 122.601 112.98 120.499C111.634 116.026 111.966 115.267 114.264 117.565L115.928 119.228L116.153 124.599C116.277 127.554 116.845 131.35 117.417 133.037L118.456 136.103L121.995 137.154C126.775 138.572 126.549 138.682 127.155 134.645L127.692 131.062L125.886 129.14C123.521 126.623 122.918 126.712 121.635 129.763C120.88 131.559 120.798 132.743 121.356 133.786L122.147 135.264L121.124 134.923C119.982 134.542 119.186 131.782 118.637 126.292L118.269 122.615L119.542 123.27C120.243 123.63 122.408 124.348 124.354 124.866C126.301 125.384 128.367 126.195 128.948 126.668L130.002 127.528L129.44 134.648C129.132 138.563 128.595 142.519 128.246 143.438L127.613 145.109L125.591 144.723C123.543 144.331 122.725 145.601 124.569 146.309C125.12 146.519 126.386 149 127.381 151.821C129.461 157.711 129.737 157.862 138.448 157.878L144.285 157.889L147.73 154.293C151.861 149.982 152.918 147.675 153.352 142.033C153.42 141.149 154.47 140.553 156.596 140.194C159.822 139.649 163.686 137.195 162.769 136.274C162.487 135.991 160.772 136.516 158.957 137.441C157.143 138.367 155.136 138.923 154.498 138.679C153.858 138.433 152.806 138.762 152.158 139.41C150.667 140.9 148.734 140.933 148.734 139.468C148.734 138.184 157.072 132.723 159.033 132.723C159.751 132.723 160.778 132.192 161.317 131.543L162.296 130.364H160.954C158.772 130.364 160.017 128.584 162.937 127.528C164.533 126.952 165.038 126.527 164.17 126.491L162.697 126.431L163.676 125.252C164.214 124.603 165.296 124.072 166.08 124.072C166.864 124.072 168.452 123.713 169.609 123.272L171.711 122.473L169.775 120.14H170.792C172.051 120.14 181.912 116.277 182.814 115.431C184.086 114.238 174.245 116.964 170.168 118.934C163.136 122.331 161.999 120.645 168.335 116.216C171.125 114.265 170.549 113.061 167.584 114.647C165.306 115.866 164.672 115.003 166.424 113.067L167.852 111.489H166.55C164.483 111.489 165.024 110.159 168.056 107.787C169.599 106.579 171.378 104.617 172.008 103.428C173.23 101.121 175.472 100.485 175.472 102.445C175.472 103.781 176.704 104.027 177.438 102.838C177.706 102.406 178.327 102.052 178.819 102.052C179.975 102.052 174.783 107.489 172.72 108.439L171.147 109.164L173.113 108.817C174.194 108.627 175.916 108.213 176.938 107.898L178.797 107.327L178.261 109.015C177.92 110.092 178.062 110.703 178.657 110.703C179.201 110.703 179.417 111.357 179.177 112.276C178.691 114.132 179.572 114.257 182.429 112.74C183.577 112.129 185.795 111.074 187.357 110.394C188.92 109.715 190.644 108.622 191.189 107.964C192.347 106.57 193.56 106.399 193.56 107.631C193.56 108.104 192.853 108.676 191.988 108.902C189.072 109.665 190.384 110.31 194.543 110.161L198.672 110.012L194.937 110.836C190.754 111.758 189.948 113.062 193.56 113.062C196.207 113.062 196.766 114.561 194.355 115.191C193.495 115.416 192.985 115.914 193.222 116.297C193.46 116.68 193.013 117.023 192.23 117.056C191.277 117.098 191.522 117.379 192.97 117.908C194.16 118.343 195.133 119.022 195.133 119.419C195.133 120.61 189.045 120.23 187.775 118.96C186.238 117.424 183.065 117.468 177.778 119.099C172.397 120.76 174.741 121.541 180.767 120.096L184.961 119.09L185.878 120.008C186.384 120.514 188.496 120.926 190.572 120.926C192.648 120.926 194.347 121.28 194.347 121.713C194.347 122.145 193.285 122.499 191.988 122.499C190.69 122.499 189.628 122.853 189.628 123.286C189.628 123.718 191.023 124.072 192.728 124.072C195.898 124.072 197.706 125.311 195.675 126.09C195.053 126.329 190.876 126.192 186.394 125.786C181.911 125.38 177.531 125.337 176.661 125.69L175.079 126.332L176.849 126.48C177.822 126.561 178.972 126.717 179.405 126.825C179.837 126.932 181.097 127.065 182.203 127.12C185.944 127.302 183.286 128.791 179.162 128.822L175.079 128.853L180.584 131.051C186.243 133.31 188.308 133.425 186.249 131.366L185.078 130.195L188.154 127.12L190.218 127.808C192.786 128.663 193.483 130.364 191.266 130.364C189.26 130.364 189.151 132.067 190.963 135.133C192.792 138.229 191.766 138.841 188.667 136.502C186.417 134.805 179.493 132.373 178.821 133.044C178.689 133.177 180.712 134.062 183.318 135.012C186.13 136.038 188.055 137.202 188.055 137.877C188.055 139.487 187.34 139.327 182.289 136.592C179.829 135.26 177.446 134.293 176.991 134.445C176.536 134.596 178.483 135.952 181.317 137.457C184.151 138.962 186.472 140.459 186.476 140.784C186.489 141.899 184.027 141.371 180.735 139.551C176.182 137.034 174.813 136.599 174.261 137.493C174 137.915 174.974 138.757 176.427 139.364C180.393 141.021 185.938 146.232 185.592 147.979L185.303 149.443L181.371 145.913C179.208 143.971 176.554 142.144 175.472 141.853C174.133 141.492 174.426 141.828 176.391 142.907C178.971 144.324 184.91 150.576 184.91 151.875C184.91 153.506 182.196 151.823 178.755 148.058C173.681 142.507 172.659 142.424 177.378 147.947C182.77 154.258 181.715 154.843 175.506 148.986C170.165 143.947 166.767 141.481 166.876 142.722C166.906 143.062 169.017 145.022 171.567 147.078C177.045 151.494 181.452 157.754 184.438 165.36C185.628 168.388 187.137 171.698 187.792 172.715C188.448 173.733 189.268 176.577 189.616 179.034C189.963 181.491 190.96 185.083 191.833 187.014C195.506 195.149 198.144 205.415 198.596 213.332C198.843 217.658 199.195 222.435 199.378 223.949C199.561 225.463 199.369 229.71 198.951 233.386L198.189 240.071L196.109 242.246C194.322 244.116 191.317 245.403 186.486 246.371C177.748 248.122 174.879 250.093 171.495 256.674C169.186 261.165 168.058 261.741 160.655 262.217C153.614 262.67 151.509 263.508 150.349 266.325C149.271 268.941 148.621 291.971 149.555 294.428L150.258 296.274L156.943 297.344L159.652 300.361C161.222 302.11 163.082 303.379 164.076 303.379C165.02 303.379 166.408 304.061 167.162 304.894L168.533 306.408L168.864 318.853C169.171 330.385 170.083 342.816 171.25 351.351C171.838 355.655 171.817 356.198 170.71 365.205L169.828 372.374L171.601 375.822C173.667 379.841 174.665 390.549 173.682 398.144C172.684 405.848 173.321 432.879 174.529 434.086L175.551 435.106L196.356 435.158C207.8 435.187 219.372 434.917 222.073 434.559C227.859 433.792 240.119 433.248 260.925 432.835L275.991 432.536L286.65 427.5L290.229 428.037C292.199 428.332 294.7 429.026 295.786 429.578L297.763 430.582L312.705 430.013C320.923 429.699 328.352 429.695 329.213 430.002C330.074 430.311 331.699 430.299 332.823 429.976C333.947 429.654 338.228 429.396 342.335 429.404C347.134 429.413 350.621 429.025 352.094 428.319L354.386 427.222L354.933 422.906C355.234 420.533 355.145 417.314 354.736 415.752C354.259 413.936 354.274 411.425 354.776 408.778C355.207 406.503 355.489 400.349 355.403 395.101L355.246 385.561L358.549 376.124L358.21 370.636C358.021 367.58 357.337 364.334 356.666 363.309L355.46 361.47L357.331 359.216L355.172 359.217L355.069 351.942C354.507 312.538 354.13 297.945 353.651 297.171C353.34 296.667 353.121 291.224 353.164 285.072C353.25 272.713 351.983 259.199 350.463 256.252C349.254 253.908 344.138 252.248 339.565 252.716C332.937 253.394 302.387 254.41 299.569 254.046L296.657 253.67L299.929 249.246L299.412 246.494C299.051 244.568 297.595 242.485 294.558 239.547C292.173 237.24 289.346 233.895 288.276 232.114L286.332 228.875L287.209 224.785C288.198 220.173 289.598 219.146 291.969 221.291L293.588 222.756L295.175 220.796C296.053 219.713 297.404 218.943 298.196 219.075C299.012 219.21 300.002 218.616 300.493 217.699C301.55 215.724 303.553 215.593 304.15 217.461C304.392 218.218 304.876 219.545 305.226 220.41C306.353 223.2 307.452 226.643 307.986 229.056C308.648 232.054 309.558 233.125 312.71 234.621C314.374 235.411 315.647 236.835 316.398 238.747L317.545 241.669L325.695 241.509L332.353 247.935L332.884 244.279L336.164 244.82C337.968 245.118 339.861 245.698 340.373 246.109C340.883 246.521 343.272 247.062 345.681 247.31L350.061 247.762V245.183H353.993C357.94 245.183 358.673 244.672 357.053 243.052C356.415 242.415 357.577 242.031 361.389 241.623C365.7 241.161 369.641 239.678 366.557 239.678C364.126 239.678 366.76 237.743 370.49 236.788C375.472 235.514 376.991 234.443 376.411 232.614C376.102 231.64 376.79 230.911 378.948 229.928C383.39 227.903 385.242 226.366 384.094 225.656C383.423 225.241 384.012 224.133 386.063 221.948C387.673 220.233 389.697 217.984 390.562 216.95L392.135 215.069L389.953 215.471C386.803 216.053 386.702 215.075 389.592 211.99C390.991 210.496 392.925 207.777 393.891 205.947L395.646 202.618L394.154 203.092C391.561 203.915 391.63 202.199 394.418 196.472C395.906 193.415 397.356 189.853 397.64 188.556L398.158 186.2H396.916C394.946 186.2 396.209 178.695 398.9 174.404C400.506 171.844 400.309 166.937 398.601 166.922C396.514 166.906 396.437 166.212 398.052 161.962C399.948 156.972 400.048 155.191 398.396 155.825C396.832 156.425 395.994 154.287 397.216 152.814C398.631 151.108 397.636 142.037 395.891 140.758C394.982 140.091 394.601 138.944 394.765 137.376C394.902 136.071 394.574 134.473 394.036 133.825C393.452 133.121 393.126 130.791 393.226 128.026L393.392 123.405L389.775 122.892L389.192 117.04C388.871 113.821 388.251 110.83 387.816 110.394C387.38 109.959 387.023 108.943 387.023 108.137C387.023 107.069 386.543 106.738 385.253 106.918L383.484 107.164L382.991 101.184L379.798 101.659L378.611 98.1198C377.959 96.1734 376.93 94.0225 376.325 93.3391C375.721 92.6565 375.226 91.3502 375.226 90.4364C375.226 88.3594 373.918 87.4841 372.531 88.6346L371.478 89.5091L370.993 88.2453C370.726 87.5501 370.497 86.3909 370.483 85.669C370.469 84.9478 369.231 83.1359 367.73 81.6425C366.23 80.1498 365.003 78.6218 365.003 78.2474C365.003 77.8731 364.383 77.7496 363.626 77.9737C362.664 78.2584 361.602 77.4476 360.095 75.2747C357.731 71.8655 356.352 71.3032 356.352 73.7467V75.3266L354.779 74.3444C353.914 73.8041 353.206 72.9783 353.206 72.5088C353.206 71.2615 349.767 68.2353 348.35 68.2353C347.682 68.2353 345.909 67.4041 344.412 66.3872C341.332 64.2977 337.669 63.3564 336.977 64.477ZM228.819 129.576C228.675 130.009 228.757 133.105 229.002 136.458C229.463 142.781 229.326 144.229 228.509 141.683C227.438 138.354 225.469 133.855 224.757 133.116C224.267 132.608 224.203 132.886 224.574 133.903C225.505 136.452 225.954 153.634 225.066 152.746C224.642 152.322 224.235 149.501 224.162 146.478C224.017 140.45 223.385 138.333 222.641 141.382L222.164 143.34L220.383 138.04C217.365 129.052 216.534 129.901 218.218 140.254C219.344 147.175 219.847 148.452 221.45 148.452C222.887 148.452 223.467 156.357 222.069 156.893C221.497 157.113 221.085 158.661 221.085 160.594C221.085 162.423 220.861 164.142 220.587 164.417C220.312 164.691 219.923 168.163 219.723 172.131L219.356 179.347L222.814 178.443L222.354 180.159C222.101 181.103 221.889 182.453 221.883 183.159C221.877 183.866 221.164 184.629 220.299 184.856C218.471 185.334 218.166 186.987 219.906 186.987C220.555 186.987 221.085 186.59 221.085 186.104C221.085 185.487 221.435 185.511 222.245 186.183L223.403 187.145L222.242 189.39C221.604 190.626 221.089 192.802 221.099 194.227C221.124 197.733 221.086 200.435 220.985 202.322C220.938 203.187 220.917 204.957 220.938 206.254C221.09 215.764 220.919 218.877 220.198 219.745C219.745 220.291 219.584 221.727 219.842 222.934C220.12 224.235 219.828 226.046 219.125 227.381C218.463 228.64 217.94 231.654 217.94 234.211C217.94 239.883 217.172 241.955 213.341 246.618C211.679 248.64 209.881 251.413 209.346 252.779L208.371 255.264L209.276 256.956C210.498 259.237 211.955 258.584 212.435 255.54L212.828 253.046L215.974 251.388C217.704 250.476 219.65 249.283 220.299 248.736C221.938 247.357 226.058 245.613 232.217 243.695C238.065 241.873 240.987 240.219 248.03 234.737C250.688 232.669 253.676 230.772 254.669 230.523C257.147 229.902 257.026 229.604 252.502 225.165C249.658 222.374 247.385 218.916 244.487 212.975L240.443 204.681L240.513 193.671L242.551 189.739C246.436 182.246 258.188 174.404 265.531 174.404C270.543 174.404 278.943 171.554 281.244 169.073C283.542 166.595 283.792 165.355 281.837 166.132C281.081 166.433 279.633 166.838 278.621 167.031C277.609 167.225 275.928 167.941 274.885 168.624L272.99 169.866V168.692C272.99 168.047 273.521 167.078 274.17 166.539C274.818 166.001 275.349 164.808 275.35 163.888C275.351 161.494 279.597 153.088 281.83 151.059C284.109 148.989 286.703 142.946 285.313 142.948C284.807 142.949 283.388 144.541 282.158 146.487C280.929 148.433 279.623 150.024 279.256 150.024C277.707 150.024 277.721 148.29 279.287 146.3C280.46 144.808 280.674 144.066 279.996 143.84C279.462 143.662 278.54 144.18 277.947 144.992C277.353 145.804 276.337 146.471 275.689 146.477C275.041 146.482 274.182 147.015 273.781 147.661L273.052 148.837L271.906 147.27C271.275 146.407 270.497 145.964 270.176 146.285C269.222 147.24 267.233 143.811 268.106 142.716C268.522 142.194 268.592 141.059 268.259 140.194L267.654 138.621L267.105 140.194C265.81 143.904 264.971 144.918 263.105 145.027L261.139 145.143L261.668 143.455C261.958 142.527 262.362 141.325 262.565 140.784C263.421 138.507 261.445 140.061 259.782 142.973L257.977 146.134L255.666 143.823L256.768 140.623C258.43 135.798 256.761 135.965 254.605 140.839C251.491 147.881 249.27 148.065 251.29 141.114C252.82 135.851 252.821 135.869 251.363 135.869C250.7 135.869 250.184 136.571 250.184 137.473C250.184 138.355 249.387 140.567 248.414 142.388L246.645 145.699L246.388 142.553C246.247 140.823 246.762 137.552 247.532 135.283L248.934 131.159L247.09 129.314L246.803 130.429C245.437 135.757 242.468 143.29 241.625 143.571C240.92 143.806 240.719 143.441 241.007 142.45C241.241 141.642 241.641 138.736 241.897 135.993L242.36 131.005L241.357 131.332C240.449 131.629 239.939 133.656 238.632 142.16L238.209 144.913L237.461 142.947C237.049 141.865 236.952 138.9 237.245 136.357C237.627 133.046 237.53 131.887 236.903 132.275C236.422 132.572 236.022 133.591 236.016 134.539C236.009 135.486 235.66 136.793 235.241 137.441C234.686 138.301 234.472 137.66 234.455 135.082C234.438 132.504 234.224 131.863 233.668 132.723C232.663 134.278 232.663 139.014 233.668 139.014C234.101 139.014 234.455 139.588 234.455 140.29V141.566L232.095 139.608L232.084 143.047C232.075 145.557 231.866 146.167 231.309 145.306C230.89 144.657 230.542 140.676 230.534 136.458C230.524 129.9 229.749 126.788 228.819 129.576ZM160.53 144.323C160.53 144.648 161.773 145.904 163.292 147.116C167.429 150.417 172.182 160.248 169.642 160.248C168.623 160.248 163.676 153.187 163.676 151.733C163.676 150.516 158.836 147.543 157.616 148.011L156.384 148.485L157.844 150.238C158.648 151.202 160.137 152.921 161.153 154.058L163.001 156.126L162.098 159.479C161.601 161.324 160.161 165.092 158.897 167.851C157.632 170.612 156.598 173.033 156.598 173.232C156.598 173.431 155.533 175.324 154.232 177.438C152.932 179.553 151.459 182.477 150.962 183.938C149.525 188.155 146.263 192.365 138.549 199.963C134.595 203.856 130.52 208.655 129.492 210.629C128.464 212.602 127.04 214.701 126.327 215.292L125.033 216.367L125.52 222.32C126.176 230.356 126.543 231.813 127.908 231.813C128.549 231.813 129.073 232.167 129.073 232.6C129.073 233.979 131.347 233.444 132.191 231.865C133.432 229.545 133.17 227.488 131.432 225.915C130.567 225.133 129.859 223.796 129.859 222.945V221.397L131.039 222.376C131.688 222.915 132.219 223.987 132.219 224.758C132.219 227.003 134.929 225.762 135.953 223.049C136.609 221.309 136.616 220.173 135.978 218.772C134.851 216.299 135.444 215.796 138.074 216.995L140.201 217.964L144.017 213.879C146.116 211.632 148.183 209.793 148.612 209.793C149.041 209.793 150.148 208.57 151.071 207.076L152.75 204.359L156.598 205.822V204.728C156.598 204.125 156.156 203.472 155.615 203.275C155.075 203.078 156.047 202.667 157.778 202.361C162.587 201.513 162.724 201.419 162.308 199.239L161.92 197.21H163.265C164.005 197.21 164.795 196.503 165.021 195.638C165.247 194.772 165.933 194.065 166.545 194.065C167.157 194.065 167.886 193.445 168.164 192.688C168.442 191.932 169.776 190.25 171.128 188.953C172.479 187.655 173.835 185.941 174.139 185.143C174.445 184.344 175.4 183.507 176.263 183.281C177.125 183.055 177.832 182.419 177.832 181.867C177.832 181.315 178.421 180.637 179.143 180.36L180.454 179.857L179.536 178.939C178.216 177.62 178.397 176.939 180.224 176.36C181.342 176.005 181.691 175.411 181.371 174.407C181.12 173.613 181.305 172.722 181.783 172.426C182.387 172.052 182.288 171.486 181.462 170.572C180.687 169.717 180.513 168.863 180.966 168.131C182.083 166.323 180.947 162.482 178.167 158.675C172.904 151.466 160.53 141.396 160.53 144.323ZM276.526 220.906C276.834 222.796 277.58 226.275 278.184 228.636C278.788 230.998 279.281 233.546 279.281 234.298C279.281 236.712 271.321 241.606 261.587 245.178C258.992 246.13 255.983 247.276 254.902 247.724C253.821 248.172 252.228 248.796 251.363 249.112C250.498 249.426 247.667 250.601 245.072 251.722C242.477 252.843 239.557 253.977 238.584 254.243C234.195 255.441 237.206 256.293 244.792 255.999L252.769 255.691L254.257 253.856C255.875 251.856 261.779 248.867 266.754 247.527C269.004 246.921 269.833 246.308 269.674 245.368L269.451 244.054L273.58 242.932C275.851 242.315 277.709 241.446 277.709 241.002C277.709 240.558 278.241 239.607 278.892 238.887C281.252 236.28 279.653 218.699 276.974 217.806L275.966 217.47L276.526 220.906ZM279.796 306.273C279.717 306.351 275.589 306.639 270.621 306.914C265.652 307.188 260.348 307.728 258.834 308.112C257.32 308.498 255.02 308.662 253.722 308.478C252.425 308.295 244.922 307.968 237.048 307.753L222.732 307.362L219.346 311.636L219.922 317.535C220.239 320.779 220.386 324.672 220.25 326.185C219.673 332.581 220.961 358.296 221.951 360.147C222.34 360.876 222.672 364.946 222.688 369.191C222.731 380.54 223.984 397.032 224.871 397.919C226.206 399.254 278.287 396.174 288.687 394.145C291.949 393.51 297.34 392.796 300.669 392.56C303.998 392.325 307.714 391.868 308.927 391.544L311.132 390.956L311.707 385.506C312.378 379.144 312.371 379.719 312.026 360.395C311.88 352.177 311.37 341.56 310.895 336.802C310.418 332.044 309.805 323.905 309.531 318.714L309.034 309.277L307.331 307.918C306.303 307.098 304.068 306.507 301.695 306.428C295.624 306.225 279.955 306.114 279.796 306.273ZM273.721 314.295C270.627 320.53 267.834 325.271 265.803 327.741C261.902 332.482 263.672 334.508 267.878 330.118C270.511 327.37 273.347 327.06 274.591 329.384L275.461 331.009L274.184 332.959C272.701 335.221 273.269 337.994 275.206 337.958C276.745 337.928 278.816 335.299 279.524 332.477C279.795 331.396 281.613 329.272 283.564 327.758C285.516 326.244 287.02 324.475 286.907 323.826L286.701 322.646L278.645 322.852L278.34 320.237C278.172 318.799 278.328 316.829 278.686 315.86C280.232 311.684 275.724 310.262 273.721 314.295ZM257.479 319.304C257.489 321.142 257.031 323.885 256.462 325.399L255.425 328.152L251.256 328.192C245.963 328.245 245.964 328.242 247.147 333.966L248.139 338.768H249.972C252.422 338.768 253.072 336.731 251.481 334.037C249.402 330.518 249.775 329.331 252.96 329.331C254.519 329.331 255.853 329.763 255.999 330.314C256.143 330.855 256.701 333.067 257.242 335.229C257.781 337.392 258.392 339.744 258.599 340.457L258.975 341.752L255.563 342.322C253.686 342.636 250.493 343.542 248.47 344.336C246.039 345.289 243.303 345.697 240.409 345.536L236.028 345.293V346.788C236.028 352.388 243.564 357.087 244.881 352.308C245.426 350.33 252.093 347.261 261.582 344.621C263.742 344.019 265.905 342.988 266.388 342.328C266.87 341.668 267.622 341.128 268.058 341.128C268.901 341.128 270.005 347.31 269.351 348.367C268.559 349.648 264.71 348.979 263.717 347.388C262.216 344.987 260.962 346.331 261.587 349.672C262.355 353.787 263.126 354.4 266.926 353.924C270.706 353.449 273.777 351.072 273.777 348.619C273.777 346.132 275.252 345.083 278.02 345.603C281.02 346.167 283.214 347.974 283.214 349.882C283.214 350.67 284.113 351.904 285.212 352.625L287.21 353.934L291.198 352.116L290.654 349.572C289.742 345.304 285.942 343.109 282.655 344.948L281.25 345.735L278.677 343.772C277.262 342.693 274.785 341.603 273.171 341.349C269.671 340.798 267.122 338.954 264.395 335.002L262.381 332.084L262.347 325.003C262.309 317.116 261.917 315.962 259.28 315.962H257.46L257.479 319.304ZM255.427 355.808C255.138 356.096 254.902 357.137 254.902 358.121C254.902 359.105 254.548 360.128 254.116 360.395C252.825 361.193 253.218 363.581 255.016 365.866L256.703 368.011L263.946 367.041L259.787 370.97C257.241 373.375 254.418 375.226 252.512 375.739C248.169 376.909 248.313 378.885 252.74 378.849C256.538 378.817 258.307 377.984 262.284 374.354C265.979 370.981 267.778 371.087 270.248 374.818C272.443 378.136 277.779 382.022 280.138 382.022C282.089 382.022 289.479 377.947 289.494 376.862C289.5 376.404 287.648 375.56 285.376 374.988C275.309 372.45 270.744 367.715 276.312 365.586C277.297 365.209 278.776 364.153 279.599 363.239L281.097 361.577L279.282 360.003C276.586 357.665 271.298 357.947 265.589 360.733C263.032 361.981 260.426 362.804 259.797 362.563L258.653 362.124L259.591 355.283H257.771C256.77 355.283 255.715 355.519 255.427 355.808Z" fill="#FBFDFD"/>
</svg>
