<svg width="300" height="304" viewBox="0 0 300 304" fill="none" xmlns="http://www.w3.org/2000/svg">
<path fill-rule="evenodd" clip-rule="evenodd" d="M9.48873 1.37963L5.78977 1.59493L4.13535 3.35553L2.48093 5.11615L2.29383 34.2057C1.88131 98.1745 1.21158 174.887 0.905258 193.337C-0.522308 279.278 -0.351791 294.799 2.06626 299.318C2.90575 300.887 6.48766 301.939 6.88935 300.735C7.04251 300.275 7.48537 299.899 7.8726 299.899C8.26056 299.899 8.4 300.187 8.18182 300.539C7.96436 300.891 8.39928 301.339 9.14774 301.535C11.2147 302.076 46.4299 301.236 48.2274 300.604C48.426 300.534 50.5392 300.543 52.9233 300.625C66.3241 301.081 87.8019 301.073 89.0459 300.612C89.8406 300.316 92.8511 300.292 95.7359 300.557C98.6213 300.823 101.224 300.797 101.522 300.499C101.819 300.202 104.157 300.255 106.719 300.617C109.853 301.06 111.675 301.027 112.291 300.516C112.794 300.099 114.353 299.724 115.756 299.685L118.305 299.612L118.389 298.13L118.473 296.647L118.803 297.912C119.027 298.767 119.846 299.176 121.337 299.176H123.539L122.732 298.203L121.924 297.23L125.353 297.405C131.033 297.697 132.957 296.385 130.202 294.099C128.744 292.889 129.195 291.744 131.363 291.148C132.327 290.884 105.831 290.627 72.4823 290.58C39.1339 290.531 11.737 290.379 11.5997 290.242C11.4625 290.106 11.2002 281.25 11.016 270.563C10.8318 259.877 10.6396 250.645 10.5883 250.049C10.537 249.453 10.6931 246.365 10.9365 243.186C11.6908 233.311 12.0701 212.482 11.4957 212.482C11.1944 212.482 10.5587 212.872 10.0819 213.349L9.21492 214.216V213.021C9.21492 212.365 9.58771 211.009 10.0436 210.009L10.8722 208.19L10.0609 207.212L9.2496 206.234L10.0992 205.384C10.6772 204.806 10.6967 204.535 10.1592 204.535C9.72498 204.535 9.18241 205.022 8.95339 205.618C8.42961 206.985 6.32511 207.046 6.32511 205.696C6.32511 205.142 6.81276 204.502 7.40879 204.273C8.00481 204.045 8.49247 203.378 8.49247 202.792C8.49247 202.206 9.22214 201.216 10.1144 200.591L11.7363 199.454L11.841 193.889L11.9451 188.322L10.761 187.421L9.57615 186.52L11.0211 186.485L12.466 186.451L11.4285 185.795L10.3918 185.138L11.2082 184.154C12.3569 182.77 12.3677 166.967 11.2197 166.967H10.3708L11.2378 166.1C11.7146 165.623 12.1047 163.51 12.1047 161.404V157.575L10.8404 157.552L9.57615 157.529L10.9488 156.49L12.3215 155.451L12.6581 118.907L12.9955 82.3615L11.6568 81.3826L10.3181 80.4037L11.5737 79.0158L12.8293 77.628L13.1465 57.4571C13.3206 46.3639 13.2166 36.1491 12.916 34.7584C12.5888 33.2477 12.6762 31.7205 13.1328 30.9655C13.6833 30.0552 13.65 29.306 13.0157 28.2895C12.5006 27.4652 12.4125 26.7066 12.8041 26.4646C13.1725 26.237 13.4398 23.4715 13.3994 20.3195C13.3582 17.1407 13.6746 14.1663 14.1095 13.6418L14.8941 12.6961L51.9704 12.4975L89.0459 12.2988L91.0327 10.864C92.9862 9.45303 93.7975 9.85038 92.2081 11.4398C91.6078 12.0401 116 12.2713 185.93 12.3269C237.924 12.3688 280.737 12.6759 281.071 13.0097C281.405 13.3434 281.762 40.4513 281.864 73.2492L282.051 132.882L283.285 134.766L284.52 136.65L283.411 137.076C281.833 137.681 281.886 142.404 283.47 142.404C284.326 142.404 284.546 141.922 284.292 140.598L283.947 138.792L285.473 138.802C287.672 138.818 288.621 139.615 289.202 141.933L289.715 143.976L286.911 143.734L284.108 143.493V144.864C284.108 145.718 285.132 146.767 286.817 147.642C290.535 149.571 290.212 150.364 285.914 149.855L282.302 149.427V153.82C282.302 158.353 283.139 159.98 284.353 157.809C284.787 157.034 284.796 155.905 284.377 154.804C283.493 152.478 283.626 152.421 287.357 153.523C289.112 154.041 290.098 154.615 289.548 154.799C287.873 155.357 289.466 156.853 291.737 156.853C293.897 156.853 294.201 157.294 293.428 159.309L292.994 160.438L291.441 159.621C290.587 159.172 289.662 158.455 289.385 158.03C289.109 157.604 288.621 157.535 288.301 157.876C287.982 158.217 288.127 158.641 288.623 158.818C290.414 159.458 289.475 160.465 287.086 160.465C285.745 160.465 284.247 160.946 283.758 161.535L282.871 162.605L283.262 199.644C283.848 255.075 283.898 290.4 283.391 291.22C283.143 291.622 281.986 291.952 280.821 291.952H278.703L280.684 294.745C281.772 296.281 283.07 297.384 283.566 297.196C284.707 296.764 284.711 297.363 283.581 299.174L282.691 300.598L283.813 301.719C284.614 302.52 286.484 302.859 290.349 302.905C296.594 302.977 298.653 302.047 299.569 298.739C300.511 295.33 299.766 270.083 298.702 269.407C298.093 269.019 298.08 268.852 298.658 268.844C299.228 268.837 299.509 265.74 299.574 258.719L299.668 248.604H298.571C297.967 248.604 297.474 248.082 297.474 247.443C297.474 246.708 297.871 246.435 298.558 246.699L299.642 247.115L299.256 219.142C299.043 203.757 298.671 189.706 298.427 187.918C297.411 180.45 297.219 173.699 297.894 169.189L298.372 165.993L297.13 165.084C296.447 164.585 295.432 164.352 294.875 164.566C294.317 164.78 293.861 164.595 293.861 164.155C293.861 163.715 294.813 163.355 295.976 163.355H298.091L298.119 138.092L298.148 112.828L296.908 112.084L295.667 111.339L296.818 110.436C297.667 109.77 297.905 108.584 297.723 105.92C297.587 103.933 297.511 98.8941 297.554 94.722C297.596 90.5498 297.544 85.3481 297.439 83.1627C297.234 78.9219 297.252 78.5101 297.901 72.2111L298.322 68.1234L296.909 64.9302L295.497 61.7369L296.628 59.6266C297.912 57.231 298.523 40.1031 297.35 39.3778C296.96 39.1372 297.03 38.5433 297.519 37.9545C297.98 37.399 298.178 36.2091 297.958 35.3096C297.739 34.4102 297.484 28.3762 297.391 21.8994C297.298 15.4234 296.976 9.97248 296.674 9.78681C296.374 9.60042 296.243 8.18658 296.384 6.64486L296.641 3.84101L295.001 2.30075L293.361 0.759766L257.197 0.962051C237.306 1.07331 221.182 1.40709 221.365 1.70402C221.549 2.00094 220.827 1.91208 219.762 1.50751C218.697 1.10221 216.809 0.92882 215.567 1.12099C212.812 1.54796 179.98 2.52328 175.198 2.32099L171.767 2.17504V3.87715C171.767 4.81345 170.921 6.69905 169.886 8.06809L168.006 10.5562L168.523 8.75009C168.807 7.75672 169.328 6.63474 169.68 6.25762C170.034 5.87978 170.322 4.84018 170.322 3.94578V2.32027L156.053 2.20178C148.205 2.13676 138.766 2.03922 135.075 1.98503C130.175 1.91351 128.205 2.14688 127.77 2.85055L127.176 3.81429L126.737 2.66994L126.298 1.52556H117.563H108.829L106.001 3.79767L103.174 6.0705L102.217 5.27653C101.691 4.84017 99.6963 4.34818 97.784 4.18418C95.8717 4.01946 94.0359 3.44584 93.7036 2.90834L93.1003 1.9323L76.9853 1.71195C49.1839 1.33194 13.3437 1.15495 9.48873 1.37963ZM225.12 28.4369C221.705 35.0625 214.454 43.0297 208.249 46.9714L204.638 49.2652L203.374 47.7112C201.654 45.5966 201.746 44.8575 204.524 38.4877C207.198 32.3584 208.879 26.3837 208.228 25.3297C207.395 23.9816 206.659 24.691 205.755 27.7145C202.865 37.3715 193.768 50.6523 190.043 50.6523H188.383L188.394 48.3044C188.411 44.5881 190.34 37.3592 192.709 32.1352C195.05 26.9711 195.416 25.0761 193.982 25.5363C191.927 26.1966 185.574 41.1319 183.299 50.6523C182.872 52.4404 181.941 54.6735 181.231 55.6149L179.939 57.3256L178.413 56.5093C176.255 55.3541 175.388 51.4384 175.383 42.826L175.379 35.3602L174.476 35.6564C173.213 36.0704 171.76 40.7988 171.261 46.1139C170.103 58.4642 163.413 56.8705 159.976 43.4249C159.325 40.8761 158.538 39.3705 157.779 39.221L156.595 38.9869V42.4865C156.595 44.4111 157.25 48.3484 158.05 51.2368C159.554 56.661 159.16 59.7061 157.061 58.9006C155.69 58.3746 149.803 50.1719 145.811 43.2255C142.184 36.9149 140.958 36.1274 141.229 40.283C141.617 46.2172 151.212 61.3309 158.97 68.226C164.499 73.1401 166.908 77.0313 166.571 80.507L166.348 82.8015L163.82 84.1142L161.291 85.4269L156.595 85.0693C150.363 84.5953 149.823 84.3266 146.885 80.2368L144.366 76.73L144.688 67.6993C145.063 57.1877 144.397 55.9335 142.151 62.9196C138.82 73.2796 137.137 72.6727 124.154 56.432L118.667 49.5687L118.432 51.2209C117.93 54.7631 125.926 66.3267 135.024 75.2157L140.571 80.6341L141.07 83.3043C141.776 87.0791 141.57 87.3587 136.349 89.6966C130.339 92.3877 127.897 92.3653 122.948 89.5723L118.945 87.3125L115.873 87.7337L112.801 88.1541L109.447 85.4782C105.341 82.2011 105.323 83.0132 109.636 77.0219C114.372 70.4425 114.569 67.544 109.952 72.3815C108.785 73.6039 105.906 75.8912 103.554 77.4647L99.2788 80.3249L96.3297 79.8907C94.395 79.6054 92.4567 79.8445 90.6946 80.5864C87.7658 81.8197 81.7904 82.1144 81.1373 81.0575C80.9133 80.6948 82.973 78.3374 85.7154 75.8197C94.4694 67.7824 102.049 57.5012 95.0221 63.1948C83.9274 72.185 80.1294 74.4933 76.4319 74.4933C73.2712 74.4933 73.5421 74.015 80.1764 67.8771C89.6542 59.1079 87.1011 59.4431 74.495 68.6226L68.1714 73.2275L66.327 72.5629L64.4826 71.899L64.5497 69.3957C64.5902 67.8937 65.8306 64.7279 67.6519 61.4812C71.8299 54.0327 72.1066 53.5949 74.8584 50.0708C76.1942 48.3607 77.0525 46.7352 76.7657 46.4585C76.1422 45.8589 68.4206 54.1172 63.2183 60.9473C61.0502 63.793 58.9608 65.8238 58.2001 65.8238H56.8968V63.3971C56.8968 62.062 57.9133 59.0653 59.1559 56.7368C60.6991 53.8449 61.4887 51.257 61.6491 48.5659L61.8839 44.6285L65.5316 37.2891C67.5371 33.2528 69.1785 29.569 69.1785 29.103C69.1785 26.849 67.225 28.9441 62.5254 36.238L57.383 44.2196L55.8752 44.0043L54.3682 43.789L54.5055 40.8992C54.5813 39.3098 55.2626 36.1592 56.0197 33.8987C57.1424 30.5465 57.1164 26.862 55.98 28.2773C54.5084 30.1094 52.6155 33.5324 51.6178 36.1636C48.5409 44.2789 44.3543 49.1691 41.6993 47.7488C40.2616 46.9794 33.2964 33.8531 31.6752 28.8559C31.202 27.3973 30.3813 25.8455 29.8525 25.4055L28.8902 24.6072L28.5449 25.5283C28.1612 26.5535 31.6247 40.6066 35.0036 51.736C36.2094 55.7095 37.7771 60.9849 38.4865 63.4593C42.1017 76.0653 46.3483 79.0057 70.6234 85.7094C75.8987 87.1665 86.677 87.1767 90.7625 85.7281C92.5007 85.1119 95.4527 84.6076 97.3209 84.6076H100.719L104.025 86.7974C107.192 88.8954 108.692 90.8489 107.812 91.7296C107.585 91.9564 106.846 91.7505 106.17 91.2722C102.193 88.459 99.372 87.4974 95.0958 87.4974H90.6122L85.4944 90.6928C82.6797 92.4498 79.4171 94.8932 78.2453 96.1214L76.1133 98.3545L77.1616 99.3334C81.0636 102.978 90.1556 102.474 95.8038 98.2981C97.9242 96.7304 101.516 96.0852 101.759 97.2281C102.003 98.3819 95.5921 102.388 90.212 104.444C74.5369 110.433 62.3289 125.3 56.9322 144.971C55.3529 150.728 55.9042 154.464 57.5824 149.379C58.4905 146.628 60.9454 143.126 61.9655 143.126C62.3123 143.126 61.9597 144.563 61.1838 146.317C56.1209 157.762 57.6677 173.071 64.5671 179.816C66.3089 181.519 67.7336 183.225 67.7336 183.609C67.7336 184.806 65.8502 184.373 64.4826 182.861C62.6482 180.834 62.7147 180.786 58.492 187.171C53.5511 194.64 40.4653 207.941 35.0542 210.993C28.0803 214.926 26.8319 217.108 25.1573 228.29C24.718 231.224 23.2811 236.101 21.9648 239.127C18.3554 247.425 16.4474 257.378 16.4416 267.93C16.4387 272.683 16.1512 272.688 27.7133 267.718C43.9786 260.724 46.5701 258.594 43.9179 254.4C42.9462 252.863 34.7189 252.916 24.0252 254.528L22.5803 254.745V252.578V250.41L25.1089 249.517C26.6246 248.981 29.1943 248.79 31.5235 249.039L35.4096 249.454L37.8269 248.152C40.5795 246.67 41.3843 245.238 40.2392 243.859L39.4503 242.909L42.9361 242.67L46.4212 242.432L42.9961 240.851C37.7706 238.438 34.3512 232.067 38.7546 232.947C42.5706 233.71 44.2813 230.378 41.7354 227.14C39.883 224.787 40.4162 224.041 43.9504 224.041H46.8135L47.5923 222.331L48.3711 220.622L54.2599 218.802C57.8663 217.688 60.1478 216.601 60.1478 215.997V215.01L54.9584 214.999C44.3557 214.976 49.1391 212.789 61.2922 212.104C71.9679 211.501 74.6634 210.206 67.7098 209.019C65.9968 208.727 64.4732 208.119 64.3229 207.668C63.8396 206.217 70.2672 204.29 73.9207 204.791L77.2179 205.242L76.7932 203.902L76.3676 202.562L78.9786 202.138C84.2561 201.282 85.0219 198.656 81.1286 194.763C77.2678 190.903 75.3042 183.146 77.4636 180.29L78.5241 178.888L78.5473 181.626C78.5783 185.344 80.7088 189.244 84.2734 192.106L87.2398 194.488L87.2239 197.886C87.1907 205.162 81.4219 224.037 76.2499 233.794L74.7183 236.684L74.6019 249.327L74.4856 261.97L72.803 265.819L71.1197 269.667L72.6976 277C74.7385 286.484 74.5528 286.385 81.2305 281.56C84.337 279.316 88.5857 276.336 90.6715 274.94L94.4643 272.401L94.4535 270.075C94.447 268.796 94.1725 267.324 93.843 266.804L93.2434 265.859L88.429 266.976C85.7812 267.59 81.9522 268.935 79.9214 269.964L76.2275 271.836L75.4118 271.018L74.5969 270.2L76.403 268.769C79.2813 266.49 83.0416 264.739 86.0651 264.271C89.2251 263.782 91.7118 261.902 91.4351 260.211C91.3325 259.589 91.5001 258.68 91.8064 258.192C92.3866 257.268 91.3289 254.757 89.6535 253.082C89.0944 252.523 88.8617 251.402 89.1037 250.437C89.3349 249.516 89.1731 248.545 88.7432 248.279C88.3134 248.014 87.9623 247.003 87.9623 246.033C87.9623 244.947 87.5461 244.27 86.8786 244.27C83.4787 244.27 89.1507 236.144 94.4318 233.449C95.8406 232.73 97.6431 231.409 98.4378 230.515L99.8827 228.888L98.0766 229.296C97.0832 229.52 95.4996 229.941 94.5583 230.23L92.8461 230.757L94.0973 228.847C94.7858 227.796 97.2523 225.781 99.5793 224.368L103.809 221.798L104.537 219.163L105.264 216.528L104.102 215.244L102.939 213.959L106.144 212.585L109.35 211.211L111.951 205.886C116.186 197.219 116.688 195.782 117.591 189.724C118.51 183.568 119.565 180.67 120.397 182.016C121.389 183.621 119.36 195.455 117.248 200.381C116.139 202.966 118.161 201.526 120.54 198.034C122.712 194.847 124.085 193.602 124.085 194.818C124.085 195.981 121.512 199.856 118.313 203.513C113.913 208.541 113.877 209.057 117.763 211.316C127.607 217.038 146.336 222.275 159.805 223.07L167.071 223.499L174.295 222.018C178.269 221.204 182.419 220.194 183.517 219.774L185.515 219.011L185.097 215.927C184.868 214.231 184.537 212.131 184.361 211.261C183.905 208.997 185.366 208.441 186.176 210.572C186.55 211.556 187.26 214.42 187.752 216.937C188.245 219.453 189.252 222.197 189.99 223.035C193.545 227.069 210.102 234.018 221.977 236.458C228.626 237.825 239.231 235.852 244.292 232.307C245.86 231.208 251.959 230.849 251.959 231.855C251.959 232.467 244.876 235.92 242.025 236.698C239.576 237.367 240.057 238.258 243.47 239.372L246.541 240.374L248.459 244.309C249.514 246.472 250.924 250.04 251.591 252.235L252.806 256.228L252.648 266.323C252.552 272.478 252.893 278.816 253.522 282.56L254.554 288.7L256.188 288.937C258.057 289.207 259.763 288.195 266.589 282.766C271.815 278.608 272.332 277.354 270.032 274.43C267.964 271.802 265.399 271.386 261.824 273.099C260.173 273.89 257.929 274.872 256.836 275.279L254.849 276.021V274.694C254.849 272.659 258.279 269.679 262.228 268.283L265.781 267.027L265.462 265.349L265.144 263.672L266.955 262.983L268.766 262.294L267.522 260.919C266.782 260.101 266.456 258.985 266.717 258.162C266.985 257.319 266.586 256.054 265.699 254.925C263.963 252.719 263.855 251.597 265.324 251.033C267.003 250.389 266.607 248.606 264.783 248.594C263.889 248.587 262.71 248.299 262.164 247.953L261.17 247.324L261.575 238.786L261.98 230.247L260.805 228.258C260.16 227.164 258.7 225.884 257.564 225.414L255.496 224.557L252.646 225.411L249.796 226.265L246.745 225.444L243.694 224.622L246.104 223.609C247.429 223.052 248.963 222.596 249.514 222.596C250.064 222.596 250.514 222.291 250.514 221.918C250.514 220.823 244.105 220.154 242.15 221.045C240.407 221.84 239.646 220.98 241.228 220.002C241.745 219.682 241.181 219.039 239.722 218.284L237.389 217.078L237.197 213.51C237.092 211.547 236.47 208.906 235.815 207.64C233.553 203.266 237.581 203.947 240.335 208.403C241.166 209.747 241.845 211.701 241.845 212.748C241.845 214.565 243.448 215.424 244.291 214.06C244.492 213.735 244.75 206.989 244.867 199.069L245.078 184.667L243.071 180.363C241.967 177.995 240.265 175.01 239.287 173.729C237.446 171.314 237.027 169.857 238.173 169.857C239.911 169.857 241.239 170.997 243.369 174.315L245.684 177.922L248.28 177.441C252.101 176.733 255.052 174.643 256.918 171.322C258.963 167.682 258.778 167.086 255.185 165.751C248.59 163.301 246.019 163.174 238.101 164.904L234.718 165.643L229.662 162.69C219.031 156.482 205.04 152.548 193.526 152.53C175.891 152.504 166.62 149.896 149.611 140.18L146.599 138.46L143.278 139.349C136.384 141.192 132.186 139.825 128.893 134.663C126.58 131.04 124.284 128.989 121.004 127.618C118.619 126.622 117.202 124.343 118.968 124.343C122.441 124.343 128.589 128.854 131.586 133.601L133.457 136.563L136.329 137.337C139.986 138.321 142.07 137.782 145.019 135.089L147.376 132.936L146.926 130.124C146.679 128.578 144.637 123.68 142.388 119.24L138.3 111.167L135.857 110.146C132.845 108.888 132.272 107.534 133.414 104.378L134.297 101.933L132.081 98.059C128.875 92.4549 129.98 89.8114 133.477 94.722C135.386 97.403 136.297 97.4109 143.361 94.8086C151.003 91.994 155.191 91.2809 167.071 90.773C172.634 90.5346 179.136 89.9039 181.52 89.3707C185.846 88.4027 193.869 86.7381 201.387 85.2492C221.39 81.2865 248.556 69.499 258.28 60.5637C260.218 58.7835 260.409 57.5315 258.642 58.2013C256.018 59.1946 237.741 69.8385 234.739 72.1215C231.203 74.8104 229.27 74.5973 231.857 71.8043L233.536 69.9902L231.189 70.4931C227.688 71.243 228.305 70.1932 233.717 66.1937C238.144 62.9225 252.702 49.6113 253.283 48.3044C254.173 46.3017 249.969 48.5276 245.096 52.6391C241.917 55.3216 238.046 58.491 236.494 59.683C224.474 68.9152 224.358 68.9723 223.911 65.9221C223.552 63.4831 226.814 58.5784 232.571 52.9006L237.782 47.7625H236.166C233.867 47.7625 227.95 51.7866 221.377 57.8212C214.932 63.7381 213.977 63.8862 214.157 58.9432L214.285 55.466L216.533 52.2771C218.771 49.102 218.353 48.8563 215.331 51.5735C213.477 53.2416 211.279 52.7959 212.007 50.8994C212.271 50.2102 214.785 47.324 217.593 44.484C223.047 38.9703 229.563 28.0244 229.563 24.376C229.563 21.1113 228.3 22.265 225.12 28.4369ZM80.0153 55.4458C71.3552 62.6769 65.7591 69.4361 68.4322 69.4361C68.8166 69.4361 71.6616 66.7544 74.7537 63.4759C77.8465 60.1974 81.609 56.2969 83.116 54.8064C86.9581 51.0071 84.7986 51.4521 80.0153 55.4458ZM140.935 98.8472C137.807 99.2467 137.221 100.265 137.733 104.405L138.173 107.947L141.063 108.982C143.098 109.711 145.767 109.908 150.093 109.647C160.689 109.008 161.064 108.183 153.159 102.913C147.479 99.1268 145.054 98.3205 140.935 98.8472ZM109.636 103.063C109.636 105.791 112.649 108.449 115.744 108.449H118.305V107.08C118.305 104.768 114.413 101.224 111.875 101.224H109.636V103.063ZM106.746 123.541V126.473L108.961 127.618L111.177 128.764L110.679 131.069C109.437 136.824 105.373 141.556 95.1868 149.107C92.2067 151.317 89.0293 154.045 88.127 155.17C87.2239 156.294 85.0833 158.871 83.3696 160.897C81.6358 162.946 79.6916 166.298 78.9872 168.451C78.2908 170.58 77.262 172.978 76.7007 173.779C75.4855 175.515 75.3381 178.761 76.4919 178.376C77.7403 177.96 80.7377 171.916 80.7377 169.814C80.7377 168.585 82.0959 166.375 84.6982 163.37C86.8757 160.855 88.8357 158.237 89.0532 157.552C89.4512 156.298 93.4081 153.147 101.271 147.822C103.694 146.181 107.406 142.591 109.861 139.514C112.237 136.534 114.622 134.123 115.16 134.156C115.698 134.189 117.113 134.27 118.305 134.336C120.913 134.481 121.103 135.805 119.083 139.766L117.694 142.492L118.757 142.899C120.756 143.667 121.998 140.918 121.656 136.481L121.339 132.365L119.007 129.118C117.724 127.332 116.23 125.7 115.684 125.49C114.232 124.933 114.452 127.258 115.956 128.358C116.651 128.866 116.972 129.528 116.671 129.83C115.775 130.725 113.409 127.625 112.549 124.427C111.587 120.856 110.545 120.579 110.195 123.801L109.94 126.149L109.213 123.669C108.148 120.038 106.746 119.966 106.746 123.541ZM176.824 223.927C176.228 224.271 173.709 224.97 171.225 225.479C168.742 225.989 166.71 226.674 166.71 227.003C166.71 227.332 168.742 229.295 171.225 231.365C177.868 236.904 185.969 240.451 195.73 242.091C201.444 243.052 204.181 243.853 205.185 244.856L206.596 246.268L206.13 248.391C205.364 251.879 202.03 255.179 191.509 262.863C182.044 269.775 170.266 280.577 171.187 281.498C171.715 282.026 178.88 282.989 186.682 283.58L192.565 284.025L195.585 280.419C199.282 276.003 199.052 274.735 194.135 272.432C188.355 269.725 191.24 267.521 197.456 269.895L200.564 271.081L203.475 269.596C205.077 268.779 207.41 268.111 208.662 268.111H210.936L210.557 266.485L210.177 264.86L214.157 262.331L218.137 259.802L216.579 259.565C213.945 259.164 205.427 262.144 203.578 264.113C201.526 266.297 199.942 266.481 199.942 264.535C199.942 262.071 204.51 259.408 212.03 257.488L219.087 255.685L221.859 253.047C224.089 250.926 226.774 246.861 228.702 242.685C228.829 242.41 227.693 241.982 226.178 241.732C224.662 241.483 220.334 240.337 216.559 239.186L209.696 237.094L203.809 237.158C197.551 237.226 194.57 236.417 197.782 235.522C198.772 235.247 200.99 234.99 202.712 234.95C207.022 234.85 206.282 233.69 200.653 231.722C198.076 230.821 193.368 228.745 190.189 227.108C184.345 224.099 178.809 222.781 176.824 223.927ZM136.139 291.611C131.978 292.518 130.033 293.396 132.184 293.396C132.798 293.396 133.704 293.884 134.199 294.48C134.694 295.076 136 295.564 137.1 295.564C138.213 295.564 139.287 295.083 139.518 294.48C140.14 292.858 141.549 293.196 143.82 295.512C145.076 296.793 145.56 297.769 145.084 298.063C144.078 298.684 142.869 297.912 142.869 296.65C142.869 295.317 139.863 295.558 138.738 296.981C137.556 298.473 137.595 299.176 138.859 299.176C139.436 299.176 140.238 299.745 140.644 300.44C141.068 301.168 141.389 301.315 141.402 300.788C141.424 299.837 144.655 300.244 146.12 301.382C146.517 301.69 153.832 301.922 162.375 301.897L177.908 301.851L180.008 299.356L182.109 296.861L184.884 297.304L187.661 297.748V296.348C187.661 295.577 188.873 293.948 190.354 292.727L193.047 290.507H183.923H174.798L174.043 292.674C173.121 295.317 171.543 295.625 172.192 293.035C172.472 291.923 172.338 291.229 171.845 291.229C171.405 291.229 171.044 291.879 171.044 292.674C171.044 293.469 170.713 294.119 170.308 294.119C169.883 294.119 169.764 293.355 170.025 292.313L170.479 290.507H163.253H156.027L155.577 291.681L155.127 292.855L152.235 292.392L149.343 291.93L148.605 293.872L147.867 295.814L146.694 294.641L145.522 293.469L146.451 292.35L147.38 291.23L145.212 291.663C143.949 291.916 142.838 291.765 142.552 291.302C141.982 290.379 141.729 290.392 136.139 291.611ZM196.108 290.973C194.405 291.466 194.84 293.674 196.699 293.971C199.51 294.419 202.11 295.755 202.11 296.749C202.11 297.484 202.649 297.629 204.097 297.282C205.19 297.02 205.842 297.065 205.548 297.382C205.253 297.7 205.371 298.391 205.809 298.92C206.247 299.448 206.401 300.414 206.151 301.066L205.696 302.252L207.967 301.798C209.216 301.548 210.665 301.343 211.187 301.343C211.762 301.343 212.226 300.279 212.361 298.639L212.585 295.935L214.576 294.986L216.566 294.037L215.815 292.633L215.063 291.229L209.851 291.223C206.984 291.22 203.013 291.077 201.026 290.906C199.039 290.735 196.826 290.765 196.108 290.973ZM218.027 291.785C218.082 293.058 220.029 294.906 220.338 293.979C220.56 293.313 221.424 293.629 223.305 295.065L225.959 297.088L225.235 298.441C224.837 299.185 224.71 300.313 224.954 300.948L225.397 302.103L226.396 301.273C226.946 300.817 227.406 299.915 227.419 299.269C227.453 297.499 229.185 295.564 230.733 295.564C231.488 295.564 232.494 294.941 232.969 294.18L233.833 292.798L232.962 292.089C231.959 291.274 217.992 290.989 218.027 291.785ZM235.61 292.296C235.028 293.813 235.999 294.96 237.469 294.493C239.544 293.835 241.09 294.835 242.613 297.82C244.027 300.593 246.179 301.629 246.179 299.537C246.179 297.905 247.399 298.236 247.858 299.992C248.098 300.911 248.657 301.379 249.245 301.153C249.786 300.946 251.349 301.286 252.719 301.91C256.099 303.449 257.945 303.582 258.908 302.356L259.716 301.328L260.622 302.419C261.287 303.221 263.012 303.511 267.119 303.511H272.71L272.365 301.705L272.019 299.899H273.458C274.249 299.899 276.288 300.39 277.989 300.99C281.523 302.236 282.34 301.936 280.612 300.026C279.952 299.297 279.412 298.198 279.412 297.582C279.412 296.967 278.925 296.059 278.329 295.564C277.733 295.069 277.245 294.046 277.245 293.29V291.917L274.536 292.033C273.046 292.097 263.767 291.951 253.916 291.707L236.006 291.266L235.61 292.296Z" fill="#FBFDFD"/>
</svg>
