<svg width="300" height="289" viewBox="0 0 300 289" fill="none" xmlns="http://www.w3.org/2000/svg">
<path fill-rule="evenodd" clip-rule="evenodd" d="M286.656 0.560267C286.562 0.652882 282.254 0.912628 277.084 1.13755C271.913 1.36317 263.296 1.74826 257.934 1.99407C252.572 2.23988 246.696 2.38124 244.877 2.30812C241.489 2.17163 240.774 2.80741 242.607 4.32824C243.177 4.80176 243.471 5.46678 243.262 5.80591C242.504 7.03288 240.264 6.38387 238.928 4.54968L237.563 2.6758L220.707 2.80323C203.172 2.93623 201.938 3.0776 203.353 4.78297L204.2 5.80312L202.72 7.28287L201.24 8.7633L199.599 8.01544C198.462 7.49735 197.564 7.48899 196.672 7.98758C195.767 8.49452 195.005 8.46946 194.101 7.90472L192.815 7.10252L189.771 7.86919L186.726 8.63518L184.421 7.44302L182.114 6.25088L183.425 5.2927C185.102 4.06642 186.485 4.08452 189.569 5.37277C191.14 6.02873 192.211 6.15686 192.481 5.72095C192.715 5.34143 193.75 5.02598 194.781 5.02041C196.807 5.00857 198.919 4.00166 197.948 3.51003C197.62 3.34361 194.688 3.2879 191.432 3.38678C188.177 3.48496 182.693 3.61448 179.246 3.67367C171.211 3.81224 171.058 3.86239 168.792 7.13246L166.883 9.88653L167.775 12.039C168.757 14.4107 171.463 16.5458 172.597 15.8452C173.775 15.1168 181.749 14.8439 213.019 14.4588C229.297 14.2582 247.941 13.8941 254.452 13.6496C268.136 13.135 285.503 13.2179 286.085 13.8C286.305 14.0194 286.53 29.9749 286.585 49.2555C286.641 68.5362 286.887 84.6365 287.132 85.0335C287.396 85.4596 288.209 85.5321 289.12 85.211C290.853 84.5996 293.1 84.92 293.1 85.7779C293.1 86.5717 290.011 87.2952 289.759 86.5606C289.645 86.2277 288.94 86.1156 288.192 86.3113L286.833 86.6664L286.786 92.3306C286.76 95.4453 286.609 98.9793 286.452 100.183C286.277 101.515 286.544 102.688 287.133 103.177C288.466 104.283 289.332 102.809 288.171 101.41L287.301 100.362L288.405 99.2565C289.032 98.6297 290.012 98.3442 290.67 98.5963L291.829 99.0413L291.338 101.999C291.067 103.626 290.586 105.056 290.267 105.178C289.949 105.299 288.919 106.003 287.98 106.742L286.271 108.086L286.535 111.744C286.679 113.757 286.945 131.697 287.127 151.613C287.308 171.529 287.631 194.561 287.844 202.795C288.844 241.269 289.496 261.055 290.019 268.764C290.268 272.421 290.076 274.352 289.323 275.81L288.284 277.818L284.947 278.137C283.111 278.312 280.091 278.276 278.235 278.054L274.859 277.653L273.989 275.113C273.037 272.336 273.374 271.277 276.169 268.263C277.055 267.308 278.226 265.582 278.771 264.43L279.762 262.333L278.704 258.503C275.184 245.752 274.242 239.813 274.064 229.252C273.97 223.696 273.617 218.682 273.278 218.11C271.818 215.643 264.072 205.825 262.723 204.73C261.91 204.069 260.715 202.413 260.067 201.049L258.89 198.568L259.706 194.589C260.154 192.4 261.269 189.016 262.183 187.068C264.563 181.998 265.74 174.542 265.928 163.338C265.936 162.893 267.201 162.316 268.741 162.056C270.804 161.708 272.018 160.955 273.365 159.189L275.192 156.794L273.606 153.711C271.448 149.514 265.06 144.153 256.715 139.534C240.788 130.719 237.582 129.376 229.893 128.299L224.831 127.59L214.225 129.393C205.056 130.95 195.941 133.242 191.084 135.211C187.724 136.573 181.462 137.54 174.193 137.818L166.354 138.119L162.007 135.913C159.615 134.699 154.996 131.954 151.74 129.811C148.485 127.668 144.881 125.577 143.732 125.165C142.583 124.752 141.006 124.057 140.228 123.621C138.354 122.57 130.827 122.32 121.74 123.006L114.37 123.561L107.214 117.741C103.278 114.54 99.5827 111.544 99.0019 111.084C97.1218 109.594 98.5005 108.092 101.755 108.084C105.846 108.075 111.327 105.371 113.938 102.075L116.093 99.354L115.722 97.4132C115.518 96.345 114.6 94.9802 113.682 94.3785L112.014 93.2853L105.791 93.4113C102.369 93.4802 99.0075 93.6418 98.3223 93.7692C90.2306 95.2782 86.283 94.8367 86.283 92.4225C86.283 90.8543 101.454 86.6574 112.679 85.1205C121.227 83.9499 136.66 79.5859 137.838 78.0059C138.042 77.7308 139.354 77.0275 140.752 76.4433C142.151 75.859 144.42 74.6174 145.796 73.6836C147.172 72.7498 149.777 71.2819 151.586 70.4212C153.394 69.5605 155.856 68.0487 157.055 67.0613C160.498 64.2285 163.715 61.8045 164.37 61.5517C164.701 61.4236 164.971 60.9257 164.971 60.4438C164.971 59.9627 166.018 58.8137 167.296 57.891C170.257 55.7539 177.505 47.6191 177.505 46.4325C177.505 45.317 172.81 42.3449 170.994 42.3108C168.485 42.2642 168.141 40.3687 170.116 37.46C172.354 34.1614 172.356 33.94 170.179 31.7625C167.665 29.2486 166.506 29.7737 160.777 36.0186C157.967 39.0825 154.947 42.0497 154.066 42.613L152.464 43.636L151.654 42.8261L150.844 42.0163L151.682 38.3207C152.143 36.2888 152.856 32.8293 153.269 30.633L154.018 26.6394L153.142 25.5844C152.242 24.4995 150.364 24.2627 147.903 24.9243C147.075 25.1464 145.981 26.5642 145.223 28.3963L143.942 31.4923H142.326H140.709L140.254 29.4199C140.004 28.2807 139.98 27.0551 140.201 26.6979C141.247 25.005 139.7 23.8324 136.42 23.8324C132.934 23.8324 132.262 24.4271 132.224 27.5453C132.213 28.3754 131.329 30.1107 130.259 31.4004L128.313 33.7464L126.092 32.5974L123.871 31.4484L124.291 29.7723C124.851 27.5405 122.651 23.8289 120.776 23.8428C117.928 23.8644 117.702 24.5705 117.763 33.2478C117.795 37.8354 117.663 42.3728 117.468 43.3303C115.487 53.0952 111.031 62.8282 108.541 62.8282C106.549 62.8282 106.443 62.1081 107.3 54.3821C108.275 45.6032 107.777 42.1827 105.366 41.0838L103.633 40.2942L102.113 41.8143L100.594 43.3338L100.448 50.4693C100.236 60.8833 99.1955 68.9094 97.683 71.809C97.1628 72.8062 96.7353 73.9886 96.7325 74.4378C96.7269 75.5665 91.4172 80.0107 89.5517 80.448C82.6669 82.0621 76.6023 86.0919 76.557 89.0828C76.5194 91.5952 74.9972 94.203 72.9513 95.2608C68.7433 97.4369 66.2761 95.696 68.4216 92.0639C70.2014 89.0507 69.8407 87.7889 66.07 83.835C64.1446 81.8163 62.7177 79.925 62.8988 79.6319C63.0798 79.3387 62.7755 77.7844 62.2219 76.1773L61.215 73.256L62.7574 69.9574C65.7155 63.6283 72.2188 55.5937 77.2646 52.0347C81.2762 49.2054 85.3966 45.0259 85.9773 43.1973C86.8317 40.5038 82.5624 38.664 80.6906 40.9195C80.2018 41.5086 78.589 42.9508 77.1072 44.1248L74.4123 46.2591L73.3685 45.3929L72.3246 44.5266L73.523 42.7098C74.1825 41.7106 75.4603 39.5783 76.3628 37.9718L78.0034 35.0506L76.5724 33.6196C74.6859 31.7332 72.4924 31.7938 71.6422 33.7554C71.2683 34.6175 69.588 37.8291 67.9077 40.893L64.8535 46.4639L63.0339 46.6839L61.2143 46.9047L61.231 45.6394C61.2617 43.3226 64.586 31.3732 65.4481 30.4826C67.0929 28.7835 65.6201 25.2251 63.272 25.2251C60.9636 25.2251 58.7562 30.1497 54.608 44.5489C54.1157 46.2577 52.0684 46.6449 50.9243 45.2452C50.5336 44.7669 49.9891 41.6493 49.7154 38.3179L49.2175 32.2611L47.9321 31.0975C44.4802 27.9736 41.5361 31.7813 42.5249 38.0888C42.8793 40.3478 43.0771 44.0963 42.965 46.4186L42.761 50.642H41.3787H39.9964L38.8516 46.4639C36.4464 37.6863 33.4096 34.1489 30.5232 36.7616C28.5533 38.5442 28.5205 38.3869 32.8581 47.984C34.6672 51.986 31.3644 52.9058 28.939 49.0752C26.74 45.6018 23.0716 42.6263 21.6225 43.1402C17.4026 44.6373 17.828 46.4353 24.0416 53.3626C26.9593 56.6153 29.8004 60.1521 30.3554 61.2224C31.8992 64.1986 34.7661 67.8266 37.4011 70.1399C38.7103 71.2888 41.1162 73.4824 42.7484 75.0143C48.2218 80.152 51.1012 82.3093 53.5544 83.1136C55.8426 83.8629 59.2165 85.8872 60.9246 87.5348C61.3404 87.9352 61.8905 89.582 62.1488 91.1941L62.6175 94.125L60.9448 95.2211C60.0249 95.8235 58.064 96.5045 56.5877 96.7329C53.5802 97.1994 47.6675 99.9313 45.5464 101.834C43.8041 103.398 40.151 105.594 36.3963 107.335C34.8107 108.07 33.3038 109.012 33.0475 109.426C32.7913 109.841 32.019 110.18 31.3317 110.18C30.6444 110.18 29.2364 110.964 28.2037 111.921C27.1703 112.879 26.091 113.662 25.8041 113.662C24.6272 113.662 23.4852 118.749 23.9518 121.91C25.1251 129.854 31.4779 133.464 39.5313 130.766C46.8102 128.326 62.1558 130.558 63.5777 134.263C63.8117 134.873 64.1801 139.183 64.3959 143.84C64.8987 154.69 67.2127 163.453 70.441 166.738C71.1109 167.42 71.6596 168.347 71.6596 168.799C71.6596 169.251 73.6944 171.577 76.181 173.967L80.7017 178.314L81.13 183.069C81.8876 191.493 87.0191 200.118 94.8259 206.091L95.9484 206.95L95.5452 209.573C95.3238 211.016 94.8064 212.621 94.3955 213.141C93.9854 213.66 93.3238 214.647 92.9255 215.334C89.2216 221.725 87.9487 223.684 87.5016 223.685C87.214 223.686 86.9794 223.983 86.9794 224.347C86.9794 224.711 86.0852 226.356 84.992 228.003C82.3194 232.031 82.0381 233.242 81.7122 242.139C81.2693 254.218 80.5506 257.842 76.36 269.125C75.2521 272.107 72.7835 275.205 71.4904 275.237C71.0085 275.249 68.7349 275.38 66.437 275.528C42.6823 277.059 17.8099 277.349 16.5683 276.109C15.6575 275.2 15.5419 271.352 15.0057 224.034C14.8414 209.48 14.5037 192.402 14.2564 186.083C14.0085 179.763 13.6785 167.699 13.5211 159.273C13.3644 150.847 13.0803 138.47 12.8895 131.767C12.6987 125.065 12.5462 114.411 12.5511 108.091C12.5553 101.772 12.5392 95.8179 12.5156 94.8604C12.1138 78.6563 11.8819 73.1502 11.5915 72.8591C11.3979 72.6662 11.5233 71.2505 11.8686 69.713C12.214 68.1754 12.2892 66.5822 12.0365 66.172C11.2614 64.9186 11.3436 17.5144 12.1214 16.8703C12.5044 16.5527 22.3752 16.2192 34.0565 16.1286C60.1621 15.9267 64.9321 15.0876 63.4789 10.9499C63.2094 10.1839 63.0374 8.5377 63.0973 7.29193C63.2525 4.02255 62.1899 3.75095 50.4208 4.05387C44.6759 4.2015 30.9808 4.30943 19.9881 4.29411L0 4.26557L0.159468 8.42907L0.318935 12.5926L2.2165 14.0849C4.31531 15.7359 4.76793 17.2693 2.95045 16.5715C1.78754 16.1252 0.662251 17.1815 0.642057 18.7379C0.636486 19.1912 1.49299 19.6612 2.54657 19.7824L4.46154 20.0025L4.6816 21.9174C4.93437 24.1102 3.69765 24.4751 2.32235 22.6138C1.66917 21.7301 1.20957 21.6041 0.649006 22.1556C0.0842635 22.712 0.16505 23.1562 0.950536 23.808C1.54104 24.2982 2.02431 25.1018 2.02431 25.5935C2.02431 26.1756 2.57025 26.3469 3.5911 26.0837L5.1579 25.6798L4.17744 26.8747C3.4978 27.7034 2.97552 27.8476 2.47136 27.3434C1.03757 25.9096 0.56476 26.6756 0.77088 30.0996C0.993017 33.7979 1.51806 34.2554 3.49222 32.4686C6.11608 30.094 7.334 34.1934 4.80972 36.9029C3.08416 38.7545 3.08416 38.9029 4.80972 39.3541C6.47818 39.79 6.68708 41.9376 5.0604 41.9376C4.43229 41.9376 3.51797 41.3895 3.02844 40.7204C2.5389 40.0505 1.88224 39.7587 1.56958 40.0713C1.25622 40.384 1.69841 41.1674 2.55214 41.8108C5.90229 44.34 7.50182 49.5954 5.36193 51.0445C5.03534 51.2652 5.24145 52.3592 5.82012 53.4747L6.87232 55.5025L5.1753 57.0763C4.24149 57.9418 2.83765 58.65 2.05495 58.65C0.302231 58.65 0.30153 58.7545 2.02431 62.1318C3.67606 65.3698 3.82507 67.7026 2.38013 67.7026C1.76108 67.7026 1.3551 68.3335 1.37182 69.2694C1.38714 70.1315 1.30497 72.1265 1.18938 73.7045L0.979778 76.5721L3.41701 75.2476L5.85425 73.9232L7.76922 76.1835C9.95507 78.7628 10.2782 81.4897 8.46557 82.0503C7.79498 82.2578 6.66828 82.7397 5.96148 83.1206L4.67603 83.8141L3.34599 82.6101C1.493 80.9326 0.775045 82.0134 2.14965 84.4095L3.29376 86.4025L2.3112 86.7799C1.77013 86.9867 1.32795 87.9581 1.32795 88.9372V90.7178L3.41701 89.6378C4.60638 89.0229 5.50607 88.8648 5.50607 89.2715C5.50607 89.6642 5.19271 89.9859 4.80972 89.9859C3.2471 89.9859 4.26586 91.513 6.43221 92.4183C9.18141 93.5673 10.689 95.1905 10.0163 96.2789C9.41887 97.2454 6.13696 96.5435 5.12725 95.2343C4.72824 94.7155 3.79932 94.1842 3.06397 94.0533C1.22769 93.7274 0.869745 95.985 2.47623 97.7607L3.74638 99.1646L2.53752 100.049C0.860701 101.274 1.02504 101.824 3.06884 101.824C5.23589 101.824 5.51025 104.293 3.41701 104.958L2.02431 105.4L1.94213 111.794C1.89617 115.311 1.91359 118.474 1.97974 118.824C2.11623 119.547 2.47555 142.735 3.06397 188.868C3.28611 206.294 3.59318 228.386 3.74568 237.961C3.89818 247.536 4.06533 262.147 4.11755 270.43L4.21087 285.49L5.28812 287.028L6.36468 288.566L14.1179 288.148C23.1182 287.662 49.4014 286.964 66.3513 286.759L78.1037 286.618L79.0458 285.329C79.5639 284.621 80.5172 282.603 81.1641 280.847C82.9572 275.98 85.5804 273.636 86.4898 276.086C86.6744 276.583 87.1277 276.168 87.5455 275.12C87.9487 274.109 89.6025 272.543 91.2216 271.638C95.4637 269.267 95.7778 268.48 94.7869 262.704C92.9966 252.264 93.9519 245.035 97.9191 239.005C100.859 234.536 109.097 225.775 110.359 225.775C111.639 225.775 119.012 243.133 119.012 246.147C119.012 246.662 119.288 247.38 119.626 247.745C120.202 248.364 120.833 250.522 123.488 260.941C125.584 269.169 125.975 271.087 125.975 273.136V275.216L123.712 275.258C122.467 275.281 115.098 275.308 107.337 275.319L93.2243 275.338L92.1909 276.371C91.4883 277.074 91.1575 278.86 91.1575 281.951V286.497L112.919 286.035C128.215 285.71 134.928 285.327 135.517 284.746C136.323 283.952 138.509 276.605 138.509 274.692C138.509 274.182 139.169 273.073 139.975 272.227C142.818 269.245 143.525 267.693 143.042 265.495C142.786 264.33 142.36 263.378 142.094 263.378C141.623 263.378 140.938 262.122 137.91 255.718C137.095 253.992 135.975 249.298 135.42 245.273C134.525 238.782 132.629 232.749 130.088 228.305C129.679 227.591 128.997 224.248 128.571 220.878L127.797 214.749L128.662 213.708C131.217 210.63 143.785 210.686 153.481 213.82C162.328 216.678 182.448 216.468 190.736 213.43C191.31 213.219 192.251 212.971 192.825 212.878C193.4 212.785 195.127 212.242 196.664 211.672C198.201 211.101 200.708 210.429 202.235 210.179L205.011 209.726L213.019 217.595C223.172 227.57 223.564 228.174 223.428 233.638C223.266 240.131 218.589 252.957 214.943 256.911C213.39 258.594 212.918 259.342 210.046 264.679C208.985 266.649 206.609 269.685 204.765 271.425L201.414 274.588L175.465 274.707L149.516 274.826L148.627 276.093C147.639 277.504 147.982 283.342 149.138 284.799L149.835 285.677L171.852 285.25C212.31 284.465 209.973 284.88 213.071 277.92C214.439 274.85 215.128 274.268 219.432 272.545C220.554 272.096 221.933 270.579 222.835 268.802C223.669 267.159 225.052 264.977 225.907 263.953C226.763 262.929 228.652 259.952 230.104 257.338C231.557 254.724 232.929 252.428 233.155 252.236C233.38 252.045 234.033 250.948 234.606 249.799C235.179 248.65 235.807 247.553 236 247.362C236.193 247.17 237.167 245.76 238.165 244.228C246.643 231.211 247.406 227.68 242.784 222.856C237.8 217.654 236.96 213.85 241.021 214.868C243.386 215.462 255.711 228.351 257.809 232.424C258.83 234.407 260.056 238.682 260.693 242.487C261.302 246.126 262.148 250.713 262.571 252.68C262.994 254.647 263.152 257.31 262.921 258.599C262.69 259.887 262.451 263.839 262.389 267.382C262.318 271.507 261.997 273.871 261.499 273.957C261.07 274.032 255.079 274.148 248.185 274.216C241.291 274.283 233.152 274.52 230.097 274.741L224.544 275.143L223.625 276.398C222.447 278.006 223.155 282.883 224.747 284.126L225.902 285.029L252.363 284.728C266.917 284.562 283.191 284.709 288.529 285.054C294.864 285.463 298.474 285.44 298.924 284.99C299.361 284.553 299.55 275.642 299.439 260.782C299.128 219.3 299.091 205.992 299.278 203.143C299.379 201.611 299.304 186.883 299.112 170.415C298.92 153.946 298.754 133.264 298.743 124.455C298.733 115.647 298.674 93.3981 298.614 75.0143C298.554 56.6306 298.532 40.336 298.564 38.804C298.597 37.272 298.625 34.8229 298.627 33.362C298.629 31.9003 298.939 29.5892 299.315 28.225L300 25.7453L298.488 24.5204L296.975 23.2955L297.728 22.3457C298.142 21.8227 298.678 17.3006 298.92 12.2966L299.359 3.19807L298.406 1.89449L297.453 0.590911L292.141 0.49203C289.219 0.437018 286.751 0.468348 286.656 0.560267ZM139.459 3.49123C135.646 4.08243 135.028 4.41389 135.028 5.86509C135.028 6.69236 134.65 8.41305 134.189 9.68876L133.35 12.0083L134.363 12.9574C135.315 13.8495 149.501 15.4936 156.139 15.481L158.798 15.4762L158.356 14.0834L157.913 12.6907H160.05C162.433 12.6907 162.918 11.6246 160.835 10.9631C159.956 10.6839 159.408 9.77999 159.268 8.37475C159.056 6.25993 158.765 5.97652 155.222 4.43479C153.588 3.72382 142.309 3.04904 139.459 3.49123ZM79.6677 4.14997C75.9791 4.51764 75.6065 5.0044 75.3377 9.80367C75.0509 14.9441 75.3468 15.1739 82.9753 15.7338C88.9821 16.1746 90.1018 15.8083 88.0239 14.0834C86.3352 12.6817 87.1562 9.20898 89.1764 9.20898C89.6965 9.20898 90.8734 13.9491 90.6018 14.9539C90.4458 15.5326 91.2786 15.5813 101.055 15.5639C104.775 15.5576 108.487 15.1948 109.303 14.7582L110.786 13.9644L109.154 12.1288C108.256 11.1198 107.052 9.91369 106.477 9.44992L105.433 8.60664L106.303 7.72366C106.782 7.2383 107.174 6.27733 107.174 5.58794C107.174 4.17573 107.341 4.19871 95.3356 3.97031L87.3275 3.81851L86.2085 4.79062L85.0902 5.76202L84.2086 4.70009C83.7239 4.11585 83.1306 3.69108 82.8904 3.75514C82.6494 3.8199 81.1996 3.99746 79.6677 4.14997ZM77.6726 59.7684C74.1909 62.6346 71.6596 66.046 71.6596 67.8718C71.6596 68.2305 71.0573 69.0445 70.3212 69.6803C69.5852 70.316 68.7781 72.1447 68.5281 73.7435L68.0734 76.6501L69.5183 77.4237C70.3128 77.8492 70.973 78.8909 70.9855 79.7391L71.0078 81.2815L72.0029 79.9661C72.5509 79.2433 73.7159 78.2956 74.5926 77.861C75.617 77.3534 76.2611 76.3304 76.3962 74.9983C76.6559 72.4357 78.245 68.8837 79.6551 67.7131C80.2366 67.2305 80.7122 66.585 80.7122 66.2779C80.7122 65.9715 81.6523 64.7807 82.8013 63.6317C85.2232 61.2098 85.5567 58.359 83.5436 57.2817C81.7205 56.3061 82.0443 56.1689 77.6726 59.7684ZM221.672 134.636C221.398 135.08 222.207 136.204 223.546 137.241C232.037 143.817 240.233 152.922 241.186 156.836C241.233 157.027 241.621 157.811 242.047 158.577C242.475 159.343 243.214 161.948 243.689 164.366C244.68 169.406 246.92 173.2 248.906 173.2H250.268L250.902 170.195L251.535 167.191L249.941 162.104C247.776 155.204 242.44 147.473 236.507 142.641C233.915 140.53 231.296 138.306 230.69 137.699C227.92 134.929 222.606 133.125 221.672 134.636Z" fill="#FBFDFD"/>
</svg>
