<svg width="500" height="500" viewBox="0 0 500 500" fill="none" xmlns="http://www.w3.org/2000/svg">
<path fill-rule="evenodd" clip-rule="evenodd" d="M109.489 99.6199L105.79 99.8352L102.481 103.356L102.294 132.446C101.881 196.415 101.212 273.128 100.905 291.577C99.4777 377.519 99.6482 393.04 102.066 397.558C102.906 399.127 106.488 400.18 106.889 398.975C107.043 398.515 107.485 398.139 107.873 398.139C108.26 398.139 108.4 398.427 108.182 398.779C107.964 399.131 108.399 399.579 109.148 399.775C111.215 400.316 146.43 399.477 148.227 398.844C148.426 398.774 150.539 398.783 152.923 398.865C166.324 399.321 187.802 399.313 189.046 398.852C189.841 398.556 192.851 398.532 195.736 398.798C198.621 399.063 201.224 399.037 201.522 398.739C201.819 398.442 204.158 398.496 206.719 398.858C209.853 399.3 211.675 399.267 212.291 398.756C212.794 398.339 214.353 397.965 215.756 397.925L218.305 397.853L218.473 394.888L218.803 396.152C219.027 397.007 219.846 397.416 221.337 397.416H223.539L221.924 395.47L225.353 395.646C231.033 395.937 232.957 394.625 230.202 392.339C228.744 391.129 229.195 389.984 231.363 389.388C232.327 389.124 205.831 388.868 172.482 388.82C139.134 388.771 111.737 388.62 111.6 388.482C111.462 388.346 111.2 379.49 111.016 368.804C110.832 358.117 110.64 348.886 110.588 348.29C110.537 347.693 110.693 344.605 110.937 341.426C111.691 331.552 112.07 310.722 111.496 310.722C111.194 310.722 110.559 311.112 110.082 311.589L109.215 312.456V311.262C109.215 310.605 109.588 309.249 110.044 308.249L110.872 306.43L109.25 304.474L110.099 303.625C110.677 303.047 110.697 302.775 110.159 302.775C109.725 302.775 109.182 303.263 108.953 303.859C108.43 305.225 106.325 305.286 106.325 303.936C106.325 303.383 106.813 302.742 107.409 302.513C108.005 302.285 108.492 301.618 108.492 301.032C108.492 300.447 109.222 299.456 110.114 298.831L111.736 297.695L111.945 286.562L109.576 284.76L112.466 284.691L110.392 283.379L111.208 282.395C112.357 281.01 112.368 265.207 111.22 265.207H110.371L111.238 264.34C111.715 263.864 112.105 261.751 112.105 259.645V255.816L109.576 255.769L112.321 253.692L112.995 180.602L110.318 178.644L112.829 175.868L113.146 155.697C113.321 144.604 113.217 134.389 112.916 132.999C112.589 131.488 112.676 129.961 113.133 129.206C113.683 128.295 113.65 127.546 113.016 126.53C112.501 125.705 112.412 124.947 112.804 124.705C113.173 124.477 113.44 121.712 113.399 118.56C113.358 115.381 113.675 112.407 114.109 111.882L114.894 110.936L189.046 110.539L191.033 109.104C192.986 107.693 193.798 108.091 192.208 109.68C191.608 110.28 216 110.512 285.93 110.567C337.924 110.609 380.737 110.916 381.071 111.25C381.405 111.584 381.762 138.692 381.864 171.489L382.051 231.122L384.52 234.89L383.411 235.316C381.833 235.921 381.886 240.644 383.47 240.644C384.326 240.644 384.546 240.162 384.292 238.838L383.947 237.032L385.473 237.043C387.672 237.059 388.621 237.855 389.202 240.173L389.715 242.216L384.108 241.733V243.104C384.108 243.958 385.132 245.007 386.817 245.882C390.535 247.812 390.212 248.604 385.914 248.095L382.302 247.667V252.06C382.302 256.593 383.139 258.22 384.353 256.05C384.786 255.274 384.796 254.145 384.377 253.044C383.493 250.719 383.626 250.662 387.357 251.763C389.112 252.281 390.098 252.856 389.548 253.039C387.873 253.598 389.466 255.093 391.737 255.093C393.897 255.093 394.201 255.534 393.428 257.549L392.994 258.679L391.441 257.862C390.587 257.412 389.662 256.696 389.385 256.27C389.109 255.844 388.621 255.775 388.301 256.116C387.982 256.457 388.127 256.881 388.624 257.058C390.414 257.698 389.474 258.705 387.086 258.705C385.744 258.705 384.247 259.187 383.759 259.775L382.871 260.845L383.262 297.885C383.848 353.315 383.898 388.641 383.391 389.461C383.143 389.862 381.986 390.192 380.821 390.192H378.703L380.684 392.985C381.772 394.521 383.07 395.624 383.566 395.436C384.707 395.004 384.711 395.604 383.581 397.414L382.691 398.838L383.813 399.959C384.614 400.761 386.484 401.099 390.349 401.145C396.594 401.217 398.653 400.287 399.569 396.979C400.511 393.57 399.766 368.323 398.702 367.647C398.093 367.26 398.08 367.092 398.658 367.084C399.228 367.077 399.509 363.98 399.574 356.959L399.668 346.845H398.571C397.967 346.845 397.473 346.322 397.473 345.684C397.473 344.948 397.871 344.675 398.558 344.939L399.642 345.355L399.256 317.382C399.043 301.998 398.671 287.947 398.427 286.159C397.411 278.691 397.219 271.939 397.894 267.43L398.372 264.233L397.13 263.325C396.447 262.826 395.432 262.592 394.875 262.806C394.317 263.02 393.861 262.835 393.861 262.395C393.861 261.955 394.813 261.595 395.976 261.595H398.09L398.148 211.068L395.667 209.579L396.818 208.676C397.667 208.01 397.905 206.824 397.723 204.16C397.587 202.173 397.511 197.134 397.554 192.962C397.596 188.79 397.544 183.588 397.439 181.403C397.234 177.162 397.252 176.75 397.9 170.451L398.322 166.364L395.497 159.977L396.628 157.867C397.912 155.471 398.522 138.343 397.35 137.618C396.96 137.377 397.03 136.784 397.519 136.195C397.98 135.639 398.178 134.449 397.958 133.55C397.739 132.65 397.484 126.616 397.391 120.14C397.298 113.664 396.976 108.213 396.674 108.027C396.374 107.841 396.243 106.427 396.384 104.885L396.64 102.081L393.361 99L357.197 99.2023C337.306 99.3135 321.182 99.6473 321.365 99.9443C321.549 100.241 320.827 100.152 319.762 99.7477C318.697 99.3424 316.809 99.1691 315.567 99.3612C312.812 99.7882 279.98 100.764 275.198 100.561L271.767 100.415V102.117C271.767 103.054 270.921 104.939 269.886 106.308L268.006 108.796L268.523 106.99C268.807 105.997 269.328 104.875 269.68 104.498C270.034 104.12 270.322 103.08 270.322 102.186V100.561L256.053 100.442C248.205 100.377 238.766 100.279 235.075 100.225C230.175 100.154 228.205 100.387 227.77 101.091L227.176 102.055L226.298 99.7658H208.829L203.173 104.311L202.217 103.517C201.691 103.08 199.696 102.588 197.784 102.424C195.872 102.26 194.036 101.686 193.704 101.149L193.1 100.173L176.985 99.9522C149.184 99.5722 113.344 99.3952 109.489 99.6199ZM325.12 126.677C321.705 133.303 314.454 141.27 308.249 145.212L304.638 147.505L303.374 145.951C301.654 143.837 301.746 143.098 304.524 136.728C307.198 130.599 308.879 124.624 308.228 123.57C307.395 122.222 306.659 122.931 305.755 125.955C302.865 135.612 293.768 148.893 290.043 148.893H288.383L288.394 146.545C288.411 142.828 290.34 135.599 292.708 130.375C295.05 125.211 295.416 123.316 293.982 123.777C291.927 124.437 285.574 139.372 283.299 148.893C282.872 150.681 281.941 152.914 281.231 153.855L279.939 155.566L278.413 154.749C276.255 153.594 275.388 149.679 275.383 141.066L275.379 133.6L274.476 133.897C273.213 134.311 271.76 139.039 271.261 144.354C270.103 156.704 263.413 155.111 259.976 141.665C259.325 139.116 258.538 137.611 257.779 137.461L256.595 137.227V140.727C256.595 142.651 257.25 146.589 258.05 149.477C259.554 154.901 259.16 157.946 257.061 157.141C255.69 156.615 249.803 148.412 245.811 141.466C242.184 135.155 240.958 134.368 241.229 138.523C241.617 144.457 251.212 159.571 258.97 166.466C264.499 171.38 266.908 175.271 266.571 178.747L266.348 181.042L261.291 183.667L256.595 183.31C250.363 182.836 249.823 182.567 246.885 178.477L244.366 174.97L244.688 165.94C245.063 155.428 244.397 154.174 242.15 161.16C238.82 171.52 237.137 170.913 224.154 154.672L218.666 147.809L218.432 149.461C217.93 153.003 225.926 164.567 235.024 173.456L240.571 178.874L241.07 181.545C241.776 185.319 241.57 185.599 236.349 187.937C230.339 190.628 227.897 190.606 222.948 187.813L218.945 185.553L212.801 186.394L209.447 183.718C205.341 180.441 205.323 181.253 209.636 175.262C214.372 168.683 214.569 165.784 209.952 170.622C208.785 171.844 205.906 174.131 203.554 175.705L199.279 178.565L196.33 178.131C194.395 177.846 192.457 178.085 190.695 178.827C187.766 180.06 181.79 180.355 181.137 179.298C180.913 178.935 182.973 176.578 185.715 174.06C194.469 166.023 202.049 155.741 195.022 161.435C183.927 170.425 180.129 172.734 176.432 172.734C173.271 172.734 173.542 172.255 180.176 166.117C189.654 157.348 187.101 157.683 174.495 166.863L168.171 171.468L164.483 170.139L164.55 167.636C164.59 166.134 165.831 162.968 167.652 159.721C171.83 152.273 172.107 151.835 174.858 148.311C176.194 146.601 177.053 144.975 176.766 144.699C176.142 144.099 168.421 152.357 163.218 159.188C161.05 162.033 158.961 164.064 158.2 164.064H156.897V161.637C156.897 160.302 157.913 157.306 159.156 154.977C160.699 152.085 161.489 149.497 161.649 146.806L161.884 142.869L165.531 135.529C167.537 131.493 169.178 127.809 169.178 127.343C169.178 125.089 167.225 127.184 162.525 134.478L157.383 142.46L154.368 142.029L154.505 139.139C154.581 137.55 155.263 134.399 156.02 132.139C157.142 128.787 157.116 125.102 155.98 126.517C154.508 128.35 152.615 131.773 151.618 134.404C148.541 142.519 144.354 147.409 141.699 145.989C140.262 145.22 133.296 132.093 131.675 127.096C131.202 125.638 130.381 124.086 129.853 123.646L128.89 122.847L128.545 123.769C128.161 124.794 131.625 138.847 135.004 149.976C136.209 153.95 137.777 159.225 138.487 161.699C142.102 174.306 146.348 177.246 170.623 183.95C175.899 185.407 186.677 185.417 190.762 183.968C192.501 183.352 195.453 182.848 197.321 182.848H200.719L204.025 185.038C207.192 187.136 208.692 189.089 207.812 189.97C207.585 190.197 206.846 189.991 206.17 189.512C202.193 186.699 199.372 185.738 195.096 185.738H190.612L185.494 188.933C182.68 190.69 179.417 193.133 178.245 194.362L176.113 196.595L177.162 197.574C181.064 201.218 190.156 200.714 195.804 196.538C197.924 194.971 201.516 194.325 201.759 195.468C202.003 196.622 195.592 200.628 190.212 202.684C174.537 208.673 162.329 223.54 156.932 243.211C155.353 248.968 155.904 252.705 157.582 247.619C158.491 244.868 160.945 241.367 161.966 241.367C162.312 241.367 161.96 242.803 161.184 244.558C156.121 256.002 157.668 271.311 164.567 278.056C166.309 279.759 167.734 281.466 167.734 281.849C167.734 283.046 165.85 282.613 164.483 281.101C162.648 279.074 162.715 279.027 158.492 285.411C153.551 292.88 140.465 306.181 135.054 309.233C128.08 313.166 126.832 315.348 125.157 326.531C124.718 329.465 123.281 334.341 121.965 337.367C118.355 345.666 116.447 355.618 116.442 366.17C116.439 370.923 116.151 370.928 127.713 365.958C143.979 358.964 146.57 356.835 143.918 352.64C142.946 351.103 134.719 351.156 124.025 352.768L122.58 352.985V348.651L125.109 347.757C126.625 347.222 129.194 347.03 131.524 347.279L135.41 347.694L137.827 346.392C140.579 344.91 141.384 343.479 140.239 342.099L139.45 341.149L146.421 340.673L142.996 339.091C137.771 336.678 134.351 330.307 138.754 331.188C142.57 331.951 144.281 328.618 141.735 325.381C139.883 323.027 140.416 322.281 143.95 322.281H146.813L148.371 318.862L154.26 317.043C157.866 315.929 160.148 314.841 160.148 314.237V313.251L154.958 313.239C144.356 313.216 149.139 311.029 161.292 310.344C171.968 309.742 174.663 308.446 167.71 307.259C165.997 306.967 164.473 306.359 164.323 305.908C163.84 304.458 170.267 302.53 173.921 303.031L177.218 303.482L176.368 300.803L178.978 300.379C184.256 299.522 185.022 296.896 181.129 293.003C177.268 289.143 175.304 281.386 177.464 278.53L178.524 277.128L178.547 279.866C178.578 283.584 180.709 287.484 184.273 290.347L187.24 292.729L187.224 296.126C187.191 303.402 181.422 322.278 176.25 332.034L174.718 334.924L174.486 360.21L171.12 367.908L172.697 375.241C174.738 384.724 174.553 384.625 181.23 379.8C184.337 377.556 188.586 374.577 190.671 373.18L194.464 370.641L194.453 368.315C194.447 367.036 194.172 365.564 193.843 365.045L193.243 364.1L188.429 365.217C185.781 365.831 181.952 367.175 179.921 368.205L176.227 370.077L174.597 368.44L176.403 367.01C179.281 364.73 183.042 362.979 186.065 362.511C189.225 362.022 191.712 360.142 191.435 358.452C191.332 357.829 191.5 356.921 191.806 356.432C192.387 355.508 191.329 352.998 189.654 351.322C189.094 350.763 188.862 349.643 189.104 348.677C189.335 347.756 189.173 346.785 188.743 346.519C188.313 346.254 187.962 345.244 187.962 344.273C187.962 343.188 187.546 342.51 186.879 342.51C183.479 342.51 189.151 334.384 194.432 331.689C195.841 330.97 197.643 329.65 198.438 328.755L199.883 327.128L198.077 327.536C197.083 327.76 195.5 328.181 194.558 328.47L192.846 328.997L194.097 327.087C194.786 326.036 197.252 324.021 199.579 322.608L203.809 320.038L205.264 314.768L202.939 312.199L209.35 309.451L211.951 304.126C216.186 295.459 216.688 294.022 217.591 287.965C218.51 281.809 219.565 278.91 220.397 280.256C221.389 281.861 219.36 293.695 217.248 298.621C216.139 301.207 218.161 299.766 220.54 296.274C222.712 293.088 224.085 291.842 224.085 293.058C224.085 294.221 221.512 298.096 218.313 301.753C213.913 306.781 213.877 307.297 217.763 309.556C227.607 315.278 246.336 320.515 259.805 321.31L267.071 321.739L274.295 320.258C278.269 319.444 282.419 318.434 283.517 318.014L285.515 317.252L285.098 314.167C284.868 312.471 284.537 310.372 284.361 309.502C283.905 307.237 285.366 306.681 286.176 308.813C286.55 309.796 287.26 312.66 287.752 315.177C288.245 317.694 289.252 320.438 289.99 321.275C293.545 325.31 310.102 332.258 321.977 334.699C328.626 336.065 339.231 334.092 344.292 330.548C345.86 329.449 351.959 329.089 351.959 330.095C351.959 330.707 344.876 334.161 342.025 334.939C339.576 335.608 340.057 336.498 343.47 337.612L346.541 338.614L348.459 342.549C349.514 344.713 350.924 348.28 351.591 350.476L352.806 354.468L352.648 364.563C352.552 370.718 352.893 377.056 353.522 380.8L354.554 386.941L356.188 387.177C358.057 387.447 359.763 386.436 366.589 381.006C371.815 376.848 372.332 375.595 370.032 372.67C367.964 370.042 365.399 369.626 361.824 371.339C360.173 372.13 357.929 373.112 356.836 373.52L354.849 374.262V372.934C354.849 370.899 358.279 367.919 362.228 366.523L365.781 365.267L365.144 361.912L368.766 360.534L367.522 359.16C366.782 358.342 366.456 357.225 366.717 356.402C366.985 355.56 366.586 354.295 365.699 353.165C363.963 350.959 363.855 349.837 365.324 349.273C367.003 348.629 366.607 346.846 364.783 346.834C363.889 346.827 362.71 346.539 362.164 346.193L361.17 345.564L361.98 328.487L360.805 326.498C360.16 325.404 358.7 324.124 357.564 323.654L355.496 322.797L349.796 324.506L343.694 322.862L346.104 321.849C347.428 321.292 348.963 320.836 349.514 320.836C350.064 320.836 350.514 320.531 350.514 320.158C350.514 319.063 344.105 318.394 342.15 319.285C340.407 320.08 339.646 319.22 341.228 318.243C341.745 317.923 341.181 317.279 339.722 316.525L337.389 315.318L337.197 311.75C337.092 309.787 336.47 307.146 335.815 305.88C333.553 301.506 337.581 302.187 340.335 306.644C341.166 307.987 341.845 309.942 341.845 310.988C341.845 312.806 343.448 313.665 344.291 312.3C344.492 311.975 344.75 305.229 344.867 297.309L345.078 282.908L343.071 278.603C341.967 276.236 340.265 273.251 339.287 271.969C337.446 269.554 337.027 268.097 338.173 268.097C339.911 268.097 341.239 269.237 343.369 272.556L345.684 276.163L348.28 275.682C352.101 274.974 355.052 272.883 356.918 269.562C358.963 265.923 358.778 265.327 355.185 263.992C348.59 261.541 346.019 261.414 338.101 263.144L334.718 263.883L329.662 260.931C319.031 254.722 305.04 250.788 293.526 250.771C275.891 250.744 266.62 248.137 249.611 238.42L246.599 236.7L243.278 237.589C236.384 239.433 232.186 238.066 228.893 232.904C226.58 229.28 224.284 227.229 221.004 225.858C218.619 224.862 217.202 222.583 218.968 222.583C222.441 222.583 228.589 227.094 231.586 231.841L233.457 234.803L236.329 235.577C239.986 236.561 242.07 236.023 245.019 233.329L247.376 231.176L246.926 228.365C246.679 226.818 244.637 221.92 242.388 217.48L238.3 209.407L235.857 208.387C232.845 207.128 232.272 205.774 233.414 202.618L234.297 200.173L232.081 196.299C228.875 190.695 229.98 188.052 233.477 192.962C235.386 195.643 236.297 195.651 243.361 193.049C251.003 190.234 255.191 189.521 267.071 189.013C272.634 188.775 279.136 188.144 281.52 187.611C285.846 186.643 293.869 184.978 301.387 183.489C321.39 179.527 348.556 167.739 358.28 158.804C360.218 157.024 360.409 155.772 358.642 156.441C356.018 157.435 337.741 168.079 334.739 170.362C331.203 173.051 329.27 172.838 331.857 170.045L333.536 168.23L331.188 168.733C327.688 169.483 328.305 168.433 333.717 164.434C338.143 161.163 352.702 147.852 353.283 146.545C354.173 144.542 349.969 146.768 345.096 150.879C341.917 153.562 338.046 156.731 336.494 157.923C324.474 167.155 324.358 167.213 323.911 164.162C323.552 161.723 326.814 156.819 332.571 151.141L337.782 146.003H336.166C333.867 146.003 327.95 150.027 321.377 156.061C314.932 161.978 313.977 162.126 314.157 157.183L314.285 153.706L316.533 150.517C318.771 147.342 318.353 147.097 315.331 149.814C313.477 151.482 311.279 151.036 312.007 149.14C312.271 148.45 314.785 145.564 317.593 142.724C323.047 137.211 329.563 126.265 329.563 122.616C329.563 119.351 328.3 120.505 325.12 126.677ZM180.015 153.686C171.355 160.917 165.759 167.676 168.432 167.676C168.817 167.676 171.662 164.995 174.754 161.716C177.846 158.438 181.609 154.537 183.116 153.047C186.958 149.247 184.799 149.692 180.015 153.686ZM240.935 197.087C237.807 197.487 237.221 198.506 237.734 202.645L238.173 206.187L241.062 207.223C243.098 207.952 245.767 208.148 250.093 207.887C260.689 207.249 261.064 206.424 253.159 201.153C247.479 197.367 245.054 196.561 240.935 197.087ZM209.636 201.303C209.636 204.032 212.649 206.689 215.744 206.689H218.305V205.32C218.305 203.009 214.413 199.464 211.875 199.464H209.636V201.303ZM206.746 221.782V224.713L211.177 227.004L210.679 229.309C209.437 235.064 205.373 239.796 195.187 247.348C192.207 249.557 189.029 252.285 188.127 253.41C187.224 254.534 185.083 257.112 183.37 259.137C181.636 261.186 179.692 264.538 178.987 266.691C178.291 268.82 177.262 271.218 176.701 272.019C175.485 273.755 175.338 277.001 176.492 276.616C177.74 276.2 180.738 270.156 180.738 268.055C180.738 266.825 182.096 264.615 184.698 261.61C186.876 259.095 188.836 256.477 189.053 255.792C189.451 254.538 193.408 251.387 201.271 246.062C203.694 244.421 207.406 240.831 209.86 237.754C212.237 234.774 214.622 232.363 215.16 232.396C215.698 232.429 217.113 232.511 218.305 232.576C220.913 232.722 221.103 234.045 219.083 238.006L217.694 240.732L218.757 241.14C220.756 241.907 221.998 239.159 221.656 234.721L221.339 230.605L219.007 227.358C217.724 225.572 216.23 223.94 215.684 223.731C214.232 223.174 214.452 225.499 215.956 226.598C216.651 227.106 216.972 227.769 216.671 228.07C215.775 228.966 213.409 225.865 212.549 222.667C211.587 219.096 210.545 218.819 210.195 222.041L209.94 224.389L209.213 221.909C208.148 218.278 206.746 218.206 206.746 221.782ZM276.824 322.167C276.228 322.512 273.709 323.21 271.225 323.72C268.742 324.229 266.71 324.915 266.71 325.243C266.71 325.572 268.742 327.535 271.225 329.605C277.868 335.144 285.97 338.691 295.73 340.332C301.444 341.293 304.181 342.093 305.185 343.096L306.596 344.508L306.13 346.631C305.364 350.119 302.03 353.42 291.509 361.104C282.044 368.015 270.266 378.817 271.187 379.739C271.715 380.267 278.88 381.229 286.682 381.82L292.565 382.266L295.585 378.659C299.282 374.244 299.052 372.976 294.135 370.673C288.355 367.965 291.24 365.761 297.456 368.135L300.564 369.322L303.475 367.836C305.077 367.019 307.41 366.351 308.662 366.351H310.936L310.177 363.1L318.137 358.043L316.579 357.806C313.945 357.405 305.427 360.384 303.578 362.353C301.526 364.537 299.942 364.721 299.942 362.775C299.942 360.311 304.51 357.648 312.031 355.728L319.087 353.925L321.859 351.288C324.089 349.166 326.774 345.101 328.702 340.926C328.829 340.65 327.693 340.222 326.178 339.973C324.662 339.723 320.334 338.578 316.559 337.427L309.696 335.334L303.809 335.398C297.551 335.466 294.57 334.657 297.782 333.762C298.772 333.487 300.99 333.23 302.712 333.19C307.022 333.091 306.282 331.93 300.653 329.962C298.076 329.061 293.368 326.985 290.189 325.348C284.345 322.339 278.809 321.021 276.824 322.167ZM236.139 389.851C231.978 390.758 230.033 391.637 232.184 391.637C232.798 391.637 233.704 392.124 234.199 392.72C234.694 393.316 236 393.804 237.1 393.804C238.213 393.804 239.287 393.323 239.518 392.72C240.14 391.098 241.55 391.437 243.82 393.752C245.077 395.034 245.56 396.009 245.084 396.303C244.078 396.924 242.869 396.153 242.869 394.89C242.869 393.558 239.863 393.798 238.738 395.221C237.556 396.713 237.595 397.416 238.859 397.416C239.436 397.416 240.238 397.986 240.644 398.681C241.068 399.408 241.389 399.555 241.402 399.028C241.424 398.077 244.655 398.484 246.12 399.622C246.517 399.93 253.832 400.162 262.375 400.137L277.908 400.092L282.109 395.101L287.661 395.989V394.588C287.661 393.817 288.873 392.188 290.354 390.967L293.047 388.747H274.798L274.042 390.914C273.121 393.558 271.543 393.865 272.192 391.275C272.472 390.163 272.338 389.469 271.845 389.469C271.405 389.469 271.044 390.12 271.044 390.914C271.044 391.709 270.713 392.359 270.308 392.359C269.883 392.359 269.764 391.595 270.025 390.553L270.479 388.747H256.027L255.126 391.095L249.343 390.17L247.867 394.054L245.521 391.709L247.38 389.47L245.212 389.904C243.949 390.156 242.838 390.005 242.552 389.542C241.982 388.62 241.729 388.632 236.139 389.851ZM296.108 389.214C294.405 389.706 294.84 391.914 296.699 392.211C299.51 392.66 302.11 393.995 302.11 394.989C302.11 395.724 302.649 395.87 304.097 395.522C305.19 395.26 305.842 395.305 305.548 395.622C305.253 395.94 305.371 396.632 305.809 397.16C306.247 397.688 306.401 398.654 306.151 399.306L305.696 400.492L307.967 400.038C309.216 399.788 310.665 399.584 311.187 399.584C311.762 399.584 312.225 398.519 312.361 396.88L312.585 394.175L316.566 392.277L315.063 389.469L309.851 389.463C306.984 389.46 303.013 389.317 301.026 389.146C299.039 388.975 296.827 389.005 296.108 389.214ZM318.027 390.025C318.082 391.299 320.029 393.147 320.338 392.219C320.56 391.554 321.424 391.869 323.305 393.305L325.959 395.328L325.235 396.682C324.837 397.426 324.71 398.553 324.954 399.188L325.397 400.343L326.396 399.514C326.946 399.058 327.406 398.155 327.419 397.509C327.453 395.739 329.185 393.804 330.733 393.804C331.488 393.804 332.494 393.181 332.969 392.421L333.833 391.038L332.962 390.33C331.959 389.514 317.992 389.229 318.027 390.025ZM335.61 390.536C335.028 392.053 335.999 393.2 337.469 392.733C339.544 392.075 341.09 393.075 342.613 396.06C344.027 398.833 346.179 399.869 346.179 397.778C346.179 396.146 347.399 396.476 347.858 398.233C348.098 399.151 348.657 399.619 349.245 399.394C349.786 399.186 351.349 399.527 352.719 400.15C356.099 401.689 357.945 401.822 358.908 400.596L359.716 399.568L360.622 400.659C361.287 401.461 363.012 401.751 367.119 401.751H372.71L372.019 398.139H373.458C374.249 398.139 376.288 398.63 377.989 399.23C381.522 400.477 382.34 400.176 380.612 398.267C379.952 397.538 379.412 396.438 379.412 395.823C379.412 395.207 378.924 394.299 378.328 393.804C377.732 393.309 377.245 392.286 377.245 391.53V390.157L374.536 390.273C373.046 390.338 363.767 390.191 353.916 389.948L336.006 389.506L335.61 390.536Z" fill="#FBFDFD"/>
</svg>
