<svg width="300" height="279" viewBox="0 0 300 279" fill="none" xmlns="http://www.w3.org/2000/svg">
<path fill-rule="evenodd" clip-rule="evenodd" d="M201.37 1.59371C199.659 2.59143 197.792 6.08768 196.694 10.3492C194.709 18.05 191.257 22.8929 187.731 22.9214L185.96 22.9357L184.98 20.5906C183.623 17.3443 183.729 16.6405 185.873 14.6444C187.631 13.007 189.56 7.34502 188.664 6.4496C187.938 5.7238 185.942 6.14141 185.942 7.01936C185.942 7.52372 185.694 8.03327 185.391 8.1524C185.088 8.27088 184.116 9.6791 183.233 11.2815C181.45 14.5123 180.297 15.0193 177.43 13.8318C176.032 13.253 175.733 12.8846 176.349 12.5033C176.818 12.2139 177.25 11.31 177.308 10.4962C177.366 9.68168 177.764 7.78401 178.192 6.27869C179.194 2.75655 178.712 1.56976 176.281 1.56976H174.349L173.289 3.99771C172.706 5.3334 171.819 7.1987 171.316 8.14398C169.814 10.9714 170.141 11.8235 172.831 12.1051L175.259 12.3589L172.346 12.4716L169.432 12.5849L168.33 14.5227C167.723 15.589 166.809 16.4612 166.3 16.4612C165.256 16.4612 163.281 13.7613 163.281 12.333C163.281 11.8183 162.659 9.76844 161.897 7.77817C160.305 3.617 158.719 3.03105 157.167 6.03135L156.199 7.90314L157.167 13.6389C157.699 16.7939 158.281 20.5401 158.459 21.9645C158.636 23.3889 159.077 26.0376 159.438 27.8498C160.288 32.1269 160.295 42.7134 159.449 45.524C158.18 49.7389 154.575 51.8036 153.952 48.6719C153.793 47.8703 153.183 44.5929 152.597 41.388C151.055 32.9485 148.402 23.7787 146.944 21.8505C146.628 21.4316 146.439 20.7033 146.524 20.2319C146.609 19.7606 146.214 18.3549 145.646 17.1086C145.078 15.8623 144.262 13.8959 143.833 12.7383L143.053 10.6341H141.514C139.666 10.6341 139.589 11.479 140.915 17.2303C141.434 19.4783 142.122 23.0172 142.445 25.0949L143.032 28.8734L140.847 28.4636C137.853 27.9016 137.712 28.6345 139.291 36.5127C140.216 41.1291 140.621 45.6586 140.621 51.4061V59.6656L139.269 61.3846C134.828 67.0297 132.622 65.887 131.227 57.2182C130.015 49.6819 129.174 47.7195 127.442 48.3844C126.224 48.8519 126.124 50.3708 126.984 55.351C127.318 57.2862 127.784 60.9793 128.021 63.5587L128.45 68.2476L127.412 68.6464C126.841 68.8653 125.678 68.8698 124.826 68.6561L123.279 68.2676L121.83 60.3312C121.032 55.9661 119.778 50.7923 119.042 48.8337C118.306 46.8752 117.651 44.9814 117.588 44.6253C117.525 44.2692 116.874 42.6668 116.142 41.0643C115.411 39.4619 114.717 37.5778 114.601 36.8779C114.485 36.178 113.601 35.1628 112.637 34.6215L110.884 33.6374L110.113 34.4085L109.342 35.1796L110.4 40.8733C112.082 49.9292 112.977 59.7122 112.591 64.82C112.206 69.9051 109.57 76.6742 107.975 76.6742C107.489 76.6742 106.94 77.0711 106.753 77.556C106.325 78.6722 97.7866 79.6026 96.1343 78.7136C94.809 78.0008 91.854 72.4146 90.774 68.581C88.8763 61.8469 86.7883 58.7728 84.666 59.5873C83.1186 60.181 83.0447 61.3496 83.9505 70.8924C84.978 81.712 84.7489 82.6197 80.5877 84.2092C75.9467 85.9819 74.6719 87.3273 74.1896 90.9654C73.6878 94.7497 72.8908 95.5513 71.9889 93.1797L71.3421 91.4788L69.8859 91.9223C69.085 92.1664 67.9701 92.7685 67.4075 93.2606C65.8063 94.6623 65.0145 94.3477 63.1835 91.5805L61.4794 89.0062L59.1654 88.5717C57.8932 88.3328 56.1062 88.4099 55.1953 88.7433C54.2843 89.0761 52.6644 89.1532 51.5961 88.9149C50.5278 88.6766 46.1575 88.461 41.8843 88.4358L34.1149 88.3905L31.8488 89.5138L29.5827 90.6365L29.6682 93.1725L29.7537 95.7092L31.9343 97.5474C33.1333 98.5587 34.8433 100.034 35.7335 100.827C36.6238 101.62 38.5622 102.806 40.0417 103.462L42.7305 104.655L45.8687 104.238C54.551 103.084 56.777 104.03 52.2474 106.948L49.9775 108.411V110.268C49.9775 111.29 50.4022 112.478 50.9214 112.909L51.8648 113.692L50.274 116.212C49.3986 117.598 48.6825 118.934 48.6825 119.18C48.6825 120.09 44.4689 128.265 42.1258 131.901L39.7069 135.656L39.6791 141.541C39.6318 151.446 41.8966 153.179 54.024 152.522L55.8045 152.426V150.84C55.8045 149.967 56.2208 149.02 56.7304 148.735C58.0622 147.99 59.6808 144.624 59.6853 142.591C59.6905 140.33 60.617 139.815 62.9446 140.78L64.8274 141.559L70.345 138.576C75.8321 135.609 78.0244 135.002 78.7891 136.24C79.6424 137.621 80.5501 136.853 80.1293 135.107C79.893 134.128 79.5841 131.287 79.443 128.794C78.8939 119.126 78.6032 117.15 77.7188 117.081C77.239 117.044 75.3168 116.969 73.4476 116.915L70.0485 116.816V115.626C70.0485 113.744 72.9264 112.827 77.2805 113.319L81.1127 113.752L84.0069 112.265C85.5983 111.446 87.2234 110.387 87.6177 109.912C89.4856 107.661 93.5794 110.318 96.2748 115.53C96.8245 116.593 97.5587 117.464 97.9057 117.464C98.2527 117.464 98.5363 117.771 98.5363 118.145C98.5363 118.52 99.2647 119.899 100.155 121.209C102.134 124.121 102.304 126.528 100.532 126.528C99.8487 126.528 98.8342 126.703 98.2774 126.916C97.2492 127.311 92.0618 122.57 92.0618 121.236C92.0618 120.876 91.4791 119.84 90.7669 118.935C90.0547 118.03 89.472 116.792 89.472 116.186C89.472 115.139 86.4063 113.192 85.7666 113.831C85.057 114.54 85.2364 121.159 86.0729 125.131C86.5721 127.502 87.2247 133.548 87.5232 138.567C87.8216 143.586 88.4206 150.578 88.8537 154.106C89.9052 162.665 89.9188 162.765 90.4244 165.411L90.864 167.713L89.1664 168.486C86.7462 169.589 84.6595 169.444 83.4319 168.087L82.3708 166.915L81.9985 159.832C81.004 140.916 80.5417 137.789 78.9723 139.358C78.5508 139.78 77.6547 140.124 76.9814 140.124C76.3074 140.124 75.0468 140.683 74.1792 141.365C73.3123 142.047 70.9355 143.099 68.8973 143.703L65.1926 144.8L62.4409 147.786C59.1985 151.305 58.9835 152.426 61.5526 152.426C63.8018 152.426 64.606 153.318 65.0566 156.311C66.0317 162.79 67.6937 165.703 74.2918 172.497L78.3786 176.705L77.8535 181.363C77.498 184.516 76.6013 187.547 75.0766 190.751C71.8251 197.583 70.0485 201.561 70.0485 202.011C70.0485 202.227 69.5104 203.177 68.8526 204.122C68.1948 205.068 67.2573 207.225 66.7691 208.916C66.2803 210.607 65.6536 211.992 65.3752 211.992C65.0968 211.992 64.8688 212.72 64.8688 213.61C64.8688 214.5 64.6131 215.229 64.2997 215.229C63.3033 215.229 62.4364 218.604 61.7229 225.264C61.023 231.791 57.7572 250.523 56.5128 255.144C56.1438 256.515 55.822 257.851 55.7974 258.113C55.6297 259.925 53.5572 264.212 51.0205 267.994C46.7648 274.34 46.8004 274.441 53.6258 275.409L58.0706 276.039L58.7808 275.255C59.1713 274.824 60.1496 272.286 60.955 269.615C61.7611 266.944 62.7957 264.361 63.2554 263.876L64.0913 262.993L67.2923 264.056C69.0533 264.641 70.9711 264.936 71.5544 264.713L72.6143 264.306L71.9364 263.039C71.1044 261.483 70.9355 252.642 71.6302 246.954C71.9131 244.639 72.2329 241.871 72.3411 240.803C72.4498 239.735 72.6052 238.715 72.6868 238.537C72.9439 237.978 73.1329 236.964 73.2313 235.624C73.2838 234.911 73.7001 233.837 74.1565 233.237L74.9859 232.146L77.7997 232.778C81.3847 233.583 81.8949 233.007 80.4388 229.797C78.6893 225.937 78.2802 224.293 79.0694 224.293C79.4495 224.293 79.7602 223.876 79.7602 223.367C79.7602 222.858 80.4154 222.348 81.217 222.234C82.2367 222.089 82.6103 221.661 82.4633 220.806C82.3079 219.907 82.53 219.692 83.3063 219.99C83.9246 220.227 84.1953 220.127 83.9616 219.749C83.7421 219.395 84.0185 218.93 84.5753 218.716C85.1315 218.502 85.5873 217.992 85.5873 217.581C85.5873 217.171 86.3157 216.049 87.2059 215.088C88.0962 214.129 88.8246 212.963 88.8246 212.499C88.8246 212.035 89.4183 211.285 90.1447 210.831C90.8705 210.378 91.3017 209.743 91.1023 209.421C90.9029 209.098 91.2253 208.562 91.819 208.23C92.4127 207.898 93.9627 206.08 95.2635 204.19C96.8756 201.849 98.3253 200.521 99.8189 200.018L102.011 199.28L99.7879 197.142C98.5655 195.966 96.2767 193.946 94.7015 192.653C89.6876 188.537 79.7525 178.405 80.3611 178.029C81.4281 177.37 89.1094 179.54 89.9233 180.731C92.9974 185.228 94.9384 187.425 99.3897 191.448C104.521 196.084 106.561 199.188 108.215 204.87C108.682 206.472 109.445 208.949 109.91 210.373C110.376 211.797 111.816 216.459 113.11 220.732C115.977 230.2 117.784 235.641 118.913 238.213C119.942 240.557 120.851 244.383 120.644 245.497C120.561 245.943 120.724 246.309 121.007 246.312C121.29 246.314 121.593 248.281 121.681 250.682C121.769 253.083 121.995 256.279 122.183 257.786L122.525 260.524L120.914 262.965C118.827 266.128 118.056 267.011 115.648 268.994L113.66 270.631L108.526 270.528C104.042 270.438 85.5808 270.266 79.1128 270.253C77.8664 270.251 75.0261 270.096 72.8001 269.91C70.0562 269.68 68.7535 269.803 68.7535 270.291C68.7535 270.752 68.0672 270.862 66.85 270.594L64.9465 270.176L63.941 272.12L62.9362 274.064L63.9488 275.077L64.9614 276.089H81.9428C94.48 276.089 99.1326 275.882 99.7179 275.296L100.511 274.503L101.765 275.286C103.069 276.1 129.948 277.065 131.778 276.363L132.714 276.003L132.792 270.436C132.889 263.556 133.27 263.03 137.971 263.275L141.592 263.464L141.782 261.831C141.887 260.933 141.471 259.039 140.857 257.623C140.243 256.206 139.629 254.326 139.492 253.445C139.354 252.564 138.982 251.528 138.663 251.145C138.346 250.762 138.236 249.869 138.421 249.163L138.757 247.879L136.29 246.624L133.822 245.37L135.927 245.15C138.311 244.9 138.441 244.591 137.022 242.565C136.467 241.772 136.193 240.834 136.413 240.478C136.632 240.123 136.577 239.832 136.289 239.832C134.984 239.832 135.824 236.639 137.222 236.289C138.023 236.087 138.678 235.517 138.678 235.021C138.678 233.626 135.971 226.883 135.41 226.883C135.135 226.883 135.407 225.791 136.013 224.455C137.109 222.039 137.347 217.388 136.448 215.935C136.189 215.515 136.332 214.745 136.765 214.223C137.631 213.179 138.853 207.961 138.759 205.711C138.725 204.927 138.985 204.109 139.336 203.893C139.686 203.676 139.973 202.519 139.973 201.324V199.148L142.523 196.494C143.925 195.035 145.244 193.336 145.453 192.719C145.966 191.204 148.879 189.157 149.753 189.697C150.193 189.969 150.301 191.17 150.04 192.906L149.624 195.681L152.73 196.679C168.459 201.731 193.701 202.736 209.089 198.923C211.901 198.227 212.386 197.386 211.226 195.22C210.354 193.592 211.118 191.273 212.525 191.273C213.81 191.273 214.735 192.332 214.787 193.863C214.906 197.34 216.048 200.96 217.559 202.651C220.398 205.83 232.132 212.979 233.312 212.25C233.61 212.066 233.854 212.37 233.854 212.925C233.854 213.479 234.165 213.934 234.547 213.934C235.453 213.934 240.164 217.189 242.737 219.592L244.766 221.487L244.462 224.347C243.873 229.869 242.821 234.781 240.895 241.001C238.17 249.798 235.795 256.781 235.057 258.171C234.712 258.821 234.293 260.415 234.127 261.714C233.961 263.013 233.54 264.361 233.192 264.708C232.844 265.057 232.554 266.085 232.549 266.993C232.543 267.901 232.262 269.081 231.925 269.615L231.311 270.586L205.227 270.733C190.882 270.814 178.707 270.861 178.173 270.838C177.639 270.814 168.258 270.665 157.327 270.506L137.453 270.218L136.831 271.38C136.489 272.019 136.356 273.311 136.536 274.252L136.862 275.961L139.686 276.385C141.238 276.618 153.811 276.787 167.625 276.76C181.439 276.734 201.335 276.881 211.84 277.086C222.345 277.291 239.061 277.6 248.987 277.773L267.034 278.087L268.156 277.072L269.278 276.057L270.039 276.974L270.801 277.891L284.582 277.977L298.363 278.063L299.182 276.533L300 275.004L299.253 272.148C298.842 270.576 298.032 268.926 297.454 268.479L296.402 267.668L297.177 266.893C298.198 265.872 298.174 260.397 297.142 259.304L296.333 258.446L297.142 258.15C298.283 257.731 298.151 253.753 296.964 252.767L295.977 251.948L296.992 250.826L298.007 249.704L296.936 249.293L295.863 248.881L296.663 247.917L297.463 246.954L296.657 245.983L295.85 245.012L296.609 244.098L297.367 243.185L296.605 242.714C296.06 242.377 296.148 242.072 296.911 241.645C297.498 241.316 297.802 240.761 297.586 240.412C297.37 240.062 297.077 237.531 296.936 234.786C296.513 226.562 295.694 216.493 295.029 211.344C294.914 210.454 294.796 208.804 294.767 207.678C294.714 205.629 291.949 201.825 285.879 195.452C284.506 194.011 281.82 190.514 279.907 187.682L276.431 182.533L276.464 177.148C276.483 174.187 276.756 171.419 277.072 170.998C277.388 170.576 278.033 168.92 278.505 167.317C278.976 165.715 279.722 163.238 280.161 161.814C280.601 160.39 281.316 156.274 281.75 152.669L282.538 146.115L281.772 142.421C280.894 138.192 281.001 137.963 283.815 138.044C284.953 138.076 286.829 137.707 287.985 137.224L290.087 136.346L290.539 133.329C291.118 129.466 290.152 127.175 287.943 127.175C285.011 127.175 276.9 123.724 271.34 120.112C267.699 117.746 262.8 115.175 259.914 114.114C259.113 113.82 257.801 113.296 257 112.95C252.054 110.813 232.162 109.633 223.171 110.943C209.791 112.893 204.143 113.589 196.949 114.175C187.327 114.96 173.577 115.198 170.403 114.635C169.157 114.413 166.535 114.113 164.576 113.967C156.143 113.341 147.519 110.795 137.06 105.844C131.19 103.066 128.605 102.209 124.434 101.659L121.521 101.274L118.738 103.868C117.208 105.295 114.791 107.056 113.366 107.783L110.777 109.104L106.761 108.678C102.557 108.231 94.8905 106.073 94.3395 105.181C93.6215 104.019 95.9504 103.08 98.3654 103.558C105.309 104.93 110.724 104.062 116.179 100.702C124.686 95.4632 107.099 93.4296 97.7879 98.5755L94.7733 100.242L93.808 99.4405C91.439 97.4748 94.4159 94.9524 100.832 93.4878C103.893 92.7892 117.977 93.0916 120.743 93.9158C122.085 94.3153 123.787 93.1259 123.787 91.787C123.787 91.2839 122.403 90.2635 120.712 89.5196L117.636 88.1664L105.982 88.0855C91.9673 87.9884 88.7469 88.6041 82.6168 92.5568C80.1552 94.1431 77.4657 95.4438 76.6395 95.4457L75.1381 95.4503L75.3446 94.0725C75.5777 92.5231 80.4472 89.6251 86.2347 87.5921C89.9492 86.2875 93.4661 85.8453 103.634 85.4057C107.21 85.251 111.333 84.6184 113.67 83.8654C115.851 83.1623 122.152 81.3798 127.672 79.9037C138.643 76.9694 146.006 74.5175 153.145 71.4207C155.693 70.3149 158.798 68.9876 160.044 68.4709C161.291 67.9536 163.135 67.1113 164.143 66.5992C165.151 66.0864 166.272 65.6675 166.633 65.6675C166.995 65.6675 168.064 65.1275 169.009 64.4671C169.954 63.8067 171.555 63.066 172.568 62.8213C173.58 62.5759 175.815 61.6967 177.534 60.8673C179.254 60.0372 181.413 59.1703 182.331 58.9398C183.249 58.7093 184 58.058 184 57.4928C184 56.833 184.357 56.6019 184.996 56.8473C188.684 58.2619 219.741 41.6768 222.024 37.0734C227.23 26.5718 227.727 17.6279 222.775 23.5598C220.854 25.8608 218.962 25.9016 218.962 23.6414C218.962 19.0192 215.831 22.2125 212.829 29.8977C209.778 37.7066 208.294 39.7396 203.256 43.0132C197.811 46.5521 195.457 46.2737 198.203 42.4168C198.938 41.3848 199.539 40.3962 199.539 40.2194C199.539 40.0426 200.704 37.3991 202.129 34.3444C203.553 31.2897 204.718 28.6747 204.718 28.5323C204.718 28.3898 205.219 27.1454 205.831 25.7663C206.443 24.3873 206.977 22.968 207.018 22.6119C207.058 22.2558 207.399 21.2361 207.776 20.3459C209.295 16.7609 210.472 13.4518 210.847 11.7192L211.241 9.89017L209.774 10.1006C208.71 10.2527 207.589 11.6104 205.703 15.0283C202.177 21.418 198.37 22.7492 200.202 16.9506C200.682 15.4349 201.097 14.0494 201.126 13.8713C201.154 13.6933 201.354 13.2563 201.57 12.9002C201.787 12.5441 202.175 10.7959 202.434 9.01546C202.693 7.23496 203.152 5.31526 203.454 4.75004C204.022 3.68886 203.59 0.90677 202.862 0.941733C202.637 0.952739 201.965 1.24603 201.37 1.59371ZM31.3814 9.85844C30.6128 10.3499 24.7268 23.1765 24.7268 24.3594C24.7268 26.2047 21.9862 30.7051 20.8629 30.7051C18.7586 30.7051 17.9014 28.6248 18.0244 23.8188C18.0872 21.3747 17.8975 19.0833 17.6029 18.7272C17.3083 18.3711 17.0248 17.7884 16.9717 17.4323C16.9192 17.0762 16.3119 16.8542 15.6217 16.939C14.894 17.0283 14.3676 16.7046 14.3676 16.1679C14.3676 14.9254 13.1148 14.2177 12.3204 15.0122C11.9688 15.3637 11.3926 20.8593 11.0403 27.225C10.6881 33.5901 10.119 39.0831 9.77587 39.4314C8.62147 40.6027 6.98472 38.7672 6.29712 35.5292L5.62701 32.3729L3.90803 31.4082L2.18969 30.4442L1.09485 31.3525L0 32.2609L0.401417 34.7737C1.18807 39.6904 7.97272 50.7211 15.8911 59.9557C20.4135 65.2305 38.5927 81.8512 39.8468 81.8577C40.2553 81.8603 41.4175 82.294 42.4301 82.8217C43.4421 83.3494 45.6272 84.1801 47.286 84.6676L50.3012 85.5533L54.2597 84.8897L58.2189 84.226L61.1874 85.0574C62.8203 85.5145 64.6532 86.4377 65.2606 87.1085C66.5865 88.5737 68.3126 88.6766 69.6211 87.3688C71.5972 85.3921 68.4402 81.2225 64.9433 81.1908C63.3596 81.1766 55.5106 79.2614 53.1066 78.3025C51.1811 77.534 48.6903 72.9027 47.4427 67.7704C45.9082 61.459 45.5864 60.6808 44.309 60.1907C42.4936 59.494 41.2634 61.4998 41.4453 64.8601C41.8934 73.1423 41.8539 74.3045 41.1184 74.5525C40.6975 74.6943 37.0148 71.5153 32.9346 67.4875L25.5167 60.1641L23.5038 55.8942C22.1241 52.9684 21.5245 50.7696 21.5977 48.9076L21.7039 46.1902L22.7042 46.3831C23.2539 46.4887 23.8923 47.4968 24.1228 48.6227C24.7721 51.7978 27.8113 56.4905 29.9252 57.5841C30.9767 58.1279 32.3098 59.2946 32.8886 60.1777C34.2457 62.2496 34.5584 62.2036 36.0275 59.7161C36.6995 58.5792 41.3508 53.5349 46.3647 48.5061C51.3785 43.4774 56.6462 37.974 58.0706 36.2777C59.495 34.5807 61.9715 31.7339 63.5739 29.9508C65.1764 28.1677 66.9556 25.8693 67.5286 24.8424C68.1009 23.8156 69.2968 22.0202 70.1864 20.8515C74.0148 15.8234 75.5719 10.974 73.601 10.2178C72.2006 9.68039 70.8694 10.9876 67.5719 16.1374C64.5878 20.7978 54.3316 31.3525 52.7867 31.3525C51.3869 31.3525 51.754 28.395 54.2545 19.543C56.5659 11.3579 56.6999 9.33918 54.933 9.33918C53.3999 9.33918 47.2407 23.9638 43.8364 35.6892C42.7435 39.4515 41.3268 41.1181 40.2113 39.9526C39.6771 39.3939 40.4618 30.6222 41.4227 26.4209C42.0759 23.5618 41.4829 21.6408 39.9465 21.6408C38.8562 21.6408 36.9404 24.2118 37.435 25.012C37.6286 25.3254 37.4693 25.9657 37.0802 26.4345C36.6911 26.9032 35.8928 29.8763 35.3062 33.0424C33.9996 40.0886 31.7983 42.2854 29.0674 39.2683L28.0275 38.1191L28.5889 35.5454C28.8971 34.1295 29.4901 31.0774 29.9064 28.7627C31.3716 20.6081 31.9699 18.072 32.6096 17.299C32.9644 16.8691 33.0557 16.1957 32.8122 15.8014C32.5688 15.4071 32.8006 14.5933 33.3276 13.9924C34.5798 12.5648 35.3567 9.98663 34.5351 9.98663C34.1842 9.98663 33.5089 9.84419 33.0349 9.67002C32.5604 9.49521 31.8164 9.58068 31.3814 9.85844ZM35.8954 94.3263C33.4176 95.4736 34.2204 95.8633 40.6988 96.6597C44.142 97.0825 48.2358 97.9934 49.7962 98.6836L52.6339 99.9391L55.0049 97.7655L57.3765 95.5927L56.5109 94.5503C55.2522 93.034 51.8835 93.1829 51.4679 94.773L51.137 96.0388L49.5747 95.0152C47.7029 93.7889 38.0999 93.3053 35.8954 94.3263ZM135.279 113.185C133.851 114.27 133.854 114.957 135.292 116.532C135.922 117.223 137.572 119.973 138.959 122.643C140.346 125.314 142.532 129.247 143.817 131.384C145.102 133.52 146.966 136.938 147.961 138.979C148.955 141.019 150.018 142.844 150.324 143.033C150.63 143.222 151.071 144.244 151.304 145.304C151.802 147.574 151.888 147.641 155.025 148.23L157.441 148.683L157.85 147.617C158.088 146.998 157.751 145.99 157.047 145.215C156.381 144.479 154.962 142.198 153.893 140.145C150.18 133.008 148.41 129.851 146.742 127.394C145.819 126.034 144.044 122.773 142.799 120.149C139.557 113.316 137.552 111.46 135.279 113.185ZM127.834 115.839C125.478 116.863 125.356 117.242 126.605 119.651C127.501 121.377 127.501 127.217 126.606 133.002C126.358 134.605 126.198 136.114 126.25 136.356C126.303 136.598 125.564 138.492 124.608 140.564C122.399 145.356 122.405 145.491 124.881 145.997L126.947 146.42L128.206 144.971C129.034 144.019 129.354 142.942 129.141 141.826C128.963 140.893 129.255 139.182 129.791 138.023C131.196 134.984 133.624 121.991 133.346 119.003C132.941 114.658 131.912 114.066 127.834 115.839ZM206.04 118.402C205.447 119.117 205.404 119.644 205.891 120.23C207.276 121.899 210.533 128.615 210.21 129.137C210.027 129.433 210.165 129.854 210.518 130.071C210.87 130.29 211.632 131.548 212.211 132.868C212.79 134.189 213.813 136.318 214.482 137.601C215.152 138.884 215.513 140.12 215.285 140.348C215.057 140.577 215.305 141.276 215.836 141.901C216.368 142.526 217.302 144.131 217.913 145.466C219.208 148.299 221.22 148.702 223.102 146.504L224.291 145.115L223.281 144.55C222.326 144.016 217.316 134.172 214.766 127.823C214.123 126.22 212.819 123.307 211.869 121.348L210.143 117.787L208.508 117.592C207.609 117.486 206.499 117.85 206.04 118.402ZM149.409 119.354C147.205 121.789 149.049 124.365 153.077 124.477L155.497 124.545L155.912 122.892C156.409 120.912 155.326 119.634 152.453 118.81L150.427 118.228L149.409 119.354ZM163.323 120.005C162.647 120.439 162.581 120.836 163.082 121.461C163.461 121.933 163.984 123.048 164.246 123.938C164.697 125.478 165.095 126.478 167.336 131.708C167.871 132.954 168.804 135.139 169.41 136.563C170.016 137.988 170.829 139.736 171.217 140.448C171.604 141.16 172.1 142.614 172.321 143.678L172.72 145.614L175.285 146.038C178.369 146.548 178.717 146.331 177.306 144.771C176.714 144.118 176.231 143.114 176.231 142.539C176.231 141.966 175.939 141.316 175.583 141.096C175.227 140.875 174.936 140.247 174.936 139.698C174.936 138.732 174.488 137.594 171.409 130.736C166.503 119.807 165.566 118.564 163.323 120.005ZM189.665 119.892C189.042 120.033 188.532 120.418 188.532 120.747C188.532 121.504 194.4 129.261 195.506 129.967C195.958 130.256 196.173 130.745 195.982 131.053C195.791 131.362 196.222 131.801 196.939 132.028C197.657 132.256 198.244 132.714 198.244 133.046C198.244 133.378 198.972 133.65 199.863 133.65C202.841 133.65 201.558 129.651 196.871 124.326C193.985 121.048 191.449 119.487 189.665 119.892ZM170.403 121.003C170.403 121.921 171.659 125.14 173.316 128.47C173.759 129.361 174.488 131.254 174.936 132.679C175.385 134.103 175.999 135.583 176.302 135.966C176.603 136.35 177.456 138.623 178.196 141.019C179.661 145.763 180.14 146.203 182.987 145.428C185.36 144.781 185.725 143.792 184.167 142.234C183.502 141.569 182.29 139.293 181.474 137.175C178.001 128.172 174.991 121.767 173.806 120.863C172.363 119.761 170.403 119.842 170.403 121.003ZM215.582 120.412C215.385 120.61 215.758 121.848 216.411 123.164C217.918 126.2 219.702 130.359 219.903 131.304C219.989 131.704 220.365 132.76 220.739 133.65C221.114 134.54 222.057 136.87 222.835 138.828C224.651 143.397 225.197 144.009 227.458 144.009C229.514 144.009 229.838 143.301 228.35 142.067C227.816 141.623 227.379 140.879 227.379 140.411C227.379 139.289 222.317 127.186 219.744 122.158C218.755 120.223 216.653 119.341 215.582 120.412ZM229.47 120.812C228.37 121.911 228.468 122.926 229.969 126.033C230.681 127.508 231.264 128.962 231.264 129.265C231.264 129.568 232.317 132.208 233.604 135.132C234.89 138.056 236.262 141.177 236.651 142.067C237.749 144.578 239.114 145.952 240.511 145.952H241.789L241.351 143.2C241.11 141.687 240.196 138.933 239.321 137.081C238.446 135.228 237.452 133.043 237.111 132.225C236.771 131.407 235.52 128.407 234.332 125.559C232.193 120.431 231.008 119.273 229.47 120.812ZM252.975 121.314C252.718 121.729 252.678 122.749 252.887 123.579L253.266 125.09L255.699 125.505C257.038 125.733 258.862 125.983 259.752 126.062L261.37 126.204V124.979C261.37 122.494 254.184 119.357 252.975 121.314ZM254.734 128.49C253.307 129.064 252.725 131.29 253.824 131.969C256.444 133.588 268.646 135.886 270.016 135.017L270.892 134.462L270.172 133.116C269.715 132.264 268.088 131.375 265.735 130.694C263.69 130.103 260.843 129.214 259.407 128.72C256.439 127.7 256.671 127.712 254.734 128.49ZM189.159 132.086C188.809 133.006 188.688 134.025 188.89 134.352C189.091 134.678 188.51 134.945 187.599 134.945C186.688 134.945 185.942 135.191 185.942 135.492C185.942 136.337 188.201 138.182 189.237 138.182C189.746 138.182 190.498 138.719 190.908 139.376C191.991 141.109 196.126 142.899 197.975 142.435C200.226 141.869 199.965 139.807 197.243 136.642C191.229 129.652 190.286 129.12 189.159 132.086ZM100.911 135.377C99.4978 136.789 104.131 146.873 106.738 148.061C109.483 149.312 109.917 147.839 107.998 143.781C107.067 141.814 106.306 139.94 106.306 139.617C106.306 136.685 102.552 133.735 100.911 135.377ZM255.517 137.15C253.128 138.897 254.73 140.251 265.774 145.821L276.653 151.309L278.305 150.556L279.958 149.803L279.012 148.363C278.49 147.571 277.513 146.629 276.839 146.27C276.165 145.911 272.188 143.777 268 141.529C259.103 136.752 257.048 136.031 255.517 137.15ZM253.729 211.85L252.685 213.004L254.825 215.25C256.002 216.484 259.049 219.47 261.596 221.885C266.608 226.638 266.812 227.199 264.931 231.091C264.243 232.516 263.671 233.923 263.659 234.218C263.633 234.853 260.724 242.551 259.458 245.335C258.269 247.951 256.469 254.976 255.437 261.036C255.028 263.436 253.919 263.696 250.393 262.223L248.197 261.306L247.096 262.111L245.994 262.917L248.374 266.501C251.583 271.334 252.111 271.495 266.083 271.879C272.749 272.062 279.417 272.37 280.898 272.563C283.79 272.94 284.374 272.531 284.336 270.158C284.195 261.375 283.648 253.357 283.09 251.888C282.712 250.895 282.576 249.803 282.787 249.461C282.999 249.119 282.881 248.488 282.526 248.059C281.952 247.363 280.738 242.123 279.535 235.14L279.118 232.715L270.891 224.39C263.293 216.701 256.439 210.697 255.262 210.697C254.993 210.697 254.303 211.216 253.729 211.85Z" fill="#FBFDFD"/>
</svg>
