<svg width="300" height="309" viewBox="0 0 300 309" fill="none" xmlns="http://www.w3.org/2000/svg">
<path fill-rule="evenodd" clip-rule="evenodd" d="M39.8899 1.02654C39.2879 1.39112 37.1012 1.48914 32.2856 1.36704C14.8232 0.924728 3.96211 1.1537 2.92455 1.98595C2.57602 2.26562 1.86333 2.62471 1.34032 2.78398C0.288814 3.10463 0.177704 3.52075 0.821957 4.72476C1.13542 5.31029 1.07712 5.95539 0.610727 7.07195C-0.193216 8.99626 -0.202088 10.4567 0.576085 12.6624C1.22921 14.514 1.41805 19.9021 1.11346 28.0121C1.06403 29.3289 0.898426 30.5312 0.745073 30.6846C0.592142 30.8375 0.635654 31.5514 0.842237 32.2709C1.08515 33.1188 1.05938 33.7698 0.76873 34.12C0.510607 34.4309 0.456106 35.0735 0.640721 35.6316C0.816887 36.1656 0.917433 37.1727 0.86378 37.8698C0.810128 38.5668 1.05389 39.8245 1.40496 40.6648L2.04371 42.1924L1.80925 47.0017C1.6804 49.6467 1.48311 53.0716 1.37116 54.6119C1.25625 56.1898 1.38468 58.1272 1.66562 59.0477C2.30226 61.1351 2.71501 71.0013 2.538 79.8911L2.45012 84.3139L3.11085 84.7967L3.77158 85.28L2.89962 86.3885L2.02766 87.4971L2.20045 90.3918C2.30691 92.1737 2.67318 93.7939 3.15267 94.6054L3.93127 95.9239L3.21689 96.7135C2.7336 97.2471 2.50209 98.2327 2.50209 99.7535V102.004L3.59964 103.443L4.69762 104.883L4.06646 105.595C3.43657 106.306 2.59123 109.746 2.4176 112.304C2.36268 113.113 2.62755 113.985 3.08086 114.486L3.83579 115.32L3.18098 116.319L2.52659 117.318L2.59545 121.454C2.63643 123.909 2.87174 125.874 3.17422 126.288L3.68371 126.985L2.88737 127.997C2.44928 128.554 2.18693 129.164 2.30353 129.353C2.42055 129.543 2.53799 134.648 2.56461 140.7L2.61319 151.703L3.19112 152.817C3.9714 154.321 3.92071 155.799 3.0779 156.122L2.38633 156.388L2.61996 158.963C2.74838 160.379 3.05931 161.743 3.31152 161.996C3.94521 162.629 3.88058 163.542 3.09776 165.03C2.62376 165.931 2.4366 167.433 2.45012 170.223L2.46956 174.148L3.33096 175.358C4.37317 176.822 4.37359 176.829 3.46361 177.739L2.7357 178.466L2.6322 182.099C2.57517 184.097 2.30226 186.156 2.02555 186.674L1.5224 187.617L2.271 189.278L3.0196 190.938L2.62375 192.126L2.22749 193.314L2.8823 194.454L3.53669 195.594L2.80795 196.399C1.84727 197.461 1.88782 198.404 2.93595 199.381C3.81889 200.204 3.72384 201.338 2.73951 201.716L2.19749 201.924L2.41126 207.117L2.62545 212.311L3.5143 213.064L4.40316 213.818L2.99552 215L1.58788 216.183L1.98626 219.334C2.2051 221.067 2.31747 225.304 2.23509 228.75C2.14553 232.512 2.25833 235.337 2.51772 235.822L2.94947 236.629L2.21988 237.743L1.48987 238.857L1.4679 249.319L1.44593 259.781L2.21819 260.636L2.99087 261.491L2.34535 262.477L1.70026 263.464L1.90641 279.517C2.02006 288.347 2.10497 297.852 2.09568 300.64L2.07794 305.71L2.83414 307.189C3.36137 308.219 3.84171 308.634 4.41921 308.558C4.87505 308.498 6.10356 308.488 7.14915 308.536C9.19978 308.63 15.3783 308.627 28.061 308.524C32.4757 308.488 37.3234 308.465 38.8337 308.473C40.344 308.481 42.4352 308.42 43.4808 308.339C44.5264 308.257 45.9522 308.348 46.6492 308.541C47.3531 308.736 50.0775 308.702 52.7749 308.464C55.447 308.23 62.693 307.93 68.8774 307.798L80.1212 307.559L82.6074 308.193L85.0932 308.828L87.1476 308.434C90.5657 307.78 96.7729 307.626 102.958 308.042C107.112 308.321 109.541 308.295 111.317 307.953C112.988 307.63 122.459 307.437 139.802 307.369C154.092 307.314 169.533 307.237 174.117 307.198C178.701 307.159 182.66 307.256 182.915 307.414C183.171 307.572 187.595 307.482 192.747 307.215C197.9 306.948 208.198 306.644 215.634 306.538C230.347 306.331 284.993 305.89 293.683 305.909L299.07 305.921L299.066 297.155C299.064 291.862 298.816 286.52 298.439 283.671L297.816 278.953L298.466 277.757L299.116 276.56L299.043 267.9C299.002 263.136 299.002 257.364 299.044 255.073L299.119 250.906L298.027 249.331L296.936 247.756L297.627 245.048C298.706 240.826 298.793 239.399 298.068 237.842C297.706 237.063 297.233 235.618 297.017 234.631L296.624 232.835L297.455 231.779C298.505 230.445 298.901 226.829 298.295 224.119C298.035 222.955 297.973 221.33 298.152 220.373L298.469 218.683L297.677 217.32L296.885 215.956L297.423 214.363C297.72 213.481 297.972 210.692 297.987 208.121C298.002 205.566 298.215 203.134 298.462 202.719C298.78 202.182 298.769 201.265 298.422 199.55C298.095 197.93 298.068 196.721 298.341 195.87C299.206 193.176 299.189 191.93 298.269 190.761C297.228 189.438 297.109 186.97 298.027 185.756C298.825 184.701 298.826 180.948 298.029 177.955C297.362 175.448 297.642 174.355 299.069 173.902C300.179 173.55 300.136 173.175 298.811 171.6L297.708 170.288L298.001 169.138C298.367 167.703 298.358 168.006 298.321 157.849C298.304 153.202 298.389 147.54 298.509 145.268C298.66 142.446 298.574 140.948 298.237 140.543C297.598 139.772 297.592 126.746 298.229 122.757C298.489 121.129 298.567 118.459 298.408 116.638C298.231 114.606 298.294 113.093 298.578 112.563L299.029 111.72L298.379 110.792L297.729 109.863L298.223 109.268C298.495 108.94 298.603 108.313 298.464 107.874C298.324 107.436 298.147 104.246 298.068 100.787L297.926 94.4968L296.914 94.2603C296.221 94.0985 295.861 93.6811 295.773 92.9392L295.646 91.8544L296.879 91.3436L298.112 90.8328L298.362 88.4316C298.5 87.111 298.405 85.3337 298.151 84.482L297.69 82.9337L298.802 80.9435C300.11 78.603 300.171 77.9313 299.175 76.8308C298.362 75.9326 298.319 74.8097 298.8 67.0196C298.957 64.4637 299.13 59.0955 299.184 55.0901L299.281 47.8082L298.521 48.049C297.657 48.3231 296.535 47.5568 296.535 46.6924C296.535 45.8513 297.945 42.7281 298.324 42.7281C298.93 42.7281 298.649 38.8993 297.967 37.8584C297.56 37.2369 297.411 36.5217 297.595 36.0777C297.764 35.6692 297.956 34.3481 298.02 33.1424C298.085 31.9363 298.444 30.3352 298.819 29.5836C300.302 26.6112 300.425 8.07657 298.98 5.3876C298.716 4.8967 298.384 3.92504 298.241 3.22798L297.981 1.9606L291.871 1.60193C285.284 1.21538 282.63 1.19045 261.048 1.31212C240.172 1.42957 232.393 1.30705 229.698 0.816999L227.286 0.378906L224.513 1.12962L221.74 1.87991L215.518 1.56222C212.096 1.38732 209.011 1.2627 208.663 1.28509C203.816 1.59813 196.251 1.61249 194.933 1.31043C193.866 1.06667 191.219 1.09625 187.751 1.39155L182.259 1.85963L178.246 1.3417C170.877 0.390316 169.849 0.361166 168.377 1.05949L166.991 1.71684L158.361 1.82499C153.614 1.88456 148.114 1.90061 146.139 1.86048C137.429 1.68431 105.625 1.98849 105.363 2.25041C105.204 2.4101 104.57 2.32476 103.955 2.06072C103.311 1.78443 98.5393 1.44055 92.6975 1.24876C87.121 1.06583 82.2733 0.891776 81.9247 0.861781C81.5762 0.831787 78.7246 0.939515 75.5878 1.10047C72.451 1.26143 68.3637 1.37676 66.5049 1.35649C52.2768 1.20144 42.2003 0.958944 41.5299 0.755741C41.0926 0.623088 40.3546 0.744759 39.8899 1.02654ZM174.689 5.65502C171.274 5.86878 169.328 6.18352 168.642 6.63344L167.63 7.29628L155.406 7.05971L143.182 6.82355V7.40316C143.182 7.72212 143.467 8.21936 143.815 8.50874C144.764 9.29621 144.59 10.0047 143.149 11.2171C141.537 12.5737 141.463 12.572 139.378 11.1491L137.676 9.98736L137.876 8.86235C138.291 6.53163 135.523 6.26717 129.663 8.07657C128.152 8.54297 126.114 8.92614 125.132 8.92783L123.347 8.9312L122.685 7.65072L122.023 6.37025L113.449 6.41376L104.874 6.45685L101.4 10.0444C98.8565 12.6717 97.9618 13.8795 98.0581 14.5558L98.1895 15.4793L99.6681 15.3416L101.147 15.2035L98.9288 17.467C97.7091 18.712 96.7109 19.9511 96.7109 20.2202C96.7109 21.5112 94.8199 21.229 94.4684 19.886C94.1993 18.8565 92.5547 18.8012 92.199 19.8096C92.0553 20.2164 91.6143 20.9291 91.2189 21.3938C90.8234 21.8585 90.2506 23.1635 89.946 24.2944C89.6414 25.4249 88.6718 27.2605 87.7919 28.3737L86.192 30.3977L84.481 29.9634C83.5398 29.7243 82.7696 29.3863 82.7696 29.2114C82.7696 28.2478 84.9787 24.2006 87.7982 19.9984C93.0236 12.2112 95.3924 8.34441 95.4185 7.55821L95.4435 6.8189H93.5424C92.1838 6.8189 91.6413 6.98958 91.6413 7.41753C91.6413 7.74663 91.4652 8.0791 91.2501 8.15684C90.6329 8.37863 86.8717 12.0963 85.9381 13.4068C84.3636 15.6166 81.0506 19.4927 80.7477 19.4792C80.5817 19.472 80.0963 19.2008 79.6684 18.8768C78.6954 18.1392 78.8534 17.6166 81.5014 12.817C82.6332 10.7651 83.6877 8.57591 83.844 7.95236L84.1287 6.8189L82.9209 6.8282L81.7135 6.83749L78.7563 9.73093C75.6051 12.8145 74.9643 13.5411 73.7826 15.3737C72.7637 16.9537 71.8596 16.8363 69.7249 14.8457C68.7283 13.9162 67.7807 13.1558 67.6198 13.1558C67.2987 13.1558 65.0263 15.6437 65.0263 15.9952C65.0263 16.1147 64.5033 16.8283 63.8645 17.5807C63.2258 18.3326 62.3432 19.4509 61.9043 20.0656C60.1574 22.5091 59.8148 20.6803 61.4451 17.6145L62.5105 15.6099L61.6694 14.2487L60.8283 12.888L61.492 12.2239C62.448 11.2683 61.8688 9.89188 60.372 9.56321C58.8913 9.23791 56.9074 10.2708 56.0942 11.7896L55.5454 12.8153L56.3827 14.3586L57.2201 15.9018L56.5944 17.6981L55.9687 19.4948L56.8745 20.4002L57.7798 21.3059L56.0659 23.6734C55.123 24.9754 54.1395 26.2331 53.8801 26.468C52.4851 27.7324 50.7285 31.0213 48.6276 36.302L47.7383 38.5364L48.2035 39.5571L48.6686 40.5777L48.1173 41.9698C47.8144 42.7353 47.345 43.6469 47.0747 43.9955C46.0434 45.3241 44.6709 49.8622 44.0718 53.9233C43.0613 60.7743 40.3225 70.4981 39.023 71.8475L38.4421 72.4503L38.1417 71.6666C37.7995 70.7752 38.6212 62.4832 39.4602 58.3591C39.7678 56.8488 40.1564 54.3779 40.325 52.868C40.4931 51.3581 41.0821 48.6155 41.6334 46.7736C42.1847 44.9312 42.6359 43.1535 42.6359 42.8231C42.6359 42.4923 42.9531 41.5532 43.3414 40.7353L44.0469 39.2491L43.0668 38.5098L42.0871 37.7709L44.0515 33.5691C45.1318 31.2578 46.0156 29.1612 46.0156 28.909C46.0156 28.6572 46.5859 27.3015 47.2829 25.8968C47.98 24.4917 48.5503 23.204 48.5503 23.0351C48.5503 22.8661 48.8477 22.3993 49.211 21.9975C49.7945 21.3528 49.9879 19.8434 49.8266 17.1988C49.7991 16.7505 50.2444 15.4819 50.8164 14.3797C51.4205 13.2145 51.9803 11.2129 52.1535 9.59742L52.4509 6.8189H50.2892H48.1279V8.27259C48.1279 9.0723 47.9462 9.83865 47.724 9.97595C47.0599 10.3866 44.4271 9.07146 44.147 8.18894C43.7106 6.81341 40.7128 5.88568 39.4011 6.72047C38.6187 7.21813 37.5554 13.0722 38.0234 14.3032C38.8772 16.5494 37.4033 23.7913 35.4008 27.1874C34.7329 28.32 34.1866 29.3327 34.1866 29.4383C34.1866 29.7475 31.082 34.0402 30.6308 34.3549C30.4044 34.5129 29.8759 34.4588 29.4568 34.2345C28.1294 33.5239 28.4479 30.4197 30.1699 27.2863C33.4334 21.3469 35.3256 14.631 33.8795 14.1199C33.1592 13.8655 31.6861 15.5592 29.9519 18.6355C29.1442 20.0685 28.2933 21.4732 28.061 21.7575C27.3162 22.6684 26.5819 23.8922 25.9343 25.3016C25.233 26.8288 25.1764 26.8562 24.0197 26.2373L23.2027 25.8001V23.7025V21.605H22.4384C20.8719 21.605 18.3706 26.4832 17.5645 31.1104C17.4433 31.8075 16.9671 33.5184 16.5067 34.9125C16.0462 36.3067 15.4721 38.4929 15.2308 39.7708C14.9896 41.0488 14.5676 43.2828 14.2925 44.7348C13.7467 47.6202 13.7877 47.5661 12.6133 46.9379L11.7962 46.5006V44.1919V41.8831H11.0358C9.51324 41.8831 9.26146 42.7378 9.26146 47.9062C9.26146 50.6615 9.44481 54.1877 9.66871 55.7428C9.89262 57.2979 10.2935 60.0857 10.5593 61.9382C10.9048 64.3445 11.3011 65.5739 11.9475 66.2456L12.8524 67.1852L12.9174 69.8484C12.9787 72.3531 13.2829 76.1181 13.636 78.7429C13.8223 80.1289 13.5456 80.1678 11.3738 79.0597C10.4629 78.595 9.50776 78.2148 9.25174 78.2148C8.91673 78.2148 8.84914 82.3426 9.01009 92.8953C9.13388 100.97 9.37595 116.701 9.54831 127.854C9.7211 139.007 9.77433 156.402 9.66744 166.509C9.56014 176.616 9.47776 190.882 9.48367 198.21L9.49508 211.534L10.4342 213.126C10.9509 214.001 11.3738 214.979 11.3738 215.298C11.3738 215.616 12.2292 217.721 13.2748 219.973C14.3204 222.226 15.1759 224.141 15.1759 224.228C15.1759 225.33 11.0768 221.327 10.6873 219.845C10.5495 219.322 10.2918 218.894 10.1144 218.894C9.21245 218.894 9.16133 226.275 9.91838 247.196C10.1833 254.517 10.1938 254.538 14.527 256.118C16.3622 256.787 18.447 257.734 19.1601 258.224C20.3532 259.042 23.2027 262.695 23.2027 263.406C23.2027 263.808 26.1046 267.722 29.4196 271.793C32.4681 275.536 32.4575 275.509 30.9126 275.489C28.483 275.458 24.0113 271.363 19.4445 264.989C17.8446 262.756 15.8316 260.311 14.9702 259.556L13.4045 258.183H11.7362H10.0675L10.3649 262.496C10.6645 266.847 11.6129 269.59 12.8177 269.59C13.1016 269.59 13.7188 270.017 14.1895 270.54C14.6601 271.063 16.7855 273.167 18.9126 275.216C21.0397 277.266 22.7772 279.262 22.7739 279.652C22.7599 281.206 21.5783 283.745 20.8153 283.86C19.5104 284.056 16.2971 282.143 15.2959 280.574C12.6238 276.382 11.0324 274.888 10.9099 276.455C10.7747 278.185 11.0438 293.182 11.2225 293.881C11.6158 295.417 18.5932 300.007 20.5357 300.007C20.8407 300.007 21.0904 300.167 21.0904 300.363C21.0904 300.956 27.7602 303.374 30.8598 303.905C34.2775 304.491 35.4245 303.994 33.4689 302.773C32.8183 302.367 30.812 300.501 29.0115 298.626L25.7374 295.216V294.067V292.917L23.9728 292.211C21.6522 291.282 14.2457 285.701 14.5912 285.141C15.0728 284.362 17.5645 285.115 20.3743 286.89C21.8863 287.845 24.6145 289.208 26.437 289.919C28.2595 290.631 30.1648 291.375 30.6709 291.574C31.248 291.8 31.6422 292.373 31.7271 293.111C31.8234 293.942 32.1732 294.377 32.9193 294.593C33.5001 294.761 35.4012 295.311 37.1439 295.815C42.2417 297.29 46.2745 299.143 48.2178 300.901C50.5545 303.016 53.7386 304.261 55.5015 303.749C56.2095 303.544 59.83 303.368 63.5477 303.359C67.6494 303.348 71.8849 303.079 74.3204 302.674C76.5278 302.307 80.9003 301.962 84.037 301.907C92.1749 301.766 96.5659 301.334 99.3529 300.399C103.065 299.155 103.557 299.323 103.639 301.864L103.681 303.175L107.484 303.039C109.902 302.953 111.747 302.66 112.553 302.234C114.117 301.408 118.815 301.23 125.438 301.746C134.871 302.482 162.704 302.865 169.585 302.354C170.979 302.25 173.684 302.35 175.595 302.575C177.506 302.801 179.56 302.862 180.159 302.712L181.247 302.439L180.983 301.234L180.718 300.03L181.786 298.962C182.374 298.375 183.317 297.894 183.884 297.894C185.332 297.894 190.02 295.618 190.92 294.478C191.036 294.331 191.701 293.905 192.398 293.533C193.095 293.16 194.901 291.805 196.412 290.52C202.893 285.009 204.9 286.738 198.579 292.388C197.046 293.759 195.922 295.011 196.082 295.17C196.745 295.834 198.505 294.801 201.487 291.999C203.226 290.364 204.853 289.026 205.102 289.025C205.351 289.024 206.612 288.024 207.903 286.805C209.195 285.585 211.748 283.318 213.576 281.767C218.275 277.783 223.449 272.811 223.449 272.281C223.449 272.035 223.829 271.489 224.294 271.068C224.759 270.648 225.139 270.111 225.139 269.876C225.139 269.642 225.427 269.148 225.779 268.78C227.426 267.058 233.375 258.334 236.871 252.515C240.424 246.6 241.945 246.914 239.925 253.146L238.636 257.127L236.429 259.281C231.093 264.489 228.889 268.319 230.473 269.634C231.41 270.412 234.011 270.556 234.011 269.831C234.011 269.199 237.567 265.787 238.226 265.787C239.25 265.787 238.501 267.579 236.479 269.97L234.3 272.547L233.205 272.561C232.603 272.569 231.661 272.949 231.113 273.405L230.116 274.235L230.379 275.281L230.642 276.327L230.057 276.102C229.017 275.703 227.999 277.177 228.28 278.674L228.533 280.025L227.187 280.41C225.962 280.762 224.652 282.353 223.575 284.798C223.421 285.147 222.712 286.311 221.999 287.384C216.489 295.686 217.592 295.701 225.917 287.439C232.778 280.629 235.341 277.621 237.437 273.918C238.783 271.54 240.473 269.072 241.495 267.989C242.477 266.95 244.627 261.955 244.494 261.022C244.234 259.192 240.629 259.675 238.626 261.808C237.622 262.877 236.545 263.163 236.545 262.363C236.545 262.106 237.656 260.439 239.013 258.659C240.371 256.88 241.808 254.666 242.208 253.741C243.472 250.814 244.693 248.358 246.613 244.876C248.616 241.245 249.453 239.597 253.219 231.859C254.555 229.115 256.263 225.956 257.014 224.84C258.378 222.813 260.708 216.808 261.369 213.616C261.749 211.785 262.903 211.105 263.267 212.498C263.386 212.953 263.303 214.15 263.083 215.159C262.862 216.168 262.519 218.25 262.319 219.786C262.12 221.323 261.745 223.368 261.485 224.332L261.013 226.084L260.009 225.831L259.005 225.579L258.514 226.497C258.244 227.002 256.817 231.059 255.344 235.512C251.361 247.549 249.187 253.699 248.757 254.149C248.547 254.37 248.373 254.845 248.372 255.205C248.37 255.565 248.086 256.402 247.74 257.065C247.394 257.729 247.24 258.48 247.398 258.735C247.863 259.487 247.543 262.389 246.717 264.915C246.295 266.208 245.721 268.209 245.443 269.363C244.82 271.945 243.2 275.543 241.573 277.954C240.899 278.953 240.348 279.892 240.348 280.04C240.348 280.187 239.999 280.7 239.574 281.18C238.751 282.108 236.968 286.212 236.968 287.178C236.968 287.496 236.8 287.755 236.595 287.755C236.39 287.755 236.124 288.183 236.005 288.706C235.886 289.228 234.917 292.128 233.852 295.148C231.451 301.953 231.453 301.697 233.812 301.697C235.96 301.697 236.83 300.724 235.531 299.774L234.802 299.241L236.836 296.628C240.414 292.029 244.572 284.767 244.572 283.118C244.572 282.88 244.762 282.686 244.995 282.686C245.227 282.686 245.417 282.275 245.417 281.772C245.417 281.27 246.372 278.707 247.538 276.077C248.705 273.447 249.775 270.718 249.916 270.011C250.058 269.305 250.339 268.625 250.541 268.5C250.743 268.375 250.909 267.819 250.909 267.266C250.909 266.713 251.084 266.151 251.299 266.019C251.514 265.886 251.821 265.162 251.982 264.41C252.143 263.657 252.51 262.281 252.798 261.352C253.086 260.422 253.529 258.901 253.782 257.972C256.573 247.726 257.955 244.289 265.501 228.822C268.539 222.595 268.576 222.473 267.831 220.941L267.286 219.819L268.134 217.139C269.636 212.39 270.486 206.706 270.43 201.785L270.377 197.138L271.189 198.194C272.306 199.647 272.621 202.224 272.307 207.352C272.145 209.998 272.223 212.563 272.507 213.883L272.973 216.057L272.426 217.792C272.126 218.747 271.735 219.724 271.557 219.965C271.38 220.205 271.05 221.536 270.824 222.922C270.599 224.308 270.129 226.298 269.781 227.343C269.432 228.389 268.832 230.765 268.446 232.624C268.06 234.483 267.407 236.954 266.995 238.116C266.582 239.278 266.011 240.894 265.725 241.707C263.522 247.968 261.605 257.811 262.081 260.417L262.329 261.774L261.794 260.966C260.25 258.633 258.73 257.946 258.214 259.345C258.064 259.751 257.827 260.179 257.687 260.295C257.548 260.412 257.071 261.329 256.627 262.334L255.821 264.162L256.428 264.546C256.762 264.757 257.356 264.932 257.749 264.936C259.126 264.948 259.083 265.182 256.611 271.068C256.318 271.765 255.84 273.096 255.548 274.025C255.256 274.955 254.69 276.476 254.289 277.405C253.887 278.334 253.228 279.95 252.823 280.996C252.418 282.042 251.75 283.753 251.34 284.798C250.928 285.844 250.363 287.46 250.082 288.389C249.801 289.318 249.219 291.029 248.788 292.191C248.357 293.353 247.691 295.34 247.308 296.607C246.925 297.874 246.25 299.369 245.809 299.931C244.829 301.177 245.083 301.697 246.675 301.697C248.291 301.697 249.2 301.313 249.008 300.711C248.922 300.44 249.457 299.041 250.197 297.602C250.937 296.163 253.513 291.125 255.921 286.406C262.073 274.351 263.488 271.785 266.481 267.258C267.559 265.628 268.715 263.767 269.049 263.124C269.774 261.729 270.815 261.79 271.322 263.257L271.685 264.309L269.814 267.688C268.785 269.547 267.802 271.637 267.63 272.333C267.458 273.029 267.105 273.854 266.846 274.166C266.251 274.883 265.029 278.226 263.964 282.052C263.511 283.679 262.936 285.412 262.686 285.905C262.151 286.959 262.321 288.25 263.026 288.485C263.76 288.73 266.681 285.932 267.624 284.08C268.073 283.197 268.546 282.38 268.674 282.263C268.884 282.074 269.8 280.116 270.75 277.828C270.943 277.363 271.384 276.317 271.731 275.504C272.077 274.691 272.489 273.55 272.646 272.969C272.804 272.388 273.293 271.153 273.733 270.223C275.029 267.491 276.264 263.741 277.281 259.45C277.803 257.243 278.553 254.688 278.945 253.774L279.659 252.111L280.249 252.718C281.033 253.526 281.125 254.24 280.727 256.428C280.047 260.172 281.169 259.399 283.431 254.566C284.613 252.042 285.718 249.875 285.887 249.75C286.055 249.625 286.654 248.518 287.218 247.291C288.357 244.81 289.12 243.945 289.552 244.644C290.394 246.007 290.635 244.637 290.526 239.101C290.404 232.869 289.967 231.53 288.925 234.192C286.504 240.378 282.771 246.673 281.99 245.891C281.888 245.789 282.325 244.473 282.96 242.967C283.596 241.461 284.176 240.038 284.25 239.806C284.324 239.574 284.566 238.908 284.788 238.327C285.01 237.747 285.574 236.226 286.042 234.948C286.51 233.67 287.279 231.579 287.751 230.301C288.56 228.107 288.91 226.369 289.748 220.373C290.333 216.178 290.724 214.505 291.342 213.55L291.93 212.641L291.687 205.312C291.554 201.281 291.465 197.602 291.491 197.138C291.517 196.673 291.511 195.912 291.478 195.448C291.445 194.983 291.421 193.842 291.426 192.913C291.43 191.983 291.229 190.704 290.979 190.069C290.729 189.434 290.661 188.578 290.827 188.168C290.993 187.757 291.193 186.375 291.271 185.097C291.349 183.819 291.529 181.809 291.671 180.63C291.813 179.451 291.734 176.885 291.493 174.927C290.861 169.775 290.806 160.663 291.403 160.066C292.077 159.391 292.008 157.997 291.247 156.911C290.895 156.408 290.34 154.227 290.014 152.065C289.688 149.902 289.125 147.265 288.764 146.206C288.333 144.943 288.112 142.8 288.122 139.988L288.137 135.696L287.266 133.728C286.787 132.645 286.396 131.574 286.396 131.347C286.396 130.744 282.581 122.997 280.023 118.402L277.817 114.443L275.545 113.438C274.295 112.885 273.162 112.146 273.028 111.795C272.741 111.048 274.779 106.52 275.402 106.52C276.641 106.52 284.003 119.213 287.077 126.651C289.403 132.28 289.506 132.471 290.274 132.623C291.575 132.88 291.888 130.738 291.888 121.574V112.587L291.23 110.373C290.508 107.942 287.597 102.152 286.425 100.816C286.017 100.352 284.658 98.4507 283.404 96.5918C282.15 94.733 281.023 93.1171 280.899 93.0009C280.074 92.2257 276.257 87.0231 276.257 86.6729C276.257 86.4359 276.708 86.2415 277.26 86.2415H278.263L280.943 89.7268C282.417 91.644 283.83 93.4022 284.083 93.6346C284.335 93.867 285.653 95.4444 287.012 97.1402C288.612 99.1367 289.695 100.142 290.086 99.9918C290.418 99.8646 290.769 99.7603 290.866 99.7603C290.963 99.7603 291.043 99.1093 291.043 98.3138C291.043 97.5183 291.265 95.9066 291.536 94.7317L292.029 92.5962L291.505 91.0031C291.119 89.8316 291.1 89.0961 291.433 88.2241L291.885 87.0383L291.193 84.2843C290.813 82.7698 290.051 81.022 289.5 80.4006C288.949 79.7792 287.469 78.1282 286.212 76.7315L283.925 74.1925L284.337 73.4575C284.964 72.3358 285.594 72.5589 287.33 74.5182L288.921 76.3137L289.726 75.3716C290.311 74.6868 290.604 73.4756 290.8 70.9358C290.948 69.014 291.175 66.1616 291.304 64.5963L291.538 61.7502L290.656 59.101C290.063 57.3182 289.147 55.7618 287.856 54.3424C286.801 53.1827 285.138 51.2922 284.16 50.1414C279.58 44.7517 274.744 40.3146 271.738 38.7443C268.607 37.1081 264.428 33.2295 264.428 31.9595C264.428 31.1041 265.456 29.0889 266.213 28.4607L266.786 27.9846L269.304 29.3745L271.821 30.764L272.188 32.4158C273.284 37.3379 278.252 41.3593 278.996 37.9251C279.609 35.0908 279.484 34.8074 276.257 31.6866C274.153 29.6529 273.299 28.5241 273.299 27.7759C273.299 25.9779 274.035 26.1287 277.07 28.5499C280.279 31.1104 280.494 31.3592 281.115 33.2227L281.537 34.4901L282.795 34.6329C283.487 34.7115 284.77 35.4246 285.648 36.2171C288.027 38.3666 290.021 38.0738 289.388 35.6683C289.02 34.2713 284.967 30.2215 280.6 26.8858C276.457 23.7216 276.08 23.1272 277.74 22.371L278.801 21.8877L280.996 22.9079C283.529 24.0849 286.943 26.6091 288.59 28.5211L289.729 29.843L290.401 29.1793C291.398 28.1946 291.312 24.3688 290.24 22.0275C289.679 20.8019 287.491 18.2503 284.082 14.8457C278.809 9.57884 277.89 8.10023 279.5 7.48217L280.209 7.21052L279.606 6.62921C278.879 5.9292 272.142 5.4552 271.757 6.07706C271.617 6.30434 272.136 7.0314 272.911 7.69297C275.257 9.69459 273.965 9.57039 270.875 7.49695C267.588 5.2917 263.841 4.72223 265.195 6.63344C265.572 7.16617 269.584 10.4461 270.131 10.6692C271.203 11.1065 276.257 14.5542 276.257 14.8482C276.257 15.6348 272.385 14.2643 269.071 12.305C259.953 6.91353 254.241 4.78898 250.479 5.39056C247.808 5.81767 247.719 7.50709 250.22 10.3181C251.867 12.1685 252.299 12.2501 252.944 10.8323C253.75 9.06512 254.766 9.63798 262.949 16.4671C265.273 18.4062 267.554 20.1737 268.019 20.3947C270.516 21.5826 272.877 23.3257 272.877 23.9822V24.5724L271.082 24.2974C268.219 23.8589 266.686 22.918 260.837 18.0095C254.151 12.3988 252.182 11.368 252.17 13.4727C252.157 15.8858 251.635 15.7176 247.21 11.877C244.834 9.81373 242.049 7.6334 241.023 7.03182L239.156 5.93807L234.999 5.57433L230.842 5.21059L230.293 5.73444L229.744 6.25787L230.325 6.74032C230.644 7.00563 232.603 8.10614 234.676 9.18553C240.078 11.9987 246.856 17.3889 244.975 17.3762C243.49 17.3665 235.839 13.0755 231.681 9.92061C227.798 6.97479 226.555 6.25449 225.975 6.61316C225.181 7.10364 225.579 7.8214 228.096 10.4432C232.771 15.3112 231.264 15.3463 224.768 10.5205C220.148 7.08716 217.961 7.03435 217.952 10.3557C217.939 15.3987 217.231 16.3099 214.612 14.6564C211.746 12.8466 207.761 10.8205 205.072 9.8057C203.678 9.27932 202.157 8.68914 201.692 8.49354C196.125 6.15353 185.157 5.00063 174.689 5.65502ZM205.706 6.47375C205.706 7.16996 207.641 8.50874 208.646 8.50874C208.893 8.50874 209.9 8.86657 210.886 9.30382C211.87 9.74106 213.307 10.3393 214.077 10.6337L215.478 11.169L216.07 10.5775L216.661 9.98609L216.146 8.95359C215.296 7.24939 213.291 6.39306 209.336 6.04622L205.706 5.72811V6.47375ZM10.2483 6.39137L9.33455 6.76482L9.03713 9.54039C8.71226 12.5762 9.03122 13.351 10.8972 14.0603C12.2926 14.5909 12.7962 13.9995 12.7147 11.9243C12.6673 10.7148 12.8684 10.0862 13.4295 9.69164C15.9769 7.89871 13.3167 5.13835 10.2483 6.39137ZM20.2454 6.48304C19.5323 6.74117 18.8298 7.64692 18.0833 9.27128C16.5836 12.5335 16.3634 13.1009 15.8396 15.0569L15.3871 16.7467H13.0995H10.8119L10.4536 18.0141C9.92135 19.897 10.3518 20.9946 12.0045 21.97L13.4861 22.8441V24.0409C13.4861 24.6996 13.3112 25.419 13.097 25.6395C12.198 26.5673 10.4841 33.0157 10.6104 34.9949L10.7401 37.0248L11.6547 37.155L12.5689 37.2855L13.5123 33.1416C14.031 30.8628 14.7851 28.3327 15.1882 27.5195C15.5912 26.7062 16.1535 24.9002 16.4378 23.5061C16.7221 22.112 17.1547 20.4314 17.3997 19.7711L17.845 18.5709L19.1508 18.7864C19.869 18.9047 20.8103 19.0644 21.2429 19.1417L22.0286 19.2815L23.672 16.113C24.5757 14.3704 25.5169 12.3362 25.7632 11.5923C26.0099 10.8488 26.6863 9.54081 27.2663 8.68618C27.8464 7.83154 28.2169 6.86157 28.0901 6.5312L27.8594 5.92962L24.5803 6.01538C22.7772 6.06228 20.8263 6.27266 20.2454 6.48304ZM282.385 6.39264C282.021 6.98112 283.159 8.34863 286.254 11.0435C287.722 12.3215 288.925 13.5812 288.927 13.8436C288.929 14.1055 289.19 14.5356 289.508 14.7992L290.086 15.2787L290.603 14.6556C291.123 14.0295 291.287 8.67731 290.831 7.23967C290.479 6.12987 283.01 5.38127 282.385 6.39264ZM66.3186 7.19489C66.0727 7.65453 65.8712 8.2409 65.8712 8.49776C65.8712 9.13568 69.2555 12.3109 69.9357 12.3109C70.7266 12.3109 72.7176 8.71152 72.5562 7.57341L72.4194 6.60767L69.5927 6.48346L66.766 6.35884L66.3186 7.19489ZM122.17 12.5394C119.237 13.092 116.355 14.7654 115.643 16.3289L115.175 17.3555L115.711 18.0014C116.504 18.957 117.679 18.7931 119.659 17.4497C120.63 16.7911 122.415 15.7928 123.625 15.2318C127.392 13.4862 126.444 11.7334 122.17 12.5394ZM221.19 12.5986C220.39 13.3987 221.025 14.5018 222.71 15.2381C225.412 16.4193 230.1 20.2312 238.333 27.9419C241.563 30.9672 242.037 31.273 242.037 30.3331C242.037 29.5393 240.288 27.3492 238.1 25.4072C237.185 24.5939 234.892 22.5273 233.005 20.8142C227.183 15.5288 221.92 11.869 221.19 12.5986ZM171.724 13.4013C170.542 14.5829 172.249 16.5355 174.464 16.5355C177.233 16.5355 177.03 14.5098 174.14 13.3016C172.456 12.5977 172.531 12.5944 171.724 13.4013ZM186.357 13.6628C186.078 13.9416 185.85 14.3826 185.85 14.6429C185.85 15.1355 194.494 19.2633 196.511 19.7339L197.666 20.0035L198.095 18.8759C198.662 17.3842 198.64 17.2457 197.88 17.5367C197.213 17.7932 192.913 16.0746 191.779 15.0983C191.307 14.6919 187.461 13.1558 186.916 13.1558C186.887 13.1558 186.636 13.3839 186.357 13.6628ZM199.369 18.1573C199.369 19.3571 200.619 20.3376 202.149 20.3376C203.264 20.3376 210.112 23.9691 213.767 26.4997C215.723 27.8536 218.179 29.546 219.224 30.2604C225.463 34.5218 231.882 39.7218 236.163 43.9807C245.641 53.4108 251.097 58.1969 252.208 58.0549C252.723 57.989 252.877 58.1868 252.735 58.7317C252.422 59.9269 257.807 65.9634 259.185 65.9634C259.284 65.9634 259.195 65.6305 258.986 65.2241C258.778 64.8177 258.253 63.7472 257.821 62.8457C257.388 61.9441 255.448 59.6628 253.507 57.7761C251.567 55.8894 249.286 53.5891 248.438 52.6648C244.039 47.8694 227.299 31.8011 224.928 30.0978C223.998 29.4298 221.527 27.9838 219.436 26.8845C215.821 24.9834 212.18 22.8775 205.437 18.7868C203.354 17.5236 201.95 16.958 200.896 16.958H199.369V18.1573ZM220.802 19.1759C220.44 20.2261 221.878 22.3093 223.804 23.526C227.358 25.7701 243.875 41.3154 254.394 52.3162C256.66 54.6854 258.513 56.518 258.513 56.3888C258.513 56.2595 257.905 54.9866 257.163 53.56L255.812 50.9661L245.651 40.8211C235.525 30.7124 229.522 25.0777 224.391 20.8657C221.547 18.5312 221.098 18.3196 220.802 19.1759ZM67.3422 21.7026C65.9447 22.918 63.9769 25.0384 62.9693 26.4143C58.6454 32.3203 55.8082 36.7933 54.6747 39.492L53.461 42.3816L53.9164 43.0829C54.4191 43.8569 56.7638 43.8721 57.6852 43.1074C57.9779 42.8645 58.8313 41.4438 59.5816 39.9508C60.3319 38.4578 61.0801 37.2361 61.2436 37.2361C61.4075 37.2361 62.3217 35.6675 63.2756 33.7508C64.9029 30.4805 66.9954 27.3995 70.2031 23.55C72.1642 21.1965 72.3446 20.7998 71.7675 20.1044C70.9095 19.0707 69.9843 19.4049 67.3422 21.7026ZM250.912 21.9219C250.913 22.5606 251.292 23.654 251.754 24.351C252.216 25.0481 252.595 26.1325 252.596 26.7607L252.599 27.9035L249.771 28.0281L246.943 28.1532L248.334 29.7349C249.144 30.6558 251.076 31.9756 252.957 32.894C256.535 34.6401 260.066 36.9742 264.85 40.7552C268.257 43.4479 268.624 43.9874 267.614 44.8252C266.633 45.6401 266.746 45.8632 269.645 48.8047C273.902 53.1253 276.122 55.8903 278.378 59.6831C280.607 63.4295 281 63.2162 279.672 58.9806C279.233 57.5797 278.966 55.9498 279.078 55.3584L279.284 54.2832L276.82 52.034C275.08 50.446 273.788 48.716 272.426 46.1508L270.496 42.5168L269.416 42.5891C268.633 42.6415 268.178 42.3521 267.756 41.5329C265.845 37.8199 261.765 33.7622 256.824 30.6584C253.258 28.4189 252.56 26.7155 254.709 25.4929C256.328 24.5716 256.327 24.5686 254.087 22.5036C251.849 20.4403 250.908 20.2679 250.912 21.9219ZM239.743 22.3139C239.393 23.2281 239.913 23.6802 243.603 25.6657C245.771 26.833 246.777 27.1735 247.1 26.8503C247.833 26.1178 246.052 24.2589 243.274 22.8568C240.397 21.4044 240.109 21.36 239.743 22.3139ZM75.7103 30.6854C74.674 31.4184 73.9715 34.0989 74.6402 34.7676C75.0509 35.1783 79.3988 32.4669 79.3836 31.81C79.3519 30.4492 77.0432 29.7425 75.7103 30.6854ZM22.3577 35.5737C22.3577 36.923 20.5137 40.1557 19.6755 40.2748L18.7668 40.4045L17.7939 43.3618C16.0521 48.6573 15.6127 51.6133 15.6385 57.867L15.663 63.841L16.7927 64.729L17.9219 65.6174L18.2649 63.7839C18.4534 62.7751 19.0038 61.0946 19.4875 60.049C20.0769 58.7744 20.3401 57.428 20.286 55.9646C20.188 53.3272 22.2787 43.9456 23.7971 40.2094C25.1071 36.9851 25.1574 36.1402 24.0755 35.561C23.0257 34.9992 22.3577 35.0042 22.3577 35.5737ZM37.4083 35.8825C36.8237 36.8284 35.454 43.1467 35.454 44.8978V46.9087L36.7163 46.4685L37.9787 46.0288L38.3652 44.4838C39.9139 38.2956 40.069 36.2091 39.0103 35.8027C38.1105 35.4575 37.6572 35.4799 37.4083 35.8825ZM280.89 37.896C280.472 38.6758 280.434 39.1773 280.751 39.6914C281.261 40.5186 283.01 43.625 284.838 46.9527C286.569 50.1047 288.873 52.8671 289.771 52.8671C290.65 52.8671 291.031 51.0759 291.038 46.9079L291.043 44.1171L289.545 42.1552C288.721 41.0762 287.909 40.1933 287.742 40.1933C287.574 40.1933 286.516 39.4329 285.392 38.5035C283.003 36.5293 281.714 36.3557 280.89 37.896ZM252.983 39.5905C253.55 40.5507 253.747 41.3259 253.525 41.7226L253.177 42.3453L260.809 50.0916C265.007 54.3521 268.531 57.7546 268.64 57.6528C268.75 57.5514 268.655 57.3359 268.429 57.1745C268.203 57.0127 267.172 55.6448 266.138 54.1345C265.103 52.6242 262.442 49.2259 260.223 46.583C258.005 43.9397 255.916 41.3732 255.582 40.8798C254.432 39.1828 253.296 38.081 252.695 38.081H252.093L252.983 39.5905ZM23.4887 48.9594C22.3147 50.9538 22.8905 53.031 24.8211 53.7653C26.6276 54.4522 27.7374 51.8874 26.7484 49.3109C26.4848 48.6244 23.8528 48.3405 23.4887 48.9594ZM126.283 55.4843C125.47 55.7204 123.713 55.8163 122.379 55.698C120.865 55.5637 119.197 55.7128 117.943 56.0951C116.837 56.4319 113.517 57.3414 110.564 58.1162C103.259 60.0333 98.9571 62.8195 95.8157 67.668C94.3421 69.9417 93.7963 70.2311 93.4537 68.9206C93.0874 67.5202 92.6438 67.9705 92.8284 69.5548L93.0012 71.0338L92.0046 71.8724C91.4563 72.3337 89.9371 73.1115 88.6287 73.6002C86.2326 74.4954 85.3044 75.5537 85.3044 77.3897C85.3044 77.8916 85.0146 78.2173 84.5651 78.2211C84.1587 78.2249 83.5406 78.4302 83.1921 78.6778L82.5584 79.1281L83.6179 78.9C84.5879 78.6917 86.1819 79.2207 85.7146 79.5962C85.6052 79.6841 84.4701 80.1733 83.1921 80.6836C81.9142 81.194 81.4389 81.499 82.136 81.3617C85.5625 80.6862 86.2634 80.6456 85.9571 81.1416C85.6124 81.6992 81.9404 83.4022 80.0794 83.8673C79.4132 84.0342 78.9519 84.2543 79.0545 84.3574C79.3642 84.6666 84.0548 83.3198 85.0184 82.6451C86.2207 81.8027 86.9943 81.8526 86.9943 82.7723C86.9943 83.5969 84.5448 85.7764 81.4123 87.7396C80.3168 88.4261 79.414 89.135 79.4056 89.3154C79.3777 89.8996 81.7731 88.4303 84.7345 86.0464C87.5688 83.7651 89.1066 83.1419 89.1066 84.275C89.1066 84.5876 88.7263 85.1875 88.2616 85.6078C87.7969 86.0282 87.4167 86.5706 87.4167 86.8123C87.4167 87.0544 88.0436 86.6446 88.81 85.9019C90.194 84.5601 91.2189 84.1656 91.2189 84.9742C91.2189 85.2065 91.5877 85.3966 92.0389 85.3966C93.316 85.3966 93.4364 86.0649 92.5057 87.9909C91.3908 90.2988 91.7321 90.6596 92.888 88.3948C93.9209 86.37 95.1672 86.0007 94.8089 87.8258L94.5808 88.9875L95.0768 88.037C95.6653 86.9086 96.6969 86.7781 96.7442 87.8258C96.7641 88.2672 96.8634 88.3526 96.9905 88.037C97.108 87.7468 97.4649 87.5089 97.7843 87.5089H98.3652L98.5093 90.783L98.6533 94.0571L98.7382 90.783L98.8232 87.5089H99.4074C99.7289 87.5089 100.098 87.9141 100.227 88.4092L100.463 89.3094L101.199 88.5735L101.935 87.8376L102.491 88.5989L103.048 89.3601V88.6107C103.048 87.2799 104.071 88.146 105.371 90.5764C106.068 91.8797 106.793 93.0968 106.982 93.2814C107.442 93.7313 105.653 89.5819 105.1 88.9144C104.577 88.2846 104.975 87.5089 105.82 87.5089C106.467 87.5089 109.676 90.5278 111.659 93.0009L112.844 94.4795L111.671 92.7897C109.468 89.6178 108.895 88.9871 107.141 87.803C104.974 86.3396 103.893 85.3759 103.893 84.9087C103.893 84.1123 105.044 84.6759 108.399 87.1139C110.686 88.775 112.185 89.5938 112.662 89.4425C117.119 88.0281 125.431 93.1652 130.12 100.232C136.471 109.804 135.745 114.739 127.55 117.684C118.108 121.077 111.487 129.29 112.689 136.119L113.019 137.993L114.741 137.886L116.463 137.778L117.579 139.241C118.481 140.423 121.482 141.979 121.871 141.467C121.911 141.415 122.123 140.816 122.343 140.135C122.562 139.455 123.046 138.707 123.417 138.473L124.092 138.047L125.635 139.402C127.443 140.99 127.772 140.897 128.122 138.707C128.265 137.812 128.763 136.736 129.227 136.315L130.071 135.552L132.351 135.819L134.631 136.087L136.244 134.61C138.368 132.664 138.839 133.136 138.245 136.617L137.793 139.26L138.66 140.211C139.648 141.295 141.699 141.486 142.067 140.528C142.545 139.281 143.437 139.924 143.969 141.901L144.508 143.907L145.053 143.168C145.778 142.185 147.269 142.228 147.814 143.246C148.459 144.451 148.407 144.497 146.508 144.41L144.764 144.33L144.841 147.928C145.144 161.993 134.884 180.864 123.988 186.287C119.877 188.333 117.616 187.979 109.596 184.034C107.04 182.777 103.333 181.061 101.358 180.22C99.3829 179.38 97.1967 178.44 96.4996 178.131C91.466 175.897 86.8033 174.536 84.1908 174.536H83.1921V175.592V176.648H81.291C79.9286 176.648 79.1407 176.897 78.5108 177.527L77.6313 178.407L78.4052 179.263C78.8306 179.734 80.0815 180.577 81.1854 181.137L83.1921 182.155V183.203C83.1921 183.781 82.9906 184.252 82.7447 184.252C81.8804 184.252 82.8622 185.143 85.154 186.436L87.4687 187.742L87.3373 189.049L87.2055 190.357L89.3178 191.486L91.4301 192.615L91.3274 193.893L91.2248 195.171L93.3341 195.871L95.4435 196.572V198.001C95.4435 199.496 96.4088 200.382 98.1367 200.474C99.5371 200.548 99.3614 201.433 97.7476 202.43C93.4947 205.059 83.5985 203.517 77.9625 199.348C73.9123 196.352 54.5201 193.58 51.6744 195.591C51.4568 195.744 51.0707 196.345 50.8156 196.926L50.3521 197.982L46.5998 198.985C44.5357 199.537 42.5146 200.072 42.1078 200.175C40.7525 200.519 41.3444 201.12 43.7157 201.81L46.0633 202.492L45.929 203.194C45.8331 203.696 44.9501 204.068 42.8425 204.493C39.3297 205.202 39.5025 205.102 40.0483 206.122L40.486 206.939L43.3566 207.183C49.132 207.673 49.29 209.564 43.692 211.198C42.995 211.401 42.1902 212.028 41.9037 212.591L41.3833 213.613L42.7487 214.238C43.5446 214.602 45.3924 214.866 47.1773 214.872C50.655 214.882 50.99 215.289 48.8798 216.94C47.1414 218.301 47.5926 218.737 50.135 218.153L52.1412 217.693L52.7749 218.212C54.0094 219.223 55.8006 219.739 58.0755 219.739H60.3792V220.512C60.3792 223.823 53.3322 230.253 48.0375 231.772C46.7097 232.152 45.1888 232.819 44.6578 233.253L43.692 234.042L44.7313 234.432C45.3029 234.646 47.5102 234.73 49.6365 234.619C54.0267 234.389 54.5277 234.673 53.3351 236.714C52.5641 238.033 48.9732 240.359 47.6247 240.412C45.3907 240.499 46.7092 242.552 48.9994 242.552C51.1522 242.552 51.2621 242.906 49.7966 245.115C49.113 246.145 48.5533 247.112 48.552 247.263C48.549 247.757 51.532 249.311 52.4826 249.311C53.5835 249.311 58.8892 248.232 59.4299 247.897C59.6374 247.769 60.9572 247.479 62.3627 247.253C65.6575 246.722 72.5537 243.782 75.7399 241.55C77.1095 240.591 78.9168 239.347 79.7562 238.785C82.9403 236.655 85.6766 234.307 90.6021 229.478L95.6881 224.491L97.5106 224.183C99.535 223.841 104.544 224.258 105.68 224.863C106.315 225.201 110.431 225.644 112.976 225.647C118.563 225.656 123.306 225.303 124.323 224.802L125.531 224.208L126.059 224.931C126.686 225.788 126.733 225.793 128.262 225.165C128.916 224.896 130.15 224.615 131.004 224.54C131.858 224.465 133.379 224.118 134.384 223.768C135.389 223.418 136.822 223.129 137.569 223.125C138.493 223.121 139.073 222.847 139.382 222.27C139.714 221.648 140.103 221.489 140.835 221.672C141.445 221.825 142.27 221.638 142.952 221.191C144.493 220.181 144.876 220.804 144.326 223.425C143.693 226.449 144.096 226.56 146.403 223.994C147.491 222.784 149.319 221.258 150.467 220.603C151.615 219.947 152.914 218.819 153.354 218.096L154.153 216.782H155.604C156.401 216.782 157.341 216.672 157.693 216.537L158.331 216.291L158.469 217.699L158.606 219.105L159.563 217.31C160.445 215.655 162.192 214.742 162.192 215.937C162.192 216.814 162.87 216.31 163.33 215.092L163.809 213.825H164.915C166.338 213.825 168.901 212.752 170.044 211.678L170.937 210.839L171.494 211.51L172.05 212.181L172.606 210.859L173.161 209.538L174.014 209.809L174.866 210.08V209.238C174.866 208.776 175.372 207.796 175.99 207.062L177.114 205.725L178.182 205.929C180.039 206.285 181.625 204.697 181.625 202.483C181.625 202.031 182.302 201.067 183.129 200.34C183.957 199.614 184.86 198.38 185.136 197.599C185.439 196.742 186.516 195.487 187.845 194.44C190.299 192.506 190.581 192.418 191.357 193.353C192.175 194.339 192.61 193.569 193.067 190.334C193.293 188.732 193.711 187.343 193.994 187.248C194.278 187.152 195.081 186.47 195.778 185.731C196.475 184.992 197.378 184.268 197.785 184.122C198.21 183.969 198.524 183.425 198.524 182.84C198.524 182.281 198.644 181.224 198.79 180.492L199.056 179.161L199.79 179.394L200.524 179.627L200.749 177.626C200.903 176.265 201.271 175.386 201.901 174.876C202.422 174.454 203.182 172.941 203.639 171.42C204.085 169.932 204.732 168.482 205.075 168.196C205.519 167.828 205.627 167.221 205.448 166.105C205.208 164.598 206.323 161.469 207.32 160.852C207.518 160.73 207.592 159.577 207.485 158.289L207.291 155.948H208.026H208.761L208.483 154.786C207.881 152.268 207.731 149.714 208.171 149.443C208.448 149.271 208.525 148.361 208.372 147.072C208.213 145.724 208.305 144.762 208.63 144.37L209.135 143.76L208.188 141.933C207.216 140.056 206.794 138.172 206.143 132.794C205.938 131.096 205.544 129.435 205.268 129.103C204.648 128.355 205.031 127.22 205.904 127.22C206.761 127.22 206.731 127.068 205.495 125.108C204.246 123.13 204.201 122.748 205.158 122.212L205.878 121.81L204.373 120.144C202.553 118.13 201.127 114.731 201.814 114.045C202.149 113.71 201.868 112.945 200.798 111.272C199.986 110.002 199.352 108.555 199.391 108.058C199.515 106.483 199.395 106.245 198.211 105.706L197.054 105.178L197.801 104.631L198.549 104.085L197.854 103.818C197.409 103.647 197.224 103.213 197.338 102.607L197.517 101.661L195.739 100.183C194.761 99.3695 193.842 98.419 193.697 98.0704C193.04 96.4896 192.064 95.0397 191.517 94.8297C191.189 94.7034 190.92 94.3329 190.92 94.0059C190.92 93.6794 190.69 93.0448 190.41 92.5962L189.901 91.7808L190.631 90.9735C191.347 90.1827 191.225 88.7763 190.441 88.7763C190.228 88.7763 189.871 88.2968 189.649 87.7109C189.381 87.0058 188.81 86.5588 187.961 86.389C186.296 86.0561 186.048 85.5905 186.87 84.3367C187.809 82.9024 187.721 82.7199 186.231 83.0182C185.512 83.1618 184.445 83.1597 183.862 83.0135L182.801 82.7474L183.024 81.3718L183.247 79.9967L182.014 79.75C180.77 79.5012 180.268 78.1586 181.203 77.5811C182.241 76.9398 181.388 76.5621 178.295 76.2926C176.463 76.1329 174.706 75.8422 174.391 75.6475L173.817 75.2926L174.341 74.7683C175.738 73.3721 173.619 71.8779 170.243 71.8779C169.681 71.8779 169.374 71.6033 169.374 71.1001V70.3224L166.945 69.8027C163.123 68.9849 163.037 68.9418 163.037 67.8362C163.037 67.2709 162.85 66.8083 162.621 66.8083C161.782 66.8083 153.397 62.6501 151.232 61.1609C150.005 60.3168 148.737 59.6265 148.415 59.6265C147.436 59.6265 147.212 59.569 146.772 59.204C146.54 59.0114 144.734 58.4411 142.759 57.9367C140.784 57.4322 138.921 56.8142 138.618 56.5628C138.315 56.3119 136.077 56.0178 133.644 55.9093C131.212 55.8011 129.119 55.5476 128.994 55.3461C128.719 54.9004 128.207 54.9266 126.283 55.4843ZM128.501 62.8393C126.222 64.2326 126.182 64.8587 128.395 64.4848L130.085 64.1992V64.8452C130.085 66.148 130.889 65.9254 132.211 64.2563C133.757 62.3041 133.761 62.3214 131.775 61.9893L130.296 61.7418L128.501 62.8393ZM265.977 62.0206C265.238 62.7599 265.837 64.2702 267.491 65.8363C273.017 71.0693 280.003 79.3364 282.195 83.2361C282.734 84.1964 283.615 85.2695 284.152 85.6214L285.128 86.261V85.4313C285.128 84.975 284.938 84.4841 284.706 84.3405C284.474 84.1968 284.283 83.8035 284.283 83.4668C284.283 83.1297 283.198 81.1923 281.871 79.1615C278.872 74.5719 277.947 72.6011 277.947 70.8057C277.947 69.0423 277.619 68.725 271.831 64.887C267.131 61.7705 266.524 61.4731 265.977 62.0206ZM27.4657 65.9685C27.216 67.1332 26.7949 69.9214 26.5304 72.1651L26.0492 76.2444L26.827 76.8126C28.1112 77.7518 28.4454 77.2613 29.2058 73.3223C30.4829 66.7099 30.3317 63.8511 28.7048 63.8511H27.9199L27.4657 65.9685ZM253.021 65.7746C253.021 66.1354 255.171 68.7491 257.799 71.5834C262.271 76.4079 264.535 79.1679 267.596 83.5289C268.293 84.5221 269.244 85.7865 269.709 86.3391C270.173 86.8913 271.029 88.2499 271.61 89.3576C273.7 93.3439 274.659 93.0867 273.284 88.909C271.578 83.7203 270.837 82.6616 261.976 72.7388C256.142 66.2055 253.021 63.7785 253.021 65.7746ZM115.209 68.3093C113.69 69.1336 110.936 72.7528 111.441 73.2585C112.085 73.9019 113.542 72.8208 114.461 71.019L115.316 69.3431H116.772C121.612 69.3431 122.933 73.0143 118.364 73.768C116.231 74.1199 115.79 74.6154 117.021 75.2749C118.918 76.2896 122.259 74.7717 123.527 72.3193L124.134 71.1457L123.202 70.2708C120.854 68.0673 117.274 67.1886 115.209 68.3093ZM33.313 68.9743C33.0485 69.4686 32.7313 71.3409 32.6083 73.1351L32.3849 76.3969L33.384 76.6584C34.7582 77.018 34.8668 76.8038 35.367 72.7439L35.8068 69.1741L35.1021 68.6384C34.1245 67.8945 33.8647 67.9435 33.313 68.9743ZM115.299 81.3376C115.299 82 116.101 82.2442 121.214 83.1415C123.189 83.4879 125.755 83.9556 126.917 84.1803C128.079 84.4055 129.885 84.6493 130.93 84.7224C131.976 84.7959 134.418 85.0037 136.359 85.1845L139.886 85.5132L139.733 84.7156L139.58 83.918L136.206 83.5978C132.424 83.2391 126.083 82.3165 121.002 81.3854C116.694 80.5958 115.299 80.5844 115.299 81.3376ZM111.921 82.545C111.924 83.5627 119.737 89.1988 121.145 89.1988C122.234 89.1988 121.525 88.0733 119.715 86.9297C117.547 85.5605 117.448 84.8369 119.607 86.1469C122.024 87.6133 130.311 91.7335 130.843 91.7335C132.74 91.7335 129.445 89.3508 122.692 85.841C116.488 82.616 111.917 81.2172 111.921 82.545ZM108.117 83.0173C108.117 83.7854 115.721 88.7763 116.891 88.7763C118.107 88.7763 117.752 87.9618 116.029 86.8013C115.279 86.296 113.547 85.1081 112.179 84.1609C109.648 82.4081 108.117 81.9772 108.117 83.0173ZM13.4861 85.013C13.4861 85.2669 13.1278 85.9302 12.6897 86.487C12.2521 87.0434 11.7696 88.3272 11.6175 89.339L11.3417 91.1793L12.7307 93.7102C17.9519 103.223 18.5835 103.941 17.7166 99.3687C17.4872 98.1604 17.2823 94.6177 17.2612 91.4965L17.2227 85.8212L16.3166 85.1862C15.2638 84.449 13.4861 84.34 13.4861 85.013ZM21.817 89.8802C20.891 90.8062 21.7836 101.028 22.7903 101.028C23.3374 101.028 24.4232 99.2842 24.89 97.6564C25.2275 96.4799 24.8435 90.6989 24.3987 90.2541C24.0362 89.8916 22.0878 89.6094 21.817 89.8802ZM279.636 149.98C279.636 150.415 279.922 151.58 280.27 152.568C280.619 153.556 280.904 154.967 280.904 155.705C280.904 156.443 281.083 157.227 281.302 157.447C282.148 158.3 283.861 166.21 283.861 169.264C283.861 172.88 284.77 177.967 285.769 179.937C286.228 180.843 286.463 182.309 286.447 184.161C286.423 186.862 286.878 188.558 287.467 187.969C288.515 186.921 287.865 169.057 286.754 168.37C286.557 168.249 286.396 167.563 286.396 166.847C286.396 165.198 285.142 160.824 282.807 154.324C281.325 150.197 279.636 147.884 279.636 149.98ZM13.3644 189.646L12.6707 190.412L13.252 192.344C13.5718 193.406 13.9651 195.395 14.1261 196.763C14.2875 198.131 14.7796 199.878 15.2198 200.647C15.6605 201.415 16.0208 202.728 16.0208 203.564C16.0208 204.399 16.5248 206.146 17.1408 207.447C17.7567 208.748 18.3782 210.192 18.5218 210.656C19.1652 212.735 22.8512 219.325 23.593 219.722C25.6842 220.841 25.6876 220.107 23.6192 213.825C22.969 211.85 22.0232 208.808 21.5179 207.065C19.8407 201.286 19.2966 199.678 18.7998 199.039C18.1145 198.156 17.4014 196.557 16.9164 194.814C15.4775 189.648 14.5646 188.319 13.3644 189.646ZM281.134 194.92C281.278 196.14 281.448 197.328 281.513 197.56C281.578 197.792 281.466 200.264 281.264 203.052L280.896 208.121L279.843 210.351C279.265 211.577 278.788 213.003 278.784 213.519C278.777 214.52 277.371 220.23 276.974 220.871C276.844 221.082 276.35 223.639 275.876 226.553C275.402 229.468 274.367 233.781 273.577 236.139L272.139 240.425L272.765 240.944L273.391 241.464L273.951 240.698C274.751 239.604 275.412 240.229 275.412 242.081C275.412 243.234 275.704 243.947 276.473 244.669C278.106 246.203 278.404 245.296 277.447 241.707C276.005 236.298 275.791 235.247 276.014 234.666C276.435 233.568 277.095 234.126 277.364 235.808C277.522 236.793 277.952 237.682 278.383 237.913C279.318 238.413 279.461 238.068 279.857 234.372L280.161 231.536L279.445 230.745L278.729 229.953L279.02 228.01C279.18 226.94 279.48 225.962 279.686 225.834C279.9 225.702 279.878 225.261 279.638 224.811C279.006 223.631 279.123 222.782 279.953 222.519L280.693 222.286L280.565 219.851L280.436 217.416L282.149 216.452L283.861 215.489L283.902 213.706C283.924 212.726 283.912 211.244 283.875 210.413C283.834 209.489 284.063 208.691 284.468 208.355L285.128 207.807L285.113 204.373C285.085 198.144 283.397 192.702 281.494 192.702H280.875L281.134 194.92ZM66.142 219.643C65.1729 221.211 77.2177 222.042 80.5517 220.638C82.6129 219.769 82.2695 219.168 79.918 219.528C77.6342 219.877 72.2901 219.852 68.7777 219.475C67.3629 219.323 66.2975 219.391 66.142 219.643ZM26.8236 233.499C25.9516 234.372 25.8659 234.134 28.2283 237.383C29.3659 238.948 31.1242 241.464 32.136 242.975C34.0612 245.849 35.0692 246.404 36.4836 245.37L37.2955 244.776L36.4806 243.724C36.032 243.146 34.9048 241.701 33.9754 240.514C33.046 239.327 31.3617 237.113 30.232 235.595C28.0145 232.614 27.8248 232.498 26.8236 233.499ZM20.6573 241.931C19.9738 242.754 20.4415 243.833 22.6307 246.481C23.5263 247.565 25.2094 249.782 26.3711 251.408C27.5401 253.044 28.9574 254.532 29.5442 254.738C30.1771 254.961 31.5192 256.456 32.8711 258.443C36.4143 263.651 38.0044 265.112 44.9936 269.578C46.6078 270.61 46.5876 269.802 44.937 267.315C44.0017 265.907 42.5391 264.426 41.295 263.628L39.2152 262.293L37.5401 259.241C36.0674 256.557 34.1583 254.451 30.7558 251.755C30.3794 251.457 29.1856 250.105 28.1032 248.752C27.0209 247.398 25.7019 245.877 25.1722 245.372C24.6428 244.867 23.6754 243.74 23.0223 242.869C21.6995 241.104 21.4317 240.998 20.6573 241.931ZM289.226 251.019C289.087 252.675 288.791 254.253 288.567 254.523C288.344 254.793 288.025 255.775 287.858 256.704C287.691 257.634 287.432 258.627 287.282 258.911L287.009 259.428L285.813 258.808C284.286 258.015 284.073 258.173 283.226 260.723C282.715 262.26 282.31 262.83 281.728 262.83C281.252 262.83 280.281 263.725 279.32 265.048C276.849 268.45 276.462 269.152 275.307 272.336C274.716 273.962 273.267 277.954 272.087 281.207C270.906 284.46 269.935 287.739 269.93 288.495C269.919 289.958 269.537 290.163 268.28 289.378C267.163 288.681 266.118 289.226 266.118 290.504C266.118 291.131 265.045 293.185 263.583 295.36C262.189 297.433 261.048 299.223 261.048 299.337C261.048 300.064 264.321 300.858 268.019 301.029L272.243 301.224L274.356 298.981C275.517 297.747 277.209 295.335 278.114 293.62C280.272 289.532 283.937 282.173 285.127 279.538L286.072 277.446L286.656 278.246C287.611 279.551 287.163 281.36 284.981 285.009C282.564 289.053 280.317 293.058 278.58 296.416C277.582 298.346 276.437 299.975 275.909 300.213C273.797 301.169 275.447 301.487 282.882 301.558L290.493 301.63L290.762 296.332C290.91 293.418 290.927 290.867 290.8 290.662C290.304 289.859 289.353 290.318 289.353 291.359C289.353 291.947 288.593 293.77 287.663 295.41C286.734 297.051 285.973 298.638 285.973 298.937C285.973 299.236 285.717 299.694 285.404 299.953L284.834 300.426L284.151 299.671L283.468 298.917L284.144 297.666C284.517 296.979 285.094 295.893 285.428 295.254C285.762 294.615 286.187 294.092 286.374 294.092C286.56 294.092 286.822 293.545 286.956 292.876C287.09 292.207 287.493 291.366 287.852 291.007C288.211 290.648 288.704 289.912 288.947 289.371C289.19 288.831 289.642 287.949 289.951 287.412L290.513 286.435L290.642 271.992C290.713 264.049 290.784 255.461 290.801 252.909L290.832 248.269L290.155 248.137L289.479 248.006L289.226 251.019ZM43.7161 252.664C43.2805 253.146 43.109 253.711 43.3 254.037C44.5006 256.091 50.467 263.675 50.8815 263.675C51.162 263.675 52.1091 264.245 52.9862 264.942L54.5809 266.21H57.4803C61.5127 266.21 61.2901 265.693 55.2958 261.13C53.4247 259.705 50.3508 257.034 48.465 255.193C44.654 251.473 44.7486 251.523 43.7161 252.664ZM218.159 262.79C217.002 263.903 214.44 266.203 212.465 267.901C210.49 269.6 207.163 272.644 205.072 274.668C198.781 280.753 198.308 281.173 195.835 282.876C194.133 284.049 193.454 284.787 193.454 285.467C193.454 287.68 194.572 288.465 195.648 287.009C195.952 286.598 196.771 285.91 197.468 285.481C198.165 285.052 200.939 282.449 203.632 279.698C206.325 276.947 209.557 273.936 210.814 273.008C212.071 272.079 213.289 271.134 213.521 270.908C213.754 270.683 215.367 269.058 217.106 267.298C218.845 265.538 220.413 264.098 220.591 264.098C221.008 264.098 221 261.929 220.581 261.27C220.363 260.927 219.594 261.409 218.159 262.79ZM49.9233 266.417C47.9158 267.29 48.1405 267.897 51.3918 270.389L53.1771 271.757L54.5505 271.624C56.1318 271.47 57.2991 269.826 56.5053 268.869C56.0857 268.364 51.8092 265.768 51.456 265.804C51.3681 265.813 50.6787 266.089 49.9233 266.417ZM61.5342 266.463C60.9698 267.027 61.2123 268.604 61.9634 269.256C63.832 270.878 67.5509 270.287 66.9709 268.46C66.5691 267.194 62.3521 265.645 61.5342 266.463ZM196.995 269.704C195.34 270.919 193.463 272.293 192.823 272.758C192.183 273.223 190.762 274.297 189.665 275.145C187.875 276.53 184.556 278.461 183.966 278.461C183.84 278.461 183.738 277.807 183.738 277.008C183.738 275.123 183.115 274.772 182.212 276.15C181.464 277.292 176.427 281.007 172.196 283.538C166.879 286.719 166.184 287.736 168.642 288.738L169.957 289.275L171.951 288.248C174.875 286.741 178.007 284.255 178.179 283.304C178.37 282.255 179.899 280.574 180.662 280.574H181.241L180.964 282.052C180.811 282.865 180.858 283.531 181.068 283.531C181.702 283.531 187.978 279.439 191.127 276.972C192.751 275.7 194.404 274.659 194.799 274.659C195.195 274.659 195.807 274.248 196.159 273.745C196.511 273.242 197.235 272.804 197.767 272.772L198.735 272.713L199.872 270.412C201.732 266.649 201.299 266.542 196.995 269.704ZM62.7733 274.941C62.6183 275.095 62.4915 275.676 62.4915 276.23C62.4915 278.06 66.8843 279.17 75.5878 279.538C83.0806 279.856 89.0081 281.665 92.602 284.731L93.351 285.37L93.8284 284.892L94.3058 284.415L93.5859 282.53C93.1901 281.493 92.0545 279.773 91.0626 278.708L89.2586 276.771L87.5984 276.739C86.6854 276.721 85.2727 276.665 84.4595 276.614C83.6463 276.564 82.2204 276.685 81.291 276.885C79.4069 277.288 70.6129 276.324 66.7094 275.286C64.1434 274.603 63.1941 274.52 62.7733 274.941ZM119.735 276.805C113.357 277.925 106.854 279.735 98.9474 282.591L95.4811 283.843L96.0121 284.569C96.585 285.353 100.774 285.818 101.582 285.188C101.822 285.001 103.057 284.816 104.328 284.777C108.813 284.638 109.744 284.337 112.889 282.009L115.933 279.756L119.784 279.772C124.329 279.791 126.346 279.114 127.311 277.248C128.406 275.131 129.048 275.169 119.735 276.805ZM40.6575 276.609C40.3998 277.281 47.1803 284.028 48.2926 284.208C51.7471 284.765 55.5813 286.115 61.2241 288.762L63.9701 290.05L68.3578 290.21C77.0685 290.528 86.9943 288.277 86.9943 285.983C86.9943 285.722 86.4417 285.646 85.6213 285.792C81.147 286.591 74.2765 286.971 72.2318 286.532C71.0341 286.275 69.3033 286.066 68.3853 286.066C65.123 286.066 66.7753 285.322 70.1748 285.26C74.7999 285.176 76.8552 284.628 76.8552 283.479C76.8552 282.968 72.0353 283.014 66.7161 283.576L62.2803 284.045L58.4781 282.773C56.387 282.074 52.9819 280.987 50.911 280.357C48.8401 279.728 45.9378 278.474 44.4609 277.57C41.464 275.736 41.0343 275.627 40.6575 276.609ZM151.894 277.109C151.27 278.12 144.09 282.151 141.28 283.069C139.654 283.6 135.903 284.387 132.944 284.82C129.315 285.35 126.635 286.007 124.706 286.839C123.134 287.517 120.754 288.407 119.418 288.817C118.02 289.245 116.989 289.804 116.989 290.134C116.989 290.79 120.206 293.247 121.066 293.247C121.38 293.247 121.636 293.437 121.636 293.67C121.636 294.902 127.391 293.013 131.392 290.467C134.99 288.178 137.075 287.259 139.11 287.067C140.984 286.89 146.683 284.358 147.242 283.455C147.36 283.264 147.803 283.108 148.227 283.108C149.008 283.108 153.743 279.477 153.743 278.879C153.743 278.142 152.181 276.646 151.894 277.109ZM192.648 278.217C191.675 279.03 190.176 280.347 189.316 281.143C185.922 284.285 180.787 288.302 176.685 291.024C171.833 294.243 172.072 293.947 173.173 295.36L173.996 296.416L175.804 295.398C176.798 294.838 178.943 293.304 180.569 291.989C184.664 288.678 184.504 288.73 185.231 290.471C185.578 291.301 186.024 291.98 186.223 291.98C186.815 291.98 190.808 288.656 191.086 287.932C191.482 286.9 191.45 286.883 189.652 287.171L187.962 287.441V286.753C187.962 286.375 188.145 286.066 188.368 286.066C188.592 286.066 190.313 284.519 192.193 282.628L195.612 279.191L195.483 278.119C195.295 276.543 194.625 276.566 192.648 278.217ZM28.69 283.117C28.1167 284.189 28.2857 284.452 30.6291 286.135C31.6755 286.886 32.9205 288.13 33.3954 288.898C33.9104 289.732 35.473 291.004 37.2715 292.055L40.2849 293.814L43.8893 294.144C48.0721 294.526 49.4413 294.843 50.0323 295.566C50.6677 296.343 54.4267 298.161 56.5843 298.735C57.626 299.012 59.3336 299.682 60.3792 300.223C61.4248 300.765 63.2038 301.296 64.3326 301.405L66.3849 301.603L67.7119 300.417C68.4419 299.765 68.9256 299.118 68.7866 298.979C68.5162 298.709 64.796 297.695 62.7028 297.321C60.5085 296.928 57.2746 295.896 55.5209 295.028C52.2587 293.414 49.8587 292.402 49.2917 292.402C48.977 292.402 48.5385 292.24 48.318 292.042C48.097 291.844 46.9661 291.435 45.8043 291.133C44.6426 290.831 43.4069 290.351 43.0583 290.065C42.7098 289.779 41.1201 288.923 39.5261 288.161C37.9318 287.4 36.1257 286.358 35.5128 285.845C34.3713 284.892 29.8966 282.263 29.4145 282.263C29.2675 282.263 28.9414 282.647 28.69 283.117ZM161.758 283.512C159.917 284.59 152.245 287.071 145.505 288.766C141.323 289.819 136.401 291.162 134.568 291.752C132.735 292.342 130.816 292.825 130.303 292.825C129.201 292.825 127.764 294.257 128.184 294.937C129.895 297.706 139.913 296.212 149.275 291.791C151.384 290.795 153.888 289.862 154.841 289.718C155.792 289.574 157.996 288.807 159.736 288.014L162.9 286.572L163.432 285.288C164.21 283.41 163.399 282.551 161.758 283.512ZM217.957 285.009C217.37 285.717 215.422 285.879 215.422 285.221C215.422 284.988 215.156 284.798 214.831 284.798C214.43 284.798 214.239 285.304 214.239 286.368V287.937L213.035 288.946C212.373 289.5 211.164 290.572 210.349 291.329C209.534 292.085 208.44 292.838 207.92 293.004C207.399 293.169 206.973 293.481 206.973 293.698C206.973 293.915 206.715 294.092 206.4 294.092C206.085 294.092 204.956 294.758 203.891 295.571C202.826 296.384 201.753 297.049 201.506 297.049C201.26 297.049 201.059 297.214 201.059 297.415C201.059 297.615 200.155 298.12 199.052 298.537C197.949 298.953 196.592 299.644 196.038 300.073C195.483 300.501 194.794 300.852 194.505 300.852C194.216 300.852 193.744 301.137 193.454 301.485L192.928 302.119L193.508 302.178C193.827 302.21 196.262 302.27 198.92 302.31L203.752 302.383L207.449 299.305C211.057 296.303 216.69 290.785 216.69 290.253C216.69 290.106 217.353 289.152 218.164 288.132C220.135 285.653 219.934 282.627 217.957 285.009ZM91.0731 287.683C90.0926 288.767 90.1792 289.078 91.8264 290.393C94.043 292.161 95.1744 292.576 96.2352 292.009C97.7936 291.174 97.3171 290.048 94.7173 288.422C91.9066 286.663 91.9818 286.678 91.0731 287.683ZM225.97 294.933C223.314 297.719 220.878 299.953 220.556 299.897C220.234 299.841 219.755 300.133 219.492 300.547L219.013 301.298L219.57 301.645C219.876 301.836 221.726 302.022 223.683 302.059L227.24 302.125L228.942 298.575C230.564 295.194 231.884 291.536 231.894 290.396C231.905 289.111 230.482 290.201 225.97 294.933ZM70.9154 292.634L69.0397 293.598L70.2289 294.056C70.8829 294.309 71.5626 294.515 71.7396 294.515C71.9162 294.515 72.5072 294.99 73.053 295.571C73.5989 296.152 74.3065 296.627 74.6259 296.627C74.9448 296.627 75.9929 297.007 76.9549 297.472C80.357 299.116 85.9389 298.379 88.543 295.943C90.4538 294.156 90.3575 293.705 88.156 294.131C85.3065 294.682 83.5288 294.575 80.6227 293.677C79.1314 293.216 76.7593 292.576 75.3512 292.255L72.7907 291.67L70.9154 292.634ZM106.209 294.914C105.74 295.104 105.087 295.764 104.757 296.381L104.157 297.501L105.072 298.417L105.987 299.332L108.806 299.511L111.624 299.691L112.396 298.687C113.56 297.173 113.377 296.738 111.088 295.578C108.927 294.483 107.688 294.314 106.209 294.914ZM162.097 295.173C160.498 296.042 159.977 297.147 160.51 298.547L160.94 299.678L162.887 299.386C165.597 298.98 166.002 298.773 166.463 297.562L166.867 296.499L165.934 295.507C164.87 294.374 163.75 294.276 162.097 295.173ZM213.403 298.643C210.428 301.757 210.487 302.102 214 302.113L216.169 302.119L216.468 299.327C216.876 295.516 216.476 295.426 213.403 298.643Z" fill="#FBFDFD"/>
</svg>
