<svg width="300" height="365" viewBox="0 0 300 365" fill="none" xmlns="http://www.w3.org/2000/svg">
<path fill-rule="evenodd" clip-rule="evenodd" d="M273.85 13.7097C256.994 31.3372 249.268 38.9277 238.896 48.0507L230.457 55.4727L226.144 55.0462C223.771 54.811 211.802 54.439 199.544 54.2187C187.288 53.9991 177.021 53.6718 176.729 53.4911C176.437 53.3111 164.149 53.2105 149.421 53.2679C134.694 53.3246 121.687 53.3749 120.518 53.3792C119.35 53.3827 108.603 53.1418 96.638 52.8428L74.8823 52.2994L74.0215 54.1896C73.4965 55.3409 73.4157 56.3271 73.8139 56.7139C74.1738 57.0625 87.2203 57.5464 102.807 57.7894C118.393 58.0324 135.45 58.3399 140.71 58.4724C173.603 59.302 187.52 59.6484 201.88 59.9949C218.628 60.3994 220.059 60.5588 220.059 62.0246C220.059 63.1398 209.136 71.8207 205.879 73.295C201.859 75.1137 194.325 79.3957 192.79 80.734C188.824 84.1927 180.068 89.1804 173.226 91.8789C162.581 96.0766 152.522 104.075 149.688 110.593C149.265 111.567 148.108 113.64 147.117 115.198C143.662 120.632 139.293 130.557 139.293 132.97C139.293 133.881 138.684 135.196 137.939 135.893C137.194 136.591 135.734 139.393 134.693 142.12C130.3 153.629 126.159 159.881 116.732 169.239C107.853 178.052 106.148 179.196 100.977 179.808C99.0383 180.038 97.2827 180.499 97.0766 180.833C96.2136 182.229 88.4027 180.885 82.261 178.283C70.2602 173.199 63.8761 172.735 49.3199 175.886C36.0842 178.751 28.5581 184.229 23.4422 194.72L20.7975 200.143L21.1454 206.244C21.3367 209.6 21.863 213.035 22.3143 213.879L23.1348 215.413L21.0363 219.15C18.8414 223.058 15.3104 233.076 15.3104 235.397C15.3104 239.168 24.5885 235.307 32.5341 228.23L37.3602 223.932L41.5154 224.241C46.0326 224.579 48.2104 225.432 48.8573 227.117C49.4212 228.588 51.3284 228.477 54.2877 226.802C55.6451 226.033 57.8052 224.875 59.0883 224.227C63.021 222.243 72.0477 213.3 73.4717 209.978C74.9474 206.535 75.3414 206.39 77.8494 208.362C81.2047 211.001 83.1926 210.051 85.9996 204.466C89.1218 198.252 91.0014 197.965 92.9561 203.4C94.6919 208.227 95.5356 207.856 94.9625 202.517C94.7004 200.082 94.4786 197.93 94.4687 197.735C94.3574 195.489 95.8169 191.168 96.8796 190.6C97.6065 190.211 98.2016 189.559 98.2016 189.151C98.2016 187.653 103.305 182.237 105.408 181.504L107.575 180.748L109.6 181.944L111.624 183.14L113.464 181.405C115.325 179.649 122.589 174.874 127.376 172.259C128.81 171.476 131.401 168.998 133.135 166.751C134.868 164.504 136.963 162.059 137.79 161.316C138.616 160.574 139.293 159.393 139.293 158.691C139.293 157.989 140.062 156.281 141.003 154.895C141.944 153.508 142.932 151.087 143.197 149.515L143.68 146.656L142.133 142.843L140.585 139.031L141.533 137.305C145.015 130.968 146.479 127.665 149.254 119.888L152.383 111.117L153.989 110.386C156.237 109.362 156.645 110.114 155.813 113.747C154.694 118.637 158.533 120.409 161.887 116.551L163.482 114.717L164.849 115.953C166.92 117.827 166.531 120.087 163.711 122.564C162.333 123.773 160.899 124.763 160.522 124.763C160.146 124.763 159.839 125.275 159.839 125.901C159.839 126.651 160.223 126.892 160.967 126.607C161.588 126.369 162.837 125.988 163.743 125.76L165.39 125.346L166.218 126.893L167.045 128.439L165.443 130.143C164.563 131.08 163.021 131.871 162.018 131.901C157.588 132.032 152.365 135.39 156.592 135.39C157.656 135.39 158.422 135.79 158.422 136.347C158.422 138.354 156.824 141.766 155.884 141.766C155.343 141.766 153.868 142.689 152.606 143.817L150.31 145.868L151.52 149.649L152.728 153.43L149.923 157.43C148.379 159.631 146.799 162.266 146.41 163.288C146.022 164.31 145.218 165.146 144.624 165.146C142.937 165.146 143.334 166.211 146.023 168.9C149.779 172.656 148.738 175.153 143.919 173.943C142.553 173.6 141.63 173.867 140.494 174.932C139.453 175.909 137.768 176.465 135.396 176.614L131.854 176.835L131.5 178.961C130.982 182.067 130.073 183.207 126.785 184.871C122.937 186.818 120.873 189.511 120.873 192.585C120.873 193.934 120.315 195.987 119.633 197.147L118.393 199.257L120.341 200.68C122.741 202.434 122.881 204.112 120.628 204.112C118.718 204.112 116.028 206.68 117.029 207.55C117.389 207.864 119.178 209.312 121.004 210.769C123.03 212.385 124.495 214.2 124.764 215.426C125.058 216.758 125.907 217.726 127.29 218.298C130.773 219.74 129.715 221.835 124.599 223.627L121.935 224.559L122.137 226.897C122.353 229.388 123.288 230.222 127.243 231.451C130.815 232.562 130.324 233.924 125.478 236.347L121.227 238.472L119.792 241.52C117.956 245.423 117.491 245.671 111.73 245.839C106.411 245.995 104.931 245.126 105.631 242.26L106.035 240.598L100.743 235.461C97.8318 232.637 95.2721 230.325 95.0546 230.325C94.3886 230.325 94.6146 233.528 95.4499 235.923C96.6359 239.327 95.6731 239.415 92.3419 236.208C90.6939 234.622 88.6082 232.946 87.7063 232.484L86.0669 231.643L85.0495 232.488C84.3602 233.06 84.0322 234.788 84.0322 237.85V242.369H82.5047C81.6652 242.369 79.933 241.572 78.6556 240.598C77.3782 239.624 75.595 238.825 74.6924 238.824C73.7898 238.822 71.9789 238.168 70.669 237.369L68.2871 235.917L67.0706 237.018C66.4018 237.623 65.162 238.118 64.3161 238.118C62.7213 238.118 62.2495 239.125 63.4865 239.889C64.6923 240.635 64.2679 241.661 62.7546 241.661C60.2084 241.661 54.3373 238.178 48.9217 233.454L43.6493 228.856V230.193C43.6493 232.456 51.6543 244.414 56.4556 249.324C68.8893 262.036 81.0828 270.823 89.7 273.282C91.8431 273.894 94.5721 274.952 95.7638 275.635C99.2764 277.647 108.927 281.144 112.371 281.652C114.125 281.91 118.828 282.796 122.823 283.618L130.086 285.115L131.679 284.369C132.555 283.958 134.387 283.585 135.751 283.538C137.114 283.492 139.688 283.091 141.471 282.647L144.711 281.839L152.806 285.827C157.258 288.021 162.017 290.001 163.381 290.227C164.745 290.453 166.602 290.789 167.507 290.973L169.154 291.307L168.924 289.686C168.685 287.999 165.451 285.987 161.787 285.245C160.715 285.028 159.839 284.544 159.839 284.169C159.839 283.794 160.715 283.279 161.787 283.025C164.555 282.367 165.992 280.904 167.341 277.371C167.988 275.676 169.115 274.099 169.846 273.868C171.329 273.397 171.495 272.353 170.504 269.747C170.012 268.453 170.095 267.767 170.816 267.168L171.798 266.354L174.852 267.716C178.097 269.163 184.635 275.609 184.635 277.36C184.635 277.935 183.998 278.608 183.218 278.855C182.359 279.128 181.801 279.927 181.801 280.887C181.801 282.751 180.567 284.169 178.945 284.169C178.31 284.169 177.363 284.966 176.842 285.94C176.321 286.914 175.709 287.703 175.482 287.693C175.093 287.676 173.254 283.845 172.346 281.158C171.857 279.711 170.466 279.485 170.466 280.852C170.466 284.314 172.994 289.639 176.294 293.129C180.463 297.536 181.164 297.762 180.919 294.619L180.739 292.316L182.987 292.098C184.433 291.958 185.64 291.261 186.373 290.142L187.512 288.403L189.262 288.843L191.011 289.282V287.83C191.011 285.528 192.2 285.379 195.06 287.323L197.716 289.128H202.738H207.759L209.359 287.288L210.959 285.448L213.437 285.914C214.985 286.204 216.302 286.058 216.945 285.524L217.975 284.669L219.817 285.508C222.318 286.648 222.625 286.069 220.845 283.569C218.859 280.78 218.928 279.785 221.072 280.323L222.793 280.755L222.809 275.834C222.82 272.211 222.443 270.202 221.377 268.213C220.464 266.51 220.071 264.801 220.314 263.589C220.764 261.336 217.878 256.295 214.711 253.804C212.084 251.738 210.009 248.254 210.278 246.362L210.494 244.849L215.454 244.69L220.413 244.531L223.07 248.684C224.531 250.968 225.727 253.198 225.727 253.64C225.727 254.081 226.524 254.806 227.498 255.25C228.692 255.795 229.269 256.628 229.269 257.811C229.269 258.775 230.066 260.303 231.04 261.206C232.015 262.109 232.811 263.639 232.811 264.61C232.811 265.58 233.13 266.57 233.52 266.811C234.914 267.673 234.188 269.363 231.824 270.758C228.913 272.475 227.91 274.77 227.82 279.918C227.758 283.527 228.894 293.318 229.606 295.305C230.123 296.747 228.82 296.989 225.241 296.116C222.298 295.398 218.827 295.072 210.849 294.764C209.875 294.726 208.135 294.856 206.983 295.054C205.831 295.251 203.354 295.057 201.478 294.625L198.069 293.838L195.679 294.978C190.711 297.347 189.921 301.924 193.464 307.808C199.565 317.939 207.33 325.197 212.718 325.805L216.028 326.178L216.976 324.883L217.923 323.587L221.221 325.234C223.315 326.28 226.298 327.009 229.389 327.23L234.258 327.578L235.627 326.34C236.621 325.439 236.884 324.543 236.586 323.057L236.177 321.012L239.276 321.396C242.816 321.833 243.538 321.472 244.923 318.571C245.561 317.234 246.695 316.286 248.082 315.93C251.171 315.135 253.691 312.219 253.496 309.664L253.337 307.582L256.252 305.653C257.856 304.591 259.431 303.031 259.753 302.183C260.075 301.337 261.2 300.427 262.252 300.163C264.186 299.677 268.379 296.63 271.584 293.38L273.33 291.609L272.907 288.42L272.484 285.232L274.921 283.288L277.356 281.345L277.84 278.118C278.45 274.055 277.038 266.562 275.31 264.686L274.004 263.269L275.435 257.601C277.32 250.135 277.252 249.509 274.234 246.735L271.662 244.37L269.877 244.817C268.895 245.064 267.088 244.946 265.861 244.556C264.634 244.165 259.645 243.682 254.774 243.481C244.895 243.074 230.277 241.838 228.402 241.25C227.73 241.041 226.047 241.406 224.661 242.064L222.142 243.259L220.923 242.165C219.772 241.131 200.518 235.993 197.795 235.993C195.051 235.993 169.757 215.6 169.757 213.388C169.757 211.869 173.186 211.789 176.443 213.229C180.802 215.157 193.569 218.173 196.7 218.013L199.2 217.886L202.19 214.895C203.835 213.251 205.474 211.905 205.833 211.905C206.192 211.905 206.698 210.933 206.959 209.745C207.221 208.558 208.042 207.206 208.787 206.741C209.772 206.126 210.14 205.082 210.14 202.906V199.915L212.831 199.19C214.31 198.792 216.445 197.502 217.574 196.324L219.627 194.181L219.756 189.405C219.901 184.079 219.245 182.823 215.58 181.411C214.341 180.933 210.778 179.346 207.661 177.883C204.543 176.421 199.639 174.347 196.764 173.275C191.363 171.263 184.463 166.346 184.054 164.217C183.83 163.06 187.733 159.124 189.104 159.124C189.464 159.124 190.28 160.474 190.917 162.125C191.553 163.775 193.072 166.519 194.29 168.222L196.506 171.318L199.604 171.671C201.359 171.87 206.098 173.72 210.541 175.938C216.251 178.791 219.549 179.989 222.681 180.353L226.981 180.852L229.143 179.734C232.114 178.198 232.305 177.662 230.92 174.757L229.713 172.227L231.319 170.055C233.594 166.978 232.884 165.854 228.662 165.854C224.95 165.854 213.87 163.004 210.74 161.244C209.705 160.662 208.334 160.186 207.692 160.186C204.98 160.186 195.293 155.68 193.066 153.383L190.734 150.976H191.958C192.632 150.976 194.303 151.444 195.673 152.017C197.247 152.675 200.055 153 203.305 152.902L208.446 152.747L211.796 155.692C213.639 157.311 216.537 159.289 218.235 160.087L221.323 161.539L227.43 161.366L233.537 161.192L234.931 159.798C238.144 156.586 238.096 148.142 234.865 148.142C234.074 148.142 232.852 147.835 232.151 147.459C230.959 146.822 224.079 145.312 217.579 144.263C208.961 142.871 203.764 140.145 203.764 137.015C203.764 134.749 205.479 134.259 209.364 135.415C211.155 135.947 214.483 136.304 216.76 136.209C219.038 136.114 221.27 136.338 221.719 136.706C224.032 138.601 233.74 143.126 235.45 143.106C236.531 143.094 239.703 143.306 242.497 143.579L247.578 144.073L251.264 142.748C253.291 142.019 255.098 140.942 255.278 140.355C255.459 139.767 256.217 138.127 256.962 136.71C259.466 131.947 258.172 129.137 253.895 130.054C252.625 130.326 247.441 130.795 242.376 131.097L233.166 131.645L231.571 130.667C230.695 130.129 229.977 129.072 229.977 128.316V126.943L232.988 126.194C234.644 125.781 237.567 124.967 239.483 124.384C241.399 123.8 245.122 122.987 247.758 122.578L252.55 121.835L255.238 119.3C256.717 117.905 258.959 116.333 260.22 115.805C261.482 115.278 263.243 114.199 264.135 113.407C269.237 108.872 271.923 106.906 274.705 105.676C278.8 103.865 288.554 94.5874 289.203 91.886C289.883 89.0578 288.759 87.6083 285.682 87.3468L283.081 87.1265L278.219 90.3578C272.694 94.0313 272.451 94.0922 270.761 92.224C268.917 90.1871 269.687 88.897 277.07 81.6401C283.76 75.0655 292.818 62.7756 296.828 54.8344L298.689 51.1482L298.003 49.3437C297.104 46.9802 295.876 47.0653 293.386 49.6646C291.3 51.8418 288.123 52.473 286.005 51.1326L284.999 50.4964L289.318 45.7836C294.028 40.6444 299.288 31.0177 299.906 26.4069C300.625 21.0523 297.073 18.7079 293.852 22.4118C291.756 24.8221 288.929 25.8741 287.573 24.7484C287.004 24.2758 285.218 23.9677 283.604 24.0626L280.669 24.2362L283.555 21.5411C286.901 18.4168 289.701 13.1755 290.825 7.93209L291.614 4.25229L290.533 2.16159C288.702 -1.38077 287.451 -0.515727 273.85 13.7097ZM60.275 50.5297C59.2187 51.7851 57.8563 53.8574 57.247 55.1348C55.6543 58.4745 54.3472 58.0558 51.7719 53.3813C51.1074 52.1748 32.8826 50.9689 30.0615 51.9452C28.855 52.3625 27.6803 52.3434 26.8379 51.8928C23.953 50.349 7.81405 50.9937 5.21467 52.7571C3.33793 54.0295 2.5409 56.9258 3.84449 57.7313C4.39922 58.0742 4.24123 65.4643 3.49875 73.8335C3.30534 76.0205 3.46545 78.9663 3.85582 80.3797C4.34821 82.1623 4.32553 83.5849 3.78213 85.0238L2.99927 87.0982L4.32765 90.044C5.20191 91.9824 5.40312 93.1521 4.91781 93.4666C4.51186 93.7295 4.01452 95.4468 3.81331 97.2825L3.44632 100.621L4.92631 101.604L6.40632 102.587L4.83635 103.426C3.1849 104.311 2.60041 107.973 3.97484 108.822C4.91286 109.402 4.88453 112.51 3.93659 113.097C3.43996 113.404 3.55827 114.121 4.29083 115.239C5.68014 117.36 5.6766 118.315 4.27241 119.866C3.46829 120.755 3.3436 121.468 3.82961 122.401C4.38931 123.477 4.08962 128.512 3.28905 131.493C3.1842 131.883 3.17285 132.52 3.26354 132.91C3.40665 133.523 3.88769 152.332 3.94295 159.478C4.02726 170.268 3.74458 176.259 3.11617 177.017C2.39495 177.886 2.29931 188.347 2.94969 195.282C3.12964 197.203 2.81862 199.929 2.21642 201.701C1.22881 204.61 1.36483 206.945 2.52106 206.945C2.80728 206.945 2.7924 208.46 2.48776 210.311C1.62626 215.544 1.74458 222.144 2.71731 223.116L3.58519 223.984L2.71731 225.373C2.18454 226.226 1.84943 229.47 1.84943 233.771V240.779L2.91213 241.661C4.27594 242.793 4.27027 245.175 2.89866 247.133L1.82179 248.669L1.55045 269.785C1.22456 295.159 0.567085 330.211 0.0987853 347.223C-0.0882513 354.042 -0.00181543 360.003 0.291492 360.471L0.825678 361.32L52.5243 361.457C80.9588 361.532 104.95 361.863 105.838 362.191C106.756 362.532 109.735 362.472 112.751 362.053C115.665 361.647 118.445 361.571 118.93 361.883C119.414 362.194 143.562 362.516 172.591 362.597C201.621 362.68 227.285 362.892 229.623 363.07C231.961 363.248 241.207 363.468 250.169 363.56C259.131 363.652 267.235 364.011 268.176 364.358C270.537 365.229 271.033 364.169 271.06 358.204C271.071 355.477 271.264 343.238 271.49 331.007C271.938 306.588 271.757 304.006 269.602 304.006C267.12 304.006 266.746 307.077 266.473 329.665L266.209 351.474H267.658H269.106L267.962 353.22C267.333 354.18 266.818 355.774 266.818 356.762V358.558L262.744 358.694C260.503 358.77 257.873 358.813 256.899 358.792C255.925 358.77 246.361 358.529 235.645 358.254C224.93 357.98 215.843 357.76 215.454 357.765C213.399 357.791 209.63 357.803 201.639 357.81C196.768 357.814 189.913 357.833 186.406 357.853C180.306 357.888 136.925 357.188 133.979 357.008C133.2 356.959 130.809 356.98 128.666 357.053C126.523 357.126 119.35 357.022 112.725 356.822C97.9699 356.376 53.5665 355.774 27.7087 355.669L8.57991 355.591L6.915 354.532L5.24939 353.473L5.70352 351.234C6.28588 348.363 6.27383 347.896 5.44562 341.658C5.06163 338.767 5.00779 335.087 5.32448 333.391C5.63904 331.711 5.90188 318.679 5.91038 304.433L5.92526 278.529L4.93412 277.707L3.94295 276.884L5.08786 275.137L6.23204 273.39L6.17394 242.116C6.14206 224.915 6.13498 210.204 6.15907 209.425C6.18245 208.646 6.31705 198.811 6.45804 187.569C6.59903 176.327 6.83989 167.004 6.99363 166.849C7.14737 166.696 7.12187 160.75 6.93625 153.636C6.75063 146.523 6.65711 139.986 6.72795 139.109C6.87319 137.312 6.94971 132.306 6.85124 130.962C6.81581 130.475 6.9894 122.584 7.23736 113.427C7.72833 95.2385 7.75242 91.2435 7.48462 71.4147C7.36276 62.3711 7.55759 57.8425 8.09178 57.3083C8.99579 56.4043 26.1351 56.2315 30.3775 57.0837C31.9056 57.3912 34.3598 57.2892 36.1203 56.8457L39.1944 56.0721L42.2373 56.9527C47.3071 58.4206 47.412 59.8702 42.9408 66.668C41.7874 68.4214 40.5532 70.5036 40.1976 71.295C39.2475 73.4105 36.2422 79.5565 35.358 81.1916C31.2468 88.7943 28.1337 96.2091 25.1822 105.427C24.4072 107.846 23.4635 110.017 23.0845 110.251C22.7054 110.485 22.3951 111.363 22.3951 112.201C22.3951 113.04 21.6087 116.129 20.648 119.067C15.7518 134.037 16.0082 151.921 21.2623 161.856C23.9545 166.949 30.3853 174.862 32.6814 175.907L34.3754 176.679L36.5327 175.786C37.7194 175.294 38.6886 174.532 38.6871 174.093C38.6786 171.51 32.7232 165.49 28.4171 163.71C27.6378 163.389 25.6966 161.906 24.1032 160.416L21.2063 157.707L20.726 153.582L20.2456 149.458L21.7228 147.383C23.7263 144.569 25.489 144.75 27.4061 147.965C33.4891 158.169 42.2026 170.167 44.7339 171.826L46.486 172.973L48.6079 171.877C49.7747 171.273 53.3065 170.415 56.457 169.97L62.185 169.159L66.9091 170.045C69.5078 170.531 73.5468 171.525 75.8848 172.254C83.865 174.74 98.9278 176.046 99.9799 174.344C100.391 173.679 92.4609 167.979 91.1254 167.979C90.5147 167.979 89.3273 167.498 88.4863 166.909L86.9575 165.838L87.3648 163.33L87.7715 160.824L85.7545 158.718C84.487 157.396 82.7173 156.451 80.9907 156.174C77.9181 155.683 77.1671 154.63 78.3347 152.448C80.0555 149.233 76.1419 146.738 69.3611 146.73L66.3799 146.725L64.5768 143.648L62.7738 140.572L63.5467 138.356C64.1135 136.729 64.0993 135.475 63.4929 133.637C63.0147 132.19 62.885 130.164 63.1847 128.834C63.4695 127.569 63.6849 123.828 63.6629 120.521C63.6374 116.562 63.9775 113.825 64.659 112.505C66.1433 109.637 65.6636 106.046 63.7607 105.774C62.9374 105.657 61.8988 104.76 61.4525 103.781C60.9055 102.58 60.2389 102.116 59.4071 102.355C58.7284 102.551 56.4556 102.81 54.3564 102.933L50.5399 103.154L49.8102 102.002L49.0797 100.849L52.0468 96.1517C53.9859 93.0805 55.1612 90.2906 55.4411 88.0943C55.6969 86.0836 57.5438 81.3964 60.0391 76.4222C63.7841 68.9577 65.7926 62.8153 66.8192 55.6866C67.2407 52.7557 65.2541 48.2477 63.5396 48.2477C62.8007 48.2477 61.3313 49.275 60.275 50.5297ZM251.586 68.86C249.638 69.6499 246.449 71.0499 244.501 71.9702C242.553 72.8898 239.926 73.8519 238.664 74.1062C237.402 74.3613 236.188 74.8643 235.965 75.2242C235.744 75.5841 234.845 75.8781 233.968 75.8781C233.091 75.8781 231.808 76.2918 231.117 76.797L229.859 77.7166L230.344 80.299L230.828 82.8814L232.903 83.3369L234.978 83.7931L238.323 81.6826C240.162 80.5221 242.464 79.3376 243.438 79.0506C246.503 78.1473 251.531 75.3829 252.935 73.8292C253.678 73.0081 254.696 72.3357 255.198 72.3357C255.701 72.3357 256.978 71.5911 258.036 70.6808C261.834 67.414 257.892 66.301 251.586 68.86ZM252.294 86.6193C249.956 87.8414 244.855 89.9902 240.959 91.3951L233.874 93.9491L233.647 95.5439C233.331 97.7685 234.907 98.1482 239.327 96.9119C241.393 96.3338 244.247 95.6601 245.669 95.4156C247.091 95.1705 249.003 94.3841 249.92 93.6685C250.836 92.953 253.011 91.6444 254.752 90.7596C256.493 89.8754 258.805 88.496 259.888 87.6954C264.996 83.9193 259.067 83.0797 252.294 86.6193ZM244.501 104.586C242.553 105.093 239.205 106.1 237.062 106.823L233.166 108.14L233.248 110.807C233.356 114.28 233.847 114.666 236.308 113.212C237.427 112.551 238.943 112.01 239.676 112.01C241.662 112.01 250.86 108.874 253.016 107.462L254.893 106.232L253.661 104.87C252.245 103.304 249.729 103.227 244.501 104.586ZM269.713 122.027C268.136 123.72 267.825 125.135 268.887 125.791C269.412 126.115 269.495 138.578 268.972 138.578C268.892 138.578 268.737 141.766 268.629 145.663C268.52 149.559 268.181 161.674 267.874 172.585C267.567 183.495 267.354 193.538 267.4 194.901C267.55 199.339 267.463 214.149 267.226 224.657L266.994 234.93L268.714 237.233C270.71 239.907 272.447 240.226 272.574 237.941C272.859 232.792 273.101 220.118 273.17 206.728C273.179 204.855 273.532 202.678 273.954 201.89L274.72 200.458L273.692 197.857L272.662 195.256L272.938 184.274C273.091 178.235 273.322 169.815 273.453 165.564C273.584 161.313 273.472 153.661 273.204 148.561C272.936 143.46 272.977 138.568 273.293 137.689C273.631 136.754 273.553 135.398 273.105 134.414C272.547 133.188 272.564 132.316 273.171 131.184C273.776 130.051 273.79 129.378 273.223 128.693C272.762 128.139 272.625 126.622 272.887 124.985C273.21 122.962 273.041 121.976 272.26 121.327L271.191 120.44L269.713 122.027ZM59.5899 184.422C58.4209 184.828 56.6497 185.917 55.6543 186.843C54.6589 187.768 53.1357 188.525 52.2692 188.525C46.0715 188.525 37.273 196.925 37.273 202.843C37.273 204.572 33.1044 210.488 31.8858 210.488C31.3927 210.488 30.1656 210.175 29.1589 209.792L27.3289 209.096L25.9247 210.501C21.8212 214.604 27.4635 216.771 34.0785 213.631L36.6241 212.423L37.4799 213.521C37.9503 214.125 39.7704 214.795 41.5239 215.011C43.2773 215.226 46.0637 215.605 47.7166 215.852L50.7205 216.303L52.7822 214.989C53.9164 214.267 56.6292 212.011 58.8113 209.976L62.778 206.277V204.273C62.778 201.757 63.9364 200.569 66.3926 200.569H68.3069L69.0459 198.451C69.7281 196.493 71.6878 195.159 75.7239 193.907C79.0729 192.867 77.51 189.234 73.7147 189.234C72.421 189.234 71.1564 188.899 70.9028 188.488C70.6491 188.079 69.5942 187.808 68.5584 187.887C64.4387 188.201 63.5878 187.88 63.3561 185.923C63.0919 183.688 62.445 183.431 59.5899 184.422ZM45.9228 197.428C44.2338 198.611 41.5239 203.351 41.5239 205.121C41.5239 208.137 47.8668 208.074 51.4928 205.023C56.6023 200.724 51.3815 193.604 45.9228 197.428ZM30.5312 217.515C24.8783 221.803 17.5293 232.071 19.0363 233.578C21.1723 235.714 35.1476 220.319 35.1476 215.83C35.1476 214.263 34.515 214.493 30.5312 217.515ZM178.695 240.82C178.197 241.624 180.547 245.189 186.063 251.999C188.302 254.764 190.538 257.792 191.033 258.73C191.527 259.668 192.729 261.391 193.706 262.56L195.48 264.686L193.954 264.913C193.115 265.037 192.428 265.564 192.428 266.084C192.428 266.779 191.675 266.93 189.595 266.65C186.28 266.206 186.149 266.585 188.532 269.708C189.506 270.986 190.303 272.346 190.303 272.732C190.303 274.875 197.84 280.627 200.648 280.627C201.249 280.627 199.998 276.687 198.349 273.388C196.389 269.465 196.319 268.738 197.75 267.156L198.822 265.972L197.042 263.349C194.909 260.205 194.787 259.083 196.632 259.565L198.001 259.924L197.34 258.183C196.345 255.566 193.189 251.691 191.657 251.205C190.074 250.703 189.837 249.454 191.324 249.454C196.129 249.454 191.288 244.204 184.533 242.088C182.836 241.557 180.921 240.903 180.279 240.635C179.636 240.366 178.923 240.45 178.695 240.82Z" fill="#FBFDFD"/>
</svg>
