<svg width="500" height="500" viewBox="0 0 500 500" fill="none" xmlns="http://www.w3.org/2000/svg">
<path fill-rule="evenodd" clip-rule="evenodd" d="M265.497 73.2013C264.851 73.6655 263.716 75.4194 262.992 77.0756C262.708 77.7245 262.315 80.1429 262.119 82.4491C261.774 86.5121 259.943 93.162 258.863 94.2751C258.572 94.576 258.334 95.5309 258.334 96.3984C258.334 97.2659 258.108 98.1144 257.833 98.2846C257.557 98.4549 257.188 99.3114 257.013 100.188C256.658 101.959 251.057 111.414 246.226 118.397C244.501 120.89 242.801 123.35 242.448 123.862C238.833 129.111 226.055 148.771 226.208 148.85C226.317 148.906 226.933 149.243 227.576 149.599C228.22 149.954 229.541 150.419 230.513 150.633L232.28 151.021L233.946 149.009C239.245 142.608 245.678 133.206 245.678 131.86C245.678 131.604 246.551 130.154 247.617 128.637C248.684 127.119 249.729 125.334 249.94 124.669C250.151 124.004 251.643 121.696 253.255 119.539C254.867 117.382 256.972 114.187 257.933 112.439C258.893 110.691 260.279 108.225 261.013 106.959C261.746 105.694 262.633 104.011 262.984 103.22C263.335 102.429 263.972 101.006 264.4 100.056C266.456 95.4964 267.097 93.2978 267.925 87.9761C268.982 81.1754 268.935 76.8346 267.791 75.5696C267.335 75.0663 266.962 74.3667 266.962 74.0147C266.962 73.1547 266.172 72.7163 265.497 73.2013ZM287.376 75.6179L285.221 78.5546L284.57 82.9777C284.212 85.4104 283.503 88.1774 282.993 89.1266C282.485 90.0758 280.71 93.441 279.048 96.6049C277.387 99.7688 275.449 103.134 274.741 104.083C274.033 105.032 272.756 107.187 271.903 108.87C271.05 110.554 269.461 113.173 268.37 114.691C267.279 116.21 266.387 117.704 266.387 118.012C266.387 118.321 265.869 119.043 265.237 119.615C264.604 120.187 264.086 120.983 264.086 121.382C264.086 121.781 263.892 122.194 263.655 122.3C263.417 122.405 262.079 124.174 260.68 126.23C259.281 128.287 256.951 131.358 255.503 133.056C254.054 134.753 252.071 137.213 251.096 138.521C250.122 139.829 247.226 143.086 244.661 145.758C242.097 148.431 239.671 151.23 239.27 151.979L238.54 153.342L239.377 153.871C240.861 154.811 242.132 154.457 243.841 152.628L245.514 150.838L246.735 151.492C248.65 152.517 250.4 151.722 254.069 148.164C257.47 144.865 263.511 137.026 263.511 135.911C263.511 134.114 265.437 131.463 266.864 131.297C267.912 131.176 268.639 130.578 269.178 129.394C270.238 127.065 275.722 118.752 276.198 118.752C276.979 118.752 281.623 110.429 287.56 98.387C288.325 96.8362 289.32 93.4709 289.771 90.9087C290.222 88.3465 290.969 85.0509 291.432 83.5846C292.405 80.5007 292.493 78.9383 291.737 78.168C291.442 77.8677 291.118 76.6062 291.018 75.3648C290.76 72.1785 289.856 72.2412 287.376 75.6179ZM241.304 82.4979C239.824 83.0962 237.625 87.1529 237.623 89.2882C237.622 91.1831 235.288 100.497 233.642 105.179C232.985 107.047 232.447 108.93 232.447 109.361C232.447 109.793 231.8 111.171 231.009 112.424C230.218 113.677 229.571 114.918 229.571 115.182C229.571 115.445 228.9 117.052 228.079 118.753C227.258 120.454 226.448 122.699 226.279 123.741C226.11 124.784 225.617 125.931 225.183 126.291C224.749 126.652 224.394 127.172 224.394 127.447C224.394 127.723 222.868 131.121 221.004 134.999C219.139 138.877 216.436 145.076 214.996 148.774C212.304 155.693 210.738 159.092 210.012 159.595C209.784 159.753 209.109 160.758 208.511 161.828C206.592 165.26 204.18 168.842 201.106 172.826C198.612 176.057 197.388 178.716 197.461 180.748C197.546 183.138 195.159 191.763 193.581 194.763C192.81 196.23 192.179 197.79 192.179 198.23C192.179 198.67 190.759 201.353 189.022 204.192C187.286 207.032 185.702 209.743 185.502 210.217C182.659 216.955 179.444 220.572 176.299 220.572C175.75 220.572 174.833 220.994 174.263 221.511L173.225 222.45L171.54 221.751C170.01 221.117 169.198 219.774 169.177 217.839C169.173 217.429 169.88 217.12 170.825 217.12C171.735 217.12 172.766 216.776 173.116 216.354L173.752 215.588L172.917 214.485C171.604 212.749 171.874 211.943 173.771 211.943C175.88 211.943 175.939 211.391 174.034 209.487L172.572 208.025L173.283 205.192L170.143 202.722L171.454 199.846L170.326 198.719C169.706 198.099 168.48 197.434 167.602 197.241C164.801 196.626 164.567 196.471 164.567 195.228V194.009L166.868 194.398C169.095 194.774 169.733 194.35 168.643 193.219C168.353 192.918 168.03 192.025 167.924 191.234C167.734 189.819 167.041 189.337 161.746 186.942C160.669 186.455 159.472 186.057 159.085 186.057C158.697 186.057 158.058 185.668 157.664 185.194L156.948 184.331L158.467 182.501L161.517 182.882C164.819 183.295 165.447 182.712 163.313 181.217L162.058 180.338L164.086 178.097L162.888 176.899C162.23 176.241 161.293 175.702 160.806 175.702C160.189 175.702 159.972 175.236 160.087 174.159L160.253 172.615L158.815 172.266C157.804 172.021 157.324 171.468 157.199 170.403C157.073 169.334 156.537 168.719 155.375 168.314C154.309 167.943 153.663 167.268 153.54 166.4C153.408 165.474 152.906 165 151.912 164.864C151.121 164.756 150.085 164.353 149.611 163.968C147.925 162.602 145.633 161.961 143.609 162.289L141.557 162.622V161.466C141.557 160.831 141.945 159.989 142.42 159.595C144.383 157.966 142.572 156.298 139.64 157.034L138.2 157.395L136.96 155.079L135.376 155.849C134.505 156.272 132.885 156.742 131.778 156.891C124.144 157.923 114.89 161.622 110.988 165.199C110.153 165.965 108.341 166.842 106.961 167.149C101.849 168.283 97.5589 172.826 101.6 172.826C103.489 172.826 107.42 174.835 108.131 176.163C108.435 176.731 110.297 178.736 112.269 180.619C119.522 187.545 120.245 188.492 123.273 195.039C123.582 195.708 124.457 196.926 125.218 197.746C125.978 198.566 126.601 199.361 126.601 199.512C126.601 199.663 127.391 201.058 128.356 202.611L130.112 205.436L130.084 211.134C130.057 216.61 129.464 222.209 128.72 224.023C128.525 224.498 128.236 225.922 128.078 227.187C127.783 229.549 125.387 236.934 124.69 237.632C124.475 237.846 124.299 238.466 124.299 239.011C124.299 239.555 123.171 242.424 121.791 245.386C118.629 252.174 115.661 264.48 115.774 270.331C115.817 272.546 115.7 275.264 115.515 276.372C115.33 277.479 115.01 279.551 114.805 280.976L114.432 283.568L115.842 285.209C117.249 286.846 118.236 290.834 119.706 300.82C120.134 303.724 120.656 305.181 121.58 306.045C122.285 306.704 123.994 309.422 125.379 312.085C127.911 316.954 130.83 320.666 132.127 320.666C132.892 320.666 133.649 321.529 140.031 329.685C143.022 333.506 144.149 334.274 145.333 333.292C146.509 332.314 148.062 333.459 151.638 337.942C155.638 342.955 156.954 343.861 159.525 343.379L161.48 343.012L169.849 350.004H174.061L179.728 355.281L184.644 354.544L186.11 356.76C186.984 358.081 188.369 359.263 189.536 359.685C190.613 360.074 191.642 360.778 191.822 361.248L192.15 362.103L196.494 361.416L198.046 363.045C198.949 363.992 199.75 365.636 199.96 366.975L200.322 369.275L196.116 374.165L194.004 374.172C192.842 374.175 190.468 374.586 188.728 375.085C186.988 375.584 184.486 376.184 183.169 376.418C178.629 377.224 175.503 380.571 175.499 384.629C175.497 387.485 176.254 387.774 177.406 385.357C177.987 384.141 178.771 383.369 179.426 383.369C180.016 383.369 181.275 382.981 182.225 382.507L183.952 381.645L186.771 382.239C188.322 382.566 191.47 382.913 193.765 383.01C198.988 383.229 198.909 383.119 196.808 387.253C194.891 391.025 194.387 395.449 195.874 395.449C196.324 395.449 196.975 394.594 197.32 393.548C197.664 392.503 199.055 390.56 200.408 389.231L202.87 386.815L206.01 386.449C207.737 386.247 211.35 386.018 214.039 385.941C216.728 385.863 220.111 385.613 221.557 385.384L224.185 384.968L225.584 386.68C226.353 387.622 227.257 388.86 227.593 389.432C228.468 390.922 229.571 389.977 229.571 387.738C229.571 384.851 228.022 382.332 225.438 381.014L223.129 379.835L218.724 380.579L216.808 377.654L218.993 374.987C220.194 373.521 221.778 372.093 222.513 371.814C223.247 371.534 224.009 370.885 224.206 370.371C224.403 369.858 225.189 368.764 225.953 367.94L227.34 366.442L227.176 364.163C227.017 361.962 227.885 360.753 228.689 362.054C229.242 362.949 233.712 362.754 235.002 361.778C236.766 360.444 238.081 360.765 241.028 363.25C244.478 366.159 245.678 365.912 245.678 362.293C245.678 359.199 246.51 358.726 249.701 360.002L251.995 360.92L253.87 360.125C254.901 359.687 256.462 359.046 257.338 358.701C258.215 358.355 259.179 357.421 259.481 356.626C260.121 354.943 261.733 354.744 263.793 356.094C265.624 357.294 266.512 356.734 265.79 354.836C264.955 352.64 265.089 351.55 266.144 351.955C266.976 352.274 267.899 351.508 271.299 347.681C271.732 347.193 272.329 345.252 272.628 343.366L273.17 339.937L272.367 339.477C271.203 338.81 271.377 337.66 272.924 335.811C273.672 334.916 274.465 333.602 274.689 332.89C274.911 332.178 275.4 331.596 275.773 331.596C278.084 331.599 284.838 333.356 286.611 334.415C287.767 335.107 290.356 336.071 292.363 336.559C295.785 337.39 297.271 337.936 301.916 340.074C302.948 340.549 304.448 341.717 305.249 342.67L306.708 344.402L308.012 343.176C309.725 341.567 310.339 341.625 312.873 343.634C314.041 344.561 316.549 346.148 318.448 347.162C320.346 348.176 322.676 349.722 323.625 350.596C326.16 352.935 330.837 354.785 332.58 354.139C335.367 353.106 337.333 354.712 338.595 359.052L339.512 362.207L338.526 363.296C336.433 365.609 333.5 364.417 326.501 358.407C320.604 353.343 310.56 346.779 309.608 347.368C309.02 347.732 312.079 355.655 313.989 358.711C316.345 362.481 315.289 363.43 312.637 359.927C311.739 358.741 310.8 357.511 310.551 357.195C310.301 356.878 308.185 354.02 305.847 350.843C301.07 344.35 300.65 343.924 298.497 343.383L296.961 342.998L296.565 345.638C296.348 347.09 295.961 348.278 295.707 348.278C294.742 348.278 292.849 344.317 292.849 342.3V340.196L291.373 339.635C290.562 339.327 289.433 339.074 288.865 339.074H287.832L287.503 341.844C287.092 345.319 288.782 354.311 290.791 359.332C292.53 363.679 292.547 363.81 291.381 363.81C290.887 363.81 290.106 362.849 289.63 361.653C289.157 360.467 288.536 358.978 288.25 358.345C287.964 357.712 287.314 355.9 286.807 354.318C284.345 346.639 280.274 338.211 279.027 338.211C278.626 338.211 277.811 339.635 277.216 341.375L276.134 344.539L276.473 349.141C276.659 351.672 277.039 354.649 277.317 355.757C277.596 356.864 277.99 359.711 278.193 362.084C278.396 364.457 278.8 366.645 279.09 366.945C279.38 367.246 279.618 368.198 279.618 369.062C279.618 369.924 280.045 371.058 280.566 371.579L281.515 372.527L281.458 376.941C281.405 381.011 282.203 384.519 283.18 384.519C285.221 384.519 288.725 390.71 291.764 399.687C292.393 401.544 293.385 404.133 293.969 405.44C294.554 406.748 295.509 409.207 296.092 410.905C296.734 412.776 298.14 415.046 299.656 416.658C301.033 418.123 302.967 420.487 303.953 421.911C306.393 425.43 307.758 426.471 309.963 426.494L311.832 426.513V424.814C311.832 423.88 311.6 422.52 311.317 421.794C311.033 421.067 310.484 419.308 310.095 417.884C308.68 412.69 307.61 409.481 306.355 406.666C305.649 405.084 304.752 402.794 304.362 401.577C303.972 400.361 303.294 398.678 302.856 397.838C302.418 396.999 302.059 396.089 302.056 395.816C302.051 395.109 298.062 384.54 297.087 382.65C296.638 381.779 295.787 381.068 295.196 381.068C293.545 381.068 292.72 377.316 293.946 375.381C294.256 374.892 294.142 373.845 293.65 372.667C292.194 369.183 294.27 367.919 295.989 371.243C296.467 372.167 297.613 373.461 298.536 374.118L300.214 375.313L300.61 378.909C300.956 382.054 302.693 387.04 304.366 389.696C305.74 391.877 309.502 398.235 310.492 400.051C312.341 403.439 317.134 410.682 317.662 410.885C317.936 410.991 318.16 411.403 318.16 411.802C318.16 412.557 321.464 417.658 324.504 421.597C326.707 424.451 331.169 427.663 332.93 427.663H334.267V423.78L328.946 415.795C326.02 411.402 322.234 405.63 320.534 402.966C318.833 400.304 316.957 397.603 316.363 396.966C315.769 396.329 315.284 395.508 315.284 395.142C315.284 394.776 314.794 394.034 314.196 393.493C312.816 392.244 309.896 386.285 308.761 382.398L307.889 379.414L308.637 378.793C309.824 377.808 311.028 378.642 312.176 381.245C312.76 382.571 313.4 383.786 313.597 383.944C313.794 384.102 315.594 387.208 317.597 390.847C319.6 394.485 321.943 398.239 322.803 399.188C323.663 400.137 325.295 402.382 326.43 404.176C327.564 405.97 329.597 408.594 330.948 410.006C334.494 413.712 336.337 416.013 338.749 419.748C339.922 421.565 341.173 423.053 341.529 423.056C341.884 423.059 343.411 423.751 344.92 424.595C352.732 428.961 356.366 425.236 350.93 418.435C349.337 416.443 347.63 413.96 347.135 412.918C346.641 411.875 344.509 409.007 342.399 406.543C340.289 404.08 337.402 400.642 335.984 398.905C332.958 395.199 330.225 392.573 329.393 392.573C328.723 392.573 326.454 389.814 324.664 386.82C323.267 384.486 322.521 380.556 323.26 379.424C323.812 378.577 326.213 379.016 326.213 379.964C326.213 380.821 331.421 387.033 332.767 387.782C333.434 388.153 334.691 388.315 335.561 388.142L337.143 387.827V388.884C337.143 389.465 337.831 390.489 338.672 391.159L340.2 392.378L338.046 396.024L339.13 397.894C340.928 400.992 352.729 412.333 355.556 413.68C356.977 414.357 359.292 415.996 360.7 417.322L363.26 419.734L365.59 419.407C368.777 418.96 371.073 417.792 371.079 416.617C371.084 415.434 369.896 412.707 369.376 412.707C368.711 412.707 363.605 405.381 363.605 404.428C363.605 403.16 364.15 403.265 365.874 404.868C366.682 405.619 368.682 407.16 370.318 408.291L373.291 410.349L377.411 409.68V408.58C377.411 407.112 371.756 401.566 368.663 399.999C364.173 397.725 357.852 393.046 357.852 391.996C357.852 391.442 357.474 390.674 357.012 390.29C355.627 389.141 355.362 387.408 356.395 386.266C357.702 384.822 359.113 385.357 360.677 387.887C361.405 389.064 363.042 390.665 364.314 391.444C365.587 392.223 367.054 393.119 367.573 393.436C368.093 393.752 369.33 394.594 370.321 395.305C371.313 396.017 372.258 396.6 372.422 396.6C372.586 396.6 373.466 397.311 374.378 398.181C375.29 399.052 377.187 400.728 378.593 401.905L381.15 404.047L383.073 403.811C385.531 403.511 386.673 402.03 386.257 399.686C385.864 397.473 386.748 396.8 388.468 398.004C390.99 399.771 394.093 397.916 394.093 394.641C394.093 394.136 394.559 393.723 395.129 393.723C399.257 393.723 397.938 387.269 393.645 386.465C392.468 386.245 390.858 385.617 390.067 385.07C389.276 384.523 386.518 382.846 383.939 381.345C374.529 375.866 377.353 372.795 389.204 375.62C391.418 376.148 394.307 376.708 395.623 376.864L398.015 377.148L400 372.966L398.923 372.179C398.331 371.746 396.922 371.244 395.793 371.063C393.297 370.664 389.951 369.065 390.329 368.452C390.481 368.207 392.456 367.852 394.718 367.662C396.98 367.472 398.962 367.187 399.12 367.029C399.709 366.44 398.671 364.037 396.985 362.084C395.816 360.73 395.246 359.454 395.245 358.187L395.244 356.303L392.08 355.08L396.107 353.157V350.292L389.204 350.191C379.035 350.044 358.131 347.541 354.23 346.004C353.533 345.729 350.892 345.072 348.361 344.542C345.83 344.013 343.111 343.363 342.32 343.099C341.53 342.835 338.941 342.188 336.568 341.663C334.195 341.138 331.606 340.5 330.815 340.245C330.024 339.991 328.342 339.503 327.076 339.161C325.811 338.819 321.281 337.457 317.009 336.134C312.738 334.811 308.337 333.528 307.23 333.282C306.123 333.036 303.793 332.436 302.053 331.948C290.034 328.579 276.602 326.754 272.076 327.876L270.575 328.248L270.28 327.189C270.118 326.607 268.463 325.401 266.604 324.509C259.937 321.31 258.046 320.136 258.126 319.247C258.174 318.725 257.579 318.203 256.688 317.989C255.853 317.787 254.522 317.206 253.732 316.699C252.941 316.192 251.063 315.158 249.561 314.402L246.828 313.028V311.704C246.828 308.696 249.329 309.74 256.849 315.891C257.456 316.388 259.222 317.129 260.773 317.539L263.593 318.283L265.957 315.919L264.073 314.445C262.242 313.012 252.468 308.01 251.497 308.01C250.853 308.01 247.033 305.05 244.527 302.609C242.704 300.832 240.523 299.382 239.676 299.382C239.497 299.382 239.35 299.848 239.35 300.417C239.35 303.388 232.871 303.482 232.681 300.513C232.651 300.049 232.325 298.936 231.958 298.039C231.187 296.163 231.497 295.355 232.986 295.355C233.561 295.355 234.362 294.957 234.767 294.47L235.501 293.585L233.399 291.66C231.11 289.563 230.886 288.933 232.083 287.94L232.869 287.288L235.251 289.452C236.561 290.642 238.38 292.263 239.293 293.054C243.355 296.57 250.107 302.673 251.425 304.019C253.132 305.761 254.712 306.5 256.389 306.339C257.636 306.22 261.091 308.307 265.96 312.12C269.502 314.894 270.779 315.283 272.181 314.013C273.689 312.648 273.582 311.957 271.564 310.024C269.536 308.081 269.4 307.135 271.021 306.267L272.205 305.634L274.439 307.653C277.959 310.833 282.494 312.654 282.494 310.887C282.494 310.57 282.882 310.311 283.357 310.311C285.651 310.311 283.745 307.549 279.417 304.599C277.762 303.472 276.299 301.915 275.821 300.771C274.063 296.564 275.298 296.6 279.307 300.872L282.324 304.088L285.668 303.738L288.735 306.162C292.469 309.113 293.24 309.166 294.333 306.549C294.802 305.429 295.409 304.651 295.682 304.82C297.542 305.969 296.493 302.994 294.28 300.843C292.86 299.463 291.698 298.079 291.698 297.769C291.698 296.012 295.792 296.813 298.937 299.185C302.516 301.885 307.99 301.174 308.174 297.987C308.286 296.036 306.856 294.899 298.49 290.285C294.474 288.069 290.85 285.982 290.436 285.646C290.023 285.311 288.262 283.913 286.522 282.54C283.241 279.95 282.684 278.984 283.628 277.522L284.185 276.659L285.496 277.481C286.218 277.932 287.585 278.709 288.534 279.206C289.483 279.703 290.389 280.242 290.547 280.403C291.484 281.353 299.125 286.076 300.327 286.448C301.118 286.692 303.548 287.812 305.726 288.934C309.795 291.032 314.781 291.806 315.802 290.497C317.757 287.99 316.607 285.517 312.814 284.076C307.287 281.976 301.364 279.296 298.314 277.515C296.415 276.406 294.189 275.155 293.366 274.734C290.628 273.332 286.233 269.719 286.233 268.869V268.03L289.45 268.171C291.623 268.267 293.583 268.805 295.49 269.832C303.439 274.11 305.762 275.221 306.757 275.221C307.782 275.221 310.614 276.724 311.267 277.613C311.431 277.837 313.243 278.813 315.293 279.784C319.564 281.804 322.183 282.092 322.195 280.542C322.199 279.989 322.359 278.953 322.549 278.241L322.896 276.947H321.667C320.453 276.947 316.163 274.561 315.773 273.668C315.662 273.415 312.803 271.835 309.42 270.157C303.119 267.032 299.479 263.948 300.119 262.278C300.578 261.08 300.995 261.165 304.772 263.23C310.481 266.352 310.953 266.585 311.581 266.589C312.561 266.595 318.239 269.465 319.23 270.457C321.884 273.11 327.241 274.183 330.199 272.654C333.038 271.186 332.924 268.328 330.026 268.311C329.353 268.306 326.874 267.012 324.518 265.434C322.161 263.856 320.008 262.565 319.733 262.565C319.458 262.565 318.41 261.948 317.402 261.193C316.395 260.439 314.018 259.108 312.12 258.237C310.221 257.366 307.892 256.086 306.942 255.394C305.993 254.701 304.44 253.741 303.491 253.258C293.641 248.254 292.24 247.16 293.378 245.363L293.889 244.554L297.076 245.848C298.829 246.559 300.527 246.978 300.851 246.778C301.174 246.578 302.472 246.942 303.736 247.587C305 248.232 306.821 248.759 307.782 248.759C308.744 248.759 309.531 249.031 309.531 249.362C309.531 250.47 312.662 252.749 315.859 253.968C317.599 254.632 319.821 255.668 320.797 256.27C321.773 256.872 323.585 257.523 324.824 257.717C326.063 257.91 327.163 258.303 327.267 258.59C327.597 259.488 334.613 262.461 337.383 262.876C344.028 263.872 342.796 258.979 335.873 256.882C333.269 256.093 329.15 254.58 327.076 253.65C326.127 253.224 322.503 251.838 319.023 250.568C306.216 245.895 302.415 244.135 287.882 236.149C284.761 234.434 280.783 232.28 279.043 231.361L275.879 229.693L272.744 229.935C271.02 230.068 269.509 230.477 269.387 230.843C269.265 231.21 268.926 231.361 268.635 231.181C268.344 231.001 267.949 231.258 267.76 231.753C267.322 232.893 265.287 232.911 263.686 231.789C263.008 231.315 262.031 231.089 261.515 231.287C260.287 231.758 257.758 229.391 257.758 227.77C257.758 226.897 258.344 226.31 259.772 225.749C261.734 224.98 261.881 224.699 262.037 221.435L262.092 220.284L266.099 219.709L266.28 218.438C266.38 217.74 265.797 216.191 264.986 214.997C261.958 210.542 264.667 206.633 269.336 208.718L270.272 209.135L270.642 207.663C271.071 205.952 271.65 205.843 273.579 207.107C274.558 207.749 275.631 207.915 277.154 207.662C278.351 207.464 283.213 207.272 287.959 207.237C292.705 207.202 296.847 207.025 297.163 206.844C297.48 206.662 298.644 206.458 299.752 206.388C300.859 206.319 303.91 206.131 306.531 205.971C309.153 205.811 311.795 205.522 312.402 205.329C314.29 204.731 324.703 204.503 325.358 205.046C325.733 205.358 326.975 205.218 328.495 204.695C329.878 204.218 332.455 203.887 334.221 203.96C340.261 204.208 353.205 201.635 355.301 199.77C355.954 199.188 356.916 198.712 357.439 198.712C358.77 198.712 362.454 194.885 362.454 193.502C362.454 192.809 363.023 192.14 363.893 191.809L365.331 191.263V189.563C365.331 188.629 364.928 187.462 364.436 186.97L363.54 186.074L359.69 188.078C355.797 190.103 351.887 191.129 346.635 191.502C339.616 192.001 334.967 192.525 332.906 193.049C331.684 193.36 329.613 193.742 328.305 193.897C326.996 194.052 324.89 194.425 323.625 194.726C322.359 195.027 317.311 195.772 312.407 196.381C307.503 196.991 300.385 197.92 296.588 198.446C292.791 198.972 287.149 199.416 284.05 199.433L278.414 199.462L277.846 200.526C276.655 202.749 273.113 201.368 272.369 198.389C272.132 197.438 270.481 195.297 268.592 193.493C265.342 190.386 264.569 188.68 265.838 187.412C266.827 186.423 266.807 181.97 265.812 181.458C262.947 179.981 261.725 179.708 258.645 179.854L255.219 180.017L254.854 175.602L255.982 175.306C257.385 174.94 258.263 172.554 257.902 170.094L257.629 168.231L255.248 168.602C253.94 168.807 252.782 169.194 252.677 169.462C252.571 169.73 252.11 169.95 251.652 169.95C251.194 169.95 250.67 170.338 250.488 170.813C250.306 171.287 249.836 171.675 249.445 171.675C249.053 171.675 248.264 172.193 247.691 172.826C246.413 174.239 243.377 174.402 243.377 173.057C243.377 172.551 244.128 171.436 245.045 170.579C247.175 168.589 249.705 164.871 249.705 163.731C249.705 163.246 250.139 162.37 250.669 161.784C252.111 160.191 250.93 159.256 248.532 160.092C247.522 160.444 246.449 160.579 246.147 160.392C245.845 160.205 244.475 160.648 243.103 161.377L240.607 162.7L239.726 161.969C239.241 161.567 238.764 160.674 238.666 159.985L238.487 158.732L237.039 158.9C236.167 159 234.539 158.37 232.941 157.311C231.08 156.078 229.34 155.465 227.099 155.253L223.908 154.95L221.706 156.84C220.495 157.88 219.297 159.054 219.044 159.45C218.791 159.847 218.208 160.17 217.749 160.17C217.291 160.17 216.906 160.494 216.894 160.889C216.865 161.894 211.962 164.9 210.735 164.665C209.029 164.34 209.122 161.988 210.867 161.324C212.708 160.624 216.594 156.466 218.929 152.697C219.878 151.165 221.894 148.092 223.41 145.869C226.481 141.362 230.314 133.909 232.917 127.381C233.863 125.008 235.438 121.342 236.418 119.234C237.398 117.126 238.2 115.076 238.2 114.678C238.2 114.279 238.553 113.544 238.985 113.045C239.418 112.545 240.88 109.176 242.235 105.558L244.699 98.9795L244.815 83.848L244.026 82.892C243.145 81.8249 243.016 81.8059 241.304 82.4979ZM303.86 87.3922C303.209 88.495 302.395 90.5009 302.05 91.8504C301.16 95.3353 300.305 97.4401 298.78 99.9011C298.049 101.082 297.443 102.376 297.433 102.777C297.396 104.4 287.516 118.452 281.487 125.456C279.51 127.754 277.891 129.838 277.89 130.089C277.888 130.34 276.788 131.761 275.445 133.248C272.878 136.09 272.278 136.794 269.663 140.045C268.776 141.147 264.977 145.156 261.222 148.953C254.391 155.859 253.05 157.875 255.071 158.191C257.32 158.544 257.758 159.005 257.758 161.023C257.758 163.079 259.846 167.061 260.922 167.057C261.239 167.057 262.792 166.143 264.374 165.026C265.956 163.91 267.921 162.555 268.74 162.015C269.924 161.236 278.364 153.699 282.242 149.96C282.652 149.564 283.264 149.241 283.604 149.241C283.943 149.241 284.221 149.047 284.223 148.809C284.225 148.572 285.066 147.58 286.092 146.605C297.1 136.151 300.236 132.348 299.478 130.373C299.059 129.281 300.19 127.939 301.201 128.328C302.205 128.713 305.188 125.718 307.919 121.581C309.086 119.815 310.831 117.522 311.799 116.487C312.766 115.451 313.558 114.019 313.558 113.304C313.558 112.589 314.034 111.387 314.615 110.632C315.196 109.878 316.646 107.578 317.837 105.521C319.028 103.465 320.494 101.319 321.095 100.753C321.805 100.084 322.187 98.9393 322.187 97.4793C322.187 96.2448 322.446 95.0747 322.762 94.8791C323.57 94.3798 323.479 92.5488 322.611 91.8286L321.884 91.2251L319.402 94.9384C318.037 96.9805 316.713 99.3707 316.461 100.25C315.78 102.624 314.167 105.583 312.471 107.566C311.645 108.533 310.322 110.203 309.531 111.277C300.149 124.023 276.551 149.448 271.685 152.052L270.397 152.742L270.049 151.834C269.522 150.463 271.023 145.778 272.229 145.024C272.813 144.66 273.29 143.777 273.29 143.062V141.762H277.181L278.687 139.787C279.516 138.701 280.193 137.528 280.193 137.18C280.193 136.833 280.581 136.4 281.056 136.218C281.531 136.036 281.919 135.69 281.919 135.449C281.919 134.668 286.939 127.501 289.19 125.067C290.395 123.765 292.383 121.256 293.606 119.494C294.829 117.73 296.453 115.615 297.216 114.793C297.978 113.971 298.601 112.986 298.601 112.603C298.601 112.22 298.974 111.698 299.429 111.443C299.953 111.15 300.323 109.818 300.436 107.819L300.615 104.658L301.819 104.486C303.112 104.302 305.503 100.633 305.507 98.8277C305.508 98.238 305.981 96.9788 306.558 96.0296C307.885 93.8465 308.081 88.4864 306.9 86.6818C305.752 84.9267 305.245 85.0452 303.86 87.3922ZM336.685 110.267C334.086 112.861 331.296 117.099 331.624 117.955C332.17 119.376 309.326 144.063 307.465 144.063C307.097 144.063 306.46 144.468 306.05 144.962C305.394 145.752 300.812 149.059 298.129 150.679C297.605 150.995 295.361 152.394 293.143 153.787C290.925 155.181 287.039 157.579 284.508 159.117C281.976 160.654 279.517 162.15 279.043 162.44C278.568 162.73 275.119 164.827 271.379 167.099C262.487 172.5 261.448 174.293 266.838 174.932L269.747 175.277L270.701 183.42L272.14 183.767C273.662 184.136 273.736 184.551 272.978 188.502L272.564 190.659L274.509 190.652C279.028 190.638 295.793 184.086 299.062 181.057C299.972 180.214 300.913 179.852 301.697 180.045C302.496 180.242 304.598 179.387 307.805 177.558C310.495 176.025 313.601 174.421 314.708 173.993C315.816 173.565 317.256 172.739 317.909 172.157C318.563 171.576 319.688 171.1 320.411 171.1C321.134 171.1 322.412 170.375 323.25 169.49C324.089 168.604 326.587 166.962 328.802 165.84C333.93 163.242 337.035 161.239 338.94 159.298C339.77 158.452 341.047 157.462 341.78 157.096C342.538 156.718 343.323 155.613 343.603 154.531L344.095 152.63L345.145 152.964C347.653 153.759 351.313 150.774 354.54 145.3C356.633 141.751 356.559 141.444 353.617 141.461L351.106 141.475L347.113 145.214C341.434 150.531 331.952 156.985 323.742 161.119C321.466 162.265 318.801 163.815 317.821 164.563C316.84 165.311 315.872 165.923 315.67 165.923C315.468 165.923 313.809 166.64 311.985 167.518C310.161 168.394 307.166 169.617 305.331 170.236L301.993 171.359L301.457 170.511C300.619 169.185 301.058 168.62 304.162 167.034C305.753 166.221 307.676 164.975 308.436 164.264C309.197 163.552 310.725 162.543 311.832 162.02C314.972 160.537 318.575 157.967 318.974 156.925C319.174 156.405 319.496 156.137 319.689 156.331C320.143 156.784 327.951 152.675 330.386 150.702C337.91 144.604 346.643 135.803 346.078 134.889C345.876 134.561 346.533 133.27 347.537 132.02L349.365 129.746L348.626 126.806H345.428L344.053 128.963C342.212 131.851 338.75 134.798 326.866 143.597C325.716 144.449 323.446 145.939 321.823 146.909C320.199 147.879 318.556 149.051 318.173 149.513C317.789 149.975 315.828 151.274 313.816 152.4C311.803 153.525 309.999 154.702 309.805 155.016C309.612 155.328 308.5 156.107 307.335 156.745C306.17 157.384 303.922 158.716 302.34 159.707C295.245 164.149 290.477 166.515 289.604 166.028L288.72 165.532L292.078 162.572C293.926 160.944 295.698 159.608 296.017 159.603C296.336 159.599 297.993 158.171 299.7 156.431C301.407 154.691 303.217 153.266 303.722 153.265C305.878 153.26 315.859 144.702 315.859 142.859C315.859 141.877 319.975 137.961 321.52 137.474C322.354 137.211 323.346 136.032 324.129 134.373C324.824 132.9 326.288 130.773 327.385 129.645C332.788 124.085 334.656 121.829 337.249 117.735C339.094 114.82 339.961 112.891 339.763 112.137C339.596 111.504 339.456 110.533 339.452 109.98C339.441 108.594 338.237 108.719 336.685 110.267ZM358.686 162.429C357.524 163.561 338.51 173.366 335.13 174.575C334.497 174.801 331.261 176.078 327.939 177.413C324.617 178.748 321.381 180.032 320.749 180.267C317.469 181.486 313.594 182.751 311.544 183.27C310.279 183.591 308.726 184.069 308.093 184.331C307.46 184.593 305.907 185.072 304.641 185.394C303.376 185.717 300.658 186.42 298.601 186.959C296.545 187.497 293.438 188.308 291.698 188.763C281.035 191.546 278.077 192.585 276.436 194.128C274.039 196.379 274.566 196.823 279.474 196.687C281.926 196.62 284.968 196.289 286.233 195.952C287.499 195.615 290.346 195.271 292.561 195.189C294.776 195.107 296.909 194.801 297.301 194.51C297.693 194.218 298.858 194.137 299.889 194.33C301.227 194.579 302.507 194.306 304.354 193.376C305.778 192.659 307.978 191.768 309.243 191.396C310.509 191.025 314.068 189.93 317.151 188.964C320.235 187.998 323.151 187.207 323.631 187.207C324.111 187.207 324.953 186.963 325.502 186.664C326.052 186.365 328.127 185.498 330.113 184.737C332.1 183.975 334.603 182.62 335.677 181.725C336.751 180.83 338.102 180.036 338.681 179.961C339.259 179.885 340.767 179.426 342.033 178.939C343.298 178.452 344.755 178.042 345.27 178.029C345.785 178.015 346.528 177.615 346.923 177.14C347.317 176.666 348.34 176.277 349.197 176.277C350.262 176.277 350.994 175.831 351.51 174.867C351.925 174.091 352.983 173.206 353.862 172.9C355.415 172.358 356.44 171.56 359.721 168.338L361.303 166.786L361.304 161.896H360.268C359.699 161.896 358.987 162.136 358.686 162.429ZM123.497 172.438L121.832 173.771L122.23 175.892C122.926 179.602 126.725 180.767 129.621 178.157C131.487 176.475 130.386 173.393 127.333 171.76C125.659 170.864 125.41 170.907 123.497 172.438ZM143.467 186.407C143.201 187.1 143.506 187.693 144.447 188.316C149.868 191.905 154.099 196.837 157.136 203.106C158.638 206.203 159.802 207.89 160.582 208.094C162.205 208.518 162.571 207.209 161.456 204.974C160.953 203.964 160.55 202.854 160.561 202.507C160.597 201.363 157.39 195.31 156.734 195.285C156.38 195.272 155.447 194.287 154.659 193.096C152.05 189.154 144.211 184.469 143.467 186.407ZM363.994 209.445C363.469 209.971 357.099 210.198 336.568 210.426C326.46 210.538 318.629 210.893 316.146 211.35C313.571 211.824 306.107 212.131 295.437 212.202L278.755 212.313L275.879 213.716C272.408 215.41 271.93 216.921 274.201 219.027C275.52 220.25 281.335 222.486 283.43 222.574C284.021 222.6 285.788 223.346 288.383 224.666C288.932 224.946 289.981 225.174 290.712 225.174C291.445 225.174 292.289 225.388 292.59 225.649C292.89 225.91 294.172 226.41 295.437 226.759C302.683 228.76 304.253 229.164 306.08 229.499C307.187 229.702 309.387 230.335 310.969 230.905C312.551 231.475 315.14 232.101 316.722 232.296C318.304 232.491 320.892 232.809 322.474 233.003C324.056 233.196 325.868 233.465 326.501 233.599C330.386 234.424 333.766 234.974 336.28 235.191C337.862 235.327 341.228 235.619 343.759 235.84L348.361 236.241L349.457 235.022C350.202 234.193 351.24 233.803 352.703 233.803C354.083 233.803 354.971 233.494 355.184 232.94C355.366 232.465 356.125 232.077 356.871 232.077C360.074 232.077 362.023 227.363 359.255 226.311C357.851 225.777 350.31 224.811 348.792 224.97C347.663 225.089 347.94 224.129 349.655 221.98C350.525 220.889 351.675 219.997 352.21 219.997C352.745 219.997 353.342 219.738 353.538 219.421C353.734 219.105 355.448 218.846 357.348 218.846C359.787 218.846 361.703 218.434 363.87 217.443L366.937 216.04L366.975 212.841C366.996 211.082 366.785 209.642 366.506 209.642C366.228 209.642 365.642 209.505 365.204 209.337C364.766 209.169 364.222 209.218 363.994 209.445ZM157.975 227.518C156.751 229.123 154.932 231.061 153.933 231.822C152.934 232.584 151.756 233.924 151.316 234.8C150.876 235.675 150.028 237.112 149.434 237.993C148.369 239.573 148.445 241.281 149.58 241.281C149.9 241.281 151.321 239.52 152.739 237.369C155.203 233.628 158.848 230.369 161.484 229.547C163.8 228.825 163.306 224.599 160.905 224.599C160.518 224.599 159.2 225.913 157.975 227.518ZM275.383 225.462C274.854 226.841 275.598 228.031 277.236 228.425C278.072 228.627 280.826 229.767 283.357 230.962C285.888 232.155 288.995 233.443 290.26 233.824C291.526 234.205 293.726 235.105 295.15 235.824C296.574 236.543 298.644 237.446 299.752 237.832C300.859 238.218 303.395 239.281 305.386 240.195C307.378 241.109 309.319 241.863 309.701 241.871C310.497 241.887 316.732 243.897 318.448 244.69C320.297 245.545 331.528 248.193 333.289 248.188C334.174 248.186 335.598 248.531 336.453 248.956C340.459 250.944 352.417 251.632 354.445 249.99L355.696 248.976L354.906 247.711C353.975 246.219 353.607 246.076 347.21 244.721C345.628 244.385 343.901 243.873 343.371 243.581C342.841 243.29 340.641 242.764 338.481 242.413C336.322 242.062 332.872 241.375 330.815 240.887C328.759 240.398 325.455 239.758 323.474 239.464C321.493 239.17 317.61 238.067 314.845 237.011C312.081 235.955 308.395 234.782 306.655 234.403C301.617 233.307 299.708 232.706 295.725 230.963C283.526 225.624 276.092 223.613 275.383 225.462ZM253.277 239.118C251.552 239.948 251.868 241.354 254.021 242.434C254.969 242.91 256.651 243.987 257.758 244.828C260.381 246.818 265.684 249.659 267.642 250.122C272.438 251.257 274.598 246.108 270.249 243.909C269.232 243.396 267.983 242.682 267.472 242.324C266.923 241.939 266.101 241.863 265.459 242.138C263.651 242.912 261.659 242.421 258.258 240.364C256.477 239.287 254.923 238.422 254.807 238.444C254.69 238.465 254.001 238.768 253.277 239.118ZM249.724 249.023C248.21 250.849 250.485 254.984 253.507 255.897C254.175 256.099 255.554 257.179 256.573 258.298C258.553 260.475 260.33 260.735 261.412 259.008C262.5 257.271 260.398 254.882 253.026 249.478C250.947 247.955 250.646 247.913 249.724 249.023ZM246.055 257.865C244.634 259.434 244.861 260.311 247.548 263.64C251.268 268.251 262.18 279.855 264.928 282.124C275.186 290.593 279.828 293.629 282.523 293.629C285.199 293.629 284.943 292.183 281.742 289.211C280.099 287.686 278.237 285.443 277.605 284.227C276.972 283.01 275.419 281.219 274.153 280.245C272.887 279.272 270.817 277.517 269.551 276.344C268.285 275.172 266.556 274.051 265.707 273.853C264.441 273.557 256.461 265.943 248.986 257.897C247.73 256.545 247.254 256.54 246.055 257.865ZM237.337 278.097C237.141 278.414 236.479 278.673 235.865 278.673C234.035 278.673 234.572 279.658 237.768 282.168C241.218 284.878 243.819 287.277 247.116 290.789C250.001 293.862 259.443 300.83 263.948 303.211C269.49 306.14 266.27 300.264 260.064 296.122C254.497 292.407 249.64 288.151 248.663 286.134C248.187 285.152 246.891 283.524 245.783 282.517C244.675 281.51 243.042 279.974 242.154 279.104C240.547 277.529 238.014 277 237.337 278.097ZM256.991 283.083C255.079 284.995 264.765 294.348 270.025 295.668C273.135 296.449 271.329 292.709 267.578 290.6C266.057 289.745 263.29 287.618 261.43 285.872C257.96 282.618 257.651 282.423 256.991 283.083ZM198.897 303.786C198.683 304 198.507 304.909 198.507 305.805V307.435H202.788L205.969 310.543C211.588 316.032 217.706 318.559 218.427 315.687C218.827 314.096 217.602 312.613 215.887 312.613C215.443 312.613 214.363 312.102 213.487 311.479C212.612 310.856 211.768 310.473 211.611 310.63C211.456 310.786 210.061 310.001 208.513 308.886C201.664 303.952 199.747 302.935 198.897 303.786ZM234.378 308.881C233.837 310.289 235.158 311.309 239.22 312.621L243.038 313.854L243.773 312.85C244.689 311.597 243.805 310.317 242.012 310.299C241.339 310.292 239.66 309.774 238.281 309.148C235.269 307.782 234.812 307.75 234.378 308.881ZM227.27 315.481L226.407 316.031L227.035 317.055C227.947 318.539 229.796 319.28 235.524 320.455L240.614 321.501L241.428 320.388C242.679 318.677 242.105 318.091 239.018 317.927C235.031 317.716 233.598 317.313 233.598 316.408C233.598 315.054 228.996 314.381 227.27 315.481ZM222.668 340.081C222.668 340.634 223.605 341.836 224.752 342.75L226.836 344.413L226.497 347.269C226.099 350.634 225.481 351.526 223.203 352.026C220.938 352.524 221.073 353.248 224.044 356.525C226.822 359.588 226.948 359.555 227.519 355.614C227.793 353.728 228.275 352.69 229.08 352.26C229.72 351.917 230.632 350.709 231.106 349.574L231.967 347.511L231.281 345.059C230.127 340.936 222.668 336.625 222.668 340.081Z" fill="#FBFDFD"/>
</svg>
