<svg width="300" height="355" viewBox="0 0 300 355" fill="none" xmlns="http://www.w3.org/2000/svg">
<path fill-rule="evenodd" clip-rule="evenodd" d="M165.497 0.472738C164.851 0.936968 163.716 2.69092 162.992 4.34707C162.708 4.99596 162.315 7.41432 162.119 9.72051C161.774 13.7835 159.943 20.4335 158.863 21.5466C158.572 21.8474 158.334 22.8024 158.334 23.6698C158.334 24.5373 158.108 25.3858 157.833 25.5561C157.557 25.7264 157.188 26.5829 157.013 27.4596C156.658 29.2308 151.057 38.6857 146.226 45.6681C144.501 48.1618 142.801 50.621 142.448 51.133C138.833 56.3822 126.055 76.0426 126.208 76.1214C126.317 76.1778 126.933 76.5149 127.576 76.8704C128.22 77.2253 129.541 77.6907 130.513 77.9041L132.28 78.2924L133.946 76.2808C139.245 69.8799 145.678 60.4774 145.678 59.1313C145.678 58.8759 146.551 57.4257 147.617 55.9082C148.684 54.3907 149.729 52.6051 149.94 51.9407C150.151 51.2757 151.643 48.9672 153.255 46.8106C154.867 44.6534 156.972 41.4584 157.933 39.7102C158.893 37.962 160.279 35.4965 161.012 34.2309C161.746 32.9653 162.633 31.2827 162.984 30.4918C163.335 29.7008 163.972 28.277 164.4 27.3279C166.456 22.7678 167.097 20.5692 167.925 15.2475C168.982 8.4469 168.935 4.10604 167.791 2.84106C167.335 2.33771 166.962 1.6382 166.962 1.28615C166.962 0.426144 166.172 -0.0122001 165.497 0.472738ZM187.376 2.88938L185.221 5.82605L184.57 10.2492C184.212 12.6819 183.503 15.4489 182.993 16.3981C182.485 17.3472 180.71 20.7125 179.048 23.8763C177.387 27.0402 175.449 30.4055 174.741 31.3546C174.033 32.3038 172.756 34.4581 171.903 36.1419C171.05 37.8257 169.461 40.4448 168.37 41.9629C167.279 43.481 166.387 44.9755 166.387 45.2838C166.387 45.5927 165.869 46.3141 165.237 46.8865C164.604 47.4589 164.086 48.2544 164.086 48.6537C164.086 49.0529 163.892 49.4653 163.655 49.5712C163.417 49.6765 162.079 51.4454 160.68 53.5019C159.281 55.5584 156.951 58.6297 155.503 60.3273C154.054 62.0248 152.071 64.484 151.096 65.7922C150.122 67.1003 147.226 70.3574 144.661 73.0295C142.097 75.7021 139.671 78.5012 139.27 79.2508L138.54 80.6136L139.377 81.1428C140.861 82.0822 142.132 81.7284 143.841 79.8991L145.514 78.1095L146.735 78.763C148.65 79.7881 150.4 78.9937 154.069 75.4357C157.47 72.1361 163.511 64.2971 163.511 63.1828C163.511 61.3857 165.437 58.7344 166.864 58.5687C167.912 58.4474 168.639 57.8497 169.178 56.6658C170.238 54.3366 175.722 46.0236 176.198 46.0236C176.979 46.0236 181.623 37.7003 187.56 25.6585C188.325 24.1076 189.32 20.7424 189.771 18.1802C190.222 15.618 190.969 12.3224 191.432 10.8561C192.405 7.77213 192.493 6.20974 191.737 5.43948C191.442 5.13919 191.118 3.87766 191.018 2.63627C190.76 -0.550061 189.856 -0.487357 187.376 2.88938ZM141.304 9.76941C139.824 10.3677 137.625 14.4244 137.623 16.5597C137.622 18.4546 135.288 27.7685 133.642 32.4505C132.985 34.3189 132.447 36.2012 132.447 36.6326C132.447 37.0646 131.8 38.4429 131.009 39.6958C130.218 40.9487 129.571 42.1895 129.571 42.453C129.571 42.7165 128.9 44.3237 128.079 46.0248C127.258 47.7258 126.448 49.9704 126.279 51.0128C126.11 52.0551 125.617 53.2028 125.183 53.5629C124.749 53.9235 124.394 54.4436 124.394 54.7185C124.394 54.9941 122.868 58.3921 121.004 62.2705C119.139 66.1483 116.436 72.3472 114.996 76.0455C112.303 82.9646 110.738 86.3632 110.012 86.8666C109.784 87.0248 109.109 88.0292 108.511 89.0991C106.592 92.5317 104.18 96.1138 101.106 100.097C98.6125 103.328 97.3883 105.987 97.4608 108.02C97.5459 110.41 95.1586 119.034 93.5807 122.035C92.8099 123.502 92.1794 125.061 92.1794 125.501C92.1794 125.941 90.7591 128.624 89.0224 131.464C87.2863 134.303 85.7021 137.014 85.5019 137.489C82.659 144.226 79.4445 147.843 76.299 147.843C75.7496 147.843 74.8332 148.266 74.2626 148.782L73.2254 149.721L71.5399 149.023C70.0097 148.389 69.198 147.046 69.1773 145.111C69.1727 144.7 69.8797 144.392 70.8249 144.392C71.7349 144.392 72.7663 144.047 73.1161 143.626L73.7517 142.859L72.9171 141.756C71.6038 140.02 71.8741 139.215 73.7713 139.215C75.8796 139.215 75.9389 138.663 74.0342 136.758L72.5719 135.296L72.9274 133.88L73.2829 132.463L71.713 131.228L70.1432 129.993L70.7984 128.555L71.4536 127.118L70.3261 125.99C69.706 125.37 68.4801 124.705 67.6017 124.512C64.8008 123.898 64.5673 123.743 64.5673 122.499V121.281L66.8683 121.669C69.0951 122.046 69.733 121.622 68.6429 120.49C68.353 120.189 68.0297 119.296 67.9238 118.506C67.734 117.09 67.0408 116.608 61.7462 114.214C60.6693 113.727 59.4717 113.328 59.0845 113.328C58.6974 113.328 58.0583 112.94 57.6642 112.465L56.948 111.602L57.7074 110.687L58.4667 109.773L61.5173 110.153C64.8192 110.566 65.4474 109.983 63.3126 108.488L62.058 107.609L63.0716 106.488L64.0858 105.368L62.8881 104.171C62.23 103.513 61.2929 102.974 60.8062 102.974C60.189 102.974 59.9716 102.507 60.0872 101.43L60.2529 99.8863L58.8147 99.5377C57.804 99.2926 57.3237 98.7392 57.1988 97.6744C57.0734 96.605 56.5373 95.9907 55.3753 95.5857C54.3093 95.2141 53.6627 94.5399 53.5396 93.6718C53.4085 92.7451 52.9057 92.2711 51.9117 92.1353C51.1207 92.0272 50.0852 91.6245 49.6107 91.2397C47.9246 89.8734 45.6328 89.232 43.609 89.5605L41.5571 89.8936V88.7379C41.5571 88.1028 41.9454 87.2606 42.42 86.8666C44.3833 85.2375 42.5724 83.5692 39.6398 84.305L38.1999 84.6668L37.5804 83.5082L36.9603 82.3503L35.376 83.1205C34.5045 83.5439 32.8852 84.0133 31.7778 84.1629C24.1436 85.1949 14.8901 88.8932 10.9881 92.4707C10.1529 93.2369 8.34083 94.1136 6.96137 94.4202C1.8491 95.5546 -2.44113 100.097 1.60003 100.097C3.48858 100.097 7.42044 102.106 8.13088 103.434C8.43518 104.002 10.2973 106.008 12.2692 107.891C19.522 114.816 20.2446 115.764 23.2727 122.31C23.5816 122.979 24.4571 124.197 25.2176 125.017C25.9781 125.838 26.6005 126.632 26.6005 126.783C26.6005 126.934 27.3909 128.329 28.3562 129.883L30.1125 132.707L30.0843 138.406C30.0572 143.882 29.4641 149.48 28.7198 151.295C28.5247 151.77 28.236 153.193 28.0778 154.459C27.7827 156.821 25.3868 164.206 24.6895 164.903C24.475 165.117 24.2995 165.738 24.2995 166.282C24.2995 166.826 23.1709 169.696 21.7908 172.658C18.6292 179.446 15.6615 191.751 15.7743 197.603C15.8168 199.818 15.7001 202.536 15.5148 203.643C15.3296 204.75 15.0103 206.822 14.805 208.248L14.4316 210.839L15.8416 212.48C17.2486 214.118 18.2358 218.105 19.7061 228.091C20.1341 230.996 20.6564 232.452 21.5803 233.316C22.285 233.976 23.9941 236.694 25.3787 239.356C27.911 244.226 30.8298 247.938 32.127 247.938C32.8921 247.938 33.6485 248.8 40.031 256.956C43.0217 260.778 44.1492 261.545 45.3325 260.563C46.5095 259.586 48.0621 260.731 51.6384 265.213C55.6382 270.226 56.9538 271.133 59.5246 270.651L61.4804 270.284L65.6648 273.78L69.8487 277.275H71.9552H74.0612L76.8949 279.914L79.7281 282.553L82.1861 282.184L84.6436 281.815L86.1105 284.032C86.9843 285.353 88.3689 286.535 89.5361 286.956C90.613 287.346 91.6421 288.049 91.8222 288.519L92.1501 289.374L94.3222 289.031L96.4938 288.688L98.0458 290.316C98.949 291.264 99.7497 292.907 99.9603 294.246L100.322 296.546L98.2196 298.991L96.1164 301.436L94.0041 301.443C92.8421 301.446 90.468 301.858 88.7279 302.356C86.9877 302.855 84.486 303.455 83.1686 303.689C78.6287 304.496 75.5034 307.842 75.4994 311.9C75.4965 314.756 76.2541 315.045 77.4063 312.629C77.9868 311.412 78.7708 310.64 79.426 310.64C80.0157 310.64 81.2749 310.252 82.2247 309.778L83.9521 308.917L86.7715 309.511C88.3223 309.838 91.4695 310.185 93.7654 310.281C98.9881 310.501 98.9087 310.39 96.8079 314.525C94.8911 318.297 94.3872 322.72 95.8737 322.72C96.3241 322.72 96.9747 321.865 97.3199 320.819C97.6645 319.774 99.0548 317.831 100.408 316.503L102.87 314.086L106.01 313.72C107.737 313.518 111.35 313.29 114.039 313.212C116.728 313.134 120.111 312.884 121.557 312.655L124.185 312.24L125.584 313.951C126.353 314.893 127.257 316.132 127.593 316.704C128.468 318.194 129.571 317.248 129.571 315.009C129.571 312.123 128.022 309.604 125.438 308.285L123.129 307.107L120.927 307.479L118.724 307.851L117.766 306.388L116.808 304.925L118.993 302.259C120.194 300.792 121.778 299.364 122.513 299.085C123.247 298.805 124.009 298.157 124.206 297.643C124.403 297.129 125.189 296.035 125.953 295.211L127.34 293.714L127.176 291.434C127.017 289.233 127.885 288.024 128.689 289.325C129.242 290.221 133.712 290.026 135.002 289.05C136.766 287.716 138.081 288.037 141.028 290.522C144.478 293.431 145.678 293.183 145.678 289.564C145.678 286.471 146.51 285.997 149.701 287.273L151.995 288.191L153.87 287.396C154.901 286.959 156.462 286.318 157.338 285.972C158.215 285.626 159.179 284.693 159.481 283.898C160.121 282.215 161.733 282.016 163.793 283.365C165.624 284.565 166.512 284.006 165.79 282.107C164.955 279.912 165.089 278.822 166.144 279.227C166.976 279.545 167.899 278.78 171.299 274.952C171.732 274.465 172.329 272.523 172.628 270.638L173.17 267.208L172.367 266.748C171.203 266.082 171.377 264.932 172.924 263.082C173.672 262.188 174.465 260.873 174.689 260.162C174.911 259.449 175.4 258.868 175.774 258.868C178.084 258.87 184.838 260.627 186.611 261.687C187.767 262.378 190.356 263.343 192.363 263.83C195.785 264.661 197.271 265.208 201.916 267.345C202.948 267.821 204.448 268.988 205.249 269.942L206.708 271.674L208.012 270.448C209.725 268.839 210.339 268.897 212.873 270.906C214.041 271.832 216.549 273.42 218.448 274.433C220.346 275.447 222.676 276.993 223.625 277.868C226.16 280.206 230.837 282.056 232.58 281.41C235.367 280.378 237.333 281.984 238.595 286.324L239.512 289.478L238.526 290.567C236.433 292.881 233.5 291.688 226.501 285.678C220.604 280.614 210.56 274.051 209.608 274.639C209.02 275.003 212.079 282.927 213.989 285.982C216.345 289.752 215.289 290.702 212.637 287.199C211.739 286.012 210.8 284.782 210.551 284.466C210.301 284.15 208.185 281.291 205.847 278.115C201.07 271.621 200.65 271.195 198.497 270.655L196.961 270.269L196.565 272.909C196.348 274.362 195.961 275.55 195.707 275.55C194.742 275.55 192.849 271.588 192.849 269.571V267.467L191.373 266.906C190.562 266.598 189.433 266.346 188.865 266.346H187.832L187.503 269.115C187.092 272.591 188.782 281.583 190.791 286.603C192.53 290.95 192.547 291.082 191.381 291.082C190.887 291.082 190.106 290.12 189.63 288.924C189.157 287.738 188.536 286.249 188.25 285.617C187.964 284.984 187.314 283.172 186.807 281.59C184.345 273.911 180.274 265.483 179.027 265.483C178.626 265.483 177.811 266.906 177.216 268.647L176.134 271.811L176.473 276.413C176.659 278.944 177.039 281.921 177.317 283.028C177.596 284.135 177.99 286.983 178.193 289.356C178.396 291.729 178.8 293.916 179.09 294.217C179.38 294.517 179.618 295.47 179.618 296.333C179.618 297.196 180.045 298.329 180.566 298.851L181.515 299.799L181.458 304.213C181.405 308.283 182.203 311.791 183.18 311.791C185.221 311.791 188.725 317.982 191.764 326.959C192.393 328.816 193.385 331.404 193.969 332.711C194.554 334.019 195.509 336.478 196.092 338.177C196.734 340.048 198.14 342.317 199.656 343.929C201.033 345.395 202.967 347.758 203.953 349.182C206.393 352.702 207.758 353.743 209.963 353.765L211.832 353.784V352.085C211.832 351.151 211.6 349.792 211.317 349.065C211.033 348.339 210.484 346.579 210.095 345.155C208.68 339.961 207.61 336.753 206.355 333.938C205.649 332.356 204.752 330.066 204.362 328.849C203.972 327.632 203.294 325.949 202.856 325.109C202.418 324.27 202.059 323.36 202.056 323.087C202.051 322.38 198.062 311.811 197.087 309.921C196.638 309.051 195.787 308.339 195.196 308.339C193.545 308.339 192.72 304.588 193.946 302.653C194.256 302.163 194.142 301.116 193.65 299.939C192.194 296.454 194.27 295.191 195.989 298.514C196.467 299.439 197.613 300.733 198.536 301.389L200.214 302.584L200.61 306.181C200.956 309.325 202.693 314.312 204.366 316.968C205.74 319.149 209.502 325.507 210.492 327.322C212.341 330.711 217.134 337.953 217.662 338.156C217.936 338.262 218.16 338.675 218.16 339.074C218.16 339.828 221.464 344.929 224.504 348.868C226.707 351.722 231.169 354.935 232.93 354.935H234.267V352.993V351.052L228.946 343.066C226.02 338.674 222.234 332.901 220.534 330.238C218.834 327.575 216.957 324.875 216.363 324.237C215.769 323.6 215.284 322.779 215.284 322.413C215.284 322.047 214.794 321.305 214.196 320.765C212.816 319.515 209.896 313.556 208.761 309.669L207.889 306.685L208.637 306.064C209.824 305.079 211.028 305.914 212.176 308.517C212.76 309.843 213.4 311.057 213.597 311.215C213.794 311.374 215.594 314.48 217.597 318.118C219.6 321.757 221.943 325.51 222.803 326.46C223.663 327.409 225.295 329.653 226.43 331.448C227.564 333.242 229.597 335.866 230.948 337.277C234.494 340.984 236.337 343.284 238.749 347.02C239.922 348.836 241.173 350.325 241.529 350.327C241.884 350.33 243.411 351.023 244.92 351.867C252.732 356.232 256.366 352.507 250.93 345.706C249.337 343.714 247.63 341.232 247.135 340.189C246.641 339.147 244.509 336.278 242.399 333.815C240.289 331.352 237.402 327.914 235.984 326.176C232.958 322.47 230.225 319.844 229.393 319.844C228.723 319.844 226.454 317.085 224.664 314.092C223.267 311.758 222.521 307.827 223.259 306.696C223.812 305.848 226.213 306.287 226.213 307.236C226.213 308.092 231.421 314.304 232.767 315.053C233.434 315.425 234.691 315.586 235.561 315.413L237.143 315.098V316.155C237.143 316.737 237.831 317.761 238.672 318.431L240.2 319.649L239.123 321.473L238.046 323.296L239.13 325.165C240.928 328.263 252.729 339.605 255.556 340.951C256.977 341.628 259.292 343.267 260.7 344.594L263.26 347.006L265.59 346.679C268.777 346.232 271.073 345.064 271.079 343.888C271.084 342.706 269.896 339.978 269.376 339.978C268.711 339.978 263.605 332.652 263.605 331.7C263.605 330.431 264.15 330.536 265.874 332.14C266.683 332.891 268.682 334.431 270.318 335.562L273.291 337.62L275.351 337.285L277.411 336.951V335.851C277.411 334.383 271.756 328.838 268.663 327.271C264.173 324.997 257.852 320.318 257.852 319.268C257.852 318.713 257.474 317.945 257.012 317.562C255.627 316.413 255.362 314.68 256.395 313.538C257.702 312.094 259.113 312.628 260.677 315.158C261.405 316.336 263.042 317.937 264.314 318.716C265.587 319.494 267.054 320.391 267.573 320.707C268.093 321.023 269.33 321.865 270.321 322.577C271.313 323.289 272.258 323.871 272.422 323.871C272.586 323.871 273.466 324.583 274.378 325.453C275.29 326.323 277.187 327.999 278.593 329.177L281.15 331.319L283.073 331.083C285.531 330.782 286.673 329.302 286.257 326.957C285.864 324.744 286.748 324.072 288.468 325.276C290.99 327.042 294.093 325.187 294.093 321.913C294.093 321.408 294.559 320.995 295.129 320.995C299.257 320.995 297.938 314.54 293.645 313.737C292.468 313.516 290.858 312.888 290.067 312.341C289.276 311.794 286.518 310.118 283.939 308.616C274.529 303.138 277.353 300.066 289.204 302.891C291.418 303.42 294.307 303.979 295.623 304.136L298.015 304.42L299.008 302.329L300 300.237L298.923 299.45C298.331 299.017 296.922 298.516 295.793 298.335C293.297 297.936 289.951 296.336 290.329 295.723C290.481 295.479 292.456 295.123 294.718 294.933C296.98 294.744 298.962 294.459 299.12 294.3C299.709 293.711 298.671 291.308 296.985 289.356C295.816 288.002 295.246 286.726 295.245 285.458L295.244 283.574L293.662 282.963L292.08 282.351L294.093 281.39L296.107 280.428V278.996V277.563L289.204 277.463C279.035 277.315 258.131 274.812 254.23 273.276C253.533 273.001 250.892 272.343 248.361 271.813C245.83 271.284 243.111 270.635 242.321 270.37C241.53 270.106 238.941 269.459 236.568 268.934C234.195 268.409 231.606 267.771 230.815 267.517C230.024 267.263 228.342 266.775 227.076 266.432C225.811 266.091 221.281 264.729 217.009 263.405C212.738 262.083 208.337 260.8 207.23 260.553C206.123 260.308 203.793 259.707 202.053 259.219C190.034 255.85 176.602 254.025 172.076 255.147L170.575 255.519L170.28 254.461C170.118 253.879 168.463 252.672 166.604 251.78C159.937 248.581 158.046 247.407 158.126 246.518C158.174 245.996 157.579 245.475 156.688 245.26C155.853 245.058 154.522 244.478 153.732 243.971C152.941 243.463 151.063 242.429 149.561 241.674L146.828 240.299V238.975C146.828 235.967 149.329 237.012 156.849 243.163C157.456 243.66 159.222 244.401 160.773 244.81L163.593 245.554L164.775 244.372L165.957 243.191L164.073 241.717C162.242 240.283 152.468 235.282 151.497 235.282C150.853 235.282 147.033 232.322 144.527 229.881C142.704 228.104 140.523 226.653 139.676 226.653C139.497 226.653 139.35 227.119 139.35 227.689C139.35 230.66 132.871 230.753 132.681 227.785C132.651 227.32 132.325 226.207 131.958 225.31C131.187 223.435 131.497 222.626 132.986 222.626C133.561 222.626 134.362 222.228 134.767 221.742L135.501 220.857L133.399 218.932C131.11 216.835 130.886 216.205 132.083 215.211L132.869 214.559L135.251 216.723C136.561 217.913 138.38 219.534 139.293 220.325C143.355 223.842 150.107 229.945 151.425 231.29C153.132 233.033 154.712 233.771 156.389 233.61C157.636 233.491 161.091 235.578 165.96 239.392C169.502 242.165 170.779 242.554 172.181 241.285C173.689 239.92 173.582 239.229 171.564 237.295C169.536 235.352 169.4 234.407 171.021 233.539L172.205 232.906L174.439 234.924C177.959 238.105 182.494 239.925 182.494 238.158C182.494 237.842 182.882 237.583 183.357 237.583C185.651 237.583 183.745 234.82 179.417 231.871C177.762 230.743 176.299 229.187 175.821 228.042C174.063 223.836 175.298 223.871 179.307 228.144L182.324 231.36L183.996 231.184L185.668 231.009L188.735 233.433C192.469 236.384 193.24 236.438 194.333 233.821C194.802 232.701 195.409 231.922 195.682 232.092C197.542 233.241 196.493 230.265 194.28 228.114C192.86 226.734 191.698 225.351 191.698 225.04C191.698 223.284 195.792 224.085 198.937 226.456C202.516 229.156 207.99 228.446 208.173 225.258C208.286 223.307 206.856 222.17 198.49 217.556C194.474 215.341 190.85 213.254 190.436 212.918C190.023 212.582 188.262 211.185 186.522 209.811C183.241 207.221 182.684 206.256 183.628 204.794L184.185 203.931L185.496 204.752C186.218 205.204 187.585 205.98 188.534 206.478C189.483 206.975 190.389 207.514 190.547 207.674C191.484 208.625 199.125 213.348 200.327 213.719C201.118 213.964 203.548 215.083 205.726 216.206C209.795 218.304 214.781 219.077 215.802 217.769C217.757 215.261 216.607 212.789 212.814 211.348C207.287 209.248 201.364 206.568 198.314 204.786C196.415 203.678 194.189 202.426 193.366 202.005C190.628 200.604 186.233 196.991 186.233 196.141V195.302L189.45 195.443C191.623 195.538 193.583 196.077 195.49 197.104C203.439 201.382 205.762 202.492 206.757 202.492C207.782 202.492 210.614 203.995 211.267 204.885C211.431 205.108 213.243 206.085 215.293 207.055C219.564 209.076 222.183 209.363 222.195 207.814C222.199 207.26 222.359 206.224 222.549 205.513L222.896 204.218H221.667C220.453 204.218 216.163 201.832 215.773 200.94C215.662 200.686 212.803 199.106 209.42 197.428C203.119 194.304 199.479 191.219 200.119 189.55C200.578 188.352 200.995 188.437 204.772 190.502C210.481 193.624 210.953 193.857 211.581 193.86C212.562 193.866 218.239 196.737 219.23 197.728C221.884 200.382 227.241 201.455 230.199 199.925C233.038 198.457 232.924 195.6 230.026 195.582C229.353 195.578 226.874 194.284 224.518 192.706C222.161 191.128 220.008 189.837 219.733 189.837C219.458 189.837 218.41 189.22 217.402 188.465C216.395 187.71 214.018 186.38 212.12 185.509C210.221 184.637 207.892 183.358 206.942 182.665C205.993 181.973 204.44 181.012 203.491 180.53C193.641 175.526 192.24 174.432 193.378 172.634L193.889 171.826L197.076 173.119C198.829 173.83 200.527 174.249 200.85 174.05C201.174 173.849 202.472 174.214 203.736 174.858C205 175.503 206.821 176.031 207.782 176.031C208.744 176.031 209.531 176.302 209.531 176.634C209.531 177.742 212.662 180.02 215.859 181.24C217.599 181.904 219.821 182.939 220.797 183.541C221.773 184.143 223.585 184.794 224.824 184.988C226.063 185.182 227.163 185.575 227.267 185.861C227.597 186.76 234.613 189.732 237.383 190.148C244.028 191.144 242.796 186.251 235.873 184.153C233.269 183.364 229.15 181.851 227.076 180.922C226.127 180.496 222.503 179.109 219.023 177.839C206.216 173.167 202.415 171.407 187.882 163.421C184.761 161.705 180.783 159.551 179.043 158.633L175.879 156.964L172.744 157.206C171.02 157.34 169.509 157.748 169.387 158.115C169.265 158.481 168.926 158.633 168.635 158.453C168.344 158.273 167.949 158.53 167.76 159.025C167.322 160.164 165.287 160.183 163.686 159.061C163.008 158.586 162.031 158.36 161.515 158.559C160.287 159.03 157.758 156.662 157.758 155.041C157.758 154.169 158.344 153.581 159.772 153.021C161.734 152.251 161.881 151.971 162.037 148.706L162.092 147.556L164.096 147.268L166.099 146.981L166.28 145.71C166.38 145.011 165.797 143.463 164.986 142.269C161.958 137.813 164.667 133.904 169.336 135.989L170.272 136.407L170.642 134.935C171.071 133.224 171.65 133.115 173.579 134.378C174.558 135.02 175.631 135.187 177.154 134.934C178.351 134.735 183.213 134.544 187.959 134.508C192.705 134.473 196.847 134.296 197.163 134.115C197.48 133.934 198.644 133.729 199.752 133.659C200.859 133.59 203.91 133.402 206.531 133.242C209.153 133.082 211.795 132.794 212.402 132.601C214.29 132.002 224.703 131.774 225.358 132.318C225.733 132.629 226.975 132.49 228.495 131.966C229.878 131.49 232.455 131.159 234.221 131.232C240.261 131.48 253.205 128.907 255.301 127.041C255.954 126.46 256.916 125.984 257.439 125.984C258.77 125.984 262.454 122.157 262.454 120.773C262.454 120.081 263.023 119.412 263.893 119.081L265.331 118.534V116.835C265.331 115.901 264.928 114.734 264.436 114.241L263.54 113.345L259.69 115.349C255.797 117.375 251.887 118.4 246.635 118.773C239.616 119.272 234.967 119.796 232.907 120.32C231.684 120.632 229.613 121.014 228.304 121.168C226.996 121.324 224.89 121.696 223.625 121.997C222.359 122.298 217.311 123.043 212.407 123.653C207.503 124.263 200.385 125.192 196.588 125.717C192.791 126.244 187.149 126.688 184.05 126.704L178.414 126.734L177.846 127.797C176.655 130.021 173.113 128.639 172.369 125.661C172.132 124.709 170.481 122.569 168.592 120.764C165.342 117.658 164.569 115.951 165.838 114.683C166.827 113.694 166.807 109.242 165.812 108.729C162.947 107.252 161.725 106.979 158.645 107.125L155.219 107.288L155.037 105.081L154.854 102.873L155.982 102.578C157.385 102.211 158.263 99.8259 157.902 97.3655L157.629 95.5023L155.248 95.8739C153.94 96.0787 152.782 96.4653 152.677 96.7333C152.571 97.0014 152.11 97.2211 151.652 97.2211C151.194 97.2211 150.67 97.6094 150.488 98.084C150.306 98.5586 149.836 98.9469 149.445 98.9469C149.053 98.9469 148.264 99.4646 147.691 100.097C146.413 101.51 143.377 101.673 143.377 100.328C143.377 99.8224 144.128 98.7076 145.045 97.8505C147.175 95.8601 149.705 92.1428 149.705 91.0021C149.705 90.5177 150.138 89.6416 150.669 89.0554C152.111 87.4625 150.93 86.5278 148.532 87.3636C147.522 87.7157 146.449 87.8508 146.147 87.6639C145.845 87.4769 144.475 87.9199 143.103 88.6481L140.607 89.9718L139.726 89.2407C139.241 88.838 138.764 87.9452 138.666 87.256L138.487 86.0037L137.039 86.1711C136.167 86.2718 134.539 85.6413 132.941 84.5828C131.08 83.3495 129.34 82.7368 127.099 82.524L123.908 82.2214L121.706 84.1117C120.495 85.1512 119.297 86.3258 119.044 86.7216C118.791 87.118 118.208 87.4418 117.749 87.4418C117.291 87.4418 116.906 87.7657 116.894 88.1609C116.865 89.1653 111.962 92.171 110.735 91.9369C109.029 91.6118 109.122 89.2591 110.867 88.5952C112.708 87.8957 116.594 83.7372 118.929 79.9681C119.878 78.4362 121.894 75.3632 123.41 73.1405C126.481 68.6339 130.314 61.1804 132.917 54.6524C133.863 52.2795 135.438 48.6134 136.418 46.5057C137.398 44.3979 138.2 42.3477 138.2 41.9491C138.2 41.5504 138.553 40.8158 138.985 40.3165C139.418 39.8166 140.88 36.4479 142.235 32.8296L144.699 26.251L144.757 18.6853L144.815 11.1195L144.026 10.1635C143.145 9.09637 143.016 9.07738 141.304 9.76941ZM203.86 14.6637C203.209 15.7664 202.395 17.7723 202.05 19.1219C201.16 22.6068 200.305 24.7116 198.78 27.1725C198.049 28.353 197.443 29.6473 197.433 30.0488C197.396 31.671 187.516 45.7233 181.487 52.7276C179.51 55.0252 177.891 57.1099 177.89 57.3607C177.888 57.6115 176.788 59.033 175.445 60.5194C172.878 63.3612 172.278 64.0658 169.663 67.316C168.776 68.4188 164.977 72.4277 161.222 76.2244C154.391 83.1309 153.05 85.146 155.071 85.4624C157.321 85.815 157.758 86.2764 157.758 88.2949C157.758 90.3509 159.846 94.3322 160.922 94.3288C161.239 94.3282 162.792 93.4141 164.374 92.2976C165.956 91.181 167.921 89.8263 168.74 89.2861C169.924 88.5072 178.364 80.9708 182.242 77.2311C182.652 76.8359 183.264 76.512 183.604 76.512C183.943 76.512 184.221 76.3182 184.223 76.0806C184.225 75.843 185.066 74.8513 186.092 73.8762C197.1 63.4221 200.236 59.6191 199.478 57.6443C199.059 56.5525 200.19 55.211 201.201 55.5993C202.205 55.9847 205.188 52.9893 207.919 48.8527C209.086 47.0861 210.831 44.7937 211.799 43.7583C212.766 42.7228 213.558 41.2904 213.558 40.5754C213.558 39.8603 214.034 38.6586 214.615 37.9039C215.196 37.1492 216.646 34.8493 217.837 32.7928C219.028 30.7362 220.494 28.5905 221.095 28.0245C221.805 27.3555 222.187 26.2107 222.187 24.7507C222.187 23.5162 222.446 22.3462 222.762 22.1506C223.57 21.6513 223.479 19.8202 222.611 19.1L221.884 18.4966L219.402 22.2098C218.037 24.252 216.713 26.6422 216.461 27.5217C215.78 29.8958 214.167 32.8543 212.471 34.8378C211.645 35.8042 210.322 37.4742 209.531 38.5488C200.149 51.2946 176.551 76.7197 171.685 79.3239L170.397 80.013L170.049 79.1058C169.522 77.7344 171.022 73.0496 172.229 72.296C172.813 71.9319 173.29 71.0483 173.29 70.3332V69.0337H175.235H177.181L178.687 67.0589C179.516 65.9722 180.193 64.7993 180.193 64.4518C180.193 64.1044 180.581 63.6712 181.056 63.4894C181.531 63.3071 181.919 62.9614 181.919 62.7203C181.919 61.9397 186.939 54.7721 189.19 52.3387C190.395 51.0364 192.383 48.5277 193.606 46.7651C194.829 45.002 196.453 42.8867 197.215 42.0647C197.978 41.2427 198.601 40.2573 198.601 39.8741C198.601 39.491 198.974 38.9693 199.429 38.7144C199.953 38.4211 200.323 37.0893 200.436 35.0903L200.615 31.9299L201.819 31.7579C203.112 31.5732 205.503 27.9043 205.507 26.0991C205.508 25.5095 205.981 24.2503 206.558 23.3011C207.885 21.118 208.081 15.7578 206.9 13.9532C205.752 12.1981 205.245 12.3166 203.86 14.6637ZM236.685 37.5386C234.086 40.1324 231.296 44.3709 231.624 45.2263C232.17 46.6478 209.326 71.3347 207.465 71.3347C207.097 71.3347 206.46 71.7392 206.05 72.2333C205.394 73.0237 200.812 76.3308 198.129 77.9502C197.605 78.2665 195.361 79.6656 193.143 81.0588C190.925 82.4521 187.039 84.8503 184.508 86.388C181.976 87.9256 179.517 89.4213 179.043 89.7112C178.568 90.0017 175.119 92.0985 171.379 94.3702C162.487 99.7712 161.448 101.565 166.838 102.203L169.747 102.548L170.224 106.62L170.701 110.691L172.14 111.039C173.662 111.407 173.736 111.822 172.978 115.773L172.564 117.93L174.509 117.924C179.028 117.91 195.793 111.357 199.062 108.329C199.972 107.485 200.913 107.124 201.697 107.317C202.496 107.514 204.598 106.658 207.805 104.829C210.495 103.296 213.601 101.692 214.708 101.264C215.816 100.837 217.256 100.011 217.909 99.429C218.563 98.8474 219.688 98.3717 220.411 98.3717C221.134 98.3717 222.412 97.6468 223.25 96.7615C224.089 95.8756 226.587 94.2333 228.802 93.111C233.93 90.5131 237.035 88.5101 238.94 86.5692C239.77 85.7236 241.047 84.733 241.78 84.3677C242.538 83.9892 243.323 82.8841 243.603 81.8021L244.095 79.9014L245.145 80.2351C247.653 81.0306 251.313 78.0451 254.54 72.5715C256.633 69.0228 256.559 68.7156 253.617 68.7323L251.106 68.7461L247.113 72.4853C241.434 77.8029 231.952 84.2561 223.742 88.3904C221.466 89.5369 218.801 91.0866 217.821 91.8345C216.84 92.5823 215.872 93.1944 215.67 93.1944C215.468 93.1944 213.809 93.9117 211.985 94.789C210.161 95.6657 207.166 96.8887 205.331 97.5071L201.993 98.6305L201.457 97.782C200.619 96.4561 201.058 95.8917 204.162 94.3058C205.753 93.4929 207.676 92.2464 208.436 91.5353C209.197 90.8238 210.725 89.8142 211.832 89.2913C214.972 87.8088 218.575 85.2386 218.974 84.1968C219.174 83.6762 219.496 83.4087 219.689 83.602C220.143 84.0559 227.951 79.9469 230.386 77.9737C237.91 71.8755 246.643 63.0741 246.078 62.16C245.876 61.8327 246.533 60.5418 247.537 59.2912L249.364 57.0178L248.995 55.5475L248.626 54.0771H247.027H245.428L244.053 56.2343C242.212 59.1221 238.75 62.0697 226.866 70.8688C225.716 71.7202 223.446 73.2106 221.823 74.1805C220.199 75.1504 218.556 76.3222 218.173 76.7847C217.789 77.2466 215.828 78.5455 213.816 79.6713C211.803 80.7965 209.999 81.9735 209.805 82.287C209.612 82.5999 208.5 83.3782 207.335 84.0168C206.17 84.6553 203.922 85.9876 202.34 86.9782C195.245 91.4209 190.477 93.7869 189.604 93.2991L188.72 92.8038L192.078 89.8435C193.926 88.215 195.698 86.8792 196.017 86.8746C196.336 86.87 197.993 85.4428 199.7 83.7027C201.407 81.9626 203.217 80.5376 203.722 80.5365C205.878 80.5313 215.859 71.9733 215.859 70.1302C215.859 69.1482 219.975 65.2325 221.52 64.7458C222.354 64.4823 223.346 63.3031 224.129 61.644C224.824 60.1714 226.288 58.0441 227.385 56.916C232.788 51.3562 234.656 49.1006 237.249 45.0065C239.095 42.0917 239.961 40.1623 239.763 39.4082C239.596 38.7754 239.456 37.805 239.452 37.251C239.441 35.8652 238.237 35.99 236.685 37.5386ZM258.686 89.7003C257.524 90.833 238.51 100.637 235.13 101.847C234.497 102.073 231.261 103.35 227.939 104.684C224.617 106.019 221.381 107.304 220.749 107.539C217.469 108.758 213.594 110.022 211.544 110.542C210.279 110.863 208.726 111.34 208.093 111.602C207.46 111.865 205.907 112.343 204.641 112.666C203.376 112.988 200.658 113.692 198.601 114.23C196.545 114.768 193.438 115.58 191.698 116.034C181.035 118.817 178.077 119.857 176.436 121.399C174.039 123.651 174.566 124.095 179.474 123.959C181.926 123.892 184.968 123.56 186.233 123.223C187.499 122.886 190.346 122.543 192.561 122.46C194.776 122.378 196.909 122.073 197.301 121.781C197.693 121.49 198.858 121.409 199.889 121.602C201.227 121.851 202.507 121.577 204.354 120.647C205.778 119.93 207.978 119.039 209.243 118.668C210.509 118.296 214.068 117.201 217.151 116.236C220.235 115.269 223.151 114.479 223.631 114.479C224.111 114.479 224.953 114.234 225.502 113.936C226.052 113.637 228.127 112.77 230.113 112.008C232.1 111.247 234.604 109.892 235.678 108.997C236.751 108.101 238.102 107.307 238.681 107.232C239.259 107.157 240.767 106.697 242.033 106.21C243.298 105.723 244.755 105.314 245.27 105.3C245.785 105.286 246.529 104.886 246.923 104.412C247.317 103.937 248.34 103.549 249.197 103.549C250.262 103.549 250.994 103.103 251.51 102.138C251.925 101.362 252.983 100.477 253.862 100.171C255.415 99.6297 256.44 98.8313 259.721 95.6099L261.303 94.0573L261.303 91.6124L261.304 89.1676H260.268C259.699 89.1676 258.987 89.4075 258.686 89.7003ZM23.497 99.7097L21.8317 101.043L22.2298 103.163C22.9258 106.873 26.7248 108.038 29.6206 105.428C31.4873 103.746 30.3857 100.665 27.3334 99.0315C25.6588 98.1352 25.4103 98.1789 23.497 99.7097ZM43.467 113.679C43.2012 114.371 43.5055 114.964 44.4472 115.588C49.8678 119.176 54.0994 124.108 57.1361 130.377C58.6375 133.475 59.8024 135.161 60.5825 135.366C62.2047 135.79 62.5711 134.48 61.4563 132.245C60.9529 131.235 60.5497 130.125 60.5606 129.778C60.5974 128.635 57.3898 122.582 56.734 122.556C56.3802 122.543 55.4466 121.558 54.6585 120.368C52.0497 116.425 44.2108 111.74 43.467 113.679ZM263.994 136.716C263.469 137.242 257.099 137.47 236.568 137.698C226.46 137.81 218.629 138.164 216.146 138.621C213.571 139.095 206.107 139.402 195.437 139.474L178.755 139.585L175.879 140.988C172.408 142.681 171.93 144.193 174.201 146.298C175.52 147.521 181.335 149.757 183.43 149.846C184.021 149.871 185.788 150.617 188.382 151.938C188.932 152.217 189.981 152.445 190.712 152.445C191.445 152.445 192.289 152.659 192.59 152.921C192.89 153.182 194.172 153.682 195.437 154.031C202.683 156.032 204.253 156.435 206.08 156.771C207.187 156.974 209.387 157.606 210.969 158.176C212.551 158.746 215.14 159.372 216.722 159.567C218.304 159.763 220.892 160.081 222.474 160.275C224.056 160.468 225.868 160.737 226.501 160.871C230.386 161.696 233.766 162.245 236.28 162.462C237.862 162.599 241.228 162.89 243.759 163.111L248.361 163.513L249.457 162.293C250.202 161.464 251.24 161.074 252.703 161.074C254.083 161.074 254.971 160.765 255.184 160.211C255.366 159.737 256.125 159.348 256.871 159.348C260.074 159.348 262.023 154.635 259.255 153.582C257.851 153.049 250.31 152.082 248.792 152.242C247.663 152.361 247.94 151.4 249.655 149.251C250.525 148.16 251.675 147.268 252.21 147.268C252.745 147.268 253.342 147.009 253.538 146.693C253.734 146.377 255.448 146.118 257.348 146.118C259.788 146.118 261.703 145.706 263.87 144.715L266.937 143.312L266.975 140.113C266.996 138.353 266.785 136.914 266.506 136.914C266.228 136.914 265.642 136.776 265.204 136.608C264.766 136.44 264.222 136.489 263.994 136.716ZM57.9754 154.789C56.7513 156.395 54.9318 158.332 53.9331 159.094C52.9339 159.856 51.7564 161.196 51.3157 162.071C50.8756 162.947 50.0283 164.384 49.4341 165.265C48.3687 166.844 48.4446 168.553 49.5802 168.553C49.9 168.553 51.3215 166.792 52.7389 164.64C55.2027 160.9 58.8481 157.64 61.4839 156.819C63.8004 156.097 63.3063 151.87 60.9052 151.87C60.518 151.87 59.2001 153.184 57.9754 154.789ZM175.383 152.733C174.854 154.113 175.598 155.303 177.236 155.697C178.072 155.898 180.826 157.039 183.357 158.233C185.888 159.427 188.995 160.715 190.26 161.096C191.526 161.476 193.726 162.376 195.15 163.095C196.574 163.814 198.644 164.718 199.752 165.103C200.859 165.489 203.395 166.552 205.386 167.466C207.378 168.38 209.319 169.134 209.701 169.142C210.497 169.158 216.732 171.168 218.448 171.961C220.297 172.817 231.528 175.464 233.289 175.46C234.174 175.457 235.598 175.802 236.453 176.227C240.459 178.216 252.417 178.904 254.445 177.262L255.696 176.248L254.907 174.982C253.975 173.491 253.607 173.347 247.21 171.992C245.628 171.657 243.901 171.144 243.371 170.852C242.841 170.561 240.641 170.036 238.481 169.685C236.322 169.334 232.872 168.647 230.815 168.158C228.759 167.67 225.455 167.029 223.474 166.736C221.493 166.442 217.61 165.338 214.845 164.282C212.081 163.227 208.395 162.053 206.655 161.675C201.617 160.578 199.708 159.977 195.725 158.234C183.526 152.895 176.092 150.885 175.383 152.733ZM153.277 166.389C151.552 167.219 151.868 168.625 154.021 169.705C154.969 170.181 156.651 171.259 157.758 172.099C160.381 174.089 165.684 176.931 167.642 177.394C172.438 178.528 174.598 173.379 170.249 171.181C169.232 170.667 167.983 169.954 167.472 169.595C166.923 169.211 166.101 169.134 165.459 169.41C163.651 170.183 161.659 169.693 158.258 167.636C156.477 166.558 154.923 165.694 154.807 165.715C154.69 165.737 154.001 166.04 153.277 166.389ZM149.724 176.295C148.21 178.12 150.485 182.255 153.507 183.169C154.175 183.37 155.555 184.451 156.573 185.57C158.553 187.746 160.33 188.006 161.412 186.279C162.5 184.543 160.398 182.154 153.026 176.75C150.947 175.226 150.646 175.185 149.724 176.295ZM146.055 185.137C144.634 186.706 144.861 187.582 147.548 190.911C151.268 195.522 162.18 207.127 164.928 209.396C175.186 217.865 179.828 220.901 182.523 220.901C185.199 220.901 184.943 219.455 181.742 216.482C180.099 214.957 178.237 212.714 177.605 211.498C176.972 210.281 175.419 208.49 174.153 207.517C172.887 206.543 170.817 204.788 169.551 203.616C168.285 202.444 166.556 201.322 165.707 201.125C164.441 200.829 156.461 193.214 148.986 185.168C147.73 183.817 147.254 183.812 146.055 185.137ZM137.337 205.369C137.141 205.685 136.479 205.944 135.865 205.944C134.035 205.944 134.572 206.929 137.768 209.44C141.218 212.15 143.819 214.549 147.116 218.06C150.001 221.133 159.443 228.101 163.948 230.483C169.49 233.412 166.27 227.536 160.064 223.393C154.497 219.678 149.64 215.422 148.663 213.405C148.187 212.423 146.891 210.795 145.783 209.788C144.675 208.781 143.042 207.246 142.154 206.375C140.547 204.801 138.014 204.272 137.337 205.369ZM156.991 210.354C155.079 212.267 164.765 221.62 170.025 222.94C173.135 223.72 171.329 219.98 167.578 217.872C166.057 217.016 163.29 214.889 161.43 213.144C157.96 209.889 157.651 209.695 156.991 210.354ZM98.8972 231.057C98.6827 231.271 98.5072 232.18 98.5072 233.077V234.707H100.648H102.788L105.969 237.814C111.588 243.304 117.706 245.83 118.427 242.958C118.827 241.367 117.602 239.884 115.887 239.884C115.443 239.884 114.363 239.374 113.487 238.751C112.612 238.127 111.768 237.745 111.611 237.901C111.456 238.058 110.061 237.273 108.513 236.157C101.664 231.224 99.7474 230.206 98.8972 231.057ZM134.378 236.152C133.838 237.561 135.158 238.58 139.22 239.893L143.038 241.126L143.773 240.121C144.689 238.869 143.805 237.589 142.012 237.57C141.339 237.563 139.66 237.046 138.281 236.42C135.269 235.053 134.812 235.022 134.378 236.152ZM127.27 242.753L126.407 243.303L127.035 244.326C127.947 245.81 129.796 246.551 135.524 247.727L140.614 248.772L141.428 247.659C142.679 245.949 142.104 245.363 139.018 245.199C135.031 244.987 133.598 244.585 133.598 243.679C133.598 242.326 128.996 241.652 127.27 242.753ZM122.668 267.352C122.668 267.906 123.605 269.107 124.752 270.021L126.836 271.685L126.497 274.541C126.099 277.905 125.481 278.797 123.203 279.297C120.938 279.795 121.073 280.52 124.044 283.796C126.822 286.86 126.948 286.827 127.519 282.886C127.793 281 128.275 279.962 129.08 279.532C129.72 279.189 130.632 277.98 131.106 276.845L131.967 274.782L131.281 272.331C130.127 268.207 122.668 263.896 122.668 267.352Z" fill="#FBFDFD"/>
</svg>
