<svg width="300" height="337" viewBox="0 0 300 337" fill="none" xmlns="http://www.w3.org/2000/svg">
<path fill-rule="evenodd" clip-rule="evenodd" d="M252.747 1.07418C252.57 1.25115 227.032 1.56553 195.997 1.77345C164.961 1.98064 132.446 2.46266 123.741 2.84395C98.223 3.96194 79.9496 4.42309 41.6892 4.9159L5.68057 5.37992L2.84029 8.06193L0 10.7439L0.246051 54.8245C0.381303 79.0691 0.597124 100.362 0.725901 102.143C0.853959 103.923 1.15468 154.265 1.39353 214.013C1.85468 329.408 1.86403 329.928 3.47986 333.765L4.52661 336.25L11.2504 336.037C14.9489 335.921 18.2137 335.677 18.505 335.497C18.7971 335.317 70.5979 335.021 133.619 334.841C253.483 334.497 297.209 334.132 298.958 333.462L300 333.062L299.892 263.825C299.732 160.54 298.974 26.895 298.484 15.4519L298.053 5.37992L296.463 3.73173L294.873 2.08352L289.522 1.46913C283.991 0.834594 253.316 0.505111 252.747 1.07418ZM178.64 19.0332C178.517 19.1375 153.165 19.4475 122.302 19.7224L66.1871 20.2224L63.0432 21.6123L59.8986 23.0015L53.6907 22.29C45.3137 21.3303 25.4914 21.377 21.5633 22.3662C16.5201 23.636 16.6166 23.2317 16.4482 43.7684C16.3648 53.9137 15.9331 67.3943 15.4892 73.7252C15.0453 80.0562 14.8532 89.7684 15.0619 95.308C15.2705 100.848 15.6216 121.243 15.8417 140.632C16.0619 160.02 16.3806 180.254 16.5496 185.596C17.1763 205.425 17.6906 237.454 18.0194 277.202C18.3691 319.338 18.4446 320.324 21.4022 321.266C23.7921 322.027 33.2971 321.744 37.2648 320.794L40.7173 319.968L42.1978 321.307L43.6784 322.646H61.7669C74.7619 322.646 80.9403 322.368 83.7058 321.658L87.5554 320.669L91.9734 316.727C96.9316 312.303 100.845 310.056 103.592 310.056C104.611 310.056 107.024 309.255 108.955 308.277L112.465 306.498L112.078 305.016C111.635 303.319 113.645 300.706 115.399 300.699C119.49 300.686 122.394 298.871 129.881 291.655C138.098 283.734 139.522 282.996 140.687 286.06L141.411 287.963L143.101 286.376C144.031 285.502 146.301 284.333 148.147 283.778L151.503 282.768L151.899 283.798C152.485 285.327 144.57 293.946 141.456 295.169C140.022 295.732 137.569 296.426 136.005 296.71C131.442 297.539 122.228 303.007 119.155 306.709C118.609 307.368 117.127 307.898 115.831 307.898H113.494L113.051 310.662C112.801 312.229 111.517 314.801 110.089 316.597C105.681 322.142 106.409 322.419 119.562 320.201C125.435 319.21 128.744 318.229 131.792 316.574C134.091 315.326 137.266 314.132 138.849 313.92L141.727 313.535L144.934 316.832L148.141 320.128H150.601C153.112 320.128 157.405 317.92 163.896 313.291C165.801 311.932 169.117 310.265 171.265 309.589L175.171 308.358L176.84 309.926C179.066 312.018 178.604 312.15 188.073 306.705C209.373 294.457 216.475 288.473 209.712 288.473C206.147 288.473 206.007 287.396 209.173 284.342C211.919 281.694 214.941 280.404 217.136 280.942L218.705 281.328L229.847 270.153C235.976 264.006 241.399 258.977 241.898 258.977C243.465 258.977 242.907 260.393 239.678 264.607C237.958 266.853 236.391 269.545 236.196 270.59L235.84 272.491L238.064 271.734C243.454 269.898 253.127 262.356 274.726 243.148C280.747 237.794 283.737 236.28 279.283 240.842C277.503 242.665 276.619 244.234 276.619 245.571V247.572L272.488 251.296C270.217 253.345 265.441 257.775 261.877 261.143C258.312 264.509 251.187 270.653 246.043 274.794C234.663 283.954 233.453 285.127 233.453 287.002V288.473H235.288C237.996 288.473 240.463 286.989 251.324 278.819C256.729 274.754 265.44 268.756 270.683 265.491C280.589 259.322 280.915 259.014 279.137 257.538C277.353 256.058 277.901 255.38 280.878 255.38H283.699L284.296 253.042C284.899 250.678 284.876 225.242 284.172 120.128C283.959 88.2756 284.074 54.3641 284.427 44.7691C285.35 19.7454 286.13 21.0713 269.892 20.0763C260.695 19.513 179.171 18.5814 178.64 19.0332ZM264.029 36.8238C262.05 37.6159 254.299 39.5029 246.804 41.0173L233.176 43.7713L227.199 46.7324C216.591 51.9893 209.609 60.259 205.037 72.9835C200.849 84.6367 189.697 91.3763 172.911 92.3986C159.76 93.2001 136.283 95.7533 125.18 97.59C119.245 98.572 113.227 99.5483 111.808 99.7591C107.853 100.346 101.799 96.8986 101.799 94.0583C101.799 92.1943 96.0576 86.3418 94.2144 86.3274C87.8943 86.2756 71.1626 120.441 74.4763 126.632C75.5763 128.689 75.8669 128.55 82.6885 122.705C93.1914 113.707 111.117 104.063 122.704 101.178C131.907 98.8857 164.84 96.5993 166.386 98.1447C167.192 98.9511 164.807 100.704 162.904 100.704C161.789 100.704 160.676 101.027 160.432 101.423C160.187 101.819 159.197 102.143 158.231 102.143C157.15 102.143 156.475 102.557 156.475 103.222C156.475 104.581 155.094 104.571 153.28 103.199C151.065 101.523 149.281 101.854 149.281 103.941C149.281 105.899 148.53 106.158 146.309 104.971C144.322 103.907 142.543 105.343 143.54 107.207C144.766 109.496 144.345 109.823 140.108 109.866C137.286 109.895 134.628 110.504 131.745 111.781C125.377 114.602 124.696 114.248 126.658 109.133C126.881 108.553 126.268 107.153 125.297 106.023L123.53 103.97L118.24 105.646C107.45 109.065 95.6813 116.702 83.1806 128.398C76.5108 134.637 75.4863 135.17 73.0619 133.655L71.6835 132.794L70.1554 134.555C55.8216 151.068 39.5892 179.618 36.6885 193.414L36.1791 195.838L37.1547 195.517C37.6906 195.34 39.0338 192.955 40.1381 190.216C46.7532 173.819 52.2424 166.891 58.6201 166.891C64.1324 166.891 61.7885 171.887 44.782 196.387L39.5389 203.941L37.0604 204.747L34.582 205.553L33.6914 209.044C32.3554 214.283 31.3863 223.517 30.8669 235.955L30.4014 247.107L31.8432 248.88L33.2849 250.653L40.2417 248.954L47.1979 247.254L48.0597 248.13L48.9209 249.005L46.9396 250.722C45.8496 251.666 43.8266 252.65 42.4432 252.91C38.6022 253.63 40.0389 257.536 44.5619 258.671C48.6338 259.693 86.218 243.773 104.356 233.344L107.273 231.667L108.837 232.761C122.786 242.532 148.506 248.22 151.273 242.147L152.073 240.391L149.887 237.089C147.053 232.812 143.382 229.714 137.001 226.216C131.609 223.26 125.54 217.352 125.54 215.058C125.54 214.334 127.7 211.294 130.34 208.301L135.142 202.862L141.312 202.748C144.706 202.686 147.96 202.663 148.545 202.696C152.484 202.921 167.673 200.591 170.543 199.321C178.48 195.811 186.703 188.415 186.68 184.809C186.656 181.065 184.254 179.867 175.674 179.319L169.065 178.899L166.839 177.211C163.966 175.034 163.086 175.098 155.755 178.016L149.64 180.45L149.389 179.329C148.991 177.552 163.098 148.999 164.625 148.491C165.349 148.25 167.852 148.767 170.187 149.64C177.165 152.25 183.127 149.655 181.995 144.499L181.559 142.517L183.813 141.351L186.067 140.186L185.601 138.064L185.135 135.943L187.352 135.499C189.375 135.095 190.765 132.358 188.947 132.358C188.117 132.358 188.128 126.576 188.96 124.984L189.619 123.725H195.96H202.302L205.108 125.763C206.651 126.884 212.284 132.415 217.626 138.054C236.566 158.048 249.283 163.435 257.691 155.027L260.072 152.646V150.084C260.072 146.263 257.518 140.15 253.825 135.134C249.33 129.028 248.561 126.855 248.561 120.263V114.596L247.224 113.385C246.183 112.444 238.053 110.891 233.591 110.781C233.468 110.778 233.568 110.452 233.813 110.056C234.058 109.66 236.202 109.337 238.579 109.337C242.819 109.337 245.683 108.477 245.683 107.204C245.683 105.466 243.233 104.301 239.576 104.301C237.46 104.301 235.217 104.104 234.591 103.864C232.656 103.122 233.335 102.143 235.791 102.132C239.501 102.117 241.463 101.37 241.206 100.071L240.976 98.9051L237.221 98.8914C233.205 98.877 232.2 98.1094 234.532 96.8396C245.098 91.0857 246.666 86.3152 237.992 86.3152C235.759 86.3152 234.892 86.0224 234.892 85.2684C234.892 84.3353 236.163 83.9224 241.225 83.2094C243.496 82.89 242.155 81.6065 239.209 81.2792C235.237 80.8382 235.225 79.7123 239.182 78.7979C242.814 77.9583 242.938 76.0015 239.383 75.6583C237.115 75.4389 236.219 73.9648 237.77 73.0058C238.165 72.7612 238.489 72.0109 238.489 71.3382C238.489 70.6648 239.17 69.6893 240.004 69.1691L241.518 68.2231L239.928 66.531C237.723 64.1835 238.631 63.2936 243.23 63.2936C247.85 63.2936 248.919 62.0152 246.473 59.4123C243.604 56.3583 246.331 54.0418 249.873 56.5231C250.771 57.1519 252.001 57.4763 252.605 57.2447L253.704 56.8224L252.212 54.9252C249.95 52.049 250.281 51.0634 253.509 51.0634C255.059 51.0634 256.681 50.6029 257.158 50.0274C257.631 49.4576 258.723 48.8914 259.585 48.7684C260.527 48.6339 261.236 47.9504 261.365 47.0504C261.482 46.2281 263.344 43.8396 265.501 41.7425C271.437 35.9742 270.871 34.0835 264.029 36.8238ZM139.738 121.278C139.501 121.514 139.459 122.101 139.643 122.582C139.828 123.063 139.327 124.047 138.53 124.768L137.081 126.079L136.629 124.902C135.893 122.984 134.702 123.615 131.62 127.555C130.019 129.604 127.518 131.845 126.063 132.535L123.417 133.792L123.831 135.867L124.246 137.942L122.555 137.633L120.863 137.324L118.819 139.921L116.776 142.517L119.323 144.992C122.199 147.784 123.796 148.119 124.448 146.067C124.776 145.034 125.668 144.61 127.858 144.448C131.627 144.169 132.114 142.792 128.914 141.455C125.686 140.106 125.112 139.06 126.66 137.349C127.975 135.896 129.856 135.469 129.856 136.623C129.856 137.445 135.836 137.023 137.516 136.084L138.736 135.401L136.409 134.198C134.691 133.309 134.142 132.583 134.308 131.417L134.532 129.84L137.998 129.619L141.463 129.398L140.998 127.281L140.533 125.164H142.052C144.133 125.164 144.824 123.05 143.145 121.822C141.722 120.783 140.438 120.577 139.738 121.278ZM109.891 143.707C107.583 144.081 106.468 146.448 107.514 148.746C108.472 150.847 107.286 152.957 106.165 151.145C105.831 150.603 105.196 150.382 104.757 150.654C103.501 151.43 103.818 153.592 105.396 155.02C106.187 155.736 106.835 156.758 106.835 157.29C106.835 157.822 106.187 158.258 105.396 158.258C104.604 158.258 103.957 158.732 103.957 159.312C103.957 159.891 104.604 160.712 105.396 161.135C107.132 162.065 107.283 163.294 105.66 163.294C103.781 163.294 99.641 160.411 99.6345 159.098C99.6281 157.638 96.0504 155.804 95.0878 156.767C94.6763 157.178 95.0079 158.184 95.9504 159.383C97.864 161.814 97.8691 162.642 95.9835 164.257C95.0043 165.095 94.6583 165.962 94.9856 166.755C96.241 169.796 96.1547 170.304 94.3043 170.768C91.895 171.373 91.9655 172.007 94.6086 173.512C95.7935 174.186 96.7626 175.238 96.7626 175.85C96.7626 177.245 93.9403 177.328 92.1072 175.988L90.7734 175.013L90.9288 170.232L91.0834 165.452H88.6151C87.2583 165.452 85.7662 165.912 85.3 166.473L84.4525 167.494L85.5144 168.091C86.0986 168.42 86.7921 169.553 87.0561 170.609L87.5367 172.53L85.8547 172.768C83.8015 173.058 83.618 175.045 85.6115 175.404C88.2036 175.871 88.4554 176.855 86.4561 178.708C85.3979 179.689 84.5324 180.804 84.5324 181.186C84.5324 182.869 85.5129 184.157 86.795 184.157H88.1842L87.977 182.245L87.7698 180.334L89.5971 179.83L91.4238 179.326L93.8137 181.321C96.4683 183.537 96.2604 184.876 93.2604 184.876C92.1727 184.876 90.654 185.352 89.8856 185.932C87.7489 187.549 86.2187 187.245 84.5266 184.868C82.618 182.188 81.3604 182.783 81.9 186.11L82.3043 188.601L81.0799 188.124C79.3633 187.455 79.359 187.455 77.1583 188.073C75.7065 188.481 75.1799 189.087 75.1799 190.35V192.071H77.5863C79.0791 192.071 80.4871 191.525 81.295 190.632C83.1324 188.601 83.6417 188.683 91.5108 192.273C93.2842 193.081 97.4209 191.778 97.5647 190.365C97.6108 189.918 97.6914 189.067 97.7446 188.473C97.7978 187.88 98.8935 187.084 100.18 186.706C102.987 185.879 103.111 184.965 100.719 182.718C98.7137 180.834 98.3252 178.401 100.029 178.401C101.744 178.401 105.396 181.402 105.396 182.811C105.396 184.568 106.5 185.067 107.56 183.789C109.912 180.955 112.013 183.763 111.713 189.341L111.511 193.098L112.647 193.332C113.387 193.486 114.232 192.574 115.068 190.722L116.351 187.875L115.432 184.29L114.514 180.705L115.426 178.501C115.928 177.29 117.438 175.46 118.781 174.435C122.8 171.37 121.699 168.792 117.27 170.894L114.739 172.095L113.664 171.204C112.169 169.963 112.324 169.049 114.029 169.049C116.128 169.049 115.799 167.798 112.95 164.948C109.422 161.421 109.542 159.009 113.12 161.515L114.69 162.615L115.828 160.414L116.965 158.214L114.778 156.373C112.485 154.444 111.834 151.783 113.655 151.783C114.24 151.783 115.38 153.078 116.187 154.66L117.655 157.538H120.553H123.451L124.469 155.2L125.486 152.862L123.619 151.196L121.753 149.53L119.116 149.976L116.479 150.421L114.534 148.891L112.589 147.361L113.003 145.712C113.459 143.894 112.512 143.284 109.891 143.707ZM81.4525 197.549C81.2094 197.792 81.4964 198.733 82.0906 199.64C83.4554 201.723 82.5353 202.373 79.1273 201.734L76.5748 201.255L77.005 199.9C77.5525 198.176 76.2568 198.143 72.5698 199.788L69.7842 201.031L72.1655 201.276L74.5475 201.521L74.3173 202.731C74.1777 203.465 72.695 204.383 70.5511 205.062C68.5065 205.71 66.7518 206.772 66.3914 207.58L65.7676 208.977H62.4777H59.1878L56.8302 211.704C53.0568 216.07 51.6511 223.737 54.359 225.186C59.0424 227.694 67.2662 221.77 67.2662 215.889V213.736L70.3237 213.514L73.3813 213.294L73.5986 210.694L73.8158 208.094L75.6863 207.242C78.2957 206.054 79.2504 207.177 78.0648 210.039C76.8698 212.925 77.3245 213.26 80.5856 211.897C84.3504 210.324 86.477 210.496 88.5216 212.542L90.2878 214.307V218.974C90.2878 224.694 91.1834 225.451 93.223 221.454C95.3237 217.337 95.3381 212.492 93.2604 209.13L91.6453 206.517L92.405 205.096C92.823 204.315 93.1655 202.834 93.1655 201.804V199.933L89.8683 198.519C86.6683 197.148 82.3511 196.65 81.4525 197.549ZM228.14 200.992C227.501 202.338 226.964 204.361 226.947 205.489C226.904 208.265 225.468 211.999 223.148 215.373C220.337 219.459 221.528 223.604 225.307 222.881L226.619 222.63L227.043 218.205L227.467 213.781L231.18 208.773C233.222 206.019 234.892 203.217 234.892 202.547C234.892 200.171 233.453 198.545 231.352 198.545H229.301L228.14 200.992ZM253.016 201.735C248.104 207.33 249.26 209.275 255.94 206.65L260.791 204.744V203.102C260.791 202.012 260.078 201.091 258.669 200.363C255.758 198.858 255.484 198.924 253.016 201.735ZM98.4525 208.706C100.278 218.752 99.8101 221.489 95.113 228.231C93.5245 230.511 92.4273 232.58 92.6755 232.827C93.582 233.734 97.9353 229.55 99.9979 225.79L102.117 221.927L102.049 216.459C101.98 210.922 100.83 207.196 99.0058 206.6L98.0115 206.276L98.4525 208.706ZM60.2928 213.27C58.8525 213.896 57.4367 215.365 56.4964 217.209L54.9964 220.148L55.7611 221.577C57.6899 225.182 63.4878 222.07 65.072 216.578C66.2381 212.535 64.5971 211.398 60.2928 213.27ZM254.524 218.507C250.993 221.617 247.069 224.896 245.806 225.796C244.542 226.696 243.704 227.749 243.942 228.135C244.576 229.161 257.923 228.101 259.886 226.87C262.322 225.342 265.23 219.085 264.968 215.936L264.748 213.294L262.846 213.073L260.945 212.853L254.524 218.507ZM226.688 227.442C223.665 231.757 227.91 235.107 232.1 231.714L233.784 230.35L233.066 228.297L232.348 226.243L230.092 226.023L227.836 225.803L226.688 227.442ZM271.447 228.935C269.988 229.828 267.01 231.626 264.83 232.929C262.65 234.232 260.024 236.301 258.993 237.525L257.119 239.752L257.337 242.35L257.554 244.948L259.243 245.187C261.079 245.448 264.388 242.868 264.388 241.177C264.388 240.44 263.808 240.588 262.205 241.729C260.099 243.228 257.914 243.243 257.914 241.758C257.914 240.253 262.414 236.007 264.869 235.196L267.436 234.349L272.038 235.595L276.64 236.84L278.736 235.973C281.527 234.817 281.94 233.414 280.409 230.285L279.137 227.682L276.619 227.496C275.001 227.376 273.151 227.891 271.447 228.935ZM44.4245 239.711C41.5612 241.092 42.6482 241.485 50.6892 241.973C55.0252 242.237 58.9907 242.606 59.5022 242.794C60.9094 243.31 62.7389 241.932 61.8396 241.032C59.9468 239.14 47.5576 238.2 44.4245 239.711ZM244.604 241.499C243.022 241.89 239.928 244.493 239.928 245.433C239.928 245.76 240.718 246.027 241.684 246.027C245.502 246.027 244.894 247.171 237.542 253.819C235.191 255.947 234.056 258.258 235.364 258.258C236.973 258.258 242.392 253.116 246.618 247.581L249.551 243.74L248.799 242.545C247.978 241.24 246.819 240.952 244.604 241.499ZM205.489 244.273C203.825 246.389 202.162 250.947 202.815 251.6C203.676 252.462 208.318 249.601 209.009 247.783C210.892 242.832 208.499 240.447 205.489 244.273ZM188.13 255.893C187.536 256.112 184.946 258.284 182.374 260.717C179.802 263.151 175.988 266.38 173.899 267.892C169.866 270.812 167.986 273.571 167.986 276.567C167.986 278.778 168.614 278.838 172.114 276.963C173.591 276.171 175.729 275.524 176.865 275.524C178.001 275.524 181.891 274.989 185.509 274.337L192.086 273.149L195.504 269.763C199.494 265.809 199.606 265.23 196.873 262.677L194.824 260.763L195.536 259.168C196.874 256.168 192.55 254.257 188.13 255.893ZM214.748 257.581C212.968 258.788 209.655 260.73 207.387 261.898C203.066 264.122 201.537 266.604 203.024 268.981C204.391 271.165 207.083 270.713 210.922 267.657C213.319 265.748 215.829 264.486 218.263 263.963C223.863 262.763 225.419 260.46 222.981 256.979C221.419 254.75 218.622 254.954 214.748 257.581ZM186.134 260.178C185.63 260.381 184.091 262.022 182.716 263.824L180.214 267.1L181.022 268.075C183.004 270.463 187.909 266.789 188.609 262.394L189.037 259.696L188.044 259.753C187.497 259.784 186.638 259.976 186.134 260.178ZM272.771 275.704C271.801 276.99 270.328 279.499 269.496 281.279C268.665 283.06 267.078 285.488 265.97 286.675C255.809 297.566 254.993 300.666 261.718 302.833L264.443 303.711L266.253 302.526L268.061 301.34L267.596 298.233L267.13 295.126L269.896 293.059C271.417 291.922 273.033 290.507 273.486 289.913C273.94 289.319 275.801 287.328 277.623 285.488L280.935 282.143V279.52C280.935 274.027 275.833 271.642 272.771 275.704ZM66.2842 287.087C63.1755 289.532 64.3446 292.758 68.736 293.854C71.1094 294.446 74.4604 291.927 74.4604 289.552C74.4604 285.726 69.8007 284.321 66.2842 287.087ZM281.583 289.269L279.496 291.504V295.025C279.496 299.658 277.832 301.423 273.458 301.423C270.255 301.423 269.422 302.141 269.427 304.899C269.427 305.559 268.699 307.484 267.808 309.178L266.187 312.255L267.266 312.934C270.935 315.237 277.791 314.319 281.318 311.051L283.278 309.234L282.43 308.386C281.963 307.919 280.383 307.538 278.919 307.538H276.259V306.099V304.66H279.991C284.459 304.66 285.007 304.189 285.429 299.984L285.754 296.747L284.362 295.196L282.969 293.644L285.19 292.003C286.557 290.992 287.41 289.722 287.41 288.698V287.035H285.54C284.376 287.035 282.883 287.878 281.583 289.269ZM223.115 292.091C221.104 294.481 220.972 294.896 221.66 296.688C221.94 297.418 222.976 297.826 224.553 297.826H227.009L227.842 295.999C229.912 291.455 226.219 288.402 223.115 292.091ZM164.232 299.804C161.242 303.749 159.038 305.312 153.743 307.237C151.245 308.146 148.89 311.598 149.565 313.358C150.15 314.882 151.112 314.613 154.601 311.949C157.542 309.705 161.208 308.474 169.963 306.794C174.591 305.905 175.829 301.242 172.358 297.771C169.275 294.688 167.837 295.048 164.232 299.804ZM204.959 298.693C201.991 301.429 198.921 306.058 198.921 307.798C198.921 308.171 199.973 309.145 201.259 309.962C202.545 310.78 204.329 311.987 205.223 312.644L206.85 313.839L209.831 311.773C218.311 305.896 219.375 300.704 212.099 300.704H209.552L210.024 298.186L210.497 295.668H209.369C208.749 295.668 206.764 297.029 204.959 298.693ZM229.648 302.09C226.629 304.06 223.175 306.181 221.971 306.804C217.835 308.942 220.032 313.64 224.723 312.688C231.482 311.315 233.078 310.758 234.594 309.238L236.29 307.538L236.491 303.299C236.749 297.829 236.296 297.749 229.648 302.09ZM248.921 305.166C246.166 306.737 239.565 312.388 239.119 313.556C238.419 315.388 239.047 315.812 242.463 315.812H245.633L248.219 313.542C250.635 311.42 253.597 306.742 253.597 305.049C253.597 304.06 250.734 304.131 248.921 305.166ZM191.367 311.252C186.233 313.958 184.56 317.164 187.469 318.721L188.966 319.522L191.765 317.67C198.163 313.436 197.817 307.851 191.367 311.252ZM172.756 315.106L169.332 317.278L169.558 319.242L169.784 321.207L172.348 321.422L174.913 321.638L176.932 319.624C182.615 313.955 179.642 310.738 172.756 315.106ZM260.581 314.756C255.027 316.794 250.919 321.653 254.856 321.527C258.753 321.402 266.319 316.694 265.607 314.836C265.068 313.433 264.222 313.42 260.581 314.756Z" fill="#FBFDFD"/>
</svg>
