<svg width="500" height="500" viewBox="0 0 500 500" fill="none" xmlns="http://www.w3.org/2000/svg">
<path fill-rule="evenodd" clip-rule="evenodd" d="M116.675 89.2047L110.067 89.5804L107.374 90.9981C103.842 92.8576 102.33 94.164 101.051 96.4615L100 98.3493L100.21 137.364C100.325 158.823 100.525 186.149 100.655 198.089C100.784 210.03 101.02 234.443 101.179 252.34C101.338 270.238 101.656 285.186 101.886 285.557C102.116 285.929 102.295 293.374 102.284 302.1C102.273 310.827 102.304 325.895 102.352 335.586C102.399 345.277 102.456 364.533 102.477 378.377L102.516 403.548L103.323 404.962C103.768 405.739 105.284 406.964 106.694 407.683L109.257 408.99L115.477 407.498L117.618 409.385L121.394 409.051C126.236 408.622 128.081 408.595 136.497 408.825C140.304 408.929 146.343 408.983 149.917 408.947L156.414 408.88L158.024 410.147C160.026 411.721 162.111 411.833 161.853 410.352C161.502 408.338 161.453 408.34 211.38 409.16C225.571 409.394 239.729 409.827 242.844 410.122C245.959 410.417 249.499 410.543 250.71 410.401C254.065 410.008 268.104 410.058 270.395 410.47C271.509 410.671 275.105 410.552 278.387 410.204L284.353 409.572L286.921 411.255L291.627 410.815C294.215 410.574 297.237 410.576 298.342 410.82C301.87 411.601 327.371 411.031 328.436 410.147L329.38 409.363L336.849 411.458L342.479 410.894C345.664 410.574 355.103 410.547 364.216 410.83C373.755 411.127 381.144 411.096 382.335 410.754C383.441 410.436 385.371 410.341 386.624 410.542C390.575 411.173 395.996 407.873 396.495 404.532C396.576 403.991 396.947 401.044 397.321 397.984L398 392.42L396.407 388.015L397.499 387.217C398.099 386.778 398.59 386.096 398.59 385.702C398.59 385.307 398.873 384.984 399.219 384.984C399.565 384.984 399.848 384.701 399.848 384.355C399.848 384.009 399.444 383.726 398.951 383.726H398.054L398.23 376.017C398.327 371.778 398.148 367.611 397.833 366.759C397.45 365.72 397.515 364.736 398.032 363.77L398.802 362.33L397.086 359.123L397.961 356.165C399.067 352.42 399.067 349.586 397.961 345.84L397.085 342.879L399.46 340.255L398.398 338.457C397.191 336.413 397.566 332.754 398.983 332.754C399.459 332.754 399.848 332.471 399.848 332.125C399.848 331.779 399.282 331.496 398.59 331.496C396.964 331.496 396.991 330.603 398.666 329.043L400 327.8L398.666 325.64C397.044 323.017 397.047 323.206 398.59 321.427C400.142 319.638 400.21 318.281 398.747 318.281H397.646L397.48 312.303C397.388 309.015 397.28 305.546 397.238 304.594C397.197 303.642 397.224 298.05 397.299 292.166C397.385 285.393 397.154 280.358 396.67 278.442C396.139 276.341 396.098 274.99 396.539 274.023C397.287 272.382 397.231 229.03 396.48 227.815C396.211 227.38 396.188 226.406 396.428 225.649C397.207 223.194 397.071 216.276 396.23 215.578C395.158 214.688 395.24 212.886 396.397 211.925L397.352 211.133L396.978 208.23C396.771 206.632 396.89 204.07 397.241 202.535C397.679 200.617 397.673 199.357 397.221 198.514C396.467 197.105 396.075 172.265 396.766 169.67C397.055 168.583 396.891 167.536 396.3 166.692C395.7 165.836 395.574 165.008 395.933 164.277C396.777 162.556 396.94 125.44 396.123 120.95L395.426 117.121L396.379 114.421C397.54 111.131 397.573 107.178 396.484 101.981C395.523 97.396 394.612 96.2369 389.849 93.5373L386.319 91.5368L362.092 91.6544C348.767 91.7193 332.626 91.7086 326.223 91.6299C314.647 91.4883 292.168 91.4883 270.532 91.6293C255.507 91.7275 237.093 91.3058 235.157 90.82C233.758 90.4689 211.183 90.0618 162.297 89.5061C152.952 89.3998 140.351 89.2041 134.294 89.0706C128.237 88.9379 120.309 88.9976 116.675 89.2047ZM156.634 100.001L152.858 101.965L147.194 101.47C144.079 101.198 139.124 100.926 136.182 100.866C133.24 100.807 130.341 100.54 129.74 100.276C129.139 100.011 127.751 100.106 126.657 100.488C125.562 100.869 124.018 101.181 123.223 101.181C122.429 101.181 121.095 101.818 120.259 102.597L118.739 104.013L119.205 119.115C119.461 127.422 119.733 151.067 119.811 171.66C119.888 192.253 120.085 227.083 120.248 249.061C120.864 331.795 120.955 345.593 121.029 367.132L121.105 389.239L122.549 391.97C124.123 394.946 125.296 395.519 130.016 395.619C131.642 395.654 134.463 396.001 136.283 396.392L139.591 397.101L141.311 394.513L143.938 395.444C147.143 396.58 156.631 397.058 158.558 396.18L159.96 395.541L163.512 396.87C167.655 398.42 169.72 398.547 170.744 397.314L171.478 396.428L173.661 397.031C174.861 397.362 176.081 397.487 176.371 397.308C176.66 397.129 178.63 397.304 180.747 397.698L184.597 398.414L194.503 396.151L197.908 396.733C200.286 397.14 202.45 397.078 205.088 396.528L208.863 395.739L214.212 396.411C217.154 396.781 219.844 397.049 220.19 397.007C220.536 396.966 235.292 396.833 252.981 396.713C270.67 396.594 285.395 396.341 285.703 396.153C286.012 395.965 288.53 396.08 291.298 396.407C297.264 397.113 312.282 397.548 341.955 397.876C353.896 398.008 364.373 398.178 365.238 398.255C371.455 398.803 377.558 397.079 378.554 394.493C379.14 392.973 378.933 365.319 378.1 333.698C377.422 307.957 377.18 278.06 377.38 244.656C377.51 223.001 376.066 111.926 375.624 109.588C375.502 108.944 375.382 108.06 375.355 107.622C375.328 107.184 374.387 106.251 373.261 105.546L371.216 104.267L367.441 104.609C361.984 105.104 358.561 105.102 347.619 104.599C333.926 103.97 328.991 104.025 324.65 104.854C322.133 105.335 320.245 105.375 318.986 104.972C317.32 104.44 314.005 103.966 303.569 102.766C302.012 102.587 298.755 102.683 296.333 102.978C293.618 103.309 291.203 103.279 290.04 102.9C289.001 102.561 283.672 102.214 278.196 102.129C271.756 102.029 267.723 101.698 266.78 101.194L265.322 100.413L260.69 101.023C258.143 101.359 254.241 101.415 252.02 101.149C249.768 100.878 247.313 100.917 246.473 101.237C244.283 102.069 241.84 101.935 239.798 100.871C238.563 100.226 237.666 100.124 236.89 100.539C236.248 100.883 234.994 100.919 233.958 100.625C232.183 100.121 226.78 100.644 221.118 101.868L218.27 102.484L213.999 100.353L198.846 99.8162C190.511 99.5211 183.025 99.4374 182.21 99.6299C181.343 99.8344 180.058 99.5418 179.117 98.9245L177.507 97.8698L173.131 98.2367C170.521 98.4551 168.322 98.9962 167.679 99.5777C167.087 100.113 165.736 100.552 164.677 100.552H162.751L162.839 99.4506C162.98 97.6729 160.723 97.8724 156.634 100.001ZM218.264 117.778C216.103 120.037 213.598 123.392 212.696 125.235L211.057 128.585L210.677 141.404L209.516 142.688C207.556 144.853 202.192 143.639 194.351 139.254C189.373 136.47 187.177 136.407 185.007 138.986L183.378 140.922L183.381 143.863C183.384 145.48 183.765 147.511 184.23 148.377C184.695 149.242 185.729 151.184 186.527 152.692C189.19 157.716 188.881 163.706 185.6 170.716C184.789 172.446 183.463 175.703 182.651 177.953L181.175 182.043L175.826 187.404C172.885 190.354 168.604 194.503 166.315 196.626L162.152 200.485L158.703 207.311C151.956 220.664 147.413 236.899 149.591 239.877L150.413 241.003L152.356 239.368C153.424 238.469 154.469 237.734 154.679 237.734C155.5 237.734 154.999 240.159 153.885 241.582C152.13 243.825 148.769 250.74 149.216 251.188C149.431 251.402 150.126 251.578 150.76 251.578C152.371 251.578 152.207 252.733 150.037 256.669C147.936 260.483 147.717 261.944 149.05 263.277L149.961 264.189L149.139 266.536C148.687 267.827 148.347 269.861 148.385 271.057L148.453 273.231L151.518 273.955L151.592 277.712C151.681 282.188 153.223 287.805 155.261 291.065C162.177 302.126 164.321 309.739 164.436 323.63C164.517 333.453 162.034 345.639 159.499 347.857C159.3 348.03 158.399 349.314 157.495 350.711C154.144 355.885 148.966 360.312 144.677 361.67C137.299 364.004 132.709 371.294 134.934 377.145L135.573 378.827L137.862 378.398C139.121 378.162 141.311 377.841 142.729 377.685C161.877 375.577 175.492 365.955 185.3 347.598L188.547 341.521L187.883 339.812C187.518 338.872 186.759 335.297 186.196 331.868C185.125 325.341 183.619 320.629 181.499 317.172L180.24 315.118L179.005 315.889C177.045 317.114 176.763 316.115 176.885 308.354C177.009 300.434 176.695 299.261 174.117 298.019C172.877 297.421 172.28 296.521 171.906 294.683C171.304 291.722 169.687 288.076 168.976 288.076C168.702 288.076 168.154 288.784 167.76 289.649C165.789 293.976 164.527 290.169 166.274 285.164C167.893 280.525 168.015 277.556 166.666 275.631C165.258 273.62 164.791 273.811 160.822 278.007C156.835 282.224 156.258 282.448 155.08 280.248C153.846 277.941 155.833 270.844 157.939 270.036C159.375 269.486 159.565 270.039 158.924 272.894C157.817 277.822 159.577 276.681 163.466 269.95C165.974 265.609 166.439 262.905 164.677 262.905C163.109 262.905 158.262 264.806 155.545 266.487C154.254 267.286 153.047 267.939 152.863 267.939C151.063 267.939 157.52 252.245 160.759 248.746C161.721 247.708 162.602 246.15 162.717 245.285L162.926 243.712L167.174 241.596C172.002 239.19 172.694 237.999 168.913 238.603C166.633 238.968 164.528 239.909 160.838 242.213C159.359 243.137 158.496 242.672 159.044 241.247C160.236 238.14 167.491 235.217 174.011 235.217C175.747 235.217 177.676 234.944 178.298 234.612C179.079 234.194 179.78 234.265 180.565 234.838L181.703 235.67L177.965 239.377C175.909 241.415 172.463 244.696 170.307 246.668C168.151 248.64 166.387 250.551 166.387 250.915C166.387 251.28 166.117 251.578 165.788 251.578C165.458 251.578 164.739 252.523 164.191 253.678L163.194 255.778L163.831 257.454C164.661 259.636 164.164 259.865 171.103 254.098C174.432 251.331 177.712 248.769 178.392 248.406C180.859 247.085 180.84 248.576 178.355 251.399C175.73 254.382 171.422 262.287 171.422 264.122C171.422 264.698 171.114 265.477 170.739 265.852C170.364 266.228 169.907 268.196 169.723 270.226L169.389 273.917L172.034 277.064L173.287 275.49C173.976 274.625 174.972 272.643 175.499 271.085C177.143 266.234 178.641 264.481 186.634 258.054C195.781 250.699 195.485 250.893 196.525 251.536L197.343 252.041L195.696 254.648C194.792 256.082 192.504 259.41 190.614 262.046C187.057 267.003 186.93 267.646 189.326 268.557C191.409 269.349 199.983 266.273 203.762 263.377C206.804 261.046 209.807 260.268 209.807 261.812C209.807 264.808 204.145 270.545 199.11 272.654C197.552 273.305 195.789 274.248 195.191 274.749C194.481 275.344 193.354 275.538 191.943 275.309L189.783 274.959L189.039 276.754C188.63 277.743 186.734 280.34 184.825 282.527C182.917 284.714 181.035 287.211 180.643 288.076C180.252 288.941 179.574 290.023 179.138 290.48C178.06 291.609 178.126 292.035 179.685 294.016L181.027 295.722L182.636 295.318C186.782 294.277 188.749 291.641 192.496 282.098L194.472 277.064L197.495 275.618C201.304 273.797 201.515 274.047 199.529 278.034L197.915 281.273L198.668 282.479C202.088 287.955 213.343 276.411 220.17 260.425C222.003 256.133 223.681 254.03 223.63 256.088C223.566 258.671 218.899 268.55 214.746 274.891C212.129 278.888 209.623 282.852 209.177 283.701C208.73 284.549 207.982 285.471 207.513 285.747C207.044 286.024 206.657 286.591 206.653 287.006C206.649 287.421 205.516 288.977 204.136 290.463C198.132 296.928 204.293 296.223 211.761 289.59L215.004 286.71L216.948 288.653L216.121 291.158C215.653 292.578 215.449 294.809 215.65 296.311L216.005 298.958L212.295 302.799C207.463 307.804 196.467 324.303 191.371 334.197C189.82 337.208 190.433 338.025 192.113 335.185C196.009 328.598 200.599 325.214 207.388 323.925C211.918 323.065 213.66 323.561 217.442 326.789C224.303 332.645 233.274 336.016 244.732 337.044C248.254 337.36 252.133 338.106 253.542 338.739C254.926 339.362 256.289 339.821 256.569 339.761C256.85 339.7 257.841 340.072 258.772 340.588C259.702 341.103 261.551 341.954 262.879 342.479C265.924 343.683 265.654 344.484 261.356 346.996C259.476 348.094 257.394 349.594 256.729 350.329L255.52 351.665L255.627 355.541C255.799 361.786 257.363 363.327 264.25 364.038L267.424 364.365L269.182 362.247L268.441 360.199C265.967 353.358 268.794 347.744 277.668 341.871L280.252 340.161L282 340.597C282.961 340.837 284.668 341.733 285.792 342.589C288.269 344.474 291.739 346.003 294.91 346.608L297.264 347.056L296.883 344.468C296.519 342.002 291.602 332.432 286.483 324.226C283.865 320.03 281.272 314.513 280.658 311.831C280.143 309.582 281.863 309.406 282.426 311.65C283.253 314.942 292.944 330.151 300.284 339.676L303.922 344.396L307.526 344.812L307.16 342.557C306.742 339.98 301.576 328.747 300.504 328.085C299.227 327.296 299.729 325.832 301.277 325.832H302.76L306.468 330.977C308.508 333.805 311.373 337.416 312.837 339L315.496 341.879L315.511 340.452C315.519 339.667 314.097 336.722 312.351 333.907C310.605 331.092 309.263 328.336 309.369 327.782C309.707 326.008 312.089 326.236 313.317 328.161C315.65 331.82 318.955 335.901 319.587 335.904C319.949 335.906 321.205 337.038 322.379 338.421C325.326 341.893 325.98 341.668 326.496 337.002C327.046 332.024 328.539 326.783 329.674 325.84L330.549 325.114L331.486 326.925C332.277 328.454 335.033 338.597 335.033 339.977C335.033 340.802 328.502 346.72 326.886 347.36C326.002 347.71 323.216 347.985 320.694 347.971L316.109 347.947L311.702 350.444C305.014 354.234 298.674 356.313 290.984 357.237L286.893 357.728L282.861 356.221C277.115 354.074 272.26 354.769 274.76 357.38C275.213 357.853 276.045 358.964 276.61 359.848L277.637 361.455L276.882 364.426C275.981 367.975 274.54 369.544 271.17 370.639C266.249 372.239 268.501 374.548 274.828 374.39C276.153 374.358 279.126 375.1 281.436 376.039L285.635 377.748L297.591 377.716L307.897 373.736L318.386 373.765L325.413 370.98C336.541 366.567 344.319 361.067 346.988 355.723C348.236 353.226 348.75 352.912 351.619 352.901L354.046 352.891L353.575 351.79C353.317 351.185 352.714 349.273 352.237 347.542L351.368 344.396L352.742 343.268C355.444 341.051 358.289 343.762 358.796 349.034C359.312 354.41 357.864 356.914 352.388 360.116C351.193 360.814 347.53 363.222 344.247 365.465L338.279 369.544L337.989 371.443C337.624 373.832 337.3 373.623 342.051 374.066L346.101 374.444L348.905 373.05C350.447 372.283 353.219 370.085 355.065 368.167L358.421 364.679L365.662 365.436L367.023 362.423C367.772 360.767 368.385 358.998 368.385 358.494C368.385 357.989 368.771 357.017 369.244 356.335C373.538 350.131 373.753 307.325 369.515 302.266C369.239 301.937 369.014 301.297 369.014 300.844C369.014 298.066 356.772 284.203 350.831 280.254C341.384 273.974 336.759 272.263 318.374 268.252C302.064 264.694 296.215 262.306 284.773 254.529C275.023 247.904 275.043 247.937 268.618 226.721C264.978 214.7 264.095 208.331 265.833 206.628L266.757 205.723L269.654 206.397C271.248 206.767 273.854 206.874 275.445 206.636L278.338 206.202L279.627 204.117C282.048 200.198 281.189 197.081 276.202 191.694C270.087 185.09 266.591 177.399 265.219 167.538C263.935 158.306 262.031 155.442 253.542 149.974C246.783 145.621 240.27 139.055 237.044 133.342C234.713 129.217 229.944 118.684 229.944 117.664C229.944 116.515 226.986 114.529 224.652 114.111L222.192 113.672L218.264 117.778ZM220.243 126.267C220.025 126.62 221.069 127.451 222.565 128.112L225.284 129.315L226.469 133.34C228.663 140.793 230.97 144.88 235.16 148.737C242.37 155.374 243.094 160.604 236.272 156.769C230.933 153.768 231.135 155.702 236.581 159.726C238.923 161.456 240.142 162.858 240.498 164.231C240.781 165.328 241.318 166.327 241.688 166.45C242.474 166.712 243.405 159.82 242.798 158.239C242.576 157.658 242.985 156.204 243.723 154.953C245.611 151.753 245.479 151.341 241.166 146.965C237.033 142.772 234.429 139.054 231.357 132.958C228.546 127.38 227.608 126.512 223.877 126.036C221.899 125.784 220.486 125.873 220.243 126.267ZM192.817 143.222C192.817 144.668 198.217 149.007 202.349 150.882C207.362 153.157 212.954 152.002 212.954 148.691C212.954 147.336 211.506 147.528 210.583 149.006C208.984 151.565 205.4 150.385 195.929 144.179C193.557 142.624 192.817 142.397 192.817 143.222ZM252.762 157.681C252.201 159.684 252.276 167.977 252.921 175.121C253.344 179.815 254.858 183.616 256.304 183.616C257.065 183.616 256.701 160.23 255.912 158.373C254.874 155.937 253.344 155.6 252.762 157.681ZM259.167 181.448C258.284 187.338 259.392 189.786 266.492 197.636C270.478 202.042 273.453 204.095 274.994 203.504C276.303 203.001 276.072 200.973 274.549 199.603C272.727 197.964 265.908 188.013 263.055 182.829C260.296 177.817 259.742 177.62 259.167 181.448ZM195.81 187.416C186.938 187.976 185.5 188.294 184.648 189.888L183.993 191.111L187.099 192.214C193.537 194.5 193.594 195.335 187.383 196.329C182.127 197.169 181.359 197.663 182.135 199.705L182.712 201.222L181 202.088C180.058 202.564 177.804 203.438 175.991 204.03C172.678 205.113 171.191 206.298 172.569 206.757C175.006 207.57 172.227 214.72 168.602 216.96C164.447 219.528 165.513 221.43 170.414 220.196C175.88 218.819 178.972 217.109 179.923 214.934L180.822 212.877L176.876 209.465L178.596 208.811C179.543 208.45 181.808 208.332 183.636 208.547C189.3 209.212 191.244 207.24 187.752 204.369C185.656 202.645 185.697 200.607 187.828 200.607C189.577 200.607 194.892 198.724 195.913 197.743L196.808 196.885L196.027 194.28C194.928 190.61 195.496 190.428 205.078 191.386L208.215 191.699L209.641 193.356C211.35 195.344 211.447 196.198 209.965 196.213C209.359 196.219 207.693 196.998 206.264 197.943C204.835 198.889 203.136 199.987 202.489 200.384L201.312 201.106L202.131 201.957C203.817 203.71 223.547 201.797 230.476 199.21L233.841 197.954L234.724 195.839C236.854 190.742 236.098 190.388 228.788 193.055C220.634 196.031 215.969 195.085 213.855 190.026C212.35 186.424 212.108 186.389 195.81 187.416ZM245.293 191.787C241.96 196.823 227.112 206.025 222.781 205.738C221.702 205.667 217.492 205.456 213.426 205.271L206.032 204.935V205.846C206.032 207.064 209.792 208.787 212.451 208.787C214.578 208.787 216.104 209.696 216.096 210.958C216.088 212.114 211.704 214.702 206.424 216.669L201.312 218.574L201.127 220.144C201.002 221.203 201.514 222.259 202.7 223.391L204.458 225.07L207.29 224.455C208.848 224.117 211.528 223.073 213.246 222.135L216.371 220.429L216.793 218.343C217.43 215.204 221.783 211.304 224.651 211.304C225.094 211.304 226.255 210.974 227.229 210.571C228.203 210.167 229.142 209.803 229.315 209.763C229.488 209.722 230.762 208.965 232.146 208.08C233.531 207.196 235.442 206.279 236.394 206.044L238.125 205.617V206.894C238.125 210.103 233.398 217.015 230.595 217.905C229.179 218.354 226.854 221.878 225.035 226.333C222.946 231.447 223.376 232.046 227.098 229.207C228.255 228.324 229.361 227.86 229.555 228.174C229.901 228.735 229.05 236.982 228.292 240.408C227.793 242.668 228.821 242.636 230.685 240.335C231.489 239.342 232.926 238.035 233.877 237.43L235.608 236.33V238.291C235.608 241.053 237.124 240.814 239.06 237.746C239.93 236.369 240.642 235.004 240.642 234.713C240.642 234.423 241.581 233.072 242.73 231.712C248.664 224.684 249.542 222.424 247.878 218.444C246.59 215.362 246.673 215.004 248.623 215.213L250.312 215.395L250.873 212.877C251.181 211.493 251.263 208.593 251.055 206.432L250.676 202.504L251.954 199.859C254.2 195.21 252.317 195.742 248.977 200.7C244.745 206.984 243.788 208.979 243.788 211.525C243.788 213.635 241.637 219.101 240.057 221.004C239.055 222.211 239.783 223.418 241.235 222.957C241.849 222.762 242.698 223.02 243.122 223.53L243.892 224.458L240.321 227.793C233.089 234.547 228.822 235.186 232.776 228.924C233.644 227.549 234.349 225.488 234.349 224.326C234.349 222.895 234.852 221.749 235.922 220.743C237.001 219.73 237.495 218.594 237.495 217.131C237.495 214.781 238.271 212.952 240.138 210.899C240.813 210.157 241.778 207.743 242.281 205.534C242.907 202.79 243.968 200.5 245.632 198.301C248.562 194.43 250.344 190.843 249.786 189.94C248.909 188.523 246.909 189.345 245.293 191.787ZM255.89 204.382C254.721 206.819 252.816 214.833 252.001 220.743C251.595 223.685 250.689 227.933 249.986 230.182C248.275 235.667 247.925 240.204 248.757 246.108L249.449 251.022L247.01 254.603C245.668 256.574 243.232 259.399 241.596 260.883L238.622 263.581L239.031 265.917C239.257 267.202 239.598 269.457 239.79 270.928C239.982 272.399 240.388 273.602 240.692 273.602C241.653 273.602 245.838 263.944 248.562 255.44L248.837 254.583L249.71 255.307C250.706 256.133 256.374 267.311 256.374 268.449C256.374 269.737 257.54 269.278 260.066 266.995C261.407 265.784 262.912 264.793 263.411 264.793C264.55 264.793 267.227 267.697 268.198 269.984C269.771 273.692 270.825 271.433 270.838 264.321C270.851 257.621 272.119 258.338 274.912 266.62C275.792 269.229 276.699 270.846 277.355 270.974L278.398 271.178V261.646H279.854C281.991 261.646 284.412 264.616 285.559 268.643C286.572 272.2 287.907 274.023 289.002 273.346C289.339 273.137 289.081 271.975 288.401 270.641C285.729 265.402 287.07 264.88 292.926 268.879C297.585 272.059 298.522 273.59 299.006 278.817C299.503 284.191 300.778 283.099 300.578 277.469C300.49 274.996 300.548 272.973 300.708 272.973C301.259 272.973 304.198 278.434 304.198 279.457C304.198 280.02 304.681 281.492 305.27 282.728C306.633 285.588 308.213 285.431 308.491 282.407C308.83 278.724 309.567 279.029 311.414 283.618C312.983 287.517 314.479 289.332 315.38 288.431C315.546 288.265 315.211 286.948 314.634 285.506C314.057 284.064 313.731 282.738 313.911 282.559C314.579 281.891 316.167 283.897 316.784 286.188C317.502 288.855 318.847 290.273 320.178 289.762L321.07 289.419L320.213 287.017C318.102 281.097 319.568 281.754 324.612 288.988C329.056 295.363 329.78 296.098 330.702 295.176C331.073 294.805 330.332 292.634 328.722 289.373C327.307 286.508 326.293 284.021 326.468 283.846C327.098 283.216 333.041 288.47 336.051 292.318C337.741 294.477 339.335 296.248 339.595 296.251C339.855 296.254 340.067 296.63 340.067 297.087C340.067 298.079 342.436 300.227 344.986 301.545C348.793 303.514 355.036 311.677 354.267 313.682L353.902 314.633L352.805 313.421C351.483 311.96 345.982 307.583 345.468 307.583C343.548 307.583 350.864 315.25 355.916 318.533C357.695 319.689 360.896 319.697 361.273 318.547C361.395 318.175 360.51 316.625 359.305 315.103L357.117 312.337L358.031 311.326C359.588 309.606 358.313 306.334 353.865 300.635C352.908 299.409 351.51 296.577 350.759 294.342C349.035 289.216 349.184 289.382 341.979 284.631C332.593 278.442 327.27 276.148 322.244 276.127C315.232 276.098 299.976 270.381 288.817 263.601C286.561 262.231 284.072 260.918 283.286 260.685C281.718 260.22 278.664 258.292 273.364 254.42C271.46 253.03 269.337 251.892 268.645 251.892H267.386L266.996 247.802C266.439 241.963 265.779 239.118 264.788 238.296C264.313 237.902 263.925 237.304 263.925 236.967C263.925 236.631 263.354 235.553 262.656 234.572C261.749 233.299 261.13 230.728 260.492 225.58C259.999 221.615 259.112 217.276 258.518 215.939C257.925 214.601 257.261 211.1 257.042 208.158L256.645 202.809L255.89 204.382ZM254.298 221.77C252.902 223.166 255.939 237.419 257.632 237.419H258.576L258.738 233.329C259.001 226.676 256.335 219.734 254.298 221.77ZM168.002 225.514C164.898 226.652 162.991 228.297 163.819 229.125C164.21 229.515 163.878 230.451 162.89 231.747C161.452 233.633 160.908 235.217 161.699 235.217C164.117 235.217 171.422 227.784 171.422 225.323C171.422 224.347 171.149 224.362 168.002 225.514ZM250.854 236.633C251.025 239.142 251.781 243.885 252.536 247.173C253.29 250.461 254.194 254.418 254.546 255.965C255.34 259.464 255.62 259.752 256.74 258.221C258.542 255.756 256.58 243.998 252.664 233.801C251.379 230.453 250.526 231.788 250.854 236.633ZM260.413 246.883C258.893 250.52 260.341 255.822 263.607 258.582C265.528 260.205 265.825 259.482 265.4 254.221C265.001 249.285 264.155 246.782 262.393 245.32L261.408 244.502L260.413 246.883ZM179.309 270.613C175.971 280.961 174.921 293.717 177.837 288.493C178.289 287.684 179.773 285.349 181.136 283.304L183.614 279.586L184.168 272.911L182.719 271.369C181.143 269.69 179.709 269.373 179.309 270.613ZM229.089 287.604C228.602 288.382 228.019 290.715 227.793 292.787C227.566 294.859 227.108 296.827 226.774 297.161C223.908 300.027 235.315 310.177 238.464 307.563L239.383 306.801L238.609 310.669L240.301 311.094C242.753 311.709 243.453 310.696 242.523 307.878C242.019 306.352 241.881 303.716 242.124 300.295C242.623 293.258 240.902 292.508 239.52 299.162C239.251 300.455 238.696 301.625 238.286 301.761C237.103 302.155 236.608 298.814 237.335 295.347C237.702 293.598 237.765 291.916 237.476 291.61C236.926 291.029 234.355 294.722 234.352 296.099C234.35 296.532 234.103 296.886 233.802 296.886C233.124 296.886 232.477 293.148 232.468 289.177L232.461 286.188H231.217C230.533 286.188 229.575 286.825 229.089 287.604ZM208.569 295.395C201.946 301.526 200.779 303.978 205.198 302.475C208.999 301.184 211.144 298.767 212.816 293.897C213.799 291.031 212.964 291.325 208.569 295.395ZM190.929 294.058C189.718 294.961 187.735 296.168 186.524 296.74C184.199 297.837 180.314 301.291 181.404 301.291C181.757 301.291 182.22 301.007 182.434 300.661C182.975 299.786 183.784 299.875 183.864 300.819C183.9 301.252 184.108 303.871 184.326 306.639C184.772 312.296 184.846 312.441 187.468 312.726L189.356 312.932L189.222 314.191C189.149 314.883 188.771 317.245 188.384 319.44L187.678 323.431L189.141 326.964L190.7 326.156C192.377 325.285 196.55 319.224 196.576 317.62C196.585 317.084 196.854 316.376 197.173 316.047C198.028 315.166 198.734 310.73 198.018 310.73C197.687 310.73 196.904 311.296 196.278 311.988C195.652 312.68 194.71 313.247 194.185 313.247C193.66 313.247 192.651 313.743 191.943 314.348C191.235 314.953 191.812 314.033 193.225 312.303C196.228 308.625 198.697 304.021 198.267 302.9C197.811 301.712 194.241 302.178 192.65 303.635C190.929 305.209 188.412 306.067 188.412 305.079C188.412 304.693 189.565 302.276 190.976 299.707C192.385 297.138 193.447 294.447 193.335 293.726L193.131 292.417L190.929 294.058ZM246.857 297.92C246.177 298.697 245.695 300.899 245.416 304.497L244.997 309.905L245.808 310.545C247.366 311.774 250.083 312.087 250.469 311.082C250.775 310.282 250.052 306.11 248.296 298.549L247.878 296.751L246.857 297.92ZM255.573 303.577C255.372 303.901 255.013 305.894 254.774 308.005L254.34 311.844L256.761 313.489C260.669 316.145 260.879 315.742 258.911 309.371C257.588 305.085 256.165 302.617 255.573 303.577ZM356.564 325.735C355.537 326.387 356.093 327.908 358.586 331.271C359.649 332.705 360.838 334.404 361.229 335.047L361.938 336.215L362.53 333.384C363.319 329.618 362.523 327.439 359.908 326.198C357.486 325.048 357.618 325.066 356.564 325.735ZM247.17 363.038C247.387 364.12 247.564 365.21 247.564 365.462C247.564 365.998 255.796 369.882 256.931 369.882C257.356 369.882 258.466 370.701 259.398 371.702L261.093 373.523L262.509 372.981C263.287 372.683 263.925 372.012 263.925 371.49C263.925 368.868 252.055 361.072 248.062 361.072H246.777L247.17 363.038ZM232.676 366.449C227.292 368.981 224.566 372.408 226.06 374.762C226.542 375.522 227.288 375.515 237.219 374.672C238.278 374.582 239.41 374.346 239.736 374.146C240.061 373.947 243.867 373.99 248.193 374.24L256.059 374.696L257.557 372.713L256.179 372.155C251.03 370.068 245.206 367.098 244.246 366.068L243.11 364.847L239.516 364.885C237.086 364.91 234.871 365.417 232.676 366.449Z" fill="#FBFDFD"/>
</svg>
