<svg width="500" height="500" viewBox="0 0 500 500" fill="none" xmlns="http://www.w3.org/2000/svg">
<path fill-rule="evenodd" clip-rule="evenodd" d="M118.84 84.7234C117.14 85.4623 116.497 87.1806 117.652 87.8947C118.441 88.3823 118.289 90.05 117.386 90.7989L116.593 91.4575L118.826 95.07L116.888 97.2111L118.565 100.134L118.165 102.722C117.945 104.146 117.948 105.548 118.171 105.838C118.394 106.129 118.502 108.294 118.411 110.65L118.245 114.934L121.072 116.222L120.079 116.949C119.533 117.348 118.88 117.743 118.628 117.827C117.965 118.048 117.98 127.357 118.651 131.802C118.966 133.891 119.076 135.985 118.896 136.456C118.715 136.926 118.861 137.859 119.219 138.528L119.871 139.746L119.195 141C118.622 142.062 117.92 150.745 118.049 155.183C118.151 158.705 118.178 165.25 118.102 167.849C118.057 169.446 118.34 171.512 118.733 172.441L119.447 174.129L118.583 175.084C117.956 175.777 117.759 176.833 117.867 178.937L118.016 181.835L119.285 181.876C121.513 181.949 121.874 182.083 121.874 182.83C121.874 183.851 120.5 186.393 119.671 186.906L118.981 187.332L120.233 188.584L121.865 187.907C123.753 187.126 124.575 185.879 124.185 184.39C124.032 183.805 124.263 183.053 124.709 182.683C125.147 182.319 125.382 181.699 125.231 181.304C125.079 180.91 125.499 179.853 126.162 178.956L127.369 177.324L127.416 162.734L126.69 161.86C126.257 161.338 126.084 160.391 126.26 159.511C126.612 157.749 126.199 156.958 124.783 156.689C123.463 156.439 123.069 154.651 124.195 154.021C124.66 153.76 125.041 153.075 125.041 152.497C125.041 151.919 125.492 150.803 126.044 150.016C126.761 148.993 127.139 147.248 127.373 143.879C127.552 141.289 127.959 138.858 128.276 138.476C129.216 137.343 128.389 136.184 126.641 136.184H125.041V134.809C125.041 133.975 125.554 133.03 126.342 132.41L127.644 131.386L127.333 129.695C127.163 128.765 126.696 127.478 126.296 126.835C125.351 125.316 125.379 124.603 126.428 123.444C127.036 122.771 127.281 121.526 127.265 119.18C127.253 117.357 127.267 113.016 127.296 109.533C127.343 103.978 127.326 101.938 127.183 95.811C127.166 95.0853 127.212 93.2524 127.284 91.7378L127.416 88.9834L129.764 88.519C131.33 88.2098 132.8 88.2604 134.175 88.6726L136.238 89.2906L137.5 88.1047C139.409 86.312 139.171 86.1721 133.617 85.8211C130.786 85.6422 127.263 85.1451 125.786 84.7166C122.491 83.7592 121.055 83.7608 118.84 84.7234ZM392.84 84.4437C392.163 85.1161 381.104 85.5858 380.716 84.9588C380.288 84.2659 378.244 85.4264 378.504 86.2154C378.623 86.579 380.232 86.9495 382.361 87.1031L386.015 87.3669L386.186 89.4711C386.28 90.6284 386.593 91.8607 386.883 92.2091C387.172 92.5579 387.481 96.7366 387.569 101.495C387.673 107.08 387.984 110.852 388.447 112.132L389.164 114.116L388.249 114.785C387.182 115.565 387.163 115.755 387.881 118.342C388.198 119.483 388.842 120.424 389.434 120.612C389.991 120.788 390.577 121.396 390.737 121.962C390.897 122.527 391.163 123.464 391.327 124.044C391.538 124.787 391.134 125.546 389.953 126.624C388.153 128.268 388.146 129.092 389.909 131.378C390.484 132.124 391.141 132.482 391.512 132.253L392.141 131.864L391.393 130.723C390.207 128.913 390.858 126.272 392.727 125.305L394.302 124.491L393.95 123.081C393.757 122.305 393.611 121.196 393.627 120.615C393.71 117.519 393.592 116.607 392.892 114.931C392.063 112.949 392.244 112.435 393.768 112.435H394.749L393.923 110.837C393.383 109.793 393.212 108.623 393.43 107.462C393.615 106.476 393.5 105.193 393.171 104.579L392.579 103.473L393.284 102.017C393.795 100.962 393.959 98.3305 393.881 92.4782C393.771 84.2025 393.693 83.5961 392.84 84.4437ZM151.666 85.4665C151.39 85.7272 149.447 86.0317 147.348 86.1425C143.322 86.3558 142.206 86.8893 142.76 88.3343C143.173 89.4114 146.061 89.5339 146.462 88.4905C146.824 87.5453 150.718 87.9068 154.383 89.2262L157.073 90.1946L159.133 89.6695C160.265 89.3808 163.448 89.0452 166.206 88.9233C168.963 88.8019 171.813 88.5412 172.539 88.3443C173.264 88.1475 174.173 88.0398 174.557 88.1047C175.346 88.2382 176.761 87.2144 176.761 86.5109C176.761 85.875 166.994 85.9256 163.549 86.5785L160.749 87.1099L158.776 84.992H155.472C153.654 84.992 151.941 85.2053 151.666 85.4665ZM326.43 86.1911C325.878 86.6043 325.595 87.2165 325.801 87.5506C326.294 88.3475 330.475 88.3364 331.276 87.5358L331.899 86.9131L334.523 88.3174L335.332 87.6456C335.843 87.2218 336.386 87.1511 336.802 87.454C337.564 88.0081 357.091 87.9712 361.606 87.4065C367.5 86.6698 364.646 86.0476 355.273 86.0264C350.12 86.0154 341.749 85.8781 336.67 85.7225L327.434 85.4391L326.43 86.1911ZM265.663 93.6762C263.742 95.5972 264.014 98.1479 267.118 107.307C269.564 114.523 271.892 113.313 242.466 120.124C230.172 122.97 217.042 127.215 206.783 131.661L202.592 133.477L192.329 130.819L187.758 131.09C180.128 131.54 167.786 136.221 164.773 139.807C162.241 142.821 163.713 144.147 169.739 144.278L173.7 144.364L176.862 148.73L176.324 149.736C176.028 150.289 173.148 153.087 169.925 155.953C162.51 162.545 156.515 169.092 150.792 176.845C145.843 183.55 145.22 184.078 140.61 185.479C132.474 187.95 118.534 196.063 113.166 201.451C111.715 202.908 108.865 205.488 106.833 207.185C102.91 210.463 99.6055 214.225 100.038 214.925C100.523 215.708 101.278 215.354 102.739 213.658C103.54 212.728 104.745 211.396 105.417 210.696L106.64 209.424L109.581 210.012L111.374 208.479C112.36 207.636 113.331 206.936 113.531 206.924C113.731 206.912 115.987 205.496 118.544 203.777C124.135 200.018 133.963 194.765 135.404 194.765C136.587 194.765 137.707 195.71 137.707 196.708C137.707 197.398 133.02 200.039 131.787 200.045C129.907 200.053 126.954 201.363 122.916 203.98C115.964 208.485 116.069 208.391 116.069 210.076V211.616L111.451 214.596C106.242 217.957 101.292 222.493 101.292 223.905C101.292 225.472 102.526 224.93 104.084 222.678C105.717 220.319 106.746 220.225 107.003 222.411C107.278 224.741 108.38 224.583 113.012 221.547C119.92 217.022 132.255 210.755 132.935 211.427C133.462 211.947 128.133 215.88 124.087 217.958C122.289 218.881 112.387 227.499 110.367 229.899C109.407 231.039 108.16 232.526 107.596 233.203C105.685 235.499 106.394 236.308 108.549 234.289C111.537 231.489 117.857 226.555 123.151 222.888L127.884 219.61L129.29 220.776L128.584 221.888C128.196 222.499 126.061 224.21 123.841 225.69C114.916 231.638 112.605 234.682 119.486 231.427C126.406 228.153 125.084 231.687 116.939 238.234C114.322 240.338 114.279 240.836 116.669 241.397L118.06 241.724L118.31 240.767C118.57 239.775 123.325 236.676 123.823 237.174C123.978 237.329 123.696 239.666 123.196 242.366L122.287 247.276L122.648 254.401C122.963 260.627 125.506 276.24 126.456 277.777C126.613 278.03 126.804 279.24 126.881 280.466C126.961 281.742 127.821 284.263 128.89 286.36C131.448 291.372 132.645 295.591 132.671 299.681C132.694 303.233 133.595 304.688 134.224 302.185C134.409 301.447 134.908 300.843 135.332 300.843C136.239 300.843 136.492 301.876 136.854 307.068L137.122 310.918L135.857 311.399C133.98 312.112 131.726 317.234 132.955 317.994C133.246 318.174 133.485 319.12 133.485 320.096C133.485 321.185 133.965 322.448 134.726 323.364C136.397 325.373 137.179 326.936 137.179 328.269C137.179 329.564 139.516 334.37 140.416 334.926C140.762 335.14 141.37 334.866 141.799 334.304L142.564 333.3L142.253 327.494C142.082 324.301 141.784 321.123 141.592 320.431L141.241 319.173L141.981 319.394C143.163 319.748 146.11 326.141 146.735 329.706C147.05 331.503 147.624 333.403 148.01 333.928L148.711 334.883L149.846 331.91L152.705 332.244L156.263 337.522C158.359 340.629 162.208 345.218 165.626 348.681L171.43 354.564L176.602 357.076C179.447 358.457 182.606 360.36 183.621 361.305C185.416 362.973 191.038 366.284 192.078 366.284C192.361 366.284 192.593 365.745 192.593 365.087C192.593 364.429 193.205 362.99 193.953 361.889L195.312 359.889L194.475 358.611C193.582 357.248 188.525 353.618 187.519 353.618C187.188 353.618 186.603 353.997 186.219 354.46C185.835 354.923 184.367 355.857 182.958 356.537L180.396 357.773L180.103 357.011C179.726 356.027 181.091 353.959 183.099 352.475L184.681 351.305L183.258 349.819C182.239 348.757 181.996 348.172 182.403 347.764C183.186 346.982 185.806 348.39 189.265 351.454C190.778 352.794 193.852 354.699 196.125 355.706C200.539 357.66 205.15 360.394 206.236 361.703C206.603 362.145 207.82 362.662 208.941 362.852C211.149 363.225 215.319 366.405 214.583 367.155C214.341 367.402 213.135 367.603 211.903 367.603H209.663L206.798 365.441C205.223 364.251 203.205 362.901 202.315 362.441C201.425 361.981 200.39 361.235 200.016 360.783C199.13 359.717 198.399 360.2 198.399 361.85C198.399 362.57 197.935 364.068 197.369 365.178L196.339 367.196L198.285 368.455C200.181 369.682 201.203 371.562 199.975 371.562C199.638 371.562 195.808 369.899 191.464 367.867C183.315 364.056 182.038 363.655 182.038 364.905C182.038 367.29 193.163 374.084 197.871 374.573C201.102 374.91 203.421 375.918 208.294 379.105C212.759 382.024 212.795 384.64 208.339 382.336C207.261 381.778 206.545 381.675 206.193 382.027C205.531 382.689 207.324 383.635 212.648 385.436C222.624 388.812 227.425 391.093 227.425 392.46C227.425 392.866 227.202 393.199 226.93 393.199C224.917 393.199 218.412 391.123 212.917 388.726C204.233 384.938 202.831 384.548 199.955 385.114L197.607 385.577L197.433 386.792C197.155 388.726 201.809 391.462 210.997 394.765L215.416 396.354L222.053 395.739L225.399 397.373C227.239 398.271 230.143 400.312 231.852 401.908C235.698 405.5 238.51 405.734 238.506 402.461C238.503 399.12 231.543 381.104 228.506 376.575C227.728 375.414 226.315 373.067 225.367 371.36L223.643 368.256L225.118 366.782L228.656 367.602C231.028 368.152 232.502 368.257 233.131 367.921C233.653 367.641 236.747 367.532 240.115 367.676C243.439 367.818 246.754 367.921 247.479 367.906C248.205 367.891 250.046 367.889 251.569 367.903C253.22 367.918 254.34 367.697 254.34 367.357C254.34 366.31 251.822 365.81 247.751 366.046C244.83 366.215 243.304 366.062 242.197 365.49C240.348 364.534 237.898 364.466 237.017 365.347L236.37 365.994L235.335 365.347C234.766 364.992 232.694 364.697 230.731 364.693C226.88 364.685 223.045 363.616 221.356 362.08C219.173 360.097 213.805 357.841 211.212 357.817C209.824 357.804 207.74 357.455 206.579 357.041C205.418 356.627 203.636 356.408 202.62 356.554C198.875 357.093 196.606 354.62 199.672 353.339L201.564 352.548L204.982 353.652C210.016 355.279 210.831 354.839 207.423 352.337C205.876 351.201 203.153 348.566 201.372 346.482C199.592 344.397 193.385 338.179 187.579 332.664C181.288 326.686 175.426 320.575 173.066 317.535C167.274 310.07 162.822 301.898 164.547 301.898C165.369 301.898 171.959 305.54 174.122 307.189C175.138 307.964 176.622 309.018 177.42 309.531L178.872 310.464V309.647C178.872 308.611 172.189 300.65 165.036 293.166C155.522 283.211 151.299 276.939 155.961 279.69C158.121 280.964 158.178 280.595 156.48 276.343C155.776 274.579 154.776 271.075 154.258 268.555L153.317 263.976L153.975 259.426C155.752 247.133 164.364 231.327 173.751 223.128C178.969 218.57 190.387 210.501 191.353 210.689C192.323 210.878 193.545 213.744 193.609 215.976C193.687 218.77 197.373 219.994 199.265 217.854C200.192 216.805 200.805 215.52 202.691 210.675L203.175 209.434L203.953 210.08C204.933 210.894 204.934 212.893 203.955 215.611C202.586 219.413 203.356 220.131 206.219 217.722C208.692 215.64 209.211 216.4 208.381 220.89L207.843 223.8L210.064 226.434C212.487 229.308 213.241 229.524 216.091 228.164L217.988 227.26L218.476 228.032C218.745 228.457 218.985 229.517 219.01 230.388C219.162 235.725 220.087 234.618 221.878 226.957C222.658 223.619 223.889 218.425 224.613 215.414C225.569 211.438 226.001 207.899 226.188 202.484L226.445 195.028L227.595 194.106C228.833 193.113 232.579 191.818 236.397 191.064C237.703 190.807 239.84 190.333 241.146 190.012C242.453 189.69 244.946 189.213 246.688 188.951C248.429 188.69 251.635 188.107 253.812 187.657C261.219 186.124 271.646 184.232 274.6 183.884L277.546 183.538L276.953 181.178L278.424 180.809C279.473 180.545 280.068 180.676 280.498 181.264L281.1 182.088L289.54 181.03L291.377 181.798C292.387 182.22 293.521 182.935 293.896 183.387C294.272 183.84 294.874 184.209 295.234 184.209C296.157 184.209 298.672 187.991 298.672 189.379C298.672 190.014 298.177 190.832 297.572 191.198C296.967 191.563 295.958 192.785 295.329 193.913C293.177 197.772 292.924 198.146 291.926 198.962C289.828 200.674 288.598 203.147 288.442 205.969C288.357 207.507 288.044 209.237 287.746 209.813C287.096 211.074 287.394 220.331 288.13 221.705C289.743 224.72 302.04 221.675 308.699 216.612C315.66 211.321 320.407 205.074 321.292 200.042C322.812 191.398 324.036 189.066 328.068 187.127C329.951 186.221 331.561 185.05 331.877 184.356L332.425 183.154H336.404C342.064 183.154 350.919 180.747 350.919 179.209C350.919 178.715 351.401 178.404 352.169 178.404C352.857 178.404 356.716 177.074 360.745 175.447C364.774 173.821 371.633 171.072 375.987 169.337C389.261 164.049 395.577 159.629 398.639 153.486L400 150.754V142.517L398.952 141.469C397.754 140.271 387.208 134.907 381.964 132.829C380.026 132.061 375.514 130.097 371.937 128.465C360.835 123.401 349.423 120.04 339.045 118.777C331.748 117.89 328.029 117.303 320.573 115.862C316.8 115.133 312.603 114.389 311.246 114.208L308.778 113.881L308.481 112.697C308.137 111.326 302.56 105.965 297.916 102.543C288.076 95.2917 269.229 90.1102 265.663 93.6762ZM323.297 125.267C320.065 130.783 317.727 143.086 319.193 146.871C320.321 149.782 320.837 148.39 320.856 142.385C320.881 134.571 322.136 129.332 324.832 125.798C326.284 123.895 326.457 122.99 325.373 122.99C324.965 122.99 324.031 124.015 323.297 125.267ZM365.803 138.958C365.501 139.322 365.094 140.253 364.9 141.026L364.547 142.432L366.004 143.386C367.848 144.594 371.198 144.63 372.373 143.454L373.259 142.569L370.431 138.295H368.392C367.27 138.295 366.106 138.593 365.803 138.958ZM339.379 140.801C337.23 144.816 339.231 153.072 342.352 153.072H343.122L342.809 151.357C342.636 150.413 342.34 147.956 342.151 145.895L341.807 142.149L342.933 141.855C344.428 141.464 344.38 140.4 342.871 140.484C342.218 140.52 341.286 140.38 340.8 140.173C340.207 139.92 339.741 140.126 339.379 140.801ZM324.851 141.857C323.805 145.321 325.189 152.974 327.386 155.879C328.085 156.802 328.939 158.627 329.285 159.933C329.672 161.393 331.05 163.717 332.864 165.966C336.236 170.148 337.26 169.746 334.275 165.412C331.699 161.672 328.73 154.149 328.368 150.449C328.211 148.844 327.889 147.283 327.652 146.98C327.285 146.51 326.811 143.882 326.68 141.593C326.623 140.594 325.169 140.804 324.851 141.857ZM320.249 155.315C320.098 156.945 320.568 158.273 323.264 163.837C325.1 167.625 326.897 170.51 328.238 171.819L330.337 173.869V172.911C330.337 172.385 329.419 170.852 328.297 169.506C327.175 168.159 326.079 166.464 325.862 165.738C325.645 165.012 324.801 163.113 323.988 161.516C323.174 159.92 322.232 157.723 321.896 156.634C321.302 154.717 320.372 153.972 320.249 155.315ZM358.644 162.021C357.298 163.46 356.196 164.98 356.196 165.399V166.161L361.078 166.375C368.761 166.712 381.073 161.94 378.684 159.552C378.235 159.103 372.777 161.327 370.352 162.948C368.034 164.497 364.729 165.049 363.074 164.164L361.883 163.526L362.542 159.405H361.817C361.417 159.405 359.989 160.583 358.644 162.021ZM312.393 161.135C312.393 161.506 312.716 162.278 313.11 162.85C313.503 163.422 314.134 164.841 314.511 166.002C315.165 168.019 320.983 174.707 323.048 175.817C325.126 176.934 324.301 175.112 321.122 171.568C318.629 168.788 317.513 167.049 316.928 165.038C316.045 162.002 312.393 158.858 312.393 161.135ZM395.128 168.377C394.765 168.957 393.926 169.432 393.263 169.432C392.465 169.432 391.889 169.875 391.559 170.742C391.246 171.567 390.781 171.943 390.304 171.76C389.35 171.394 388.619 174.271 389.338 175.556C389.611 176.044 389.716 176.896 389.571 177.449C389.419 178.032 389.764 178.944 390.39 179.617C390.984 180.256 391.641 181.703 391.85 182.833L392.229 184.887L389.969 186.592L391.277 188.435C392.152 189.667 392.482 190.672 392.273 191.466L391.961 192.654H390.439C388.742 192.654 388.41 193.687 389.75 194.799L390.583 195.49L388.259 197.242L389.177 198.642C389.681 199.412 390.307 200.042 390.568 200.042C390.828 200.042 391.557 201.103 392.188 202.4L393.333 204.758L391.301 207.004L392.484 207.962C393.257 208.587 393.667 209.496 393.667 210.585V212.252L392.656 211.931C391.334 211.511 390.824 212.396 391.637 213.698L392.282 214.73L391.59 216.826C391.176 218.081 391.039 219.74 391.249 220.961C391.7 223.59 391.701 224.706 391.25 226.912L390.883 228.713L391.848 229.418C392.379 229.806 393.361 230.124 394.032 230.124H395.25V227.78C395.25 226.491 395.013 225.29 394.722 225.11C394.022 224.678 394.045 222.362 394.754 221.925C395.078 221.724 395.168 220.922 394.967 220.011C394.737 218.96 394.882 218.149 395.407 217.554C396.742 216.043 397.034 212.726 396.534 204.792C396.093 197.811 396.093 197.722 396.527 196.756L396.937 195.844L395.566 195.22C393.873 194.448 393.797 192.938 395.4 191.889L396.604 191.099L396.753 181.974C396.841 176.616 396.679 172.261 396.36 171.424C396.016 170.518 396.003 169.883 396.326 169.684C396.995 169.27 396.982 167.321 396.31 167.321C396.022 167.321 395.49 167.796 395.128 168.377ZM347.343 201.994C345.972 203.441 343.612 205.506 342.1 206.585C338.176 209.383 332.448 216.862 332.448 219.187C332.448 219.861 332.202 220.659 331.902 220.958C331.121 221.74 331.856 223.263 333.014 223.263C334.885 223.263 337.724 221.539 337.738 220.395C337.745 219.795 339.172 217.761 340.91 215.875C342.709 213.921 343.949 212.132 343.791 211.72C343.448 210.825 346.664 205.8 349.436 202.899L351.498 200.741L349.838 199.363L347.343 201.994ZM326.909 210.113C325.35 211.588 322.759 214.735 321.151 217.105C317.197 222.938 317.244 222.886 314.104 224.818C311.209 226.6 310.813 227.171 312.129 227.676C313.393 228.161 313.052 229.674 311.262 231.521L309.603 233.232L310.959 233.573C311.705 233.76 312.726 234.367 313.227 234.921C314.433 236.253 315.386 236.195 316.131 234.742C316.466 234.088 317.517 232.723 318.467 231.707C319.417 230.691 320.367 229.288 320.578 228.589C320.789 227.89 322.015 226.025 323.301 224.445L325.641 221.572L325.353 216.139L327.526 212.951C328.721 211.198 330.079 209.447 330.545 209.06C331.621 208.167 331.631 207.431 330.569 207.431C330.116 207.431 328.469 208.638 326.909 210.113ZM354.966 210.001C354.517 211.124 353.751 212.196 353.266 212.382C352.678 212.607 352.479 213.091 352.671 213.823C352.859 214.542 352.42 215.67 351.411 217.063C348.076 221.667 349.621 221.707 354.549 217.144C358.626 213.37 358.92 212.725 357.12 211.503L355.933 210.698L356.592 210.014C357.472 209.102 357.431 207.958 356.518 207.958C356.114 207.958 355.415 208.877 354.966 210.001ZM367.75 217.071C362.062 220.043 356.03 225.338 351.755 231.114C351.15 231.932 349.171 234.06 347.357 235.845C344.067 239.08 343.423 240.151 344.768 240.151C346.382 240.151 348.82 238.439 349.144 237.078C349.678 234.841 350.216 234.497 353.181 234.497H355.968L358.943 232.432C360.58 231.297 362.945 229.107 364.199 227.565C365.549 225.906 368.089 223.759 370.426 222.302C374.847 219.547 374.425 218.756 369.66 220.863C366.082 222.446 366.224 222.423 366.224 221.416C366.224 220.981 366.572 220.624 366.997 220.624C367.422 220.624 367.999 220.196 368.28 219.672C368.56 219.148 369.639 218.262 370.676 217.703C372.48 216.731 372.861 215.888 371.675 215.493C371.371 215.392 369.605 216.102 367.75 217.071ZM328.911 234.386L321.629 241.814L321.975 245.429L320.746 245.437C320.071 245.441 319.257 245.619 318.938 245.833C318.356 246.222 317.502 253 317.975 253.473C319.019 254.518 326.828 248.224 328.436 245.042C328.911 244.104 329.948 242.996 330.741 242.58C333.381 241.197 337.05 236.653 338.152 233.402L338.74 231.665L337.441 231.172C335.938 230.6 335.847 230.187 336.917 228.773C337.907 227.464 337.919 226.957 336.959 226.957C336.538 226.957 332.916 230.3 328.911 234.386ZM373.612 230.08C369.965 230.796 366.004 233.511 360.286 239.212L354.613 244.869V246.767C354.613 247.811 354.367 249.124 354.067 249.686C353.441 250.856 353.525 250.87 356.706 250.137L359.063 249.594L361.525 250.912L363.896 250.277C367.364 249.35 392.084 237.429 392.084 236.684C392.084 235.852 386.875 235.209 384.007 235.688C381.249 236.147 375.001 238.593 370.339 241.039C366.678 242.959 364.103 243.256 367.038 241.42C367.921 240.867 370.054 238.871 371.777 236.985C373.501 235.098 375.569 232.999 376.372 232.32C379.118 230.002 378.123 229.195 373.612 230.08ZM272.024 238.479C271.155 238.917 270.145 239.576 269.778 239.943C269.411 240.31 268.697 240.756 268.191 240.933C265.541 241.864 245.849 266.996 242.386 273.867C241.452 275.72 240.434 277.49 240.125 277.798C239.423 278.5 239.391 279.733 240.074 279.733C240.355 279.733 243.38 276.883 246.797 273.4C250.213 269.916 253.337 267.067 253.739 267.067C256.122 267.067 266.987 254.168 268.107 250.009C268.464 248.682 269.71 246.804 271.461 244.949C274.432 241.802 275.309 239.766 274.251 238.474L273.603 237.681L272.024 238.479ZM281.388 242.612C281.025 242.758 280.728 243.1 280.728 243.372C280.728 244.062 277.163 248.794 274.791 251.253C273.702 252.38 272.812 253.669 272.812 254.116C272.812 255.048 273.637 255.201 274.153 254.365C274.345 254.054 274.81 253.919 275.186 254.063C275.562 254.208 276.485 253.635 277.237 252.791C277.989 251.948 279.201 251.107 279.93 250.925C280.659 250.742 281.256 250.291 281.256 249.923C281.256 249.555 281.849 247.912 282.575 246.271C284.343 242.274 284.098 241.518 281.388 242.612ZM338.975 247.789C337.562 249.088 335.753 250.294 334.954 250.47C334.156 250.646 333.503 251 333.503 251.256C333.503 251.511 333.062 252.145 332.524 252.665C331.985 253.184 331.128 254.26 330.62 255.055L329.694 256.501L330.573 256.838C331.06 257.025 332.496 256.638 333.799 255.967L336.147 254.76L337.205 250.83L340.104 248.833C342.876 246.924 343.829 245.429 342.273 245.429C341.872 245.429 340.388 246.491 338.975 247.789ZM306.429 248.231C304.802 249.308 300.782 253.185 300.782 253.678C300.782 253.936 300.307 254.443 299.727 254.806C299.146 255.168 298.672 255.844 298.672 256.308C298.672 256.772 297.993 258.017 297.165 259.074C296.336 260.132 295.377 261.532 295.035 262.185L294.412 263.372H295.537C296.834 263.372 299.163 261.878 301.911 259.282L303.832 257.467L304.911 258.045C306.437 258.861 306.448 258.855 307.664 256.471L308.761 254.32L308.07 253.486C307.644 252.971 307.448 251.674 307.56 250.096C307.659 248.69 307.659 247.553 307.56 247.571C307.46 247.588 306.952 247.885 306.429 248.231ZM112.715 249.266C111.766 249.96 110.183 256.213 110.648 257.427C111.06 258.501 111.764 258.204 112.59 256.605C113.014 255.786 113.726 254.812 114.173 254.441C116.685 252.357 115.284 247.387 112.715 249.266ZM345.593 255.077C344.551 255.721 342.782 257.054 341.663 258.038L339.628 259.829L339.299 262.392C339.118 263.802 339.016 264.956 339.073 264.956C339.129 264.956 340.052 264.153 341.123 263.172C342.537 261.877 343.752 261.298 345.557 261.059C348.102 260.721 352.224 258.399 351.722 257.586C351.568 257.336 350.734 257.4 349.869 257.726L348.295 258.321L347.068 257.094L347.91 255.808C349.328 253.643 348.392 253.348 345.593 255.077ZM287.472 255.817C286.973 255.948 285.548 256.588 284.306 257.239L282.047 258.424L281.085 261.294C279.947 264.692 279.322 265.446 275.318 268.256L272.283 270.387L271.765 272.311C271.143 274.622 269.564 276.434 267.783 276.881C266.463 277.212 266.037 278.342 267.006 278.941C267.785 279.422 267.648 282.252 266.822 282.741C266.431 282.973 265.943 283.849 265.738 284.688L265.366 286.213L267.343 285.892C270.997 285.299 280.421 277.081 281.72 273.356C282.052 272.402 282.697 271.208 283.153 270.704C284.108 269.65 288.644 261.807 288.644 261.212C288.644 260.993 289.227 260.121 289.94 259.274L291.236 257.734L290.438 256.595C289.647 255.466 289.228 255.356 287.472 255.817ZM308.963 266.384C308.382 266.522 306.542 267.239 304.874 267.978L301.84 269.321L298.716 274.399L296.717 274.774C294.304 275.227 291.843 276.539 291.064 277.789L290.491 278.707L291.283 279.214C291.718 279.494 292.431 279.567 292.866 279.38C293.301 279.191 294.608 278.98 295.769 278.909C299.782 278.667 303.366 276.537 308.645 271.258C312.828 267.075 312.934 265.441 308.963 266.384ZM101.815 269.715C101.501 270.302 101.303 272.024 101.374 273.542C101.447 275.06 101.19 278.126 100.804 280.355C100.419 282.585 100.251 284.997 100.432 285.716L100.76 287.024L101.862 286.735C102.468 286.577 103.105 286.064 103.277 285.597C103.449 285.129 104.141 284.012 104.815 283.113C105.49 282.215 106.042 281.021 106.042 280.46C106.042 279.899 106.416 278.905 106.874 278.252L107.706 277.064L107.338 273.517C107.135 271.566 106.732 269.673 106.441 269.31C105.568 268.219 102.47 268.491 101.815 269.715ZM225.16 272.064C219.494 273.699 217.398 274.901 217.398 276.516C217.398 277.312 216.775 278.33 215.777 279.166C214.016 280.643 214.053 282.076 215.867 282.652C217.86 283.284 225.424 281.145 232.175 278.04C234.762 276.849 234.292 276.135 231.52 277.046C230.573 277.356 228.674 277.819 227.3 278.074L224.8 278.538L224.206 277.823C223.275 276.7 224.026 275.625 226.151 275.038C227.224 274.742 228.662 273.973 229.346 273.329C231.882 270.948 230.49 270.527 225.16 272.064ZM318.661 277.366C315.83 280.145 314.247 281.316 313.324 281.316C312.601 281.316 311.087 282.054 309.959 282.956C308.83 283.858 307.389 284.795 306.756 285.04C306.122 285.285 305.139 286.538 304.566 287.834C303.907 289.324 303.073 290.321 302.287 290.562C299.301 291.473 298.201 293.689 300.995 293.165C302.182 292.942 303.411 293.123 304.621 293.697L306.452 294.566L308.876 292.93C311.821 290.942 313.448 288.964 313.448 287.371C313.448 286.513 313.853 286.079 314.897 285.817C316.876 285.32 317.671 284.567 317.671 283.188C317.671 282.474 318.2 281.739 319.035 281.292C320.803 280.345 324.531 275.661 324.531 274.386C324.531 272.485 322.673 273.428 318.661 277.366ZM259.354 277.03C258.193 277.563 256.5 278.804 255.592 279.789C248.257 287.744 247.833 288.615 251.63 287.921C254.51 287.395 257.888 285.208 259.436 282.87C260.194 281.725 261.023 280.788 261.279 280.788C261.848 280.788 263.835 277.612 263.838 276.698C263.841 275.753 261.808 275.904 259.354 277.03ZM329.545 276.916C327.332 277.504 321.365 284.502 321.365 286.51C321.365 288.061 322.748 287.981 325.842 286.252C327.623 285.257 329.235 284.82 331.449 284.734L334.557 284.612L337.592 282.586C342.776 279.124 343.211 277.915 339.44 277.446C334.688 276.855 330.598 276.636 329.545 276.916ZM296.297 283.928C291.345 286.318 289.279 290.288 292.987 290.288C295.712 290.288 303.223 285.09 302.068 284.003C300.954 282.955 298.382 282.921 296.297 283.928ZM228.216 288.516C225.604 289.212 221.992 290.251 220.19 290.826C218.388 291.401 216.392 291.871 215.754 291.871H214.595L215.47 290.905C217.031 289.179 214.306 288.636 210.537 289.921C208.472 290.626 207.85 292.66 209.7 292.662C211.372 292.663 211.179 293.673 209.35 294.489C208.406 294.91 204.666 295.868 201.037 296.619L194.44 297.983L194.621 299.809C194.851 302.127 194.262 301.88 200.382 302.23L205.679 302.532L208.768 301.657C210.466 301.176 212.45 300.359 213.175 299.842C213.901 299.324 215.089 298.759 215.814 298.584C216.54 298.41 218.307 297.987 219.741 297.644L222.349 297.02L223.296 297.612C225.114 298.748 236.924 296.176 236.924 294.645C236.924 294.28 237.422 293.982 238.031 293.982C239.301 293.982 242.202 292.074 242.202 291.238C242.202 290.349 238.236 291.096 235.175 292.562C231.738 294.208 227.93 295.565 226.748 295.565C225.498 295.565 225.607 294.655 226.907 294.243C227.92 293.921 234.286 288.031 234.286 287.414C234.286 286.974 233.414 287.133 228.216 288.516ZM327.092 291.247C325.812 292.672 324.274 293.993 323.676 294.183C323.077 294.373 322.033 295.118 321.356 295.838L320.125 297.148H321.191C321.777 297.148 322.687 296.674 323.212 296.093C323.737 295.512 324.558 295.037 325.035 295.037C325.513 295.037 327.348 293.986 329.115 292.701C331.048 291.294 333.034 290.296 334.102 290.194C337.068 289.91 336.088 288.978 332.649 288.813L329.421 288.657L327.092 291.247ZM284.422 290.789C281.833 291.595 278.617 293.574 278.617 294.361C278.617 294.935 278.235 295.088 277.259 294.901L275.902 294.642L275.431 295.88C275.166 296.577 274.095 297.48 272.982 297.945C270.311 299.061 269.117 300.23 269.117 301.729C269.117 303.927 266.786 304.179 261.202 302.584C260.376 302.348 262.446 300.219 268.866 294.7C272.171 291.858 272.695 290.388 269.597 292.647C268.608 293.369 267.237 294.252 266.552 294.609L265.308 295.26L263.86 293.281L261.739 293.917C260.573 294.266 259.61 294.84 259.6 295.191C259.591 295.542 257.668 297.235 255.327 298.952C252.986 300.669 250.842 302.576 250.563 303.19C250.108 304.188 244.713 307.566 237.344 311.467C234.375 313.039 227.533 315.307 223.203 316.156C221.606 316.468 219.766 316.836 219.113 316.974C217.807 317.248 217.501 318.843 218.585 319.716C221.393 321.978 231.916 319.687 235.077 316.126C238.459 312.317 241.599 311.198 244.348 312.822L245.865 313.718L249.146 312.162C250.951 311.307 253.98 309.478 255.879 308.099C259.59 305.405 260.83 305.093 262.355 306.473C263.453 307.467 269.117 308.162 269.117 307.302C269.117 307.011 269.592 306.647 270.173 306.495C270.753 306.344 271.228 305.841 271.228 305.378C271.228 304.79 271.719 304.537 272.86 304.537C273.758 304.537 275.096 304.062 275.834 303.482C276.572 302.901 277.487 302.426 277.866 302.426C278.246 302.426 278.868 301.996 279.246 301.471C279.626 300.947 281.303 299.741 282.975 298.792L286.012 297.067L285.012 295.301L286.888 293.37C289.488 290.696 288.394 289.552 284.422 290.789ZM121.572 303.35C121.626 309.373 121.835 314.716 122.037 315.224C122.238 315.732 122.513 316.504 122.65 316.939C123.261 318.897 124.516 317.618 125.627 313.905C126.256 311.8 126.99 309.799 127.258 309.457C127.867 308.68 127.389 296.786 126.673 294.902C126.071 293.319 124.634 292.399 122.765 292.399H121.474L121.572 303.35ZM303.613 299.248C301.841 300.113 299.995 301.424 299.513 302.161L298.634 303.501L299.456 303.816C299.953 304.007 301.858 303.064 304.274 301.431C306.472 299.947 308.485 298.732 308.748 298.732C309.011 298.732 309.226 298.494 309.226 298.204C309.226 297.226 306.856 297.667 303.613 299.248ZM150.725 299.214C146.596 301.32 143.874 304.009 145.872 304.009C147.14 304.009 152.126 301.591 153.419 300.349C155.609 298.245 153.976 297.557 150.725 299.214ZM241.938 299.54C238.637 300.732 233.818 301.898 232.198 301.898C229.414 301.898 227.289 302.57 227.038 303.528C226.734 304.689 224.287 305.59 221.409 305.6C220.218 305.605 218.888 305.834 218.453 306.109L217.662 306.61L218.472 307.421C220.992 309.941 239.348 305.892 243.653 301.866C246.605 299.105 245.878 298.118 241.938 299.54ZM324.795 301.61L322.684 302.266V303.533C322.684 305.591 322.062 306.018 318.513 306.398L315.145 306.759L312.667 309.384C309.691 312.537 309.37 312.42 310.787 308.693C312.548 304.059 312.047 303.943 306.45 307.687C299.623 312.253 293.538 318.728 291.814 323.262L291.314 324.579L292.465 325.652C295.182 328.183 301.263 329.034 315.411 328.86L319.221 328.814L318.927 328.048C318.473 326.865 313.401 325.279 306.984 324.313C304.64 323.961 304.514 323.314 306.406 321.34L307.806 319.878L306.297 319.304C305.467 318.988 303.887 318.882 302.785 319.069C300.102 319.522 300.195 318.65 303.025 316.837C304.259 316.047 305.759 314.823 306.359 314.117L307.449 312.835L311.219 314.079L318.271 311.469C331.062 306.735 333.658 306.037 339.207 305.84C342.02 305.74 344.633 305.643 345.013 305.625C346.274 305.566 345.075 304.537 343.745 304.537C343.026 304.537 341.885 304.175 341.21 303.733C340.159 303.043 334.262 302.546 332.184 302.971C330.932 303.227 330.763 302.885 331.656 301.898L332.611 300.843L329.759 300.898C328.19 300.929 325.956 301.249 324.795 301.61ZM285.485 304.026C283.892 305.178 282.305 306.12 281.958 306.12C281.611 306.12 280.826 306.824 280.214 307.683C279.497 308.69 278.451 309.369 277.276 309.59L275.45 309.932L275.443 311.061C275.439 311.682 275.292 312.724 275.118 313.377L274.8 314.564H275.731C278.791 314.564 285.987 310.538 285.201 309.266C284.609 308.308 285.973 306.843 288.605 305.611C291.332 304.334 291.779 303.661 290.65 302.532C289.62 301.502 288.546 301.812 285.485 304.026ZM180.323 303.588C176.253 305.017 182.617 307.386 187.206 306.15C189.884 305.429 190.115 304.537 187.623 304.537C186.632 304.537 185.725 304.25 185.608 303.899C185.34 303.097 182.24 302.914 180.323 303.588ZM393.139 304.35C392.704 304.469 392.061 305.18 391.711 305.929L391.073 307.291L391.667 309.863C391.994 311.278 392.808 312.949 393.476 313.577L394.691 314.719L395.519 314.033C396.062 313.582 396.311 312.604 396.244 311.185C396.188 309.996 396.319 308.241 396.535 307.286C397.128 304.655 395.897 303.59 393.139 304.35ZM199.879 310.946C196.24 312.278 201.534 315.092 207.678 315.092C212.057 315.092 212.941 314.271 209.085 313.785C204.513 313.209 202.62 312.503 202.62 311.377C202.62 310.246 202.042 310.154 199.879 310.946ZM267.078 313.266C266.101 313.69 264.136 314.037 262.71 314.037H260.119L259.628 315.329C259.358 316.039 258.533 317.016 257.794 317.5C257.055 317.984 256.451 318.696 256.451 319.081C256.451 320.126 254.314 321.425 252.596 321.425C248.975 321.425 252.189 323.379 255.982 323.483L257.888 323.536L257.4 320.981L259.644 319.356C260.878 318.462 262.215 317.731 262.616 317.731C263.017 317.731 263.469 317.408 263.62 317.014C263.771 316.62 265.367 315.884 267.166 315.378C271.808 314.072 272.917 313.578 272.546 312.979C272.076 312.217 269.137 312.372 267.078 313.266ZM174.155 313.981L173.396 314.485L174.825 316.548C177.283 320.094 178.23 320.867 180.064 320.828C181.005 320.807 182.813 321.171 184.084 321.636C185.353 322.1 187.105 322.481 187.974 322.481H189.556L188.918 321.712C187.915 320.504 188.76 319.842 191.305 319.842C192.594 319.842 193.649 319.63 193.649 319.371C193.649 318.804 192.349 318.259 191.003 318.259C190.465 318.259 189.875 317.784 189.691 317.203C189.173 315.573 187.429 314.878 182.83 314.471C180.508 314.266 177.777 313.958 176.761 313.787C175.745 313.616 174.572 313.704 174.155 313.981ZM157.466 316.061C151.298 320.527 150.471 321.817 151.975 324.626C152.738 326.053 153.609 325.902 155.222 324.064C155.986 323.193 157.091 322.481 157.679 322.481C158.347 322.481 159.309 321.645 160.245 320.251C161.068 319.025 162.568 317.467 163.578 316.789C165.864 315.254 166.046 314.785 164.512 314.375C161.989 313.699 160.104 314.151 157.466 316.061ZM287.534 316.478C286.612 317.588 280.133 320.546 276.875 321.343C271.751 322.597 270.335 324.798 273.44 326.686L275.123 327.711L277.53 327.412C280.354 327.063 285.147 324.403 286.597 322.382L287.613 320.964L285.877 319.992L287.114 319.125C287.794 318.649 288.878 318.259 289.522 318.259C290.902 318.259 291.411 317.624 290.964 316.459C290.546 315.368 288.445 315.379 287.534 316.478ZM165.068 321.236C163.807 322.293 161.869 323.759 160.762 324.496C158.732 325.844 156.679 328.814 157.776 328.814C158.089 328.814 159.219 328.22 160.287 327.494C161.355 326.769 162.531 326.175 162.901 326.175C163.271 326.175 164.09 325.581 164.721 324.855C165.352 324.13 166.306 323.536 166.841 323.536C167.401 323.536 168.034 322.96 168.33 322.182C169.622 318.783 168.413 318.432 165.068 321.236ZM392.479 320.144C391.54 320.654 391.028 321.362 391.028 322.155C391.028 322.828 390.761 324.145 390.435 325.081L389.842 326.783L391.028 327.969V326.792C391.028 325.357 392.4 324.734 393.73 325.564C395.38 326.594 395.58 326.295 395.613 322.744L395.645 319.314L394.788 319.335C394.316 319.347 393.278 319.71 392.479 320.144ZM116.456 320.158C116.282 320.333 116.342 320.985 116.589 321.61C116.837 322.234 117.417 323.983 117.878 325.496L118.716 328.246L117.659 329.982C116.518 331.852 116.276 333.83 117.125 334.355C117.773 334.756 117.824 337.089 117.194 337.479C116.414 337.961 115.523 346.552 115.383 354.937C115.303 359.693 116.112 371.183 116.589 372.073C116.916 372.685 117.03 373.668 116.842 374.258C116.625 374.943 116.851 375.717 117.466 376.397L118.43 377.462L116.423 378.93L115.997 389.044L117.089 391.138C118.446 393.741 118.443 393.942 117.033 395.849L115.886 397.401L116.434 399.187C116.792 400.354 116.805 401.291 116.47 401.889C116.188 402.392 116.09 403.465 116.252 404.272C116.413 405.08 116.401 405.885 116.225 406.061C116.049 406.237 115.846 407.712 115.774 409.338L115.643 412.295L116.516 412.043C116.996 411.904 117.784 411.627 118.267 411.427C118.867 411.179 119.843 411.694 121.345 413.051L123.544 415.038L124.688 414.311C126.316 413.278 131.619 412.381 135.332 412.511C137.074 412.572 138.798 412.376 139.165 412.076C139.633 411.693 140.708 411.806 142.773 412.456L145.716 413.381L147.014 412.79C147.727 412.464 148.776 412.198 149.342 412.198C149.909 412.198 150.373 411.961 150.373 411.671C150.373 410.804 152.053 411.073 152.771 412.055L153.438 412.968L160.218 412.851C163.946 412.787 167.316 412.938 167.706 413.188C168.954 413.985 172.414 411.671 172.72 409.834L172.985 408.24L171.677 407.053C169.946 405.482 167.521 405.53 164.382 407.199L161.874 408.533L158.54 407.199C154.486 405.577 153.47 405.539 152.574 406.973C152.074 407.775 151.565 407.987 150.732 407.742C150.099 407.556 148.061 407.172 146.203 406.889L142.824 406.375L140.911 408.106L138.65 407.193C135.884 406.076 131.876 406.043 131.266 407.132C131.028 407.557 130.072 408.285 129.142 408.749L127.451 409.593L124.433 408.343L124.782 407.236C127.002 400.218 127.37 393.727 125.55 393.727C124.639 393.727 125.013 391.277 126.07 390.321L127.1 389.389L125.443 386.86L126.158 385.148C127.334 382.328 126.077 380.006 123.376 380.006C122.455 380.006 121.874 379.725 121.874 379.281C121.874 378.001 123.992 373.721 124.868 373.231C125.893 372.658 126.389 366.594 125.585 364.48L125.067 363.118H121.874V362.124C121.874 361.573 122.346 361.007 122.93 360.853C124.416 360.465 124.244 358.981 122.666 358.585C121.391 358.265 120.799 357.312 121.874 357.312C122.165 357.312 122.402 356.584 122.402 355.694C122.402 354.804 122.67 353.576 122.997 352.965L123.591 351.854L121.651 350.436L121.803 348.201C121.885 346.971 122.421 345.164 122.991 344.184L124.029 342.402L123.215 341.503C122.186 340.366 122.178 339.157 123.194 338.313C123.629 337.952 123.985 337.108 123.985 336.439C123.985 335.77 123.629 334.866 123.194 334.43C122.241 333.478 122.17 330.85 123.032 328.465L123.662 326.722L122.76 324.829C122.263 323.788 122.003 322.699 122.183 322.409C122.681 321.602 120.701 320.343 119.4 320.639C118.764 320.783 118.097 320.663 117.917 320.372C117.549 319.775 116.929 319.685 116.456 320.158ZM204.599 320.94C202.582 322.115 204.647 326.655 208.111 328.663C209.638 329.548 213.813 329.501 215.054 328.585L216.078 327.829L215.419 327.16C214.392 326.119 214.609 324.592 215.783 324.592C219.257 324.592 215.607 322.015 210.643 320.962C207.237 320.24 205.809 320.235 204.599 320.94ZM126.976 323.888C126.247 324.617 126.664 326.062 127.68 326.328C128.783 326.617 129.148 328.496 128.212 329.075C127.335 329.616 128.054 338.949 129.245 342.481C129.835 344.234 130.318 346.174 130.318 346.791C130.318 347.408 130.67 348.544 131.099 349.315C132.354 351.565 134.54 356.852 134.54 357.636C134.54 358.033 135.715 359.654 137.151 361.24C139.63 363.977 141.401 367.886 141.401 370.62C141.401 371.157 142.792 373.905 144.492 376.725C146.192 379.545 147.954 382.565 148.408 383.436C149.507 385.548 153.383 389.505 154.351 389.505C155.67 389.505 155.205 387.412 153.374 385.108C152.413 383.898 150.335 380.325 148.757 377.168C147.179 374.011 145.59 371.314 145.228 371.174C144.865 371.035 144.568 370.082 144.568 369.057C144.568 367.932 143.972 366.225 143.067 364.753C141.959 362.952 141.492 361.399 141.285 358.816C141.113 356.67 140.467 354.144 139.614 352.28C138.848 350.609 138.074 348.31 137.892 347.173C137.71 346.034 137.274 344.817 136.924 344.466C136.574 344.116 136.16 341.789 136.005 339.295C135.654 333.681 134.843 331.782 132.691 331.537C130.807 331.322 130.337 330.702 130.326 328.413C130.322 327.353 129.913 326.345 129.263 325.789C128.682 325.291 128.207 324.582 128.207 324.211C128.207 323.487 127.55 323.314 126.976 323.888ZM229.658 327.363C227.901 327.926 227.004 329.594 227.609 331.171C228.728 334.088 242.343 335.738 253.561 334.316L256.213 333.98L257.771 337.518L259.882 337.988C261.043 338.247 263.774 338.421 265.951 338.377L269.909 338.296L273.207 336.642C275.022 335.733 276.502 334.846 276.498 334.672C276.431 332.048 265.413 328.328 256.837 328.033C253.577 327.921 248.06 327.581 244.577 327.278C236.829 326.604 231.938 326.632 229.658 327.363ZM390.776 329.817C390.378 331.628 390.813 336.713 391.648 340.022L392.28 342.522L390.497 352.299L390.728 361.27C390.881 367.17 391.229 371.084 391.746 372.701C392.178 374.053 392.465 375.241 392.382 375.34C391.866 375.959 391.62 378.422 392.074 378.422C392.369 378.422 392.611 378.066 392.611 377.631C392.611 376.231 395.232 376.934 395.279 378.347C395.294 378.824 395.764 377.789 396.322 376.047C396.887 374.288 397.179 372.412 396.98 371.825C396.576 370.635 396.466 370.208 396.371 369.451C396.335 369.16 395.586 368.923 394.706 368.923C392.979 368.923 392.062 367.677 393.057 366.683C393.485 366.254 393.925 366.354 394.699 367.055L395.756 368.011L395.989 367.279C396.117 366.877 396.337 362.224 396.477 356.939L396.733 347.331L395.353 346.186L396.757 343.327L396.28 339.633C396.018 337.601 395.648 334.751 395.458 333.3C395.053 330.213 394.663 329.608 392.614 328.894L391.095 328.364L390.776 329.817ZM195.05 334.529C193.733 335.984 193.95 336.474 196.696 338.237C198.081 339.125 199.922 340.597 200.786 341.505C204.852 345.781 218.599 349.381 224.568 347.733C225.493 347.477 228.125 347.199 230.416 347.116C232.707 347.031 234.871 346.784 235.225 346.565C236.174 345.979 236.008 344.249 234.945 343.653L234.022 343.135L235.557 341.531C236.68 340.358 236.893 339.869 236.349 339.709C233.09 338.747 231.145 338.444 229.728 338.674C228.819 338.822 227.555 338.665 226.921 338.326L225.769 337.709L223.245 340.433L218.875 338.684L213.786 339.858L210.262 339.121C206.203 338.272 205.924 338.1 206.832 337.006C207.199 336.564 207.395 336.202 207.268 336.202C205.814 336.202 200.572 334.881 199.754 334.308C198.28 333.275 196.091 333.378 195.05 334.529ZM170.158 337.429L168.094 338.588L167.656 340.429C166.956 343.381 166.959 343.727 167.687 343.984C168.746 344.356 172.37 340.232 172.647 338.338C172.966 336.168 172.628 336.044 170.158 337.429ZM146.121 339.141C145.701 339.647 145.353 341.948 145.225 345.078L145.016 350.188L146.903 357.504C147.941 361.528 148.79 365.358 148.79 366.015C148.79 366.672 149.121 367.485 149.526 367.821C149.931 368.158 150.415 369.243 150.6 370.234C150.786 371.225 151.635 373.725 152.487 375.79L154.035 379.544L152.748 381.624L155.914 384.615C157.656 386.261 159.556 387.669 160.136 387.745C160.717 387.821 161.936 388.033 162.845 388.217C165.857 388.826 165.332 387.501 160.305 381.808C155.094 375.907 153.075 372.735 153.036 370.391C153.022 369.601 152.547 368.057 151.978 366.96C151.41 365.862 150.795 364.014 150.612 362.852L150.28 360.74L152.635 357.745L153.483 360.06C155.494 365.549 162.068 374.2 164.228 374.2H165.263L164.905 373.277C164.708 372.769 163.594 369.503 162.428 366.02C161.264 362.537 159.261 357.521 157.981 354.874C154.962 348.637 155.085 347.29 158.433 349.924C159.932 351.103 160.4 351.228 160.4 350.453C160.4 349.638 153.147 342.196 150.353 340.146C147.537 338.079 147.091 337.973 146.121 339.141ZM246.952 343.014C246.516 343.261 244.795 343.627 243.125 343.828C241.456 344.03 240.091 344.368 240.091 344.581C240.091 345.343 243.566 348.249 245.839 349.388L248.157 350.55L250.646 349.218L253.12 350.541L255.775 349.753C257.373 349.278 260.805 348.942 264.398 348.908C267.68 348.877 270.465 348.752 270.586 348.631C271.361 347.855 269.6 347.285 266.431 347.285H262.751L262.411 346.361C261.893 344.96 261.32 344.746 257.004 344.352C254.814 344.151 252.38 343.66 251.596 343.261C249.994 342.445 248.134 342.346 246.952 343.014ZM160.4 355.252C160.4 355.571 161.859 357.224 163.642 358.926L166.883 362.019L165.169 364.634L167.936 367.275C171.597 370.769 175.134 373.122 176.761 373.144C177.486 373.154 179.03 373.742 180.191 374.45C183.597 376.528 188.667 378.95 189.61 378.95C191.022 378.95 190.616 377.992 188.66 376.712C187.658 376.056 186.698 374.964 186.527 374.285C186.356 373.606 184.706 371.318 182.859 369.201C181.013 367.085 179.204 364.79 178.839 364.103C177.752 362.058 172.965 356.785 172.196 356.785C171.159 356.785 171.306 357.256 173.344 360.454C176.946 366.108 176.136 365.83 165.355 357.708C161.282 354.639 160.4 354.202 160.4 355.252ZM173.87 380.665C174.061 381.318 175.582 384.109 177.249 386.866C180.235 391.807 180.607 392.473 182.085 395.537C182.516 396.432 183.425 397.241 184.246 397.46C185.025 397.669 187.281 399.496 189.259 401.522C191.238 403.547 193.612 405.587 194.535 406.057C195.458 406.526 196.356 407.328 196.531 407.839C197.479 410.601 203.152 413.245 204.659 411.626L205.726 410.482L207.472 411.603C212.541 414.855 215.694 415.579 215.393 413.42L215.236 412.293L216.976 411.916C219.863 411.29 220.459 409.564 217.793 409.552C214.412 409.537 210.069 407.762 208.37 405.701C207.493 404.637 204.713 402.342 202.192 400.602C195.446 395.944 190.572 391.725 186.223 386.777C182.468 382.504 180.455 381.141 180.455 382.871C180.455 384.319 178.816 383.768 176.637 381.589C174.261 379.213 173.358 378.912 173.87 380.665ZM391.332 381.524C391.218 381.709 391.218 382.927 391.333 384.231C391.613 387.433 391.554 393.303 391.236 393.817C391.095 394.046 391.277 394.772 391.641 395.431C392.5 396.987 393.092 409.255 392.344 410.003C392.092 410.255 387.281 408.483 386.401 407.813C385.406 407.056 379.738 407.728 377.885 408.822L376.273 409.775L373.2 407.502L372.269 408.531C371.27 409.634 369.142 409.911 368.585 409.01C368.399 408.708 367.792 408.606 367.237 408.781C366.277 409.086 364.752 408.72 360.276 407.109C357.377 406.066 356.012 406.222 354.573 407.763C353.87 408.516 352.629 409.478 351.817 409.901L350.339 410.669L346.626 408.374L346.961 412.462L352.117 412.192L353.479 414.046L354.998 412.594C356.779 410.894 357.913 410.792 360.426 412.104C363.42 413.667 367.909 414.497 371.054 414.07C372.606 413.86 374.906 413.713 376.164 413.743C377.734 413.781 379.279 413.349 381.083 412.367L383.714 410.935L384.864 411.658C385.585 412.11 387.729 412.402 390.612 412.439L395.209 412.498L396.317 411.662C396.927 411.202 397.651 409.824 397.926 408.599L398.427 406.373L397.518 402.557C396.51 398.318 396.13 385.182 396.967 383.511C397.238 382.972 397.259 382.348 397.014 382.124C396.437 381.597 391.603 381.086 391.332 381.524ZM189.802 394.583C189.121 395.265 197.591 404.463 198.593 404.13C199.69 403.764 199.536 402.23 198.305 401.271C197.636 400.751 196.08 399.314 194.849 398.081C193.618 396.848 192.251 395.838 191.81 395.838C191.37 395.838 191.01 395.482 191.01 395.047C191.01 394.236 190.388 393.997 189.802 394.583ZM236.653 409.055L236.293 410.191L234.63 409.913C233.715 409.76 232.278 409.465 231.436 409.257C229.059 408.669 230.152 409.79 234.12 412.009L237.603 413.956L238.237 413.088C238.988 412.062 238.541 408.427 237.627 408.123C237.29 408.01 236.852 408.43 236.653 409.055ZM175.969 412.449L178.872 412.614C185.548 412.994 186.355 412.695 184.53 410.512L183.358 409.112L175.634 408.39L175.969 412.449Z" fill="#FBFDFD"/>
</svg>
