<svg width="500" height="500" viewBox="0 0 500 500" fill="none" xmlns="http://www.w3.org/2000/svg">
<path fill-rule="evenodd" clip-rule="evenodd" d="M371.135 99.4423C361.629 99.6931 300.45 99.9483 235.183 100.01C164.78 100.076 115.268 100.401 113.449 100.808C109.062 101.792 105.388 103.442 102.87 105.561L100.683 107.401L100.581 152.845C100.525 177.839 100.333 235.356 100.155 280.66C99.8006 370.783 99.6925 368.243 103.993 370.901L106.457 372.424L250.935 372.373C330.397 372.344 395.729 372.125 396.118 371.885C398.12 370.648 398.485 364.78 398.796 328.842C398.974 308.413 399.292 291.216 399.505 290.627C399.717 290.037 399.817 273.157 399.728 253.116C399.638 233.074 399.606 214.36 399.659 211.528C400.037 190.967 400.126 135.391 399.798 123.634L399.398 109.292L397.295 105.446C394.69 100.685 392.901 99.0179 390.376 99.0002C389.3 98.9921 380.642 99.1914 371.135 99.4423ZM316.707 104.627C313.802 105.061 296.631 105.179 272.944 104.928L233.962 104.516L223.665 105.658C218.001 106.286 209.561 107.081 204.909 107.423C154.108 111.168 144.405 111.617 125.841 111.088L118.486 110.878L112.385 114.026L111.94 118.278C111.697 120.617 111.546 131.302 111.607 142.022C111.725 163.016 111.094 171.152 108.208 185.892C105.88 197.777 105.749 206.621 107.821 212.071C109.695 217.002 109.675 219.427 107.727 223.326L106.162 226.46L107.36 229.974C108.879 234.434 108.883 241.425 107.373 257.646C105.906 273.396 106.336 298.504 108.242 308.516L109.484 315.037L108.316 317.488C107.673 318.836 106.945 321.528 106.698 323.471L106.25 327.004L108.441 333.623C109.646 337.264 110.994 343.258 111.436 346.944C112.798 358.301 113.917 360.352 120.325 363.242L124.37 365.066L134.668 365.741C152.84 366.934 217.801 367.744 300.815 367.814L381.643 367.883L383.39 366.241C388.274 361.654 389.634 350.714 389.803 314.669L389.945 284.344L391.146 282.105C394.261 276.297 395.513 265.993 393.824 260.072C393.253 258.068 392.954 245.401 392.886 220.354L392.786 183.578L388.835 172.125L389.489 168.658C389.849 166.751 390.231 156.751 390.338 146.435L390.533 127.679L389.187 122.531C386.385 111.816 381.6 109.188 363.088 108.196C357.198 107.881 350.394 107.268 347.967 106.834C345.539 106.4 341.402 105.668 338.773 105.206C332.113 104.037 322.376 103.782 316.707 104.627ZM220.618 141.47C217.3 144.376 212.957 150.934 211.571 155.132C210.898 157.171 209.458 159.12 207.341 160.855C199.06 167.64 195.181 183.946 201.846 183.946C204.649 183.946 205.645 182.697 205.645 179.182C205.645 173.446 213.848 159.942 223.844 149.223C228.233 144.515 229.001 142.854 227.999 140.243C227.235 138.252 223.605 138.855 220.618 141.47ZM178.431 143.06C174.133 145.941 168.553 151.737 165.388 156.608L162.391 161.22L160.578 173.404L162.196 182.591L159.675 190.072C156.168 200.477 154.918 206.279 154.905 212.203C154.896 216.634 154.141 223.151 153.003 228.629C152.174 232.622 151.126 230.011 151.316 224.427C151.649 214.66 149.616 216.182 148.311 226.677C147.889 230.076 147.225 233.964 146.837 235.316C145.52 239.907 147.403 245.976 150.669 247.665C154.051 249.414 154.835 247.926 152.438 244.304C151.362 242.678 150.481 240.714 150.481 239.939C150.481 236.821 155.314 237.438 157.478 240.832C158.55 242.514 159.61 243.218 161.319 243.384L163.68 243.613L163.617 237.025C163.584 233.401 163.959 229.213 164.453 227.718L165.35 225L163.611 223.296L160.052 227.709L160.579 205.644L162.067 201.066C162.885 198.548 165.247 193.85 167.315 190.625L171.076 184.763V178.761L169.337 178.1C166.899 177.174 166.573 175.783 167.411 169.876C168.198 164.326 170.892 157.791 173.286 155.626C175.703 153.438 175.754 154.858 173.434 159.801C169.158 168.908 168.849 174.315 172.539 175.486C174.651 176.156 175.226 175.561 176.638 171.25C178.2 166.477 181.026 160.771 183.316 157.766C186.287 153.867 185.067 150.863 180.502 150.839L178.798 150.83L182.327 147.432C184.281 145.55 185.756 143.503 185.631 142.844C185.277 140.971 181.373 141.089 178.431 143.06ZM234.29 149.276C220.754 157.991 207.951 179.028 213.911 182.76L215.19 183.561L216.919 181.731C217.869 180.725 219.758 177.253 221.116 174.017L223.584 168.133L228.789 162.984C231.652 160.152 236.057 156.677 238.577 155.261C243.67 152.401 245.14 149.902 242.756 148.159C240.645 146.615 237.849 146.984 234.29 149.276ZM263.383 151.148C261.35 152.048 255.832 156.035 249.948 160.855L247.545 162.823L244.697 160.245L241.434 161.824C236.214 164.351 228.391 171.422 224.248 177.357C222.142 180.374 218.041 185.405 215.136 188.537C212.23 191.669 208.841 195.641 207.603 197.363C206.365 199.086 203.819 202.316 201.946 204.541C194.84 212.979 189.754 220.985 187.266 227.645C185.749 231.709 184.724 228.704 186.157 224.391L187.425 220.574L184.961 218.148L183.351 220.322C180.943 223.573 179.17 228.644 178.709 233.593L178.298 238.006L180.551 240.948L181.85 240.153C182.565 239.714 183.421 238.308 183.753 237.027C184.469 234.263 184.788 234.194 187.035 236.305C189.266 238.401 189.988 237.631 191.376 231.677C192.56 226.603 194.844 222.11 200.766 213.207L204.541 207.531L211.088 207.85L211.755 205.644C213.144 201.046 214.999 198.236 220.101 193L225.365 187.597L227.584 189.817C231.621 193.854 234.778 192.53 238.447 185.258C244.127 174.001 254.974 162.457 262.818 159.323C268.889 156.896 269.41 156.486 270.034 153.647C270.797 150.174 267.974 149.114 263.383 151.148ZM294.642 155.591C284.441 157.344 277.412 159.668 267.796 164.466L258.234 169.237L256.978 171.447C256.087 173.017 254.117 174.389 250.175 176.186C244.287 178.869 243.723 179.745 246.059 182.577L247.49 184.314L249.553 183.169C255.216 180.027 259.147 178.147 260.808 177.786C261.82 177.567 262.978 176.638 263.383 175.721C265.217 171.564 276.686 165.13 287.396 162.249L294.274 160.399L304.571 161.298L306.293 159.448C307.24 158.431 307.899 156.99 307.757 156.246L307.499 154.893L303.829 154.769C301.81 154.7 297.676 155.071 294.642 155.591ZM193.59 161.333C188.364 166.666 178.465 180.453 176.519 185.11C175.05 188.626 175.197 193.016 176.834 194.497C179.435 196.852 180.897 195.663 182.367 189.994C183.879 184.167 189.262 175.558 196.635 167.176C203.598 159.26 204.087 158.411 202.556 156.879C200.76 155.084 198.719 156.098 193.59 161.333ZM290.964 167.527C274.272 173.295 253.094 183.662 245.383 189.84C242.36 192.262 239.493 194.243 239.013 194.243C236.364 194.243 233.421 200.396 235.212 202.187C237.437 204.412 240.201 202.886 249.263 194.434C254.946 189.132 259.162 186.495 264.854 184.68C266.472 184.164 268.623 183.169 269.634 182.467C273.241 179.967 279.68 177.018 287.287 174.382C295.168 171.651 296.567 170.452 294.612 168.097C293.699 166.997 292.872 166.868 290.964 167.527ZM150.767 168.486C143.824 171.291 136.937 194.672 140.525 203.259C141.565 205.748 143.967 207.534 144.426 206.158C144.907 204.715 146.707 202.727 147.14 203.161C147.391 203.412 147.697 205.428 147.82 207.64C148.092 212.53 148.553 213.367 150.978 213.367H152.859L152.512 212.038C151.968 209.96 153.248 195.727 154.206 193.203C155.876 188.799 157.148 186.21 157.856 185.772C160.054 184.415 157.978 180.269 155.099 180.269C153.301 180.269 149.01 185.968 149.01 188.356C149.01 189.005 148.701 189.85 148.324 190.235C147.947 190.619 147.533 192.232 147.405 193.819C147.272 195.454 146.73 196.849 146.153 197.039L145.135 197.374L145.5 193.418C146.018 187.82 148.735 181.27 152.017 177.71C153.561 176.034 155.148 173.813 155.543 172.774L156.261 170.886L155.168 169.325C153.995 167.652 153.205 167.501 150.767 168.486ZM234.603 173.833C227.381 180.796 225.47 183.472 226.786 184.788C228.272 186.273 242.255 170.577 241.489 168.282C241.338 167.83 238.24 170.327 234.603 173.833ZM321.12 170.449C320.109 170.601 315.515 171.24 310.912 171.87C306.309 172.5 300.269 173.858 297.489 174.888L292.435 176.762V178.736C292.435 181.926 296.514 184.065 298.003 181.656C298.281 181.206 300.039 180.142 301.908 179.292L305.307 177.746L330.131 177.387L331.51 176.139C335.407 172.613 329.232 169.23 321.12 170.449ZM278.828 184.207C276.806 185.152 273.263 187.134 270.957 188.613C268.65 190.091 266.235 191.301 265.589 191.301C263.986 191.301 262.2 195.662 263.107 197.359C264.394 199.763 267.505 198.895 272.951 194.615C275.779 192.391 279.83 189.546 281.954 188.292C286.594 185.553 286.902 185.137 285.402 183.638C283.875 182.11 283.192 182.169 278.828 184.207ZM307.694 184.805C298.762 185.688 284.121 190.308 280.471 193.394L279.173 194.492L280.833 196.259C282.768 198.318 283.099 198.271 291.759 194.716C304.092 189.653 319.474 188.303 330.314 191.331C338.467 193.61 341.225 193.882 342.357 192.517L343.284 191.4L341.807 189.922C338.05 186.166 320.523 183.536 307.694 184.805ZM205.73 186.762C201.357 189.092 188.728 202.369 188.728 204.636C188.728 205.345 188.397 206.129 187.992 206.379C186.89 207.06 187.106 209.882 188.402 211.732C190.035 214.064 190.467 213.83 192.464 209.536C195.045 203.982 198.901 199.421 206.422 193.025C215.148 185.603 214.746 181.958 205.73 186.762ZM193.845 187.491C187.076 190.473 181.763 197.235 179.496 205.749C178.943 207.83 176.574 212.95 174.231 217.126L169.972 224.719L169.712 230.828C169.383 238.568 171.848 242.763 172.957 236.352C174.049 230.05 181.218 213.672 184.696 209.54C185.743 208.295 186.414 206.793 186.187 206.202C185.461 204.309 189.547 198.063 194.753 193.108C197.534 190.462 199.613 187.98 199.374 187.593C198.882 186.796 195.561 186.736 193.845 187.491ZM131.99 194.393C129.169 196.624 128.095 206.546 129.582 216.655C130.541 223.172 130.399 223.987 128.725 221.597C126.582 218.538 126.002 219.676 126.418 226.12C126.866 233.043 127.937 237.26 129.913 239.879L131.261 241.667L132.136 239.469C132.617 238.26 133.174 235.74 133.372 233.868L133.734 230.464L135.831 230.57C136.985 230.628 138.336 231.084 138.835 231.582C140.394 233.141 144.597 232.47 144.597 230.662C144.597 230.149 144.101 229.316 143.494 228.812C142.887 228.309 142.391 226.938 142.391 225.767V223.636L144.149 224.077C146.396 224.641 146.633 224.197 147.24 218.271L147.742 213.367H146.434C144.774 213.367 143.18 215.44 143.15 217.639C143.136 218.573 142.84 219.16 142.49 218.944C142.14 218.728 141.975 217.633 142.123 216.51C142.959 210.176 139.576 206.829 138.016 212.447C137.595 213.965 137.249 215.95 137.246 216.86C137.244 217.771 136.947 218.515 136.586 218.515C135.328 218.515 134.993 214.704 135.469 205.792L135.947 196.818L133.197 193.44L131.99 194.393ZM223.193 196.045C220.393 197.948 219.619 199.212 219.619 201.882C219.619 203.679 217.34 206.01 209.972 211.752C199.663 219.785 194.694 226.521 195.841 230.909C196.406 233.068 197.194 232.9 199.571 230.11C205.04 223.693 212.441 216.513 217.413 212.802C220.447 210.537 223.493 208.064 224.183 207.308L225.437 205.931L224.734 204.085C223.676 201.301 223.796 201.031 226.99 199.015L229.948 197.147L229.171 195.695C228.137 193.763 226.402 193.865 223.193 196.045ZM306.89 197.17C302.574 197.956 302.813 197.732 302.151 201.614L301.612 204.774L293.898 206.799C284.912 209.159 272.112 214.239 270.11 216.242C268.441 217.911 268.888 218.847 271.845 219.877L274.059 220.649L279.386 217.828C286.167 214.237 293.186 212.18 301.909 211.23C309.64 210.387 309.053 210.642 310.704 207.417L311.926 205.03L315.236 204.016C319.916 202.584 325.687 203.313 333.757 206.357C341.716 209.36 343.365 209.51 345.452 207.423L346.983 205.892L345.767 204.549C341.17 199.468 318.201 195.11 306.89 197.17ZM168.299 197.679C165.97 198.615 162.718 211.496 163.705 215.873C165.448 223.601 169.53 220.478 169.522 211.423C169.519 207.545 171.006 202.972 172.978 200.793L174.088 199.567L172.897 198.376C171.716 197.196 170.107 196.952 168.299 197.679ZM246.449 201.489C244.031 203.085 240.234 205.914 238.012 207.775C235.79 209.637 233.474 211.162 232.864 211.165C232.254 211.168 230.868 211.632 229.782 212.199C228.697 212.765 226.711 213.457 225.369 213.737C220.714 214.706 211.758 221.294 209.622 225.319L208.549 227.341L209.663 229.496C211.83 233.685 216.196 233.332 217.397 228.871C218.233 225.767 223.548 219.251 225.244 219.251C227.056 219.251 234.159 215.608 234.603 214.45C235.276 212.699 237.065 213.206 237.919 215.389C238.354 216.501 239.225 218.113 239.855 218.97L241 220.528L231.964 225.047C226.995 227.533 222.686 229.563 222.387 229.558C221.352 229.539 216.717 235.072 216.697 236.352C216.686 237.059 217.371 238.332 218.219 239.18L219.76 240.721L221.752 238.813C222.848 237.762 224.138 236.903 224.619 236.903C225.099 236.903 226.389 235.896 227.486 234.666C228.582 233.435 231.958 231.06 234.987 229.388C238.018 227.715 241.674 225.311 243.113 224.045C248.457 219.344 264.865 212.287 282.365 207.16C286.916 205.828 288.341 204.188 286.265 202.67C282.996 200.28 261.328 206.304 251.966 212.207C247.88 214.783 245.251 214.864 244.769 212.426C244.554 211.341 251.648 204.823 254.989 203.035C255.941 202.526 256.401 201.651 256.256 200.629L256.027 199.024L250.846 198.587L246.449 201.489ZM306.549 214.32C303.592 214.642 299.951 215.305 298.458 215.794L295.745 216.683V218.438C295.745 221.314 297.627 221.907 302.11 220.443C304.273 219.737 308.28 218.966 311.014 218.73L315.986 218.301L318.858 220.899L323.851 219.95C326.596 219.427 332.319 219.001 336.566 219.002L344.289 219.004L351.759 221.334C360.752 224.139 360.655 224.135 361.72 221.798L362.57 219.932L361.52 218.941C360.277 217.769 351.558 215.099 346.863 214.454C341.792 213.757 312.61 213.66 306.549 214.32ZM256.384 220.37C254.57 221.389 252.34 222.6 251.43 223.062C249.155 224.215 249.358 226.301 252.005 228.949L254.234 231.178L257.751 227.889C259.684 226.079 261.992 224.212 262.877 223.738C265.063 222.568 265.035 219.569 262.831 218.979C260.296 218.3 259.922 218.381 256.384 220.37ZM283.417 222.928C281.907 223.737 279.752 224.399 278.627 224.399C272.689 224.399 262.737 229.013 261.458 232.357C259.187 238.296 264.98 239.177 270.877 233.789C274.107 230.837 290.661 228.008 292.002 230.178C292.216 230.523 296.073 231.04 300.573 231.324C310.175 231.933 319.92 234.498 324.734 237.687C326.526 238.874 328.734 239.845 329.641 239.845C331.734 239.845 340.257 244.172 340.763 245.491C340.973 246.037 340.743 246.966 340.254 247.556C338.448 249.732 340.53 258.109 342.672 257.287C344.032 256.766 345.108 257.626 348.643 262.063C353.837 268.582 349.61 267.679 339.549 260.12C332.128 254.544 319.758 248.559 315.356 248.414L311.996 248.304L310.571 252.259L315.058 257.056C319.515 261.821 324.256 269.318 325.177 273.057C325.442 274.132 326.439 275.744 327.394 276.641L329.129 278.271L335.622 277.298L336.783 279.069C337.422 280.042 339.01 283.944 340.312 287.74C344.043 298.614 354.524 311.65 363.751 316.899L366.677 318.563L369.163 314.768L363.52 309.486C358.974 305.229 349.805 292.812 349.805 290.91C349.805 290.765 348.812 289.081 347.599 287.167C346.381 285.247 345.392 282.676 345.392 281.428C345.392 278.56 342.14 273.679 340.228 273.679C339.388 273.679 338.028 272.534 336.95 270.921C335.936 269.404 333.118 266.36 330.687 264.158C324.562 258.605 324.896 255.714 331.123 260.384C332.701 261.568 335.978 264.02 338.405 265.835C346.207 271.668 346.885 272.31 348.403 275.284C349.224 276.893 349.799 278.944 349.681 279.842C349.56 280.771 350.608 283.205 352.11 285.484C353.564 287.689 356.332 292.223 358.263 295.56C361.841 301.746 363.354 302.81 365.28 300.491L366.224 299.353L365.37 295.654C364.167 290.445 364.138 290.498 368.009 290.743L371.503 290.963L371.719 289.456C371.841 288.598 370.776 286.431 369.247 284.429C365.778 279.886 359.663 267.939 358.159 262.763C356.998 258.768 355.84 257.189 351.735 254.001L349.618 252.358L351.374 250.242L348.389 248.538C345.895 247.114 344.341 244.994 345.789 244.994C349.791 244.994 359.277 254.318 363.649 262.55C367.678 270.136 370.925 272.146 372.734 268.175L373.567 266.349L370.696 262.107C369.117 259.774 367.696 257.534 367.537 257.13C366.468 254.405 356.288 243.791 352.024 240.957C346.624 237.367 345.108 237.002 343.105 238.815L341.805 239.992L336.795 237.305C328.453 232.834 318.689 228.929 312.948 227.771C304.009 225.968 295.552 225.036 292.808 225.551L290.229 226.034V224.507C290.229 223.128 288.335 221.457 286.773 221.457C286.436 221.457 284.926 222.119 283.417 222.928ZM329.409 225.138C324.735 225.829 324.259 227.461 328.014 229.922L329.839 231.118L332.509 230.381C339.351 228.492 353.941 233.769 363.092 241.443C370.078 247.301 374.738 242.406 367.903 236.39C359.046 228.594 341.236 223.388 329.409 225.138ZM237.51 233.219C231.593 234.77 228.867 236.033 226.385 238.375L224.693 239.972L225.557 241.012C226.031 241.584 227.391 242.052 228.579 242.052C231.43 242.052 230.76 242.933 226.062 245.362C215.56 250.792 213.835 256.14 223.816 252.322C238.527 246.694 244.837 244.953 252.659 244.36C259.215 243.863 260.599 242.976 257.448 241.289C255.489 240.241 242.213 240.041 237.823 240.994L235.801 241.433V240.271C235.801 239.633 235.937 239.11 236.104 239.11C236.271 239.11 239.001 238.613 242.172 238.006C245.343 237.4 248.828 236.903 249.918 236.903C252.264 236.903 256.135 233.854 255.366 232.611C254.535 231.265 243.531 231.641 237.51 233.219ZM135.771 235.342C135.771 236.506 135.305 237.845 134.736 238.317C133.689 239.186 132.778 244.5 132.794 249.643C132.805 253.004 135.11 256.568 137.693 257.217C140.383 257.892 140.494 257.278 138.4 253.343C135.465 247.83 136.131 245.672 139.271 250.519C142.725 255.851 148.433 250.818 145.123 245.359C143.766 243.123 136.364 233.226 136.048 233.226C135.896 233.226 135.771 234.178 135.771 235.342ZM200.122 236.765C196.99 238.229 192.405 242.885 192.405 244.602C192.405 246.449 194.916 246.483 198.468 244.685C204.524 241.619 207.432 244.061 207.556 252.316L207.628 257.13H209.681C212.695 257.13 215.867 252.922 216.371 248.256L216.765 244.626L215.312 242.321C211.666 236.532 205.469 234.266 200.122 236.765ZM274.047 237.152C260.551 241.178 261.209 240.726 264.042 244.019L265.803 246.067L269.006 244.51C278.145 240.066 282.67 239.764 294.274 242.826L300.158 244.378L302.933 243.548C308.545 241.87 319.574 244.371 326.05 248.791C332.247 253.02 338.773 254.802 338.773 252.264C338.773 249.874 328.617 243.621 319.925 240.659C313.535 238.481 310.53 238.038 297.216 237.317C294.384 237.164 288.758 236.841 284.712 236.601C279.551 236.294 276.37 236.459 274.047 237.152ZM247.937 247.275C245.51 247.537 242.659 248.098 241.601 248.522C237.094 250.332 239.412 253.674 244.512 252.717C253.398 251.051 271.469 253.44 276.99 257.011C278.405 257.927 281.55 259.631 283.977 260.798C289.016 263.221 295.185 269.075 299.302 275.341L302.085 279.577L301.857 282.322C301.473 286.945 299.739 286.08 296.673 279.737C293.262 272.677 288.553 267.739 282.462 264.832C279.567 263.45 276.971 261.538 275.544 259.736L273.259 256.851L269.169 255.662C266.919 255.008 264.035 254.575 262.76 254.698L260.44 254.923L260.579 256.946C260.741 259.309 260.134 259.414 254.67 257.96C247.624 256.086 241.675 255.226 239.099 255.71C236.48 256.201 235.844 255.542 237.419 253.967L238.302 253.084L237.406 252.189C235.633 250.416 224.325 252.196 220.751 254.811L219.307 255.868L221.381 258.366L229.165 257.394L228.742 259.509C228.456 260.94 228.69 261.933 229.464 262.576L230.609 263.526L237.3 262.233C242.1 261.305 244.756 261.129 246.7 261.609L249.408 262.278L249.84 265.979L253.903 268.107C262.181 272.441 268.277 279.886 269.523 287.184C270.377 292.181 274.973 290.757 276.249 285.101L276.891 282.253L275.477 279.48C272.184 273.026 267.624 267.474 263.547 264.954C260.51 263.077 259.879 261.534 262.463 262.305C270.87 264.813 281.789 277.155 279.229 281.255L278.311 282.723L279.965 286.255C281.96 290.514 283.277 291.164 285.562 289.017L287.287 287.397V283.855C287.287 281.908 286.625 278.573 285.816 276.445C285.007 274.316 284.356 272.079 284.368 271.472L284.392 270.369L285.527 271.84C289.034 276.382 290.417 279.762 290.587 284.197L290.761 288.757L296.323 289.226L295.897 300.024C295.221 317.187 292.991 321.139 282.322 324.073C279.983 324.717 280.157 327.599 282.652 329.561L284.637 331.122L301.139 330.878L304.571 334.149L311.191 333.671C320.408 333.005 326.315 331.635 327.449 329.899C328.834 327.778 332.88 310.377 332.94 306.286C333.066 297.648 334.446 298.561 336.565 308.685C338.623 318.509 341.062 324.142 345.068 328.322C348.686 332.098 350.492 332.568 352.742 330.319L354.207 328.854L353.826 325.822C353.616 324.154 353.153 322.245 352.797 321.579C352.44 320.913 352.318 319.481 352.525 318.397C353.252 314.595 348.524 304.972 345.005 303.088C343.878 302.486 342.094 299.848 340.286 296.111C336.791 288.893 331.372 282.505 328.741 282.505C327.479 282.505 326.559 281.816 325.683 280.213C314.143 259.104 301.75 247.866 288.681 246.66C284.547 246.279 279.196 247.442 279.196 248.721C279.196 249.614 291.801 256.068 296.602 257.632C298.691 258.313 301.768 259.734 303.441 260.79C305.113 261.846 307.293 263.018 308.285 263.395C309.276 263.772 310.088 264.569 310.088 265.165C310.088 265.762 311.086 267.729 312.305 269.536C315.549 274.342 316.756 278.441 316.925 285.224C317.088 291.768 316.369 293.509 314.043 292.207C313.08 291.669 312.118 291.765 310.596 292.552C307.819 293.988 306.41 293.352 306.41 290.662C306.41 287.861 307.411 287.281 310.23 288.449L312.491 289.385L313.496 288.011C317.021 283.19 310.574 271.381 299.539 262.447L295.243 258.969H289.014L287.312 257.157C280.983 250.42 262.288 245.728 247.937 247.275ZM144.2 257.545C143.421 258.805 144.51 263.072 146.138 265.142C147.128 266.401 147.474 267.577 147.152 268.591C145.878 272.606 149.476 278.827 153.072 278.827H154.728L155.65 283.714C156.157 286.402 156.596 290.316 156.627 292.413L156.682 296.225L154.396 299.846C150.32 306.303 150.766 310.163 155.958 313.372L158.661 315.043L162.636 314.712C165.417 314.482 167.741 313.682 170.364 312.051C172.427 310.769 174.387 309.719 174.718 309.719C178.268 309.719 189.124 299.265 195.486 289.721C199.106 284.29 201.232 282.581 201.232 285.102C201.232 285.721 203.852 291.672 207.054 298.326C210.256 304.98 213.105 311.467 213.385 312.739L213.893 315.054L209.69 318.449L210.816 320.51C212.614 323.801 214.836 324.138 222.584 322.297C232.942 319.835 235.801 317.812 235.801 312.944C235.801 308.076 229.731 287.514 227.5 284.826L226.676 283.833L227.929 283.133C230.993 281.418 228.419 278.713 222.562 277.492C220.337 277.028 215.703 276.034 212.264 275.284L206.012 273.919L205.78 271.96C205.214 267.199 198.765 273.761 190.258 287.753C185.917 294.895 181.482 300.04 177.766 302.248L175.261 303.736L172.13 300.513C170.405 298.739 167.894 297.005 166.544 296.655C165.194 296.305 164.037 295.543 163.973 294.962C163.563 291.289 161.932 282.751 161.522 282.137C161.252 281.733 160.434 279.747 159.704 277.724C158.222 273.622 154.479 266.472 150.753 260.623L148.293 256.762H146.488C145.496 256.762 144.466 257.114 144.2 257.545ZM182.844 257.962C177.982 259.631 175.716 263.018 176.536 267.389C177.679 273.478 184.196 275.735 188.789 271.633L191.079 269.586L191.838 262.857L189.731 260.571C187.619 258.28 184.908 257.253 182.844 257.962ZM221.881 266.549C219.337 267.436 217.583 270.409 218.379 272.484C218.582 273.014 220.848 274.014 223.413 274.706C225.979 275.399 229.011 276.329 230.153 276.772L232.227 277.578L231.821 279.196C231.594 280.099 232.071 282.172 232.9 283.888C235.407 289.075 239.398 301.791 239.923 306.261C240.197 308.59 240.706 310.672 241.053 310.886C241.4 311.101 241.685 312.458 241.685 313.903V316.528L239.111 319.378C235.355 323.534 235.96 327.371 240.372 327.371C244.234 327.371 258.448 323.684 258.875 322.571C261.158 316.623 263.237 287.855 261.533 285.802C260.939 285.086 260.927 284.392 261.493 283.336C264.309 278.073 251.664 268.327 239.478 266.368C233.226 265.363 225.044 265.447 221.881 266.549ZM225.684 269.439C225.851 269.939 227.414 270.592 229.159 270.89C233.158 271.572 240.849 275.147 245.485 278.478C249.545 281.394 250.511 281.615 250.511 279.628C250.511 276.547 241.698 271.287 233.691 269.589C227.577 268.293 225.288 268.251 225.684 269.439ZM282.322 378.687L280.667 378.96V401.094L282.652 400.715C283.744 400.506 285.447 400.642 286.436 401.019C290.859 402.7 296.113 398.369 296.113 393.04V390.165L294.05 388.189C291.946 386.173 287.839 385.459 286.919 386.948C285.799 388.76 285.08 387.34 285.08 383.314C285.08 378.626 284.867 378.267 282.322 378.687ZM204.174 400.923H220.355V397.981H209.322V390.699L217.781 390.258V388.051L209.322 387.61V381.866L219.236 381.432L219.728 378.857H204.174V400.923ZM251.982 400.923H267.428V398.045L256.763 397.613L256.351 378.857H251.982V400.923ZM305.7 386.718C304.443 387.599 303.843 387.706 303.636 387.086C303.477 386.606 302.546 386.212 301.568 386.212H299.79V400.923H304.204V396.194C304.204 391.053 305.327 389.009 307.797 389.655C309.568 390.118 310.803 387.117 309.247 386.132C307.889 385.272 307.727 385.298 305.7 386.718ZM228.496 393.764L227.205 395.32C226.495 396.176 225.098 397.787 224.1 398.9L222.286 400.923H227.566L230.537 396.23L232.729 398.576C234.297 400.256 235.579 400.923 237.243 400.923H239.566L236.58 397.382C232.998 393.134 232.991 393.056 235.874 389.44L238.154 386.58L234.112 386.094L230.773 390.258L228.649 388.235C227.4 387.045 225.703 386.212 224.527 386.212H222.527L228.496 393.764ZM323.491 387.358C320.352 389.556 321.556 393.176 326.069 395.111C327.974 395.927 329.201 396.893 329.017 397.429C328.719 398.293 327.794 398.357 323.35 397.829C320.176 397.451 320.649 399.796 323.968 400.891C328.4 402.354 333.624 400.164 333.624 396.842C333.624 395.189 330.278 392.347 327.73 391.837C325.414 391.374 324.764 389.607 326.645 388.885C327.256 388.651 328.705 388.648 329.866 388.881C332.196 389.347 333.74 387.939 332.063 386.877C330.415 385.833 325.254 386.122 323.491 387.358ZM271.841 400.923H276.254V386.948H271.841V400.923ZM313.03 400.923H317.443V386.948H313.03V400.923ZM286.236 390.31C284.807 391.739 284.713 396.76 286.094 397.906C287.651 399.199 290.588 397.723 291.673 395.105L292.61 392.841L291.403 390.998C290.027 388.897 287.928 388.618 286.236 390.31Z" fill="#FBFDFD"/>
</svg>
