<svg width="500" height="500" viewBox="0 0 500 500" fill="none" xmlns="http://www.w3.org/2000/svg">
<path fill-rule="evenodd" clip-rule="evenodd" d="M223.199 110.375L222.011 111.763L218.407 111.814C216.425 111.842 209.099 111.992 202.128 112.148C191.034 112.395 163.831 112.472 138.068 112.328C133.546 112.302 124.759 112.306 118.542 112.334C112.324 112.363 106.016 112.323 104.524 112.246L101.812 112.106L100.172 115.362L100.037 160.324C99.962 185.052 100.005 208.213 100.133 211.793C100.26 215.373 100.322 222.002 100.269 226.523C100.217 231.045 100.207 239.061 100.246 244.337C100.369 260.691 100.357 266.869 100.195 269.002C100.11 270.132 100.19 272.753 100.373 274.825C100.557 276.898 100.704 282.602 100.701 287.5C100.698 292.399 100.742 301.34 100.799 307.369C100.856 313.399 100.835 323.11 100.752 328.951C100.669 334.792 100.625 340.187 100.655 340.941C100.683 341.695 100.842 349.865 101.007 359.097L101.306 375.883L102.383 377.938C102.975 379.069 103.462 380.553 103.464 381.238C103.482 386.473 108.416 387.612 129.504 387.245C131.953 387.203 137.657 387.221 142.179 387.285C146.701 387.349 151.942 387.389 153.826 387.373C155.71 387.358 165.884 387.333 176.435 387.319C203.308 387.283 208.5 387.268 221.132 387.195C228.126 387.155 232.788 387.414 233.685 387.895C234.677 388.426 235.713 388.448 237.086 387.97L239.06 387.282L242.591 390.059L246.199 387.695L274.886 387.42L275.831 388.364C276.521 389.054 277.126 389.12 278.08 388.611C279.753 387.715 287.054 387.876 288.647 388.844C289.546 389.391 290.004 389.366 290.389 388.747C290.945 387.856 302.681 387.268 303.973 388.067C304.357 388.304 306.958 388.243 309.752 387.93C312.609 387.61 315.118 387.623 315.484 387.959C315.841 388.289 316.588 388.558 317.142 388.558C317.697 388.558 318.691 389.047 319.351 389.645L320.552 390.731L324.469 387.836L329.071 388.082C331.601 388.217 333.878 388.534 334.13 388.785C334.382 389.037 335.292 389.243 336.154 389.243C337.015 389.243 338.509 389.602 339.472 390.041L341.224 390.839L344.56 387.705L346.476 388.186C347.529 388.45 348.587 388.983 348.826 389.371C349.121 389.848 350.287 389.857 352.44 389.398C354.187 389.025 355.764 388.957 355.943 389.246C356.122 389.536 357.365 389.979 358.705 390.23L361.142 390.687L362.31 389.26C363.405 387.922 364.117 387.778 369.13 387.876C369.977 387.892 371.057 387.863 371.528 387.811C371.999 387.76 373.367 387.908 374.569 388.14C375.771 388.372 376.926 388.285 377.135 387.945C377.499 387.357 387.834 387.599 389.719 388.239C391.441 388.824 396.161 386.84 397.5 384.969C398.421 383.684 399.034 381.203 399.449 377.09C400.127 370.371 400.207 266.605 399.534 266.603C399.298 266.602 399.049 247.873 398.98 224.981C398.912 202.089 398.849 182.743 398.841 181.99C398.831 181.236 398.887 173.682 398.964 165.204C399.041 156.725 398.812 148.957 398.455 147.942C398.006 146.667 398.062 145.607 398.638 144.516C399.249 143.357 399.281 142.299 398.758 140.539C398.332 139.107 398.149 133.105 398.303 125.638L398.561 113.135L397.669 112.394C397.112 111.932 391.089 111.554 381.647 111.388C373.326 111.242 366.014 110.84 365.4 110.496C364.681 110.094 363.527 110.185 362.167 110.751C360.806 111.317 356.508 111.654 350.117 111.698L340.183 111.763L335.77 109.418L333.522 110.216C330.403 111.323 309.009 112.204 309.009 111.225C309.009 109.693 306.319 109.63 304.311 111.114C302.864 112.185 301.985 112.42 301.161 111.958C300.506 111.592 298.357 111.544 296.127 111.847L292.237 112.375L288.219 109.831L285.352 111.71L280.223 110.378C273.796 108.709 274.067 108.692 274.067 110.757C274.067 113.142 272.659 113.469 269.758 111.758L267.306 110.311L265.293 111.352C264.185 111.925 263.157 112.272 263.008 112.123C262.86 111.974 261.973 111.727 261.037 111.573C260.102 111.419 258.452 110.929 257.369 110.485L255.402 109.678L254.398 110.512C252.548 112.046 233.608 111.699 229.417 110.052C228.574 109.722 228.212 110.022 228.047 111.197C227.764 113.194 226.45 112.955 226.45 110.906C226.45 108.914 224.695 108.627 223.199 110.375ZM307.639 165.705C305.736 166.434 298.433 172.356 292.473 178.004L286.556 183.611L283.908 184.076C282.453 184.331 279.819 184.997 278.056 185.554C273.008 187.151 272.996 189.794 278.042 188.848L280.557 188.376L279.265 189.803C278.555 190.587 276.324 192.502 274.308 194.058C272.181 195.699 270.642 197.427 270.642 198.174C270.642 199.902 270.833 199.852 275.564 196.891C289.308 188.291 291.772 186.205 302.561 174.042C310.533 165.055 310.896 164.458 307.639 165.705ZM230.736 172.912C225.547 182.47 223.933 186.242 224.183 188.228L224.395 189.909L226.025 188.76C226.922 188.128 228.555 185.576 229.654 183.088C230.754 180.599 231.931 177.947 232.27 177.194C238.014 164.439 236.949 161.466 230.736 172.912ZM263.05 169.831C252.932 176.625 243.191 187.393 240.492 194.765C238.541 200.096 233.078 208.597 225.973 217.356C220.644 223.925 219.497 226.087 221.826 225.17C222.485 224.911 225.954 223.771 229.533 222.637C240.747 219.084 241.712 218.639 244.22 215.862C248.843 210.745 246.777 209.593 240.153 213.595C235.675 216.3 230.904 218.23 230.904 217.336C230.904 217.027 233.7 214.035 237.117 210.687L243.33 204.599L245.609 199.803C246.862 197.165 248.227 193.745 248.643 192.202C249.881 187.6 257.808 178.221 260.458 178.221C260.712 178.221 261.692 176.911 262.636 175.31C263.581 173.708 265.306 171.492 266.47 170.386C270.597 166.461 268.561 166.131 263.05 169.831ZM283.214 170.224C281.273 171.419 278 174.093 275.939 176.166L272.192 179.934L264.542 182.939C257.269 185.796 253.615 188.37 254.591 189.95C255.651 191.665 277.011 182.945 278.837 180.052L279.627 178.799L277.975 176.808L279.276 175.828C279.991 175.288 282.188 173.679 284.158 172.252C289.845 168.133 289.124 166.582 283.214 170.224ZM315.86 178.613C310.396 180.67 304.384 182.812 302.5 183.374C300.616 183.935 298.15 185.152 297.019 186.078L294.964 187.764L298.732 187.775C307.767 187.802 315.19 185.633 320.435 181.435C322.408 179.856 324.813 178.006 325.779 177.323C327.318 176.235 327.614 174.726 326.268 174.833C326.008 174.854 321.324 176.554 315.86 178.613ZM240.249 179.808C228.509 192.047 224.084 196.398 221.297 198.444C214.786 203.223 209.223 210.941 211.005 212.722C211.463 213.18 214.142 211.026 219.071 206.234C223.13 202.289 228.929 197.182 231.958 194.887L237.466 190.712L240.764 185.126C245.932 176.375 245.713 174.112 240.249 179.808ZM200.534 182.15C200.36 182.438 199.698 184.37 199.064 186.443C195.062 199.528 194.772 201.516 196.862 201.516C199.3 201.516 200.333 198.281 201.812 186.003C202.192 182.847 201.457 180.627 200.534 182.15ZM213.285 185.244C211.167 188 204.575 199.947 203.927 202.201C201.695 209.977 201.439 211.378 202.125 212.064C204.129 214.068 206.628 209.988 209.987 199.231C211.334 194.917 213.176 189.993 214.081 188.292C215.596 185.442 215.69 184.388 214.43 184.388C214.162 184.388 213.647 184.773 213.285 185.244ZM175.783 186.34C175.181 188.237 176.521 195.883 177.797 197.83C179.085 199.796 179.926 199.89 180.845 198.172L181.535 196.884L179.621 191.19C177.668 185.376 176.541 183.952 175.783 186.34ZM323.14 186.079C319.944 187.219 318.959 188.1 319.643 189.207C320.456 190.521 330.696 189.719 332.168 188.225L333.331 187.045L332.001 186.059C330.344 184.83 326.62 184.838 323.14 186.079ZM188.33 189.983C188.278 190.485 188.183 194.904 188.119 199.803C188.055 204.702 187.751 210.637 187.443 212.992L186.885 217.274H187.912C188.477 217.274 189.125 216.426 189.354 215.39C189.582 214.354 190.244 211.348 190.826 208.71C192.016 203.31 192.059 193.454 190.902 191.153C190.006 189.371 188.466 188.671 188.33 189.983ZM261.146 192.595C254.293 195.947 247.347 201.346 247.347 203.323C247.347 204.507 246.87 204.622 252.835 202.009C262.553 197.754 271.104 192.062 270.427 190.299C269.784 188.622 268.744 188.879 261.146 192.595ZM297.704 190.353C289.734 192.245 282.974 195.528 282.974 197.505C282.974 199.84 284.979 199.706 294.51 196.733C305.176 193.406 307.639 192.308 307.639 190.879V189.869L303.357 189.948C301.002 189.992 298.458 190.174 297.704 190.353ZM312.435 193.216C311.116 193.895 307.813 195.842 305.095 197.539C299.765 200.87 295.726 202.289 287.941 203.566C284.314 204.161 282.974 204.661 282.974 205.421V206.461L292.054 206.124C302.599 205.732 304.449 205.137 310.777 200.102C319.025 193.539 320.048 189.289 312.435 193.216ZM328.193 193.6C321.514 195.48 313.12 200.539 313.12 202.684C313.12 203.898 312.762 204.008 322.177 199.906C326.805 197.89 331.799 195.805 333.277 195.274C339.391 193.072 335.092 191.658 328.193 193.6ZM337.1 199.633C335.977 200.22 335.387 201.112 335.387 202.222V203.914L339.296 204.119C345.912 204.465 349.96 201.27 344.585 199.945C339.94 198.8 338.786 198.751 337.1 199.633ZM166.886 200.625C166.64 201.266 166.27 205.042 166.063 209.018L165.687 216.246L166.68 217.556C168.539 220.01 169.723 218.472 170.153 213.046C170.56 207.917 170.537 207.427 169.639 202.372C169.108 199.387 167.703 198.495 166.886 200.625ZM180.661 200.603C180.409 200.853 180.207 203.089 180.211 205.57C180.232 218.329 183.571 218.68 184.716 206.044L185.17 201.035L183.543 200.6C181.475 200.046 181.216 200.046 180.661 200.603ZM324.082 202.505C318.132 204.674 309.67 208.441 307.6 209.844L305.926 210.977L306.765 211.847C308.138 213.271 311.802 212.91 320.47 210.499C323.23 209.731 331.619 202.916 331.619 201.442C331.619 200.403 328.734 200.81 324.082 202.505ZM224.353 207.257C207.82 221.194 192.651 241.48 206.518 231.108C208.437 229.672 211.786 227.191 213.96 225.594C218.428 222.313 232.274 204.613 232.274 202.185C232.274 200.834 231.02 201.637 224.353 207.257ZM258.994 203.512C250.554 205.841 247.194 208.35 251.176 209.349L252.949 209.794L251.861 211.455C248.789 216.142 251.507 216.327 256.352 211.761C258.371 209.859 261.333 207.378 262.934 206.247C268.257 202.488 266.678 201.393 258.994 203.512ZM272.87 204.909C264.028 208.963 252.089 218.644 255.932 218.644C259.959 218.644 279.143 207.251 278.733 205.102C278.414 203.425 276.261 203.354 272.87 204.909ZM344.636 208.058C339.549 208.952 334.231 209.889 332.818 210.141C328.418 210.924 329.95 211.559 338.299 212.417L346.349 213.243L350.617 211.49C352.965 210.526 355.45 209.738 356.139 209.738C356.828 209.738 357.99 209.281 358.722 208.723L360.052 207.708L359.024 207.02C357.561 206.042 355.11 206.219 344.636 208.058ZM286.057 210.066C285.68 210.214 283.573 210.691 281.376 211.125C276.819 212.025 272.859 214.923 273.589 216.825C274.28 218.626 277.284 218.19 284.344 215.265C287.924 213.781 291.7 212.387 292.737 212.167C295.219 211.64 295.159 210.423 292.651 210.423C291.568 210.423 289.795 210.282 288.712 210.109C287.629 209.936 286.434 209.916 286.057 210.066ZM151.238 212.447C149.698 218.334 154.91 232.565 157.615 229.86C159.099 228.376 153.98 211.108 152.056 211.108C151.799 211.108 151.43 211.711 151.238 212.447ZM175.869 213.335C174.883 217.418 174.606 224.683 175.382 226.133L176.198 227.658L174.997 230.174C173.9 232.475 172.718 241.035 173.043 244.337C173.117 245.091 173.217 247.043 173.265 248.676C173.499 256.617 177.836 246.285 178.429 236.374C178.64 232.84 179.18 228.31 179.627 226.307L180.442 222.665L179.339 219.456C178.733 217.691 178.038 215.245 177.795 214.02C177.284 211.435 176.403 211.122 175.869 213.335ZM162.133 215.989C161.898 217.167 161.705 220.568 161.705 223.547V228.965L162.832 229.397C165.749 230.516 166.532 224.071 164.408 216.418C163.54 213.287 162.705 213.13 162.133 215.989ZM190.474 218.816C188.93 221.548 187.37 224.245 187.009 224.811C185.914 226.526 183.651 231.682 183.193 233.506L182.761 235.223L183.764 234.984C187.431 234.109 193.49 224.193 194.27 217.788C194.922 212.434 193.929 212.704 190.474 218.816ZM299.417 215.429C293.516 216.004 277.241 220.816 276.356 222.247C275.506 223.622 278.367 224.896 281.261 224.432C287.152 223.487 304.406 219.216 306.645 218.148C311.835 215.672 308.767 214.518 299.417 215.429ZM315.604 218.407C307.24 222.636 306.935 223.719 314.49 222.363C317.316 221.855 323.02 221.406 327.165 221.365C335.058 221.288 343.287 219.687 343.789 218.131C344.167 216.957 340.16 216.222 326.48 214.958L323.054 214.641L315.604 218.407ZM198.092 220.595C196.226 223.215 192.91 230.647 192.237 233.717C190.87 239.942 190.724 241.22 191.28 242.062L191.877 242.967L192.943 241.596C195.594 238.189 202.201 223.278 201.996 221.166C201.715 218.274 199.931 218.013 198.092 220.595ZM265.16 220.801C253.24 224.095 240.746 230.771 242.75 232.774C244.002 234.026 269.785 222.957 270.473 220.871C270.806 219.862 268.66 219.834 265.16 220.801ZM359.709 220.818C357.26 221.085 352.543 221.275 349.227 221.241C339.259 221.138 339.499 222.944 349.709 224.863L355.847 226.016L364.106 225.335C377.023 224.269 378.848 222.799 369.253 221.187C366.136 220.663 362.435 220.52 359.709 220.818ZM239.468 224.572C237.584 226.291 234.487 228.712 232.587 229.953C227.491 233.279 226.064 235.773 229.255 235.773H230.267L229.557 237.098C226.247 243.284 235.642 235.52 242.703 226.236C246.696 220.985 244.588 219.9 239.468 224.572ZM316.554 225.705C315.24 226.156 314.061 227.063 313.935 227.722L313.704 228.921L317.009 228.978C320.545 229.038 322.447 229.267 327.85 230.287C343.027 233.149 350.802 232.911 350.802 229.583C350.802 228.788 346.81 227.359 345.739 227.77C345.2 227.977 339.568 227.404 333.222 226.498C320.036 224.615 319.778 224.602 316.554 225.705ZM286.843 227.509L280.778 227.935L279.82 229.244C279.294 229.964 278.863 231.419 278.863 232.478V234.402L280.405 234.394C281.252 234.39 283.642 233.922 285.714 233.355C288.505 232.591 302.743 230.292 304.683 230.292C304.802 230.292 304.898 229.711 304.898 229.002C304.898 226.816 301.137 226.505 286.843 227.509ZM221.508 229.778C218.264 232.07 216.152 236.264 216.437 239.85C216.525 240.959 227.478 230.188 227.478 228.993C227.478 227.684 223.784 228.171 221.508 229.778ZM264.475 229.509C256.446 231.585 251.43 235.088 256.487 235.088C261.082 235.088 273.981 232.042 275.401 230.621L276.465 229.557L275.438 228.907C273.934 227.956 269.549 228.197 264.475 229.509ZM167.546 230.463C167.39 230.934 166.811 233.169 166.259 235.428L165.255 239.538L166.049 240.042C169.626 242.319 171.742 238.246 170.314 231.833C169.822 229.628 168.102 228.777 167.546 230.463ZM142.245 232.24C141.468 233.496 143.386 237.901 145.799 240.403C149.514 244.255 152.823 246.8 153.542 246.357C155.042 245.429 153.837 243.095 149.005 237.568C143.983 231.824 142.987 231.039 142.245 232.24ZM212.271 233.549C211.658 234.588 208.411 238.841 205.056 243.002C197.435 252.454 196.226 255.107 200.571 252.845C205.815 250.115 215.146 237.188 215.146 232.652C215.146 231.01 213.459 231.537 212.271 233.549ZM359.195 232.504C353.504 233.258 353.4 233.865 358.697 235.405L362.454 236.498L371.474 236.306C380.338 236.119 383.925 235.057 379.113 234.047C378.049 233.824 375.464 233.196 373.367 232.651C369.146 231.556 366.552 231.529 359.195 232.504ZM307.981 234.074C300.367 236.108 298.955 237.596 302.284 240.082L304.038 241.391L309.778 239.862C318.932 237.424 321.873 237.098 330.419 237.574C336.351 237.904 338.47 237.812 338.47 237.223C338.47 234.22 316.093 231.909 307.981 234.074ZM160.428 238.31C158.607 246.368 158.123 249.536 157.801 255.539C157.569 259.853 157.713 262.2 158.24 262.727L159.021 263.509L159.584 262.599C160.676 260.832 162.617 247.684 162.675 241.662C162.741 234.683 161.625 233.018 160.428 238.31ZM127.22 236.915C126.969 237.166 126.763 237.648 126.763 237.986C126.763 239.024 137.006 248.518 139.85 250.117L142.529 251.623L142.921 250.603C143.732 248.489 139.248 243.849 131.354 238.631C127.701 236.217 127.854 236.281 127.22 236.915ZM200.406 238.788C192.899 243.909 182.339 257.697 185.924 257.697C187.113 257.697 199.147 245.288 201.87 241.254C205.782 235.456 205.641 235.218 200.406 238.788ZM259.337 236.933C249.356 239.235 241.866 242.346 241.866 244.19C241.866 246.729 266.144 240.102 267.052 237.314C267.332 236.453 262.461 236.213 259.337 236.933ZM280.576 237.823C272.389 238.305 270.965 238.685 269.906 240.663C268.776 242.775 269.547 243.087 276.957 243.516L284.002 243.925L289.14 242.556C291.966 241.804 295.049 240.589 295.991 239.855L297.704 238.524L296.677 237.844C295.582 237.12 292.597 237.116 280.576 237.823ZM218.474 243.138C210.595 251.177 205.898 257.697 207.986 257.697C211.122 257.697 226.106 241.282 225.177 238.863C224.533 237.184 223.934 237.566 218.474 243.138ZM183.407 241.412C182.482 242.644 181.109 245.039 180.357 246.735C179.605 248.431 178.305 251.36 177.469 253.244C176.633 255.128 175.487 257.748 174.923 259.067C174.359 260.386 173.611 262.082 173.26 262.836C172.909 263.589 172.055 266.043 171.361 268.288C168.678 276.966 168.084 273.811 169.241 257.037C169.884 247.71 169.643 246.361 167.484 247.189C166.664 247.504 161.705 266.45 161.705 269.267C161.705 271.199 160.318 271.827 159.866 270.099C159.379 268.236 158.68 268.284 155.942 270.372C152.763 272.797 152.686 272.749 146.544 264.377C143.586 260.344 141.567 263.95 139.761 276.493C138.197 287.357 138.56 291.504 140.712 287.343C141.281 286.244 142.238 284.937 142.84 284.437L143.935 283.529L145.986 286.13L145.609 290.241C145.402 292.502 144.407 297.81 143.398 302.038C141.401 310.408 141.418 310.519 144.72 310.856C151.789 311.579 154.543 312.023 155.96 312.668C158.12 313.653 160.754 317.813 161.314 321.125L161.776 323.86L160.086 326.35C158.026 329.385 158.234 329.636 162.805 329.636H166.417L170.398 327.497C172.588 326.32 175.112 324.901 176.007 324.342L177.634 323.326L180.888 326.835L186.712 324.588L201.785 324.383C222.866 324.098 222.418 324.089 224.405 324.844C226.59 325.675 229.533 325.736 229.533 324.951C229.533 324.634 228.249 323.186 226.678 321.734C223.256 318.567 224.3 317.71 228.248 320.446L231.004 322.355L241.04 322.442L243.679 324.558C249.409 329.149 252.135 329.438 248.461 325.064C247.021 323.349 240.496 311.721 240.496 310.87C240.496 310.688 241.575 310.714 242.894 310.928L245.292 311.317V309.857C245.292 307.881 246.493 308.048 249.691 310.468C254.56 314.152 253.413 311.086 247.536 304.706L243.82 300.673L244.264 293.021L243.197 292.805C242.61 292.686 240.978 293.371 239.569 294.327C237.808 295.523 236.087 296.065 234.055 296.065H231.101L228.003 293.7C224.589 291.093 221.927 287.041 220.27 281.932C219.674 280.096 218.853 277.921 218.446 277.098C217.375 274.939 217.96 274.018 222.685 270.425C228.239 266.2 233.822 263.863 238.358 263.863C241.745 263.863 240.38 264.897 234.684 266.645C228.625 268.504 228.309 269.386 232.874 271.699C236.59 273.582 237.284 274.695 236.698 277.829C236.479 279.003 236.67 281.351 237.123 283.047C237.576 284.743 238.018 287.452 238.105 289.067C238.29 292.536 238.56 292.911 240.44 292.314C242.431 291.682 243.921 290.036 243.921 288.469C243.921 287.736 245.427 285.061 247.267 282.523L250.612 277.909L251.541 269.687L249.909 266.604C248.816 264.536 247.309 262.982 245.334 261.883L242.389 260.246L238.229 260.305C231.165 260.405 217.474 265.447 215.472 268.685C213.834 271.336 207.609 271.627 207.609 269.052C207.609 267.405 212.053 263.619 215.609 262.235C222.043 259.733 226.602 255.642 222.959 255.642C220.957 255.642 214.177 257.798 209.449 259.938L204.781 262.051L205.556 265.138L201.443 268.067V266.993C201.443 265.606 199.235 265.608 196.549 266.997C193.105 268.778 193.607 267.675 198.082 263.626C203.838 258.416 207.66 252.216 205.116 252.216C204.555 252.216 196.641 259.028 192.225 263.312C190.358 265.123 188.561 266.604 188.231 266.604C187.902 266.604 185.327 268.488 182.509 270.79C172.803 278.722 175.565 274.03 187.154 262.902C191.759 258.48 194.571 255.307 194.043 255.126C192.688 254.66 188.658 257.616 182.677 263.467C172.747 273.178 169.817 272.836 178.103 262.932C179.635 261.102 180.889 259.155 180.889 258.608C180.889 257.539 182.389 252.378 184.121 247.492C186.743 240.095 186.425 237.393 183.407 241.412ZM348.167 240.298C347.304 240.903 345.791 241.614 344.805 241.877C341.763 242.691 342.243 243.867 345.794 244.301C347.607 244.523 351.556 245.448 354.571 246.355C357.585 247.262 361.901 248.184 364.162 248.404C366.423 248.624 369.738 248.984 371.528 249.203C374.702 249.594 376.206 248.607 373.583 247.853C364.274 245.179 361.342 244.126 356.898 241.862C351.019 238.866 350.375 238.751 348.167 240.298ZM316.411 241.617C316.211 241.816 311.613 242.714 306.191 243.611C292.475 245.882 290.12 247.129 299.222 247.3C301.779 247.348 305.412 247.68 307.296 248.038C309.865 248.526 340.93 249.192 344.914 248.844C345.993 248.751 343.106 246.05 341.926 246.05C341.306 246.05 340.507 245.77 340.148 245.428C338.533 243.885 317.516 240.511 316.411 241.617ZM369.301 241.845C369.301 242.658 377.013 246.053 379.937 246.528C383.148 247.049 382.978 245.968 379.443 243.369L376.568 241.254H372.934C370.936 241.254 369.301 241.52 369.301 241.845ZM232.582 243.898C232.225 244.223 230.236 245.373 228.163 246.455C221.119 250.132 219.136 252.182 221.679 253.159C224.868 254.382 237.889 245.727 235.88 243.719C235.277 243.115 233.33 243.221 232.582 243.898ZM145.947 246.564C145.946 252.109 151.305 265.49 153.368 265.092L154.449 264.884L154.257 261.119C154.152 259.049 153.781 257.061 153.432 256.704C153.083 256.346 152.798 255.362 152.798 254.517C152.798 253.673 152.53 252.816 152.201 252.613C151.873 252.411 151.431 251.375 151.219 250.313C150.843 248.433 147.725 244.68 146.539 244.68C146.213 244.68 145.947 245.528 145.947 246.564ZM246.319 247.76C239.253 249.689 234.917 252.451 236.058 254.297C236.881 255.63 242.598 253.829 252.088 249.248C256.786 246.98 252.874 245.971 246.319 247.76ZM266.722 247.516C260.539 248.403 257.343 249.595 257.048 251.125L256.797 252.43L264.576 251.96C273.222 251.438 276.808 250.49 276.808 248.726C276.808 246.645 274.617 246.383 266.722 247.516ZM291.744 250.526C290.867 251.402 273.895 253.912 264.825 254.508C262.052 254.689 261.899 256.385 264.522 257.868C266.807 259.161 271.3 259.38 275.78 258.42C277.287 258.097 280.37 257.461 282.631 257.009C284.892 256.555 287.667 255.779 288.798 255.285C289.928 254.79 291.932 254.187 293.251 253.946C294.57 253.704 296.111 253.421 296.677 253.316C302.682 252.205 306.269 251.248 306.269 250.757C306.269 250.124 292.366 249.904 291.744 250.526ZM355.039 252.73C355.241 253.8 365.265 260.438 366.678 260.438C368.12 260.438 366.978 258.257 364.334 255.958C359.775 251.994 354.558 250.183 355.039 252.73ZM369.927 254.32C374.163 258.15 380.867 260.862 381.914 259.168C383.18 257.118 373.545 251.493 368.879 251.559L366.903 251.587L369.927 254.32ZM313.462 252.85C305.756 254.149 303.291 255.503 305.185 257.396L306.156 258.367L320.6 258.724C336.847 259.126 339.141 258.429 330.016 255.861C324.586 254.332 316.382 252.206 316.287 252.302C316.241 252.349 314.97 252.596 313.462 252.85ZM248.546 254.421C247.51 254.778 246.662 255.35 246.662 255.69C246.662 258.031 268.521 267.572 270.741 266.2C271.846 265.517 270.748 264.77 263.293 261.135C259.233 259.156 254.986 256.857 253.856 256.027C250.795 253.779 250.589 253.716 248.546 254.421ZM341.21 255.538C341.21 258.064 351.303 263.783 361.043 266.776C374.265 270.84 377.023 271.308 375.767 269.276C375.149 268.275 361.413 261.581 355.598 259.446C352.772 258.409 349.489 257.148 348.302 256.645C345.066 255.272 341.21 254.67 341.21 255.538ZM290.624 257.569L289.709 258.192L291.537 259.629C295.293 262.583 308.937 266.265 310.465 264.737C312.654 262.548 293.483 255.622 290.624 257.569ZM274.907 262.616C275.222 263.56 275.961 264 280.576 265.995C282.46 266.81 285.543 268.165 287.427 269.006C300.504 274.845 320.272 279.579 321.146 277.081C321.306 276.626 320.413 275.821 319.162 275.293C317.912 274.764 315.501 273.692 313.805 272.909C306.573 269.573 301.717 267.869 289.14 264.253C280.525 261.776 274.393 261.071 274.907 262.616ZM331.105 262.296C320.85 262.653 321.482 263.736 332.989 265.52C345.904 267.523 349.417 267.03 344.386 263.921C341.561 262.174 340.021 261.986 331.105 262.296ZM314.846 267.951C314.359 268.741 314.88 269.061 323.74 273.406L330.591 276.766L334.017 276.523C335.901 276.39 339.388 276.724 341.767 277.266C346.463 278.336 361.079 278.627 361.079 277.65C361.079 276.423 359.203 275.622 352.858 274.142C349.278 273.308 344.345 272.068 341.896 271.387C328.49 267.662 316.005 266.077 314.846 267.951ZM261.76 269.173C261.811 270.216 277.666 278.936 279.511 278.936C282.03 278.936 273.364 271.783 268.264 269.651C265.755 268.603 261.718 268.306 261.76 269.173ZM278.863 271.691C278.863 272.593 281.191 274.07 290.168 278.865C297.546 282.805 302.086 282.784 297.353 278.832C295.28 277.102 281.288 270.715 279.57 270.715C279.181 270.715 278.863 271.154 278.863 271.691ZM360.395 272.256C360.395 272.728 361.958 274.038 363.867 275.168C365.776 276.299 368.595 277.965 370.131 278.87C374.4 281.388 383.714 283.202 383.664 281.506C383.57 278.309 360.392 269.096 360.395 272.256ZM258.606 273.528C257.284 275.668 270.069 283.883 279.754 287.117C283.22 288.275 290.038 291.224 294.904 293.671C307.252 299.88 311.321 299.739 301.965 293.426C299.222 291.574 295.291 288.62 293.23 286.861C287.682 282.125 283.517 280.396 282.802 282.533C282.47 283.525 275.047 280.496 266.132 275.731C260.254 272.588 259.351 272.324 258.606 273.528ZM257.967 280.992C257.443 281.839 258.159 283.095 259.868 284.326C265.122 288.112 272.655 294.712 278.307 300.483C287.124 309.484 287.749 308.939 281.327 297.852C278.503 292.976 272.526 287.325 267.41 284.693C266.017 283.976 263.819 282.696 262.525 281.848C259.972 280.174 258.628 279.922 257.967 280.992ZM313.61 280.73C312.929 281.411 315.83 284.415 317.179 284.426C318.827 284.44 326.449 286.94 329.366 288.424C332.707 290.123 340.865 292.639 343.036 292.639C345.519 292.639 344.372 291.41 339.929 289.308C335.368 287.15 331.126 284.656 329.22 283.015C328.274 282.199 326.156 281.72 322.369 281.466C319.355 281.265 316.264 280.903 315.501 280.664C314.738 280.424 313.887 280.453 313.61 280.73ZM335.729 281.384C335.729 281.857 338.407 283.523 341.68 285.085C344.953 286.647 349.357 288.938 351.467 290.175C353.576 291.411 356.063 292.604 356.992 292.826C357.921 293.048 360.051 293.574 361.724 293.995C363.398 294.416 365.534 294.668 366.471 294.556L368.176 294.352L364.039 291.521C361.764 289.964 357.315 287.418 354.153 285.862C348.828 283.243 346.398 282.491 338.641 281.061L335.729 280.524V281.384ZM358.339 282.941C358.339 284.687 362.712 286.735 368.612 287.753C374.173 288.712 375.261 287.444 370.821 285.179C367.082 283.272 358.339 281.704 358.339 282.941ZM249.687 284.511C249.056 285.531 251.495 287.448 256.596 289.942C261.97 292.571 263.239 292.542 260.664 289.851C256.283 285.273 250.849 282.631 249.687 284.511ZM298.408 285.072C297.695 286.226 312.414 293.315 318.433 294.718C327.041 296.722 313.478 287.843 303.871 285.183C300.497 284.25 298.936 284.218 298.408 285.072ZM184.013 291.534C181.921 293.626 180.637 295.713 179.791 298.402L178.573 302.264L179.592 303.283C182.27 305.961 191.7 305.269 195.018 302.152C198.528 298.855 198.581 293.758 195.144 290.099L193.667 288.528H187.019L184.013 291.534ZM248.717 292.59C248.717 293.436 251.234 295.967 255.713 299.623C263.86 306.275 266.801 309.843 268.253 314.838C269.454 318.968 272.016 321.739 275.266 322.425C277.975 322.995 278.003 322.722 275.602 319.116C274.562 317.554 272.656 314.272 271.368 311.823C264.741 299.227 260.596 294.676 253.829 292.564C248.755 290.98 248.717 290.98 248.717 292.59ZM373.051 291.984C371.824 293.969 377.569 298.587 382.119 299.274L384.717 299.666L381.633 296.44C377.441 292.054 374.085 290.311 373.051 291.984ZM325.966 292.428C324.242 292.876 324.486 294.168 326.695 296.285L328.623 298.132L336.871 297.946L343.665 301.559C347.402 303.546 351.068 305.589 351.812 306.1C352.554 306.61 353.704 307.027 354.366 307.027H355.569L354.804 305.348C353.625 302.761 342.694 296.065 339.65 296.065C339.126 296.065 338.483 295.85 338.22 295.587C337.957 295.324 335.825 294.592 333.481 293.961C331.138 293.329 328.758 292.656 328.193 292.465C327.628 292.273 326.625 292.257 325.966 292.428ZM283.857 294.481C282.92 296.924 297.169 308.179 298.947 306.401C300.141 305.206 287.731 293.324 285.289 293.324C284.746 293.324 284.102 293.845 283.857 294.481ZM268.311 298.624C266.804 300.131 269.342 303.316 276.123 308.431C277.818 309.709 281.002 312.46 283.197 314.543C292.81 323.666 294.439 321.147 285.3 311.293C278.214 303.653 269.661 297.275 268.311 298.624ZM363.82 299.457C363.82 300.258 372.024 305.569 375.921 307.291C381.143 309.598 381.934 306.882 377.009 303.555C372.076 300.223 363.82 297.658 363.82 299.457ZM300.102 299.97C300.102 300.965 301.573 302.614 304.898 305.35C306.594 306.745 310.863 310.622 314.385 313.965C317.907 317.309 321.067 320.044 321.407 320.044C325.208 320.044 312.853 304.149 307.145 301.694C302.891 299.865 300.102 299.183 300.102 299.97ZM250.087 301.31C250.087 304.499 263.382 317.94 264.968 316.354C265.592 315.73 260.564 308.707 256.235 304.156C252.492 300.221 250.087 299.108 250.087 301.31ZM319.971 301.464C319.971 302.173 321.431 303.93 323.226 305.38C325.015 306.827 329.449 310.564 333.078 313.685C339.858 319.516 340.799 320.049 341.43 318.404C341.913 317.146 327.232 302.332 324.283 301.1C321.25 299.833 319.971 299.94 319.971 301.464ZM332.989 302.24C332.989 303.241 340.73 310.39 344.751 313.103C349.271 316.153 350.717 315.144 347.312 311.316C341.791 305.109 332.989 299.533 332.989 302.24ZM319.971 309.863C319.971 311.23 330.141 320.73 331.605 320.73C333.64 320.73 333.296 319.201 330.648 316.474C324.999 310.657 319.971 307.545 319.971 309.863ZM352.336 309.913L351.595 310.806L353.25 313.541C355.922 317.955 355.268 319.63 351.177 318.847L349.239 318.477L349.922 325.59L353.632 329.462L352.496 333.368C350.551 340.057 353.259 339.417 356.755 332.36C359.919 325.973 360.661 314.152 358.103 310.901C356.962 309.452 353.247 308.816 352.336 309.913ZM291.196 311.39C291.196 313.362 299.94 322.785 301.769 322.785C303.366 322.785 301.398 319.367 297.46 315.302C292.857 310.55 291.196 309.513 291.196 311.39ZM300.559 310.909C299.641 311.828 300.185 312.712 304.322 317.021C311.149 324.13 313.179 322.001 306.553 314.68C302.937 310.683 301.616 309.852 300.559 310.909ZM254.198 318.459C254.198 318.717 254.844 319.615 255.632 320.454C257.16 322.081 260.365 330.175 260.365 332.408C260.365 334.825 259.372 333.779 257.076 328.944C254.837 324.226 250.987 319.359 249.493 319.359C248.238 319.359 248.615 320.88 250.614 323.886C251.643 325.434 253.334 327.971 254.37 329.525C256.274 332.38 256.792 334.432 255.609 334.432C255.254 334.432 254.764 334.108 254.518 333.711C254.273 333.313 252.482 332.23 250.538 331.301C248.595 330.372 245.771 328.853 244.264 327.923C240.511 325.609 240.578 325.531 241.003 331.729C241.243 335.224 241.051 338.625 240.48 341.003L239.58 344.758L237.04 347.052C235.643 348.315 232.998 350.206 231.161 351.255C224.954 354.8 223.779 356.517 227.992 355.885C229.724 355.626 231.483 354.614 233.393 352.781C235.011 351.227 236.411 350.363 236.658 350.764C236.897 351.15 236.779 351.659 236.396 351.896C235.551 352.418 235.462 354.986 236.289 354.986C236.614 354.986 238.015 354.215 239.403 353.273C242.314 351.298 242.782 351.217 243.851 352.503L244.633 353.446L247.532 352.451C249.126 351.903 250.893 351.063 251.458 350.584C252.023 350.105 252.994 349.534 253.616 349.314C258.89 347.453 268.967 328.428 267.179 323.708C265.622 319.601 262.07 317.12 263.153 320.896C264.909 327.019 263.541 328.417 260.469 323.641C257.723 319.376 254.198 316.463 254.198 318.459ZM327.427 323.563C327.301 325.012 327.305 325.056 327.77 327.238L328.209 329.294L325.842 326.567C323.46 323.823 323.152 323.868 322.581 327.044L322.369 328.22L319.355 326.187C314.553 322.951 314.097 323.416 313.515 332.142C313.386 334.085 313.077 336.003 312.829 336.405C312.255 337.332 307.113 339.619 304.123 340.276C301.234 340.91 298.732 342.527 298.732 343.76C298.732 344.997 300.18 344.97 301.855 343.703C303.431 342.512 307.052 342.341 308.118 343.407C309.378 344.667 311.328 343.512 314.015 339.913C317.249 335.582 318.239 335.489 317.679 339.571L317.257 342.654H318.87C320.284 342.654 324.215 339.978 331.323 334.175C332.802 332.968 333.755 331.279 334.537 328.478C335.796 323.97 335.291 322.74 332.744 324.103L331.101 324.982L327.508 322.627L327.427 323.563ZM199.504 330.405C199.101 331.678 198.569 333.865 198.322 335.265C197.851 337.942 195.109 340.65 189.453 344.028C186.738 345.649 185.716 346.628 185.695 347.621C185.677 348.544 187.147 348.163 189.176 346.718C190.449 345.812 191.67 345.462 192.568 345.747C193.365 346 194.451 345.797 195.079 345.28L196.184 344.367L196.473 345.223C197.572 348.489 209.109 341.919 210.989 336.957C213.013 331.614 210.972 329.064 204.178 328.448L200.237 328.091L199.504 330.405ZM346.565 332.57C345.553 333.406 343.471 334.934 341.94 335.967C337.999 338.625 338.32 339.428 343.094 338.851C347.458 338.322 348.747 337.617 348.747 335.759C348.747 335.074 349.055 334.323 349.432 334.09C350.417 333.481 350.278 331.002 349.261 331.028C348.79 331.04 347.577 331.733 346.565 332.57Z" fill="#FBFDFD"/>
</svg>
