<svg width="500" height="500" viewBox="0 0 500 500" fill="none" xmlns="http://www.w3.org/2000/svg">
<path fill-rule="evenodd" clip-rule="evenodd" d="M181.842 97.2115C179.489 97.3321 177.246 97.8503 176.618 98.4187C176.013 98.9665 175.321 99.2173 175.08 98.9768C174.216 98.1135 161.176 98.192 158.404 99.0775C156.476 99.6934 154.532 99.7803 151.935 99.3668C149.669 99.0058 147.741 99.0333 146.985 99.4378C145.298 100.341 141.971 100.274 141.014 99.3172C140.476 98.7791 134.925 98.5097 123.27 98.4559L106.309 98.3781L102.825 102.014L103.225 105.601C103.445 107.574 103.816 109.498 104.05 109.877C104.285 110.257 104.103 111.266 103.645 112.121C103.066 113.203 103.009 114.384 103.458 116.017C103.848 117.437 103.866 121.85 103.504 127.216L102.906 136.072L103.955 138.175C105.317 140.905 105.278 141.596 103.648 143.668C102.903 144.616 102.084 146.694 101.83 148.286L101.367 151.182L102.84 153.175C104.542 155.476 104.696 156.805 103.385 157.893C102.138 158.928 102.101 162.514 103.328 163.531C104.592 164.58 104.583 166.247 103.303 168.073L102.293 169.516L102.614 176.941C102.791 181.025 103.246 184.74 103.626 185.197C104.502 186.253 104.364 189.418 103.327 192.087C102.313 194.694 102.451 209.459 103.532 214.107C104.112 216.601 104.124 218.137 103.577 219.794C103.165 221.043 103.03 222.986 103.277 224.112C103.525 225.238 103.347 227.21 102.882 228.495L102.038 230.83L103.176 232.455C104.578 234.456 104.651 236.942 103.323 237.452C101.213 238.261 100.704 245.189 102.537 248.155C103.019 248.934 103.231 259.443 103.089 275.46C102.98 287.772 103.333 297.83 103.954 300.09C104.301 301.351 104.102 302.766 103.361 304.329C101.921 307.363 101.935 307.498 103.97 310.257C106.087 313.126 106.122 314.189 104.167 316.27L102.641 317.894L103.478 319.234C104.707 321.203 104.557 322.34 103.214 321.226L102.113 320.312L101.319 321.658C98.9025 325.75 100.009 332.182 102.995 331.402C104.592 330.984 104.606 331.121 103.231 333.78C102.614 334.972 102.364 336.368 102.651 337.019C102.929 337.648 103.093 338.432 103.018 338.762C102.943 339.091 102.756 342.303 102.605 345.899C102.453 349.494 102.122 354.082 101.871 356.094L101.413 359.752L103.036 359.982C105.266 360.298 105.561 362.844 103.532 364.264L101.982 365.35L101.838 369.327C101.76 371.514 101.458 375.009 101.169 377.093C99.473 389.303 102.023 401.106 105.909 399.026C106.607 398.653 107.644 398.526 108.213 398.744C108.783 398.963 109.904 398.683 110.705 398.122L112.16 397.103L114.624 399.332L116.619 397.676L119.733 398.733C122.011 399.507 124.745 399.714 129.921 399.505C134.383 399.325 137.326 399.494 137.89 399.962C138.419 400.401 140.037 400.533 141.846 400.285C143.578 400.048 145.088 400.158 145.323 400.537C145.986 401.611 152.414 401.313 154.76 400.1L156.905 398.991L159.377 399.67C161.805 400.337 178.558 400.234 179.243 399.547C179.436 399.354 180.407 399.618 181.401 400.132C183.727 401.334 186.396 401.672 187.609 400.917C188.134 400.59 190.304 400.329 192.432 400.337C194.56 400.344 196.869 400.054 197.564 399.691C198.459 399.225 199.162 399.326 199.975 400.039C200.699 400.672 201.634 400.856 202.502 400.533C203.26 400.252 204.271 400.169 204.75 400.348C205.228 400.528 206.079 400.294 206.639 399.829C207.243 399.327 208.569 399.146 209.903 399.383C212.329 399.814 221.617 400.615 223.862 400.586C224.62 400.577 227.166 400.546 229.522 400.519C231.877 400.491 234 400.15 234.241 399.76C234.518 399.312 235.13 399.46 235.906 400.163C237.188 401.323 245.433 401.782 248.35 400.856C249.129 400.608 250.14 400.706 250.595 401.073C251.118 401.494 252.945 401.508 255.557 401.112C263.149 399.961 267.856 399.911 269.527 400.965C270.389 401.508 272.249 401.902 273.661 401.841C275.073 401.78 277.374 402.23 278.774 402.841C281.47 404.018 283.115 403.801 283.733 402.19C284.173 401.043 288.018 400.879 290.685 401.893L292.484 402.578L295.522 400.588L298.278 401.338C299.794 401.751 305.22 402.18 310.336 402.292C315.452 402.404 321.477 402.807 323.724 403.188C326.435 403.647 328.242 403.65 329.091 403.196C329.794 402.819 330.943 402.693 331.643 402.915C332.343 403.137 333.717 402.954 334.697 402.507L336.479 401.696L337.423 402.48C337.943 402.911 338.587 403.046 338.854 402.779C339.12 402.513 342.657 402.202 346.714 402.088C350.771 401.975 356.725 401.793 359.946 401.686C364.131 401.545 366.13 401.759 366.946 402.433L368.089 403.376L370.18 402.295C371.51 401.608 372.427 401.467 372.7 401.908C372.973 402.352 373.615 402.261 374.474 401.66C375.874 400.679 375.971 400.688 386.31 402.856C392.054 404.06 393.456 403.73 394.354 400.965C395.45 397.591 395.246 382.452 393.99 373.992C393.267 369.125 393.564 364.785 394.734 363.116L395.736 361.686L394.466 359.571C393.768 358.407 392.999 356.615 392.758 355.588L392.319 353.721L394.743 352.423L394.514 345.293C394.061 331.182 394.237 326.496 395.334 323.508C396.359 320.715 396.255 318.525 395.097 318.525C394.293 318.525 393.014 312.825 393.635 312.006C394.201 311.258 394.59 307.247 394.438 303.711C394.389 302.574 394.27 298.808 394.174 295.342C394.07 291.631 393.65 288.622 393.152 288.022C392.09 286.742 392.74 284.944 394.461 284.398C395.84 283.96 396.184 283.028 395.193 282.416C394.699 282.111 394.55 256.167 395.044 256.167C395.494 256.167 395.367 238.425 394.915 238.145C394.077 237.628 394.322 233.558 395.408 229.949L396.417 226.594L395.326 225.388C394.542 224.522 394.369 223.541 394.711 221.915C394.974 220.668 395.262 216.393 395.351 212.413C395.443 208.326 395.882 204.504 396.358 203.628C396.925 202.588 396.986 201.673 396.546 200.85C396.087 199.993 396.292 198.427 397.225 195.664L398.561 191.706L397.799 190.282C397.38 189.499 397.22 188.13 397.443 187.242C397.665 186.353 397.578 185.458 397.247 185.254C395.957 184.457 395.727 179.307 396.874 176.89L398.001 174.516L396.888 172.173C395.585 169.425 395.495 168.183 396.527 167.151C396.939 166.739 397.376 165.359 397.497 164.085C397.619 162.811 397.796 161.459 397.894 161.08C397.99 160.701 397.831 159.542 397.54 158.504C397.15 157.118 397.393 155.965 398.459 154.158C400.274 151.083 400.293 149.593 398.532 148.493C396.911 147.481 396.786 146.111 398.12 144.003C398.652 143.163 399.292 141.489 399.543 140.282L400 138.087L398.592 136.679C397.628 135.715 397.281 134.668 397.493 133.361C397.664 132.311 398.155 127.644 398.587 122.99L399.371 114.528L398.519 112.471C398.042 111.32 397.821 109.048 398.016 107.313C398.209 105.608 398.093 104.045 397.76 103.839C397.427 103.633 397.154 102.863 397.154 102.127V100.79L393.881 100.731C392.082 100.699 388.903 100.75 386.819 100.846C384.735 100.941 381.634 100.974 379.929 100.919C378.223 100.865 375.742 100.854 374.416 100.896C368.145 101.095 366.969 100.967 363.962 99.7582L360.742 98.4649L358.105 99.6108C356.654 100.241 353.452 100.801 350.989 100.854C344.348 100.999 319.114 100.144 315.53 99.6528C313.821 99.4185 312.03 99.5122 311.551 99.8616C310.352 100.735 281.393 100.455 275.915 99.5157C273.104 99.034 271.317 98.9968 271.059 99.4137C270.813 99.8119 267.102 99.9263 261.726 99.7017C250.516 99.2338 252.214 99.2559 242.121 99.4502C228.723 99.7086 214.395 99.074 212.686 98.1473L211.156 97.3176L209.363 98.8817C208.377 99.7417 206.74 100.678 205.725 100.963L203.88 101.48L202.729 100.092C202.095 99.3289 201.436 98.3209 201.264 97.8523L200.951 97L200.038 97.8613C198.983 98.857 194.476 99.0203 193.51 98.097C192.708 97.3314 187.382 96.9277 181.842 97.2115ZM271.75 113.901C265.475 115.009 259.185 118.718 255.217 123.651C251.121 128.742 246.372 138.293 245.815 142.556C245.573 144.407 245.061 146.531 244.678 147.276C240.858 154.694 245.949 173.119 255.418 186.149C257.791 189.416 260.274 192.941 260.937 193.986C262.646 196.682 274.332 208.197 282.857 215.585C302.788 232.861 312.135 251.142 307.908 264.582L306.677 268.498L302.994 272.151C300.968 274.161 298.912 275.805 298.423 275.805C297.935 275.805 296.307 276.439 294.806 277.215C285.513 282.013 267.609 283.069 256.357 279.482C251.788 278.026 239.78 272.422 239.48 271.606C239.354 271.263 238.709 270.981 238.047 270.981C237.386 270.981 233.458 268.832 229.319 266.205C216.306 257.944 205.349 245.416 200.655 233.429C199.913 231.534 197.622 227.153 195.564 223.693C193.506 220.233 191.822 216.908 191.822 216.304C191.822 215.7 191.156 213.725 190.343 211.915C187.563 205.728 185.993 200.738 185.307 195.911C185.067 194.224 184.503 192.4 184.052 191.858C183.561 191.266 183.206 188.284 183.165 184.395C183.074 175.827 181.445 173.951 179.469 180.138C178.27 183.895 178.461 198.837 179.773 203.792C180.373 206.061 180.685 208.631 180.466 209.503C180.237 210.417 180.515 211.729 181.122 212.594C182.46 214.505 182.469 215.859 181.142 215.859C180.471 215.859 180.108 215.187 180.108 213.945C180.108 212.892 179.668 211.403 179.132 210.636C178.594 209.87 177.933 208.018 177.663 206.522C177.392 205.025 176.914 203.302 176.601 202.694C174.275 198.175 170.536 172.322 171.958 170.592C172.33 170.14 172.533 169.055 172.409 168.181C172.106 166.041 169.926 166.112 168.324 168.315L167.07 170.038L166.785 178.835C166.628 183.674 166.77 187.801 167.103 188.006C167.916 188.509 167.875 193.12 167.057 193.12C166.002 193.12 165.693 192.181 164.876 186.48C164.448 183.5 163.659 180.597 163.121 180.029L162.144 178.995L161.49 180.029C160.516 181.568 160.679 185.587 161.909 190.387C162.51 192.735 162.854 195.22 162.673 195.91C162.493 196.601 162.743 197.318 163.23 197.505C163.716 197.692 165.049 199.805 166.191 202.201L168.269 206.557L168.74 205.376C169 204.727 168.709 202.683 168.094 200.833C167.043 197.669 167.175 195.188 168.395 195.188C169.084 195.188 169.773 196.963 169.773 198.74C169.773 199.495 171.013 202.468 172.529 205.345C174.045 208.222 175.285 210.946 175.285 211.399C175.285 211.851 176.056 213.357 176.999 214.747C177.942 216.136 178.891 217.962 179.108 218.805C179.63 220.829 182.536 224.127 183.797 224.127C184.347 224.127 185.131 225.088 185.541 226.261C185.95 227.435 187.143 229.439 188.192 230.715C193.05 236.622 198.195 244.109 197.395 244.109C197.045 244.109 196.295 244.287 195.73 244.503C195.059 244.761 194.534 244.343 194.216 243.297C193.648 241.428 191.221 238.607 190.151 238.574C188.625 238.527 186.309 235.905 186.309 234.223C186.309 232.975 185.238 231.542 182.529 229.166C179.781 226.756 178.745 225.36 178.739 224.062C178.734 223.078 178.11 221.712 177.352 221.026C176.594 220.341 175.974 219.373 175.974 218.877C175.974 218.38 175.096 216.955 174.023 215.71C172.95 214.465 171.875 212.904 171.633 212.241C171.392 211.578 170.773 211.035 170.259 211.035C168.211 211.035 160.576 197.171 159.532 191.557C159.142 189.46 158.277 187.674 157.14 186.62C156.16 185.713 155.167 184.091 154.933 183.016C154.699 181.942 154.222 180.442 153.875 179.684C152.133 175.882 150.975 156.314 152.013 148.233L152.691 142.964L151.752 140.998C149.877 137.067 142.545 140.03 141.235 145.249C141 146.187 140.526 146.955 140.185 146.955C139.578 146.955 138.4 149.903 137.678 153.228C136.672 157.863 139.036 179.371 140.814 181.751C141.661 182.887 142.211 186.839 141.575 187.231C140.609 187.829 139.002 184.738 138.489 181.291C138.225 179.522 137.573 177.712 137.039 177.269C136.461 176.789 136.201 175.722 136.396 174.629C136.886 171.89 135.112 165.948 133.726 165.682L132.565 165.458L132.572 167.404C132.576 168.474 133.041 170.871 133.606 172.731C134.17 174.592 134.637 176.917 134.642 177.899C134.648 178.881 135.1 180.459 135.649 181.407C136.739 183.291 136.876 183.597 138.905 188.642C139.667 190.537 140.873 192.722 141.585 193.498C142.297 194.275 143.077 195.902 143.321 197.115L143.762 199.322H142.771C139.281 199.322 129.512 182.937 127.445 173.617C126.17 167.867 125.459 167.355 123.509 170.782L122.364 172.794L122.958 176.928C124.032 184.406 123.879 183.938 128.06 192.432C131.714 199.853 135.678 205.876 138.766 208.701C140.092 209.914 141.717 211.831 142.376 212.96L143.575 215.013L141.554 216.69L137.14 212.313C134.713 209.905 131.584 206.134 130.188 203.933C128.792 201.733 127.23 199.772 126.719 199.575C125.004 198.917 122.179 193.789 121.404 189.928C119.948 182.68 117.218 184.268 117.335 192.294C117.489 202.868 122.742 214.704 131.221 223.581C134.222 226.724 136.682 229.674 136.689 230.139L136.699 230.983L134.807 230.264C131.38 228.961 123.412 221.803 117.815 214.997C114.981 211.553 113.959 211.1 112.63 212.7L111.821 213.676L112.82 217.502C113.369 219.606 114.626 222.772 115.612 224.536C116.599 226.302 117.406 228.024 117.406 228.364C117.406 230.386 129.705 243.409 133.717 245.636C135.276 246.501 138.679 248.435 141.277 249.932C143.875 251.429 147.241 253.31 148.757 254.111C150.273 254.912 153.063 256.423 154.958 257.467C156.853 258.512 163.21 261.539 169.084 264.194C183.978 270.928 190.064 275.01 188.642 277.311C188.199 278.028 183.561 277.6 179.763 276.491C178.627 276.159 175.836 275.509 173.562 275.046C171.288 274.584 169.133 273.944 168.773 273.627C168.413 273.309 167.634 273.049 167.041 273.049C166.448 273.049 164.882 272.475 163.561 271.773C162.24 271.072 159.454 269.972 157.37 269.33C152.042 267.689 147.871 265.422 147.489 263.958C147.252 263.053 146.497 262.713 144.728 262.713C143.389 262.713 142.082 262.371 141.823 261.954C141.565 261.536 140.307 260.757 139.026 260.222C137.746 259.687 136.699 258.943 136.699 258.57C136.699 258.196 136.039 257.89 135.232 257.89C134.425 257.89 132.564 256.805 131.096 255.478C129.628 254.152 128.018 253.067 127.519 253.067C127.02 253.067 125.989 252.369 125.229 251.516C124.467 250.663 121.911 248.168 119.547 245.972L115.249 241.977L113.897 242.406C113.154 242.643 112.083 243.543 111.515 244.408L110.484 245.981L112.215 249.007C113.166 250.671 113.948 252.384 113.952 252.813C113.957 253.242 115.129 254.793 116.556 256.258C117.983 257.724 120.114 260.052 121.291 261.431C122.467 262.81 124.554 264.345 125.927 264.841C127.301 265.338 129.335 266.576 130.449 267.593C132.408 269.383 137.841 271.671 140.132 271.671C140.748 271.671 142.631 272.526 144.315 273.572C148.466 276.149 157.136 279.734 160.284 280.176C161.698 280.374 163.898 281.333 165.173 282.305C166.448 283.277 168.113 284.073 168.873 284.073C170.943 284.073 174.596 285.487 174.596 286.288C174.596 286.674 175.204 286.831 175.949 286.636C176.693 286.441 177.661 286.716 178.1 287.245C178.539 287.774 179.585 288.207 180.422 288.207C181.26 288.207 182.167 288.429 182.439 288.7C183.223 289.485 189.181 290.9 191.84 290.933C193.178 290.95 194.883 291.385 195.63 291.901C196.805 292.712 199.915 292.875 205.568 292.422L206.567 292.342L205.711 291.48C205.241 291.007 202.93 290.258 200.578 289.817C189.694 287.776 180.992 285.895 179.419 285.244L177.697 284.53L180.453 284.008C183.371 283.454 190.369 284.257 196.617 285.863C198.687 286.394 201.544 286.829 202.967 286.829C204.39 286.829 206.883 287.271 208.507 287.81C210.131 288.35 212.777 289.137 214.388 289.559C216.298 290.06 217.316 290.712 217.316 291.433V292.539L212.447 292.087C209.223 291.788 207.723 291.87 208.009 292.333C208.246 292.716 209.333 293.031 210.426 293.031C212.801 293.031 213.63 294.072 212.418 295.532C211.487 296.654 209.046 296.567 204.021 295.234L201.407 294.54L198.336 296.256C196.648 297.199 195.267 297.779 195.267 297.544C195.267 297.309 194.724 297.407 194.061 297.761C192.888 298.388 191.01 298.267 174.94 296.526C166.192 295.578 164.171 295.257 159.093 294.004C152.692 292.426 141.294 288.744 140.144 287.884C139.576 287.459 137.405 286.547 135.321 285.858C133.237 285.169 129.767 283.713 127.609 282.623C125.453 281.533 123.229 280.817 122.667 281.032C121.071 281.644 119.025 280.193 116.684 276.79C115.5 275.07 114.178 273.78 113.747 273.924C112.282 274.412 111.998 278.341 113.286 280.305C113.946 281.312 114.349 282.664 114.18 283.309C113.987 284.048 114.499 284.817 115.563 285.387C116.493 285.885 117.646 287.025 118.126 287.921C119.645 290.758 125.373 295.098 127.6 295.098C128.712 295.098 130.365 295.682 131.274 296.396C134.189 298.69 141.754 302.467 145.656 303.578C155.363 306.342 186.9 307.684 191.003 305.508C191.643 305.169 195.577 304.689 199.746 304.441C203.914 304.194 208.488 303.823 209.909 303.618C214.705 302.926 211.024 306.309 205.308 307.847C201.593 308.847 201.266 310.257 204.75 310.257C207.761 310.257 210.94 308.907 212.818 306.833C213.498 306.081 214.346 305.646 214.703 305.866C215.059 306.086 216.066 305.595 216.939 304.775L218.526 303.283L224.984 303.076C228.536 302.962 232.294 302.636 233.336 302.353C234.573 302.018 235.231 302.104 235.231 302.603C235.231 303.022 234.79 303.366 234.251 303.366C233.711 303.366 232.348 304.141 231.222 305.089C230.096 306.036 228.853 306.811 228.46 306.811C228.066 306.811 227.547 307.431 227.307 308.189C227.066 308.947 226.45 309.567 225.939 309.567C225.427 309.567 224.471 309.773 223.815 310.025L222.622 310.483L223.544 306.811H222.506C221.935 306.811 221.037 307.843 220.51 309.105L219.552 311.399L214.128 312.57C208.24 313.842 195.463 315.111 194.042 314.566C192.672 314.041 182.185 315.822 178.718 317.169C177.006 317.834 173.905 318.428 171.827 318.49C164.518 318.705 161.819 318.663 158.748 318.286C157.043 318.076 155.104 317.89 154.441 317.87C153.779 317.852 153.236 317.562 153.236 317.226C153.236 316.463 162.897 315.159 172.47 314.63L177.579 314.347L180.723 310.954L179.468 310.283C178.127 309.565 164.927 309.82 162.402 310.612C155.896 312.654 130.782 307.603 127.316 303.555C123.741 299.378 121.799 303.41 124.568 309.259L126.329 312.977L128.235 313.456C129.284 313.72 131.327 314.792 132.774 315.841C134.221 316.89 137.635 318.417 140.358 319.235C143.083 320.053 146.397 321.046 147.723 321.442C152.357 322.826 153.885 323.505 154.763 324.566L155.647 325.637L151.169 325.151C148.705 324.883 144.364 324.35 141.522 323.966C138.68 323.582 134.434 323.119 132.087 322.936L127.82 322.603L126.288 325.466L128.349 328.069C129.483 329.5 130.8 331.526 131.276 332.572L132.142 334.471L131.303 334.989C128.634 336.64 130.777 342.391 135.66 346.678C136.995 347.851 138.025 349.05 137.947 349.343C137.869 349.636 138.318 351.581 138.944 353.666L140.081 357.455H148.553C153.398 357.455 157.247 357.161 157.542 356.766C157.866 356.334 158.312 356.463 158.738 357.111C159.822 358.764 159.554 359.234 157.781 358.789C156.733 358.526 155.911 358.723 155.542 359.327C155.221 359.852 153.64 360.665 152.03 361.135C150.42 361.605 149.102 362.335 149.102 362.758C149.102 365.297 159.797 372.104 167.361 374.378C168.877 374.834 170.737 375.545 171.495 375.959C172.253 376.373 173.493 376.786 174.251 376.877C175.009 376.968 176.578 377.235 177.739 377.471L179.848 377.9L183.001 375.494C184.734 374.17 187.971 372.088 190.193 370.868C192.415 369.647 196.559 367.073 199.401 365.148C202.243 363.223 206.119 360.626 208.014 359.379C209.909 358.131 212.797 355.947 214.433 354.526C217.656 351.728 218.694 351.138 218.694 352.106C218.694 353.49 207.953 362.758 199.93 368.296C196.739 370.499 195.338 372.947 197.851 371.929C198.514 371.66 199.987 371.106 201.124 370.699C202.261 370.291 205.603 367.997 208.552 365.601C214.139 361.06 217.377 359.992 218.295 362.385C219.337 365.1 210.883 370.972 200.618 374.664L195.289 376.58L193.055 375.655C190.336 374.529 187.074 374.775 185.448 376.229C182.782 378.612 184.512 380.205 190.497 380.881C195.705 381.468 204.168 383.28 206.636 384.336C207.773 384.823 211.339 385.439 214.56 385.706C217.781 385.973 221.812 386.487 223.517 386.85C226.548 387.495 230.026 387.924 235.576 388.339C237.091 388.452 238.997 388.907 239.81 389.35L241.288 390.156L242.154 389.111C242.732 388.414 244.193 388.081 246.533 388.111C253.3 388.195 258.336 387.63 260.876 386.5C262.285 385.874 263.99 385.355 264.665 385.348C266.155 385.33 277.45 381.108 278.748 380.083C279.257 379.68 280.822 379.175 282.227 378.96C283.631 378.744 287.042 377.497 289.806 376.188C302.758 370.054 304.658 369.323 306.467 369.777L308.269 370.229V368.816C308.269 368.039 308.812 367.211 309.475 366.976C310.138 366.74 311.145 366.174 311.714 365.718C312.282 365.262 314.859 363.764 317.441 362.389C320.022 361.014 323.465 358.799 325.092 357.466C326.718 356.134 328.283 355.044 328.57 355.044C329.241 355.044 335.999 349.485 336.726 348.335C337.029 347.856 337.736 347.464 338.298 347.464C338.859 347.464 339.499 346.994 339.72 346.418C339.94 345.844 340.504 345.456 340.972 345.557C341.864 345.751 345.477 341.891 345.477 340.744C345.477 340.378 346.715 339.028 348.229 337.743C349.743 336.458 350.983 335.149 350.985 334.835C350.987 334.521 352.492 332.505 354.33 330.356C357.6 326.532 360.126 322.02 360.985 318.468C361.222 317.491 362.17 315.876 363.093 314.881C364.015 313.886 364.77 312.517 364.77 311.837C364.77 311.157 365.231 308.395 365.794 305.699C368.058 294.841 366.504 271.464 363.075 264.835C362.491 263.705 362.013 262.399 362.013 261.931C362.013 259.791 355.794 248.579 351.745 243.42C344.403 234.065 336.148 225.349 329.629 220.067C327.166 218.071 324.53 215.934 323.772 215.318C321.4 213.391 313.29 207.324 310.677 205.523C309.302 204.576 306.657 202.638 304.798 201.217C302.94 199.796 301.177 198.622 300.882 198.608C300.587 198.594 299.415 197.797 298.278 196.836C293.616 192.898 282.974 184.419 280.953 183.032C271.138 176.304 262.792 164.878 262.792 158.171C262.792 154.725 263.297 154.577 267.658 156.742L270.716 158.261L287.157 158.665L288.821 157.574C289.794 156.936 291.153 156.653 292.099 156.89C292.987 157.114 293.907 156.985 294.142 156.604C294.377 156.224 295.521 155.913 296.684 155.913H298.799L298.347 153.093C297.458 147.53 294.121 143.07 288.782 140.309C285.37 138.545 283.208 136.21 283.729 134.852C284.026 134.079 283.631 133.033 282.621 131.923L281.052 130.198L282.43 130.727C285.783 132.015 288.474 132.41 296.493 132.787L305.043 133.189L306.656 132.132C307.543 131.551 308.269 130.441 308.269 129.665C308.269 127.286 301.742 118.809 299.847 118.727C299.573 118.714 297.713 117.952 295.712 117.033C288.55 113.741 279.422 112.548 271.75 113.901ZM305.685 136.035C304.075 137.165 302.756 138.461 302.756 138.915C302.756 139.369 302.136 140.898 301.378 142.312C298.188 148.264 299.7 152.459 305.644 154.151C308.035 154.831 311.387 155.804 313.092 156.313C330.621 161.541 341.143 162.031 344.663 157.786C346.055 156.108 344.618 154.11 341.677 153.633C335.319 152.601 319.126 143.202 313.092 137.04C309.48 133.351 309.508 133.356 305.685 136.035ZM115.375 269.215C114.469 270.307 115.145 272.147 117.024 273.707C117.613 274.195 118.095 275.151 118.095 275.83V277.065L128.524 279.524L129.153 278.526C129.589 277.835 129.415 277.269 128.59 276.689C127.934 276.228 127.058 275.564 126.643 275.213C126.228 274.861 124.988 274.103 123.887 273.528C122.786 272.953 120.974 271.524 119.861 270.354C117.62 267.997 116.601 267.738 115.375 269.215ZM252.7 302.171C250.227 303.593 244.747 306.53 240.743 308.579C238.659 309.645 236.488 310.88 235.92 311.323C234.483 312.443 224.782 315.769 222.954 315.769C222.127 315.769 221.45 316.089 221.45 316.479C221.45 317.857 223.721 318.035 226.874 316.905C228.628 316.277 231.521 315.763 233.304 315.765C235.086 315.767 237.412 315.42 238.471 314.994C239.531 314.568 241.174 313.91 242.121 313.532C245.443 312.206 248.01 310.727 251.596 308.069L255.213 305.388V303.344C255.213 301.081 254.871 300.921 252.7 302.171ZM203.365 324.663C202.323 325.331 201.61 326.016 201.78 326.186C201.95 326.357 200.141 326.554 197.76 326.624C195.379 326.694 190.821 327.356 187.63 328.093C184.441 328.831 180.9 329.586 179.763 329.772C178.627 329.957 176.154 330.465 174.269 330.901C171.305 331.585 143.528 332.053 140.727 331.466C140.217 331.36 139.8 331.736 139.8 332.303C139.8 334.624 145.364 335.523 160.7 335.678L167.821 335.751L167.539 336.594C167.228 337.529 164.916 338.192 157.723 339.412L152.909 340.23L152.444 342.649L164.037 342.339C177.754 341.972 189.708 340.068 196.185 337.216C198.017 336.41 199.788 335.751 200.121 335.751C202.932 335.751 215.938 328.134 215.938 326.487C215.938 325.045 213.797 324.579 212.511 325.743C211.873 326.321 210.655 326.793 209.805 326.793H208.26L210.528 324.526L209.615 323.948C208.168 323.03 205.421 323.345 203.365 324.663ZM232.096 332.226C231.004 333.243 216.316 340.574 215.37 340.574C214.885 340.574 213.342 341.192 211.94 341.947C205.568 345.381 198.764 348.02 195.542 348.307C193.609 348.479 191.292 349.135 190.393 349.765L188.759 350.91H191.324C196.233 350.91 192.789 354.147 185.476 356.409C184.07 356.844 181.125 358.419 178.93 359.91C175.088 362.52 172.529 363.342 172.529 361.967C172.529 361.606 171.569 361.432 170.396 361.581C168.155 361.864 166.262 363.718 166.794 365.106C167.151 366.035 171.136 366.817 172.184 366.164C173.47 365.363 177.69 364.022 178.957 364.012C183.143 363.977 198.139 357.008 207.449 350.772C209.033 349.711 210.739 348.833 211.239 348.82C211.849 348.806 211.749 348.495 210.935 347.878L209.721 346.957L210.59 346.285C212.031 345.172 217.812 342.579 218.447 342.761C221.591 343.665 234.542 335.37 234.542 332.452C234.542 331.479 233.046 331.342 232.096 332.226Z" fill="#FBFDFD"/>
</svg>
