<svg width="500" height="500" viewBox="0 0 500 500" fill="none" xmlns="http://www.w3.org/2000/svg">
<path fill-rule="evenodd" clip-rule="evenodd" d="M174.725 105.637C170.44 108.396 166.38 109.14 160.745 108.199L158.203 107.775L156.697 108.8C154.829 110.071 155.062 110.079 149.833 108.586C147.446 107.904 144.419 107.253 143.105 107.138L140.717 106.93L135.58 110.287L133.881 109.42C131.632 108.273 130.793 108.32 132.281 109.511C133.422 110.424 133.56 111.943 132.502 111.943C132.28 111.943 132.23 112.156 132.391 112.416C132.577 112.717 133.372 112.795 134.575 112.631C135.945 112.443 226.808 112.3 247.804 112.453C248.853 112.46 258.385 112.461 268.987 112.454C279.589 112.447 311.282 112.472 339.418 112.51L390.573 112.578L390.624 114.273C390.651 115.205 390.631 116.158 390.578 116.391C389.979 119.023 390.581 155.578 391.222 155.578C391.492 155.578 392.076 155.979 392.52 156.469L393.326 157.36L390.067 160.096L390.354 162.709C390.561 164.589 390.501 165.322 390.144 165.322C389.79 165.322 389.729 165.965 389.932 167.546C390.387 171.086 390.941 172.811 392.405 175.242L393.774 177.515L394.925 176.525C395.558 175.98 396.402 175.352 396.8 175.13L397.524 174.725L396.978 174.067C396.678 173.704 396.556 173.208 396.707 172.964C396.858 172.719 396.615 171.996 396.166 171.356C395.716 170.717 395.087 169.458 394.765 168.558L394.182 166.921L398.3 163.348L395.943 161.631L397.08 158.79C398.212 155.962 398.231 155.155 397.167 155.155C396.233 155.155 394.953 151.199 395.416 149.742C395.558 149.295 396.17 148.702 396.777 148.426L397.881 147.923L397.252 147.196C396.906 146.797 395.933 145.22 395.09 143.692L393.558 140.913L394.263 139.905C394.771 139.181 394.826 138.85 394.461 138.728C394.182 138.635 393.766 138.21 393.539 137.783L393.124 137.009L396.153 133.382L395.313 133.072C393.755 132.495 393.931 131.207 396.13 127.071C396.352 126.653 396.428 126.142 396.3 125.934C396.171 125.726 396.341 124.757 396.677 123.781L397.289 122.006L396.579 120.469C396.189 119.624 395.748 118.837 395.599 118.721C395.45 118.604 395.12 117.753 394.866 116.828L394.404 115.148L396.571 112.886L395.261 111.547C392.471 108.693 387.337 106.863 381.963 106.806L378.076 106.765L374.687 108.322C372.823 109.178 370.693 110.188 369.954 110.565L368.611 111.252L366.777 110.06C365.768 109.405 364.528 108.492 364.021 108.031C363.514 107.571 362.884 107.327 362.621 107.49C362.357 107.652 361.151 107.95 359.941 108.15C358.731 108.35 356.721 108.705 355.475 108.938C354.005 109.214 352.459 109.221 351.075 108.958C348.308 108.433 345.786 108.442 345.455 108.977C345.009 109.699 343.601 109.443 343.125 108.553C342.505 107.396 341.956 107.473 338.553 109.202L335.607 110.699L333.906 110.427C332.674 110.23 332.077 109.875 331.743 109.142C331.415 108.423 330.935 108.13 330.086 108.13C329.429 108.13 328.71 107.956 328.488 107.745C327.73 107.018 324.323 107.091 322.578 107.87C321.646 108.286 319.625 108.807 318.088 109.027L315.292 109.427L311.521 108.75C309.447 108.377 307.369 108.011 306.903 107.937C306.437 107.862 304.817 107.603 303.302 107.36C301.788 107.117 298.663 106.792 296.358 106.638L292.167 106.359L292.706 107.762L291.853 107.491C291.275 107.307 290.584 107.571 289.705 108.311C288.238 109.545 287.472 109.646 285.88 108.815C284.646 108.171 280.843 107.457 276.546 107.061L273.726 106.801L271.917 107.675C269.462 108.861 265.473 108.886 261.156 107.74L257.773 106.843L255.526 107.549C254.04 108.017 252.987 108.666 252.416 109.469L251.552 110.683L250.354 109.83C248.85 108.758 248.82 108.761 247.317 110.025L246.071 111.073L244.29 110.378C243.31 109.996 241.958 109.303 241.286 108.837L240.063 107.99L238.109 108.751C234.702 110.078 234.167 110.044 232.172 108.378C230.173 106.707 229.531 106.542 228.74 107.494C228.069 108.303 226.902 108.29 224.504 107.447C221.964 106.555 219.24 106.906 215.685 108.586L212.858 109.921L210.737 109.673C209.571 109.537 206.572 108.685 204.072 107.779L199.527 106.133L196.423 108.242L189.313 107.798L187.315 108.523C186.216 108.922 185.106 109.235 184.849 109.219C184.109 109.171 182.139 107.557 182.139 106.998C182.139 106.719 181.956 106.009 181.732 105.42L181.325 104.35L178.711 105.26L177.267 104L174.725 105.637ZM150.353 119.078C149.478 119.796 147.823 125.638 147.823 128.011C147.823 133.036 142.686 149.089 140.853 149.793C139.664 150.249 138.091 148.963 138.677 148.015C138.774 147.858 138.974 146.588 139.123 145.193C139.271 143.798 139.57 141.418 139.787 139.903C140.988 131.516 139.052 130.392 135.768 137.572C134.256 140.876 132.588 141.16 133.272 137.997C133.424 137.298 133.525 136.44 133.497 136.09C133.47 135.741 133.427 133.311 133.401 130.689L133.355 125.923H132.737C132.397 125.923 131.676 125.633 131.134 125.278C128.423 123.502 127.082 128.583 128.279 136.09C128.896 139.963 127.589 143.026 126.154 141.068C125.102 139.635 123.572 139.534 122.938 140.857C122.075 142.658 122.038 143.22 122.64 145.478C122.971 146.722 123.244 148.449 123.247 149.315L123.252 150.889L121.481 151.836L120.245 151.324C117.708 150.274 112.661 143.808 112.661 141.609C112.661 139.688 110.123 138.976 109.059 140.599L108.326 141.717L109.073 144.305C109.483 145.729 111.1 149.562 112.667 152.825C116.115 160.007 116.247 160.395 115.453 161.054L114.838 161.564L111.534 159.63C109.684 158.548 107.693 157.697 107.011 157.697H105.792L106.097 158.438C106.265 158.845 106.505 159.54 106.631 159.981L106.86 160.783L100 160.185L100.128 161.89L101.344 160.881L100.701 162.909L101.424 162.631C101.926 162.438 102.214 162.605 102.363 163.174C102.696 164.447 105.047 165.322 108.138 165.322H110.901L115.074 168.65C117.369 170.48 120.802 172.881 122.702 173.985C126.519 176.203 126.632 176.359 126.922 179.797L127.125 182.199L125.565 183.925C124.699 184.884 124.108 185.917 124.235 186.248C124.361 186.577 124.337 186.972 124.182 187.128C123.811 187.498 123.689 189.989 124.016 190.522C124.156 190.751 124.295 191.272 124.325 191.681C124.356 192.089 124.698 192.775 125.087 193.204C126.109 194.334 125.956 196.092 124.691 197.752L123.587 199.198L124.055 200.54C124.312 201.278 124.523 203.03 124.523 204.433C124.523 206.262 124.731 207.215 125.259 207.799L125.996 208.612L125.941 211.731C125.889 214.672 124.999 218.747 124.006 220.589C123.686 221.184 123.695 221.462 124.042 221.578C124.306 221.666 124.523 222.014 124.523 222.352C124.523 222.689 124.807 223.074 125.155 223.208C125.596 223.377 125.706 223.776 125.517 224.528C125.328 225.282 125.393 225.516 125.732 225.307C125.999 225.142 126.218 225.209 126.218 225.455C126.218 225.702 126.006 225.904 125.748 225.904C125.166 225.904 125.625 227.962 126.408 228.869C128.211 230.956 128.195 236.183 126.378 238.859C125.824 239.677 125.37 240.537 125.37 240.771C125.37 241.006 125.047 241.807 124.652 242.553C123.654 244.435 122.833 250.361 123.638 249.863C123.775 249.778 123.927 250.358 123.976 251.151C124.134 253.734 124.225 254.034 125.441 255.951C127.409 259.054 126.936 263.397 124.241 266.961C122.589 269.147 122.551 269.359 123.676 270.062C124.142 270.353 124.523 270.926 124.523 271.336C124.523 271.746 124.794 272.081 125.125 272.081C125.809 272.081 126.494 276.851 126.06 278.583C125.877 279.312 126.171 280.1 127.109 281.395L128.412 283.194L128.151 284.585C128.007 285.35 127.513 286.454 127.054 287.039C126.594 287.623 126.218 288.273 126.218 288.482C126.218 288.69 125.568 289.49 124.775 290.259L123.333 291.657L123.995 293.625C124.36 294.708 124.8 295.69 124.974 295.806C125.148 295.923 125.82 298.116 126.467 300.678C127.114 303.241 127.891 305.547 128.195 305.803C128.498 306.059 128.627 306.389 128.48 306.535C128.334 306.681 128.442 307.074 128.72 307.409L129.225 308.017L128.569 310.552C127.821 313.436 127.74 314.945 128.299 315.527C129.336 316.604 128.953 319.54 127.496 321.691C125.885 324.067 125.912 324.59 127.713 325.885C128.523 326.467 129.295 327.35 129.429 327.846C129.68 328.776 128.132 334.68 127.449 335.396C127.238 335.617 127.065 336.115 127.065 336.504C127.065 336.892 126.67 337.711 126.188 338.323C125.706 338.936 125.411 339.772 125.532 340.181C126.2 342.436 126.449 349.901 125.98 353.591L125.662 356.091L126.445 356.663C126.875 356.977 127.068 357.235 126.875 357.235C126.681 357.235 127.169 357.854 127.959 358.612C128.749 359.369 129.447 360.37 129.511 360.836C129.575 361.302 129.738 362.732 129.872 364.013L130.116 366.343L129.191 368.671C128.683 369.951 127.599 371.927 126.783 373.063L125.3 375.127L127.801 377.782L127.664 380.624C127.589 382.188 127.218 384.066 126.839 384.799L126.151 386.13L126.68 387.408C127.357 389.041 129.297 389.92 130.953 389.343C131.609 389.113 133.147 389.038 134.371 389.174C135.595 389.309 136.883 389.449 137.232 389.483C137.582 389.518 138.75 389.202 139.828 388.782L141.788 388.017L143.878 389.662L147.415 389.579C149.9 389.521 151.206 389.676 151.811 390.1C152.285 390.432 153.013 390.703 153.429 390.703C153.846 390.703 154.506 391.076 154.897 391.532L155.607 392.362L158.153 392.138C159.554 392.015 161.031 391.737 161.436 391.521C162.419 390.994 163.784 391.023 164.847 391.592C165.325 391.848 166.695 392.12 167.891 392.198C169.086 392.275 171.018 392.523 172.183 392.75L174.302 393.162L176.371 391.901C178.987 390.307 180.144 390.583 184.456 393.83C184.758 394.057 185.522 393.943 186.406 393.539C189.879 391.949 191.174 391.569 192.222 391.832L193.32 392.108L192.413 390.954C191.785 390.156 191.558 389.383 191.678 388.45C191.773 387.707 191.699 386.855 191.514 386.555L191.177 386.01L174.194 385.899L171.943 387.67L170.609 387.288C168.691 386.738 168.346 386.262 168.933 384.975C169.206 384.375 169.429 383.451 169.429 382.919C169.429 381.567 171.122 380.112 172.694 380.112H173.998L174.271 381.199C174.772 383.195 175.845 382.255 176.721 379.053C177.443 376.412 179.328 371.733 182.402 364.944C183.525 362.463 187.755 355.623 190.14 352.432C191.945 350.015 201.022 343.251 205.863 340.714C207.899 339.647 211.606 336.551 214.548 333.462C221.956 325.683 223.146 324.716 223.874 325.894C224.304 326.59 224.211 335.592 223.742 338.594C223.506 340.109 223.306 341.634 223.297 341.983C223.288 342.333 223.174 343.667 223.044 344.949C222.041 354.85 222.396 357.002 225.521 359.988C231.153 365.37 234.376 369.995 238.801 379.046C240.056 381.613 241.347 384.183 241.669 384.758C241.991 385.332 242.168 385.889 242.062 385.995C241.676 386.381 201.411 385.988 201.012 385.594C200.192 384.782 196.543 385.234 196.543 386.147C196.543 386.388 196.251 386.799 195.894 387.06L195.245 387.534L196.196 390.261L204.492 390.067L205.284 390.775C205.796 391.234 206.808 391.482 208.156 391.482L210.238 391.479L211.823 390.205C213.561 388.808 214.629 388.766 215.35 390.066C216.687 392.475 217.415 393.266 218.099 393.049C218.494 392.924 219.953 392.802 221.342 392.777C223.91 392.733 226.521 391.859 228.676 390.325C229.336 389.855 230.941 389.37 232.364 389.21L234.883 388.926L237.275 390.813L238.197 390.368C241.686 388.684 244.954 389.454 249.235 392.97C252.517 395.666 252.936 395.788 253.894 394.326L254.574 393.288L257.015 394.362C258.357 394.953 259.756 395.706 260.124 396.035C260.492 396.365 261.034 396.634 261.329 396.634H261.865L261.579 394.562C261.279 392.377 261.764 391.502 262.8 392.361C263.172 392.67 263.757 392.689 264.582 392.421C265.807 392.022 271.645 391.074 272.262 391.174C273.123 391.314 273.647 391.072 273.647 390.536C273.647 389.137 275.818 389.12 279.948 390.489C282.096 391.202 283.298 391.403 283.798 391.135C284.656 390.676 286.291 391.007 287.251 391.835C287.666 392.192 289.316 392.5 291.451 392.618L294.968 392.813L296.528 391.122C298.48 389.007 298.414 389.002 301.273 391.55C302.58 392.715 304.037 393.668 304.51 393.668C304.983 393.668 305.481 393.847 305.615 394.065C305.755 394.291 308.223 394.397 311.361 394.311L316.861 394.161L318.551 393.385C319.79 392.817 320.213 392.383 320.138 391.762C320.063 391.138 320.316 390.884 321.095 390.798C322.126 390.684 322.933 390.875 329.561 392.804C331.304 393.311 333.782 393.816 335.068 393.926L337.406 394.127L340.235 392.364L339.62 391.425C339.268 390.887 339.088 389.921 339.199 389.162C339.489 387.193 339.256 387.152 327.072 387.035C320.914 386.977 315.643 386.839 315.359 386.73L314.843 386.533L315.254 384.487C315.48 383.362 315.746 382.013 315.846 381.489C316.079 380.266 317.701 380.207 318.765 381.383C320.12 382.88 320.586 382.433 320.865 379.37C321.562 371.704 325.471 363.492 333.589 352.635C339.336 344.949 343.636 337.641 344.209 334.586L344.47 333.194L342.845 330.492C340.754 327.019 339.467 323.838 338.485 319.714L337.698 316.412L338.342 315.429C339.1 314.273 339.051 314.279 341.461 315.033C342.493 315.356 344.576 315.95 346.091 316.353C354.642 318.626 357.694 320.289 360.98 324.466C365.283 329.934 367.22 334.238 369.626 343.678C370.249 346.125 370.865 348.412 370.996 348.762C371.126 349.111 371.283 349.827 371.346 350.353C372.146 357.086 373.163 359.79 376.404 363.801C377.157 364.733 378.68 366.83 379.788 368.461C383.218 373.508 383.485 373.834 387.155 377.436L390.726 380.942L390.212 381.903C389.9 382.486 389.775 383.814 389.895 385.267C390.129 388.096 389.919 388.259 387.002 387.515L384.913 386.982L383.189 387.59C382.099 387.976 380.853 388.096 379.8 387.918C378.884 387.763 376.349 387.595 374.165 387.545L370.196 387.452L370.323 388.51C370.393 389.092 370.751 389.611 371.118 389.663C371.485 389.716 372.323 390.257 372.98 390.866C374.359 392.144 374.413 392.154 375.509 391.325C376.474 390.595 378.765 390.502 379.429 391.166C379.764 391.501 380.131 391.501 380.757 391.166C381.966 390.519 383.617 390.589 385.091 391.351L386.345 392L387.225 391.529C387.709 391.269 389.328 391.121 390.823 391.198L393.541 391.338L393.547 387.526C393.55 385.429 393.713 383.46 393.909 383.151L394.265 382.588L396.074 383.076C398.149 383.634 399.141 383.152 398.214 382.036L397.672 381.383L398.199 380.747C398.49 380.398 399.013 380.112 399.363 380.112H400L399.746 378.843C399.607 378.146 399.093 376.764 398.604 375.772C398.116 374.78 397.634 373.635 397.534 373.227C397.434 372.82 397.237 372.057 397.095 371.533C396.954 371.009 396.744 369.424 396.627 368.013L396.416 365.446L397.291 363.814C397.772 362.917 398.061 362.014 397.934 361.808C397.807 361.603 397.877 361.204 398.09 360.923C398.77 360.027 398.207 356.421 397.313 355.943C395.023 354.717 392.752 357.774 392.997 361.751C393.239 365.689 391.608 365.928 388.269 362.443C386.429 360.522 386.201 359.002 387.848 359.634C388.754 359.982 389.08 358.583 388.295 357.715C387.917 357.298 387.608 356.548 387.608 356.05C387.608 355.437 386.819 354.56 385.175 353.346C381.487 350.621 380.945 349.845 379.498 345.207C378.762 342.852 377.542 339.018 376.785 336.688C374.69 330.235 372.408 318.577 371.526 309.829C370.703 301.662 369.977 300.581 364.93 300.015C359.677 299.425 355.886 296.838 352.157 291.296L350.69 289.117L350.695 284.579L352.614 279.81C356.096 271.157 356.557 267.725 355.172 260.786C354.807 258.96 354.434 256.586 354.343 255.511L354.177 253.556L356.434 253.323C358.597 253.1 362.195 251.644 362.184 250.997C362.178 250.597 359.447 248.789 357.495 247.89C356.114 247.254 351.86 246.236 346.938 245.362C344.789 244.981 341.843 244.221 331.475 241.373L324.273 239.394L318.077 239.647C314.542 239.791 309.311 240.35 305.896 240.949C299.395 242.089 298.707 242.24 292.711 243.837C290.498 244.427 286.971 245.123 284.874 245.383C282.776 245.644 279.25 246.153 277.036 246.515C270.406 247.599 264.51 246.656 254.371 242.893C251.342 241.768 247.434 240.407 245.686 239.869L242.509 238.889L235.519 238.857C231.674 238.84 226.813 238.99 224.716 239.19L220.903 239.555L217.292 236.362C215.306 234.607 213.224 232.345 212.665 231.338C212.106 230.33 210.474 227.694 209.039 225.48C207.604 223.267 205.904 220.477 205.259 219.28L204.087 217.104L204.566 216.21C204.829 215.718 205.753 214.95 206.619 214.504C209.332 213.105 211.78 210.657 213.12 208.003L214.408 205.451L213.856 205.11C212.577 204.319 207.968 204.198 205.24 204.883C202.185 205.651 200.78 205.75 200.78 205.196C200.78 203.719 213.694 200.968 226.834 199.647C234.32 198.894 249.259 196.316 251.406 195.407C251.872 195.21 253.195 194.83 254.347 194.562C255.499 194.295 257.252 193.707 258.242 193.256C259.233 192.805 260.239 192.436 260.478 192.436C260.717 192.436 261.919 191.989 263.149 191.443C264.379 190.897 266.053 190.195 266.869 189.884C267.684 189.574 270.258 188.146 272.588 186.712C274.918 185.278 277.396 183.896 278.095 183.641C280.349 182.818 289.868 180.189 292.923 179.546C301.004 177.844 307.929 174.217 309.69 170.765L310.563 169.055L309.802 168.214C309.255 167.61 308.71 167.439 307.866 167.608L306.691 167.843V166.993C306.691 164.984 304.902 165.545 301.184 168.718C299.903 169.812 298.23 171.064 297.467 171.501L296.08 172.295L295.349 171.834C294.947 171.581 294.596 170.962 294.569 170.459C294.518 169.486 297.626 164.125 299.268 162.357C301.855 159.569 302.85 155.938 301.364 154.704C300.875 154.299 300.77 153.755 300.97 152.684C301.27 151.086 300.807 150.512 299.207 150.501C298.274 150.495 295.677 153.298 295.677 154.313C295.677 156.139 291.284 160.662 289.511 160.662C287.144 160.662 287.076 152.656 289.407 148.453L290.188 147.047L289.646 145.911C289.298 145.182 288.706 144.729 287.993 144.646C286.623 144.487 285.976 145.267 282.272 151.554C280.762 154.117 278.964 156.881 278.275 157.697C277.587 158.512 276.553 159.886 275.977 160.75C274.699 162.668 273.405 163.459 272.617 162.804L272.064 162.346L272.432 160.339C272.635 159.235 273.075 157.379 273.409 156.214C274.452 152.578 275 147.686 274.654 145.094C274.475 143.754 274.349 142.562 274.374 142.445C274.825 140.357 274.851 129.108 274.409 127.406L273.859 125.287L271.431 125.01L271.693 129.385C271.837 131.792 272.029 134.763 272.12 135.988C272.211 137.213 272.137 138.306 271.957 138.418C271.657 138.603 270.872 143.115 271.022 143.793C271.102 144.158 268.187 152.998 267.657 153.99C266.2 156.725 263.579 151.785 262.805 144.841C262.653 143.478 262.171 141.384 261.734 140.186C261.296 138.989 260.938 137.598 260.938 137.095C260.938 136.593 260.688 136.085 260.382 135.968C259.889 135.779 258.566 127.423 258.826 126.135C259.039 125.077 258.198 123.819 256.999 123.401L255.687 122.943L255.082 123.548C254.247 124.383 254.317 126.438 255.419 133.337C257.032 143.434 257.041 143.299 254.845 142.464C253.374 141.905 253.236 142.314 253.728 145.782C254.241 149.397 253.799 151.048 252.376 150.841C250.801 150.614 248.652 144.884 248.652 140.914C248.652 137.539 246.445 135.575 245.222 137.86C244.706 138.826 244.905 143.473 245.655 147.953C247.867 161.154 247.856 161.933 245.459 161.331C244.375 161.059 241.765 157.795 240.351 154.943C239.889 154.011 238.994 152.442 238.362 151.456C237.73 150.47 237.213 149.475 237.213 149.243C237.213 149.012 236.582 147.525 235.81 145.939C234.402 143.046 232.081 136.293 231.887 134.524C231.83 134.004 231.465 132.618 231.075 131.444L230.366 129.311L229.276 129.038C226.874 128.435 226.235 130.849 227.466 135.879C227.781 137.165 227.414 138.209 226.647 138.209C225.48 138.209 225.086 139.086 225.964 139.728C226.373 140.026 226.595 140.451 226.459 140.671C226.323 140.891 226.505 141.658 226.863 142.376C227.221 143.093 227.889 145.07 228.348 146.769C228.808 148.469 229.364 150.24 229.583 150.706C229.802 151.172 230.362 152.697 230.825 154.096C231.29 155.494 232.059 157.729 232.535 159.063C234.304 164.019 233.218 166.51 230.631 163.429C229.057 161.553 228.267 161.72 228.613 163.856L228.854 165.339L228.221 165.096C227.645 164.876 227.144 164.103 226.444 162.357C225.273 159.438 223.542 158.239 222.52 159.638C221.773 160.659 221.786 165.726 222.538 166.816C223.284 167.898 224.6 173.87 224.426 175.381L224.292 176.549L223.233 176.666C221.441 176.863 219.292 174.378 216.354 168.711C212.935 162.116 212.303 161.376 208.677 159.716C207.014 158.955 204.637 158.708 204.538 159.285C204.508 159.46 204.429 160.406 204.364 161.387L204.245 163.171L207.316 166.683C210.272 170.062 213.913 175.328 213.913 176.225C213.913 176.462 213.624 176.897 213.271 177.189L212.629 177.722L210.199 176.023C208.074 174.536 204.232 172.752 201.335 171.907C198.171 170.984 199.595 177.072 202.879 178.508C211.92 182.462 220.362 187.704 222.197 190.505L222.869 191.532L222.39 192.428C221.805 193.52 220.355 194.142 217.367 194.582L215.103 194.915L212.707 193.388C211.39 192.547 209.305 190.847 208.074 189.61C205.86 187.385 204.34 186.609 203.115 187.079L202.483 187.322L202.914 188.455C203.151 189.078 204.386 190.658 205.658 191.965C206.93 193.272 207.974 194.733 207.977 195.211C207.984 196.409 204.84 197.877 201.262 198.348C197.053 198.901 193.679 200.249 191.247 202.351L189.977 203.45L187.223 203.455C185.708 203.458 183.77 203.576 182.917 203.717L181.365 203.973L180.675 202.638C180.295 201.904 177.722 198.991 174.958 196.165C171.596 192.728 169.849 190.616 169.684 189.787C168.938 186.059 172.518 180.394 180.88 172.068C188.845 164.139 190.512 161.43 188.534 159.639L187.688 158.873L186.538 159.777C185.906 160.275 184.082 162.346 182.485 164.379C178.656 169.255 174.912 173.556 173.951 174.185C172.01 175.454 171.741 172.657 173.445 168.923C179.014 156.726 181.331 152.403 185.479 146.47C192.079 137.03 195.05 132.144 194.718 131.278C193.851 129.018 191.441 130.153 188.998 133.972C184.556 140.916 181.046 143.742 183.041 138.766C184.174 135.94 185.797 128.479 185.371 128.053C184.147 126.829 181.584 129.61 181.576 132.172C181.575 132.463 181.441 132.701 181.279 132.701C181.117 132.701 180.641 133.798 180.222 135.137C179.803 136.477 179.322 137.859 179.153 138.209C177.314 142.011 174.387 148.291 173.425 150.495C172.765 152.009 171.82 153.915 171.325 154.731C170.831 155.547 169.353 158.362 168.041 160.987C165.771 165.527 162.183 170.83 161.381 170.83C160.023 170.83 160.182 167.823 161.717 164.475C162.411 162.96 163.121 161.245 163.294 160.662C163.467 160.08 163.938 158.84 164.341 157.908C166.824 152.161 168.464 146.841 169.007 142.772C169.604 138.307 169.819 137.198 170.383 135.667C171.033 133.906 171.664 130.811 171.664 129.382C171.664 125.087 168.322 124.602 167.538 128.784C167.44 129.309 167.263 129.895 167.146 130.085C167.028 130.275 166.843 130.92 166.735 131.518C165.814 136.593 162.829 143.013 160.46 145.011C159.667 145.681 159.132 146.57 159.059 147.341C158.995 148.027 158.741 149.089 158.497 149.701C158.252 150.312 157.847 151.552 157.597 152.454C156.968 154.727 155.35 157.451 154.538 157.608C153.503 157.807 153.256 156.526 154.041 155.022C154.428 154.279 154.878 153.005 155.04 152.189C155.203 151.374 155.409 150.42 155.499 150.071C155.615 149.616 155.3 149.426 154.39 149.401C152.019 149.335 151.636 149.224 151.636 148.603C151.636 148.261 152.186 147.356 152.857 146.591C154.878 144.288 155.231 143.634 161.167 131.219C166.374 120.33 166.627 119.52 165.11 118.569C164.628 118.267 163.997 118.253 163.203 118.526L162.016 118.934L159.164 124.549C155.309 132.141 153.191 134.363 151.618 132.467L151.072 131.809L151.565 129.396C151.837 128.068 152.43 125.368 152.883 123.396C153.429 121.018 153.568 119.642 153.293 119.311C152.581 118.453 151.244 118.347 150.353 119.078ZM130.415 179.327L129.857 179.671L130.368 180.652C131.179 182.21 132.11 185.687 131.879 186.291C131.762 186.594 131.872 186.969 132.121 187.123C132.42 187.308 132.437 187.659 132.171 188.156C131.719 189.003 132.036 190.741 132.644 190.741C133.034 190.741 132.889 195.364 132.476 196.09C131.751 197.365 131.8 198.711 132.603 199.573C133.076 200.081 133.355 200.671 133.222 200.885C133.09 201.099 133.176 201.393 133.413 201.54C134.112 201.972 133.945 206.652 133.208 207.263C132.246 208.062 132.446 209.644 133.626 210.573L134.68 211.402L134.187 212.818C133.916 213.596 133.442 214.714 133.135 215.303C132.411 216.691 132.428 217.46 133.208 218.573C133.832 219.465 133.829 219.763 133.173 221.456C132.339 223.606 132.353 225.034 133.236 227.84L133.944 230.09L133.469 231.449C133.209 232.197 132.996 234.34 132.996 236.21C132.996 238.082 132.766 240.248 132.485 241.026L131.974 242.439L133.328 244.756L132.991 246.874C132.685 248.802 133.055 252.509 133.651 253.472C134.174 254.319 133.869 258.05 133.031 261.058C131.658 265.989 132.193 269.137 134.983 272.533L135.528 273.197L134.05 276.753C132.365 280.809 132.318 281.185 133.256 283.066C134.198 284.955 133.472 288.602 131.469 292.048C131.383 292.196 131.794 293.025 132.383 293.892C133.027 294.842 133.312 295.661 133.1 295.954C131.908 297.605 131.5 301.313 132.511 301.313C132.679 301.313 133.476 301.885 134.283 302.584L135.75 303.855L132.87 306.353L132.882 309.658C132.894 312.772 133.087 315.818 133.665 321.947C133.822 323.615 133.716 325.118 133.375 326.062L132.836 327.549L133.612 328.406C134.51 329.397 134.578 330.828 133.854 333.51C133.239 335.794 133.523 340.176 134.456 342.789L135.122 344.654L134.271 346.097C133.256 347.816 133.193 349.387 134.055 351.45C134.815 353.27 134.876 355.185 134.196 355.865L133.702 356.359L134.701 360.836L133.582 364.649L134.31 366.656C135.228 369.188 135.015 369.965 132.954 371.621L131.297 372.953L131.324 378.545C131.339 381.62 131.455 384.56 131.581 385.078L131.811 386.02L149.314 386.028L150.42 385.294C157.573 380.552 162.187 376.482 164.652 372.742C167.496 368.425 171.781 362.999 175.301 359.259C178.287 356.085 181.669 350.841 182.966 347.374C185.031 341.852 185.441 341.26 191.08 335.648C195.689 331.061 199.932 326.074 199.932 325.244C199.932 325.104 201.273 322.961 202.911 320.48C204.55 317.999 205.998 315.538 206.131 315.011L206.371 314.052L203.293 310.66C201.601 308.795 200.087 307.215 199.929 307.15C199.136 306.825 195.689 301.493 195.451 300.227C195.301 299.426 195.045 298.771 194.882 298.771C194.635 298.771 193.922 295.578 192.878 289.789C192.605 288.272 191.164 286.486 190.215 286.486C189.798 286.486 188.925 285.72 188.276 284.783C187.628 283.847 186.663 282.972 186.132 282.839C185.601 282.705 184.664 281.837 184.05 280.909L182.933 279.221L180.861 280.579L180.48 279.614C179.839 277.985 178.323 272.336 178.325 271.577C178.327 270.414 177.401 270.178 176.62 271.143L175.899 272.034L175.452 271.054C175.206 270.515 174.883 269.238 174.732 268.218C174.582 267.197 174.391 265.981 174.307 265.515C174.223 265.049 174.14 264.414 174.122 264.105C174.099 263.699 173.725 263.621 172.787 263.827L171.485 264.114L171.691 261.637C171.804 260.275 172.027 258.834 172.185 258.435C172.376 257.955 172.127 257.383 171.446 256.74L170.417 255.771L169.714 252.17C169.327 250.189 168.899 247.425 168.763 246.027L168.517 243.485L167.229 242.354C162.541 238.235 156.358 237.016 151.914 239.334L149.863 240.404L147.376 240.224C144.638 240.026 143.163 239.095 143.163 237.566V236.65L138.715 235.86L137.804 233.953C136.041 230.264 136.299 227.45 138.609 225.19C141.887 221.984 142.291 221.68 146.024 219.607C148.062 218.475 150.435 217.071 151.297 216.485C152.16 215.9 154.521 214.968 156.546 214.414L160.227 213.406L161.169 211.917C162.459 209.88 162.982 209.532 165.243 209.206C166.593 209.01 167.728 208.471 168.903 207.465C169.84 206.663 171.104 205.818 171.712 205.587C174.896 204.376 169.84 199.49 160.533 194.782C155.654 192.314 153.278 191.026 147.112 187.51C144.508 186.025 142.273 184.81 142.147 184.81C142.022 184.81 140.305 183.857 138.332 182.692C136.36 181.527 134.471 180.574 134.135 180.574C133.798 180.574 133.303 180.308 133.034 179.984C132.395 179.214 131.116 178.893 130.415 179.327ZM392.189 180.529C390.658 182.131 390.334 183.963 391.581 183.963C391.847 183.963 392.851 184.726 393.812 185.658L395.559 187.354L396.168 186.4C396.85 185.332 398.199 182.037 398.199 181.441C398.199 181.1 396.821 180.44 395.989 180.382C395.822 180.371 395.295 180.028 394.819 179.62C393.746 178.702 394.027 178.605 392.189 180.529ZM394.8 189.163C394.456 189.682 394.172 190.487 394.168 190.953C394.164 191.493 393.589 192.107 392.584 192.648C391.436 193.265 391.072 193.696 391.243 194.236C391.372 194.644 391.295 194.978 391.071 194.978C390.847 194.978 390.691 195.454 390.725 196.036C390.758 196.619 390.952 197.095 391.155 197.095C391.358 197.096 391.316 197.347 391.061 197.655C390.724 198.06 390.729 198.923 391.077 200.795L391.557 203.375L394.78 204.641L394.605 206.028C394.481 207.009 393.908 207.864 392.652 208.947L390.874 210.477L390.623 217.744L392.717 219.1C393.868 219.847 394.81 220.548 394.81 220.66C394.81 221.304 393.248 223.783 392.038 225.057L390.629 226.539L390.75 234.023L391.933 234.634C393.548 235.469 393.476 236.841 391.743 238.265L390.362 239.399V242.078C390.362 243.551 390.171 244.896 389.938 245.068C389.669 245.265 389.693 245.381 390.004 245.385C390.299 245.389 390.401 245.772 390.26 246.345C390.131 246.869 390.177 247.159 390.362 246.988C390.769 246.614 393.087 249.574 393.104 250.489C393.11 250.845 392.552 251.35 391.863 251.61L390.61 252.083L390.588 260.705C390.576 265.448 390.549 269.777 390.528 270.326C390.503 270.985 391.008 271.751 392.015 272.581C393.886 274.123 393.951 275.233 392.286 277.181C390.715 279.019 390.715 279.164 392.282 280.781C393.808 282.355 393.65 283.121 391.547 284.362L390.053 285.243L391.014 286.076C391.542 286.534 392.129 286.909 392.318 286.909C392.507 286.909 392.873 287.303 393.131 287.785L393.6 288.661L392.924 289.691C392.553 290.258 391.967 290.722 391.623 290.722C390.949 290.722 390.91 290.905 390.91 294.111C390.91 295.276 390.93 296.829 390.954 297.562L390.998 298.894L393.834 298.629C397.194 298.315 397.783 297.838 397.953 295.293C398.024 294.239 398.374 292.791 398.731 292.075C399.088 291.359 399.277 290.67 399.15 290.543C398.791 290.184 397.444 285.977 397.287 284.727C397.203 284.058 397.467 283.248 397.938 282.728L398.729 281.853L397.984 279.615C397.573 278.384 397.175 276.996 397.098 276.53C397.021 276.064 396.844 275.061 396.705 274.302L396.453 272.922L397.22 272.683C399.614 271.937 399.955 270.488 398.167 268.659C397.033 267.499 396.903 266.318 397.776 265.091C398.692 263.803 398.204 259.425 396.979 257.95C396.739 257.661 396.417 256.643 396.265 255.689L395.988 253.955L397.517 251.346C399.518 247.931 399.468 247.34 396.841 243.409C396.052 242.229 395.658 241.089 395.658 239.992V238.346L397.308 237.418C399.4 236.243 399.565 235.768 398.594 233.715C398.16 232.797 397.798 231.745 397.79 231.376C397.782 231.007 397.64 230.57 397.474 230.403C397.308 230.237 396.846 229.243 396.448 228.195L395.725 226.289L397.174 224.839C398.641 223.372 398.925 222.588 398.253 221.858C397.718 221.277 396.081 215.948 396.081 214.789C396.081 214.248 396.384 213.373 396.756 212.844C397.748 211.427 397.816 205.274 396.878 201.655C396.124 198.746 396.241 197.319 397.417 195.083L397.919 194.13L397.435 193.177C397.169 192.653 396.607 191.323 396.188 190.222L395.425 188.22L394.8 189.163ZM391.305 307.138C390.66 310.167 390.54 321.007 391.14 321.966C391.322 322.258 391.317 322.496 391.128 322.496C390.94 322.496 390.79 325.594 390.794 329.38L390.804 336.264L391.491 337.796C391.958 338.839 392.552 339.421 393.353 339.622C394.678 339.955 396.55 341.136 395.752 341.136C395.467 341.136 395.234 341.502 395.234 341.949C395.234 343.169 394.784 344.102 394.195 344.102C393.907 344.102 393.308 344.503 392.864 344.995L392.057 345.887L394.99 348.338L394.868 350.033C394.801 350.965 394.912 351.727 395.114 351.727C395.619 351.727 398.86 348.259 398.735 347.852C398.68 347.672 398.552 345.563 398.452 343.165L398.269 338.806L396.093 332.875L396.819 331.498C397.218 330.741 397.776 330.121 398.059 330.121C398.342 330.121 398.702 329.912 398.86 329.657C399.222 329.072 398.225 327.156 397.559 327.156C396.741 327.156 394.893 325.336 394.412 324.057C393.677 322.103 393.903 321.133 395.662 318.701L397.334 316.389L396.747 315.492C396.004 314.359 395.794 313.118 396.227 312.427C397.226 310.833 397.355 305.234 396.406 304.632C396.111 304.445 394.979 304.289 393.891 304.285L391.913 304.279L391.305 307.138ZM295.138 310.833C283.624 316.656 274.477 318.518 255.104 318.981L244.399 319.236L244.221 320.124C244.123 320.613 243.929 322.479 243.79 324.271C243.651 326.063 243.268 328.446 242.938 329.567C242.609 330.687 242.253 332.081 242.146 332.663C241.577 335.768 240.001 340.19 237.904 344.566C236.61 347.268 235.318 350.346 235.035 351.405L234.52 353.333L235.457 355.782C238.582 363.95 245.986 372.885 250.201 373.579C252.351 373.932 259.027 376.817 258.947 377.358C258.882 377.802 258.571 377.989 256.489 378.836C251.549 380.848 251.559 380.765 255.774 384.496L258.025 386.488L271.237 386.466C278.505 386.454 284.79 386.449 285.206 386.455C285.621 386.461 286.355 387.134 286.836 387.949C287.91 389.769 287.911 389.769 290.27 387.968L292.188 386.504L298.586 386.778L300.252 385.669C302 384.506 305.841 380.273 305.849 379.502C305.866 377.77 311.261 368.828 316.854 361.259C319.22 358.057 321.282 354.363 322.292 351.516C323.332 348.586 324.624 343.279 324.924 340.712L325.244 337.959L323.394 334.146C322.376 332.049 320.537 329.06 319.307 327.505C316.582 324.059 308.269 314.345 306.374 312.392C305.617 311.611 304.997 310.705 304.997 310.379C304.997 309.31 303.359 308.092 301.926 308.095C301.077 308.096 298.472 309.147 295.138 310.833ZM257.548 340.879C257.548 341.203 257.834 341.579 258.184 341.713L258.819 341.957V349.144L258.125 349.532C256.357 350.521 257.694 350.714 264.856 350.503L266.445 350.456V348.974C266.445 347.317 265.868 347.042 265.162 348.361L264.696 349.232L261.149 348.974L260.886 345.796H261.675C262.108 345.796 262.691 346.025 262.971 346.305C263.673 347.007 264.362 346.233 264.06 345.081L263.822 344.168L260.875 344.646L261.149 341.772L262.507 341.64C264.097 341.486 265.598 342.175 265.598 343.057C265.598 343.399 265.788 343.678 266.021 343.678C266.254 343.678 266.445 342.915 266.445 341.983V340.289H257.548V340.879ZM268.563 343.093C268.563 343.237 269.135 344.006 269.834 344.802C271.451 346.644 271.433 346.908 269.544 348.842C268.685 349.721 268.091 350.549 268.223 350.681C268.758 351.216 270.765 350.292 271.125 349.343C271.621 348.041 272.712 348.052 273.041 349.363L273.298 350.387L282.408 350.209C287.419 350.111 291.804 349.871 292.154 349.676L292.789 349.32L290.082 348.199L288.749 348.648C286.925 349.263 282.339 349.332 281.274 348.763L280.403 348.296L279.125 349.206C277.493 350.369 276.263 350.076 274.541 348.115C272.895 346.24 272.898 346.169 274.727 344.564L276.23 343.244L275.573 342.992C274.473 342.569 272.887 343.175 272.952 343.992C273.04 345.095 271.763 344.898 271.605 343.784L271.47 342.831H270.016C269.217 342.831 268.563 342.948 268.563 343.093ZM256.383 352.491C254.165 352.619 253.4 353.303 255.006 353.723L255.854 353.944V360.624H255.187C254.78 360.624 254.576 360.912 254.665 361.365L254.808 362.107H264.337L264.582 361.335C264.903 360.324 264.436 358.506 263.855 358.506C263.605 358.506 263.305 358.868 263.19 359.311C262.944 360.251 261.852 360.528 259.349 360.286L257.548 360.111V354.536L258.427 353.6C259.495 352.464 259.242 352.326 256.383 352.491ZM271.635 352.453C270.547 352.659 270.375 353.331 271.317 353.692L271.952 353.936V357.255C271.952 359.081 271.762 360.692 271.529 360.836C271.296 360.98 271.105 361.256 271.105 361.451C271.105 362.073 272.463 362.35 273.065 361.85L273.647 361.367L274.265 361.88C275.961 363.288 278.731 361.177 278.731 358.477C278.731 356.473 277.686 355.54 275.44 355.54H273.698L273.566 353.984C273.428 352.35 273.188 352.159 271.635 352.453ZM297.177 354.665C297.042 354.883 296.307 354.959 295.543 354.835C293.858 354.562 293.013 355.384 293.21 357.103L293.347 358.294L295.375 358.903C297.752 359.617 297.991 360.754 295.807 360.966L294.462 361.097L293.995 360.225C293.329 358.98 292.711 359.148 292.711 360.576V361.799L294.549 362.074C297.694 362.546 299.841 361.115 298.709 359.303C298.439 358.87 298.219 357.561 298.219 356.393C298.219 354.437 297.774 353.699 297.177 354.665ZM283.851 355.085C283.521 355.294 282.616 355.361 281.839 355.235L280.425 355.006V355.671C280.425 356.038 280.616 356.455 280.849 356.599C281.648 357.093 281.332 360.112 280.388 360.991L279.505 361.814L280.282 362.019C282.476 362.593 284.527 361.769 283.242 360.829L282.46 360.257L282.747 358.559C283.077 356.6 283.848 355.783 285.015 356.153C285.815 356.407 286.593 355.495 286.045 354.946C285.675 354.576 284.541 354.648 283.851 355.085ZM266.36 355.625C267.016 356.281 267.022 360.302 266.367 360.956C265.724 361.599 265.893 361.722 267.822 362.02L269.41 362.265V361.47C269.41 361.032 269.261 360.582 269.079 360.469C268.896 360.356 268.753 359.106 268.761 357.691L268.775 355.117L265.852 355.117L266.36 355.625ZM288.036 355.936C288.75 357.27 288.584 360.521 287.78 360.971C286.636 361.611 287.446 362.147 289.29 361.971C290.963 361.811 291.464 361.374 290.593 360.836C290.36 360.692 290.169 359.346 290.169 357.845V355.117H287.598L288.036 355.936ZM346.451 387.843C346.416 388.135 346.364 389.231 346.336 390.279C346.307 391.328 346.123 392.441 345.928 392.752C345.464 393.489 346.024 394.018 347.587 394.318L348.844 394.56L350.903 392.843C353.328 390.821 353.91 390.747 355.494 392.265C356.348 393.083 356.682 393.221 356.682 392.754C356.682 392.397 357.029 391.791 357.453 391.408L358.224 390.71L360.665 391.345C362.008 391.695 363.472 392.177 363.919 392.416L364.731 392.851V387.314H346.514L346.451 387.843Z" fill="#FBFDFD"/>
</svg>
