<svg width="300" height="302" viewBox="0 0 300 302" fill="none" xmlns="http://www.w3.org/2000/svg">
<path fill-rule="evenodd" clip-rule="evenodd" d="M263.541 1.26667C263.372 1.53978 257.434 1.73957 248.253 1.78127C239.997 1.81884 232.417 1.85871 231.409 1.87063C230.401 1.88208 228.029 1.88392 226.139 1.87475C224.249 1.86559 222.29 1.86421 221.786 1.87154C221.282 1.87933 220.045 1.88987 219.036 1.89537C218.028 1.90087 216.276 1.91324 215.141 1.92286C214.007 1.93249 212.564 1.91874 211.934 1.89216C209.662 1.79639 204.3 2.1222 203.88 2.3811C203.644 2.52728 202.334 2.44342 200.969 2.19505L198.487 1.74415L197.421 2.31465L196.355 2.8847L194.663 2.36552C193.685 2.06538 192.767 2.01543 192.486 2.24684C191.519 3.04325 170.256 3.71777 167.084 3.05287C165.619 2.7454 164.987 2.78205 164.736 3.18851C164.498 3.57342 163.206 3.70082 160.554 3.60184C158.444 3.52302 156.304 3.60046 155.8 3.77413C155.296 3.94826 153.769 3.91344 152.407 3.69669C150.657 3.419 149.125 3.4914 147.186 3.94368C145.677 4.29561 144.072 4.46653 143.62 4.32264C143.168 4.17921 141.393 4.08161 139.676 4.1059C137.959 4.13019 136.193 4.13522 135.752 4.11689C134.384 4.06007 133.083 4.08344 126.931 4.27361C123.655 4.37534 120.252 4.45782 119.37 4.45737C112.834 4.45416 111.58 4.37763 111.58 3.98263C111.58 3.73472 111.289 3.77643 110.929 4.0752C110.089 4.77263 105.785 4.81021 104.962 4.12744C104.563 3.79659 104.228 3.76818 104.053 4.05091C103.786 4.48302 98.8817 4.61316 83.857 4.58704C80.0766 4.58063 76.468 4.57558 75.8379 4.57604C75.2078 4.5765 71.7023 4.67044 68.0479 4.785C64.3935 4.8991 58.2073 4.99029 54.3009 4.98708C50.3944 4.98387 46.4765 4.98159 45.5944 4.98159C44.7123 4.98113 40.382 4.95776 35.9715 4.92935C31.5609 4.90048 27.2306 4.92568 26.3485 4.98571C25.4664 5.04528 20.002 5.18091 14.2053 5.28722C8.40862 5.39353 2.84106 5.64052 1.83294 5.83619L0 6.19178L0.0714874 8.01235C0.110896 9.01405 0.263026 15.1947 0.409661 21.7475C0.556296 28.3003 0.78496 34.3833 0.917848 35.2654C1.05074 36.1475 1.21982 42.341 1.2936 49.0285C1.36783 55.7165 1.58091 61.4352 1.76741 61.7368C1.95391 62.0387 1.96995 63.0134 1.80315 63.9024C1.63636 64.7913 1.69867 65.7743 1.94108 66.0868C2.5377 66.8543 2.37137 70.0762 1.66889 71.3643L1.09931 72.4086L2.03915 73.6028C3.20581 75.0861 3.20948 75.6149 2.06755 77.978C1.44802 79.2601 1.30185 80.0378 1.60978 80.4089C1.85906 80.7091 2.05152 81.4491 2.03731 82.0531C2.02311 82.657 2.24627 84.2755 2.53266 85.6498L3.05368 88.149L2.26505 88.7259L1.47597 89.3028L2.2898 90.5446C3.23376 91.9853 3.36345 94.9652 2.52671 95.9738L1.94979 96.6689L2.54825 97.3897C3.18199 98.1536 3.19253 102.018 2.56291 102.84C2.1395 103.393 2.24122 106.635 2.71733 107.739C2.89742 108.158 2.8351 109.258 2.5794 110.184C2.27193 111.298 2.26735 112.27 2.5652 113.055C2.81311 113.707 2.93545 114.462 2.83693 114.733C2.73841 115.005 2.7934 116.425 2.95974 117.889C3.12608 119.353 3.09492 120.654 2.89101 120.78C2.68709 120.906 2.52029 121.526 2.52029 122.158C2.52029 122.79 2.29438 123.729 2.01853 124.244L1.51722 125.181L3.11004 126.849C3.98619 127.766 4.94115 128.98 5.23167 129.547L5.76002 130.578L5.24679 131.538C4.90861 132.169 4.43296 132.419 3.85605 132.268C2.66876 131.958 2.50517 132.375 2.98311 134.494L3.39002 136.297L2.45339 137.294L1.51722 138.29L2.70634 139.069C3.88355 139.841 4.28862 141.279 3.47113 141.784C3.23789 141.928 3.03901 143.573 3.02939 145.441L3.01152 148.835L4.58418 150.363C5.44933 151.203 6.21504 152.405 6.28607 153.033L6.41529 154.175L5.2697 154.329C3.4166 154.58 3.16732 155.208 4.50399 156.26C6.39834 157.75 5.74077 161.28 3.56873 161.28C2.96478 161.28 2.4566 163.101 2.87451 163.766C3.04543 164.037 3.12241 164.637 3.04635 165.1C2.96982 165.562 3.27959 166.352 3.7337 166.854C4.73357 167.959 4.74777 170.329 3.77998 174.675L3.09355 177.76L3.71399 178.275C4.05538 178.558 4.29641 179.257 4.24921 179.827C4.20201 180.397 4.55302 182.011 5.02959 183.412L5.89611 185.962L4.66667 187.736C3.23331 189.804 3.12791 190.881 4.23868 192.11L5.04059 192.997L3.55132 194.241C1.69914 195.788 1.69822 196.043 3.53895 197.556L5.02409 198.776L4.44763 200.371C4.06271 201.435 4.01139 202.326 4.29321 203.046C6.16831 207.833 6.09682 209.186 3.89179 210.666C2.12209 211.855 1.63865 212.602 2.64035 212.602C3.00006 212.602 3.66863 213.016 4.12595 213.521L4.95673 214.439L4.40272 215.655L3.84872 216.871L5.29537 218.192L6.74156 219.513L6.47028 220.525C6.32089 221.083 6.1958 221.692 6.19259 221.882C6.18893 222.071 5.87687 222.225 5.49882 222.225C4.71982 222.225 4.55852 223.848 5.29216 224.301C5.62438 224.506 5.61751 224.785 5.2697 225.204C4.9219 225.623 4.91503 225.901 5.24725 226.107C5.51165 226.27 5.72794 226.797 5.72794 227.277C5.72794 227.757 6.14035 228.371 6.64441 228.641C7.82299 229.272 7.81887 230.802 6.6357 231.775C6.03038 232.273 5.53823 233.528 5.21105 235.407L4.71112 238.278L5.23579 238.91C5.52448 239.258 6.46753 239.675 7.33222 239.837C9.23207 240.194 9.25864 240.232 9.65456 243.216L9.97028 245.595H9.27697C8.89618 245.595 8.47689 246.005 8.34584 246.506C8.21478 247.007 7.52056 247.64 6.80342 247.912C6.08582 248.183 5.04288 248.833 4.48566 249.355L3.47205 250.304L3.91287 251.127C4.15482 251.58 4.3537 252.325 4.35461 252.782C4.35507 253.274 5.05708 253.99 6.06749 254.531C8.2409 255.695 8.51447 256.855 6.7915 257.601C6.08078 257.909 5.00714 258.53 4.40593 258.98L3.31304 259.801H4.2538C6.18572 259.801 6.64441 260.283 6.64441 262.314C6.64441 263.437 6.36947 264.499 5.99967 264.806L5.35539 265.341L5.60009 269.788C5.8819 274.903 6.12844 275.381 8.48422 275.381C10.1829 275.381 10.8331 275.954 10.4336 277.099C10.324 277.414 9.83602 277.672 9.34937 277.672C8.86273 277.672 8.10663 277.878 7.66902 278.13C7.23141 278.382 6.30073 278.791 5.60055 279.04L4.32803 279.491L5.25779 281.315L6.18801 283.138L5.28528 283.621L4.3821 284.104L4.88341 285.356C5.15881 286.044 5.45437 287.535 5.54052 288.669C5.81409 292.275 5.88924 292.552 6.76263 293.184L7.61908 293.803L6.86253 294.639C6.44645 295.099 6.17701 295.851 6.26454 296.311C6.46891 297.389 8.58641 297.662 9.37457 296.712C9.699 296.321 10.4051 296.001 10.9436 296.001C11.482 296.001 12.1804 295.589 12.4952 295.085C13.259 293.862 13.6508 293.923 15.4224 295.541C16.249 296.296 17.6022 297.041 18.4293 297.196L19.9332 297.478V298.609V299.74L21.4225 299.433C22.2414 299.263 23.6807 298.628 24.6205 298.022C26.6762 296.693 27.9876 296.616 28.614 297.786C29.1387 298.767 31.3575 299.667 33.2495 299.667H34.5152L35.5132 297.605C36.7945 294.959 39.1388 295.13 40.2179 297.949C40.7935 299.452 44.8768 297.678 45.9394 295.464C46.8706 293.523 50.1635 293.204 50.854 294.988C51.063 295.528 50.7335 296.129 49.7955 296.918L48.4332 298.063L49.4197 299.777C50.6698 301.95 51.5464 301.941 53.9673 299.732C56.4184 297.496 57.5264 296.921 59.4258 296.904C60.2616 296.896 61.7701 296.381 62.7782 295.76C63.7863 295.139 65.1812 294.63 65.8777 294.629C66.5742 294.627 67.5544 294.37 68.0557 294.057C69.2302 293.324 70.5064 294.057 70.7245 295.59C71.1621 298.666 73.6737 299.023 75.2321 296.23L76.2554 294.397L78.4526 294.13C79.6605 293.983 81.2135 293.703 81.9027 293.509L83.1559 293.156L83.6142 294.361C84.2195 295.954 85.0791 296.222 86.7714 295.347C88.7739 294.312 89.9502 294.42 90.1257 295.658C90.2994 296.878 92.4874 297.769 95.4096 297.809L97.3397 297.834L97.8332 296.001C98.3597 294.046 98.8748 293.827 100.84 294.723L102.058 295.278L102.718 294.379L103.378 293.481L104.268 294.627C104.856 295.384 105.276 295.599 105.505 295.263C105.696 294.983 106.793 294.615 107.943 294.446L110.034 294.138L110.656 295.299C111.296 296.496 112.917 296.902 113.004 295.887C113.031 295.572 113.082 294.901 113.118 294.397L113.184 293.481L114.96 293.335L116.735 293.19L117.938 294.309C119.471 295.736 120.395 296.016 120.975 295.229C121.228 294.886 122.18 294.485 123.09 294.337L124.745 294.068L125.032 295.214C125.578 297.389 128.069 297.299 130.728 295.007C132.477 293.499 133.291 293.387 134.122 294.54C135.261 296.119 135.812 296.072 138.305 294.19L140.762 292.335H142.438C144.063 292.335 145.948 293.566 145.948 294.627C145.948 295.372 146.765 295.159 148.777 293.889L150.671 292.693L152.434 293.275C153.683 293.688 154.497 293.721 155.228 293.39C156.399 292.86 161.484 293.146 162.289 293.788C162.622 294.054 162.932 294.033 163.118 293.733C163.281 293.468 163.798 293.252 164.267 293.252C164.736 293.252 165.751 292.891 166.524 292.45L167.928 291.648L169.1 292.908C169.744 293.601 170.418 294.192 170.596 294.221C170.776 294.249 171.52 294.342 172.252 294.428C172.983 294.513 173.797 294.798 174.062 295.063C174.746 295.747 175.275 295.657 175.275 294.856C175.275 294.478 175.568 294.168 175.925 294.168C176.283 294.168 177.204 293.808 177.972 293.367L179.367 292.566L180.119 293.317C180.659 293.857 181.368 294.002 182.645 293.83C183.837 293.67 184.786 293.832 185.533 294.321L186.647 295.051L187.229 294.349L187.812 293.647L190.794 293.933C192.435 294.09 194.343 294.553 195.035 294.962L196.294 295.705L196.995 295.123C197.479 294.722 198.307 294.645 199.66 294.878C200.74 295.063 202.406 295.187 203.362 295.153C204.318 295.118 205.601 295.418 206.214 295.82C207.642 296.755 210.196 296.818 213.007 295.987L215.227 295.33L215.854 296.188L216.481 297.046L218.904 295.976L221.328 294.907L224.962 294.998C227.114 295.051 228.987 295.344 229.552 295.714C232.831 297.863 235.761 296.707 237.83 292.45L238.554 290.961H239.855C241.341 290.961 242.46 292.352 243.349 295.304L243.903 297.147L246.362 297.008C247.715 296.932 249.007 296.684 249.235 296.458C249.478 296.215 250.311 296.324 251.271 296.725L252.895 297.404L254.704 296.68C255.815 296.235 257.038 296.072 257.876 296.256C258.669 296.431 259.686 296.317 260.305 295.987L261.368 295.417L263.303 295.909L265.238 296.4L267.4 295.304C268.59 294.701 270.625 293.016 271.924 291.56L274.284 288.911L275.529 289.608L276.774 290.305L277.031 292.529C277.217 294.134 277.599 295.006 278.406 295.662L279.523 296.57L282.922 296.315C285.402 296.129 286.684 295.792 287.662 295.069L289.003 294.077L290.316 295.612C291.038 296.456 291.658 296.941 291.694 296.689C291.729 296.437 291.819 295.302 291.893 294.168C291.967 293.034 292.274 290.663 292.575 288.899C292.876 287.134 293.04 284.508 292.939 283.063L292.755 280.434L291.674 279.284C291.08 278.651 290.733 277.995 290.902 277.825C291.072 277.656 290.866 277.137 290.446 276.672C288.52 274.544 289.418 272.714 291.941 273.627L293.584 274.22L294.198 273.381C295.008 272.273 294.63 271.428 293 270.707C292.267 270.382 291.661 269.806 291.654 269.426C291.647 269.047 291.581 267.126 291.507 265.157L291.373 261.578L292.207 261.131C293.459 260.461 293.224 259.265 291.556 257.821C290.65 257.036 290.276 256.44 290.606 256.303C290.905 256.179 291.805 254.699 292.607 253.013C293.408 251.328 294.247 249.591 294.469 249.153C295.697 246.741 294.731 244.73 291.44 242.847C289.082 241.498 287.938 239.638 289.465 239.638C290.704 239.638 293.492 237.149 294.388 235.243L295.339 233.22L295.032 229.918L294.725 226.617L293.675 225.567C293.097 224.989 292.112 224.517 291.485 224.517C290.859 224.517 290.198 224.277 290.017 223.984C289.617 223.336 291.439 221.767 292.593 221.767H293.418L293.573 218.909L293.729 216.05L292.766 214.933L291.805 213.816L292.368 212.73C293.081 211.356 293.242 204.532 292.571 204.118C292.228 203.906 292.245 203.617 292.624 203.159L293.168 202.504L292.362 201.613C291.83 201.026 291.677 200.443 291.912 199.903C292.109 199.453 292.222 198.802 292.165 198.457C292.107 198.112 292.298 196.837 292.589 195.625L293.117 193.42L294.46 192.952C295.199 192.694 295.926 192.165 296.075 191.774C296.225 191.384 296.593 191.065 296.894 191.065C297.194 191.065 297.687 190.818 297.989 190.516L298.538 189.968L297.316 188.692L296.094 187.417L296.63 186.241C297.438 184.466 297.281 183.456 296.072 182.665C294.767 181.809 294.688 179.707 295.911 178.354C296.349 177.871 296.707 177.234 296.707 176.938C296.707 176.643 296.937 176.402 297.217 176.402C297.549 176.402 297.623 175.881 297.428 174.913C296.997 172.77 297.406 168.256 298.281 165.498C298.503 164.799 298.309 164.109 297.655 163.278C296.567 161.895 296.482 161.17 297.26 159.925L297.812 159.04L297.024 158.17L296.236 157.298L296.93 155.638C297.312 154.725 297.624 152.784 297.624 151.324V148.67L296.672 148.076L295.721 147.482L296.251 146.844C296.724 146.273 297.407 130.47 297.171 125.538C297.129 124.656 297.107 123.109 297.122 122.101C297.136 121.093 297.149 118.412 297.151 116.144C297.153 113.876 297.33 110.819 297.546 109.352C297.801 107.615 297.747 105.468 297.39 103.196C297.043 100.983 296.989 99.0568 297.242 97.9296C297.462 96.9517 297.526 95.9651 297.385 95.7369C297.055 95.2035 297.047 89.5489 297.363 80.8598C297.5 77.0794 297.636 70.1802 297.665 65.5282C297.693 60.8766 297.86 55.5616 298.036 53.7176C298.256 51.4187 298.178 49.9413 297.789 49.0157C297.458 48.2294 297.358 47.1337 297.549 46.3914C298.065 44.3866 297.669 42.523 296.672 42.2627C295.514 41.9598 295.56 41.4635 296.913 39.6911C297.712 38.6431 297.91 38.0263 297.6 37.5447C297.362 37.1731 297.273 36.3537 297.402 35.7237C297.531 35.0936 297.726 32.1036 297.836 29.0793C297.946 26.0549 298.23 22.6525 298.467 21.5184C298.704 20.3842 299.12 18.4253 299.392 17.1651C300.266 13.1121 300.223 12.2354 299.098 11.1155L298.052 10.0744L298.69 8.80831L299.327 7.5422L298.75 6.16796C298.367 5.2579 298.318 4.52106 298.603 3.98722C298.912 3.41121 298.801 2.85125 298.215 2.02689L297.395 0.873047L293.5 1.16219C291.357 1.3212 289.089 1.43255 288.459 1.40964C286.935 1.35465 284.099 1.33587 281.683 1.36519C280.602 1.37802 279.534 1.27492 279.309 1.13561C279.084 0.996769 278.795 1.05222 278.667 1.25934C278.398 1.69329 270.703 1.61905 266.6 1.14249C264.92 0.947738 263.707 0.996767 263.541 1.26667ZM232.174 23.695C231.947 24.1363 231.647 26.4559 231.508 28.8501C231.244 33.3954 230.209 38.9419 229.113 41.6807C228.512 43.1828 228.008 45.8575 227.081 52.4492C226.868 53.9614 226.366 56.1266 225.965 57.2607C225.564 58.3949 225.233 59.7205 225.229 60.2067C225.219 61.5974 224.324 63.9931 221.936 69.0277C220.72 71.5934 219.724 73.9753 219.724 74.3204C219.724 74.6659 219.513 75.1598 219.255 75.4174C218.997 75.6754 218.698 76.2839 218.591 76.7692C217.558 81.4578 216.871 84.7567 216.69 85.9004C215.07 96.1021 215.115 107.207 216.78 107.845C218.311 108.433 215.861 114.834 212.784 118.28C212.064 119.086 211.476 119.914 211.476 120.121C211.476 120.628 208.561 124.743 206.017 127.829C199.757 135.421 190.262 143.817 184.669 146.707C183.409 147.358 181.759 148.223 181.003 148.629C178.446 150.002 173.741 152.115 173.242 152.115C172.663 152.115 171.739 153.453 170.583 155.964C170.13 156.946 169.042 158.545 168.165 159.516C167.287 160.488 166.568 161.504 166.568 161.774C166.568 162.527 154.288 174.569 153.519 174.569C153.395 174.569 150.97 175.682 148.131 177.042C145.292 178.403 142.248 179.657 141.366 179.829C137.605 180.563 126.245 185.643 123.953 187.616C120.723 190.396 111.974 193.677 109.628 192.989C108.812 192.749 107.639 192.538 107.022 192.518C103.305 192.402 100.76 187.177 101.502 181.19C102.016 177.05 103.591 174.003 108.143 168.344C110.344 165.608 112.265 163.056 112.412 162.673C112.559 162.29 113.463 160.858 114.421 159.491C115.379 158.123 116.163 156.729 116.163 156.393C116.163 156.056 116.333 155.781 116.542 155.781C117.884 155.781 125.702 137.483 127.122 131.019C128.48 124.836 127.843 108.484 126.05 103.542C123.575 96.7157 121.886 93.9553 117.856 90.1418L114.105 86.5937L109.75 84.7672C102.888 81.8904 100.269 81.3414 93.48 81.3584L87.5229 81.3735L84.0862 82.4398C80.0083 83.7055 76.3003 85.505 73.7759 87.4438C63.7231 95.1641 62.8337 96.1846 59.8432 103.437L58.5244 106.635L58.4694 110.555L58.4144 114.475L59.3639 114.777C62.0918 115.642 68.8485 111.377 71.712 106.982C73.0051 104.997 74.0545 103.891 74.8271 103.697L75.9923 103.404L76.8318 104.441C77.9353 105.803 77.8904 106.544 76.6522 107.411C75.3517 108.323 74.1603 108.321 73.6499 107.409L73.2489 106.692L72.6784 107.379L72.1083 108.066L72.6147 109.012C72.8928 109.532 73.3199 109.958 73.5628 109.958C74.3308 109.958 74.0448 110.924 72.8594 112.332L71.7138 113.694L71.7395 116.065C71.7711 118.933 72.5661 121.377 73.6893 122.057L74.5187 122.559L75.5414 121.414C76.1037 120.784 78.0292 119.281 79.8195 118.075C83.3828 115.675 86.9849 112.092 87.8483 110.09C88.1516 109.387 88.9412 107.987 89.6024 106.979C90.2641 105.971 90.9216 104.837 91.0642 104.459C92.7404 100.005 99.0448 97.014 102.766 98.9065C103.203 99.1292 104.112 99.5677 104.785 99.8812C106.255 100.565 109.509 103.59 111.271 105.909L112.546 107.588L112.7 110.17C112.79 111.689 113.152 113.082 113.578 113.553C114.085 114.113 114.223 114.843 114.037 115.988C113.891 116.887 114.001 118.05 114.281 118.574C114.561 119.097 114.618 119.632 114.407 119.762C114.196 119.892 113.99 120.839 113.95 121.865C113.91 122.892 113.443 125.324 112.912 127.269C112.382 129.216 111.781 131.529 111.578 132.411C110.881 135.426 108.364 141.584 107.456 142.492C107.055 142.893 106.101 144.503 105.284 146.158C102.448 151.901 87.3401 166.321 84.1604 166.321C83.9216 166.321 83.6073 166.63 83.462 167.008C83.3172 167.386 82.9713 167.695 82.6936 167.695C81.2721 167.695 69.4226 179.234 69.4226 180.619C69.4226 181.105 68.9396 182.16 68.3499 182.962C66.5 185.477 64.8233 193.345 64.8009 199.613C64.7262 220.503 71.0319 231.606 91.8285 247.199C97.2609 251.272 114.682 258.997 120.974 260.123C121.478 260.213 122.612 260.477 123.494 260.711C124.376 260.944 125.82 261.256 126.702 261.404C127.584 261.553 129.037 261.868 129.931 262.104C130.824 262.341 132.474 262.645 133.597 262.781C140.855 263.654 143.352 263.917 146.406 264.131C154.14 264.671 156.911 264.91 160.841 265.376C163.109 265.646 166.685 265.884 168.787 265.905L172.609 265.945L173.37 264.959C174.159 263.936 177.579 262.562 179.172 262.628C180.957 262.703 187.714 261.296 191.084 260.148C192.596 259.633 194.143 259.167 194.521 259.113C194.899 259.058 195.789 258.778 196.498 258.491C197.207 258.203 198.342 257.967 199.018 257.966C199.695 257.965 201.486 257.347 202.998 256.593C204.51 255.839 206.335 255.221 207.052 255.22C207.769 255.219 208.903 254.85 209.572 254.4C211.176 253.32 212.474 252.719 216.058 251.394C217.696 250.789 220.299 249.648 221.843 248.861C223.386 248.073 224.986 247.428 225.398 247.428C227.425 247.428 238.184 239.103 241.891 234.666C243.623 232.592 244.965 228.038 244.099 227.172C243.419 226.491 242.059 227.1 241.08 228.523C239.817 230.359 235.141 234.051 233.626 234.409C232.911 234.578 230.779 235.473 228.888 236.399C225.514 238.051 222.949 238.464 221.994 237.51C221.318 236.833 223.22 235.062 224.668 235.02C225.351 235 226.838 234.386 227.972 233.654C229.106 232.923 230.545 232.102 231.17 231.829C231.795 231.556 232.414 231.191 232.545 231.018C232.676 230.844 233.56 230.307 234.51 229.824C237.515 228.296 243.2 222.184 243.784 219.855C244.141 218.433 243.266 217.642 241.481 217.774C239.574 217.915 239.521 216.697 241.347 214.708C242.178 213.802 243.036 213.061 243.255 213.061C245.963 213.061 254.199 199.496 252.635 197.611C252.011 196.86 251.342 196.854 251.342 197.599C251.342 197.917 250.947 198.424 250.463 198.726C249.98 199.028 248.857 200.366 247.967 201.7C247.078 203.034 245.154 205.287 243.691 206.706L241.032 209.288L238.583 209.592C237.236 209.759 235.38 210.37 234.459 210.95C233.537 211.529 231.959 212.267 230.951 212.59C227.74 213.617 225.339 214.844 225.046 215.609C224.679 216.565 225.073 217.184 226.052 217.188C227.754 217.193 230.442 218.238 231.516 219.313L232.652 220.449L231.801 221.094C231.334 221.448 230.672 221.745 230.332 221.752C229.351 221.776 226.446 223.225 225.548 224.139C225.097 224.599 224.289 224.975 223.752 224.975C223.214 224.975 222.378 225.336 221.894 225.777C220.974 226.615 217.441 228.774 215.777 229.514C215.244 229.751 214.69 230.254 214.545 230.632C214.375 231.074 213.931 231.227 213.299 231.062C212.733 230.914 211.605 231.2 210.636 231.738C208.652 232.839 204.037 233.923 202.061 233.752L200.666 233.631L198.512 235.374C197.327 236.334 196.357 237.376 196.356 237.691C196.355 238.006 196.181 238.264 195.969 238.264C195.757 238.264 195.087 238.957 194.48 239.806C193.222 241.562 187.256 246.497 186.381 246.506C186.062 246.509 185.384 246.254 184.872 245.939L183.942 245.366L181.609 246.661L179.276 247.955L175.099 248.386C172.801 248.623 170.54 248.937 170.074 249.084C169.608 249.231 168.783 249.409 168.241 249.479C167.699 249.549 165.436 250.064 163.212 250.622C160.989 251.18 159.048 251.517 158.901 251.37C158.754 251.223 158.365 251.326 158.036 251.599C157.114 252.364 150.486 252.676 148.574 252.045C147.667 251.746 144.048 251.246 140.532 250.935L134.139 250.368L131.124 248.838C127.867 247.185 126.437 245.937 126.913 245.166C127.337 244.481 128.35 244.56 129.984 245.405C130.756 245.804 132.654 246.193 134.2 246.269C135.747 246.345 137.583 246.557 138.281 246.741C139.055 246.944 140.129 246.831 141.031 246.453C141.845 246.111 143.542 245.797 144.802 245.755C153.019 245.48 157.35 244.948 159.575 243.939C160.391 243.569 161.731 243.196 162.553 243.109C165.566 242.791 167.334 242.255 170.922 240.572C177.479 237.496 179.166 236.718 179.399 236.667C179.63 236.616 182.417 235.235 184.325 234.226C184.892 233.926 185.82 233.443 186.387 233.152C186.954 232.86 187.727 232.456 188.106 232.253C188.484 232.05 190.546 231.035 192.688 229.998C196.01 228.389 200.812 225.251 202.975 223.276C203.655 222.655 208.065 220.384 210.654 219.32C216.473 216.93 222.97 211.817 225.243 207.835L226.541 205.563L226.074 204.691C225.817 204.21 225.675 203.77 225.758 203.713C225.842 203.655 226.859 202.848 228.019 201.919C229.179 200.99 230.468 200.23 230.883 200.23C231.298 200.23 231.638 200.049 231.638 199.827C231.638 199.606 232.308 199.154 233.127 198.822C238.381 196.696 243.828 190.715 244.762 186.047C245.268 183.519 242.619 184.063 238.305 187.372C237.033 188.348 234.238 190.009 232.096 191.064C229.954 192.117 227.617 193.271 226.904 193.626C225.219 194.466 224.764 194.442 224.028 193.471C223.169 192.341 223.158 192.359 225.729 190.836C227.007 190.08 228.878 188.792 229.888 187.972C230.898 187.153 232.016 186.483 232.372 186.483C233.63 186.483 239.283 180.408 239.513 178.808C239.631 177.988 239.54 177.318 239.31 177.318C238.469 177.318 239.283 176.475 243.094 173.394C245.236 171.663 247.743 169.554 248.665 168.707C249.587 167.861 251.03 166.668 251.873 166.058C260.706 159.655 268.869 147.587 265.164 146.411C264.193 146.103 260.335 147.69 259.208 148.861C257.301 150.842 252.451 156.393 252.121 156.972C251.919 157.325 251.449 157.614 251.076 157.614C250.702 157.614 250.278 157.924 250.133 158.302C249.771 159.245 248.892 159.163 247.928 158.097L247.12 157.205L248.054 155.921C248.567 155.214 249.833 153.914 250.866 153.032C255.549 149.034 262.34 141.229 262.34 139.844C262.34 139.612 262.935 138.6 263.663 137.595C264.391 136.591 265.534 134.139 266.203 132.147L267.419 128.526L267.117 126.11C266.951 124.78 266.62 123.572 266.382 123.425C266.144 123.278 265.761 122.662 265.53 122.057C264.685 119.832 263.313 120.743 260.633 125.309C258.104 129.618 255.775 133.076 253.698 135.604C252.346 137.25 251.061 139.061 250.844 139.628C250.223 141.247 245.843 140.015 245.843 138.223C245.843 137.574 249.143 134.702 249.888 134.702C250.125 134.702 250.632 134.239 251.012 133.671C251.393 133.104 252.126 132.199 252.641 131.658C253.962 130.273 257.213 123.331 257.787 120.669C258.347 118.069 258.951 115.341 259.398 113.395C259.571 112.638 259.865 111.814 260.051 111.562C260.237 111.31 260.633 109.969 260.932 108.583C261.582 105.57 262.064 103.539 263.216 98.9601C263.691 97.0699 264.208 94.4644 264.364 93.1699L264.649 90.8168L263.921 90.5373C263.09 90.2184 261.001 91.567 260.979 92.4367C260.96 93.2203 260.061 94.7751 258.649 96.4678C258.006 97.2394 257.116 99.0953 256.672 100.592C256.229 102.089 255.558 103.881 255.182 104.574C254.019 106.716 251.694 112.429 251.592 113.395C251.438 114.855 250.284 114.681 249.165 113.028L248.134 111.505L249.032 109.647C250.197 107.234 251.293 104.236 251.848 101.939C252.298 100.077 252.958 98.588 256.887 90.5735C259.35 85.5499 260.777 81.7268 261.169 79.0975C261.661 75.8041 262.427 73.0758 263.553 70.6018C265.609 66.0895 264.127 64.3973 261.902 68.7166C259.997 72.4168 256.383 80.084 256.383 80.4259C256.383 81.045 254.749 84.1839 252.937 87.046C250.472 90.9405 249.509 92.9242 249.509 94.1092C249.509 94.6403 248.581 96.4582 247.447 98.1486C246.313 99.8395 245.385 101.538 245.385 101.924C245.385 103.289 242.609 102.456 241.74 100.832L241.281 99.9746L242.221 98.78C242.737 98.1229 243.035 97.5854 242.882 97.5854C242.729 97.5854 242.858 97.1217 243.17 96.5544C243.482 95.9871 243.774 95.308 243.819 95.045C243.948 94.2957 245.926 90.0511 246.265 89.7954C246.432 89.6694 246.851 88.6384 247.196 87.5042C247.541 86.3701 248.489 83.9987 249.302 82.2345C252.176 76.0002 253.204 73.3319 254.099 69.7838C254.597 67.8107 255.193 65.7839 255.424 65.2798C255.832 64.389 256.91 60.8148 258.467 55.1987C258.886 53.6865 259.411 51.119 259.632 49.4936L260.035 46.538L259.469 46.1783C259.158 45.9808 258.685 45.8158 258.418 45.8117C257.852 45.8035 255.458 50.1232 254.068 53.6613C253.537 55.0108 252.111 58.2001 250.899 60.7479C249.687 63.2961 248.545 66.2861 248.362 67.3923C247.96 69.8264 247.004 72.8531 245.812 75.4705C245.325 76.5391 244.927 77.5459 244.927 77.7085C244.927 77.8708 244.205 79.4196 243.323 81.1508C242.441 82.8816 241.719 84.6068 241.719 84.9844C241.719 85.3625 241.513 85.6713 241.261 85.6713C241.009 85.6713 240.803 86.0425 240.803 86.4961C240.803 86.9498 240.615 87.5166 240.385 87.7563C240.155 87.9955 239.791 89.1035 239.575 90.2179C239.125 92.5526 238.586 92.9041 237.215 91.758C235.718 90.5048 236.408 83.6464 238.408 79.9076C238.667 79.4233 239.022 77.8928 239.196 76.5066C239.472 74.3121 240.854 69.7774 242.615 65.289C242.91 64.5379 243.56 62.1666 244.061 60.0193C244.561 57.872 245.288 55.1872 245.677 54.0531C246.066 52.9189 247.06 49.1041 247.885 45.5757L249.384 39.1604L249.161 36.5256L248.937 33.8907H248.136C247.547 33.8907 247.254 34.4067 247.028 35.8382C246.858 36.9096 245.507 40.2602 244.024 43.2845C241.1 49.2462 240.417 51.0535 239.053 56.4377C238.56 58.3797 237.524 60.9981 236.75 62.2569C235.975 63.5156 234.688 66.5148 233.89 68.9219C232.361 73.534 232.01 73.864 230.018 72.5589C228.828 71.779 228.585 70.4455 229.303 68.6236C230.463 65.6808 232.272 55.7403 232.831 49.2416C232.939 47.9815 233.547 44.8884 234.182 42.3681C236.09 34.798 236.331 26.0054 234.701 23.4659C234.164 22.6291 232.652 22.7661 232.174 23.695ZM59.9294 127.817C60.2795 129.156 59.4711 132.238 57.9136 135.501C56.3666 138.742 56.4619 139.846 58.3558 140.631C60.8413 141.66 63.5838 139.406 66.5344 133.907C68.5698 130.115 67.4421 127.829 63.5366 127.829C62.7713 127.829 62.0175 127.623 61.8617 127.371C61.7059 127.119 61.1542 126.912 60.6355 126.912H59.6929L59.9294 127.817ZM193.833 195.998C193.581 196.183 192.654 197.882 191.771 199.772C190.889 201.662 189.789 203.621 189.326 204.125C188.863 204.629 188.085 205.815 187.598 206.76C187.111 207.705 186.51 208.478 186.263 208.478C186.016 208.478 185.814 208.756 185.814 209.096C185.814 209.847 177.83 217.643 177.061 217.643C176.761 217.643 175.634 218.365 174.558 219.247C173.481 220.129 172.378 220.851 172.105 220.851C171.832 220.851 171.609 221.042 171.609 221.275C171.609 221.696 169.073 223.142 168.335 223.142C168.124 223.142 167.006 223.864 165.85 224.746C164.694 225.628 163.197 226.487 162.524 226.655C159.121 227.502 157.689 229.065 159.452 230.008L160.604 230.624L161.775 230.091C162.419 229.797 163.764 229.557 164.763 229.557C165.763 229.557 166.939 229.37 167.377 229.142C167.814 228.913 169.019 228.501 170.054 228.227C171.089 227.952 172.696 227.211 173.625 226.58C175.669 225.193 176.258 225.157 177.337 226.35C177.888 226.958 178.748 227.266 179.899 227.266H181.633L183.004 224.402C183.758 222.827 184.521 221.023 184.699 220.392C185.009 219.298 186.879 216.596 189.595 213.316C190.288 212.479 190.855 211.592 190.855 211.345C190.855 211.098 191.455 210.14 192.188 209.217C194.461 206.358 195.86 200.626 195.151 197.08C194.856 195.607 194.625 195.417 193.833 195.998ZM146.315 234.966L144.161 235.104L143.867 236.031C143.482 237.245 143.749 237.456 145.821 237.578C146.773 237.634 148.802 237.827 150.33 238.007L153.109 238.334L153.647 237.686L154.185 237.038L153.097 236.016C151.97 234.957 150.347 234.706 146.315 234.966Z" fill="#FBFDFD"/>
</svg>
