<svg width="300" height="308" viewBox="0 0 300 308" fill="none" xmlns="http://www.w3.org/2000/svg">
<path fill-rule="evenodd" clip-rule="evenodd" d="M81.8417 1.05529C79.4886 1.17587 77.2458 1.69401 76.6181 2.26247C76.0124 2.81025 75.3206 3.06106 75.0795 2.82058C74.2161 1.95722 61.1761 2.03579 58.4034 2.9212C56.4755 3.5372 54.5318 3.62401 51.9348 3.21059C49.6685 2.84953 47.7406 2.87709 46.9848 3.28155C45.298 4.18488 41.9706 4.11736 41.0143 3.16098C40.4761 2.62284 34.9253 2.35343 23.2695 2.29969L6.30891 2.22182L4.56704 4.04019L2.82515 5.85787L3.2248 9.44498C3.4446 11.4177 3.81599 13.3422 4.05026 13.7211C4.28453 14.1008 4.10262 15.1102 3.6451 15.9646C3.06631 17.0471 3.00912 18.2281 3.45768 19.8611C3.84767 21.2805 3.8656 25.6938 3.50386 31.06L2.90577 39.9162L3.95448 42.0184C5.3167 44.7491 5.27811 45.4402 3.64785 47.5121C2.90301 48.4602 2.08443 50.5377 1.83018 52.13L1.36715 55.0254L2.84031 57.0188C4.54222 59.3201 4.69589 60.6486 3.38534 61.7366C2.13819 62.7715 2.10098 66.3573 3.32815 67.375C4.59184 68.4237 4.58288 70.0911 3.30334 71.9171L2.29254 73.3599L2.6143 80.785C2.79138 84.8689 3.24616 88.5835 3.62582 89.041C4.50158 90.0966 4.36445 93.262 3.32676 95.9307C2.31319 98.538 2.45102 113.303 3.53142 117.951C4.11159 120.445 4.12398 121.981 3.57689 123.638C3.16484 124.887 3.02979 126.83 3.27716 127.956C3.52452 129.082 3.34675 131.054 2.88234 132.339L2.0376 134.674L3.17587 136.299C4.57805 138.3 4.65111 140.785 3.32333 141.295C1.21351 142.105 0.704295 149.033 2.53713 151.999C3.01876 152.778 3.23098 163.287 3.08904 179.304C2.97949 191.616 3.33297 201.673 3.95379 203.934C4.30037 205.194 4.10193 206.61 3.36053 208.172C1.92114 211.206 1.93492 211.342 3.96964 214.1C6.08705 216.97 6.1222 218.033 4.16671 220.114L2.64117 221.738L3.47768 223.078C4.70692 225.046 4.55671 226.184 3.21378 225.07L2.11338 224.156L1.31893 225.502C-1.09752 229.594 0.00905867 236.026 2.99465 235.245C4.59183 234.828 4.60563 234.965 3.231 237.624C2.61431 238.816 2.36419 240.212 2.65083 240.862C2.92851 241.491 3.09318 242.276 3.01807 242.606C2.94297 242.935 2.75626 246.147 2.60467 249.743C2.45239 253.338 2.12234 257.926 1.87085 259.938L1.41332 263.596L3.03599 263.826C5.26571 264.141 5.56062 266.687 3.5321 268.108L1.98177 269.194L1.83846 273.171C1.75991 275.358 1.4581 278.852 1.16871 280.937C-0.527007 293.147 2.02311 304.95 5.90858 302.87C6.60658 302.497 7.64426 302.37 8.21341 302.588C8.78324 302.807 9.9043 302.527 10.705 301.966L12.1602 300.946L13.3922 302.061L14.6235 303.176L15.6212 302.348L16.619 301.52L19.7327 302.577C22.0107 303.35 24.7447 303.558 29.9208 303.349C34.383 303.168 37.3259 303.338 37.8902 303.806C38.4194 304.245 40.0365 304.377 41.8459 304.129C43.5775 303.892 45.0878 304.001 45.3228 304.381C45.9863 305.455 52.4137 305.157 54.7598 303.944L56.9048 302.835L59.3764 303.514C61.8045 304.181 78.5577 304.077 79.2433 303.391C79.4363 303.198 80.4071 303.461 81.4014 303.975C83.7269 305.178 86.3962 305.515 87.6089 304.761C88.1339 304.434 90.3044 304.173 92.4321 304.181C94.5599 304.188 96.8689 303.897 97.5634 303.535C98.4585 303.069 99.162 303.17 99.975 303.882C100.699 304.516 101.634 304.699 102.502 304.377C103.26 304.096 104.271 304.012 104.75 304.192C105.228 304.371 106.079 304.138 106.639 303.673C107.243 303.171 108.569 302.99 109.903 303.226C112.329 303.658 121.617 304.458 123.862 304.43C124.62 304.42 127.166 304.39 129.522 304.363C131.877 304.335 134 303.994 134.241 303.604C134.518 303.156 135.13 303.304 135.906 304.007C137.188 305.167 145.433 305.626 148.35 304.699C149.129 304.452 150.14 304.55 150.595 304.917C151.118 305.338 152.945 305.352 155.557 304.956C163.149 303.804 167.856 303.755 169.527 304.808C170.389 305.351 172.249 305.746 173.661 305.685C175.073 305.623 177.374 306.073 178.774 306.685C181.47 307.861 183.115 307.645 183.733 306.033C184.173 304.887 188.018 304.723 190.685 305.737L192.484 306.421L194.003 305.426L195.522 304.431L198.278 305.182C199.794 305.595 205.22 306.024 210.336 306.136C215.452 306.248 221.477 306.651 223.724 307.032C226.435 307.491 228.242 307.493 229.091 307.039C229.794 306.663 230.943 306.536 231.643 306.759C232.343 306.981 233.718 306.798 234.697 306.351L236.478 305.539L237.423 306.324C237.943 306.755 238.587 306.89 238.854 306.623C239.12 306.357 242.657 306.046 246.714 305.932C250.77 305.818 256.725 305.637 259.946 305.53C264.131 305.389 266.13 305.603 266.946 306.277L268.089 307.22L270.18 306.139C271.51 305.452 272.427 305.311 272.7 305.752C272.973 306.195 273.615 306.105 274.474 305.504C275.874 304.522 275.971 304.532 286.31 306.7C292.054 307.903 293.456 307.574 294.354 304.808C295.45 301.435 295.246 286.296 293.99 277.836C293.267 272.969 293.564 268.629 294.734 266.96L295.736 265.53L294.466 263.415C293.768 262.251 292.999 260.459 292.758 259.432L292.319 257.565L293.531 256.916L294.743 256.267L294.514 249.137C294.061 235.026 294.237 230.34 295.334 227.352C296.359 224.558 296.255 222.369 295.098 222.369C294.293 222.369 293.014 216.669 293.635 215.85C294.201 215.101 294.59 211.091 294.437 207.554C294.389 206.418 294.27 202.652 294.174 199.186C294.069 195.475 293.65 192.466 293.152 191.866C292.09 190.586 292.74 188.788 294.462 188.241C295.84 187.804 296.183 186.872 295.193 186.26C294.699 185.955 294.55 160.011 295.044 160.011C295.494 160.011 295.367 142.269 294.915 141.989C294.077 141.472 294.322 137.402 295.408 133.792L296.417 130.438L295.326 129.232C294.542 128.366 294.368 127.385 294.711 125.758C294.973 124.512 295.261 120.236 295.351 116.257C295.443 112.17 295.882 108.348 296.358 107.472C296.925 106.432 296.986 105.517 296.546 104.694C296.087 103.837 296.292 102.271 297.225 99.5081L298.561 95.5496L297.799 94.1254C297.38 93.3426 297.22 91.9742 297.443 91.0853C297.666 90.1965 297.578 89.3021 297.247 89.0975C295.957 88.3003 295.727 83.1511 296.874 80.734L298 78.3602L296.888 76.0168C295.585 73.269 295.495 72.0266 296.527 70.9952C296.939 70.5824 297.376 69.2023 297.497 67.9289C297.619 66.6549 297.796 65.303 297.894 64.9241C297.99 64.5451 297.831 63.3861 297.539 62.3477C297.149 60.9614 297.393 59.8087 298.459 58.002C300.274 54.9268 300.294 53.4365 298.532 52.3367C296.911 51.3246 296.786 49.9548 298.12 47.8463C298.652 47.0071 299.292 45.3327 299.543 44.1255L300 41.9309L298.592 40.5225C297.628 39.5586 297.281 38.5113 297.493 37.2048C297.663 36.1548 298.155 31.4879 298.587 26.8335L299.371 18.3714L298.519 16.3147C298.042 15.1633 297.821 12.8922 298.016 11.1572C298.208 9.45186 298.093 7.88844 297.76 7.68242C297.427 7.4764 297.154 6.70676 297.154 5.97087V4.63345L293.881 4.57488C292.082 4.5425 288.903 4.59348 286.819 4.68925C284.734 4.78434 281.634 4.81741 279.928 4.76298C278.223 4.70854 275.742 4.69821 274.416 4.74025C268.145 4.93869 266.969 4.81052 263.962 3.60195L260.742 2.30864L258.105 3.45451C256.654 4.08497 253.452 4.64447 250.989 4.69821C244.348 4.84291 219.114 3.98782 215.53 3.49654C213.821 3.26227 212.03 3.35598 211.551 3.70533C210.352 4.57902 181.393 4.29857 175.915 3.35942C173.104 2.87778 171.317 2.84057 171.059 3.25744C170.813 3.6557 167.102 3.77008 161.726 3.54545C150.516 3.0776 152.214 3.09965 142.121 3.29396C128.723 3.55235 114.395 2.91775 112.686 1.991L111.156 1.16139L109.363 2.7255C108.377 3.58541 106.74 4.52183 105.725 4.8064L103.88 5.32387L102.728 3.93615C102.095 3.17269 101.436 2.16463 101.264 1.69609L100.951 0.84375L100.038 1.70504C98.9828 2.7007 94.4758 2.86401 93.5098 1.9407C92.7085 1.17518 87.3822 0.771406 81.8417 1.05529ZM171.75 17.7451C165.475 18.8524 159.185 22.5622 155.217 27.4943C151.121 32.5856 146.372 42.137 145.815 46.4C145.573 48.2508 145.061 50.3751 144.678 51.1199C140.858 58.5381 145.949 76.9629 155.418 89.9932C157.791 93.2593 160.274 96.7851 160.937 97.8296C162.646 100.526 174.332 112.041 182.856 119.429C202.788 136.705 212.136 154.986 207.908 168.426L206.677 172.341L202.994 175.995C200.968 178.004 198.912 179.648 198.423 179.648C197.935 179.648 196.307 180.283 194.806 181.058C185.513 185.857 167.609 186.912 156.357 183.326C151.788 181.87 139.78 176.265 139.48 175.449C139.353 175.106 138.709 174.825 138.047 174.825C137.386 174.825 133.458 172.675 129.319 170.049C116.306 161.787 105.35 149.26 100.655 137.273C99.913 135.378 97.622 130.996 95.5638 127.537C93.5057 124.076 91.8217 120.752 91.8217 120.148C91.8217 119.544 91.1561 117.569 90.343 115.759C87.5627 109.571 85.9924 104.582 85.3068 99.7548C85.0671 98.068 84.5027 96.2442 84.0521 95.7019C83.5608 95.1093 83.206 92.1279 83.1653 88.239C83.0744 79.6708 81.4455 77.7945 79.4693 83.9821C78.2697 87.7387 78.4613 102.681 79.7725 107.635C80.3733 109.904 80.6855 112.474 80.4664 113.347C80.2369 114.26 80.5153 115.572 81.1216 116.438C82.4604 118.349 82.4687 119.702 81.1416 119.702C80.4712 119.702 80.1081 119.031 80.1081 117.789C80.1081 116.736 79.6685 115.247 79.1317 114.48C78.5943 113.713 77.9335 111.862 77.6627 110.365C77.3919 108.869 76.9144 107.146 76.6009 106.538C74.2754 102.018 70.536 76.1657 71.9575 74.4362C72.3295 73.9835 72.5328 72.8983 72.4095 72.0246C72.1056 69.8844 69.9262 69.9561 68.3235 72.1589L67.0701 73.8815L66.7849 82.6791C66.6278 87.5175 66.7704 91.6448 67.1025 91.8495C67.9163 92.3525 67.8749 96.9642 67.057 96.9642C66.0021 96.9642 65.6935 96.0251 64.8763 90.324C64.4484 87.3439 63.6587 84.441 63.1213 83.8725L62.1435 82.839L61.4896 83.8725C60.516 85.4118 60.6786 89.4303 61.9086 94.2308C62.5101 96.5783 62.8539 99.0637 62.6734 99.7541C62.4929 100.445 62.743 101.162 63.2295 101.349C63.7159 101.535 65.0485 103.649 66.1909 106.044L68.2691 110.4L68.7397 109.22C68.9994 108.571 68.7087 106.527 68.094 104.677C67.0433 101.513 67.1749 99.0313 68.3945 99.0313C69.0835 99.0313 69.7725 100.807 69.7725 102.584C69.7725 103.339 71.0128 106.312 72.5287 109.189C74.0446 112.066 75.2848 114.79 75.2848 115.242C75.2848 115.695 76.0558 117.201 76.9984 118.59C77.9417 119.979 78.8905 121.806 79.1083 122.649C79.6299 124.672 82.5362 127.971 83.7972 127.971C84.347 127.971 85.1311 128.931 85.5404 130.105C85.9497 131.279 87.1431 133.283 88.1918 134.559C93.0495 140.466 98.1946 147.953 97.3953 147.953C97.0446 147.953 96.2949 148.131 95.7299 148.347C95.0588 148.605 94.5337 148.186 94.2161 147.141C93.6483 145.272 91.2208 142.451 90.1514 142.418C88.6245 142.37 86.3094 139.748 86.3094 138.067C86.3094 136.819 85.2379 135.386 82.5286 133.01C79.7815 130.6 78.7452 129.204 78.739 127.905C78.7341 126.922 78.1099 125.556 77.3519 124.87C76.594 124.185 75.9739 123.216 75.9739 122.72C75.9739 122.224 75.096 120.799 74.0232 119.554C72.9504 118.309 71.8748 116.748 71.6329 116.085C71.3918 115.422 70.773 114.879 70.259 114.879C68.2112 114.879 60.576 101.014 59.5321 95.4008C59.1421 93.3034 58.2767 91.5181 57.1397 90.4639C56.1599 89.5564 55.1671 87.9344 54.9328 86.8595C54.6985 85.7853 54.2224 84.286 53.8751 83.528C52.1332 79.7259 50.975 60.158 52.0133 52.0763L52.6907 46.8079L51.7522 44.8414C49.8766 40.9105 42.5446 43.874 41.2348 49.0928C40.9998 50.0312 40.5264 50.7988 40.1847 50.7988C39.5776 50.7988 38.4 53.7465 37.6779 57.0718C36.6719 61.707 39.036 83.2152 40.8137 85.5951C41.6613 86.7307 42.2104 90.6823 41.5751 91.075C40.6084 91.6724 39.0023 88.5821 38.4889 85.1348C38.225 83.3654 37.5725 81.5553 37.0385 81.1129C36.4604 80.6327 36.2007 79.5654 36.3963 78.4726C36.8856 75.7336 35.112 69.7921 33.7256 69.5254L32.5646 69.3015L32.5722 71.2473C32.5763 72.3174 33.0414 74.7146 33.6057 76.575C34.1701 78.4354 34.6366 80.7608 34.6421 81.7427C34.6476 82.7246 35.1003 84.3032 35.6487 85.2506C36.7388 87.1351 36.8759 87.441 38.9051 92.4855C39.6672 94.3803 40.873 96.5659 41.5848 97.3418C42.2966 98.1183 43.0772 99.7458 43.3204 100.959L43.7614 103.166H42.7706C39.2807 103.166 29.5115 86.781 27.4451 77.4604C26.1697 71.7104 25.4586 71.1984 23.5086 74.6257L22.3641 76.6377L22.9581 80.7719C24.0323 88.25 23.8786 87.7821 28.0604 96.2759C31.7144 103.697 35.6777 109.72 38.7659 112.545C40.0923 113.758 41.7171 115.675 42.3758 116.804L43.5747 118.857L42.5639 119.695L41.5538 120.534L37.1405 116.157C34.713 113.748 31.5841 109.978 30.1874 107.777C28.7914 105.576 27.2301 103.615 26.7188 103.419C25.0045 102.761 22.1788 97.6326 21.4036 93.7719C19.9477 86.5239 17.2177 88.1122 17.3349 96.138C17.4892 106.712 22.7424 118.548 31.221 127.425C34.2224 130.568 36.6823 133.518 36.6885 133.983L36.6988 134.827L34.8067 134.108C31.3802 132.805 23.4121 125.647 17.8144 118.841C14.9804 115.397 13.9586 114.944 12.6301 116.544L11.8205 117.52L12.8196 121.346C13.3688 123.449 14.6256 126.615 15.6123 128.38C16.599 130.145 17.4058 131.868 17.4058 132.208C17.4058 134.229 29.7044 147.253 33.7167 149.48C35.276 150.345 38.6784 152.279 41.2768 153.776C43.8751 155.273 47.2411 157.154 48.7569 157.955C50.2728 158.756 53.0634 160.267 54.9583 161.311C56.8531 162.356 63.2095 165.383 69.0835 168.038C83.9777 174.771 90.0639 178.853 88.6418 181.155C88.1987 181.872 83.5608 181.443 79.7635 180.335C78.6266 180.003 75.836 179.353 73.5622 178.89C71.2884 178.427 69.1331 177.788 68.7734 177.47C68.4131 177.153 67.6338 176.892 67.0405 176.892C66.4479 176.892 64.8817 176.318 63.5609 175.617C62.24 174.915 59.4542 173.816 57.3699 173.174C52.0423 171.533 47.8715 169.265 47.4891 167.802C47.2521 166.897 46.4969 166.557 44.7282 166.557C43.3887 166.557 42.0816 166.215 41.8232 165.797C41.5648 165.38 40.3066 164.601 39.0264 164.066C37.7462 163.531 36.6988 162.787 36.6988 162.414C36.6988 162.039 36.0387 161.734 35.2319 161.734C34.425 161.734 32.5639 160.648 31.0956 159.322C29.628 157.996 28.0184 156.91 27.5188 156.91C27.0199 156.91 25.9891 156.213 25.2285 155.36C24.4671 154.507 21.9107 152.012 19.5467 149.815L15.2491 145.821L13.8973 146.25C13.1538 146.487 12.0823 147.387 11.5153 148.252L10.4845 149.825L12.2146 152.851C13.1655 154.515 13.9476 156.228 13.9524 156.657C13.9572 157.086 15.1286 158.636 16.5556 160.102C17.9832 161.568 20.1137 163.896 21.2906 165.274C22.4675 166.653 24.5539 168.188 25.9271 168.685C27.3004 169.181 29.3351 170.42 30.4486 171.437C32.4082 173.227 37.8406 175.514 40.1316 175.514C40.7483 175.514 42.6307 176.37 44.3154 177.416C48.4655 179.992 57.1363 183.578 60.2845 184.02C61.6984 184.218 63.8978 185.177 65.1725 186.149C66.4479 187.121 68.1133 187.917 68.8733 187.917C70.9425 187.917 74.5958 189.331 74.5958 190.131C74.5958 190.518 75.2042 190.674 75.9484 190.48C76.6925 190.285 77.6606 190.559 78.1002 191.089C78.5391 191.618 79.5844 192.051 80.4223 192.051C81.2601 192.051 82.1669 192.273 82.4384 192.544C83.2232 193.329 89.1813 194.744 91.8403 194.777C93.1777 194.793 94.8831 195.229 95.63 195.745C96.8055 196.555 99.9151 196.719 105.568 196.265L106.567 196.185L105.711 195.324C105.241 194.851 102.93 194.102 100.578 193.661C89.6939 191.62 80.9921 189.739 79.419 189.088L77.6964 188.374L80.4526 187.851C83.3706 187.298 90.3692 188.101 96.6174 189.706C98.6865 190.238 101.544 190.673 102.967 190.673C104.39 190.673 106.883 191.115 108.507 191.654C110.131 192.194 112.777 192.981 114.388 193.403C116.298 193.904 117.316 194.556 117.316 195.277V196.383L112.447 195.93C109.223 195.631 107.723 195.714 108.008 196.176C108.246 196.56 109.334 196.874 110.426 196.874C112.801 196.874 113.63 197.915 112.418 199.376C111.487 200.498 109.046 200.411 104.021 199.078L101.407 198.384L98.3365 200.1C96.6484 201.043 95.2668 201.623 95.2668 201.388C95.2668 201.153 94.7239 201.25 94.061 201.605C92.8883 202.232 91.01 202.11 74.9403 200.37C66.1916 199.422 64.1714 199.101 59.0925 197.848C52.692 196.269 41.294 192.588 40.144 191.728C39.5756 191.303 37.4051 190.391 35.3208 189.702C33.2364 189.012 29.7665 187.557 27.6091 186.466C25.4524 185.376 23.2289 184.661 22.6673 184.875C21.0715 185.488 19.0251 184.037 16.6837 180.634C15.5 178.913 14.1784 177.623 13.7471 177.767C12.2815 178.256 11.9976 182.185 13.2861 184.149C13.9462 185.156 14.3486 186.508 14.1798 187.153C13.9868 187.892 14.4988 188.661 15.5633 189.231C16.4935 189.728 17.6463 190.869 18.1259 191.764C19.6445 194.602 25.3732 198.941 27.6001 198.941C28.7122 198.941 30.3652 199.526 31.2734 200.24C34.1887 202.533 41.7536 206.311 45.6563 207.422C55.3634 210.186 86.8999 211.528 91.0031 209.352C91.6432 209.012 95.5769 208.533 99.7456 208.285C103.914 208.037 108.488 207.667 109.909 207.462C114.705 206.77 111.024 210.153 105.308 211.691C101.593 212.69 101.266 214.1 104.75 214.1C107.761 214.1 110.94 212.751 112.818 210.676C113.498 209.925 114.346 209.49 114.703 209.71C115.059 209.93 116.065 209.439 116.938 208.619L118.526 207.127L124.984 206.92C128.536 206.805 132.294 206.48 133.336 206.197C134.573 205.861 135.231 205.948 135.231 206.446C135.231 206.866 134.79 207.21 134.25 207.21C133.711 207.21 132.348 207.985 131.222 208.932C130.096 209.88 128.853 210.655 128.46 210.655C128.066 210.655 127.547 211.275 127.307 212.033C127.067 212.791 126.451 213.411 125.939 213.411C125.427 213.411 124.471 213.617 123.815 213.869L122.622 214.327L123.083 212.491L123.543 210.655H122.506C121.935 210.655 121.037 211.687 120.51 212.949L119.552 215.243L114.128 216.414C108.24 217.686 95.4632 218.955 94.0417 218.41C92.6719 217.884 82.1848 219.666 78.7176 221.013C77.006 221.678 73.9054 222.272 71.8272 222.334C64.5179 222.548 61.819 222.506 58.748 222.13C57.0426 221.92 55.1043 221.733 54.4415 221.714C53.7786 221.695 53.2357 221.405 53.2357 221.07C53.2357 220.307 62.8966 219.003 72.4694 218.474L77.5786 218.191L79.151 216.495L80.7234 214.798L79.468 214.126C78.1264 213.408 64.9266 213.663 62.4019 214.456C55.8961 216.498 30.7821 211.447 27.3162 207.399C23.7408 203.222 21.7984 207.253 24.5683 213.103L26.3289 216.821L28.2354 217.3C29.2841 217.563 31.3264 218.636 32.7741 219.685C34.221 220.734 37.6345 222.261 40.3583 223.078C43.0827 223.896 46.397 224.89 47.7234 225.286C52.3572 226.67 53.8854 227.348 54.7633 228.41L55.6473 229.481L51.1686 228.994C48.7053 228.726 44.3643 228.194 41.5221 227.81C38.6798 227.426 34.434 226.962 32.0871 226.78L27.8199 226.447L27.0537 227.878L26.2875 229.31L28.3491 231.913C29.4826 233.344 30.8 235.37 31.2761 236.415L32.1415 238.315L31.303 238.833C28.6337 240.483 30.7773 246.235 35.6605 250.522C36.9951 251.695 38.0245 252.894 37.9474 253.186C37.8695 253.48 38.3181 255.425 38.9437 257.509L40.0813 261.299H48.553C53.3976 261.299 57.2466 261.004 57.5422 260.61C57.866 260.178 58.3118 260.306 58.7376 260.955C59.8222 262.608 59.5541 263.078 57.7812 262.632C56.7325 262.369 55.9112 262.567 55.5419 263.171C55.2208 263.696 53.6401 264.509 52.0299 264.979C50.4196 265.449 49.1015 266.179 49.1015 266.601C49.1015 269.14 59.7974 275.948 67.3609 278.222C68.8768 278.678 70.7372 279.389 71.4951 279.803C72.2531 280.217 73.4933 280.629 74.2513 280.72C75.0092 280.811 76.5781 281.079 77.7385 281.315L79.8476 281.744L83.0006 279.337C84.7342 278.014 87.9713 275.932 90.1935 274.711C92.4149 273.49 96.5588 270.917 99.4011 268.992C102.243 267.066 106.119 264.47 108.014 263.222C109.909 261.974 112.797 259.791 114.433 258.37C117.656 255.572 118.694 254.981 118.694 255.95C118.694 257.334 107.953 266.601 99.9302 272.14C96.7393 274.343 95.3378 276.791 97.8507 275.772C98.5136 275.504 99.9867 274.95 101.124 274.542C102.261 274.135 105.603 271.841 108.551 269.445C114.139 264.904 117.377 263.836 118.295 266.229C119.337 268.944 110.883 274.816 100.618 278.508L95.2889 280.424L93.0544 279.499C90.3361 278.373 87.0742 278.619 85.4481 280.073C82.7822 282.455 84.5124 284.049 90.4967 284.724C95.7051 285.311 104.168 287.124 106.636 288.18C107.773 288.667 111.339 289.283 114.56 289.55C117.781 289.816 121.812 290.331 123.517 290.694C126.548 291.338 130.026 291.768 135.575 292.182C137.091 292.296 138.996 292.751 139.81 293.194L141.288 293.999L142.154 292.955C142.732 292.258 144.193 291.925 146.533 291.954C153.3 292.038 158.336 291.473 160.875 290.344C162.285 289.718 163.99 289.199 164.665 289.191C166.155 289.174 177.45 284.952 178.748 283.926C179.257 283.524 180.822 283.019 182.227 282.803C183.631 282.588 187.042 281.34 189.806 280.031C202.758 273.897 204.658 273.166 206.467 273.621L208.269 274.073V272.66C208.269 271.883 208.812 271.055 209.474 270.82C210.137 270.584 211.145 270.018 211.714 269.562C212.282 269.106 214.859 267.607 217.441 266.233C220.022 264.858 223.465 262.643 225.091 261.31C226.718 259.978 228.283 258.888 228.57 258.888C229.241 258.888 235.999 253.329 236.726 252.179C237.029 251.7 237.736 251.308 238.298 251.308C238.859 251.308 239.499 250.838 239.72 250.262C239.94 249.688 240.504 249.3 240.972 249.401C241.864 249.595 245.477 245.735 245.477 244.588C245.477 244.222 246.715 242.872 248.229 241.587C249.743 240.302 250.983 238.993 250.985 238.679C250.988 238.365 252.492 236.349 254.33 234.2C257.6 230.375 260.126 225.864 260.985 222.312C261.222 221.334 262.17 219.72 263.092 218.725C264.015 217.73 264.77 216.36 264.77 215.681C264.77 215.001 265.231 212.239 265.794 209.543C268.058 198.685 266.504 175.308 263.075 168.678C262.491 167.549 262.013 166.243 262.013 165.775C262.013 163.635 255.794 152.423 251.745 147.264C244.402 137.909 236.148 129.192 229.629 123.911C227.165 121.915 224.53 119.778 223.772 119.162C221.4 117.235 213.29 111.168 210.677 109.367C209.302 108.419 206.657 106.482 204.798 105.06C202.94 103.64 201.177 102.465 200.882 102.452C200.587 102.438 199.415 101.641 198.278 100.68C193.616 96.7417 182.974 88.2631 180.953 86.876C171.138 80.1476 162.792 68.722 162.792 62.015C162.792 58.5684 163.297 58.4203 167.658 60.5859L170.716 62.1045L178.936 62.3064L187.157 62.5083L188.821 61.4182C189.794 60.7802 191.153 60.4963 192.099 60.734C192.987 60.9573 193.907 60.8284 194.142 60.4481C194.377 60.0677 195.521 59.7563 196.684 59.7563H198.799L198.347 56.9367C197.458 51.3742 194.121 46.9134 188.782 44.1531C185.37 42.3885 183.208 40.054 183.729 38.6959C184.026 37.9228 183.631 36.8769 182.621 35.7668L181.052 34.0415L182.43 34.5707C185.783 35.8592 188.474 36.2533 196.493 36.6309L205.043 37.0326L206.656 35.9756C207.543 35.3947 208.269 34.2847 208.269 33.5089C208.269 31.1296 201.742 22.6531 199.847 22.5704C199.573 22.558 197.713 21.7959 195.712 20.8768C188.55 17.5846 179.422 16.3918 171.75 17.7451ZM205.685 39.879C204.075 41.0083 202.756 42.3044 202.756 42.7585C202.756 43.2125 202.136 44.7415 201.378 46.1554C198.188 52.108 199.7 56.3028 205.644 57.9944C208.035 58.6752 211.387 59.6481 213.092 60.1566C230.621 65.3843 241.143 65.8749 244.663 61.6298C246.055 59.952 244.618 57.9538 241.677 57.4763C235.319 56.4448 219.126 47.0456 213.092 40.8836C209.48 37.1952 209.508 37.1993 205.685 39.879ZM15.3753 173.059C14.4692 174.151 15.1444 175.99 17.0234 177.55C17.6125 178.039 18.0949 178.995 18.0949 179.674V180.909L23.3095 182.139L28.5241 183.368L29.1532 182.369C29.5887 181.679 29.415 181.113 28.5896 180.533C27.9336 180.072 27.0578 179.408 26.643 179.057C26.2282 178.704 24.988 177.947 23.8869 177.372C22.7858 176.797 20.9737 175.368 19.8609 174.198C17.6201 171.841 16.601 171.582 15.3753 173.059ZM152.7 206.014C150.227 207.437 144.747 210.374 140.743 212.422C138.659 213.488 136.488 214.724 135.92 215.167C134.483 216.287 124.782 219.613 122.954 219.613C122.127 219.613 121.45 219.932 121.45 220.323C121.45 221.701 123.721 221.879 126.874 220.749C128.628 220.12 131.521 219.607 133.304 219.609C135.086 219.611 137.412 219.264 138.471 218.837C139.531 218.412 141.174 217.754 142.121 217.376C145.443 216.05 148.01 214.571 151.596 211.913L155.213 209.232V207.188C155.213 204.924 154.871 204.765 152.7 206.014ZM103.364 228.507C102.323 229.174 101.61 229.86 101.78 230.03C101.95 230.2 100.141 230.397 97.7598 230.468C95.3785 230.538 90.8205 231.199 87.6303 231.937C84.4407 232.675 80.9005 233.43 79.7635 233.616C78.6266 233.801 76.1537 234.309 74.2685 234.744C71.3049 235.429 43.5279 235.897 40.7269 235.31C40.217 235.203 39.7995 235.58 39.7995 236.147C39.7995 238.467 45.3641 239.367 60.7 239.522L67.8205 239.595L67.5394 240.438C67.2279 241.372 64.9162 242.036 57.7234 243.256L52.9084 244.073L52.6762 245.283L52.444 246.492L64.037 246.182C77.7536 245.816 89.7077 243.911 96.1853 241.06C98.0168 240.254 99.7876 239.595 100.121 239.595C102.932 239.595 115.938 231.977 115.938 230.331C115.938 228.888 113.797 228.423 112.511 229.587C111.873 230.164 110.655 230.637 109.806 230.637H108.26L109.393 229.504L110.528 228.369L109.615 227.791C108.168 226.874 105.42 227.188 103.364 228.507ZM132.096 236.07C131.004 237.087 116.316 244.418 115.37 244.418C114.885 244.418 113.342 245.036 111.94 245.791C105.568 249.225 98.7637 251.864 95.5418 252.151C93.609 252.323 91.2918 252.979 90.3933 253.609L88.7589 254.753H91.3235C96.2329 254.753 92.7891 257.991 85.4757 260.253C84.07 260.687 81.1244 262.263 78.9298 263.754C75.0878 266.364 72.5287 267.186 72.5287 265.811C72.5287 265.45 71.5688 265.276 70.3961 265.424C68.1547 265.708 66.2619 267.562 66.7945 268.95C67.1508 269.879 71.1361 270.66 72.1842 270.008C73.4699 269.207 77.6902 267.866 78.9574 267.855C83.1426 267.821 98.1387 260.852 107.449 254.616C109.033 253.554 110.738 252.677 111.239 252.664C111.848 252.65 111.749 252.339 110.935 251.722L109.721 250.8L110.59 250.129C112.031 249.016 117.812 246.423 118.447 246.605C121.591 247.509 134.542 239.214 134.542 236.295C134.542 235.323 133.046 235.185 132.096 236.07Z" fill="#FBFDFD"/>
</svg>
