<svg width="300" height="332" viewBox="0 0 300 332" fill="none" xmlns="http://www.w3.org/2000/svg">
<path fill-rule="evenodd" clip-rule="evenodd" d="M18.8399 1.34061C17.14 2.07946 16.4967 3.79782 17.6525 4.51187C18.4415 4.99952 18.289 6.66722 17.3865 7.4161L16.5928 8.07473L17.7089 9.88122L18.8257 11.6872L17.8567 12.758L16.8878 13.8283L17.7269 15.2896L18.5655 16.751L18.1655 19.3396C17.9454 20.7629 17.948 22.1652 18.1713 22.4555C18.3945 22.7457 18.5022 24.9111 18.4109 27.267L18.2446 31.5513L19.6585 32.1951L21.0723 32.8395L20.0791 33.5657C19.5329 33.9652 18.88 34.3605 18.6283 34.4444C17.9654 34.6655 17.9802 43.974 18.651 48.4193C18.9661 50.5087 19.0764 52.6023 18.8959 53.073C18.7154 53.5432 18.861 54.4758 19.2194 55.1455L19.8711 56.3635L19.1951 57.617C18.6225 58.6788 17.9206 67.3624 18.0488 71.8003C18.1507 75.3225 18.1786 81.8672 18.1027 84.4664C18.0567 86.0628 18.3401 88.129 18.7328 89.0578L19.4474 90.7466L18.5829 91.7013C17.9559 92.3943 17.7596 93.4503 17.8673 95.5539L18.0161 98.4518L19.2853 98.4935C21.513 98.5663 21.8745 98.6998 21.8745 99.4471C21.8745 100.468 20.4997 103.011 19.6706 103.523L18.9808 103.949L19.6067 104.575L20.2327 105.201L21.8655 104.525C23.7533 103.743 24.575 102.496 24.1855 101.007C24.0325 100.422 24.2631 99.6698 24.7091 99.2999C25.1476 98.9363 25.3825 98.3162 25.231 97.9214C25.0795 97.5272 25.4986 96.4706 26.1625 95.5729L27.3689 93.9411L27.3921 86.6465L27.4159 79.3514L26.6902 78.4774C26.2575 77.9555 26.0839 77.0082 26.2601 76.1279C26.6127 74.3657 26.1989 73.5751 24.7829 73.3065C23.463 73.0563 23.0693 71.2683 24.195 70.6382C24.6605 70.3775 25.041 69.6919 25.041 69.114C25.041 68.5362 25.4922 67.4199 26.0437 66.6336C26.7615 65.6098 27.1394 63.8655 27.3732 60.4958C27.5526 57.9062 27.9595 55.4753 28.2767 55.0927C29.2166 53.9602 28.3896 52.8012 26.6406 52.8012H25.041V51.4259C25.041 50.5926 25.554 49.6474 26.3425 49.0267L27.6439 48.0034L27.3336 46.312C27.1631 45.3821 26.696 44.0949 26.296 43.4521C25.3508 41.9332 25.3788 41.2197 26.4279 40.0607C27.0359 39.3884 27.2808 38.1429 27.265 35.797C27.2528 33.9742 27.2665 29.6329 27.2956 26.1497C27.3425 20.5957 27.3257 18.5554 27.1826 12.4282C27.1658 11.7025 27.2117 9.86961 27.284 8.35496L27.4159 5.60063L29.7644 5.1362C31.3302 4.82694 32.8 4.8776 34.1754 5.28978L36.2383 5.90778L37.5002 4.72192C39.4091 2.92914 39.1711 2.78929 33.617 2.43833C30.7867 2.25943 27.2628 1.76228 25.7862 1.33375C22.4909 0.376404 21.0549 0.377987 18.8399 1.34061ZM292.84 1.0609C292.163 1.73326 281.104 2.20295 280.716 1.57598C280.288 0.883046 278.244 2.04357 278.504 2.83256C278.623 3.19618 280.232 3.56667 282.361 3.72024L286.015 3.98412L286.186 6.08827C286.28 7.24563 286.594 8.47793 286.883 8.82625C287.172 9.17509 287.481 13.3538 287.569 18.1126C287.673 23.6967 287.984 27.4691 288.447 28.7494L289.164 30.7327L288.249 31.4019C287.182 32.1819 287.163 32.3724 287.881 34.959C288.198 36.1 288.842 37.0409 289.434 37.2293C289.991 37.4056 290.577 38.0131 290.737 38.5788C290.897 39.1446 291.163 40.0813 291.327 40.6608C291.538 41.4044 291.134 42.1633 289.954 43.2415C288.154 44.8854 288.146 45.7093 289.909 47.9955C290.484 48.7412 291.141 49.0996 291.512 48.87L292.141 48.4816L291.393 47.34C290.208 45.5304 290.858 42.889 292.728 41.9221L294.302 41.1083L293.95 39.6982C293.757 38.9224 293.612 37.813 293.627 37.2325C293.71 34.1362 293.592 33.2242 292.892 31.5486C292.064 29.5659 292.244 29.0524 293.768 29.0524H294.749L293.923 27.4543C293.384 26.4104 293.213 25.2404 293.43 24.0793C293.615 23.093 293.5 21.8105 293.171 21.1962L292.579 20.0901L293.284 18.634C293.795 17.5796 293.959 14.9476 293.881 9.0954C293.771 0.819716 293.693 0.213329 292.84 1.0609ZM51.6661 2.08369C51.3906 2.3444 49.4475 2.6489 47.3481 2.75973C43.3224 2.97294 42.2056 3.5065 42.7598 4.95149C43.1735 6.02863 46.0614 6.15107 46.4619 5.1077C46.8245 4.1625 50.7177 4.52401 54.383 5.84339L57.0735 6.81182L59.1328 6.28671C60.2653 5.99803 63.4482 5.66238 66.2057 5.54047C68.9632 5.41908 71.8131 5.15837 72.5387 4.96152C73.2644 4.76467 74.1726 4.657 74.5568 4.72192C75.3458 4.85544 76.7607 3.8316 76.7607 3.12811C76.7607 2.49217 66.9936 2.54283 63.5495 3.19566L60.7487 3.72711L59.7624 2.6679L58.776 1.60924H55.4717C53.6542 1.60924 51.9416 1.82245 51.6661 2.08369ZM226.43 2.80829C225.878 3.22152 225.595 3.83371 225.801 4.16778C226.294 4.96469 230.475 4.95361 231.276 4.15301L231.899 3.53025L233.211 4.23269L234.523 4.9346L235.332 4.26277C235.843 3.83899 236.386 3.76827 236.802 4.0712C237.564 4.62534 257.091 4.5884 261.606 4.0237C267.5 3.28696 264.646 2.66474 255.273 2.64363C250.121 2.63255 241.749 2.49533 236.67 2.33965L227.434 2.05624L226.43 2.80829ZM165.663 10.2934C163.742 12.2144 164.014 14.765 167.118 23.9242C169.564 31.1401 171.892 29.93 142.466 36.7412C130.172 39.5873 117.042 43.8321 106.784 48.2778L102.592 50.0944L97.4608 48.7655L92.3294 47.4361L87.758 47.7068C80.1278 48.1575 67.7858 52.8387 64.7734 56.4242C62.2407 59.4382 63.7131 60.7639 69.7395 60.8948L73.7003 60.9814L75.2814 63.1642L76.8621 65.3469L76.3238 66.3534C76.0277 66.9064 73.1477 69.7041 69.9248 72.5698C62.5098 79.1624 56.5146 85.7092 50.7916 93.4624C45.8429 100.168 45.2207 100.695 40.6097 102.096C32.4744 104.567 18.5344 112.681 13.1666 118.068C11.7153 119.525 8.8654 122.106 6.83356 123.802C2.90972 127.08 -0.394543 130.843 0.038214 131.542C0.522691 132.326 1.27791 131.971 2.73926 130.275C3.53986 129.345 4.74471 128.013 5.41707 127.313L6.63987 126.041L8.11019 126.335L9.58103 126.629L11.3738 125.096C12.3596 124.253 13.3307 123.553 13.5307 123.542C13.7313 123.53 15.9874 122.114 18.5444 120.394C24.1349 116.635 33.9632 111.382 35.404 111.382C36.5872 111.382 37.7071 112.327 37.7071 113.325C37.7071 114.015 33.0201 116.657 31.7873 116.662C29.9069 116.67 26.9541 117.98 22.9158 120.597C15.9642 125.102 16.0692 125.008 16.0692 126.693V128.233L11.4514 131.213C6.24247 134.574 1.29216 139.11 1.29216 140.522C1.29216 142.089 2.52604 141.547 4.08396 139.296C5.71683 136.936 6.74595 136.842 7.0035 139.029C7.27846 141.358 8.37987 141.2 13.0125 138.165C19.9197 133.639 32.2554 127.373 32.9357 128.044C33.4624 128.564 28.1326 132.498 24.0868 134.575C22.2888 135.498 12.3866 144.117 10.3669 146.516C9.40741 147.656 8.16033 149.143 7.59616 149.821C5.68464 152.116 6.39447 152.925 8.54875 150.906C11.5374 148.106 17.8567 143.172 23.1517 139.505L27.8845 136.227L28.5875 136.81L29.2905 137.394L28.5843 138.505C28.1959 139.116 26.0617 140.827 23.8414 142.307C14.9166 148.255 12.6051 151.299 19.4859 148.044C26.4058 144.77 25.0838 148.304 16.939 154.852C14.3218 156.955 14.2796 157.453 16.6688 158.014L18.0599 158.342L18.3101 157.384C18.5697 156.392 23.3248 153.293 23.823 153.791C23.9781 153.947 23.6963 156.283 23.1965 158.983L22.2872 163.893L22.6477 171.018C22.9627 177.245 25.5065 192.857 26.4564 194.395C26.6127 194.647 26.8037 195.857 26.8808 197.083C26.961 198.359 27.8207 200.88 28.8904 202.977C31.4479 207.989 32.6454 212.208 32.6713 216.298C32.694 219.851 33.5953 221.305 34.2239 218.803C34.4091 218.064 34.9079 217.46 35.3322 217.46C36.2389 217.46 36.4917 218.493 36.8537 223.685L37.1218 227.535L35.8568 228.016C33.9801 228.73 31.7266 233.851 32.9552 234.611C33.2465 234.791 33.4851 235.737 33.4851 236.713C33.4851 237.803 33.9648 239.066 34.7258 239.981C36.3972 241.99 37.1793 243.554 37.1793 244.886C37.1793 246.181 39.5157 250.987 40.416 251.543C40.7622 251.757 41.3702 251.484 41.7987 250.921L42.564 249.917L42.2531 244.111C42.0816 240.919 41.7845 237.74 41.5919 237.048L41.2414 235.79L41.9808 236.011C43.163 236.366 46.1105 242.758 46.7353 246.323C47.0504 248.12 47.6241 250.02 48.0099 250.545L48.7112 251.5L49.2786 250.014L49.8459 248.527L51.2756 248.694L52.7053 248.861L56.2634 254.139C58.3591 257.247 62.208 261.835 65.6262 265.299L71.4299 271.181L76.6024 273.693C79.447 275.074 82.6056 276.977 83.6215 277.922C85.4164 279.591 91.038 282.901 92.0777 282.901C92.3611 282.901 92.5933 282.362 92.5933 281.704C92.5933 281.046 93.205 279.607 93.9528 278.507L95.3123 276.506L94.4753 275.228C93.5823 273.865 88.5254 270.235 87.5195 270.235C87.1881 270.235 86.6028 270.614 86.2191 271.077C85.8349 271.54 84.3672 272.474 82.9581 273.154L80.3964 274.39L80.1035 273.628C79.7262 272.644 81.0909 270.577 83.0996 269.092L84.6812 267.923L83.2579 266.436C82.2393 265.374 81.996 264.789 82.4035 264.381C83.1861 263.599 85.8059 265.007 89.2648 268.071C90.7778 269.411 93.852 271.316 96.1256 272.323C100.539 274.277 105.15 277.012 106.236 278.32C106.603 278.763 107.821 279.279 108.941 279.469C111.15 279.842 115.319 283.022 114.583 283.772C114.341 284.019 113.135 284.221 111.903 284.221H109.663L106.798 282.058C105.223 280.868 103.205 279.518 102.315 279.058C101.425 278.598 100.39 277.852 100.016 277.4C99.13 276.334 98.3986 276.817 98.3986 278.468C98.3986 279.187 97.9352 280.685 97.3689 281.795L96.3393 283.813L98.2851 285.072C100.181 286.299 101.203 288.179 99.975 288.179C99.6383 288.179 95.8084 286.516 91.4644 284.484C83.3154 280.673 82.0383 280.272 82.0383 281.522C82.0383 283.908 93.1628 290.701 97.8708 291.191C101.102 291.527 103.421 292.535 108.294 295.722C112.759 298.641 112.795 301.257 108.339 298.953C107.261 298.395 106.545 298.292 106.193 298.644C105.532 299.306 107.324 300.252 112.648 302.053C122.624 305.429 127.425 307.71 127.425 309.077C127.425 309.484 127.202 309.817 126.93 309.817C124.918 309.817 118.412 307.74 112.917 305.343C104.233 301.556 102.831 301.165 99.9555 301.731L97.607 302.194L97.4328 303.409C97.1552 305.343 101.809 308.079 110.998 311.382L115.416 312.972L118.734 312.664L122.053 312.357L125.399 313.99C127.239 314.888 130.143 316.929 131.852 318.526C135.699 322.117 138.51 322.351 138.507 319.079C138.503 315.737 131.543 297.722 128.506 293.192C127.728 292.031 126.315 289.684 125.367 287.977L123.643 284.873L124.381 284.136L125.118 283.399L128.656 284.219C131.028 284.769 132.502 284.875 133.131 284.538C133.654 284.258 136.747 284.149 140.115 284.293C143.44 284.435 146.754 284.538 147.48 284.523C148.205 284.508 150.046 284.506 151.57 284.52C153.22 284.535 154.34 284.314 154.34 283.974C154.34 282.928 151.822 282.427 147.751 282.663C144.83 282.832 143.305 282.68 142.197 282.107C140.349 281.151 137.898 281.084 137.017 281.964L136.37 282.611L135.335 281.964C134.766 281.609 132.694 281.314 130.731 281.31C126.88 281.302 123.045 280.233 121.356 278.698C119.174 276.714 113.805 274.458 111.212 274.434C109.824 274.421 107.74 274.072 106.579 273.658C105.418 273.244 103.637 273.025 102.621 273.171C98.8751 273.71 96.6063 271.237 99.6715 269.957L101.565 269.165L104.982 270.269C110.016 271.896 110.831 271.456 107.423 268.954C105.876 267.819 103.153 265.184 101.372 263.099C99.5918 261.014 93.3849 254.796 87.5797 249.281C81.2878 243.303 75.4261 237.192 73.0665 234.152C67.2744 226.687 62.8217 218.515 64.547 218.515C65.3692 218.515 71.9592 222.157 74.122 223.806C75.1379 224.581 76.6225 225.635 77.4204 226.148L78.8717 227.081V226.264C78.8717 225.228 72.1894 217.267 65.0362 209.783C55.5224 199.828 51.2988 193.556 55.961 196.307C58.1211 197.582 58.1786 197.212 56.4803 192.961C55.7757 191.196 54.7756 187.692 54.2584 185.173L53.3175 180.593L53.975 176.043C55.7525 163.751 64.3644 147.944 73.7515 139.745C78.9694 135.187 90.3873 127.118 91.3531 127.307C92.3231 127.495 93.5454 130.361 93.6087 132.594C93.6873 135.388 97.3726 136.611 99.2646 134.471C100.192 133.422 100.805 132.137 102.691 127.292L103.175 126.051L103.953 126.698C104.933 127.511 104.934 129.511 103.955 132.228C102.586 136.03 103.356 136.748 106.219 134.339C108.692 132.257 109.211 133.017 108.381 137.508L107.843 140.417L110.064 143.052C112.487 145.925 113.241 146.141 116.091 144.782L117.988 143.877L118.476 144.65C118.745 145.074 118.985 146.134 119.01 147.005C119.162 152.342 120.088 151.235 121.878 143.575C122.658 140.237 123.889 135.042 124.613 132.031C125.569 128.056 126.001 124.516 126.188 119.101L126.445 111.646L127.595 110.723C128.833 109.73 132.58 108.435 136.397 107.682C137.703 107.424 139.84 106.95 141.147 106.629C142.453 106.307 144.946 105.83 146.688 105.569C148.43 105.307 151.636 104.725 153.813 104.274C161.219 102.741 171.646 100.849 174.6 100.502L177.546 100.155L177.25 98.9753L176.953 97.7947L178.424 97.4258C179.473 97.1625 180.068 97.2928 180.498 97.8808L181.101 98.7056L185.32 98.1763L189.54 97.6475L191.377 98.4148C192.388 98.837 193.521 99.5521 193.896 100.004C194.272 100.457 194.874 100.827 195.234 100.827C196.157 100.827 198.672 104.608 198.672 105.996C198.672 106.631 198.177 107.449 197.572 107.815C196.967 108.18 195.958 109.402 195.329 110.53C193.177 114.389 192.924 114.764 191.926 115.579C189.828 117.291 188.598 119.764 188.442 122.586C188.357 124.124 188.044 125.854 187.747 126.43C187.096 127.691 187.395 136.948 188.13 138.322C189.743 141.337 202.04 138.292 208.699 133.23C215.66 127.938 220.408 121.691 221.292 116.659C222.812 108.015 224.036 105.683 228.068 103.744C229.951 102.838 231.561 101.667 231.877 100.973L232.425 99.7712H236.404C242.064 99.7712 250.919 97.3646 250.919 95.8262C250.919 95.3317 251.401 95.0214 252.169 95.0214C252.857 95.0214 256.716 93.6909 260.745 92.0644C264.774 90.4384 271.633 87.6888 275.987 85.9541C289.261 80.6665 295.577 76.2466 298.639 70.103L300 67.3709V63.2528V59.1342L298.952 58.0867C297.754 56.8887 287.208 51.5246 281.964 49.4458C280.026 48.6779 275.514 46.7141 271.937 45.0823C260.835 40.018 249.423 36.6567 239.045 35.3944C231.748 34.5072 228.029 33.9203 220.573 32.4796C216.8 31.7502 212.603 31.0061 211.246 30.8256L208.779 30.4979L208.481 29.3141C208.137 27.943 202.56 22.5826 197.916 19.1602C188.076 11.9088 169.229 6.72738 165.663 10.2934ZM223.297 41.8847C220.065 47.4002 217.728 59.7032 219.194 63.4882C220.321 66.3993 220.837 65.0071 220.856 59.0023C220.881 51.1884 222.136 45.9489 224.832 42.4156C226.284 40.512 226.458 39.6074 225.373 39.6074C224.965 39.6074 224.031 40.6323 223.297 41.8847ZM265.803 55.5751C265.501 55.9392 265.094 56.8702 264.9 57.6433L264.548 59.0488L266.004 60.0029C267.848 61.2109 271.198 61.2474 272.373 60.0715L273.259 59.186L271.845 57.0491L270.431 54.9122H268.392C267.27 54.9122 266.106 55.2104 265.803 55.5751ZM239.379 57.4185C237.23 61.4337 239.231 69.6893 242.353 69.6893H243.123L242.809 67.9741C242.636 67.0305 242.34 64.5733 242.151 62.5124L241.807 58.7664L242.933 58.4719C244.428 58.0808 244.38 57.0174 242.871 57.1008C242.218 57.1367 241.286 56.9969 240.8 56.79C240.207 56.5372 239.741 56.7435 239.379 57.4185ZM224.851 58.4746C223.805 61.9382 225.189 69.5911 227.386 72.4959C228.085 73.4194 228.939 75.2439 229.285 76.5501C229.672 78.0098 231.05 80.3341 232.864 82.5828C236.236 86.7647 237.26 86.3631 234.275 82.0292C231.699 78.289 228.73 70.7664 228.368 67.0658C228.211 65.4609 227.889 63.9004 227.653 63.5974C227.285 63.1272 226.811 60.4995 226.68 58.2107C226.623 57.2116 225.169 57.4212 224.851 58.4746ZM220.249 71.9322C220.098 73.5625 220.568 74.8898 223.264 80.4539C225.1 84.2426 226.897 87.1273 228.238 88.4361L230.337 90.4859V89.5286C230.337 89.0019 229.419 87.4693 228.297 86.123C227.175 84.7761 226.079 83.081 225.862 82.3553C225.645 81.6297 224.802 79.7298 223.988 78.1333C223.174 76.5369 222.233 74.3404 221.896 73.2516C221.302 71.3338 220.372 70.5891 220.249 71.9322ZM258.644 78.6384C257.298 80.0776 256.197 81.5975 256.197 82.0165V82.7781L261.078 82.9923C268.761 83.329 281.073 78.5576 278.685 76.169C278.235 75.7199 272.777 77.9444 270.352 79.5651C268.034 81.1146 264.729 81.6666 263.074 80.7811L261.883 80.1435L262.212 78.0832L262.542 76.0223H261.817C261.417 76.0223 259.99 77.1997 258.644 78.6384ZM212.393 77.7518C212.393 78.1228 212.716 78.8949 213.11 79.467C213.503 80.0396 214.134 81.4582 214.511 82.6192C215.165 84.6363 220.983 91.3245 223.048 92.4344C225.126 93.5511 224.301 91.7287 221.123 88.1849C218.63 85.4047 217.513 83.6658 216.928 81.655C216.046 78.6189 212.393 75.475 212.393 77.7518ZM295.128 84.9941C294.765 85.5746 293.926 86.0496 293.263 86.0496C292.465 86.0496 291.889 86.4924 291.56 87.359C291.246 88.1838 290.781 88.5607 290.304 88.377C289.35 88.0113 288.619 90.888 289.338 92.1737C289.611 92.6613 289.716 93.5131 289.572 94.0662C289.419 94.6488 289.764 95.5613 290.39 96.2342C290.984 96.8733 291.641 98.3204 291.85 99.4503L292.229 101.504L291.099 102.357L289.969 103.209L291.277 105.052C292.152 106.284 292.482 107.29 292.273 108.083L291.961 109.271H290.439C288.742 109.271 288.41 110.304 289.75 111.416L290.583 112.107L289.421 112.983L288.26 113.859L289.177 115.259C289.681 116.029 290.307 116.659 290.568 116.659C290.829 116.659 291.558 117.721 292.188 119.017L293.333 121.375L292.317 122.498L291.301 123.621L292.484 124.579C293.257 125.205 293.667 126.113 293.667 127.203V128.869L292.656 128.548C291.334 128.128 290.824 129.013 291.637 130.315L292.282 131.347L291.59 133.443C291.176 134.698 291.039 136.357 291.249 137.578C291.7 140.207 291.701 141.323 291.25 143.529L290.883 145.33L291.848 146.036C292.379 146.423 293.361 146.741 294.032 146.741H295.25V144.397C295.25 143.108 295.013 141.907 294.722 141.727C294.023 141.295 294.045 138.979 294.754 138.542C295.078 138.341 295.168 137.539 294.967 136.628C294.737 135.578 294.882 134.766 295.407 134.172C296.742 132.66 297.035 129.343 296.534 121.409C296.093 114.428 296.093 114.339 296.527 113.373L296.937 112.461L295.566 111.837C293.873 111.066 293.797 109.555 295.4 108.506L296.604 107.716L296.753 98.5917C296.841 93.2334 296.679 88.8784 296.361 88.0408C296.016 87.1352 296.003 86.5003 296.326 86.3008C296.995 85.8876 296.982 83.9386 296.31 83.9386C296.022 83.9386 295.49 84.4136 295.128 84.9941ZM247.343 118.611C245.972 120.058 243.612 122.124 242.1 123.202C238.176 126 232.448 133.479 232.448 135.804C232.448 136.478 232.202 137.276 231.903 137.576C231.121 138.357 231.856 139.88 233.014 139.88C234.885 139.88 237.725 138.156 237.738 137.012C237.745 136.412 239.172 134.379 240.91 132.492C242.709 130.539 243.95 128.75 243.791 128.337C243.448 127.442 246.664 122.417 249.437 119.516L251.498 117.359L250.668 116.67L249.838 115.981L247.343 118.611ZM226.909 126.73C225.35 128.205 222.759 131.352 221.151 133.723C217.197 139.555 217.244 139.503 214.104 141.435C211.209 143.217 210.814 143.788 212.129 144.293C213.393 144.778 213.052 146.291 211.262 148.138L209.603 149.85L210.959 150.19C211.705 150.377 212.726 150.984 213.227 151.538C214.433 152.87 215.387 152.812 216.131 151.359C216.466 150.706 217.517 149.34 218.468 148.324C219.417 147.308 220.367 145.905 220.578 145.206C220.789 144.507 222.015 142.642 223.301 141.062L225.641 138.189L225.498 135.473L225.354 132.756L227.526 129.568C228.721 127.815 230.079 126.064 230.545 125.677C231.621 124.785 231.631 124.048 230.569 124.048C230.116 124.048 228.469 125.255 226.909 126.73ZM254.966 126.618C254.517 127.741 253.751 128.813 253.266 128.999C252.679 129.224 252.479 129.708 252.671 130.44C252.859 131.159 252.42 132.287 251.411 133.68C248.076 138.284 249.621 138.325 254.549 133.762C258.626 129.987 258.92 129.342 257.12 128.12L255.933 127.315L256.592 126.631C257.473 125.719 257.431 124.576 256.518 124.576C256.114 124.576 255.415 125.494 254.966 126.618ZM267.75 133.688C262.062 136.66 256.03 141.955 251.755 147.731C251.15 148.549 249.171 150.678 247.357 152.462C244.067 155.698 243.423 156.768 244.769 156.768C246.382 156.768 248.82 155.056 249.144 153.695C249.678 151.458 250.216 151.114 253.181 151.114H255.968L258.944 149.05C260.58 147.914 262.945 145.724 264.199 144.183C265.549 142.523 268.089 140.376 270.426 138.919C274.847 136.164 274.425 135.373 269.66 137.481C266.082 139.063 266.224 139.04 266.224 138.033C266.224 137.598 266.572 137.242 266.997 137.242C267.422 137.242 267.999 136.813 268.28 136.289C268.56 135.765 269.639 134.879 270.676 134.32C272.48 133.348 272.861 132.506 271.675 132.11C271.372 132.009 269.605 132.719 267.75 133.688ZM228.911 151.003L221.629 158.431L221.802 160.239L221.975 162.046L220.746 162.054C220.071 162.059 219.257 162.236 218.938 162.45C218.356 162.839 217.502 169.617 217.975 170.09C219.019 171.135 226.828 164.841 228.436 161.659C228.911 160.721 229.948 159.613 230.741 159.197C233.381 157.814 237.05 153.27 238.152 150.019L238.74 148.283L237.441 147.789C235.938 147.218 235.847 146.804 236.917 145.391C237.907 144.081 237.919 143.575 236.959 143.575C236.538 143.575 232.916 146.917 228.911 151.003ZM273.612 146.697C269.966 147.413 266.004 150.128 260.287 155.829L254.613 161.487V163.384C254.613 164.428 254.367 165.741 254.067 166.303C253.441 167.473 253.525 167.488 256.706 166.755L259.063 166.211L260.294 166.87L261.525 167.529L263.896 166.894C267.364 165.967 292.084 154.046 292.084 153.301C292.084 152.469 286.875 151.827 284.007 152.305C281.249 152.764 275.001 155.211 270.339 157.656C266.678 159.576 264.103 159.873 267.038 158.037C267.921 157.485 270.054 155.489 271.777 153.602C273.501 151.715 275.569 149.616 276.373 148.937C279.118 146.619 278.123 145.812 273.612 146.697ZM172.024 155.096C171.156 155.534 170.145 156.193 169.778 156.56C169.411 156.927 168.697 157.373 168.191 157.551C165.541 158.481 145.849 183.613 142.386 190.484C141.452 192.337 140.434 194.107 140.125 194.416C139.423 195.118 139.391 196.35 140.074 196.35C140.355 196.35 143.381 193.5 146.797 190.017C150.213 186.534 153.337 183.684 153.739 183.684C156.123 183.684 166.987 170.786 168.107 166.626C168.465 165.3 169.71 163.421 171.461 161.566C174.432 158.419 175.309 156.384 174.251 155.091L173.603 154.299L172.024 155.096ZM181.388 159.229C181.025 159.376 180.728 159.718 180.728 159.989C180.728 160.68 177.163 165.411 174.791 167.87C173.703 168.998 172.812 170.286 172.812 170.733C172.812 171.665 173.637 171.818 174.153 170.982C174.345 170.672 174.81 170.536 175.186 170.681C175.562 170.825 176.485 170.252 177.237 169.409C177.989 168.565 179.201 167.725 179.93 167.542C180.659 167.359 181.256 166.908 181.256 166.54C181.256 166.172 181.849 164.529 182.575 162.888C184.343 158.891 184.098 158.135 181.388 159.229ZM238.975 164.407C237.562 165.705 235.753 166.911 234.955 167.088C234.156 167.263 233.503 167.617 233.503 167.873C233.503 168.128 233.063 168.763 232.524 169.282C231.985 169.801 231.128 170.877 230.62 171.672L229.694 173.118L230.573 173.455C231.06 173.642 232.496 173.255 233.799 172.585L236.147 171.377L236.676 169.412L237.205 167.447L240.104 165.45C242.877 163.541 243.829 162.046 242.273 162.046C241.872 162.046 240.388 163.108 238.975 164.407ZM206.43 164.848C204.802 165.925 200.783 169.802 200.783 170.295C200.783 170.553 200.308 171.06 199.727 171.423C199.147 171.786 198.672 172.462 198.672 172.926C198.672 173.389 197.993 174.634 197.165 175.692C196.336 176.749 195.377 178.149 195.035 178.802L194.413 179.99H195.537C196.834 179.99 199.163 178.495 201.911 175.899L203.832 174.084L204.911 174.662C206.437 175.478 206.448 175.473 207.664 173.089L208.761 170.938L208.07 170.103C207.644 169.589 207.449 168.291 207.56 166.713C207.659 165.307 207.659 164.171 207.56 164.188C207.461 164.205 206.952 164.502 206.43 164.848ZM12.7148 165.883C11.7659 166.577 10.1827 172.83 10.6481 174.044C11.0603 175.118 11.7638 174.821 12.5903 173.222C13.0141 172.403 13.7265 171.429 14.1735 171.058C16.6851 168.974 15.2845 164.004 12.7148 165.883ZM245.593 171.694C244.551 172.338 242.782 173.671 241.663 174.656L239.628 176.446L239.299 179.009C239.118 180.419 239.016 181.573 239.073 181.573C239.13 181.573 240.052 180.77 241.123 179.789C242.537 178.494 243.752 177.915 245.557 177.676C248.102 177.338 252.225 175.016 251.722 174.203C251.568 173.954 250.734 174.017 249.869 174.344L248.295 174.938L247.681 174.324L247.068 173.711L247.91 172.425C249.328 170.26 248.392 169.965 245.593 171.694ZM187.472 172.434C186.973 172.565 185.548 173.205 184.306 173.857L182.047 175.041L181.085 177.911C179.947 181.309 179.322 182.063 175.318 184.873L172.283 187.004L171.765 188.929C171.143 191.239 169.564 193.051 167.783 193.498C166.463 193.829 166.037 194.959 167.006 195.558C167.785 196.04 167.648 198.869 166.822 199.358C166.431 199.59 165.943 200.466 165.738 201.305L165.366 202.83L167.343 202.509C170.997 201.917 180.421 193.698 181.72 189.973C182.052 189.019 182.698 187.826 183.154 187.322C184.108 186.267 188.644 178.424 188.644 177.829C188.644 177.61 189.227 176.739 189.94 175.892L191.236 174.352L190.438 173.213C189.647 172.083 189.228 171.974 187.472 172.434ZM208.963 183.001C208.382 183.14 206.542 183.856 204.874 184.595L201.841 185.938L200.278 188.477L198.716 191.016L196.717 191.391C194.304 191.844 191.843 193.156 191.064 194.406L190.491 195.324L191.283 195.832C191.718 196.111 192.431 196.185 192.866 195.997C193.302 195.808 194.608 195.597 195.769 195.527C199.782 195.284 203.366 193.154 208.645 187.875C212.828 183.692 212.935 182.058 208.963 183.001ZM1.81463 186.333C1.50062 186.919 1.30272 188.641 1.37449 190.159C1.44679 191.677 1.18978 194.743 0.804516 196.973C0.419257 199.202 0.251427 201.614 0.431918 202.334L0.760185 203.641L1.86213 203.353C2.46852 203.194 3.10552 202.681 3.27703 202.214C3.44855 201.746 4.14096 200.629 4.81543 199.731C5.4899 198.832 6.04193 197.638 6.04193 197.077C6.04193 196.516 6.4161 195.522 6.87419 194.869L7.70593 193.681L7.33756 190.134C7.1349 188.183 6.7317 186.29 6.44091 185.927C5.568 184.836 2.46958 185.108 1.81463 186.333ZM125.16 188.682C119.494 190.316 117.398 191.518 117.398 193.133C117.398 193.93 116.775 194.947 115.777 195.784C114.016 197.26 114.053 198.693 115.867 199.269C117.86 199.902 125.424 197.763 132.175 194.657C134.762 193.466 134.292 192.753 131.52 193.663C130.574 193.973 128.675 194.436 127.3 194.691L124.8 195.156L124.206 194.44C123.275 193.317 124.026 192.242 126.151 191.655C127.224 191.359 128.662 190.59 129.347 189.947C131.882 187.565 130.49 187.144 125.16 188.682ZM218.661 193.983C215.83 196.762 214.248 197.933 213.324 197.933C212.602 197.933 211.087 198.671 209.959 199.573C208.83 200.475 207.389 201.413 206.756 201.657C206.122 201.902 205.139 203.155 204.567 204.451C203.907 205.941 203.074 206.939 202.287 207.179C199.301 208.09 198.201 210.306 200.995 209.782C202.183 209.56 203.411 209.74 204.621 210.314L206.452 211.183L208.876 209.547C211.822 207.559 213.449 205.581 213.449 203.989C213.449 203.13 213.853 202.696 214.897 202.434C216.876 201.937 217.671 201.184 217.671 199.805C217.671 199.092 218.2 198.356 219.035 197.909C220.803 196.963 224.531 192.278 224.531 191.003C224.531 189.102 222.673 190.045 218.661 193.983ZM159.354 193.647C158.193 194.18 156.5 195.422 155.592 196.406C148.257 204.361 147.833 205.232 151.63 204.538C154.51 204.012 157.888 201.825 159.436 199.487C160.194 198.342 161.023 197.405 161.279 197.405C161.848 197.405 163.835 194.229 163.838 193.315C163.841 192.371 161.808 192.522 159.354 193.647ZM229.545 193.533C227.332 194.121 221.365 201.12 221.365 203.127C221.365 204.678 222.749 204.599 225.842 202.869C227.623 201.874 229.235 201.437 231.449 201.351L234.557 201.229L237.592 199.203C242.776 195.741 243.211 194.532 239.44 194.063C234.688 193.473 230.598 193.254 229.545 193.533ZM196.297 200.545C191.345 202.935 189.279 206.905 192.987 206.905C195.712 206.905 203.223 201.707 202.069 200.62C200.954 199.572 198.382 199.539 196.297 200.545ZM128.217 205.133C125.604 205.829 121.992 206.868 120.19 207.443C118.388 208.018 116.392 208.488 115.754 208.488H114.595L115.47 207.522C117.031 205.797 114.306 205.254 110.537 206.539C108.472 207.243 107.85 209.278 109.7 209.279C111.372 209.28 111.179 210.29 109.351 211.106C108.406 211.527 104.666 212.485 101.037 213.236L94.4404 214.601L94.6215 216.426C94.851 218.745 94.2621 218.497 100.382 218.847L105.679 219.149L108.768 218.274C110.466 217.793 112.45 216.976 113.176 216.459C113.901 215.942 115.089 215.376 115.814 215.201C116.54 215.027 118.307 214.604 119.741 214.261L122.349 213.637L123.296 214.229C125.114 215.365 136.925 212.794 136.925 211.262C136.925 210.897 137.422 210.599 138.031 210.599C139.301 210.599 142.202 208.691 142.202 207.855C142.202 206.966 138.237 207.713 135.175 209.18C131.738 210.826 127.93 212.182 126.748 212.182C125.498 212.182 125.607 211.273 126.907 210.86C127.92 210.538 134.286 204.648 134.286 204.031C134.286 203.592 133.414 203.75 128.217 205.133ZM227.093 207.864C225.812 209.289 224.274 210.61 223.676 210.8C223.077 210.99 222.034 211.735 221.356 212.455L220.125 213.766H221.191C221.777 213.766 222.687 213.291 223.212 212.71C223.737 212.13 224.558 211.655 225.035 211.655C225.513 211.655 227.349 210.603 229.115 209.318C231.048 207.911 233.034 206.913 234.102 206.811C237.068 206.527 236.088 205.596 232.649 205.43L229.421 205.275L227.093 207.864ZM184.422 207.406C181.833 208.213 178.617 210.191 178.617 210.978C178.617 211.552 178.235 211.705 177.26 211.518L175.902 211.259L175.431 212.497C175.166 213.194 174.095 214.097 172.982 214.563C170.311 215.678 169.117 216.847 169.117 218.347C169.117 220.545 166.786 220.796 161.202 219.202C160.376 218.966 162.446 216.837 168.866 211.317C172.172 208.475 172.695 207.005 169.597 209.264C168.608 209.986 167.238 210.869 166.553 211.227L165.308 211.877L164.584 210.887L163.86 209.898L161.739 210.534C160.573 210.883 159.61 211.457 159.6 211.808C159.591 212.159 157.668 213.852 155.327 215.569C152.986 217.286 150.842 219.194 150.563 219.807C150.108 220.805 144.713 224.183 137.344 228.084C134.375 229.656 127.533 231.925 123.203 232.773C121.606 233.085 119.766 233.453 119.113 233.591C117.807 233.865 117.501 235.46 118.585 236.333C121.393 238.595 131.916 236.304 135.077 232.744C138.459 228.934 141.599 227.815 144.348 229.439L145.865 230.335L149.146 228.779C150.951 227.924 153.98 226.095 155.879 224.717C159.59 222.022 160.83 221.71 162.355 223.091C163.454 224.084 169.117 224.779 169.117 223.92C169.117 223.628 169.592 223.264 170.173 223.112C170.753 222.961 171.228 222.458 171.228 221.995C171.228 221.407 171.719 221.154 172.86 221.154C173.758 221.154 175.096 220.679 175.834 220.099C176.572 219.518 177.487 219.043 177.866 219.043C178.246 219.043 178.868 218.614 179.247 218.088C179.626 217.564 181.303 216.358 182.975 215.409L186.012 213.684L185.512 212.801L185.012 211.919L186.888 209.987C189.488 207.313 188.395 206.169 184.422 207.406ZM21.5726 219.967C21.6265 225.99 21.8354 231.333 22.0365 231.841C22.2376 232.349 22.5136 233.121 22.6498 233.556C23.2614 235.514 24.5164 234.235 25.6268 230.522C26.2559 228.418 26.99 226.416 27.2581 226.074C27.8676 225.297 27.3895 213.403 26.6728 211.519C26.0712 209.936 24.6341 209.016 22.7648 209.016H21.4745L21.5726 219.967ZM203.613 215.866C201.841 216.731 199.996 218.041 199.513 218.778L198.635 220.118L199.456 220.433C199.953 220.624 201.858 219.681 204.274 218.048C206.472 216.564 208.485 215.349 208.748 215.349C209.011 215.349 209.227 215.111 209.227 214.821C209.227 213.843 206.856 214.284 203.613 215.866ZM50.7257 215.831C46.596 217.937 43.8739 220.626 45.8719 220.626C47.1406 220.626 52.1258 218.208 53.4193 216.966C55.6095 214.862 53.9766 214.174 50.7257 215.831ZM141.938 216.157C138.637 217.349 133.818 218.515 132.198 218.515C129.414 218.515 127.289 219.187 127.038 220.146C126.734 221.306 124.287 222.207 121.409 222.218C120.219 222.222 118.889 222.451 118.453 222.726L117.662 223.227L118.472 224.038C120.992 226.558 139.348 222.509 143.653 218.483C146.606 215.722 145.878 214.735 141.938 216.157ZM224.795 218.227L222.684 218.883V220.15C222.684 222.208 222.063 222.635 218.513 223.016L215.145 223.376L212.668 226.001C209.692 229.154 209.37 229.037 210.787 225.31C212.548 220.677 212.047 220.56 206.45 224.304C199.623 228.87 193.538 235.345 191.814 239.879L191.314 241.197L192.465 242.269C195.183 244.801 201.263 245.651 215.411 245.477L219.221 245.431L218.927 244.665C218.473 243.482 213.401 241.896 206.984 240.931C204.64 240.579 204.514 239.931 206.406 237.957L207.806 236.495L206.297 235.921C205.467 235.606 203.887 235.5 202.785 235.686C200.102 236.139 200.196 235.267 203.025 233.454C204.259 232.664 205.759 231.44 206.359 230.735L207.449 229.453L209.334 230.074L211.219 230.696L218.271 228.086C231.062 223.352 233.658 222.654 239.207 222.457C242.021 222.357 244.633 222.26 245.013 222.242C246.274 222.183 245.075 221.154 243.745 221.154C243.026 221.154 241.885 220.792 241.21 220.35C240.159 219.661 234.262 219.163 232.184 219.588C230.932 219.844 230.764 219.502 231.656 218.515L232.611 217.46L229.759 217.515C228.19 217.546 225.956 217.866 224.795 218.227ZM185.485 220.643C183.892 221.795 182.305 222.737 181.958 222.737C181.611 222.737 180.827 223.441 180.214 224.301C179.497 225.308 178.451 225.986 177.276 226.207L175.45 226.549L175.443 227.678C175.439 228.299 175.293 229.341 175.118 229.994L174.8 231.182H175.731C178.791 231.182 185.987 227.155 185.201 225.883C184.609 224.926 185.973 223.46 188.605 222.228C191.332 220.951 191.779 220.278 190.65 219.149C189.62 218.119 188.546 218.429 185.485 220.643ZM80.3231 220.205C76.2536 221.634 82.6167 224.003 87.206 222.767C89.8838 222.046 90.115 221.154 87.6235 221.154C86.6318 221.154 85.7251 220.868 85.608 220.517C85.3404 219.714 82.2399 219.531 80.3231 220.205ZM293.139 220.967C292.704 221.087 292.061 221.798 291.711 222.546L291.073 223.908L291.667 226.48C291.994 227.895 292.808 229.567 293.476 230.195L294.691 231.337L295.519 230.65C296.062 230.199 296.311 229.221 296.244 227.802C296.189 226.613 296.319 224.858 296.535 223.903C297.128 221.272 295.897 220.207 293.139 220.967ZM99.8795 227.563C96.2406 228.895 101.534 231.709 107.678 231.709C112.057 231.709 112.941 230.889 109.086 230.403C104.514 229.826 102.621 229.121 102.621 227.994C102.621 226.863 102.042 226.772 99.8795 227.563ZM167.078 229.883C166.101 230.307 164.136 230.654 162.71 230.654H160.119L159.628 231.946C159.358 232.656 158.533 233.633 157.794 234.117C157.056 234.601 156.451 235.313 156.451 235.698C156.451 236.743 154.314 238.042 152.596 238.042C148.975 238.042 152.189 239.996 155.982 240.101L157.888 240.153L157.644 238.876L157.4 237.598L159.644 235.974C160.878 235.079 162.215 234.348 162.616 234.348C163.017 234.348 163.469 234.026 163.62 233.631C163.771 233.238 165.367 232.501 167.166 231.995C171.808 230.69 172.917 230.195 172.546 229.596C172.076 228.835 169.137 228.989 167.078 229.883ZM74.1547 230.598L73.3958 231.102L74.8255 233.165C77.2827 236.711 78.23 237.484 80.0645 237.445C81.0049 237.424 82.8135 237.788 84.0838 238.253C85.3536 238.717 87.1047 239.098 87.9744 239.098H89.5561L88.918 238.329C87.9153 237.121 88.7602 236.459 91.3051 236.459C92.5944 236.459 93.6488 236.247 93.6488 235.988C93.6488 235.421 92.3495 234.876 91.0027 234.876C90.4654 234.876 89.8749 234.401 89.6907 233.82C89.1735 232.19 87.4287 231.496 82.8299 231.089C80.5078 230.883 77.7767 230.575 76.7607 230.404C75.7448 230.233 74.5722 230.321 74.1547 230.598ZM57.4661 232.678C51.2983 237.144 50.4713 238.434 51.9749 241.244C52.7385 242.67 53.6088 242.519 55.2216 240.681C55.9858 239.81 57.0914 239.098 57.6793 239.098C58.3469 239.098 59.309 238.262 60.2447 236.869C61.068 235.642 62.5684 234.084 63.578 233.407C65.8642 231.871 66.0458 231.403 64.5121 230.992C61.9895 230.317 60.1044 230.768 57.4661 232.678ZM187.534 233.095C186.612 234.205 180.133 237.163 176.875 237.96C171.751 239.214 170.335 241.416 173.44 243.303L175.123 244.328L177.53 244.03C180.354 243.68 185.147 241.02 186.597 238.999L187.614 237.581L186.745 237.095L185.877 236.609L187.114 235.742C187.795 235.266 188.878 234.876 189.522 234.876C190.903 234.876 191.411 234.241 190.964 233.076C190.546 231.985 188.445 231.996 187.534 233.095ZM65.0684 237.853C63.8071 238.91 61.8692 240.377 60.7619 241.113C58.7322 242.461 56.6787 245.431 57.7759 245.431C58.0894 245.431 59.2193 244.837 60.287 244.111C61.3551 243.386 62.5315 242.792 62.9014 242.792C63.2714 242.792 64.0899 242.198 64.7211 241.473C65.3518 240.747 66.3065 240.153 66.8416 240.153C67.401 240.153 68.0338 239.578 68.3299 238.8C69.6224 235.4 68.4133 235.049 65.0684 237.853ZM292.48 236.761C291.54 237.271 291.028 237.979 291.028 238.772C291.028 239.445 290.761 240.762 290.435 241.698L289.842 243.4L290.435 243.993L291.028 244.586V243.409C291.028 241.975 292.4 241.351 293.73 242.181C295.38 243.212 295.58 242.912 295.613 239.362L295.646 235.931L294.788 235.952C294.317 235.964 293.278 236.328 292.48 236.761ZM16.4566 236.776C16.2824 236.95 16.3421 237.603 16.5896 238.227C16.8371 238.851 17.4171 240.6 17.8784 242.113L18.7164 244.863L17.6588 246.599C16.5178 248.47 16.2761 250.448 17.1247 250.972C17.7728 251.373 17.8245 253.706 17.1939 254.096C16.4144 254.578 15.5235 263.17 15.3831 271.555C15.3035 276.31 16.112 287.8 16.5885 288.691C16.9157 289.302 17.0297 290.285 16.8424 290.875C16.6249 291.56 16.8508 292.334 17.4662 293.014L18.4299 294.08L17.4266 294.813L16.4228 295.547L16.2101 300.604L15.9974 305.661L17.0888 307.755C18.4457 310.359 18.4431 310.559 17.0329 312.466L15.8861 314.018L16.4339 315.804C16.7922 316.971 16.8049 317.908 16.4703 318.506C16.1885 319.009 16.0903 320.082 16.2518 320.889C16.4133 321.697 16.4017 322.502 16.2254 322.678C16.0492 322.854 15.846 324.329 15.7742 325.955L15.6433 328.912L16.5157 328.66C16.996 328.521 17.7839 328.244 18.2673 328.045C18.8674 327.797 19.8427 328.311 21.3446 329.668L23.5438 331.655L24.6879 330.928C26.3161 329.895 31.6189 328.998 35.3322 329.128C37.0738 329.189 38.7985 328.994 39.1652 328.693C39.6328 328.31 40.7084 328.424 42.7735 329.073L45.7157 329.998L47.014 329.407C47.7275 329.082 48.7756 328.816 49.3424 328.816C49.9092 328.816 50.3731 328.578 50.3731 328.288C50.3731 327.421 52.053 327.691 52.7712 328.673L53.4383 329.585L60.2178 329.469C63.9464 329.404 67.3161 329.556 67.7061 329.805C68.9542 330.603 72.4142 328.288 72.7197 326.451L72.9852 324.858L71.6769 323.67C69.9459 322.099 67.5214 322.148 64.3823 323.816L61.8739 325.15L58.5406 323.816C54.4859 322.194 53.47 322.156 52.5744 323.59C52.0735 324.392 51.5653 324.604 50.732 324.359C50.0992 324.173 48.061 323.789 46.2028 323.506L42.8242 322.992L41.8679 323.857L40.9111 324.723L38.6496 323.81C35.8842 322.693 31.8759 322.661 31.2664 323.749C31.0284 324.175 30.0726 324.902 29.1422 325.366L27.4507 326.21L25.9419 325.585L24.4325 324.96L24.7824 323.853C27.0016 316.835 27.3705 310.344 25.5503 310.344C24.6394 310.344 25.0136 307.894 26.0707 306.938L27.0998 306.006L26.2717 304.742L25.4432 303.477L26.1577 301.765C27.3341 298.945 26.0775 296.623 23.376 296.623C22.455 296.623 21.8745 296.343 21.8745 295.898C21.8745 294.618 23.9924 290.338 24.8684 289.848C25.8928 289.275 26.3889 283.212 25.5851 281.097L25.0674 279.735H23.4709H21.8745V278.741C21.8745 278.191 22.3458 277.624 22.93 277.471C24.4167 277.082 24.2441 275.598 22.6661 275.202C21.3916 274.882 20.7989 273.929 21.8745 273.929C22.1648 273.929 22.4023 273.201 22.4023 272.311C22.4023 271.422 22.6698 270.193 22.997 269.582L23.5913 268.471L22.6213 267.762L21.6513 267.053L21.8027 264.818C21.8856 263.589 22.4207 261.781 22.9912 260.801L24.0288 259.019L23.2155 258.121C22.1864 256.983 22.178 255.774 23.1939 254.93C23.6293 254.569 23.9855 253.725 23.9855 253.056C23.9855 252.387 23.6293 251.483 23.1939 251.048C22.2413 250.095 22.17 247.467 23.0324 245.083L23.6625 243.339L22.7601 241.446C22.2635 240.405 22.0033 239.316 22.1827 239.027C22.6809 238.22 20.7013 236.96 19.3999 237.256C18.7645 237.4 18.0974 237.28 17.9174 236.989C17.549 236.393 16.9295 236.302 16.4566 236.776ZM104.6 237.557C102.582 238.732 104.647 243.272 108.111 245.28C109.638 246.165 113.813 246.118 115.054 245.202L116.078 244.447L115.419 243.777C114.392 242.737 114.609 241.209 115.783 241.209C119.257 241.209 115.607 238.632 110.643 237.579C107.237 236.857 105.809 236.852 104.6 237.557ZM26.9763 240.505C26.2475 241.234 26.6639 242.679 27.6798 242.945C28.7833 243.234 29.148 245.114 28.2123 245.692C27.3357 246.234 28.0545 255.566 29.2446 259.098C29.8351 260.851 30.3185 262.791 30.3185 263.408C30.3185 264.026 30.67 265.161 31.0996 265.932C32.3541 268.182 34.5406 273.469 34.5406 274.253C34.5406 274.65 35.7153 276.271 37.1513 277.857C39.6302 280.594 41.4013 284.503 41.4013 287.237C41.4013 287.775 42.7925 290.522 44.4924 293.342C46.1923 296.163 47.9539 299.182 48.4078 300.053C49.5071 302.165 53.3829 306.122 54.3508 306.122C55.6702 306.122 55.2052 304.029 53.3745 301.725C52.4129 300.516 50.3351 296.942 48.7571 293.785C47.1792 290.628 45.5906 287.931 45.2281 287.791C44.865 287.652 44.5679 286.699 44.5679 285.674C44.5679 284.549 43.9725 282.842 43.0669 281.37C41.9586 279.569 41.4926 278.016 41.2852 275.433C41.1132 273.287 40.4672 270.761 39.6138 268.897C38.8486 267.226 38.0739 264.928 37.8918 263.79C37.7097 262.651 37.2743 261.434 36.9244 261.083C36.574 260.734 36.1602 258.407 36.0045 255.913C35.6541 250.298 34.8435 248.399 32.6913 248.154C30.8072 247.939 30.3375 247.319 30.3265 245.03C30.3217 243.97 29.9132 242.963 29.263 242.406C28.6825 241.909 28.2075 241.199 28.2075 240.828C28.2075 240.104 27.5499 239.931 26.9763 240.505ZM129.658 243.981C127.902 244.544 127.004 246.211 127.609 247.788C128.729 250.705 142.343 252.355 153.561 250.933L156.213 250.597L156.992 252.366L157.771 254.135L159.882 254.605C161.043 254.864 163.774 255.039 165.951 254.994L169.909 254.913L173.207 253.259C175.022 252.35 176.502 251.464 176.498 251.289C176.431 248.665 165.413 244.945 156.837 244.65C153.577 244.538 148.06 244.199 144.577 243.896C136.83 243.222 131.938 243.25 129.658 243.981ZM290.776 246.435C290.378 248.245 290.813 253.33 291.648 256.639L292.28 259.139L291.388 264.027L290.497 268.916L290.728 277.888C290.881 283.787 291.229 287.702 291.746 289.318C292.178 290.67 292.465 291.858 292.382 291.957C291.866 292.577 291.62 295.04 292.074 295.04C292.369 295.04 292.611 294.683 292.611 294.248C292.611 292.848 295.232 293.551 295.279 294.964C295.294 295.441 295.764 294.406 296.323 292.665C296.887 290.905 297.179 289.029 296.98 288.443C296.576 287.253 296.467 286.826 296.372 286.068C296.335 285.777 295.586 285.54 294.706 285.54C292.979 285.54 292.063 284.294 293.057 283.3C293.485 282.872 293.925 282.971 294.699 283.672L295.756 284.628L295.989 283.897C296.117 283.494 296.337 278.841 296.477 273.556L296.733 263.948L296.043 263.375L295.353 262.803L296.056 261.373L296.757 259.944L296.28 256.25C296.018 254.218 295.648 251.368 295.458 249.917C295.053 246.83 294.663 246.225 292.614 245.511L291.095 244.981L290.776 246.435ZM95.05 251.146C93.7327 252.601 93.9502 253.092 96.696 254.854C98.0814 255.743 99.9222 257.214 100.786 258.122C104.852 262.399 118.599 265.998 124.568 264.35C125.493 264.094 128.125 263.817 130.416 263.733C132.707 263.648 134.872 263.401 135.226 263.182C136.174 262.596 136.008 260.866 134.945 260.27L134.022 259.752L135.557 258.149C136.68 256.975 136.893 256.486 136.349 256.326C133.09 255.365 131.146 255.061 129.729 255.291C128.819 255.439 127.555 255.282 126.921 254.944L125.769 254.327L124.508 255.688L123.246 257.05L121.06 256.175L118.875 255.301L116.331 255.889L113.786 256.476L110.262 255.738C106.203 254.889 105.924 254.718 106.832 253.624C107.199 253.181 107.395 252.819 107.268 252.819C105.814 252.819 100.572 251.498 99.7544 250.925C98.2798 249.892 96.0913 249.995 95.05 251.146ZM70.1586 254.046L68.094 255.205L67.6565 257.047C66.9562 259.998 66.9588 260.345 67.6871 260.601C68.7458 260.974 72.3698 256.849 72.6474 254.955C72.9662 252.785 72.6279 252.662 70.1586 254.046ZM46.1216 255.758C45.7009 256.265 45.3537 258.565 45.2254 261.695L45.0164 266.805L46.9031 274.121C47.9407 278.145 48.7899 281.975 48.7899 282.633C48.7899 283.29 49.1213 284.102 49.5261 284.439C49.9314 284.775 50.4148 285.86 50.6006 286.851C50.7864 287.842 51.6355 290.343 52.4868 292.407L54.0347 296.162L53.3913 297.201L52.748 298.241L55.9145 301.232C57.6561 302.878 59.556 304.286 60.1365 304.362C60.7171 304.438 61.9356 304.65 62.845 304.834C65.8568 305.443 65.3317 304.118 60.3049 298.425C55.0944 292.524 53.0747 289.352 53.0356 287.008C53.0224 286.218 52.5469 284.674 51.9785 283.577C51.4102 282.48 50.7953 280.631 50.6122 279.469L50.2797 277.357L51.4577 275.859L52.6356 274.362L53.4832 276.677C55.4939 282.166 62.0676 290.818 64.2277 290.818H65.2631L64.9053 289.894C64.7085 289.386 63.5938 286.121 62.4286 282.637C61.2638 279.154 59.2615 274.138 57.9807 271.491C54.9619 265.254 55.0854 263.907 58.4335 266.541C59.9318 267.72 60.4004 267.846 60.4004 267.07C60.4004 266.255 53.147 258.814 50.3536 256.763C47.5375 254.696 47.091 254.59 46.1216 255.758ZM146.952 259.632C146.516 259.878 144.795 260.244 143.126 260.445C141.456 260.647 140.091 260.985 140.091 261.198C140.091 261.96 143.566 264.866 145.839 266.005L148.157 267.167L149.402 266.501L150.646 265.835L151.883 266.497L153.12 267.158L155.775 266.37C157.373 265.895 160.805 265.559 164.398 265.525C167.68 265.494 170.465 265.369 170.586 265.248C171.361 264.473 169.6 263.902 166.431 263.902H162.751L162.411 262.979C161.894 261.577 161.32 261.364 157.004 260.969C154.814 260.768 152.38 260.278 151.596 259.879C149.994 259.063 148.134 258.963 146.952 259.632ZM60.4004 271.87C60.4004 272.188 61.8591 273.841 63.6419 275.543L66.8828 278.636L66.0263 279.944L65.1692 281.251L67.9357 283.892C71.5967 287.386 75.1342 289.739 76.7607 289.761C77.4864 289.771 79.0301 290.359 80.1911 291.067C83.5972 293.145 88.6668 295.567 89.6099 295.567C91.0222 295.567 90.6158 294.609 88.6605 293.329C87.6583 292.674 86.6983 291.581 86.5273 290.902C86.3563 290.223 84.7061 287.935 82.8594 285.819C81.0134 283.702 79.2042 281.407 78.839 280.72C77.7519 278.676 72.9646 273.402 72.1957 273.402C71.1592 273.402 71.3064 273.873 73.3441 277.072C76.946 282.725 76.1364 282.447 65.3555 274.325C61.2823 271.256 60.4004 270.819 60.4004 271.87ZM73.8702 297.282C74.0613 297.935 75.5817 300.726 77.2489 303.484C80.2355 308.424 80.607 309.09 82.0847 312.154C82.5164 313.05 83.4252 313.859 84.2459 314.078C85.0248 314.286 87.281 316.113 89.2595 318.139C91.2386 320.164 93.6124 322.205 94.5349 322.674C95.4579 323.143 96.3562 323.945 96.5314 324.456C97.4792 327.218 103.152 329.862 104.659 328.244L105.726 327.099L107.472 328.22C112.541 331.472 115.694 332.196 115.393 330.037L115.237 328.911L116.977 328.533C119.863 327.907 120.459 326.181 117.793 326.169C114.412 326.154 110.069 324.379 108.37 322.319C107.493 321.255 104.713 318.959 102.192 317.219C95.4458 312.561 90.5725 308.342 86.2233 303.394C82.4678 299.121 80.455 297.759 80.455 299.488C80.455 300.936 78.8163 300.386 76.6367 298.206C74.2613 295.831 73.3578 295.529 73.8702 297.282ZM291.332 298.141C291.218 298.326 291.218 299.544 291.333 300.848C291.613 304.05 291.554 309.92 291.237 310.434C291.095 310.663 291.277 311.389 291.641 312.048C292.5 313.604 293.092 325.872 292.344 326.62C292.092 326.872 287.281 325.1 286.401 324.431C285.407 323.673 279.738 324.345 277.886 325.439L276.273 326.392L274.736 325.255L273.2 324.119L272.269 325.148C271.27 326.251 269.142 326.528 268.586 325.628C268.399 325.326 267.792 325.223 267.237 325.399C266.277 325.704 264.752 325.337 260.276 323.727C257.377 322.683 256.012 322.839 254.573 324.38C253.87 325.133 252.629 326.095 251.817 326.518L250.34 327.286L248.482 326.139L246.626 324.991L246.793 327.036L246.961 329.08L249.539 328.944L252.118 328.809L252.798 329.736L253.479 330.663L254.999 329.212C256.779 327.511 257.913 327.409 260.426 328.721C263.42 330.284 267.909 331.115 271.054 330.688C272.606 330.477 274.906 330.33 276.165 330.36C277.734 330.398 279.279 329.966 281.083 328.984L283.714 327.552L284.864 328.275C285.585 328.728 287.729 329.019 290.612 329.056L295.209 329.115L296.317 328.279C296.927 327.819 297.651 326.441 297.926 325.216L298.427 322.99L297.518 319.174C296.51 314.935 296.13 301.799 296.968 300.129C297.238 299.589 297.259 298.965 297.015 298.741C296.438 298.214 291.603 297.703 291.332 298.141ZM89.8026 311.2C89.1207 311.882 97.5911 321.08 98.5928 320.747C99.6905 320.382 99.5359 318.847 98.3052 317.889C97.636 317.368 96.0807 315.932 94.8494 314.698C93.6182 313.465 92.2508 312.455 91.8107 312.455C91.3705 312.455 91.0101 312.099 91.0101 311.664C91.0101 310.853 90.3884 310.614 89.8026 311.2ZM136.653 325.672L136.293 326.808L134.63 326.53C133.715 326.377 132.278 326.082 131.436 325.874C129.059 325.287 130.152 326.408 134.12 328.626L137.603 330.574L138.238 329.705C138.988 328.679 138.541 325.044 137.627 324.74C137.29 324.627 136.852 325.047 136.653 325.672ZM75.8018 327.037L75.9691 329.066L78.8717 329.232C85.5478 329.612 86.3553 329.312 84.5298 327.13L83.3576 325.729L79.4961 325.368L75.6345 325.007L75.8018 327.037Z" fill="#FBFDFD"/>
</svg>
