<svg width="300" height="323" viewBox="0 0 300 323" fill="none" xmlns="http://www.w3.org/2000/svg">
<path fill-rule="evenodd" clip-rule="evenodd" d="M16.6745 0.489837L10.0671 0.865515L7.37384 2.28327C3.84235 4.14277 2.3302 5.44915 1.05088 7.74664L0 9.63446L0.210168 48.6495C0.325325 70.1078 0.525435 97.4341 0.655066 109.375C0.784067 121.315 1.02005 145.728 1.17862 163.625C1.33783 181.523 1.65561 196.471 1.88592 196.843C2.11561 197.214 2.29495 204.659 2.28425 213.386C2.27293 222.112 2.30378 237.18 2.3516 246.871C2.39943 256.562 2.45605 275.818 2.47744 289.662L2.51583 314.833L3.32319 316.247C3.76745 317.024 5.28402 318.249 6.6936 318.968L9.25663 320.276L12.3665 319.529L15.477 318.783L16.5474 319.727L17.6184 320.67L21.3941 320.336C26.2364 319.907 28.0808 319.88 36.4967 320.11C40.3038 320.214 46.343 320.269 49.9166 320.232L56.4139 320.165L58.0242 321.432C60.0259 323.007 62.1107 323.118 61.8527 321.637C61.5022 319.624 61.4525 319.625 111.38 320.445C125.571 320.679 139.729 321.112 142.844 321.407C145.959 321.702 149.499 321.828 150.71 321.686C154.065 321.293 168.104 321.343 170.395 321.756C171.509 321.956 175.105 321.837 178.387 321.489L184.353 320.857L185.637 321.699L186.921 322.54L191.627 322.1C194.215 321.859 197.237 321.861 198.342 322.105C201.87 322.886 227.371 322.316 228.436 321.432L229.38 320.648L233.114 321.696L236.849 322.743L242.479 322.179C245.664 321.859 255.103 321.832 264.216 322.116C273.755 322.412 281.144 322.381 282.335 322.039C283.441 321.722 285.371 321.626 286.624 321.827C290.575 322.458 295.996 319.158 296.495 315.817C296.576 315.276 296.947 312.329 297.321 309.269L298 303.705L297.203 301.502L296.407 299.3L297.499 298.502C298.099 298.063 298.59 297.381 298.59 296.987C298.59 296.592 298.873 296.269 299.219 296.269C299.565 296.269 299.848 295.986 299.848 295.64C299.848 295.294 299.444 295.011 298.951 295.011H298.054L298.23 287.302C298.327 283.063 298.148 278.896 297.833 278.044C297.45 277.005 297.515 276.021 298.032 275.055L298.802 273.615L297.944 272.012L297.086 270.409L297.961 267.45C299.067 263.706 299.067 260.871 297.961 257.125L297.085 254.164L298.273 252.852L299.46 251.54L298.398 249.743C297.191 247.698 297.566 244.039 298.983 244.039C299.459 244.039 299.848 243.756 299.848 243.41C299.848 243.064 299.282 242.781 298.59 242.781C296.964 242.781 296.991 241.888 298.666 240.328L300 239.085L298.666 236.926C297.044 234.302 297.047 234.491 298.59 232.713C300.142 230.923 300.21 229.566 298.747 229.566H297.646L297.48 223.588C297.389 220.3 297.28 216.831 297.238 215.879C297.197 214.927 297.224 209.335 297.299 203.451C297.385 196.678 297.154 191.643 296.67 189.727C296.139 187.626 296.099 186.275 296.539 185.308C297.287 183.667 297.231 140.315 296.48 139.1C296.211 138.665 296.188 137.691 296.428 136.934C297.207 134.479 297.071 127.561 296.23 126.863C295.158 125.974 295.24 124.171 296.397 123.21L297.352 122.418L296.978 119.515C296.771 117.918 296.89 115.355 297.241 113.82C297.679 111.902 297.673 110.643 297.221 109.799C296.467 108.39 296.075 83.5498 296.766 80.9546C297.055 79.8685 296.891 78.8208 296.3 77.9769C295.7 77.1211 295.574 76.2929 295.933 75.5617C296.777 73.8407 296.94 36.7254 296.123 32.2349L295.426 28.4064L296.379 25.7062C297.54 22.4157 297.573 18.4632 296.484 13.266C295.523 8.68111 294.612 7.52198 289.849 4.82239L286.319 2.82194L262.092 2.9396C248.767 3.00441 232.626 2.99372 226.223 2.91506C214.647 2.77347 192.168 2.77348 170.532 2.91444C155.506 3.01261 137.093 2.59099 135.157 2.10519C133.758 1.75405 111.183 1.34691 62.297 0.791262C52.9522 0.684915 40.351 0.48921 34.2942 0.355803C28.2375 0.223026 20.3086 0.282806 16.6745 0.489837ZM56.6335 11.2857L52.8578 13.2496L47.1944 12.755C44.0795 12.4832 39.1239 12.2113 36.1821 12.1516C33.2402 12.0918 30.3411 11.8256 29.7402 11.5607C29.1386 11.2958 27.751 11.3914 26.6567 11.7727C25.5624 12.1541 24.0175 12.4662 23.2234 12.4662C22.4286 12.4662 21.0952 13.103 20.2589 13.8821L18.7392 15.2979L19.2048 30.4005C19.461 38.707 19.7334 62.352 19.8108 82.945C19.8876 103.538 20.0846 138.368 20.2482 160.346C20.8642 243.08 20.9549 256.878 21.0291 278.417L21.1046 300.524L22.5488 303.255C24.1226 306.231 25.2956 306.804 30.0158 306.904C31.6425 306.939 34.4629 307.286 36.2827 307.677L39.5915 308.386L40.4511 307.092L41.3106 305.798L43.9379 306.729C47.1434 307.866 56.631 308.343 58.5584 307.465L59.9599 306.826L63.5121 308.155C67.6546 309.705 69.7199 309.832 70.7437 308.599L71.4781 307.713L73.661 308.316C74.8611 308.647 76.0806 308.772 76.3707 308.593C76.6602 308.414 78.6298 308.589 80.7473 308.983L84.5972 309.699L89.5502 308.568L94.5033 307.436L97.9076 308.019C100.286 308.425 102.45 308.363 105.088 307.813L108.863 307.024L114.212 307.696C117.154 308.066 119.844 308.334 120.19 308.292C120.536 308.251 135.292 308.119 152.981 307.998C170.669 307.879 185.394 307.626 185.703 307.438C186.012 307.25 188.53 307.365 191.298 307.692C197.264 308.398 212.282 308.833 241.955 309.161C253.896 309.293 264.373 309.463 265.238 309.54C271.455 310.088 277.558 308.364 278.554 305.778C279.14 304.258 278.933 276.604 278.1 244.983C277.422 219.242 277.18 189.345 277.38 155.941C277.51 134.286 276.066 23.2111 275.624 20.8727C275.502 20.2296 275.382 19.3448 275.355 18.9068C275.328 18.4695 274.387 17.5356 273.261 16.8315L271.216 15.5522L267.441 15.8945C261.984 16.3891 258.561 16.3872 247.619 15.8844C233.926 15.2552 228.991 15.3099 224.65 16.1393C222.133 16.62 220.245 16.6597 218.986 16.2576C217.32 15.7252 214.005 15.2508 203.569 14.0514C202.012 13.872 198.755 13.9676 196.333 14.2634C193.619 14.5944 191.203 14.5642 190.04 14.1847C189.002 13.8462 183.672 13.4995 178.196 13.4139C171.756 13.3138 167.723 12.9835 166.78 12.4788L165.322 11.6985L160.69 12.3082C158.143 12.6443 154.241 12.7003 152.02 12.4341C149.768 12.1635 147.313 12.2025 146.473 12.5222C144.283 13.3541 141.84 13.2201 139.798 12.156C138.563 11.511 137.666 11.409 136.89 11.8243C136.248 12.1679 134.994 12.2044 133.958 11.9099C132.183 11.4059 126.78 11.9294 121.118 13.1534L118.27 13.7688L116.134 12.7034L113.999 11.6381L98.8459 11.1013C90.5111 10.8062 83.0253 10.7225 82.2098 10.915C81.3433 11.1196 80.0583 10.8269 79.1169 10.2096L77.5066 9.15496L73.1312 9.52183C70.521 9.74019 68.3217 10.2814 67.6792 10.8628C67.087 11.3983 65.736 11.8369 64.6769 11.8369H62.7513L62.8388 10.7357C62.9797 8.95799 60.7232 9.15747 56.6335 11.2857ZM118.264 29.0633C116.103 31.3218 113.598 34.6771 112.696 36.5202L111.057 39.8705L110.867 46.2797L110.678 52.6888L109.516 53.9732C107.556 56.1385 102.192 54.924 94.351 50.5386C89.3728 47.7547 87.1772 47.6918 85.0069 50.2712L83.3777 52.2068L83.3815 55.148C83.384 56.7653 83.7653 58.7966 84.2297 59.6618C84.6948 60.5271 85.7287 62.469 86.5272 63.9774C89.1897 69.0015 88.8813 74.9916 85.5997 82.0011C84.7892 83.7316 83.4626 86.9881 82.6509 89.2378L81.1752 93.3281L75.8264 98.6895C72.8845 101.639 68.6042 105.788 66.3149 107.911L62.1522 111.77L58.7032 118.596C51.9561 131.949 47.4134 148.184 49.5907 151.162L50.4131 152.288L52.3557 150.653C53.4242 149.755 54.4694 149.019 54.679 149.019C55.4995 149.019 54.9993 151.444 53.8854 152.867C52.1298 155.11 48.7688 162.025 49.2162 162.473C49.4308 162.687 50.1255 162.863 50.7605 162.863C52.3708 162.863 52.2065 164.018 50.0374 167.954C47.9357 171.768 47.7167 173.229 49.0501 174.562L49.9613 175.474L49.1388 177.821C48.687 179.112 48.3472 181.147 48.385 182.342L48.4529 184.516L49.9858 184.878L51.5181 185.24L51.5924 188.997C51.6805 193.473 53.2235 199.09 55.261 202.35C62.1768 213.411 64.3213 221.024 64.4359 234.915C64.517 244.738 62.0339 256.924 59.4986 259.142C59.3004 259.315 58.3992 260.599 57.495 261.996C54.1441 267.17 48.9664 271.597 44.6773 272.955C37.299 275.289 32.7091 282.579 34.9336 288.43L35.5735 290.112L37.8622 289.683C39.1214 289.447 41.3113 289.126 42.729 288.97C61.8766 286.862 75.4922 277.24 85.3001 258.883L88.5472 252.807L87.8833 251.097C87.5183 250.157 86.7588 246.582 86.1962 243.153C85.1252 236.626 83.6187 231.914 81.4993 228.457L80.2401 226.403L79.0055 227.174C77.0447 228.399 76.7634 227.4 76.8848 219.639C77.0094 211.719 76.6954 210.546 74.1173 209.304C72.877 208.706 72.2798 207.806 71.906 205.968C71.3038 203.008 69.6866 199.361 68.9761 199.361C68.7017 199.361 68.1543 200.069 67.7603 200.934C65.7888 205.261 64.5271 201.454 66.274 196.449C67.8931 191.81 68.0152 188.841 66.666 186.916C65.2583 184.905 64.7908 185.096 60.822 189.293C56.8349 193.509 56.2585 193.733 55.0805 191.533C53.8464 189.226 55.8331 182.129 57.9392 181.321C59.3746 180.771 59.5653 181.324 58.9241 184.179C57.8165 189.107 59.5772 187.966 63.4662 181.235C65.9745 176.894 66.4395 174.19 64.6775 174.19C63.1094 174.19 58.2621 176.091 55.5448 177.772C54.2536 178.571 53.0466 179.224 52.8629 179.224C51.0631 179.224 57.5195 163.53 60.759 160.031C61.7206 158.993 62.6015 157.435 62.7167 156.57L62.9262 154.997L67.1739 152.881C72.0017 150.475 72.6939 149.284 68.9125 149.889C66.6333 150.253 64.5278 151.194 60.8383 153.498C59.3595 154.422 58.4961 153.957 59.0436 152.532C60.2361 149.425 67.491 146.502 74.0109 146.502C75.7471 146.502 77.6765 146.229 78.2982 145.897C79.0785 145.479 79.7801 145.55 80.5655 146.124L81.7032 146.956L77.9653 150.662C75.9088 152.7 72.4629 155.981 70.307 157.953C68.1511 159.925 66.3873 161.836 66.3873 162.2C66.3873 162.565 66.1173 162.863 65.7876 162.863C65.4578 162.863 64.7392 163.808 64.1911 164.963L63.1943 167.063L63.8311 168.739C64.6612 170.921 64.164 171.151 71.103 165.383C74.4319 162.616 77.7117 160.055 78.3919 159.691C80.8587 158.371 80.8405 159.861 78.3548 162.684C75.7301 165.667 71.4215 173.573 71.4215 175.407C71.4215 175.983 71.1144 176.762 70.7393 177.137C70.3636 177.513 69.9068 179.481 69.723 181.511L69.3889 185.202L70.711 186.775L72.0337 188.349L73.2866 186.775C73.9763 185.91 74.9718 183.928 75.4992 182.37C77.1435 177.519 78.6411 175.766 86.6336 169.339C95.7807 161.984 95.4849 162.178 96.5251 162.821L97.3426 163.326L95.6964 165.933C94.7915 167.367 92.5041 170.696 90.6137 173.331C87.0571 178.288 86.9299 178.931 89.3256 179.842C91.4091 180.634 99.983 177.558 103.762 174.662C106.804 172.331 109.807 171.553 109.807 173.097C109.807 176.093 104.145 181.831 99.1096 183.939C97.5521 184.591 95.7889 185.533 95.1911 186.034C94.4806 186.629 93.3542 186.823 91.9434 186.594L89.7831 186.244L89.0386 188.04C88.6296 189.028 86.7336 191.625 84.825 193.812C82.9171 195.999 81.0355 198.496 80.6435 199.361C80.2521 200.226 79.5743 201.309 79.1376 201.765C78.0603 202.894 78.1264 203.32 79.6851 205.301L81.0267 207.007L82.6358 206.603C86.7821 205.562 88.7485 202.926 92.4959 193.383L94.4724 188.349L97.4955 186.903C101.304 185.082 101.515 185.333 99.5287 189.32L97.9146 192.558L98.6678 193.764C102.088 199.24 113.343 187.696 120.17 171.71C122.003 167.418 123.682 165.315 123.631 167.373C123.566 169.956 118.899 179.835 114.746 186.176C112.129 190.173 109.623 194.137 109.177 194.986C108.73 195.834 107.982 196.756 107.513 197.033C107.044 197.309 106.657 197.876 106.653 198.291C106.649 198.706 105.516 200.262 104.136 201.748C98.1317 208.213 104.293 207.508 111.761 200.876L115.004 197.995L115.976 198.967L116.948 199.939L116.121 202.443C115.653 203.863 115.449 206.094 115.65 207.596L116.005 210.244L112.295 214.084C107.463 219.089 96.4666 235.588 91.3714 245.482C89.8202 248.493 90.4331 249.31 92.1127 246.47C96.0091 239.883 100.599 236.499 107.388 235.21C111.918 234.35 113.66 234.846 117.442 238.075C124.303 243.93 133.274 247.301 144.732 248.329C148.254 248.645 152.133 249.391 153.542 250.024C154.926 250.647 156.289 251.106 156.569 251.046C156.85 250.985 157.841 251.357 158.772 251.873C159.702 252.388 161.551 253.239 162.879 253.764C165.924 254.968 165.654 255.769 161.356 258.281C159.476 259.379 157.394 260.879 156.729 261.614L155.52 262.95L155.627 266.826C155.799 273.071 157.363 274.612 164.25 275.323L167.424 275.65L168.303 274.591L169.182 273.532L168.441 271.484C165.968 264.643 168.794 259.029 177.668 253.156L180.252 251.446L182 251.882C182.96 252.122 184.668 253.019 185.792 253.874C188.269 255.759 191.739 257.288 194.91 257.893L197.264 258.342L196.883 255.753C196.519 253.287 191.602 243.717 186.483 235.512C183.865 231.316 181.272 225.798 180.658 223.116C180.143 220.867 181.863 220.691 182.426 222.935C183.252 226.227 192.944 241.436 200.284 250.961L203.922 255.681L205.724 255.889L207.526 256.097L207.16 253.842C206.742 251.265 201.576 240.032 200.504 239.37C199.227 238.581 199.729 237.117 201.277 237.117H202.76L206.468 242.262C208.508 245.09 211.374 248.701 212.837 250.285L215.497 253.164L215.511 251.737C215.519 250.952 214.097 248.007 212.351 245.192C210.605 242.378 209.263 239.621 209.369 239.068C209.707 237.293 212.089 237.521 213.317 239.446C215.65 243.105 218.955 247.186 219.587 247.189C219.949 247.191 221.205 248.324 222.379 249.706C225.326 253.178 225.98 252.953 226.496 248.287C227.046 243.309 228.539 238.068 229.674 237.126L230.549 236.399L231.486 238.21C232.277 239.739 235.033 249.882 235.033 251.262C235.033 252.087 228.502 258.005 226.886 258.646C226.002 258.995 223.216 259.27 220.694 259.257L216.109 259.232L211.702 261.729C205.014 265.519 198.673 267.598 190.984 268.522L186.893 269.014L182.861 267.506C177.115 265.359 172.26 266.054 174.76 268.665C175.213 269.138 176.045 270.249 176.61 271.133L177.637 272.74L176.882 275.712C175.981 279.261 174.54 280.829 171.17 281.924C166.249 283.525 168.501 285.833 174.828 285.675C176.153 285.643 179.126 286.385 181.436 287.324L185.635 289.033L191.613 289.017L197.591 289.001L202.744 287.011L207.897 285.022L213.141 285.036L218.386 285.051L225.413 282.265C236.541 277.852 244.319 272.352 246.988 267.008C248.236 264.511 248.75 264.197 251.619 264.186L254.046 264.176L253.575 263.075C253.317 262.47 252.714 260.558 252.237 258.827L251.368 255.681L252.742 254.553C255.444 252.336 258.289 255.047 258.796 260.319C259.312 265.695 257.864 268.199 252.388 271.401C251.193 272.099 247.53 274.507 244.247 276.75L238.279 280.829L237.989 282.729C237.624 285.117 237.3 284.908 242.051 285.351L246.101 285.73L248.905 284.335C250.447 283.568 253.219 281.371 255.065 279.453L258.421 275.964L262.041 276.343L265.662 276.721L267.023 273.709C267.772 272.052 268.385 270.283 268.385 269.779C268.385 269.274 268.771 268.302 269.244 267.62C273.538 261.416 273.753 218.61 269.515 213.551C269.239 213.223 269.014 212.582 269.014 212.129C269.014 209.351 256.772 195.488 250.831 191.539C241.384 185.259 236.759 183.548 218.374 179.537C202.064 175.98 196.215 173.591 184.773 165.814C175.023 159.189 175.043 159.222 168.618 138.007C164.978 125.985 164.095 119.616 165.834 117.913L166.757 117.008L169.654 117.682C171.248 118.052 173.854 118.159 175.445 117.921L178.338 117.487L179.627 115.402C182.048 111.483 181.189 108.366 176.202 102.979C170.087 96.375 166.591 88.684 165.219 78.8233C163.935 69.5912 162.031 66.7267 153.542 61.2596C146.783 56.9062 140.27 50.3404 137.044 44.6272C134.713 40.5017 129.944 29.9689 129.944 28.9488C129.944 27.7997 126.986 25.8138 124.652 25.3965L122.192 24.9573L118.264 29.0633ZM120.243 37.5516C120.025 37.9053 121.069 38.7359 122.565 39.3973L125.284 40.5998L126.469 44.6247C128.663 52.0778 130.97 56.1656 135.159 60.0224C142.37 66.6594 143.094 71.8887 136.272 68.0538C130.933 65.0528 131.135 66.9872 136.581 71.0108C138.923 72.7407 140.141 74.1427 140.498 75.5164C140.781 76.6133 141.318 77.6119 141.688 77.7353C142.474 77.997 143.406 71.1052 142.798 69.5238C142.576 68.9436 142.985 67.4888 143.723 66.2384C145.611 63.0379 145.479 62.6263 141.166 58.2504C137.033 54.0569 134.429 50.3391 131.357 44.2427C128.546 38.6654 127.608 37.797 123.877 37.3213C121.899 37.069 120.486 37.1583 120.243 37.5516ZM92.8168 54.5074C92.8168 55.9529 98.2166 60.2917 102.349 62.167C107.362 64.4418 112.954 63.2871 112.954 59.9765C112.954 58.621 111.506 58.8136 110.583 60.2911C108.984 62.8504 105.4 61.6699 95.9292 55.4639C93.5575 53.9096 92.8168 53.6818 92.8168 54.5074ZM152.762 68.9657C152.201 70.9693 152.276 79.2625 152.921 86.406C153.344 91.0998 154.858 94.9012 156.304 94.9012C157.065 94.9012 156.701 71.5149 155.912 69.6585C154.874 67.2219 153.344 66.8853 152.762 68.9657ZM159.167 92.7334C158.284 98.6228 159.392 101.071 166.492 108.921C170.478 113.327 173.453 115.38 174.994 114.789C176.303 114.286 176.072 112.259 174.549 110.888C172.727 109.249 165.908 99.2986 163.055 94.1147C160.296 89.1025 159.742 88.9055 159.167 92.7334ZM95.8097 98.7014C86.9381 99.2615 85.5002 99.5793 84.6476 101.173L83.9931 102.396L87.0986 103.499C93.5367 105.785 93.594 106.62 87.383 107.614C82.1267 108.455 81.359 108.949 82.1349 110.99L82.7119 112.507L80.9997 113.373C80.0583 113.849 77.8042 114.723 75.9913 115.316C72.6781 116.399 71.1911 117.583 72.5686 118.042C75.0064 118.855 72.2269 126.005 68.6017 128.245C64.4472 130.813 65.5126 132.715 70.414 131.481C75.8805 130.104 78.9721 128.394 79.923 126.219L80.8216 124.163L78.8488 122.456L76.876 120.75L78.5958 120.096C79.5429 119.736 81.8083 119.617 83.6357 119.832C89.3004 120.498 91.2443 118.525 87.7524 115.654C85.6557 113.931 85.6966 111.892 87.8279 111.892C89.5767 111.892 94.8915 110.01 95.9135 109.028L96.8077 108.17L96.0274 105.565C94.928 101.895 95.4963 101.713 105.078 102.671L108.215 102.984L109.64 104.641C111.35 106.629 111.447 107.483 109.965 107.498C109.359 107.504 107.694 108.283 106.264 109.229C104.835 110.174 103.136 111.272 102.489 111.669L101.312 112.391L102.131 113.242C103.817 114.995 123.547 113.082 130.476 110.495L133.841 109.239L134.724 107.124C136.854 102.027 136.098 101.673 128.788 104.34C120.634 107.316 115.969 106.37 113.855 101.311C112.35 97.7091 112.108 97.6738 95.8097 98.7014ZM145.293 103.072C141.96 108.108 127.112 117.31 122.781 117.023C121.702 116.952 117.492 116.741 113.426 116.556L106.032 116.22V117.131C106.032 118.349 109.792 120.072 112.451 120.072C114.578 120.072 116.104 120.982 116.096 122.243C116.088 123.399 111.704 125.987 106.424 127.955L101.312 129.859L101.127 131.429C101.002 132.488 101.514 133.544 102.7 134.676L104.458 136.355L107.29 135.74C108.848 135.402 111.528 134.358 113.246 133.42L116.371 131.714L116.793 129.628C117.43 126.489 121.783 122.589 124.651 122.589C125.094 122.589 126.255 122.259 127.229 121.856C128.203 121.452 129.142 121.089 129.315 121.048C129.488 121.007 130.762 120.25 132.147 119.366C133.531 118.481 135.442 117.564 136.394 117.329L138.125 116.902V118.179C138.125 121.388 133.398 128.3 130.595 129.19C129.179 129.639 126.854 133.163 125.035 137.618C122.946 142.732 123.376 143.331 127.098 140.492C128.255 139.609 129.361 139.145 129.555 139.46C129.901 140.02 129.05 148.267 128.292 151.693C127.793 153.953 128.821 153.922 130.685 151.62C131.489 150.627 132.926 149.32 133.877 148.716L135.608 147.616V149.576C135.608 152.338 137.124 152.099 139.06 149.031C139.93 147.654 140.642 146.289 140.642 145.998C140.642 145.708 141.581 144.357 142.73 142.997C148.664 135.969 149.542 133.709 147.878 129.729C146.59 126.647 146.673 126.289 148.623 126.498L150.312 126.68L150.873 124.163C151.181 122.778 151.263 119.878 151.055 117.718L150.676 113.789L151.954 111.144C154.2 106.495 152.317 107.027 148.977 111.985C144.745 118.269 143.788 120.264 143.788 122.81C143.788 124.92 141.637 130.386 140.057 132.29C139.055 133.497 139.783 134.703 141.235 134.242C141.849 134.047 142.698 134.305 143.122 134.816L143.892 135.743L140.321 139.078C133.089 145.832 128.822 146.472 132.776 140.209C133.644 138.834 134.349 136.773 134.349 135.612C134.349 134.18 134.852 133.034 135.922 132.028C137.001 131.015 137.495 129.879 137.495 128.416C137.495 126.066 138.271 124.237 140.138 122.184C140.813 121.442 141.778 119.028 142.281 116.819C142.907 114.075 143.968 111.785 145.632 109.586C148.562 105.715 150.344 102.128 149.786 101.225C148.909 99.8077 146.909 100.63 145.293 103.072ZM155.89 115.667C154.721 118.105 152.816 126.118 152.001 132.028C151.595 134.97 150.689 139.218 149.986 141.468C148.275 146.952 147.925 151.489 148.757 157.393L149.449 162.307L147.01 165.889C145.668 167.859 143.232 170.684 141.596 172.168L138.622 174.866L139.031 177.202C139.257 178.487 139.598 180.743 139.79 182.213C139.982 183.684 140.388 184.888 140.692 184.888C141.653 184.888 145.838 175.229 148.562 166.725L148.837 165.868L149.71 166.592C150.706 167.418 156.374 178.596 156.374 179.734C156.374 181.022 157.54 180.563 160.066 178.28C161.407 177.069 162.912 176.078 163.411 176.078C164.55 176.078 167.227 178.982 168.198 181.269C169.771 184.978 170.825 182.718 170.838 175.606C170.851 168.907 172.119 169.623 174.912 177.905C175.792 180.514 176.699 182.131 177.355 182.259L178.398 182.463V177.697V172.931H179.854C181.991 172.931 184.412 175.901 185.559 179.928C186.572 183.485 187.907 185.308 189.002 184.631C189.339 184.423 189.081 183.26 188.401 181.926C185.729 176.687 187.07 176.165 192.926 180.164C197.585 183.345 198.522 184.875 199.006 190.102C199.503 195.476 200.778 194.384 200.578 188.755C200.49 186.281 200.548 184.258 200.708 184.258C201.259 184.258 204.199 189.719 204.199 190.742C204.199 191.306 204.681 192.777 205.27 194.013C206.633 196.873 208.213 196.716 208.491 193.692C208.83 190.009 209.567 190.314 211.414 194.903C212.983 198.802 214.479 200.617 215.379 199.716C215.546 199.55 215.211 198.233 214.634 196.792C214.057 195.349 213.731 194.023 213.911 193.844C214.579 193.176 216.167 195.182 216.784 197.473C217.502 200.141 218.847 201.558 220.178 201.047L221.07 200.704L220.213 198.302C218.102 192.382 219.568 193.039 224.612 200.273C229.056 206.648 229.78 207.383 230.702 206.461C231.073 206.09 230.332 203.919 228.722 200.658C227.307 197.793 226.293 195.306 226.468 195.131C227.098 194.501 233.041 199.755 236.051 203.603C237.741 205.763 239.335 207.533 239.595 207.536C239.855 207.539 240.067 207.915 240.067 208.372C240.067 209.365 242.436 211.512 244.986 212.831C248.793 214.8 255.036 222.963 254.267 224.967L253.902 225.918L252.805 224.706C251.484 223.245 245.982 218.868 245.468 218.868C243.548 218.868 250.864 226.535 255.915 229.818C257.695 230.974 260.896 230.983 261.273 229.832C261.395 229.46 260.51 227.91 259.305 226.388L257.117 223.622L258.031 222.611C259.588 220.892 258.313 217.619 253.865 211.92C252.908 210.694 251.51 207.862 250.759 205.627C249.035 200.501 249.184 200.667 241.979 195.916C232.593 189.727 227.27 187.433 222.244 187.412C215.232 187.383 199.976 181.666 188.817 174.887C186.561 173.516 184.072 172.203 183.286 171.97C181.718 171.505 178.664 169.577 173.364 165.705C171.46 164.315 169.337 163.178 168.644 163.178H167.386L166.996 159.087C166.439 153.248 165.779 150.403 164.788 149.581C164.313 149.187 163.925 148.589 163.925 148.252C163.925 147.916 163.354 146.838 162.656 145.857C161.749 144.584 161.13 142.013 160.492 136.865C159.999 132.9 159.112 128.561 158.518 127.224C157.925 125.886 157.261 122.385 157.042 119.443L156.645 114.094L155.89 115.667ZM154.298 133.055C152.902 134.451 155.939 148.704 157.632 148.704H158.576L158.738 144.614C159.001 137.961 156.335 131.019 154.298 133.055ZM68.002 136.8C64.8978 137.937 62.9911 139.582 63.8192 140.41C64.21 140.801 63.8783 141.736 62.8897 143.033C61.4518 144.918 60.9082 146.502 61.6992 146.502C64.1168 146.502 71.4215 139.069 71.4215 136.608C71.4215 135.632 71.149 135.647 68.002 136.8ZM150.854 147.918C151.025 150.427 151.781 155.17 152.536 158.458C153.29 161.746 154.194 165.703 154.546 167.25C155.34 170.749 155.62 171.037 156.74 169.506C158.542 167.041 156.58 155.283 152.664 145.086C151.379 141.738 150.526 143.074 150.854 147.918ZM160.413 158.168C158.893 161.805 160.341 167.107 163.607 169.867C165.528 171.49 165.825 170.767 165.4 165.507C165.001 160.57 164.155 158.067 162.393 156.605L161.408 155.787L160.413 158.168ZM79.3088 181.899C75.9711 192.246 74.9215 205.002 77.8369 199.778C78.2887 198.969 79.7732 196.634 81.1362 194.589L83.6143 190.871L83.8912 187.534L84.1681 184.196L82.7195 182.654C81.1425 180.975 79.709 180.658 79.3088 181.899ZM129.089 198.889C128.602 199.667 128.019 202 127.793 204.072C127.566 206.144 127.108 208.112 126.774 208.446C123.908 211.312 135.315 221.462 138.464 218.848L139.383 218.086L138.996 220.02L138.609 221.954L140.301 222.379C142.753 222.995 143.453 221.981 142.523 219.163C142.019 217.638 141.881 215.002 142.124 211.58C142.623 204.543 140.902 203.794 139.52 210.447C139.251 211.74 138.696 212.91 138.286 213.046C137.103 213.44 136.608 210.099 137.335 206.632C137.702 204.883 137.765 203.201 137.476 202.895C136.926 202.314 134.355 206.007 134.352 207.384C134.35 207.817 134.103 208.171 133.802 208.171C133.124 208.171 132.478 204.434 132.468 200.462L132.461 197.473H131.217C130.533 197.473 129.575 198.111 129.089 198.889ZM108.569 206.68C101.946 212.811 100.779 215.263 105.198 213.761C108.999 212.469 111.144 210.052 112.816 205.182C113.799 202.316 112.964 202.61 108.569 206.68ZM90.929 205.343C89.7176 206.246 87.7354 207.453 86.5241 208.025C84.1989 209.122 80.3138 212.576 81.4043 212.576C81.7567 212.576 82.2198 212.293 82.4338 211.946C82.975 211.071 83.7842 211.16 83.8635 212.104C83.9 212.537 84.1083 215.156 84.326 217.925C84.7715 223.581 84.8458 223.726 87.468 224.012L89.3558 224.217L89.2224 225.476C89.1488 226.168 88.7712 228.53 88.3836 230.725L87.6782 234.716L88.4094 236.483L89.1412 238.25L90.6999 237.441C92.3769 236.571 96.5497 230.509 96.5761 228.905C96.5849 228.369 96.8536 227.661 97.1727 227.332C98.0285 226.451 98.7339 222.015 98.0184 222.015C97.6874 222.015 96.904 222.581 96.2778 223.273C95.6517 223.966 94.7097 224.532 94.1849 224.532C93.6601 224.532 92.6513 225.028 91.9434 225.633C91.2354 226.239 91.8119 225.319 93.2252 223.588C96.2281 219.91 98.6968 215.306 98.267 214.185C97.8108 212.997 94.2415 213.464 92.65 214.92C90.929 216.494 88.4119 217.353 88.4119 216.364C88.4119 215.978 89.5654 213.561 90.9756 210.992C92.3851 208.423 93.4474 205.732 93.3353 205.011L93.1315 203.702L90.929 205.343ZM146.857 209.205C146.177 209.982 145.695 212.184 145.416 215.782L144.997 221.19L145.808 221.83C147.366 223.059 150.083 223.372 150.469 222.367C150.775 221.567 150.052 217.395 148.296 209.834L147.878 208.036L146.857 209.205ZM155.573 214.862C155.372 215.186 155.012 217.179 154.774 219.29L154.34 223.129L156.761 224.774C160.669 227.43 160.879 227.027 158.911 220.656C157.587 216.37 156.165 213.902 155.573 214.862ZM256.564 237.02C255.537 237.672 256.093 239.193 258.586 242.556C259.649 243.99 260.838 245.689 261.228 246.332L261.938 247.5L262.53 244.669C263.319 240.903 262.524 238.724 259.908 237.483C257.486 236.333 257.618 236.352 256.564 237.02ZM147.17 274.323C147.387 275.405 147.564 276.496 147.564 276.747C147.564 277.283 155.796 281.167 156.931 281.167C157.356 281.167 158.466 281.986 159.398 282.987L161.093 284.808L162.509 284.267C163.287 283.968 163.925 283.297 163.925 282.775C163.925 280.153 152.055 272.357 148.062 272.357H146.777L147.17 274.323ZM132.676 277.735C127.292 280.266 124.566 283.693 126.06 286.047C126.542 286.807 127.288 286.801 137.218 285.957C138.278 285.867 139.41 285.631 139.736 285.431C140.061 285.232 143.867 285.275 148.193 285.525L156.059 285.981L156.808 284.99L157.557 283.998L156.179 283.44C151.03 281.354 145.207 278.383 144.246 277.353L143.11 276.132L139.516 276.17C137.086 276.195 134.871 276.702 132.676 277.735Z" fill="#FBFDFD"/>
</svg>
