<svg width="100%" height="100%" viewBox="0 0 500 500" xmlns="http://www.w3.org/2000/svg">
<path fill-rule="evenodd" clip-rule="evenodd" d="M375.869 71.1732C376.055 72.9185 376.288 74.6159 376.385 74.9447C376.482 75.2736 376.238 77.4297 375.843 79.7352L375.125 83.9273L375.861 83.6446C376.265 83.4894 376.734 83.7219 376.902 84.1615L377.209 84.9612L376.447 84.6681C376.027 84.5071 374.809 85.192 373.739 86.1901C372.67 87.1882 370.9 88.6964 369.808 89.5416C368.715 90.3862 367.174 91.6746 366.382 92.4033C365.59 93.1325 363.45 94.6366 361.626 95.7461C359.803 96.855 358.385 98.0764 358.476 98.4589C358.568 98.842 358.533 98.9603 358.401 98.7226C357.951 97.9183 356.527 98.283 356.527 99.2026V100.115L354.521 98.8732L352.514 97.6316L349.335 97.3033L346.156 96.9744V97.5116C346.156 97.807 347.877 98.508 349.981 99.0693L353.805 100.089L354.879 101.353L355.953 102.617L355.614 109.252C354.813 124.946 351.274 142.197 345.198 160.024C336.81 184.632 332.345 192.418 318.625 206.371L313.616 211.466L306.408 216.293C302.444 218.948 296.479 222.328 293.151 223.804C289.824 225.28 286.165 226.941 285.02 227.494L282.938 228.5L279.89 222.313L276.842 216.127L278.104 214.352C278.798 213.376 279.651 211.759 279.999 210.759L280.633 208.94L279.834 208.371L279.036 207.801L279.988 208.105L280.939 208.408L281.27 206.572C281.643 204.514 281.358 201.451 280.418 197.38L279.785 194.639L278.114 192.848C276.143 190.735 276.108 190.622 277.528 190.994C281.675 192.08 287.323 184.055 289.704 173.692L291.005 168.033L290.692 161.576L290.379 155.119L288.597 146.465C286.623 136.878 283.449 125.407 282.77 125.407C282.529 125.407 281.806 126.51 281.163 127.859C276.046 138.588 273.655 143.789 273.273 145.023C273.027 145.816 272.183 147.893 271.396 149.638C269.214 154.484 268.541 156.142 268.117 157.716C267.904 158.509 267.447 159.733 267.102 160.437L266.476 161.715L267.166 162.549L267.857 163.383L267.253 163.756C266.921 163.962 266.649 163.855 266.649 163.519C266.649 163.184 266.39 162.908 266.073 162.908C265.407 162.908 265.284 165.001 265.929 165.362C266.167 165.495 266.054 165.531 265.678 165.442C264.6 165.187 264.437 166.579 265.446 167.427L266.361 168.195L265.361 167.881L264.362 167.567L263.733 168.744C263.387 169.392 263.251 170.308 263.432 170.779L263.76 171.636L264.485 171.218L265.209 170.8L264.736 171.319C264.476 171.604 263.896 171.839 263.446 171.844C262.084 171.856 262.235 172.992 263.624 173.19C264.337 173.291 264.921 173.633 264.921 173.949V174.525L263.774 174.161C263.143 173.96 262.344 173.971 261.998 174.185L261.369 174.574L263.001 176.33L264.633 178.087L263.48 177.644C262.847 177.401 261.91 177.08 261.399 176.932L260.47 176.662L260.168 177.818L259.866 178.975L256.836 178.086L253.807 177.196L249.137 177.538C246.569 177.726 243.85 177.952 243.095 178.039L241.723 178.197L240.53 175.89C239.874 174.62 239.131 173.495 238.878 173.39C238.625 173.284 238.418 172.826 238.418 172.372C238.418 171.918 238.159 171.031 237.842 170.401C237.525 169.771 237.007 168.739 236.69 168.109C236.373 167.478 236.114 166.44 236.114 165.801C236.114 165.162 235.879 164.639 235.592 164.639C235.304 164.639 235.205 164.12 235.371 163.485L235.672 162.331H235.029C234.675 162.331 234.385 161.841 234.385 161.241C234.385 159.388 226.302 133.738 224.262 129.12L222.794 125.796L222.084 127.188C219.689 131.882 216.485 143.773 214.48 155.408L212.939 164.351L213.239 170.697L213.54 177.044L214.673 180.244C216.924 186.602 220.841 192.362 222.3 191.459C223.189 190.909 225.167 191.738 225.167 192.66C225.167 193.115 224.908 193.487 224.591 193.487C224.274 193.487 224.015 193.175 224.015 192.794V192.102L223.295 192.866L222.575 193.631L223.295 193.895C224.505 194.339 224.094 195.321 222.863 194.929L221.71 194.563V195.179C221.71 195.518 222.091 195.794 222.557 195.794H223.402L223.071 196.66L222.739 197.525H223.919C224.568 197.525 225.286 197.829 225.516 198.2L225.932 198.875L225.021 198.525L224.11 198.175L223.736 199.148L223.362 200.122L222.788 199.1C222.473 198.538 221.968 198.231 221.665 198.418C221.363 198.606 221.271 199.012 221.463 199.321C221.653 199.631 221.496 200.262 221.113 200.724L220.417 201.564H221.064C221.419 201.564 221.71 201.289 221.71 200.953C221.71 200.617 221.96 200.496 222.265 200.685L222.819 201.028L222.279 202.45L221.739 203.872H222.301C222.61 203.872 222.863 203.463 222.863 202.964V202.056L223.871 202.25L224.879 202.443L224.965 204.6L225.052 206.757H224.245C223.802 206.757 223.439 207.016 223.439 207.333C223.439 207.651 223.828 207.91 224.303 207.91C225.658 207.91 226.038 207.678 225.951 206.901C225.907 206.504 226.102 206.18 226.383 206.18C226.665 206.18 226.896 206.569 226.896 207.045C226.896 207.521 227.204 207.91 227.582 207.91C227.959 207.91 227.765 208.295 227.15 208.765L226.031 209.619L226.896 210.262L227.76 210.904L226.704 210.561C226.124 210.372 225.525 210.218 225.374 210.218C225.223 210.218 225.259 209.959 225.455 209.641C225.651 209.324 225.565 209.064 225.263 209.064C224.961 209.064 224.559 209.47 224.369 209.966C224.178 210.462 223.762 210.707 223.443 210.509C223.124 210.312 222.863 210.455 222.863 210.829V211.507L224.014 211.205C225.215 210.89 225.99 211.625 226.016 213.103L226.031 213.968H227.276C227.96 213.968 228.698 214.145 228.916 214.361C229.134 214.578 229.677 214.615 230.121 214.444L230.929 214.133V215.043V215.951L230.064 215.62L229.2 215.287V216.248C229.2 216.777 229.432 217.066 229.716 216.891C230 216.715 230.407 217.024 230.621 217.578L231.011 218.584L231.828 217.472C232.863 216.064 233.537 216.649 232.695 218.225L232.063 219.407L231.064 219.037C230.514 218.834 230.907 219.467 231.937 220.444C232.967 221.421 233.809 222.635 233.809 223.142C233.809 223.65 234.198 224.065 234.673 224.065C235.149 224.065 235.538 224.342 235.538 224.681V225.297L236.69 224.93L237.842 224.564V225.469C237.842 226.474 236.386 226.703 235.82 225.787C235.621 225.464 235.229 225.341 234.951 225.514C234.672 225.687 234.162 225.301 233.818 224.658C233.016 223.159 232.058 223.162 231.665 224.666C231.497 225.313 231.067 225.746 230.711 225.627C229.963 225.378 229.448 223.417 230.163 223.541C232.163 223.891 232.832 222.665 230.915 222.163C230.274 221.996 229.666 221.9 229.564 221.952C229.461 222.004 228.948 221.689 228.425 221.254C227.9 220.819 227.439 220.624 227.4 220.821C227.318 221.229 227.259 221.446 226.652 223.593L226.215 225.139L225.115 225.056C224.51 225.011 224.015 224.726 224.015 224.423C224.015 224.12 223.844 224.044 223.634 224.254C223.425 224.463 223.718 225.148 224.284 225.776L225.316 226.916L226.394 225.544C226.987 224.789 227.472 223.774 227.472 223.287C227.472 222.139 228.195 221.712 229.144 222.3L229.898 222.766L228.906 224.281C228.361 225.114 227.686 225.796 227.405 225.796C227.125 225.796 226.896 226.173 226.896 226.632C226.896 227.093 226.447 227.721 225.899 228.028L224.903 228.586L225.993 229.792L227.083 230.999L225.521 233.734C224.662 235.239 223.686 237.184 223.354 238.056C223.022 238.928 222.516 239.643 222.23 239.643C221.493 239.643 221.584 237.481 222.341 237.013C222.687 236.798 222.855 236.012 222.712 235.265C222.569 234.519 222.676 234.046 222.95 234.216C223.223 234.385 223.602 234.117 223.792 233.621C223.983 233.125 224.517 232.719 224.979 232.719H225.821L225.418 231.448C224.93 229.909 223.775 228.681 222.814 228.681H222.108L223.039 229.712L223.971 230.743L223.637 232.019C223.223 233.608 222.481 233.664 221.998 232.142C221.501 230.572 220.668 230.692 219.867 232.452L219.201 233.916L220.205 234.904L221.21 235.893L220.821 234.306C220.608 233.434 220.67 232.719 220.959 232.719C221.248 232.719 221.546 233.758 221.621 235.027L221.757 237.335H220.582H219.406L219.387 236.037L219.369 234.739L218.523 235.858C217.575 237.113 217.375 238.744 218.234 238.212C218.541 238.022 219.122 238.396 219.526 239.043C219.929 239.691 220.734 240.22 221.315 240.22H222.371L222.161 241.229L221.951 242.239L220.637 242.094C219.914 242.015 218.934 241.56 218.459 241.084C217.352 239.976 216.737 239.99 216.299 241.132C215.72 242.642 215.899 242.811 216.823 241.628L217.698 240.508L217.544 242.527L217.389 244.547L216.381 244.377C215.001 244.145 215.099 245.206 216.492 245.571C217.832 245.922 218.253 245.581 218.253 244.143V243.066L220.27 245.085C221.379 246.196 222.286 247.35 222.286 247.65C222.286 248.373 220.724 248.117 219.861 247.253C218.905 246.295 217.677 246.395 217.677 247.432C217.677 247.907 218.066 248.297 218.542 248.297H219.406L219.385 249.595L219.364 250.893L218.067 249.307L216.77 247.72H215.417H214.063L215.582 249.241C216.418 250.077 217.101 250.995 217.101 251.28C217.101 252.202 220.106 251.425 220.981 250.277L221.83 249.162L221.4 250.605C221.163 251.398 220.437 252.603 219.785 253.284L218.601 254.52L217.275 253.65C216.546 253.172 215.941 252.355 215.932 251.837L215.914 250.893L215.283 252.047C214.937 252.682 214.33 253.465 213.934 253.788C213.538 254.111 213.024 255.506 212.791 256.89L212.366 259.405L213.005 259.01C213.357 258.792 213.644 258.918 213.644 259.289V259.965L215.738 259.571L217.832 259.178L217.466 260.131C217.265 260.655 217.101 261.208 217.101 261.36C217.101 261.511 216.825 261.463 216.486 261.255C216.149 261.045 215.519 261.354 215.088 261.942L214.303 263.009L213.912 261.999C213.501 260.938 211.34 260.574 211.34 261.567C211.34 261.884 211.729 262.144 212.204 262.144C213.178 262.144 213.38 263.613 212.483 264.169C212.161 264.368 212.068 264.808 212.277 265.146L212.656 265.761L213.356 264.452L214.056 263.142L214.478 263.824L214.899 264.507L215.661 263.875L216.423 263.242L216.796 263.847C217.002 264.181 216.542 264.693 215.774 264.985C214.473 265.481 213.644 266.655 213.644 268.002C213.644 268.316 214.064 268.152 214.577 267.639C215.09 267.125 215.661 266.856 215.846 267.041C216.192 267.388 213.419 270.221 212.733 270.221C212.521 270.221 212.505 269.432 212.698 268.468L213.048 266.715L212.194 266.387C211.724 266.207 211.321 265.633 211.299 265.111L211.259 264.163L210.764 265.317C210.091 266.885 210.071 268.053 210.724 267.65C211.487 267.177 211.987 268.21 211.55 269.352L211.18 270.318L210.715 269.565C210.459 269.151 210.042 269.02 209.788 269.275C209.533 269.53 209.778 270.07 210.333 270.476C210.886 270.882 211.34 271.657 211.34 272.199V273.184L210.188 272.817L209.035 272.451V273.085C209.035 273.433 209.416 273.865 209.881 274.044L210.727 274.369L210.379 276.911L210.031 279.452H210.685C211.045 279.452 211.34 278.933 211.34 278.298C211.34 277.664 211.599 277.144 211.916 277.144C212.233 277.144 212.492 277.404 212.492 277.721C212.492 278.039 212.727 278.298 213.014 278.298C213.302 278.298 213.402 277.782 213.237 277.151C213.072 276.52 212.725 276.135 212.466 276.295C211.578 276.844 211.407 275.631 212.028 273.184L212.648 270.735L213.387 271.018C213.793 271.174 214.284 270.886 214.48 270.377L214.835 269.451L215.409 270.026L215.983 270.601L215.236 272.042C214.825 272.835 214.169 273.377 213.779 273.247L213.068 273.009V274.282V275.555L213.932 274.837C214.408 274.441 214.797 274.32 214.797 274.567C214.797 274.814 215.315 274.545 215.949 273.971L217.101 272.927V274.17V275.414H215.949H214.797L214.746 276.423C214.718 276.978 214.599 278.689 214.482 280.224L214.269 283.015L215.135 282.295C215.611 281.899 215.854 281.191 215.674 280.72L215.346 279.866L216.19 280.567C216.654 280.952 216.943 281.573 216.834 281.946C216.725 282.32 216.478 283.109 216.285 283.7L215.935 284.775L215.145 284.118L214.355 283.461L214.004 284.378C213.81 284.883 213.407 285.143 213.107 284.957L212.561 284.619L213.162 282.894C213.492 281.945 213.621 280.8 213.448 280.349L213.134 279.53L211.665 280.212C210.132 280.925 209.942 281.45 210.14 284.423L210.26 286.22L209.36 287.122C208.132 288.352 208.22 288.551 209.908 288.366C210.705 288.278 211.751 288.601 212.233 289.083L213.108 289.96L212.39 290.826L211.671 291.693L212.514 292.352C213.521 293.139 213.93 297.67 213.043 298.219C212.7 298.431 211.982 298.209 211.448 297.727L210.476 296.849L209.417 297.627L208.358 298.404L208.63 299.457L208.902 300.511L208.968 299.501C209.1 297.516 210.077 298.537 210.348 300.944C210.499 302.292 210.819 303.995 211.058 304.728L211.492 306.06L210.264 306.382C208.972 306.72 208.668 307.427 209.572 307.986C209.867 308.169 210.288 308.027 210.508 307.671L210.908 307.022L211.403 307.805C211.676 308.236 211.902 309.173 211.907 309.886L211.916 311.184H211.1C210.651 311.184 210.175 310.99 210.042 310.752C209.909 310.513 209.887 310.665 209.994 311.088C210.101 311.51 210.196 312.548 210.206 313.395L210.224 314.935L210.983 313.934C211.837 312.808 212.492 313.159 212.492 314.743C212.492 315.324 212.103 315.8 211.628 315.8H210.764L210.772 317.098C210.778 317.812 211.053 318.786 211.386 319.262L211.991 320.127L211.642 318.878C211.45 318.19 211.531 317.481 211.823 317.3C212.114 317.12 212.519 317.811 212.724 318.836L213.096 320.7L212.304 321.279L211.512 321.859L211.961 323.013C212.209 323.647 212.429 323.842 212.452 323.445C212.521 322.214 213.644 322.654 213.644 323.911V325.099L213.068 324.743C212.751 324.547 212.492 324.783 212.492 325.268V326.149L213.356 325.817L214.221 325.485V326.378C214.221 326.869 213.961 327.431 213.644 327.628C213.327 327.824 213.068 328.39 213.068 328.886V329.788L213.932 329.07L214.797 328.352V329.254C214.797 329.75 214.567 330.298 214.286 330.472C213.751 330.803 215.807 338.373 216.571 338.884C216.812 339.046 217.188 339.89 217.406 340.759C217.873 342.621 218.672 342.832 218.933 341.163C219.163 339.697 220.203 339.476 220.465 340.838C220.572 341.395 220.202 342.185 219.643 342.594L218.626 343.339L219.401 345.291C219.826 346.365 220.442 347.591 220.767 348.016L221.359 348.788L221.828 347.517L222.298 346.247L223.171 346.972L224.044 347.698L223.095 348.747L222.146 349.797L222.572 350.828L222.997 351.859L223.266 351.138C223.414 350.742 223.902 350.417 224.351 350.417H225.167V351.638V352.859L224.015 352.558C222.697 352.213 222.633 352.371 223.459 353.917C224.168 355.242 225.167 355.389 225.167 354.167C225.167 353.691 225.411 353.302 225.709 353.302C226.628 353.302 227.061 354.52 226.385 355.198C225.424 356.16 225.608 356.764 226.862 356.764C228.061 356.764 228.982 357.751 228.362 358.372C228.155 358.58 227.754 358.375 227.472 357.917C227.189 357.46 226.765 357.279 226.53 357.515C226.293 357.751 226.669 358.342 227.362 358.829C228.056 359.315 228.624 360.043 228.624 360.446C228.624 360.848 229.232 361.75 229.975 362.449L231.325 363.72L232.329 363.334L233.333 362.948L233.139 364.327L232.945 365.706L234.25 365.891C234.967 365.994 235.402 366.325 235.214 366.629C234.76 367.364 237.352 369.493 238.296 369.16C238.704 369.017 239.175 369.255 239.341 369.691L239.645 370.483L240.681 370.212L241.717 369.941L242.094 371.285L242.47 372.63L243.245 371.62C244.173 370.409 244.841 370.293 244.41 371.417C244.043 372.376 244.432 372.651 246.916 373.185L248.789 373.587V372.675C248.789 372.174 249.048 371.764 249.365 371.764C249.682 371.764 249.941 372.154 249.941 372.63V373.495H252.601H255.261L254.959 372.341C254.653 371.167 255.436 370.676 255.813 371.806L256.018 372.424L258.885 371.286L261.752 370.148L261.557 369.112L261.361 368.076L262.168 368.746L262.974 369.416L265.819 367.09C267.385 365.811 268.931 364.457 269.255 364.081C269.579 363.705 270.357 363.112 270.983 362.763C271.61 362.413 272.203 361.588 272.301 360.929C272.4 360.271 272.853 359.422 273.309 359.043L274.139 358.353V359.449C274.139 360.052 273.735 361.122 273.242 361.827L272.345 363.11H272.954C273.289 363.11 273.563 363.759 273.563 364.552C273.563 365.346 273.814 365.995 274.121 365.995C274.428 365.995 274.547 365.651 274.387 365.232L274.095 364.469L275.537 363.812L276.979 363.153L277.291 363.659C277.463 363.938 277.366 364.252 277.078 364.359C276.789 364.465 276.463 365.309 276.354 366.233L276.155 367.913L276.956 368.183L277.756 368.452L277.308 367.726L276.859 366.999L277.66 367.278C278.1 367.431 278.392 367.949 278.308 368.429C278.225 368.909 278.555 369.634 279.042 370.038L279.927 370.774L279.525 369.726L279.124 368.679L280.135 369.068C280.692 369.282 281.255 369.456 281.388 369.456C281.52 369.456 281.629 369.846 281.629 370.322C281.629 370.798 281.224 371.187 280.731 371.187C280.237 371.187 280.001 371.46 280.206 371.793L280.579 372.397L281.371 371.739L282.162 371.082L283.624 372.661C285.216 374.382 285.396 374.966 284.5 375.52C284.178 375.72 284.067 376.13 284.254 376.432C284.44 376.734 285.084 376.392 285.684 375.671L286.775 374.361L286.795 375.336C286.805 375.873 286.555 376.472 286.238 376.668C285.921 376.864 285.662 377.427 285.662 377.919V378.813L287.042 378.466L288.422 378.119L288.771 379.027C289.252 380.283 289.214 380.44 288.47 380.274C288.114 380.195 287.697 380.476 287.542 380.899L287.263 381.666L288.334 381.553C288.924 381.49 289.782 381.47 290.242 381.506L291.077 381.572L290.386 382.265C290.006 382.646 289.695 383.312 289.695 383.746V384.535L290.711 384.212L291.727 383.889L292.479 385.095C292.893 385.758 293.07 386.462 292.872 386.66C292.674 386.858 292.272 386.638 291.977 386.171L291.441 385.323L291.432 386.557L291.423 387.79L293.382 388.158C295.341 388.526 297.088 389.939 296.416 390.611C296.22 390.808 295.896 390.543 295.697 390.024C295.282 388.94 294.304 389.309 294.304 390.549C294.304 391.007 294.693 391.381 295.168 391.381C295.643 391.381 296.002 391.575 295.964 391.813C295.926 392.052 295.926 392.623 295.964 393.083L296.032 393.919L296.724 393.227C297.664 392.285 298.337 392.357 298.337 393.4V394.265H297.137H295.936L296.192 394.986C296.332 395.383 297.002 395.646 297.68 395.57C298.358 395.495 298.913 395.689 298.913 396.003C298.913 396.316 298.654 396.573 298.337 396.573C298.02 396.573 297.761 396.994 297.761 397.509V398.445L298.639 397.715C299.121 397.314 299.704 397.174 299.934 397.403C300.164 397.634 299.898 398.153 299.344 398.559C297.95 399.58 298.084 400.035 299.777 400.035C300.569 400.035 301.217 399.775 301.217 399.458C301.217 399.141 301.477 398.881 301.794 398.881C302.702 398.881 302.466 400.125 301.412 400.897L300.454 401.599L300.814 402.538L301.174 403.477L301.985 403.165L302.797 402.853L303.166 403.816L303.535 404.779L302.696 404.457L301.858 404.134L303.554 406.813C304.487 408.286 305.25 410.22 305.25 411.11V412.728L306.547 412.746L307.843 412.765L306.805 413.552L305.768 414.34L305.843 420.313C305.884 423.598 306.067 427.309 306.251 428.559L306.585 430.831L307.022 429.647C307.262 428.997 307.538 425.572 307.634 422.038C307.731 418.504 308.011 415.612 308.258 415.612C308.505 415.612 308.707 415.953 308.707 416.37C308.707 416.787 309.367 418.497 310.174 420.172C310.981 421.846 312.431 425.725 313.397 428.79C314.363 431.855 315.37 434.883 315.636 435.517L316.119 436.671L316.158 434.285C316.198 431.84 315.189 427.882 313.25 422.878C311.837 419.231 312.199 418.914 314.09 422.145C314.909 423.545 317.793 427.998 320.497 432.042C323.202 436.084 325.415 439.624 325.415 439.907C325.415 440.19 325.654 440.421 325.945 440.421H326.475L325.88 438.258C324.769 434.212 316.703 420.916 314.625 419.704C314.064 419.377 313.864 419.103 314.181 419.096C316.103 419.05 325.669 428.752 330.017 435.158L332.603 438.968L332.778 438.061C333.451 434.562 319.649 418.507 314.337 416.609C313.934 416.465 313.775 416.163 313.983 415.937C314.931 414.91 325.485 421.916 330.745 427.064C334.833 431.067 335.774 431.025 332.963 426.967C330.435 423.318 318.891 414.507 316.55 414.44C316.198 414.43 315.39 414.011 314.757 413.509L313.604 412.596L316.773 412.986C318.516 413.2 322.226 414.167 325.018 415.132C330.838 417.146 331.887 416.993 327.98 414.7C324.826 412.849 318.597 410.997 315.527 410.997C312.098 410.997 306.643 407.787 307.051 406.01C307.114 405.739 306.886 404.843 306.545 404.021C305.871 402.397 305.338 399.902 304.891 396.285C304.119 390.036 301.074 380.321 297.838 373.784L295.839 369.745L290.268 364.172C287.203 361.107 283.214 357.65 281.401 356.489C277.222 353.812 277.168 353.62 279.332 349.195C285.625 336.327 289.581 323.468 291.359 310.101L291.925 305.844L293.547 304.109C294.439 303.156 296.321 301.631 297.729 300.722L300.291 299.069L303.779 299.082C308.994 299.104 311.795 299.918 318.948 303.491L325.443 306.736L330.618 311.614C338.353 318.905 344.672 327.957 348.24 336.859C348.749 338.128 349.242 338.907 349.335 338.59C357.06 312.387 365.815 299.617 381.68 291.414C392.146 286.001 396.886 284.696 406.181 284.665L412.337 284.645L416.552 285.53C418.869 286.017 423.278 287.338 426.348 288.466L431.931 290.516L437.871 294.423C441.138 296.571 444.719 299.296 445.828 300.477C446.937 301.658 448.33 302.889 448.923 303.212L450 303.8L449.548 303.021C449.299 302.592 448.673 301.593 448.155 300.799C444.335 294.942 436.048 270.954 428.225 243.104C426.219 235.965 424.062 228.366 423.43 226.219C422.799 224.071 421.481 218.36 420.502 213.526C419.522 208.692 417.573 200.453 416.169 195.218C413.552 185.458 410.788 173.21 408.098 159.447C403.685 136.868 388.604 89.0587 385.895 89.0587C385.016 89.0587 385.218 89.8601 386.821 92.731C388.069 94.9678 391.404 103.649 394.831 113.579C396.347 117.968 399.806 130.326 400.645 134.349C401.109 136.571 402.244 140.854 403.167 143.869C404.09 146.884 406.036 155.451 407.491 162.908C408.947 170.365 410.477 177.895 410.892 179.64C411.308 181.385 413.008 188.395 414.671 195.218C422.143 225.869 425.008 237.766 425.372 239.643C425.588 240.753 426.292 243.148 426.938 244.963C427.583 246.78 427.973 248.792 427.805 249.436L427.499 250.606L428.067 250.255L428.634 249.904L428.466 251.553C428.373 252.459 428.658 254.759 429.1 256.663L429.903 260.124L430.156 258.98L430.408 257.837L431.513 261.288C432.121 263.187 433.256 267.596 434.036 271.086C435.619 278.167 439.61 292.218 439.944 291.883C440.062 291.765 439.473 289.147 438.636 286.066C436.043 276.538 434.808 271.257 435.102 270.962C435.394 270.669 437.948 278.821 438.645 282.269C438.862 283.343 440.295 287.043 441.829 290.491C444.549 296.604 444.767 298.238 442.474 295.318C441.851 294.525 441.199 293.876 441.025 293.876C440.852 293.876 438.426 292.499 435.635 290.815C432.844 289.132 429.653 287.46 428.544 287.099C427.435 286.739 424.713 285.79 422.495 284.992C420.276 284.193 417.641 283.529 416.637 283.515L414.813 283.491L413.631 281.904L412.448 280.318L412.421 281.472L412.394 282.625L411.836 281.76L411.278 280.895L411.268 281.946L411.26 282.996L409.675 282.833C408.804 282.743 407.79 282.452 407.422 282.186C407.054 281.921 406.618 281.924 406.452 282.192C406.287 282.46 404.315 282.743 402.07 282.82L397.989 282.961L397.409 281.639L396.83 280.318L397.142 281.904C397.314 282.777 397.211 283.491 396.915 283.491C396.617 283.491 396.009 283.632 395.562 283.803L394.749 284.116L394.059 282.793L393.37 281.472L393.609 282.732L393.848 283.993L392.996 284.321C392.527 284.501 391.907 284.502 391.619 284.324C391.331 284.146 391.095 284.303 391.095 284.672C391.095 285.042 390.727 285.204 390.279 285.031L389.462 284.717L389.095 285.675L388.728 286.632L388.192 285.783L387.656 284.933L387.647 285.663C387.642 286.063 386.227 287.037 384.502 287.828C382.777 288.618 381.183 289.562 380.957 289.927L380.549 290.589L379.772 289.526L378.996 288.463L378.991 289.583L378.986 290.703L375.39 292.985C373.413 294.239 370.608 296.532 369.159 298.078L366.522 300.891L365.562 299.547L364.602 298.203L365.23 299.711L365.858 301.218L362.506 306.346C360.663 309.166 359.068 311.595 358.962 311.745C358.855 311.894 358.499 311.635 358.169 311.168L357.57 310.319L357.94 311.447L358.309 312.575L357.274 314.62C356.705 315.745 356.109 316.795 355.951 316.954C355.486 317.419 353.083 323.249 351.491 327.772C350.681 330.072 349.841 331.955 349.623 331.955C349.406 331.955 348.628 329.294 347.897 326.041C347.165 322.788 346.458 320.436 346.324 320.814C346.191 321.193 346.752 324.282 347.569 327.68C349.196 334.439 349.158 335.714 347.447 331.858C343.645 323.293 330.613 307.449 325.234 304.851C324.224 304.364 322.302 303.253 320.962 302.382C319.621 301.511 318.25 300.799 317.914 300.799C317.578 300.799 316.342 300.318 315.166 299.731C312.21 298.253 308.424 297.399 304.275 297.274L300.762 297.169L298.541 298.548C297.32 299.306 296.191 299.887 296.032 299.838C295.874 299.789 295.096 300.627 294.304 301.7C292.641 303.954 291.708 304.26 292.218 302.386C292.412 301.672 292.73 297.713 292.925 293.587L293.279 286.087L291.467 268.269L289.656 250.45L288.523 246.356C287.266 241.813 287.093 239.968 287.975 240.514C288.298 240.714 288.391 241.151 288.183 241.488L287.806 242.1L288.606 241.837C289.046 241.691 289.488 240.879 289.589 240.031C289.776 238.448 290.49 238.02 291.152 239.094L291.526 239.699L292.279 239.073C292.693 238.728 292.9 237.937 292.737 237.314L292.441 236.181H293.084C293.438 236.181 293.728 236.592 293.728 237.094C293.728 237.597 294.052 237.893 294.448 237.752C294.844 237.611 295.106 236.941 295.031 236.262C294.887 234.968 295.772 234.534 296.162 235.706C296.286 236.079 296.698 236.194 297.077 235.959L297.765 235.533L297.412 234.126L297.059 232.719H297.637C297.954 232.719 298.369 233.125 298.559 233.621C298.996 234.762 300.065 234.148 300.065 232.756C300.065 232.179 300.474 231.367 300.973 230.952L301.881 230.197L302.349 230.955C303.006 232.019 304.215 231.112 303.816 229.854L303.487 228.817L304.321 228.497C304.78 228.321 305.305 228.566 305.487 229.042C305.968 230.299 307.091 229.367 306.675 228.055L306.325 226.95H307.18C307.651 226.95 308.166 227.274 308.326 227.671C308.485 228.068 308.637 227.7 308.662 226.853C308.686 226.008 308.383 225.199 307.987 225.057C307.591 224.916 307.479 224.573 307.738 224.297L308.21 223.794L309.245 225.169L310.281 226.544L311.774 225.449C313.798 223.965 314.06 223.077 313.062 221.075L312.215 219.374L313.198 219.574L314.181 219.774L314.135 221.054C314.06 223.15 315.314 222.533 318.275 219.017C319.811 217.192 321.333 215.501 321.658 215.26L322.246 214.82L320.025 212.744L317.804 210.669L318.655 209.817L319.506 208.965L320.152 210.819L320.798 212.674L321.695 211.928L322.593 211.182L322.917 212.424C323.096 213.108 323.471 213.525 323.752 213.351C324.673 212.782 324.287 210.82 323.111 210.084C322.477 209.688 321.958 209.061 321.958 208.691V208.018L323.255 208.336C324.956 208.753 326.058 209.644 325.663 210.283C325.49 210.565 325.622 210.795 325.957 210.795C326.293 210.795 326.568 210.511 326.568 210.163C326.568 209.816 327.104 208.776 327.761 207.853L328.954 206.175L328.083 205.84L327.212 205.506L327.841 204.123C328.188 203.362 328.961 202.585 329.56 202.394L330.649 202.048L330.278 200.796C330.074 200.108 329.499 199.223 329 198.829C328.5 198.436 328.27 197.936 328.488 197.717C328.706 197.499 329.262 197.821 329.724 198.433C330.186 199.044 330.572 199.341 330.582 199.092C330.592 198.842 331.081 198.896 331.668 199.211L332.736 199.783L332.465 198.366C332.316 197.586 331.965 196.948 331.685 196.948C331.406 196.948 331.177 196.554 331.177 196.072V195.196L332.617 195.557L334.057 195.92V194.747C334.057 194.103 334.835 192.797 335.786 191.845C337.605 190.023 337.999 188.569 336.794 188.126L336.074 187.861L336.775 187.116L337.476 186.371L337.844 187.329C338.263 188.424 339.243 188.066 339.243 186.818C339.243 186.36 338.854 185.986 338.378 185.986C337.903 185.986 337.514 185.727 337.514 185.409C337.514 185.092 337.903 184.832 338.378 184.832C339.362 184.832 339.536 183.928 338.657 183.384C337.576 182.715 338.721 181.94 340.286 182.281L341.835 182.618L341.201 182.139C340.853 181.875 340.239 181.035 339.838 180.273L339.108 178.888L340.011 179.234L340.912 179.581L340.609 178.79C340.144 177.577 341.451 175.601 342.72 175.601C344.05 175.601 344.234 174.558 342.987 174.079C341.994 173.697 341.802 171.563 342.761 171.563C343.112 171.563 343.25 171.952 343.067 172.428L342.736 173.293H343.931H345.127L344.817 172.484C344.647 172.039 344.87 171.195 345.313 170.609C345.757 170.023 346.128 169.183 346.138 168.741C346.148 168.3 346.61 167.573 347.164 167.125L348.173 166.31L346.876 166.668L345.58 167.025V166.397C345.58 166.051 346.228 165.473 347.02 165.111C348.679 164.355 348.849 163.758 347.549 163.259C346.288 162.774 346.266 162.783 346.041 163.918L345.841 164.928L345.416 164.25L344.99 163.574L346.725 162.336L348.461 161.099V162.038V162.976L349.065 162.603L349.669 162.229L349.146 161.559C348.858 161.19 348.463 160.045 348.268 159.014L347.913 157.139H349.051C350.183 157.139 350.533 156.521 349.81 155.797C349.602 155.589 349.018 155.736 348.514 156.124L347.597 156.831L348.597 155.65L349.597 154.469L348.923 153.794C347.968 152.837 348.828 152.208 349.887 153.089L350.765 153.818V152.882C350.765 152.367 350.506 151.946 350.189 151.946C349.872 151.946 349.613 151.565 349.613 151.099V150.252L350.477 150.583L351.341 150.916V149.989C351.341 149.479 351.067 149.061 350.731 149.061C350.396 149.061 350.281 148.802 350.477 148.485C350.673 148.167 351.401 147.9 352.096 147.89L353.358 147.872L352.35 147.285C351.06 146.532 351.041 145.023 352.321 145.023H353.3L352.609 144.331C351.708 143.428 351.729 142.715 352.655 142.715H353.393L353.299 139.586L353.205 136.456L354.001 136.763C354.44 136.931 354.798 136.782 354.798 136.43C354.798 136.079 354.528 135.792 354.196 135.792H353.594L353.991 133.628C354.209 132.438 354.638 131.302 354.943 131.104L355.498 130.743L354.86 130.349C353.929 129.773 354.08 128.868 355.107 128.868H355.991L355.374 127.714L354.758 126.56H355.642C356.637 126.56 356.829 125.662 355.951 125.118C355.075 124.576 355.263 123.676 356.252 123.676H357.129L356.11 122.117L355.089 120.558L356.096 120.945C356.65 121.158 357.103 121.08 357.103 120.773C357.103 120.466 356.844 120.214 356.527 120.214C355.494 120.214 355.921 118.484 356.959 118.465L357.967 118.446L356.818 117.577L355.668 116.707L356.47 116.211L357.271 115.715L356.879 114.693L356.488 113.671L357.227 113.21L357.967 112.749L357.247 111.585C356.299 110.053 356.338 109.633 357.391 110.038C358.439 110.44 358.52 109.748 357.54 108.766L356.825 108.05L357.647 107.541L358.469 107.032L357.715 106.123L356.962 105.213L357.706 104.316L358.45 103.417L357.834 103.594C357.495 103.691 357.257 103.511 357.304 103.194C357.352 102.877 357.849 102.68 358.409 102.756L359.428 102.896L358.431 101.372L357.434 99.8488L358.581 100.464L359.729 101.079L361.069 99.6844C361.806 98.9176 362.654 98.2899 362.953 98.2899C363.729 98.2899 370.354 93.5399 370.354 92.9837C370.354 92.7287 369.9 92.5123 369.346 92.5031L368.338 92.4852L369.35 91.8944C369.908 91.5696 370.589 91.4438 370.864 91.6146C371.515 92.0167 374.324 90.6061 376.017 89.0264C376.747 88.3456 377.48 87.925 377.647 88.0923C378.108 88.5544 382.608 86.4797 386.329 84.0894C390.069 81.687 389.622 80.6998 385.792 82.9015C384.431 83.6832 382.732 84.4979 382.018 84.7114L380.719 85.0997L380.369 84.1869L380.019 83.2748L382.325 80.2527C384.3 77.6651 388.214 70.6817 388.214 69.7476C388.214 68.5452 386.75 70.0955 384.28 73.9137C379.307 81.601 377.078 83.2217 377.681 78.7099C378.097 75.6106 377.382 70.3817 376.365 69.0743L375.529 68L375.869 71.1732ZM117.725 70.0955C117.954 70.8467 118.537 71.9129 119.021 72.4644C121.293 75.0567 126.543 83.625 126.119 84.0496C125.856 84.3127 123.392 83.31 120.642 81.8214C117.894 80.3329 115.515 79.2436 115.359 79.4011C114.675 80.086 118.859 83.2823 123.282 85.4533C125.925 86.7503 128.981 88.4823 130.072 89.301C131.164 90.1197 132.395 90.7895 132.809 90.7895C133.222 90.7895 133.561 91.0555 133.561 91.3809C133.561 91.7057 134.225 92.225 135.036 92.5337L136.511 93.095L136.104 93.8174L135.697 94.5397L136.472 93.8185C137.585 92.7846 138.17 92.9271 138.17 94.2333V95.3688L139.004 95.048L139.839 94.7278L141.606 96.5377C142.578 97.5329 143.645 98.1785 143.979 97.972C144.312 97.7654 144.723 98.1243 144.891 98.7688L145.197 99.9411L146.005 99.6307L146.812 99.3203V100.247C146.812 100.758 147.201 101.175 147.677 101.175C148.152 101.175 148.541 101.572 148.541 102.058C148.541 102.544 148.865 103.066 149.261 103.219C149.657 103.371 150.019 104.142 150.064 104.932L150.147 106.367H149.344C148.902 106.367 148.541 106.627 148.541 106.944C148.541 107.261 148.8 107.521 149.117 107.521C149.434 107.521 149.693 107.911 149.693 108.387C149.693 108.862 149.434 109.252 149.117 109.252C148.8 109.252 148.541 109.512 148.541 109.829C148.541 110.146 148.93 110.406 149.405 110.406C149.88 110.406 150.269 110.665 150.269 110.983C150.269 111.3 149.88 111.56 149.405 111.56C148.93 111.56 148.541 111.835 148.541 112.171C148.541 112.507 148.8 112.621 149.117 112.425C149.923 111.926 149.838 112.915 149.002 113.752L148.31 114.444H149.324H150.337L149.928 115.107C149.703 115.472 149.45 116.643 149.365 117.708L149.212 119.646L149.74 119.319C150.031 119.139 150.269 119.252 150.269 119.569C150.269 119.886 150.028 120.295 149.732 120.478L149.195 120.811L150.017 122.387C151.071 124.41 151.061 125.036 149.981 124.621C149.506 124.438 149.117 124.51 149.117 124.781C149.117 125.051 149.661 125.415 150.327 125.589C150.993 125.763 151.374 126.172 151.173 126.496C150.973 126.821 150.428 126.941 149.963 126.762L149.117 126.437V127.426V128.415L149.963 128.09C151.456 127.516 151.634 128.989 150.208 130.123L148.829 131.219L149.921 131.054C150.522 130.962 151.133 131.229 151.279 131.647L151.543 132.406L150.337 132.722C149.673 132.896 149.279 133.281 149.463 133.577L149.796 134.117L150.557 133.484L151.319 132.851L151.72 133.502L152.123 134.153L150.907 135.005C149.659 135.881 149.242 137.522 150.269 137.522C150.586 137.522 150.845 137.263 150.845 136.946C150.845 136.628 151.234 136.369 151.709 136.369C152.185 136.369 152.574 136.774 152.574 137.268C152.574 137.763 152.328 138.015 152.026 137.829C151.726 137.643 151.207 138 150.874 138.622C149.999 140.259 150.121 140.527 151.421 139.83L152.574 139.213V139.777C152.574 140.088 151.998 140.746 151.293 141.24L150.013 142.138H151.005C151.551 142.138 151.998 142.528 151.998 143.004C151.998 143.48 151.738 143.869 151.421 143.869C151.105 143.869 150.845 144.129 150.845 144.446C150.845 144.763 151.204 145.023 151.642 145.023C152.081 145.023 152.6 145.477 152.795 146.033C152.991 146.588 153.315 147.408 153.517 147.855L153.883 148.669L152.94 148.306C151.767 147.855 151.715 148.696 152.847 149.829L153.697 150.68L152.799 151.025C151.616 151.48 152.089 152.806 153.436 152.809C154.016 152.811 154.6 153.136 154.732 153.533C154.866 153.93 154.564 154.254 154.062 154.254C153.56 154.254 153.15 154.673 153.15 155.187V156.119L154.302 155.818C155.812 155.422 156.472 156.543 155.254 157.434C154.731 157.818 154.302 158.445 154.302 158.828V159.525L155.454 159.158L156.607 158.792L156.653 159.552C156.679 159.97 156.767 161.091 156.849 162.043C156.93 162.995 156.743 164.104 156.432 164.509C156.121 164.913 156.047 165.425 156.268 165.646C156.489 165.867 156.87 165.723 157.115 165.326L157.561 164.603L158.859 165.084L160.157 165.565L158.67 166.244C156.656 167.163 156.8 167.887 159.169 168.745C160.261 169.141 161.03 169.666 160.879 169.911C160.727 170.157 160.254 170.224 159.827 170.06L159.052 169.762L158.762 171.672C158.47 173.595 158.848 174.778 159.326 173.438C159.468 173.041 159.844 172.716 160.162 172.716H160.741L160.346 175.057L159.951 177.398L160.657 179.104L161.363 180.81L162.238 180.658C162.719 180.574 163.226 180.83 163.365 181.226C163.503 181.623 163.184 181.948 162.656 181.948C162.128 181.948 161.805 182.272 161.938 182.669C162.07 183.066 162.672 183.391 163.274 183.391C163.876 183.392 164.457 183.846 164.563 184.401C164.67 184.955 164.479 185.409 164.139 185.409C163.799 185.409 163.52 185.956 163.52 186.625V187.841L164.341 187.525L165.161 187.21L166.645 188.696C168.344 190.397 168.491 191.076 167.265 191.547C166.79 191.73 166.401 192.209 166.401 192.613C166.401 193.015 166.79 193.668 167.265 194.064C167.741 194.459 168.129 195.399 168.129 196.153V197.525H169.061H169.992L169.682 196.338L169.372 195.151L170.335 195.348L171.298 195.547L171.111 197.251C171.008 198.188 170.652 199.282 170.32 199.682L169.717 200.41H171.228C172.059 200.41 172.739 200.099 172.739 199.718V199.025L173.416 199.704L174.094 200.383L173.197 201.406C172.703 201.969 172.121 203.014 171.904 203.728L171.508 205.026L172.844 204.881L174.179 204.737L174.245 206.468C174.351 209.231 174.422 209.346 175.29 208.165L176.113 207.045L176.493 208.027C176.702 208.567 176.712 209.272 176.513 209.593C176.315 209.915 176.864 211.255 177.735 212.572L179.317 214.967L179.861 213.746C180.701 211.86 181.475 212.304 181.074 214.443L180.715 216.359L182.731 218.378L184.746 220.397L185.356 219.058C185.967 217.715 187.142 217.214 187.142 218.296C187.142 218.613 186.883 218.872 186.566 218.872C185.485 218.872 185.992 221.465 187.412 223.2L188.829 224.93L188.85 223.873L188.87 222.815L189.591 223.061L190.311 223.307L190.23 225.417L190.15 227.527H190.916C191.338 227.527 191.846 227.263 192.045 226.941C192.614 226.018 193.48 226.881 193.48 228.372V229.727L194.666 229.416L195.852 229.105L196.168 230.316C196.342 230.982 196.979 231.684 197.583 231.876C198.187 232.068 198.522 232.484 198.327 232.799C198.132 233.116 198.517 233.517 199.183 233.691C199.849 233.865 200.393 234.336 200.393 234.739C200.393 235.601 202.181 236.326 205.217 236.697C205.493 236.73 205.399 237.144 205.008 237.616L204.297 238.475L205.225 238.77C205.736 238.933 206.543 239.187 207.019 239.336L207.883 239.606V238.725C207.883 238.24 208.155 238.012 208.487 238.218L209.091 238.591L208.396 239.43L207.701 240.269L208.35 240.918L208.997 241.566L209.366 240.604C209.887 239.244 210.718 239.405 210.355 240.797L210.053 241.95H210.984H211.916V240.797C211.916 240.162 212.203 239.643 212.554 239.643H213.192L212.799 240.652C212.15 242.321 212.171 242.66 212.933 242.939L213.663 243.207L215.023 240.127C215.771 238.432 217.063 235.635 217.895 233.91C219.841 229.87 220.009 230.261 215.517 228.37C210.317 226.18 203.258 222.414 201.834 221.069C200.129 219.46 193.962 214.375 189.725 211.084C176.244 200.613 165.623 181.987 158.802 156.854C152.451 133.453 152.009 131.029 151.577 117.21L151.258 106.994L151.958 104.517L152.658 102.04L156.147 100.424C158.067 99.5349 160.381 98.6591 161.291 98.4768C162.2 98.2945 162.944 97.8849 162.944 97.5658V96.986L160.404 97.2727C159.006 97.4302 156.721 98.1133 155.325 98.7901C152.275 100.268 152.086 100.28 150.757 99.0757L149.715 98.1306L148.84 98.8576L147.965 99.5851V98.9857C147.965 98.6557 148.288 98.2783 148.683 98.1462L149.402 97.9062L147.999 97.1544C147.228 96.7414 146.078 95.9186 145.443 95.3272C144.81 94.7353 143.951 94.2512 143.535 94.2512C143.119 94.2512 142.779 94.0533 142.779 93.8116C142.779 93.5699 140.77 91.8448 138.314 89.9789C135.859 88.1131 133.275 85.8791 132.574 85.0154L131.298 83.445L130.904 76.4627L130.51 69.4799L129.992 69.8007C129.707 69.9766 129.518 72.836 129.57 76.1546C129.668 82.2409 129.328 83.8183 128.312 82.0003C127.057 79.7548 118.757 69.2122 118.061 68.9802L117.308 68.7287L117.725 70.0955ZM120.773 89.6853C112.058 104.531 95.718 157.083 90.9211 185.698C89.8627 192.009 85.5999 210.082 82.6201 220.892C82.1828 222.478 80.3985 228.969 78.6551 235.316C70.9487 263.37 61.0431 295.024 57.5477 302.767C55.5226 307.253 55.469 309.395 57.4803 305.464C59.2289 302.046 66.8362 294.534 70.762 292.349C76.6697 289.061 82.975 287.08 91.5502 285.816L95.9185 285.172L101.994 286.076C121.972 289.046 135.818 298.537 144.098 314.935C147.193 321.064 151.261 330.9 152.216 334.565C152.686 336.364 153.153 337.897 153.254 337.972C153.355 338.047 154.353 336.225 155.471 333.923C156.589 331.621 157.302 329.862 157.055 330.014C156.808 330.167 156.576 329.043 156.539 327.517L156.471 324.743L155.938 327.628C155.103 332.154 154.179 334.832 153.582 334.462C153.281 334.275 153.186 333.362 153.371 332.433L153.709 330.744L153.141 331.094C152.829 331.288 152.574 331.015 152.574 330.489C152.574 329.963 152.209 328.715 151.764 327.715C151.318 326.715 150.507 324.667 149.96 323.164C149.414 321.661 148.612 320.137 148.178 319.776C147.743 319.416 147.388 318.655 147.388 318.085C147.388 317.516 147.194 316.964 146.956 316.858C146.718 316.752 145.762 315.136 144.83 313.266C143.898 311.396 142.537 308.983 141.805 307.904C141.073 306.824 140.475 305.702 140.475 305.41C140.475 305.118 138.66 302.989 136.442 300.678C134.224 298.366 132.388 296.086 132.363 295.609L132.318 294.741L132.026 295.466C131.58 296.575 130.679 295.71 131.102 294.579L131.472 293.587L130.5 294.379C129.965 294.815 129.524 294.945 129.519 294.668C129.514 294.391 128.218 293.529 126.638 292.753C125.059 291.976 123.767 291.133 123.767 290.878C123.767 290.623 123.378 290.414 122.903 290.414C122.427 290.414 122.038 290.139 122.038 289.803C122.038 289.467 121.789 289.347 121.484 289.536C121.179 289.724 119.873 289.211 118.582 288.395C117.29 287.579 116.002 287.054 115.719 287.23C115.436 287.405 115.039 287.28 114.837 286.953C114.634 286.625 114.245 286.495 113.972 286.664C113.699 286.833 113.313 286.707 113.114 286.385C112.915 286.062 112.12 285.799 111.346 285.799C110.572 285.799 109.939 285.594 109.939 285.345C109.939 285.096 109.485 284.863 108.931 284.827C108.377 284.791 106.886 284.58 105.618 284.359C104.351 284.137 102.925 283.967 102.45 283.981C101.974 283.995 100.76 283.882 99.7504 283.73L97.9154 283.453L97.6683 282.174L97.4211 280.895L97.3427 282.125L97.2644 283.356L95.903 283.617L94.541 283.877L94.7657 282.675L94.9898 281.472L94.3514 282.678L93.7131 283.884L91.8879 283.969C89.3678 284.086 86.5741 284.486 85.1816 284.928L84.0132 285.3V284.573V283.847L83.293 284.768C82.6449 285.597 76.8604 288.27 73.9308 289.095C73.297 289.273 71.9535 290.032 70.9447 290.782C69.9358 291.532 68.8504 292.145 68.5329 292.145C68.2149 292.145 66.1892 293.812 64.031 295.849C61.8734 297.886 60.0464 299.492 59.9709 299.417C59.896 299.342 60.6364 297.221 61.6158 294.703C62.5953 292.186 64.398 286.751 65.6217 282.625C66.8454 278.5 68.9028 271.75 70.1939 267.625C72.3222 260.824 74.6423 253.143 75.9455 248.585C76.2175 247.633 77.1174 244.276 77.9447 241.124C78.7726 237.971 80.3196 232.389 81.3831 228.719C84.7558 217.078 90.9032 191.543 91.8268 185.334C92.8178 178.678 92.7388 179.048 96.3985 163.774C99.4059 151.219 98.8096 153.244 106.504 129.445C112.339 111.4 116.918 99.6174 120.698 92.9208C121.781 91.0013 122.591 88.8925 122.497 88.2348L122.326 87.0394L120.773 89.6853ZM388.836 104.755C388.792 105.712 391.192 113.596 395.648 127.137C396.849 130.787 398.282 135.33 398.831 137.234C400.917 144.459 402.751 150.556 403.257 151.946L403.782 153.389L403.478 151.369C403.064 148.614 400.991 141.667 396.337 127.426C395.092 123.618 392.994 116.997 391.674 112.714C388.684 103.011 388.89 103.588 388.836 104.755ZM391.207 108.098C391.369 108.574 392.085 110.732 392.798 112.895C393.511 115.057 394.196 116.723 394.322 116.598C394.601 116.318 391.826 108.043 391.294 107.572C391.083 107.385 391.044 107.622 391.207 108.098ZM384.07 109.829C384.365 110.622 385.279 115.685 386.101 121.079C386.923 126.474 388.031 133.743 388.563 137.234C389.096 140.725 389.724 145.008 389.96 146.754C390.195 148.499 390.938 152.913 391.611 156.562C392.284 160.211 393.073 165.144 393.365 167.524C393.658 169.904 394.037 172.24 394.208 172.716C394.38 173.192 394.79 176.048 395.12 179.063C395.451 182.077 396.123 187.4 396.614 190.89C397.105 194.381 397.713 199.054 397.964 201.275C398.217 203.497 398.888 208.04 399.458 211.372C400.027 214.704 400.49 218.079 400.487 218.872C400.481 220.243 401.025 223.853 402.851 234.594C403.296 237.213 403.83 240.582 404.037 242.083C404.244 243.583 405.063 247.478 405.857 250.737C406.651 253.996 407.918 260.557 408.672 265.317C410.055 274.045 411.728 281.395 411.798 279.048C411.819 278.35 411.594 276.532 411.298 275.009C411.002 273.487 410.211 268.346 409.54 263.586C408.868 258.826 407.922 253.244 407.437 251.182C406.953 249.119 406.214 245.225 405.795 242.527C405.376 239.83 404.5 234.508 403.848 230.7C402.107 220.524 399.793 204.87 399.201 199.256C397.979 187.678 390.975 142.189 390.226 140.977C390.072 140.727 389.683 137.978 389.36 134.868C388.29 124.53 385.402 110.373 384.075 108.963L383.533 108.387L384.07 109.829ZM389.995 114.685C389.909 115.551 395.899 133.769 396.073 133.169C396.16 132.867 394.84 128.464 393.14 123.387C391.439 118.31 390.024 114.394 389.995 114.685ZM389.7 119.204C390.806 122.695 392.168 126.206 392.205 125.663C392.263 124.83 389.904 117.906 389.563 117.906C389.412 117.906 389.474 118.49 389.7 119.204ZM392.883 129.445C392.883 130.44 395.607 137.531 395.654 136.657C395.671 136.34 395.055 134.393 394.285 132.33C393.514 130.267 392.883 128.969 392.883 129.445ZM220.912 133.34C219.102 138.117 218.048 142.922 218.404 144.782C218.55 145.549 218.414 146.177 218.101 146.177H217.533L217.879 147.908C218.069 148.86 218.024 149.638 217.778 149.638C217.152 149.638 215.949 158.452 215.949 163.035C215.949 165.134 215.736 166.937 215.476 167.043C215.217 167.149 215.358 169.702 215.79 172.716L216.576 178.197L218.195 181.688L219.814 185.179L222.192 187.065L224.571 188.952L225.301 188.506C225.703 188.262 227.617 186.718 229.556 185.076C231.494 183.434 233.562 181.821 234.15 181.491L235.22 180.891L233.692 171.756C230.908 155.11 224.345 129.445 222.873 129.445C222.606 129.445 221.723 131.198 220.912 133.34ZM280.189 133.827C279.405 135.602 277.698 140.47 276.395 144.644C275.092 148.819 273.554 153.663 272.977 155.408C270.651 162.443 268.39 174.264 268.382 179.429L268.378 182.39L270.648 184.444C271.896 185.574 273.734 186.921 274.733 187.438L276.548 188.378L278.73 186.932C281.429 185.143 285.363 179.256 286.686 175.024L287.678 171.851L287.656 162.908L287.633 153.966L286.321 146.177C284.872 137.566 283.013 130.599 282.165 130.599C281.862 130.599 280.973 132.051 280.189 133.827ZM398.63 142.859C398.688 143.808 400.787 149.495 400.844 148.862C400.912 148.131 399.118 142.138 398.832 142.138C398.696 142.138 398.605 142.463 398.63 142.859ZM219.793 147.394C219.394 150.775 219.88 155.277 220.7 155.784L221.257 156.129L220.764 154.182C220.492 153.111 220.338 150.482 220.421 148.34C220.601 143.729 220.284 143.25 219.793 147.394ZM278.932 151.369C278.932 153.432 279.037 154.276 279.165 153.244C279.292 152.213 279.292 150.526 279.165 149.494C279.037 148.463 278.932 149.307 278.932 151.369ZM223.862 151.946C224.035 154.009 224.27 155.805 224.384 155.937C224.785 156.403 224.471 151.063 224.012 149.638L223.548 148.196L223.862 151.946ZM217.188 164.15C217.093 165.821 219.16 176.701 219.668 177.21C220.18 177.723 220.041 176.689 218.869 171.247C218.257 168.406 217.648 165.303 217.515 164.351L217.274 162.62L217.188 164.15ZM277.986 164.351C277.741 165.303 277.414 166.601 277.259 167.235L276.978 168.389L277.898 166.77C278.405 165.878 278.732 164.58 278.625 163.885L278.43 162.62L277.986 164.351ZM372.536 182.525C372.675 183.477 372.976 184.255 373.204 184.255C373.432 184.255 373.619 183.477 373.619 182.525C373.619 181.573 373.318 180.794 372.951 180.794H372.282L372.536 182.525ZM410.396 182.813C410.603 183.448 411.188 186.031 411.698 188.555C412.206 191.078 412.726 192.832 412.852 192.452C413.15 191.558 411.376 183.739 410.609 182.562L410.021 181.659L410.396 182.813ZM263.908 191.582C263.192 191.722 261.701 193.025 260.595 194.476L258.583 197.115V199.872V202.63L260.092 204.425C262.086 206.797 264.348 207.91 267.177 207.91H269.489L271.491 206.151C278.1 200.34 272.647 189.863 263.908 191.582ZM235.932 192.596C233.087 193.606 231.698 194.901 230.918 197.269L230.288 199.181L230.911 201.498L231.533 203.813L233.392 205.141L235.25 206.468L237.93 206.427L240.611 206.386L242.155 205.372C248.844 200.984 243.457 189.925 235.932 192.596ZM238.763 196.796C238.004 197.555 238.486 198.679 239.571 198.679C240.204 198.679 240.723 198.317 240.723 197.876C240.723 197.005 239.323 196.234 238.763 196.796ZM266.129 197.169L265.467 197.967L266.254 198.27C267.321 198.68 268.62 197.809 268.129 197.013C267.598 196.152 266.929 196.205 266.129 197.169ZM412.477 198.102C412.456 198.578 412.928 200.785 413.526 203.006C414.123 205.228 414.63 206.656 414.652 206.18C414.673 205.704 414.201 203.497 413.603 201.275C413.006 199.054 412.499 197.626 412.477 198.102ZM362.692 201.929C361.904 202.717 362.304 203.373 363.463 203.191C364.109 203.089 364.642 202.747 364.646 202.429C364.655 201.727 363.253 201.368 362.692 201.929ZM223.59 203.436L223.938 204.343L222.422 204.724L220.906 205.105L221.689 205.589L222.471 206.073L223.531 205.411C224.738 204.656 224.91 203.56 223.917 202.946L223.243 202.529L223.59 203.436ZM249.144 206.181C246.626 208.973 246.605 209.349 248.751 213.32C250.732 216.987 250.675 217.129 247.477 216.509C244.303 215.894 244.18 215.895 244.18 216.514C244.18 216.804 245.193 217.211 246.431 217.421C247.669 217.631 249.16 218.165 249.744 218.608C251.53 219.963 256.279 219.478 256.279 217.94C256.279 217.501 256.733 217.13 257.287 217.116C257.841 217.101 259.073 216.72 260.024 216.27L261.752 215.45L259.447 215.752C258.18 215.918 256.559 216.174 255.847 216.321L254.55 216.587V215.361C254.55 214.687 255.198 213.364 255.991 212.421C257.66 210.434 257.752 209.628 256.57 207.34C254.529 203.388 252.017 202.996 249.144 206.181ZM124.631 209.252C123.997 209.937 122.871 211.408 122.129 212.521L120.78 214.545L122.706 212.523C125.745 209.331 126.868 207.906 126.305 207.958C126.018 207.985 125.265 208.567 124.631 209.252ZM136.59 211.348C136.203 211.969 134.428 213.412 132.644 214.554C130.861 215.696 129.561 216.79 129.756 216.985C129.95 217.179 130.691 216.827 131.403 216.201C132.114 215.576 133.779 214.342 135.102 213.458C136.426 212.574 137.649 211.484 137.821 211.035C138.286 209.822 137.402 210.046 136.59 211.348ZM355.879 214.748C357.166 216.288 358.681 217.911 359.244 218.354C359.808 218.798 358.883 217.539 357.189 215.555C355.494 213.572 353.98 211.949 353.823 211.949C353.667 211.949 354.592 213.209 355.879 214.748ZM226.613 218.661C226.134 219.14 225.743 219.831 225.743 220.196C225.743 220.561 226.147 220.283 226.64 219.578C227.673 218.102 228.624 217.901 228.624 219.161C228.624 219.637 228.883 220.026 229.2 220.026C229.517 220.026 229.776 219.563 229.776 218.995V217.964L228.629 217.878C227.998 217.83 227.09 218.182 226.613 218.661ZM376.696 218.281L375.837 218.825L376.576 219.565L377.316 220.305L377.859 219.445C378.91 217.779 378.359 217.228 376.696 218.281ZM408.168 219.449C408.456 221.241 409.828 226.26 410.453 227.815C411.169 229.594 409.87 223.49 408.944 220.724L407.842 217.43L408.168 219.449ZM419.378 220.778C419.307 222.186 421.182 230.272 421.411 229.546C421.511 229.229 421.106 226.892 420.511 224.354C419.917 221.815 419.407 220.206 419.378 220.778ZM414.451 222.046C414.652 222.998 415.036 225.075 415.304 226.661C416.165 231.768 417.189 235.911 417.423 235.234C417.549 234.872 417.251 232.844 416.76 230.727C416.27 228.61 415.869 226.275 415.869 225.538C415.869 224.801 415.467 223.324 414.977 222.256L414.084 220.315L414.451 222.046ZM238.191 223.39C238.003 223.695 238.264 224.104 238.771 224.299L239.693 224.653L239.333 226.09L238.973 227.527H239.56C239.882 227.527 240.147 227.137 240.147 226.661C240.147 225.486 241.114 225.568 241.803 226.801C242.112 227.354 242.54 227.63 242.754 227.416C243.137 227.032 242.209 225.931 239.772 223.879L238.533 222.836L238.191 223.39ZM221.707 227.245C221.373 228.126 220.962 229.069 220.795 229.341C220.627 229.612 220.765 229.835 221.1 229.835C221.435 229.835 221.71 229.477 221.71 229.039C221.71 228.603 222.074 227.943 222.519 227.573L223.327 226.902L223.592 227.647C223.738 228.057 224.024 228.239 224.227 228.052C224.431 227.865 224.085 227.246 223.457 226.678L222.316 225.644L221.707 227.245ZM227.791 227.281L226.669 228.108L227.268 228.707L227.866 229.307L228.588 228.436C228.985 227.957 229.22 227.316 229.111 227.01L228.912 226.454L227.791 227.281ZM234.369 227.795L235.069 228.64L233.957 230.247C233.346 231.131 232.659 232.179 232.429 232.575L232.013 233.296H232.775C233.194 233.296 233.987 232.258 234.536 230.988C235.085 229.719 235.859 228.673 236.256 228.662L236.978 228.644L235.86 227.797C234.416 226.703 233.463 226.702 234.369 227.795ZM420.178 231.565C420.344 232.359 420.642 233.987 420.842 235.184C421.042 236.381 421.459 237.517 421.767 237.708L422.33 238.056L421.907 236.13C421.675 235.07 421.123 233.285 420.681 232.163L419.879 230.123L420.178 231.565ZM81.231 234.825C80.1681 239.095 80.0476 239.805 80.4757 239.293C81.0645 238.588 82.3868 233.206 82.0532 232.872C81.9051 232.724 81.5352 233.603 81.231 234.825ZM226.128 234.835C225.916 235.046 225.743 235.557 225.743 235.97V236.722L226.607 236.39C227.083 236.207 227.472 236.28 227.472 236.552C227.472 237.337 231.094 237.125 231.361 236.325L231.601 235.603L230.715 235.944C230.228 236.131 229.242 235.871 228.523 235.367C227.076 234.353 226.694 234.267 226.128 234.835ZM417.671 237.046C417.657 237.681 418.002 239.628 418.437 241.374C418.872 243.119 419.239 244.028 419.253 243.393C419.266 242.758 418.921 240.811 418.486 239.066C418.051 237.32 417.684 236.412 417.671 237.046ZM223.439 239.416V240.343L224.333 239.999C224.825 239.811 225.87 240.077 226.656 240.593C228.114 241.549 229.043 241.367 228.36 240.258C228.151 239.92 227.477 239.643 226.862 239.643C226.246 239.643 225.743 239.383 225.743 239.066C225.743 238.748 225.225 238.489 224.591 238.489H223.439V239.416ZM140.475 240.528C140.475 241.016 140.034 242.119 139.496 242.98L138.516 244.547L140.018 243.199C140.843 242.458 141.648 241.354 141.807 240.747L142.095 239.643H141.285C140.839 239.643 140.475 240.041 140.475 240.528ZM279.718 242.326C279.104 242.94 279.256 244.835 279.918 244.835C280.77 244.835 281.307 243.128 280.658 242.479C280.358 242.178 279.934 242.109 279.718 242.326ZM229.031 245.836C228.581 246.637 228.02 249.451 228.31 249.451C228.467 249.451 228.989 248.687 229.471 247.753L230.348 246.055L229.814 245.724C229.52 245.542 229.168 245.592 229.031 245.836ZM280.572 249.531C280.678 250.28 281.024 250.829 281.341 250.749C282.191 250.536 282.041 248.723 281.148 248.425L280.38 248.168L280.572 249.531ZM404.428 255.341C405.51 258.822 406.075 260.037 406.075 258.883C406.075 257.727 404.3 252.375 403.817 252.076C403.542 251.906 403.817 253.375 404.428 255.341ZM421.1 252.224C421.029 253.39 422.307 258.331 422.828 258.908C423.083 259.191 422.905 257.893 422.433 256.023C421.392 251.907 421.159 251.242 421.1 252.224ZM213.948 254.761L213.542 255.744L214.397 256.967L215.252 258.19L215.63 257.578L216.007 256.967L218.058 257.293L220.108 257.619L219.839 256.852C219.691 256.431 219.144 256.122 218.623 256.166C218.103 256.21 217.677 256.015 217.677 255.733C217.677 255.451 217.051 255.22 216.285 255.22C215.519 255.22 214.772 254.896 214.624 254.499L214.355 253.778L213.948 254.761ZM421.054 258.808C421.054 259.336 421.27 259.901 421.534 260.064C421.797 260.228 422.342 262.207 422.745 264.462C423.147 266.719 423.584 268.457 423.715 268.325C424.237 267.803 422.819 260.371 421.965 259.15L421.054 257.848V258.808ZM218.253 259.85C218.253 260.175 218.918 260.694 219.731 261.004C221.654 261.736 221.71 261.727 221.71 260.663V259.758L220.558 260.124L219.406 260.491V259.875C219.406 259.536 219.146 259.259 218.83 259.259C218.513 259.259 218.253 259.525 218.253 259.85ZM417.657 260.124C417.637 260.759 417.981 262.576 418.421 264.163C419.462 267.91 419.515 266.273 418.486 262.144C418.051 260.398 417.679 259.49 417.657 260.124ZM86.1144 263.153C85.9594 263.708 85.6506 264.812 85.4276 265.605C84.8682 267.595 85.5198 266.855 86.5949 264.278C87.0846 263.104 87.2402 262.144 86.9406 262.144C86.6404 262.144 86.2688 262.598 86.1144 263.153ZM156.935 264.386C156.787 264.626 157.185 265.268 157.821 265.813L158.975 266.803L158.616 267.935C158.154 269.393 158.693 269.398 159.471 267.944L160.072 266.82L158.638 265.384C157.85 264.595 157.084 264.146 156.935 264.386ZM428.544 266.638C428.544 267.852 430.348 273.808 431.314 275.783C431.913 277.008 432.703 278.659 433.07 279.452L433.736 280.895L433.376 279.452C433.177 278.659 432.426 276.712 431.705 275.125C430.985 273.538 430.083 270.878 429.7 269.211C429.085 266.531 428.544 265.327 428.544 266.638ZM309.294 267.48C309.352 268.243 312.082 276.114 312.117 275.618C312.18 274.735 309.885 267.336 309.548 267.336C309.403 267.336 309.289 267.401 309.294 267.48ZM140.475 269.166C140.475 269.537 140.904 270.316 141.428 270.897C141.953 271.477 142.113 271.952 141.784 271.952C141.455 271.952 141.039 272.536 140.86 273.25L140.535 274.548L141.657 273.186C142.99 271.569 143.077 270.437 141.956 269.315C140.957 268.314 140.475 268.265 140.475 269.166ZM70.9158 275.576C70.5569 276.915 70.0891 278.464 69.8753 279.02C69.6616 279.575 69.7146 280.029 69.9934 280.029C70.5033 280.029 72.1851 273.761 71.7829 273.359C71.6642 273.24 71.2742 274.238 70.9158 275.576ZM361.136 273.436C361.136 273.918 364.083 278.875 364.369 278.875C364.503 278.875 363.955 277.577 363.152 275.991C361.84 273.397 361.136 272.505 361.136 273.436ZM331.753 278.377C331.753 278.526 332.641 281.231 333.728 284.387C334.814 287.543 337.957 296.823 340.712 305.008C345.817 320.177 347.953 324.926 344.099 312.543C338.526 294.629 331.753 275.887 331.753 278.377ZM138.491 281.131C138.03 281.877 138.764 283.548 139.383 283.165C140.069 282.74 140.047 280.606 139.356 280.606C139.058 280.606 138.669 280.842 138.491 281.131ZM70.2873 284.025C69.9145 285.095 69.6282 286.387 69.6501 286.894C69.6725 287.403 70.066 286.793 70.5241 285.539C70.9827 284.286 71.269 282.995 71.1607 282.67C71.053 282.345 70.6595 282.955 70.2873 284.025ZM214.797 285.751C214.797 286.095 214.408 286.376 213.932 286.376C213.457 286.376 213.068 286.786 213.068 287.289V288.203L213.788 287.866C214.185 287.681 214.973 287.367 215.54 287.168C216.108 286.969 216.481 286.53 216.368 286.194C216.087 285.347 214.797 284.983 214.797 285.751ZM151.3 291.468L149.739 294.252L150.221 295.939L150.704 297.626L151.166 296.507L151.629 295.388L150.991 295.175L150.353 294.962L150.924 293.321C151.238 292.419 151.997 291.225 152.611 290.669C153.746 289.641 154.075 288.683 153.294 288.684C153.056 288.685 152.159 289.937 151.3 291.468ZM214.533 289.602L213.418 290.418L214.011 291.013C214.76 291.763 216.525 291.12 216.525 290.098C216.525 288.9 215.754 288.708 214.533 289.602ZM209.461 290.096C208.443 290.842 208.013 292.489 208.996 291.881C209.29 291.699 209.697 291.817 209.899 292.145C210.427 293 211.34 292.269 211.34 290.991C211.34 289.529 210.671 289.21 209.461 290.096ZM214.414 293.626C214.223 294.124 214.333 294.797 214.658 295.122L215.249 295.714L216.567 295.007L217.885 294.301L216.807 293.511C215.409 292.488 214.84 292.515 214.414 293.626ZM209.516 293.735C208.382 293.979 207.697 295.423 208.484 295.911C208.788 296.098 209.035 295.945 209.035 295.571V294.889L209.928 295.631L210.821 296.373L211.647 295.546L212.474 294.719L211.475 294.124C210.925 293.796 210.044 293.621 209.516 293.735ZM145.303 294.714C145.127 295.175 145.15 295.824 145.355 296.156C146.026 297.244 146.812 296.791 146.812 295.318C146.812 293.754 145.822 293.358 145.303 294.714ZM214.797 297.957V299.153L215.799 298.96C216.349 298.854 216.887 298.316 216.993 297.764L217.186 296.761H215.991H214.797V297.957ZM176.327 298.906C175.997 299.789 175.576 300.979 175.392 301.551L175.056 302.59L175.584 302.264C176.225 301.867 177.57 297.945 177.194 297.569C177.047 297.421 176.657 298.023 176.327 298.906ZM196.291 298.753C196.159 298.885 195.408 299.1 194.621 299.231C192.99 299.501 191.342 300.063 189.879 300.846L188.87 301.386V300.804C188.87 300.484 188.352 300.742 187.718 301.376C187.084 302.011 186.172 302.53 185.691 302.53C185.21 302.53 183.11 303.569 181.023 304.838C178.937 306.107 177.062 307.153 176.857 307.162C176.652 307.171 175.719 307.958 174.785 308.911C173.851 309.864 172.762 310.519 172.366 310.366C171.969 310.214 171.504 310.531 171.331 311.07C171.158 311.609 170.338 312.829 169.508 313.781L167.997 315.512L168.397 313.637C168.95 311.043 168.306 311.273 167.588 313.925C167.266 315.115 166.409 316.738 165.684 317.531C163.058 320.404 160.187 324.206 159.256 326.041C157.877 328.761 158.442 328.341 160.554 325.078C165.501 317.432 175.536 308.703 184.313 304.411C192.69 300.314 197.581 299.854 203.562 302.6C205.146 303.328 206.702 304.034 207.019 304.171C207.336 304.308 206.986 303.756 206.242 302.945C204.481 301.025 197.119 297.924 196.291 298.753ZM211.168 300.01C210.946 300.233 210.764 300.761 210.764 301.184V301.953H212.246H213.729L213.536 300.95C213.334 299.9 211.861 299.315 211.168 300.01ZM215.757 300.607C215.546 300.818 215.373 301.489 215.373 302.098V303.204L216.093 302.966C216.927 302.691 217.438 300.222 216.661 300.222C216.375 300.222 215.968 300.396 215.757 300.607ZM219.508 302.915C219.61 303.444 220.018 303.985 220.414 304.117L221.134 304.357V303.155V301.953H220.228H219.321L219.508 302.915ZM212.572 303.058L211.804 303.533L212.297 306.638L212.791 309.742H213.65C214.122 309.742 214.592 309.158 214.693 308.444L214.877 307.146H213.973C212.895 307.146 212.857 306.893 213.725 305.5L214.382 304.447L213.861 303.515L213.34 302.583L212.572 303.058ZM215.949 306.04V307.242L216.669 307.002C217.065 306.87 217.473 306.329 217.575 305.8L217.762 304.838H216.855H215.949V306.04ZM154.014 309.454L152.971 310.608H153.698H154.425L154.042 311.617L153.658 312.627L154.194 312.05C154.742 311.46 155.646 308.3 155.267 308.3C155.151 308.3 154.587 308.819 154.014 309.454ZM213.068 312.579V314.069H213.973H214.877L214.693 312.816C214.592 312.127 214.185 311.456 213.788 311.326L213.068 311.088V312.579ZM216.525 313.492V314.646H217.389H218.253V313.492V312.338H217.389H216.525V313.492ZM213.748 316.476C213.849 317.165 214.257 317.836 214.653 317.967L215.373 318.204V316.713V315.223H214.468H213.564L213.748 316.476ZM216.882 316.693C216.431 317.871 216.904 318.685 218.04 318.685H218.91L218.726 317.432C218.497 315.879 217.368 315.426 216.882 316.693ZM229.785 316.81C229.79 317.365 230.016 318.172 230.289 318.602L230.784 319.385L231.182 318.741C231.675 317.942 231.043 315.8 230.314 315.8C230.018 315.8 229.78 316.255 229.785 316.81ZM221.134 318.396V319.935L221.854 319.694C222.251 319.562 222.575 318.978 222.575 318.396C222.575 317.815 222.251 317.23 221.854 317.098L221.134 316.858V318.396ZM214.017 319.125C213.868 319.367 214.079 320.189 214.487 320.952L215.229 322.34L215.903 321.077C216.844 319.318 215.046 317.457 214.017 319.125ZM270.939 319.312C270.726 319.657 270.851 320.239 271.217 320.605L271.882 321.271L272.397 320.438C272.946 319.549 272.669 318.685 271.834 318.685C271.555 318.685 271.152 318.967 270.939 319.312ZM225.542 320.109C225.172 321.073 226.031 321.816 226.896 321.281C227.757 320.748 227.59 319.262 226.669 319.262C226.228 319.262 225.72 319.643 225.542 320.109ZM217.889 322.002C218.089 323.193 218.419 325.536 218.622 327.211C218.826 328.886 219.217 330.395 219.491 330.565C220.219 331.015 220.754 329.239 220.246 328.06C220.007 327.505 219.867 326.471 219.936 325.762C220.006 325.053 219.859 324.145 219.611 323.743C219.363 323.341 219.235 322.298 219.326 321.426L219.493 319.839H218.51H217.526L217.889 322.002ZM215.141 323.21C214.975 323.478 214.994 324.646 215.182 325.807L215.524 327.916H216.268H217.013L216.913 325.32L216.813 322.723H216.127C215.75 322.723 215.305 322.943 215.141 323.21ZM230.122 324.224C229.652 325.45 230.038 325.853 231.24 325.391C231.755 325.193 232.074 324.723 231.949 324.346C231.581 323.241 230.525 323.171 230.122 324.224ZM215.949 329.599V330.801H216.855H217.762L217.575 329.839C217.473 329.31 217.065 328.769 216.669 328.637L215.949 328.397V329.599ZM269.211 330.851C268.998 331.196 269.09 331.745 269.415 332.07C270.142 332.798 271.258 332.183 271.258 331.055C271.258 330.084 269.775 329.936 269.211 330.851ZM216.093 332.625C217.852 333.269 218.125 333.967 216.813 334.471C215.477 334.984 215.792 335.993 217.288 335.993H218.628L218.585 333.976L218.542 331.958L216.525 332.002L214.509 332.046L216.093 332.625ZM219.677 333.536C219.895 334.405 220.373 335.302 220.74 335.529C221.636 336.083 222.445 334.517 221.995 333.097L221.633 331.955H220.457H219.281L219.677 333.536ZM223.798 334.573L223.458 335.46L224.337 335.798C225.465 336.231 225.979 335.71 225.545 334.576C225.107 333.435 224.235 333.433 223.798 334.573ZM228.278 334.493C228.067 335.044 228.18 335.779 228.528 336.128L229.162 336.763L229.546 335.763C229.757 335.212 229.644 334.477 229.296 334.127L228.662 333.493L228.278 334.493ZM220.988 337.291C220.654 338.284 221.158 340.032 221.778 340.032C222.057 340.032 222.286 340.551 222.286 341.186C222.286 341.821 222.579 342.34 222.936 342.34H223.586L223.203 339.943C222.677 336.647 221.627 335.39 220.988 337.291ZM225.267 339.835C225.509 341.098 227.184 341.276 227.184 340.04C227.184 339.568 226.707 339.09 226.123 338.978L225.062 338.773L225.267 339.835ZM272.804 339.253C272.19 339.868 272.342 341.763 273.004 341.763C273.857 341.763 274.393 340.056 273.745 339.407C273.444 339.105 273.021 339.036 272.804 339.253ZM223.536 344.164L223.727 345.513H224.591H225.455V344.367V343.221L224.4 343.018L223.345 342.814L223.536 344.164ZM226.991 344.105C227.097 344.83 227.529 345.537 227.952 345.676L228.721 345.93L228.528 344.613C228.422 343.888 227.99 343.182 227.567 343.042L226.799 342.788L226.991 344.105ZM224.695 347.632C224.796 348.32 225.203 348.991 225.599 349.122L226.319 349.36V347.869V346.378H225.415H224.511L224.695 347.632ZM230.143 350.131C229.577 351.608 229.701 352.148 230.606 352.148C231.892 352.148 232.311 350.977 231.364 350.028L230.51 349.174L230.143 350.131ZM226.319 350.635C226.319 351.072 226.705 351.75 227.177 352.142L228.034 352.855L228.38 351.952C228.57 351.456 228.558 350.777 228.353 350.445C227.81 349.565 226.319 349.704 226.319 350.635ZM220.247 351.194L221.309 351.972L220.536 352.45L219.762 352.929L219.528 352.226L219.294 351.523L218.486 352.195C218.041 352.564 217.677 352.705 217.677 352.509C217.677 352.313 216.512 353.384 215.087 354.891L212.497 357.629L213.359 357.815C214.269 358.013 214.474 358.625 213.841 359.259C213.633 359.468 213.138 359.369 212.742 359.04L212.022 358.441L209.411 362.074L206.801 365.706L207.63 365.893C208.824 366.161 208.655 367.232 207.451 367.03L206.443 366.86L206.591 368.222L206.739 369.583L205.931 369.272L205.123 368.962L203.564 372.44L202.006 375.918L202.64 376.552C203.56 377.474 203.419 378.373 202.477 377.59L201.68 376.927L201.343 377.807C201.157 378.292 201.257 378.688 201.563 378.688C202.62 378.688 202.12 380.284 200.969 380.586C200.336 380.751 199.817 381.171 199.817 381.518C199.817 381.865 200.336 382.149 200.969 382.149C201.603 382.149 202.122 382.425 202.122 382.763C202.122 383.1 201.539 383.295 200.825 383.195L199.529 383.015L199.334 384.394L199.14 385.774L200.054 385.422L200.969 385.07V385.957V386.843L199.885 386.498L198.801 386.153L198.549 387.871C198.411 388.816 198.509 389.458 198.769 389.297C199.028 389.136 199.241 389.437 199.241 389.966V390.927L198.395 390.602C197.36 390.205 196.638 391.161 197.653 391.584L198.377 391.885L197.258 392.787L196.14 393.688L197.206 394.469L198.272 395.25L197.305 396.633C196.773 397.393 196.023 398.015 195.637 398.015C195.251 398.015 194.848 398.47 194.741 399.025L194.547 400.035H195.454C195.952 400.035 196.36 400.306 196.36 400.637C196.36 400.968 195.916 401.163 195.373 401.07L194.386 400.9L194.165 401.978L193.945 403.056L194.576 402.665C194.924 402.451 195.208 402.519 195.208 402.818C195.208 403.117 194.688 403.498 194.053 403.664L192.899 403.967L193.251 404.885L193.603 405.804H192.965C192.614 405.804 192.327 406.238 192.327 406.768C192.327 407.299 191.884 408.223 191.342 408.823L190.357 409.913L191.181 410.424C191.635 410.704 191.805 411.135 191.559 411.382C191.313 411.627 190.898 411.481 190.635 411.056L190.159 410.283L184.473 412.319C175.23 415.627 168.054 419.191 168.91 420.047C169.168 420.307 174.075 418.502 179.364 416.205C180.626 415.656 186.04 413.882 186.451 413.882C186.592 413.882 186.384 414.271 185.99 414.747C185.595 415.223 185.054 415.612 184.787 415.612C182.194 415.612 169.736 425.684 166.629 430.293C163.912 434.323 164.619 434.232 169.127 429.974C173.01 426.306 185.414 416.515 185.414 417.118C185.414 417.293 184.157 418.907 182.622 420.706C177.234 427.02 172.209 434.997 169.881 440.929C168.032 445.641 168.726 445.074 173.187 438.229C177.373 431.807 188.538 417.92 189.516 417.92H190.063L189.464 419.042C189.134 419.659 188.647 420.298 188.382 420.462C188.117 420.626 186.528 424.163 184.852 428.323L181.805 435.884L182.402 436.482L182.998 437.08L186.511 430.054C188.442 426.189 190.028 422.722 190.035 422.349C190.042 421.976 190.514 421.065 191.083 420.324L192.118 418.977L191.426 424.939C191.045 428.219 190.31 432.692 189.791 434.881C188.35 440.959 189.796 440.939 191.862 434.853L193.007 431.479L193.325 424.972C193.499 421.393 193.851 418.336 194.106 418.178C194.674 417.826 195.773 421.611 195.79 423.978C195.796 424.93 196.021 426.055 196.289 426.479L196.776 427.248L197.072 426.477C197.536 425.265 195.999 415.971 195.022 414.079L194.141 412.373L195.251 409.891C195.861 408.526 196.36 407.04 196.36 406.588C196.36 406.137 196.764 405.613 197.257 405.424C197.751 405.234 198.026 404.742 197.868 404.33C197.71 403.918 197.954 403.27 198.411 402.891C198.868 402.512 199.241 401.871 199.241 401.469C199.241 401.065 199.657 400.575 200.166 400.38L201.091 400.024L200.735 398.602L200.379 397.181L201.158 397.48C201.586 397.645 202.244 397.409 202.62 396.955L203.303 396.131L202.434 395.797L201.565 395.463L201.905 394.576C202.36 393.388 203.138 393.451 203.408 394.698L203.626 395.708L205.249 392.558L206.872 389.409L206.225 389.193C205.869 389.074 205.578 388.447 205.578 387.8V386.624L206.402 387.308L207.227 387.993L207.843 386.84C208.669 385.293 208.62 385.008 207.595 385.402L206.731 385.735V384.904C206.731 383.66 207.394 383.235 208.238 383.936L208.988 384.559L209.391 382.952L209.793 381.345L209.126 381.122C208.759 380.999 208.459 380.609 208.459 380.255V379.611L209.15 380.303C210.17 381.324 210.598 381.158 210.991 379.592C211.184 378.819 211.887 378.015 212.551 377.803L213.76 377.419L213.126 376.784C212.182 375.839 212.358 375.299 213.512 375.601L214.532 375.868L215.859 374.071L217.186 372.273L216.485 371.428C215.621 370.385 216.283 369.56 217.226 370.505C218.21 371.49 218.907 371.344 218.711 370.191L218.542 369.195L219.694 369.182L220.846 369.168L221.034 367.839L221.222 366.509L222.619 365.978L224.015 365.447V364.253C224.015 363.596 224.339 363.101 224.735 363.153C226.293 363.356 226.772 363.055 227.028 361.712L227.295 360.314L226.231 360.035L225.167 359.756V358.568C225.167 357.915 224.384 356.577 223.425 355.596C222.467 354.614 221.831 353.572 222.012 353.281C222.526 352.447 221.198 350.417 220.14 350.417H219.186L220.247 351.194ZM232.081 353.831V355.033H232.987H233.894L233.707 354.071C233.605 353.542 233.197 353.001 232.801 352.869L232.081 352.629V353.831ZM230.131 356.079C229.698 356.78 230.284 358.494 230.956 358.494C231.945 358.494 232.186 357.199 231.353 356.364L230.489 355.499L230.131 356.079ZM236.691 362.616L236.693 363.398L238.419 363.46C239.37 363.494 240.147 363.299 240.147 363.027C240.147 362.755 239.779 362.533 239.33 362.533C238.88 362.533 238.103 362.376 237.601 362.183L236.69 361.833L236.691 362.616ZM219.232 362.899C219.02 363.111 219.521 363.635 220.344 364.063C222.273 365.065 222.286 365.062 222.286 363.617V362.392L221.524 363.026L220.761 363.659L220.189 363.087C219.874 362.771 219.444 362.687 219.232 362.899ZM251.204 376.252L249.874 376.469L250.059 377.434C250.161 377.965 250.63 378.399 251.101 378.399C251.572 378.399 252.3 378.724 252.719 379.12C253.806 380.151 254.55 380.011 254.55 378.777C254.55 377.308 252.805 375.992 251.204 376.252ZM244.955 377.27C244.52 378.404 245.034 378.925 246.162 378.492L247.041 378.155L246.701 377.267C246.264 376.127 245.392 376.129 244.955 377.27ZM247.298 380.914C247.528 381.286 247.959 381.441 248.256 381.257C248.554 381.073 248.952 381.328 249.143 381.825C249.333 382.32 250.057 382.726 250.752 382.726C251.447 382.726 252.318 383.029 252.688 383.4L253.36 384.073L253.744 383.072C254.306 381.605 253.392 381.009 249.951 380.601L246.88 380.236L247.298 380.914ZM246.205 385.02C245.97 385.4 246.067 386 246.419 386.354L247.06 386.996L247.069 386.159L247.078 385.323L247.501 385.921C248.059 386.71 252.658 388.467 253.074 388.051C254.62 386.502 253.252 385.208 249.55 384.716L246.632 384.328L246.205 385.02ZM246.916 388.952C246.362 389.065 245.908 389.605 245.908 390.151V391.145L248.068 391.291C249.256 391.371 250.812 391.819 251.525 392.287L252.822 393.138V391.491V389.844L250.373 389.295C249.027 388.993 247.471 388.838 246.916 388.952ZM246.026 394.332L246.196 395.131L244.88 394.99L243.565 394.849L243.225 395.736C242.745 396.987 243.414 397.449 244.454 396.585L245.332 395.855V396.507V397.16L246.371 396.51L247.411 395.86L249.799 397.015C252.418 398.283 252.822 398.177 252.822 396.222C252.822 394.573 252.565 394.424 248.874 393.934L245.856 393.533L246.026 394.332ZM244.188 399.431C243.401 400.037 242.941 400.717 243.166 400.943C243.392 401.169 243.951 401.041 244.41 400.66L245.244 399.966L247.449 400.376C248.661 400.601 250.245 401.171 250.967 401.642C252.525 402.658 252.891 402.442 252.453 400.767L252.13 399.531L250.374 398.917C247.802 398.02 245.808 398.185 244.188 399.431ZM245.044 402.809C243.725 403.078 242.451 403.997 242.451 404.679C242.451 404.935 243.829 405.002 245.514 404.828L248.577 404.511L250.465 405.489C252.675 406.633 253.197 406.39 252.146 404.705C251.046 402.94 248.169 402.172 245.044 402.809ZM244.756 406.885C244.756 407.243 244.237 407.535 243.604 407.535C242.97 407.535 242.451 407.779 242.451 408.078C242.451 408.916 243.687 409.485 244.1 408.837L244.468 408.262L247.06 408.969C248.486 409.358 250.107 409.872 250.661 410.11L251.67 410.543L251.661 409.472C251.656 408.883 251.424 408.041 251.146 407.6L250.64 406.801L247.698 406.517L244.756 406.235V406.885ZM244.324 410.827L243.027 411.077V412.047V413.016L245.764 413.065C247.27 413.092 249.084 413.317 249.797 413.565L251.093 414.016V412.781V411.545L249.616 410.982C248.121 410.414 246.686 410.371 244.324 410.827ZM243.356 415.365C242.859 415.864 242.451 416.513 242.451 416.807C242.451 417.429 243.237 417.518 243.793 416.961C244.003 416.751 244.996 416.489 245.999 416.379L247.823 416.178L249.149 417.05C250.871 418.179 251.093 418.149 251.093 416.787C251.093 415.312 249.434 414.459 246.563 414.459H244.262L243.356 415.365ZM243.999 419.679C242.152 421.62 242.198 421.676 244.766 420.594L246.636 419.807L248.577 420.245L250.517 420.683V419.899C250.517 417.539 246.175 417.392 243.999 419.679ZM245.198 422.536C244.803 423.171 244.137 423.69 243.719 423.69C243.301 423.69 243.11 423.934 243.294 424.232L243.629 424.775L245.248 424.21L246.867 423.645L248.441 424.244C250.563 425.052 250.517 425.077 250.517 423.113V421.382H248.217H245.918L245.198 422.536ZM245.074 425.949L244.709 426.539L246.893 427.536C248.094 428.084 249.291 428.64 249.553 428.77C249.816 428.901 249.945 428.266 249.841 427.359L249.653 425.709L247.546 425.533C246.387 425.437 245.275 425.623 245.074 425.949ZM244.756 430.535C244.756 431.445 244.204 432.891 243.529 433.749L242.303 435.311L242.953 435.962C243.919 436.93 243.741 437.713 242.65 437.294L241.696 436.927L240.49 438.059C238.859 439.588 236.97 440.205 233.432 440.366L230.462 440.501L228.247 439.311C227.028 438.656 225.146 437.405 224.064 436.53L222.096 434.94L222.715 436.094C223.626 437.795 225.715 439.555 228.457 440.933L230.882 442.152H234.669H238.455L240.597 441.256C244.552 439.602 248.789 433.79 248.789 430.019V428.882H246.772H244.756V430.535Z"/>
</svg>
