<svg width="500" height="500" viewBox="0 0 500 500" fill="none" xmlns="http://www.w3.org/2000/svg">
<path fill-rule="evenodd" clip-rule="evenodd" d="M162.597 104.006C147.671 105.505 136.803 110.942 130.719 119.955C129.843 121.252 128.59 123.036 127.934 123.92L126.741 125.526L121.11 127.246C111.86 130.072 98.1102 134.789 94.8714 136.248C89.3968 138.714 82.0311 144.73 82.0311 146.734V147.47L84.4788 146.19C85.825 145.486 87.7479 144.807 88.7513 144.681C89.7547 144.555 92.9676 143.921 95.8904 143.271C98.8138 142.621 101.45 142.111 101.75 142.137C102.695 142.219 89.6653 145.437 88.2405 145.473C85.8816 145.532 80.8851 148.43 81.7132 149.259C81.8611 149.406 85.6732 149.117 90.1854 148.615L98.3885 147.704L107.666 147.756L116.943 147.808L122.286 148.848C131.567 150.655 137.531 153.615 140.968 158.12L142.578 160.231V162.876V165.52L140.445 170.284C133.12 186.647 131.516 193.444 131.659 207.519L131.725 214.111L132.784 220.214C134.694 231.218 138.021 242.885 140.859 248.534C141.737 250.28 143.978 254.565 145.842 258.056C147.705 261.547 150.395 266.601 151.82 269.286C153.244 271.972 154.581 274.389 154.789 274.657C154.998 274.926 156.424 277.343 157.957 280.029C162.991 288.842 171.626 298.666 173.385 297.579C173.629 297.428 173.828 297.632 173.828 298.031C173.828 299.529 190.947 311.567 197.51 314.685C199.658 315.705 203.143 317.389 205.254 318.426C209.725 320.623 209.63 320.601 209.228 319.335C208.787 317.947 209.406 318.12 209.945 319.536L210.392 320.714L212.984 321.45C216.779 322.527 221.803 323.188 226.923 323.284L231.435 323.369L232.05 322.861C232.389 322.58 233.325 322.277 234.131 322.186L235.596 322.021L235.483 321.439L235.37 320.858L236.851 321.373C238.834 322.065 239.152 321.587 238.059 319.557C237.558 318.626 237.287 317.724 237.459 317.553C237.63 317.382 237.918 317.658 238.098 318.167C238.67 319.777 240.362 321.288 241.592 321.288H242.78L242.489 320.531C241.874 318.927 243.185 320.48 245.805 324.457C250.015 330.851 253.995 339.181 255.981 345.757L256.513 347.52L255.226 354.598C254.518 358.49 253.392 363.3 252.724 365.285C252.056 367.271 250.554 371.698 249.385 375.122L247.261 381.348L237.766 387.107C232.544 390.274 225.525 394.371 222.168 396.211C211.264 402.187 209.761 403.176 206.652 406.415C203.688 409.504 202.128 412.117 202.167 413.924L202.186 414.794L202.838 413.329C203.62 411.568 205.38 409.91 206.985 409.422C207.63 409.226 208.899 408.377 209.805 407.535C210.71 406.694 213.148 405.11 215.222 404.016C219.558 401.73 228.826 396.082 231.652 394.003C232.709 393.226 233.699 392.727 233.852 392.895C234.005 393.062 233.848 393.3 233.502 393.424C233.157 393.547 232.278 394.14 231.549 394.741C230.821 395.343 227.924 397.244 225.113 398.967L220 402.099L215.74 406.391L211.479 410.683L211.154 412.854C210.975 414.049 210.992 415.633 211.192 416.375L211.555 417.724L212.185 415.354C212.78 413.118 214.492 410.644 215.446 410.644C216.242 410.644 220.023 407.489 222.769 404.534C224.263 402.926 226.167 401.214 227.001 400.728L228.515 399.846V400.362C228.515 400.646 228.306 400.878 228.05 400.878C227.45 400.878 222.168 405.84 222.168 406.404C222.168 406.639 221.692 407.5 221.11 408.317L220.052 409.802V411.865V413.927L221.082 415.581C221.649 416.491 222.575 417.519 223.14 417.865L224.168 418.494L223.437 417.377C223.034 416.762 222.559 415.344 222.381 414.227L222.057 412.195L223.293 409.495L224.529 406.795L227.553 404.569C229.216 403.344 230.788 402.343 231.047 402.343C231.891 402.343 237.938 398.193 242.288 394.628C246.478 391.195 252.385 387.836 256.994 386.265L259.35 385.462L263.342 386.081C265.537 386.422 269.973 386.845 273.199 387.022L279.063 387.344L279.723 386.548L280.384 385.752L281.861 386.601C282.674 387.068 283.746 388.11 284.245 388.915L285.153 390.38L285.151 389.159C285.149 387.676 283.902 385.699 282.046 384.239L280.665 383.154L280.293 383.757L279.92 384.359L279.668 383.394L279.416 382.429L277.488 382.104C276.428 381.925 272.721 381.602 269.25 381.386L262.939 380.994L261.126 380.226L259.312 379.458L258.986 378.158C258.521 376.309 259.102 371.576 260.263 367.756C260.809 365.957 261.767 362.291 262.39 359.61C264.776 349.362 270.161 329.057 272.242 322.468C273.436 318.686 274.414 315.298 274.414 314.938C274.414 314.579 274.758 313.906 275.178 313.442L275.941 312.598L275.488 310.107C275.239 308.737 275.17 307.62 275.335 307.624C275.876 307.637 277.112 308.578 276.598 308.586L276.097 308.593L276.286 310.573L276.475 312.553L278.008 312.248C280.651 311.721 284.18 310.484 284.18 310.084C284.18 309.874 283.724 309.122 283.167 308.415C281.757 306.621 282.608 306.797 284.144 308.616L285.4 310.104L289.795 308.574C294.962 306.776 294.96 306.777 293.7 305.817L292.724 305.074L293.945 305.424C294.617 305.616 295.335 305.929 295.543 306.119C295.75 306.31 298.277 305.857 301.158 305.114C304.039 304.37 307.055 303.734 307.861 303.7L309.326 303.638L307.373 302.75L305.42 301.863L307.617 302.127C308.826 302.273 309.938 302.58 310.089 302.81C310.241 303.04 311.383 303.089 312.628 302.918L314.891 302.608L314.66 301.084C314.534 300.245 315.207 301.647 316.157 304.198C317.107 306.75 318.455 310.209 319.152 311.885L320.419 314.933L321.952 316.286C323.95 318.047 324.606 319.594 325.004 323.477C325.183 325.227 325.533 326.659 325.78 326.659C326.027 326.659 326.088 326.888 325.915 327.167C325.628 327.632 325.799 329.051 327.087 336.913C327.942 342.137 329.223 347.415 329.71 347.723C329.981 347.894 330.071 348.248 329.91 348.509C329.599 349.011 330.471 352.112 333.551 361.448C336.631 370.788 341.446 378.665 345.287 380.652C346.969 381.522 347.168 381.519 347.168 380.63V379.913L347.842 380.171L348.515 380.43L349.506 379.17L350.498 377.909L350.42 374.989C350.377 373.383 350.508 372.013 350.711 371.946C350.914 371.879 350.629 370.98 350.076 369.949C349.524 368.919 349.336 368.239 349.659 368.438L350.247 368.802L349.971 365.761L349.695 362.72L348.92 361.863C347.891 360.727 347.926 360.053 348.968 360.902L349.792 361.572L349.407 360.595C348.416 358.087 347.591 355.396 346.71 351.806C344.666 343.465 342.765 337.009 341.335 333.55C340.515 331.566 339.844 329.627 339.844 329.24C339.844 328.854 339.174 327.867 338.355 327.049C337.536 326.23 337.206 325.691 337.622 325.85C338.563 326.211 338.566 325.849 337.646 323.241C337.243 322.1 336.914 320.728 336.914 320.194V319.221L338.075 319.443L339.236 319.665L338.031 317.266C337.367 315.946 336.906 314.786 337.003 314.688C337.101 314.591 337.824 315.738 338.61 317.238C339.395 318.738 340.379 320.055 340.797 320.164L341.555 320.363L341.379 322.584L341.202 324.805L342.583 330.117C343.955 335.391 344.447 336.064 344.874 333.251C344.996 332.446 345.088 333.544 345.078 335.693C345.056 340.583 346.56 346.825 350.901 359.863C351.304 361.071 351.612 362.754 351.585 363.603C351.448 368.07 356.679 377.251 360.483 379.218L361.935 379.969L363.562 379.663L365.19 379.358L364.934 378.692L364.679 378.026L365.567 378.1C367.236 378.238 366.458 376.825 364.294 375.79C363.105 375.22 362.026 374.426 361.895 374.023L361.658 373.29L362.447 373.942C363.77 375.034 366.818 376.448 367.26 376.176C367.96 375.742 367.723 374.411 366.821 373.709L365.967 373.044L366.772 373.323C367.969 373.737 368.354 372.676 367.486 371.352L366.724 370.189L367.247 370.015L367.77 369.841L367.184 367.659C366.862 366.459 366.346 365.316 366.038 365.119L365.478 364.76L366.016 364.753L366.554 364.745L366.018 363.036C365.724 362.096 365.36 361.327 365.208 361.327C365.056 361.327 364.506 361.009 363.985 360.619L363.037 359.911L364.136 360.188C364.74 360.34 365.233 360.384 365.232 360.286C365.229 359.911 362.333 352.608 360.611 348.632C358.047 342.709 354.492 333.661 354.492 333.057C354.492 331.718 351.358 324.838 350.353 323.974C349.729 323.437 348.831 322.338 348.357 321.532L347.494 320.068L349.797 322.498L352.099 324.929L352.488 324.3L352.877 323.671L352.917 325.096C352.962 326.662 354.628 329.778 355.145 329.262C355.323 329.084 355.469 329.511 355.469 330.212C355.469 332.064 357.883 338.487 358.929 339.416C359.42 339.853 359.705 340.326 359.563 340.468C359.14 340.891 360.626 344.648 363.273 349.853C364.639 352.538 366.33 356.164 367.03 357.909C372.378 371.242 379.804 380.37 385.302 380.37H386.336L386.037 379.028L385.739 377.685L386.496 379.042C386.912 379.788 387.463 380.27 387.718 380.112C388.333 379.732 388.316 377.58 387.695 377.197C387.427 377.031 387.207 376.675 387.207 376.407C387.207 376.138 387.427 376.054 387.695 376.22C388.385 376.646 388.304 375.315 387.597 374.609L387.012 374.023H387.597C388.488 374.023 388.3 373.193 387.17 372.14L386.157 371.196L386.705 370.858L387.253 370.519L386.253 368.825C385.703 367.893 385.254 366.754 385.254 366.293C385.254 365.832 383.908 363.043 382.262 360.095C380.617 357.148 378.503 353.307 377.564 351.562C376.625 349.816 375.519 348.002 375.106 347.53C374.692 347.058 374.115 346.254 373.823 345.742C373.53 345.23 372.018 342.76 370.462 340.252C368.907 337.744 367.46 335.363 367.248 334.96C365.753 332.114 365.235 330.89 365.44 330.685C365.57 330.555 366.181 331.432 366.798 332.635C368.299 335.561 370.247 338.416 371.518 339.553L372.558 340.483V337.233V333.984H373.079C373.366 333.984 373.485 334.368 373.342 334.838C373.2 335.308 373.038 336.946 372.983 338.477L372.882 341.261L374.307 343.358C376.462 346.528 379.877 351.012 380.365 351.314C380.602 351.461 381.114 352.215 381.5 352.99C383.499 356.996 393.895 370.202 397.419 373.21C401.721 376.882 408.38 379.857 410.487 379.049L411.185 378.781L410.243 377.744C409.242 376.642 408.02 374.511 408.39 374.511C408.512 374.511 409.087 375.28 409.668 376.22C410.965 378.319 411.928 378.408 412.215 376.455C412.469 374.725 412.008 374.264 409.595 373.829C408.615 373.653 407.544 373.185 407.216 372.789C406.467 371.887 407.1 371.892 408.691 372.802C410.045 373.576 412.597 373.775 412.597 373.106C412.597 372.512 411.566 371.733 410.4 371.447L409.424 371.206L411.011 371.15C411.884 371.118 412.597 370.948 412.597 370.77C412.597 369.982 409.121 365.124 405.763 361.218C403.748 358.875 400.234 354.662 397.955 351.856C395.675 349.05 393.67 346.98 393.499 347.257L393.188 347.76L392.88 347.261C392.711 346.987 392.848 346.648 393.185 346.509L393.799 346.255L390.991 343.558C389.447 342.075 388.183 340.676 388.183 340.448C388.183 340.221 387.402 339.278 386.447 338.352C385.492 337.426 384.041 335.625 383.222 334.35C382.404 333.074 381.578 332.031 381.388 332.031C381.199 332.031 379.862 330.602 378.418 328.857L375.792 325.683H374.693C374.088 325.683 373.457 325.463 373.291 325.195L372.989 324.706H374.466H375.942L377.645 326.201C378.581 327.023 379.483 328.122 379.648 328.643C379.813 329.163 380.248 329.589 380.615 329.589C380.982 329.589 381.407 329.984 381.56 330.467C381.713 330.949 383.025 332.322 384.475 333.518C385.925 334.714 387.408 336.25 387.769 336.932C388.719 338.72 393.895 343.41 394.504 343.033C394.943 342.762 395.261 343.461 394.897 343.895C394.83 343.975 395.599 345.004 396.606 346.18C397.614 347.357 398.437 348.492 398.437 348.703C398.437 348.913 398.905 349.336 399.476 349.642L400.514 350.197L400.983 349.537L401.451 348.876L401.211 349.974L400.971 351.072L403.976 353.699C405.63 355.145 409.284 357.787 412.096 359.572L417.209 362.816L420.449 363.781C424.109 364.87 425.101 364.962 425.542 364.249C425.711 363.976 426.038 363.87 426.269 364.013C427.148 364.556 427.303 363.176 426.467 362.252L425.592 361.285L426.419 361.603L427.246 361.92V361.211C427.246 360.334 425.864 359.067 424.56 358.749L423.584 358.511L424.95 358.454L426.316 358.398L424.884 356.322C422.79 353.288 414.989 345.81 409.775 341.839C407.282 339.941 403.627 337.012 401.653 335.331C397.558 331.845 391.523 327.489 387.939 325.434C386.596 324.664 384.895 323.541 384.158 322.939C383.421 322.337 382.377 321.704 381.838 321.533C381.3 321.363 380.859 320.921 380.859 320.552V319.882L383.547 321.44C387.934 323.983 395.904 328.991 401.075 332.454C403.733 334.236 408.677 337.542 412.061 339.803C421.493 346.105 427.754 348.959 433.236 349.455C438.339 349.917 439.832 348.911 436.746 347.09C435.795 346.529 435.127 345.96 435.261 345.825C435.395 345.691 436.296 346.048 437.263 346.618C439.909 348.179 440.177 347.597 438.424 344.096C436.222 339.698 433.448 337.695 430.485 338.364L428.711 338.763V338.327C428.711 338.087 429.383 337.89 430.204 337.89H431.698L431.413 337.428C431.256 337.175 429.65 336.212 427.844 335.288C426.038 334.365 423.484 333.034 422.168 332.332C420.853 331.629 419.396 331.054 418.932 331.054C418.468 331.054 417.849 330.766 417.557 330.414C417.088 329.849 411.133 326.902 405.517 324.456C404.443 323.988 403.186 323.275 402.723 322.871L401.882 322.137L400.282 322.445L398.681 322.752L399.41 322.284L400.138 321.817L399.654 321.367C398.834 320.606 395.56 319.734 394.946 320.113L394.365 320.472L394.683 319.644L395.001 318.816L393.781 318.352L392.56 317.888L391.593 318.856C390.436 320.012 389.851 320.051 388.006 319.088C387.236 318.687 386.406 318.359 386.16 318.359C385.914 318.359 384.662 317.535 383.376 316.528C382.091 315.521 379.362 313.716 377.311 312.516C375.26 311.317 373.667 310.251 373.771 310.147C373.875 310.044 376.226 311.332 378.996 313.012C387.013 317.871 389.079 318.926 390.255 318.76L391.357 318.603V317.648V316.692L387.695 314.586C385.681 313.427 382.605 311.732 380.859 310.82C379.114 309.907 377.246 308.798 376.709 308.355C375.587 307.428 381.771 310.633 388.9 314.673C391.576 316.19 394.213 317.475 394.759 317.529L395.752 317.626V316.65V315.673L391.724 313.272C386.036 309.882 387.005 310.005 393.346 313.477C396.281 315.084 399.29 316.401 400.034 316.403C400.778 316.404 402.257 316.955 403.32 317.626C404.384 318.298 405.368 318.847 405.507 318.847C405.647 318.847 407.793 319.852 410.278 321.081C418.758 325.275 425.184 327.03 429.901 326.44L432.599 326.103L433.523 324.794L434.447 323.486L434.213 321.926C434.084 321.069 433.208 319.467 432.265 318.365L430.552 316.364L427.137 314.676C423.625 312.94 422.363 312.623 422.363 313.476C422.363 313.744 422.15 313.964 421.89 313.964C421.63 313.964 421.54 313.644 421.69 313.252L421.964 312.54L420.656 312.212L419.348 311.884L416.858 313.046C415.488 313.685 413.969 314.634 413.482 315.155C412.996 315.676 412.597 315.874 412.597 315.597C412.597 314.886 413.978 313.758 416.25 312.611L418.193 311.631L416.25 311.088C415.181 310.79 412.988 310.301 411.377 310.001C408.328 309.433 404.911 308.216 404.499 307.549C404.368 307.337 405.061 307.497 406.04 307.906C410.336 309.701 408.012 306.967 401.123 302.12C395.491 298.158 393.144 296.094 392.554 294.584C392.324 293.995 389.109 291.249 385.409 288.48C381.71 285.712 377.91 282.658 376.964 281.694C374.153 278.83 362.285 269.485 361.823 269.771C361.588 269.916 361.237 269.778 361.042 269.463L360.689 268.891L361.252 269.24C361.562 269.431 361.808 269.41 361.799 269.193C361.79 268.976 359.509 267.04 356.729 264.892C353.95 262.743 351.754 260.853 351.848 260.69C352.022 260.392 350.671 259.079 348.877 257.803L347.9 257.109L349.121 258.521L350.342 259.934L348.511 258.571C346.697 257.221 346.112 256.503 347.29 257.073C347.626 257.236 347.258 256.864 346.473 256.247C339.952 251.124 333.596 245.963 327.392 240.755C319.132 233.819 306.775 223.917 304.199 222.17C303.259 221.532 300.513 219.438 298.096 217.517C295.679 215.596 288.647 210.658 282.471 206.545C276.294 202.431 270.032 198.152 268.555 197.036C267.077 195.921 264.99 194.505 263.916 193.891L261.963 192.774L263.183 193.819C263.855 194.393 265.613 195.707 267.09 196.737C269.784 198.617 271.966 200.683 271.256 200.683C271.047 200.683 271.178 201.048 271.547 201.494L272.217 202.304L271.185 201.662C270.617 201.309 270.178 200.684 270.208 200.275L270.263 199.529L264.96 195.941L259.658 192.352L258.979 192.915L258.301 193.478V191.743V190.009L256.225 188.232C255.084 187.255 252.76 185.694 251.06 184.763L247.971 183.072L248.26 183.983L248.549 184.894L247.565 185.784C246.548 186.704 246.156 186.167 247.132 185.191L247.682 184.641L247.377 183.425L247.072 182.209L242.31 178.986C235.95 174.679 231.636 171.016 226.067 165.192L221.435 160.348L218.414 155.242C216.753 152.434 214.623 148.161 213.681 145.747C212.739 143.332 210.86 138.5 209.505 135.009C200.633 112.149 184.921 101.764 162.597 104.006ZM149.338 125.612C147.634 127.052 146.972 128.449 146.972 130.606V132.37L148.277 133.579C151.68 136.734 156.243 134.289 156.248 129.309L156.25 127.515L154.986 126.013L153.721 124.511L152.178 124.513L150.635 124.516L149.338 125.612ZM148.773 128.244C148.588 128.429 148.437 128.983 148.437 129.475V130.37H149.448H150.458L150.303 129.31C150.14 128.209 149.355 127.662 148.773 128.244ZM206.064 131.723C206.052 132.524 208.491 136.398 208.807 136.081C208.939 135.949 208.378 134.775 207.56 133.472C206.742 132.169 206.069 131.382 206.064 131.723ZM147.095 136.406C145.88 137.007 145.565 137.965 146.728 137.518L147.461 137.237V137.954C147.461 138.348 147.706 138.671 148.006 138.671H148.551L148.296 137.695C148.156 137.157 148.24 136.718 148.483 136.718C148.726 136.718 148.926 136.498 148.926 136.23C148.926 135.646 148.556 135.682 147.095 136.406ZM149.718 138.061C150.103 139.669 150.39 140.093 150.39 139.053C150.39 138.637 150.885 138.165 151.489 138.003L152.588 137.71L153.193 138.521C153.526 138.967 153.946 139.185 154.126 139.005C154.55 138.581 152.87 136.718 152.064 136.718C151.725 136.718 151.32 136.993 151.163 137.328L150.879 137.939L150.594 137.328C150.437 136.993 150.103 136.718 149.852 136.718H149.395L149.718 138.061ZM137.695 137.642C137.695 137.971 137.451 138.09 137.152 137.905C136.854 137.72 136.449 137.83 136.252 138.148C136.055 138.466 134.653 138.854 133.136 139.011L130.378 139.295L129.768 140.03L129.158 140.765L130.131 140.485C130.666 140.331 132.422 139.936 134.033 139.608C136.927 139.017 138.688 138.036 138.032 137.381C137.847 137.195 137.695 137.313 137.695 137.642ZM140.747 139.971C140.411 140.107 140.137 140.638 140.137 141.153C140.137 141.668 139.917 142.089 139.648 142.089C139.38 142.089 139.16 142.309 139.16 142.577C139.16 143.319 140.427 143.161 141.113 142.333L141.721 141.601H141.173C140.871 141.601 140.625 141.381 140.625 141.113C140.625 140.844 140.954 140.624 141.357 140.624C141.76 140.624 142.09 140.405 142.09 140.136C142.09 139.616 141.734 139.573 140.747 139.971ZM201.891 140.99C202.252 142.428 202.517 142.861 202.838 142.537C203.216 142.154 202.523 139.648 202.038 139.648H201.554L201.891 140.99ZM119.14 142.106L117.92 142.513L120.605 142.235C122.082 142.082 123.383 141.877 123.494 141.779C123.886 141.437 120.35 141.702 119.14 142.106ZM211.144 144.286C211.293 145.361 211.417 146.637 211.42 147.123L211.426 148.006L211.929 147.695L212.432 147.384L212.11 145.591C211.933 144.605 211.583 143.469 211.331 143.066L210.873 142.333L211.144 144.286ZM138.79 153.66C139.514 154.384 140.279 154.805 140.488 154.594C140.905 154.176 138.895 152.343 138.018 152.343C137.719 152.343 138.066 152.936 138.79 153.66ZM219.726 162.539C219.726 163.882 219.946 165.116 220.215 165.282L220.703 165.584V163.143C220.703 161.8 220.483 160.566 220.215 160.4L219.726 160.098V162.539ZM224.17 167.602L224.121 169.921H224.609C225.174 169.921 225.174 168.268 224.609 166.503L224.218 165.282L224.17 167.602ZM215.332 168.672C215.332 169.327 215.552 169.999 215.82 170.165L216.308 170.467V168.973C216.308 168.152 216.089 167.48 215.82 167.48C215.552 167.48 215.332 168.016 215.332 168.672ZM233.289 175.258L233.499 176.689L234.367 176.623L235.234 176.558L234.224 175.193C232.989 173.522 233.034 173.519 233.289 175.258ZM225.464 180.512L228.027 182.305V183.449V184.594L226.806 185.058C225.448 185.574 225.209 186.034 226.299 186.034C226.692 186.034 227.462 185.552 228.011 184.963L229.009 183.891L228.709 182.946L228.409 181.999L230.133 182.323L231.857 182.646L232.155 182.164C232.319 181.9 232.721 181.781 233.048 181.9C233.375 182.02 234.434 181.841 235.402 181.502L237.162 180.887L236.013 180.02L234.863 179.153V180.123C234.863 180.657 234.661 181.219 234.414 181.371C233.842 181.725 232.422 180.326 232.422 179.408C232.422 179.024 232.24 178.71 232.018 178.71C231.796 178.71 231.711 179.369 231.829 180.175L232.044 181.64L230.646 181.618C228.857 181.591 225.77 180.493 224.66 179.489C224.187 179.061 223.597 178.712 223.35 178.715C223.103 178.717 224.054 179.526 225.464 180.512ZM215.376 180.489C215.486 180.785 216.795 182.339 218.285 183.942L220.995 186.855L221.063 185.956C221.1 185.462 220.91 185.058 220.641 185.058C220.371 185.058 219.032 183.908 217.663 182.504C216.295 181.098 215.265 180.192 215.376 180.489ZM211.914 182.368C211.914 182.5 212.683 183.615 213.623 184.847C215.755 187.64 215.88 187.202 213.784 184.283C212.313 182.234 211.914 181.826 211.914 182.368ZM242.541 185.13L243.316 186.684L242.194 187.592C241.577 188.092 241.214 188.642 241.388 188.816C241.561 188.989 242.211 188.654 242.831 188.071C243.451 187.488 244.306 187.011 244.73 187.011C245.635 187.011 246.268 185.711 245.572 185.282C245.308 185.118 245.153 185.263 245.227 185.603C245.301 185.943 244.977 186.304 244.508 186.407L243.655 186.594L243.196 185.385C242.943 184.72 242.517 184.041 242.251 183.876C241.984 183.712 242.115 184.276 242.541 185.13ZM206.558 185.203C206.55 185.418 207.28 186.745 208.18 188.153C210.013 191.018 211.154 194.042 210.775 195.03C210.637 195.389 211.059 196.471 211.713 197.433C213.023 199.362 214.587 204.746 214.16 205.859C214.011 206.248 213.409 206.743 212.823 206.96L211.757 207.354L212.462 207.625C212.849 207.773 213.673 207.485 214.292 206.984L215.417 206.073L214.888 203.606C214.334 201.023 212.767 197.548 211.921 197.025C211.648 196.857 211.426 196.293 211.426 195.771V194.823L212.524 194.809L213.623 194.794L212.813 194.321C212.367 194.061 211.121 192.255 210.044 190.307C207.999 186.61 206.585 184.539 206.558 185.203ZM230.832 188.348L231.975 189.441L236.302 189.325C238.681 189.261 240.534 189.055 240.418 188.867C240.303 188.68 238.261 188.571 235.88 188.623L231.552 188.72L230.62 187.988C230.108 187.585 230.203 187.747 230.832 188.348ZM246.486 191.063C247.345 191.948 248.047 192.911 248.047 193.203C248.047 193.494 248.522 193.857 249.102 194.009L250.158 194.285L247.778 191.869C246.469 190.54 245.291 189.452 245.161 189.452C245.032 189.452 245.628 190.177 246.486 191.063ZM192.383 190.633C192.383 190.958 194.281 194.929 195.202 196.532C195.666 197.338 196.087 198.076 196.139 198.173C196.366 198.595 199.219 196.965 199.219 196.413C199.219 195.619 199.685 195.636 200.645 196.467C201.069 196.834 202.02 197.277 202.759 197.453L204.101 197.772V197.274C204.101 197.001 203.605 196.777 202.998 196.777C201.753 196.777 199.219 194.655 199.219 193.612C199.219 193.236 199.02 192.805 198.777 192.655L198.335 192.382L198.583 194.233L198.831 196.085L198.054 196.729C196.818 197.756 195.986 197.06 194.35 193.633C193.026 190.858 192.383 189.877 192.383 190.633ZM239.363 192.382C240.314 193.591 241.249 195.093 241.441 195.719L241.791 196.86L240.683 198.039C240.074 198.687 239.779 199.22 240.027 199.222C240.275 199.225 241.028 198.569 241.699 197.763L242.92 196.301L244.871 196.981C245.945 197.355 247.041 197.527 247.308 197.362C247.575 197.197 246.916 196.881 245.845 196.659L243.896 196.256L240.765 193.22L237.635 190.185L239.363 192.382ZM221.276 191.724L220.825 192.532L223.164 195.997L225.505 199.462L225.836 201.721L226.167 203.98L225.186 204.667L224.206 205.354L225.416 206.518C226.082 207.158 227.071 208.555 227.616 209.622L228.605 211.562L228.431 213.387L228.257 215.213L228.895 214.968L229.533 214.723L229.256 212.976C229.005 211.402 227.969 209.199 226.073 206.216L225.4 205.157L226.036 204.39C226.387 203.969 226.923 203.773 227.228 203.956L227.783 204.288L227.229 203.584C226.924 203.197 226.522 202.163 226.334 201.286L225.993 199.692L227.742 200.724C228.705 201.291 229.492 201.519 229.492 201.229C229.492 200.939 228.949 200.565 228.285 200.399L227.078 200.095L224.336 196.515L221.593 192.935L221.913 191.926C222.297 190.717 221.909 190.595 221.276 191.724ZM254.45 192.719L254.957 194.276L255.615 194.024C255.976 193.885 256.755 194.255 257.346 194.845C257.936 195.436 260.251 196.778 262.489 197.826C264.727 198.875 267.227 200.296 268.045 200.984L269.531 202.235L269.527 201.581C269.525 201.221 269.031 200.675 268.429 200.367C263.32 197.753 258.291 194.841 257.411 193.986C257.056 193.641 256.479 193.359 256.128 193.359C255.777 193.359 255.141 192.865 254.716 192.26L253.942 191.161L254.45 192.719ZM233.251 194.263L234.805 195.817L234.956 197.64L235.107 199.462L235.693 198.441L236.279 197.42L235.074 195.646C234.41 194.67 233.38 193.61 232.783 193.291L231.698 192.71L233.251 194.263ZM185.841 193.765L185.472 194.362L186.389 195.935L187.305 197.509L188.379 197.665C188.97 197.751 189.453 197.601 189.453 197.333C189.453 197.064 188.977 196.774 188.395 196.689L187.338 196.532L186.774 194.85L186.21 193.168L185.841 193.765ZM204.965 195.312L204.615 196.532L205.103 196.699C205.372 196.791 206.136 197.666 206.8 198.644C207.464 199.621 208.008 200.163 208.008 199.848C208.008 199.533 207.788 199.14 207.519 198.974C206.758 198.503 206.946 197.265 207.779 197.265C208.19 197.265 208.653 197.594 208.807 197.997C208.962 198.4 209.319 198.73 209.6 198.73C209.882 198.73 209.708 198.283 209.214 197.738C208.721 197.192 207.972 196.778 207.552 196.817C205.967 196.966 205.627 196.74 205.473 195.434L205.315 194.091L204.965 195.312ZM215.088 194.823L214.111 195.243L215.17 195.278L216.229 195.312L217.185 196.899C217.712 197.772 218.411 199.639 218.739 201.049C219.067 202.459 219.557 203.613 219.827 203.613H220.319L219.964 202.758C219.769 202.288 219.309 200.947 218.943 199.777C218.392 198.017 216.442 194.246 216.146 194.369C216.101 194.388 215.625 194.593 215.088 194.823ZM248.574 194.924C248.553 195.381 249.084 196.305 249.756 196.976L250.976 198.197V199.684V201.171H251.64C252.006 201.171 253.159 201.748 254.204 202.453L256.103 203.736L255.128 202.647C254.592 202.049 253.596 201.272 252.916 200.92L251.679 200.281L251.597 199.192C251.552 198.593 250.982 197.53 250.33 196.829C249.679 196.129 249.025 195.226 248.879 194.823L248.612 194.091L248.574 194.924ZM182.6 197.04C182.321 197.377 181.661 197.54 181.134 197.402C179.903 197.08 179.923 197.528 181.213 199.141L182.25 200.439L181.922 199.37L181.594 198.301L182.561 197.783C183.094 197.498 184.093 197.265 184.782 197.265C185.471 197.265 186.034 197.1 186.034 196.899C186.032 196.274 183.138 196.394 182.6 197.04ZM256.354 197.631C256.362 198.016 261.23 200.843 261.23 200.462C261.23 200.192 257.014 197.265 256.626 197.265C256.472 197.265 256.35 197.429 256.354 197.631ZM208.215 201.259C208.338 201.709 208.59 202.887 208.776 203.875L209.113 205.673L208.438 206.1L207.763 206.527L208.522 206.535C208.939 206.539 209.782 207.366 210.394 208.373C211.007 209.381 211.347 209.765 211.152 209.228C210.956 208.691 210.781 207.883 210.762 207.432C210.743 206.982 210.571 206.711 210.38 206.829C209.952 207.094 209.316 205.237 209.649 204.698C209.781 204.485 209.462 203.439 208.94 202.374C208.418 201.31 208.092 200.808 208.215 201.259ZM258.079 202.255C258.604 202.985 259.149 203.589 259.29 203.597C259.729 203.623 264.809 207.52 266.437 209.079C267.286 209.892 268.25 210.469 268.579 210.359L269.176 210.16L267.767 209.24C266.992 208.733 264.599 206.895 262.451 205.155C260.303 203.414 258.225 201.751 257.835 201.458L257.125 200.927L258.079 202.255ZM181.64 203.027C181.64 204.172 180.709 205.077 179.53 205.077H178.591L179.172 205.777L179.753 206.477L180.659 205.57C182.242 203.987 183.032 202.148 182.129 202.148C181.86 202.148 181.64 202.543 181.64 203.027ZM238.038 203.61C238.843 204.549 239.502 205.341 239.502 205.371C239.502 205.401 240.227 205.564 241.113 205.732L242.724 206.039L242.427 205.558C242.263 205.294 241.659 205.077 241.083 205.077C240.508 205.077 239.258 204.364 238.305 203.49L236.574 201.904L238.038 203.61ZM174.5 204.223C174.671 205.096 175.02 206.689 175.275 207.763L175.74 209.716L175.481 206.907L175.222 204.098L176.546 204.601C178.387 205.302 178.59 204.86 176.773 204.107C175.959 203.77 175.293 203.301 175.293 203.065C175.293 202.829 175.044 202.636 174.741 202.636H174.188L174.5 204.223ZM232.91 203.776C232.91 204.197 232.525 204.764 232.055 205.038C231.586 205.312 231.432 205.543 231.714 205.551C231.995 205.559 232.489 205.303 232.809 204.983L233.391 204.401L234.898 205.514C237.051 207.106 236.979 206.59 234.779 204.655L232.91 203.011V203.776ZM195.164 204.275L194.814 205.182L196.528 207.922C197.471 209.429 198.242 210.373 198.242 210.02C198.242 209.667 197.77 208.715 197.192 207.905C196.615 207.094 196.001 205.741 195.828 204.899L195.513 203.368L195.164 204.275ZM203.125 204.955C203.125 205.783 203.584 207.523 204.146 208.821L205.168 211.181L204.902 213.503L204.635 215.824L203.353 217.012L202.071 218.2L201.255 217.912C200.806 217.754 200.054 217.294 199.585 216.89L198.73 216.157V216.703C198.73 217.493 200.681 218.445 202.447 218.517L203.965 218.579L203.732 217.687L203.499 216.796H204.229C204.63 216.796 205.232 217.126 205.566 217.529C205.901 217.931 206.422 218.254 206.724 218.245C207.028 218.237 206.839 217.901 206.306 217.498L205.338 216.765L205.478 213.934L205.618 211.102L204.835 208.945C204.404 207.758 203.932 206.127 203.786 205.322C203.423 203.311 203.125 203.147 203.125 204.955ZM219.238 205.57C219.238 206.14 219.813 207.362 220.516 208.283C222.045 210.287 223.094 213.052 223.123 215.157L223.144 216.692L222.372 216.988C221.05 217.495 219.5 217.316 218.37 216.524L217.285 215.764V216.292C217.285 216.967 219.389 217.773 221.152 217.773H222.513L223.928 216.456C224.705 215.733 224.985 215.276 224.548 215.441L223.755 215.742V214.635C223.755 213.31 221.33 207.754 220.424 207.002C220.073 206.71 219.896 206.179 220.033 205.824C220.169 205.468 220.047 205.031 219.76 204.854L219.238 204.532V205.57ZM244.14 204.88C244.14 205.04 244.626 205.852 245.219 206.685L246.297 208.199L246.317 209.964L246.338 211.728L247.388 211.529L248.439 211.329L250.332 213.222C251.372 214.262 252.805 216.342 253.515 217.842L254.806 220.569L255.943 220.86L257.08 221.152L255.904 220.257C255.258 219.764 254.696 218.921 254.657 218.382C254.56 217.071 250.861 212.712 248.724 211.391L247.011 210.332L247.269 209.659C247.41 209.289 246.859 207.997 246.043 206.787C244.643 204.713 244.14 204.209 244.14 204.88ZM271.972 204.737C271.972 204.848 273.236 205.75 274.78 206.741C276.325 207.733 276.987 208.033 276.252 207.408C274.803 206.176 271.972 204.409 271.972 204.737ZM188.304 205.797L188.019 206.542H189.462H190.905L191.644 208.311C192.05 209.283 192.383 211.347 192.383 212.897V215.715L193.005 215.954L193.627 216.193L193.489 213.804C193.413 212.491 193.018 210.485 192.61 209.345C191.551 206.387 191.551 206.376 192.627 206.157C193.164 206.049 193.79 205.782 194.018 205.567C194.247 205.351 193.414 205.392 192.168 205.658L189.903 206.141L189.246 205.597L188.591 205.052L188.304 205.797ZM269.531 206.082C269.128 206.303 268.139 206.652 267.334 206.857L265.869 207.23L267.46 207.406L269.05 207.581L269.837 206.794C270.751 205.88 270.589 205.502 269.531 206.082ZM233.371 207.81C234.476 209.362 235.332 213.372 234.561 213.386C234.325 213.39 233.291 212.456 232.265 211.31C231.24 210.165 230.471 209.478 230.556 209.785C230.642 210.091 231.607 211.307 232.701 212.487L234.688 214.632L236.583 214.759C238.927 214.917 239.512 215.391 241.005 218.336C242.379 221.047 242.487 222.499 241.427 224.011C241.009 224.609 240.885 225.097 241.15 225.097C241.416 225.097 241.773 224.657 241.943 224.12C242.114 223.583 242.458 223.144 242.708 223.144C243.74 223.144 241.522 216.86 240.203 216.045C239.375 215.532 239.726 214.531 240.967 213.866L242.187 213.213V212.015V210.817L243.042 211.479L243.896 212.141L243.103 211.173C242.666 210.64 241.938 209.545 241.485 208.74C241.032 207.934 240.809 207.714 240.991 208.251C241.72 210.404 241.797 210.969 241.516 212.088L241.223 213.255L239.805 213.842C239.024 214.165 237.758 214.358 236.991 214.27L235.596 214.111L235.275 211.482L234.954 208.852L233.624 207.575L232.294 206.298L233.371 207.81ZM282.471 208.184C283.276 208.884 284.704 209.916 285.644 210.478L287.353 211.5L286.133 210.315C285.461 209.662 284.033 208.63 282.959 208.02L281.006 206.911L282.471 208.184ZM215.068 211.474L215.088 215.534L213.867 216.158L212.646 216.782L213.426 216.789C213.855 216.793 214.679 216.386 215.257 215.885L216.308 214.972L216.271 212.833C216.251 211.656 215.967 209.955 215.641 209.053L215.048 207.415L215.068 211.474ZM258.058 209.474C258.203 209.709 259.533 210.593 261.013 211.44C262.492 212.287 264.339 213.514 265.116 214.168L266.528 215.357L266.838 214.856C267.008 214.58 266.816 214.355 266.41 214.355C266.005 214.355 265.498 214.074 265.283 213.732C265.068 213.39 263.295 212.196 261.344 211.079C259.391 209.962 257.913 209.24 258.058 209.474ZM187.391 212.08L187.612 214.731L186.579 215.764L185.547 216.796H186.996H188.446L188.171 217.651L187.896 218.505L188.41 217.777L188.924 217.049L188.456 216.58C188.199 216.323 187.985 214.893 187.981 213.403C187.976 211.912 187.793 210.408 187.573 210.061L187.172 209.429L187.391 212.08ZM279.059 210.335C279.251 210.8 279.518 211.566 279.653 212.035C279.788 212.505 280.229 212.89 280.633 212.89C281.036 212.89 282.713 213.692 284.36 214.672C291.566 218.963 301.719 225.422 305.054 227.838C305.658 228.276 306.152 228.516 306.152 228.372C306.152 227.455 284.607 213.607 281.068 212.249C280.02 211.847 280.054 211.054 281.128 210.832L281.982 210.655L280.346 210.072L278.71 209.489L279.059 210.335ZM175.7 211.832C175.655 212.951 175.6 214.233 175.577 214.68C175.555 215.128 175.757 215.567 176.025 215.657L176.513 215.82V213.175C176.513 210.04 175.817 208.891 175.7 211.832ZM256.836 210.06C256.836 210.219 257.461 211.525 258.224 212.962L259.613 215.575L260.412 215.642L261.212 215.708L260.208 214.421C259.656 213.713 258.671 212.377 258.02 211.452C257.368 210.527 256.836 209.901 256.836 210.06ZM198.013 213.012C197.852 213.616 197.47 214.941 197.165 215.956L196.611 217.802L197.254 218.398L197.897 218.993L197.573 218.077C197.394 217.573 197.463 216.903 197.724 216.588C198.263 215.939 199.001 211.913 198.581 211.913C198.431 211.913 198.176 212.407 198.013 213.012ZM211.742 214.361C211.31 216.517 211.343 216.905 211.922 216.547C212.195 216.378 212.277 216.011 212.103 215.731C211.93 215.451 212.062 215.053 212.396 214.846L213.004 214.471L212.531 213.626L212.058 212.781L211.742 214.361ZM244.682 213.991C245.384 214.594 246.336 215.929 246.8 216.958C247.263 217.987 247.743 218.727 247.867 218.603C247.992 218.479 247.488 217.143 246.747 215.634L245.402 212.89L244.405 212.892L243.408 212.895L244.682 213.991ZM170.909 213.659C170.915 213.907 171.3 214.572 171.763 215.136L172.607 216.161L173.828 215.795L175.049 215.428L174.103 215.38C173.584 215.353 172.65 214.854 172.028 214.27C171.407 213.686 170.903 213.411 170.909 213.659ZM279.377 214.193L278.77 214.843H279.937H281.104L284.229 217.205C287.583 219.74 289.644 221.075 294.067 223.579C298.197 225.917 297.486 225.052 293.091 222.391C291.009 221.131 287.209 218.624 284.646 216.821L279.985 213.543L279.377 214.193ZM276.086 214.296L276.43 214.851L275.497 215.213L274.565 215.575L277.541 216.946C280.274 218.204 280.864 217.914 278.239 216.601C277.612 216.288 277.098 215.617 277.097 215.111C277.096 214.605 276.791 214.089 276.419 213.965L275.743 213.74L276.086 214.296ZM269.29 215.281L270.263 216.451L268.206 216.184L266.148 215.917L265.844 216.877C265.676 217.404 265.064 218.028 264.483 218.261L263.428 218.687L264.278 218.719C264.745 218.735 265.403 218.31 265.738 217.773L266.348 216.796H267.679H269.009L270.857 218.371C271.873 219.238 272.32 219.495 271.85 218.944C271.381 218.391 270.996 217.611 270.996 217.209C270.996 216.807 270.393 215.946 269.657 215.294L268.317 214.111L269.29 215.281ZM178.054 215.453C178.178 215.655 178.649 215.82 179.101 215.82C179.552 215.82 180.865 216.204 182.018 216.674L184.116 217.529L184.885 220.159L185.655 222.789L185.325 225.274C184.974 227.916 184.382 229.003 183.29 229.003H182.617L182.544 227.172L182.471 225.341L182.269 226.806C182.159 227.612 181.697 228.573 181.244 228.942L180.42 229.614L181.573 229.34L182.725 229.066L182.994 230.097L183.264 231.129L183.682 229.998L184.1 228.868L185.098 229.772C186.281 230.842 190.219 237.948 190.692 239.864C190.873 240.601 191.196 241.096 191.409 240.964C191.843 240.697 194.824 243.91 194.824 244.645C194.824 244.905 195.154 245.116 195.556 245.116C195.959 245.116 196.289 244.774 196.289 244.355C196.289 243.937 196.088 243.719 195.842 243.87C195.07 244.347 191.561 239.736 189.38 235.38C188.23 233.081 186.896 230.775 186.417 230.254C185.939 229.733 185.547 228.937 185.547 228.484C185.547 226.792 186.169 224.634 186.583 224.889C187.205 225.275 187.127 224.747 185.992 220.945C185.432 219.066 184.956 217.251 184.934 216.911L184.896 216.294L183.976 216.585L183.057 216.877L181.753 216.022C180.467 215.18 177.613 214.741 178.054 215.453ZM232.699 215.878C232.926 216.249 233.616 217.297 234.232 218.207L235.351 219.862V221.767V223.673L234.417 224.676L233.483 225.678L232.464 225.355L231.445 225.031V223.415C231.445 222.526 231.116 221.525 230.713 221.191C229.846 220.471 229.845 220.48 230.459 222.621L230.937 224.288L230.399 224.937C230.103 225.293 230.024 225.585 230.224 225.585C230.425 225.585 230.315 225.915 229.98 226.318C229.646 226.72 229.54 227.05 229.744 227.05C229.95 227.05 230.416 226.665 230.781 226.196L231.446 225.341L232.422 226.494L233.398 227.647V226.916C233.398 226.514 233.975 225.808 234.68 225.346L235.963 224.506L236.337 225.111C236.543 225.445 236.608 224.644 236.481 223.332C236.235 220.782 233.983 215.77 232.925 215.418L232.286 215.205L232.699 215.878ZM169.838 218.264C169.941 219.34 170.256 220.363 170.538 220.537L171.051 220.854L170.73 219.252C170.554 218.371 170.41 217.348 170.41 216.979C170.41 216.61 170.24 216.308 170.031 216.308C169.823 216.308 169.736 217.188 169.838 218.264ZM259.765 218.168V220.214H260.306H260.846L260.534 219.399C260.362 218.95 260.429 218.454 260.684 218.297L261.147 218.011L260.456 217.066L259.765 216.121V218.168ZM209.826 217.582C209.662 217.746 210.284 219.365 211.209 221.179C212.134 222.994 212.897 225.112 212.905 225.886L212.92 227.294L213.446 226.39L213.971 225.486L214.53 226.579C215.185 227.864 218.262 230.344 218.262 229.587C218.262 229.302 217.827 228.931 217.296 228.762C216.388 228.474 211.033 220.44 210.57 218.67L210.356 217.853L211.501 217.635L212.646 217.417L211.385 217.351C210.691 217.314 209.99 217.418 209.826 217.582ZM215.181 217.597C215.028 217.752 215.443 218.458 216.104 219.168C216.766 219.878 217.76 221.389 218.313 222.528L219.32 224.597L219.366 226.922C219.391 228.201 219.498 228.753 219.603 228.149C219.708 227.544 219.843 227.05 219.901 227.05C219.96 227.05 221.208 227.473 222.675 227.99L225.342 228.93L225.733 227.88C225.948 227.302 226.09 226.274 226.048 225.596C226.005 224.919 225.994 223.939 226.022 223.419L226.074 222.473L227.534 223.871C228.337 224.64 229.104 225.16 229.238 225.025C229.373 224.89 228.716 224.101 227.779 223.271C226.841 222.441 226.066 221.908 226.056 222.087C226.046 222.265 225.591 221.457 225.044 220.29C224.497 219.123 223.938 218.281 223.802 218.417C223.665 218.554 223.832 219.179 224.174 219.806C224.514 220.433 224.825 221.276 224.863 221.679C224.902 222.082 225.088 223.421 225.278 224.656L225.623 226.9L224.848 227.542L224.074 228.185L222.373 227.374C221.438 226.928 220.551 226.178 220.401 225.708C219.584 223.142 215.69 217.09 215.181 217.597ZM283.813 220.663L286.133 222.732V223.927V225.121L284.79 225.645L283.447 226.168L281.372 225.412C278.78 224.467 278.741 224.734 281.241 226.312L283.184 227.539L283.479 228.713L283.774 229.888L282.944 231.155L282.114 232.421H282.63C282.913 232.421 283.281 232.202 283.446 231.935L283.747 231.448L285.229 232.215C286.045 232.636 286.808 232.885 286.926 232.767C287.044 232.649 286.454 232.268 285.616 231.921L284.091 231.289L284.28 229.672L284.469 228.054L283.836 227.812C282.744 227.393 283.142 226.72 284.757 226.257L286.311 225.812L286.656 224.524L287 223.236L285.223 221.576C284.246 220.664 283.008 219.62 282.471 219.256C281.933 218.892 282.538 219.526 283.813 220.663ZM266.14 219.955C266.826 220.328 267.806 221.411 268.318 222.362C268.829 223.312 269.388 223.864 269.558 223.589L269.868 223.087L271.658 223.941L273.447 224.794L274.053 224.166L274.658 223.537L273.681 223.742C272.404 224.011 270.221 222.922 267.943 220.88C266.935 219.977 265.836 219.246 265.501 219.257C265.166 219.268 265.454 219.582 266.14 219.955ZM204.597 220.371C204.593 220.592 205.132 221.698 205.795 222.829L207 224.886L207.138 228.165C207.213 229.969 207.432 231.445 207.623 231.445C207.814 231.445 207.877 230.023 207.763 228.286L207.554 225.127L206.579 223.281C205.34 220.936 204.607 219.859 204.597 220.371ZM248.535 221.407C248.535 221.833 247.878 222.581 247.075 223.07L245.614 223.958L246.791 225.064C247.438 225.672 248.217 226.753 248.521 227.465C248.825 228.177 249.811 229.106 250.713 229.53L252.352 230.301L249.467 227.416C246.482 224.43 245.901 223.34 247.522 223.764L248.462 224.01L248.221 223.382C247.821 222.338 248.89 222.088 251.023 222.727C253.54 223.481 255.195 225.11 257.201 228.808C258.06 230.392 258.769 231.414 258.776 231.078C258.792 230.301 260.363 230.284 261.133 231.054L261.719 231.64V230.819V229.998L262.911 229.699C263.568 229.534 264.391 229.568 264.742 229.774C265.094 229.979 264.982 229.692 264.494 229.136L263.608 228.124L264.15 227.789C264.448 227.605 265.258 227.825 265.951 228.28C266.643 228.733 267.07 228.878 266.899 228.601C266.727 228.323 267.041 227.953 267.595 227.777L268.602 227.457L271.264 229.467C272.728 230.572 273.926 231.702 273.926 231.977C273.926 232.253 274.155 232.337 274.435 232.164C274.716 231.99 275.54 232.247 276.266 232.733L277.588 233.617L279.714 233.49L281.839 233.362L282.643 233.99L283.447 234.618L282.777 233.764L282.107 232.909H280.194C278.227 232.909 275.171 231.61 272.857 229.791C272.136 229.223 270.963 228.35 270.251 227.849L268.957 226.94L269.489 226.409C270.153 225.745 270.174 225.097 269.531 225.097C269.263 225.097 269.043 225.427 269.043 225.829C269.043 226.232 268.987 226.562 268.917 226.562C268.848 226.562 268.1 226.761 267.253 227.003L265.714 227.445L264.393 226.759C262.656 225.858 262.674 225.847 263.009 227.522L263.299 228.971L262.001 229.563L260.702 230.155L259.42 229.701C258.715 229.451 257.72 228.478 257.209 227.538C256.698 226.598 255.471 225.016 254.483 224.022L252.685 222.215L251.377 222.191C250.658 222.178 249.724 221.822 249.302 221.4L248.535 220.633V221.407ZM170.41 222.607C170.41 227.08 178.593 240.36 186.477 248.681C189.214 251.57 195.377 256.835 196.021 256.835C196.217 256.835 194.817 255.531 192.909 253.938C186.508 248.589 178.025 238.39 174.935 232.326C172.616 227.775 172.491 227.308 173.706 227.731L174.56 228.029L173.562 227.173C172.458 226.228 170.778 222.451 171.25 221.978C171.414 221.814 171.293 221.679 170.98 221.679C170.666 221.679 170.41 222.096 170.41 222.607ZM259.765 223.053L261.474 224.569L262.695 224.558L263.916 224.547L262.72 224.069C262.062 223.806 260.744 223.13 259.79 222.565L258.056 221.538L259.765 223.053ZM178.222 225.243C178.222 225.861 177.948 226.644 177.612 226.983L177.002 227.599L177.832 228.068C178.289 228.325 179.003 228.877 179.419 229.293C179.835 229.709 180.176 229.816 180.176 229.531C180.176 229.245 179.787 228.769 179.313 228.472L178.45 227.934L178.632 226.027C178.732 224.978 178.68 224.12 178.518 224.12C178.355 224.12 178.222 224.626 178.222 225.243ZM175.222 226.152L174.956 227.451L175.857 228.222L176.758 228.993V228.364C176.758 228.017 176.559 227.525 176.317 227.27C176.074 227.015 175.789 226.366 175.682 225.829L175.489 224.853L175.222 226.152ZM237.573 225.49C237.828 225.706 238.865 226.49 239.877 227.231C240.889 227.972 241.605 228.761 241.467 228.983C241.33 229.206 241.545 230.173 241.947 231.133C242.842 233.276 242.845 233.468 241.996 234.629L241.316 235.558L240.409 234.844L239.502 234.13L240.172 234.985L240.842 235.839L238.707 235.832C236.041 235.823 235.494 235.478 235.224 233.64L235.01 232.177L234.936 233.975L234.863 235.773L235.718 236.043C236.187 236.191 237.819 236.4 239.343 236.508L242.114 236.703L241.854 236.027C241.424 234.906 242.77 235.264 244.358 236.693L245.849 238.034L244.263 236.303C242.521 234.404 242.327 233.886 243.355 233.886H244.035L243.118 232.088C242.09 230.07 242.231 229.509 243.514 230.52C243.988 230.894 243.443 230.125 242.303 228.81C241.162 227.495 239.656 226.122 238.955 225.758C237.534 225.02 236.866 224.891 237.573 225.49ZM297.632 225.499C298.374 226.141 302.908 229.261 303.711 229.681C304.72 230.209 302.439 228.301 299.961 226.544C298.119 225.238 296.484 224.504 297.632 225.499ZM192.081 227.886C192.229 228.748 192.138 229.585 191.878 229.745C191.242 230.139 191.276 231.445 191.923 231.445C192.207 231.445 192.304 231.225 192.138 230.956C191.45 229.843 193.404 230.57 194.146 231.704C194.592 232.384 195.054 232.842 195.174 232.722C195.497 232.399 194.295 230.284 193.532 229.833C193.168 229.618 192.867 229.069 192.864 228.613C192.859 228.156 192.621 227.453 192.334 227.05L191.812 226.318L192.081 227.886ZM187.661 228.231C187.841 228.699 187.988 229.505 187.988 230.02C187.988 230.535 188.204 230.901 188.469 230.834C189.035 230.691 196.289 240.637 196.289 241.558C196.289 241.904 196.638 242.187 197.064 242.187H197.84L195.508 238.891C191.583 233.345 190.038 231.238 189.241 230.346C188.82 229.876 188.476 229.175 188.476 228.788C188.476 228.401 188.22 227.926 187.905 227.731L187.334 227.378L187.661 228.231ZM195.839 229.149C195.479 229.74 195.364 230.054 195.584 229.848C195.804 229.641 196.821 230.29 197.845 231.29C198.869 232.289 199.707 232.845 199.707 232.524C199.707 232.203 199.241 231.665 198.672 231.326C198.103 230.989 197.38 230.118 197.066 229.393L196.494 228.073L195.839 229.149ZM220.219 228.778C220.217 229.056 221.301 230.354 222.629 231.662C223.956 232.969 225.301 234.664 225.617 235.427C225.934 236.191 226.386 236.816 226.621 236.816C227.216 236.816 227.163 236.483 226.326 234.96C225.444 233.352 220.225 228.07 220.219 228.778ZM229 231.867C230.744 233.515 232.274 234.863 232.4 234.863C232.843 234.863 227.772 229.9 226.806 229.389C226.269 229.105 227.257 230.22 229 231.867ZM249.52 229.582C249.515 229.766 249.723 230.472 249.981 231.151L250.451 232.386L249.981 232.677C249.364 233.058 249.377 233.886 250 233.886C250.268 233.886 250.488 233.556 250.488 233.154C250.488 232.324 251.253 232.172 251.709 232.909C251.875 233.178 252.394 233.398 252.862 233.398C253.33 233.398 254.691 234.08 255.885 234.914L258.056 236.431L256.353 234.954L254.65 233.477L256.316 233.315C257.232 233.226 258.082 232.848 258.204 232.475L258.427 231.797L257.925 232.107C255.607 233.54 251.857 232.883 250.53 230.812C249.979 229.951 249.524 229.398 249.52 229.582ZM213.4 230.166C213.388 230.403 214.933 232.154 216.834 234.058C219.975 237.206 222.192 240.634 222.152 242.282C222.134 243.056 220.703 245.034 220.703 244.286C220.703 243.995 220.182 243.627 219.545 243.467C218.908 243.307 217.617 242.324 216.677 241.283C215.737 240.243 214.665 239.209 214.295 238.986L213.623 238.581L214.355 239.499C216.025 241.591 218.589 243.933 219.8 244.473L221.094 245.051L221.997 244.367C222.494 243.99 222.68 243.672 222.412 243.659C222.143 243.647 222.182 243.472 222.497 243.272L223.071 242.907L222.498 240.763L221.926 238.618L217.674 234.177C215.335 231.734 213.412 229.929 213.4 230.166ZM305.176 230.615C306.042 231.479 311.992 235.234 311.279 234.467C311.011 234.177 309.363 233.029 307.617 231.913C305.871 230.798 304.773 230.214 305.176 230.615ZM204.663 231.145C204.757 231.212 206.042 232.351 207.519 233.675L210.204 236.083L208.252 233.829C207.178 232.589 205.892 231.45 205.396 231.299C204.899 231.147 204.57 231.077 204.663 231.145ZM177.246 231.835C177.246 232.703 180.389 237.395 181.891 238.769C182.625 239.44 184.118 241.198 185.21 242.675C189.865 248.97 208.693 266.263 215.626 270.611L218.689 272.531L221.527 272.656L224.365 272.781L226.488 273.875C227.655 274.477 228.723 274.857 228.861 274.719C228.998 274.581 227.556 273.742 225.657 272.854L222.202 271.239L222.185 270.173L222.168 269.107L223.511 268.904L224.853 268.7L222.519 268.627L220.184 268.554L219.903 267.822C219.748 267.419 219.129 267.089 218.527 267.089C217.484 267.089 214.305 265.075 212.174 263.063C211.628 262.548 209.821 261.018 208.158 259.663C204.791 256.919 204.323 256.199 205.351 255.346C205.738 255.025 206.054 254.193 206.054 253.497V252.231L206.909 253.086L207.763 253.941L207.242 254.289L206.721 254.638L208.453 256.103L210.185 257.568L209.096 256.159C207.832 254.524 207.727 253.906 208.711 253.906C209.098 253.906 209.565 253.662 209.749 253.365L210.083 252.824L209.004 253.167L207.925 253.51L206.774 252.429L205.624 251.348L205.206 252.96C204.648 255.116 203.991 255.221 202.324 253.42C198.016 248.768 190.429 241.814 190.429 242.517C190.429 242.755 192.104 244.358 194.152 246.079C196.199 247.801 198.979 250.541 200.33 252.168C201.681 253.795 203.193 255.413 203.688 255.764C204.184 256.115 204.595 256.664 204.6 256.985C204.606 257.305 205.43 258.149 206.431 258.858C207.432 259.568 209.68 261.443 211.426 263.024C214.997 266.26 216.9 267.577 218 267.577C218.412 267.577 218.75 267.776 218.75 268.018C218.75 268.26 219.409 268.688 220.215 268.969L221.68 269.48V270.453C221.68 274.076 215.648 270.889 205.152 261.718C199.381 256.676 198.732 255.741 201.725 256.784L203.234 257.311L202.631 256.585C202.3 256.185 201.561 255.858 200.99 255.857C197.717 255.851 183.835 241.877 184.745 239.505C184.88 239.154 184.456 238.142 183.804 237.258C183.151 236.373 182.617 235.899 182.617 236.204C182.617 236.509 182.81 236.878 183.046 237.023C183.283 237.169 183.594 237.741 183.739 238.295L184.002 239.3L182.517 238.424C181.701 237.942 180.18 236.135 179.139 234.408C178.098 232.681 177.246 231.523 177.246 231.835ZM313.232 233.63C314.306 234.597 315.625 235.63 316.162 235.925L317.138 236.46L315.93 235.146L314.72 233.832L315.685 234.189C316.216 234.385 317.408 235.112 318.335 235.803C319.261 236.494 319.854 236.788 319.653 236.456C319.451 236.124 318.326 235.191 317.153 234.384L315.02 232.917L314.806 233.524L314.593 234.13L312.936 233L311.279 231.87L313.232 233.63ZM195.312 233.607C195.312 234.955 202.543 244.14 203.605 244.14C203.897 244.14 203.36 243.459 202.413 242.628C201.466 241.796 199.569 239.434 198.197 237.379C195.427 233.228 195.312 233.078 195.312 233.607ZM274.487 234.643C274.408 236.248 275.139 237.304 276.329 237.304H277.073L276.019 236.566C275.44 236.16 274.875 235.227 274.763 234.491L274.56 233.154L274.487 234.643ZM203.191 235.166C206.34 239.322 208.396 241.665 209.825 242.727C210.691 243.37 211.405 244.163 211.412 244.489C211.42 244.815 211.865 245.317 212.401 245.604C212.937 245.891 213.809 246.976 214.339 248.015L215.303 249.904L214.606 250.482C214.223 250.8 213.68 250.918 213.4 250.745C213.12 250.572 212.89 250.688 212.89 251.004V251.578L214.213 251.325L215.535 251.073L219.113 254.541C221.08 256.449 223.586 259.171 224.681 260.59L226.672 263.171L226.388 263.909C226.232 264.315 226.299 264.648 226.537 264.648C226.775 264.648 227.046 264.418 227.139 264.136L227.31 263.625L229.184 264.408L231.058 265.191L232.472 264.881C234.185 264.505 234.182 264.543 232.666 262.311C231.994 261.323 231.445 260.683 231.445 260.889C231.445 261.095 231.78 261.775 232.189 262.399L232.932 263.533L232.212 264.131L231.492 264.728L229.724 264.089L227.956 263.449L225.686 260.753C224.437 259.269 221.619 256.258 219.423 254.06C217.226 251.862 215.535 249.958 215.664 249.829C215.794 249.7 215.654 249.136 215.354 248.576C214.732 247.413 214.954 247.323 216.463 248.126L217.529 248.694L216.859 247.882C216.491 247.435 215.803 247.07 215.332 247.07C214.861 247.07 214.201 246.74 213.867 246.337L213.259 245.605H214.784C215.622 245.605 216.308 245.37 216.308 245.084V244.562L214.242 244.718L212.175 244.872L212.154 244.384C212.141 244.115 209.86 241.589 207.084 238.769C204.307 235.949 202.555 234.328 203.191 235.166ZM266.113 234.504C266.113 234.677 267.102 235.792 268.31 236.983C270.305 238.949 271.385 239.48 269.897 237.763C268.803 236.5 266.113 234.183 266.113 234.504ZM292.267 237.408C293.843 239.133 295.096 240.221 295.287 240.031C295.504 239.814 291.669 235.839 291.243 235.839C291.017 235.839 291.478 236.545 292.267 237.408ZM260.385 238.856C261.607 240.381 262.755 242.094 262.935 242.663L263.264 243.698L262.676 244.407C262.352 244.798 261.719 245.116 261.268 245.116C260.818 245.116 260.24 245.319 259.985 245.567C259.73 245.815 258.862 246.099 258.056 246.198L256.592 246.379L259.161 246.602L261.73 246.825L261.495 246.215L261.261 245.605H262.046C262.478 245.605 263.076 245.285 263.374 244.894L263.916 244.184L266.008 245.627C267.159 246.42 268.257 247.07 268.448 247.07C268.639 247.07 267.719 246.304 266.403 245.368L264.011 243.668L263.167 241.828C262.703 240.817 261.388 239.111 260.243 238.036L258.163 236.083L260.385 238.856ZM270.996 237.304L270.263 237.777L271.737 237.785C272.548 237.789 274.086 238.356 275.155 239.044L277.099 240.296L275.146 238.563C273.12 236.766 272.242 236.499 270.996 237.304ZM233.806 238.126C234.501 239.43 234.546 240.397 233.892 239.993L233.409 239.695L233.681 240.402L233.952 241.109L232.834 241.892L231.716 242.675H232.52C234.322 242.675 239.8 248.89 240.952 252.24L241.557 254.002L241.826 253.303C241.973 252.92 241.466 251.596 240.698 250.364L239.303 248.121L241.922 248.392C243.363 248.54 245.103 248.521 245.789 248.349L247.035 248.036L246.776 247.358C246.344 246.233 247.551 245.936 248.637 246.9L249.654 247.802L249.432 247.104C249.309 246.721 248.783 246.172 248.262 245.884C247.741 245.596 246.326 244.609 245.117 243.69L242.92 242.019L244.838 244.044L246.756 246.068L245.861 247.057L244.966 248.046H243.078H241.191L239.37 246.856C238.368 246.201 236.67 244.899 235.596 243.962L233.642 242.259L234.253 241.253C235.094 239.867 235.017 238.527 234.051 237.73L233.239 237.06L233.806 238.126ZM223.144 239.965C223.144 240.099 223.78 240.537 224.557 240.939C225.335 241.341 226.632 242.281 227.441 243.027C228.25 243.773 229.646 244.899 230.545 245.528L232.178 246.672L229.854 244.551C228.576 243.385 227.533 242.156 227.535 241.821C227.537 241.485 227.199 241.21 226.782 241.21C226.366 241.21 225.377 240.875 224.585 240.465C223.793 240.055 223.144 239.83 223.144 239.965ZM270.841 240.671C270.974 241.181 270.837 242.061 270.534 242.625L269.985 243.652H268.875C268.264 243.652 267.338 243.329 266.817 242.935C265.206 241.717 264.805 242.119 266.357 243.397L267.822 244.602L269.409 244.515L270.996 244.428V243.581C270.996 243.115 271.195 242.61 271.438 242.459C271.925 242.159 271.594 240.359 270.983 239.981C270.771 239.851 270.708 240.161 270.841 240.671ZM282.611 240.613C283.225 241.093 284.158 242.138 284.683 242.935L285.638 244.384L285.641 246.411L285.644 248.439L284.057 249.455C283.184 250.014 282.786 250.475 283.172 250.479C283.557 250.484 284.436 250.982 285.125 251.586L286.377 252.685L285.212 251.362L284.047 250.039L285.319 249.459L286.592 248.879L287.351 249.509C287.768 249.855 288.221 250.027 288.357 249.891C288.493 249.755 288.07 249.293 287.417 248.865L286.23 248.088V246.408C286.23 245.484 286.084 244.266 285.905 243.702C285.519 242.489 285.486 242.495 287.902 243.325C288.943 243.683 290.689 243.884 291.783 243.771L293.771 243.566L295.689 244.339L297.607 245.112L296.659 244.382C296.138 243.98 295.436 243.652 295.1 243.652C294.764 243.652 294.174 243.202 293.789 242.653L293.09 241.655L292.777 242.47L292.464 243.286L290.007 243.05L287.551 242.814L284.522 241.277C282.857 240.431 281.996 240.133 282.611 240.613ZM323.73 239.932C323.73 240.067 325.049 241.191 326.66 242.431C328.271 243.671 329.59 244.575 329.59 244.441C329.59 244.307 328.271 243.182 326.66 241.943C325.049 240.703 323.73 239.798 323.73 239.932ZM249.339 242.345C249.861 243.509 252.991 245.721 254.644 246.094L256.347 246.478V246.042C256.347 245.802 255.811 245.605 255.156 245.605C254.5 245.605 253.835 245.397 253.678 245.142C253.217 244.397 249.056 241.715 249.339 242.345ZM205.078 242.825C205.078 243.635 207.011 245.596 210.449 248.277L212.158 249.609L209.723 247.301C208.384 246.031 206.791 244.319 206.183 243.495L205.078 241.997V242.825ZM198.749 243.502C198.739 243.823 199.115 244.372 199.585 244.722C200.054 245.073 201.263 246.295 202.27 247.437C203.278 248.579 204.096 249.348 204.09 249.146C204.069 248.498 198.769 242.897 198.749 243.502ZM229.54 250.346L235.905 256.552L236.178 257.914L236.45 259.277H237.219H237.988L237.402 258.691C237.08 258.368 236.816 257.788 236.816 257.402C236.816 257.015 236.432 256.418 235.963 256.074C234.755 255.192 235.445 254.756 237.072 255.375L238.44 255.895L238.947 255.388L239.453 254.882H238.115C235.924 254.882 233.419 253.234 228.515 248.565C225.964 246.136 223.719 244.147 223.526 244.144C223.333 244.142 226.039 246.932 229.54 250.346ZM206.787 248.594C208.667 250.622 210.59 252.406 211.059 252.559C212.299 252.963 212.107 252.191 210.747 251.3C210.105 250.88 208.182 249.269 206.474 247.721L203.369 244.907L206.787 248.594ZM272.429 246.052C273.827 247.127 276.833 248.884 276.123 248.211C275.854 247.956 274.826 247.156 273.836 246.432C271.825 244.961 270.567 244.621 272.429 246.052ZM330.81 245.448C331.079 245.695 332.397 246.729 333.74 247.745L336.181 249.592L334.228 247.8C333.154 246.814 331.836 245.781 331.299 245.502C330.762 245.224 330.542 245.199 330.81 245.448ZM219.528 249.928C220.577 250.964 223.193 253.306 225.342 255.134C227.49 256.962 229.742 258.9 230.346 259.44L231.445 260.424L231.432 259.728C231.426 259.345 230.285 258.263 228.898 257.323C227.511 256.384 224.575 253.912 222.374 251.83C218.329 248.004 216.006 246.452 219.528 249.928ZM305.624 248.955C306.542 249.455 307.748 249.746 308.305 249.6L309.319 249.335L308.102 249.014C307.432 248.838 306.225 248.547 305.42 248.369L303.955 248.045L305.624 248.955ZM261.23 248.878C261.23 249.16 261.56 249.665 261.963 249.999C262.366 250.334 262.695 251.02 262.695 251.524C262.695 252.028 262.955 252.441 263.273 252.441C263.592 252.441 264.811 252.906 265.984 253.473C267.158 254.041 268.23 254.393 268.367 254.256C268.504 254.118 267.388 253.424 265.885 252.714C264.382 252.003 263.263 251.243 263.397 251.025C263.532 250.807 263.099 250.12 262.436 249.497C261.773 248.874 261.23 248.595 261.23 248.878ZM277.512 249.427C277.956 249.919 278.32 250.544 278.32 250.817C278.32 251.09 278.806 251.731 279.4 252.243L280.479 253.173L279.601 251.782L278.723 250.391L280.23 250.722C282.409 251.201 282.083 250.686 279.479 249.534C276.707 248.308 276.488 248.296 277.512 249.427ZM248.747 249.772C249.803 250.172 251.067 250.86 251.555 251.301C252.042 251.742 252.441 251.884 252.441 251.615C252.441 250.696 250.733 249.635 248.779 249.34L246.826 249.046L248.747 249.772ZM143.554 250.366C143.554 251.683 144.038 252.929 144.549 252.929C144.77 252.929 144.754 252.24 144.512 251.398C143.961 249.478 143.554 249.039 143.554 250.366ZM253.017 253.944L252.99 255.96L252.151 256.886C251.69 257.395 250.963 257.815 250.534 257.819L249.756 257.827L250.442 258.261L251.128 258.696L252.459 257.399C253.191 256.686 253.917 255.408 254.072 254.558L254.353 253.014L253.699 252.471L253.045 251.928L253.017 253.944ZM303.29 252.763L303.758 253.33L303.228 253.658C302.937 253.838 301.773 253.855 300.641 253.696L298.584 253.406L300.593 254.266C301.698 254.739 302.922 255.396 303.314 255.725L304.026 256.324L303.814 254.876L303.601 253.428L304.266 253.226C304.632 253.114 305.92 252.818 307.129 252.568L309.326 252.112L306.074 252.154L302.823 252.197L303.29 252.763ZM260.742 253.446C260.742 253.73 260.974 253.82 261.259 253.644C261.542 253.469 262.696 253.909 263.822 254.623L265.869 255.92L264.16 254.438C262.457 252.961 260.742 252.463 260.742 253.446ZM313.476 255.343C317.763 258.295 320.782 259.947 321.174 259.555C321.326 259.402 321.22 259.277 320.935 259.277C320.652 259.277 318.378 257.936 315.882 256.298C310.271 252.613 308.48 251.903 313.476 255.343ZM256.838 255.831C256.839 255.98 259.371 257.384 262.464 258.949L268.087 261.797L269.419 263.466C270.594 264.938 272.515 265.921 271.728 264.648C270.776 263.107 280.286 266.646 290.404 271.599C291.008 271.894 291.615 272.023 291.753 271.885C291.89 271.748 290.518 271.019 288.702 270.266C286.886 269.513 284.302 268.29 282.959 267.548C281.616 266.806 278.433 265.499 275.887 264.643C273.34 263.787 270.385 262.614 269.32 262.036C264.016 259.159 256.836 255.59 256.838 255.831ZM280.419 255.969C280.154 256.311 279.798 256.98 279.628 257.455C279.458 257.931 278.664 258.451 277.864 258.611L276.408 258.902L277.242 260.051C277.701 260.682 278.268 261.206 278.502 261.215C278.736 261.223 278.65 260.895 278.31 260.486C277.314 259.285 278.19 259.035 280.158 259.958C282.792 261.196 293.059 267.114 294.07 267.978C294.542 268.381 295.061 268.577 295.223 268.415C295.386 268.252 296.713 268.793 298.173 269.616C299.632 270.44 300.956 270.983 301.117 270.822C301.277 270.662 300.374 270.089 299.11 269.547L296.812 268.562L297.117 268.07L297.421 267.577H296.282C295.656 267.577 292.731 266.236 289.784 264.595C286.836 262.955 283.38 261.084 282.104 260.437C280.075 259.407 278.942 257.812 280.241 257.812C280.736 257.812 281.476 255.922 281.12 255.566C280.999 255.446 280.684 255.627 280.419 255.969ZM304.177 258.586C303.198 260.416 301.524 260.613 296.387 259.502C295.715 259.356 296.333 259.706 297.759 260.279L300.351 261.32L301.131 262.953L301.909 264.587L301.099 265.824L300.289 267.06L300.979 266.795C301.359 266.649 301.805 265.991 301.971 265.332L302.271 264.133L304.478 265.426C305.692 266.137 306.786 266.618 306.909 266.494C307.034 266.37 306.149 265.762 304.943 265.142C301.813 263.532 300.253 260.741 302.483 260.741C302.851 260.741 303.606 260.164 304.161 259.459L305.17 258.176L305.917 258.796C306.328 259.137 306.747 259.329 306.848 259.224C306.95 259.119 306.535 258.66 305.928 258.206L304.822 257.38L304.177 258.586ZM335.205 258.109C336.372 259.01 338.867 260.357 338.867 260.087C338.867 259.793 335.033 257.322 334.605 257.339C334.398 257.347 334.668 257.694 335.205 258.109ZM253.102 260.451C254.409 261.52 263.827 265.651 264.892 265.621C265.161 265.615 263.183 264.643 260.498 263.463C253.973 260.597 252.938 260.074 252.933 259.643C252.931 259.441 252.655 259.284 252.319 259.294C251.984 259.304 252.336 259.824 253.102 260.451ZM235.385 260.232L234.828 260.576L236.921 261.203C238.072 261.547 240.271 262.463 241.807 263.239C243.344 264.013 245.211 264.653 245.957 264.658C246.704 264.664 248.241 265.09 249.372 265.603L251.43 266.538L251.758 267.843L252.085 269.147L251.409 269.575L250.732 270.004L251.283 270.011C251.586 270.015 252.107 269.689 252.441 269.286L253.049 268.554L252.441 267.822L251.833 267.089L252.748 267.067L253.662 267.045L252.197 266.374C251.391 266.006 250.952 265.667 251.221 265.622C251.95 265.5 249.12 264.67 246.317 264.183C244.964 263.948 242.075 262.886 239.899 261.822C237.722 260.759 235.691 260.043 235.385 260.232ZM308.349 260.136C309.264 261.027 313.658 263.384 313.288 262.784C313.085 262.456 311.781 261.619 310.39 260.924C308.999 260.229 308.081 259.874 308.349 260.136ZM322.998 261.145C327.339 263.776 329.246 264.789 328.946 264.303C328.761 264.004 327.175 262.97 325.421 262.006C322.111 260.186 320.433 259.591 322.998 261.145ZM221.611 263.373C222.421 265.508 225.064 268.554 226.106 268.554C226.358 268.554 225.685 267.76 224.611 266.788C223.535 265.817 222.656 264.804 222.656 264.538V264.053L223.999 264.357L225.342 264.661L224.365 264.101C223.828 263.793 222.793 262.988 222.065 262.313L220.742 261.085L221.611 263.373ZM217.885 264.334C219.424 265.849 220.907 267.089 221.181 267.089C222.007 267.089 221.742 266.104 220.825 265.771C220.355 265.6 218.872 264.587 217.529 263.52L215.088 261.58L217.885 264.334ZM252.286 262.524C252.111 262.699 252.349 263.123 252.815 263.466L253.662 264.09L252.807 264.421C252.338 264.603 251.953 264.956 251.953 265.205C251.953 265.455 252.448 265.402 253.052 265.087C254.566 264.299 254.536 264.361 253.929 263.225C253.371 262.183 252.85 261.961 252.286 262.524ZM313.965 263.382C313.965 263.783 324.764 269.148 325.032 268.88C325.154 268.758 322.883 267.481 319.984 266.042C313.626 262.887 313.965 263.037 313.965 263.382ZM331.543 265.831C331.543 266.246 336.493 268.65 336.772 268.37C336.909 268.233 335.953 267.633 334.648 267.036C333.343 266.439 332.111 265.865 331.909 265.759C331.707 265.653 331.543 265.686 331.543 265.831ZM337.505 268.814C337.696 269.008 341.211 270.968 345.318 273.17C349.424 275.372 354.87 278.661 357.422 280.48C359.973 282.299 363.159 284.324 364.502 284.98C367.286 286.341 366.463 285.607 362.783 283.447C361.411 282.641 358.884 280.938 357.167 279.662C353.431 276.885 335.968 267.25 337.505 268.814ZM155.129 272.202C155.85 273.672 156.505 274.81 156.584 274.731C156.851 274.464 154.595 269.531 154.205 269.531C153.993 269.531 154.409 270.733 155.129 272.202ZM260.271 270.199C261.181 271.049 264.16 272.054 264.16 271.511C264.16 271.138 260.698 269.531 259.895 269.531C259.709 269.531 259.878 269.831 260.271 270.199ZM351.751 270.134C352.258 270.473 355.416 272.901 358.771 275.528C362.126 278.156 365.337 280.544 365.907 280.837C367.309 281.556 366.557 280.882 362.793 278.042C361.047 276.726 358.41 274.632 356.933 273.39C355.456 272.148 353.479 270.768 352.539 270.324C351.599 269.88 351.244 269.794 351.751 270.134ZM267.09 271.972C267.09 272.24 267.375 272.46 267.724 272.46C268.074 272.46 268.614 272.715 268.925 273.026C269.236 273.337 270.214 273.652 271.098 273.724L272.705 273.857L270.63 273.118C269.489 272.712 268.555 272.177 268.555 271.931C268.555 271.685 268.225 271.484 267.822 271.484C267.419 271.484 267.09 271.703 267.09 271.972ZM281.25 273.62C281.25 273.914 291.092 277.917 291.301 277.709C291.482 277.528 282.137 273.437 281.541 273.437C281.381 273.437 281.25 273.519 281.25 273.62ZM216.308 274.136C216.308 274.262 217.792 275.194 219.604 276.206C221.417 277.218 224.219 278.867 225.83 279.872C230.609 282.851 233.046 284.206 233.254 283.998C233.361 283.89 232.504 283.26 231.348 282.596C230.193 281.932 227.208 280.15 224.715 278.635C219.749 275.618 216.308 273.777 216.308 274.136ZM236.942 274.748L237.765 275.572L240.098 275.69L242.431 275.808L240.722 275.445C239.783 275.246 238.534 274.822 237.947 274.504C236.428 273.679 235.982 273.788 236.942 274.748ZM274.768 275.282C275.244 275.774 275.761 275.994 275.914 275.772C276.068 275.55 277.24 275.831 278.518 276.396C279.797 276.962 280.966 277.301 281.116 277.151C281.266 277.001 280.973 276.739 280.465 276.57C279.957 276.401 278.882 275.983 278.076 275.643C277.27 275.303 276.001 274.881 275.256 274.706L273.901 274.388L274.768 275.282ZM223.633 275.66C223.633 276.014 230.135 278.838 230.596 278.684C230.834 278.605 229.365 277.845 227.331 276.996C225.297 276.147 223.633 275.546 223.633 275.66ZM330.566 278.049C332.849 279.208 335.993 280.866 337.553 281.732C339.114 282.598 340.473 283.223 340.576 283.121C340.906 282.791 327.61 275.839 326.782 275.909C326.58 275.926 328.284 276.889 330.566 278.049ZM255.249 277.309C256.122 277.857 256.836 278.638 256.836 279.045C256.836 279.451 257.076 279.784 257.369 279.784H257.902L256.978 278.197L256.054 276.611L254.858 276.462L253.662 276.313L255.249 277.309ZM266.809 277.284C266.955 277.52 267.517 277.829 268.059 277.971L269.044 278.228L268.727 277.715L268.409 277.201L269.688 277.446C270.391 277.58 270.85 277.502 270.708 277.273C270.566 277.043 269.571 276.855 268.497 276.855C267.423 276.855 266.663 277.048 266.809 277.284ZM313.965 277.577C313.965 277.966 317.947 279.871 318.21 279.609C318.344 279.474 317.512 278.91 316.362 278.354C314.114 277.268 313.965 277.219 313.965 277.577ZM283.691 277.966C283.691 278.208 288.098 280.389 289.673 280.927C290.142 281.087 290.531 281.61 290.534 282.089L290.542 282.958L290.988 282.254L291.434 281.549L292.753 282.15C293.478 282.48 294.157 282.666 294.261 282.562C294.365 282.458 292.392 281.467 289.877 280.359C284.25 277.882 283.691 277.665 283.691 277.966ZM296.556 280.085C297.858 280.762 299.03 281.21 299.16 281.079C299.39 280.85 295.105 278.785 294.493 278.831C294.326 278.843 295.255 279.407 296.556 280.085ZM308.105 280.514C308.105 280.843 313.048 283.305 313.267 283.086C313.367 282.986 312.247 282.315 310.777 281.594C309.307 280.873 308.105 280.387 308.105 280.514ZM301.928 282.526C303.229 283.204 304.401 283.651 304.532 283.521C304.761 283.291 300.476 281.226 299.865 281.272C299.697 281.284 300.626 281.849 301.928 282.526ZM322.754 281.94C323.425 282.299 324.524 282.737 325.195 282.914L326.416 283.236L324.707 282.263C323.767 281.728 322.668 281.29 322.265 281.289L321.533 281.288L322.754 281.94ZM282.147 284.219C282.245 285.251 282.633 286.35 283.008 286.661L283.691 287.228V286.709C283.691 286.424 283.451 286.041 283.156 285.859C282.862 285.677 282.713 284.904 282.825 284.14C282.937 283.376 282.79 282.66 282.498 282.548L281.968 282.344L282.147 284.219ZM297.796 284.165C299.511 284.978 301.159 285.631 301.458 285.615C302.097 285.583 297.482 283.435 295.819 282.991C295.191 282.824 296.081 283.352 297.796 284.165ZM341.308 283.386C341.308 283.697 348.754 287.15 348.967 286.937C349.073 286.832 348.106 286.247 346.82 285.638C343.386 284.012 341.308 283.163 341.308 283.386ZM371.582 284.625C372.971 285.783 375.976 287.662 375.976 287.371C375.976 287.168 372.349 284.66 371.094 283.994C370.691 283.781 370.91 284.064 371.582 284.625ZM329.858 284.588C330.561 285.206 335.514 287.206 335.753 286.968C335.953 286.767 330.34 284.179 329.704 284.179C329.534 284.179 329.603 284.363 329.858 284.588ZM307.811 285.074C307.967 285.326 310.458 286.456 313.348 287.587C316.239 288.717 319.043 289.835 319.58 290.071C321.279 290.818 324.907 291.954 325.07 291.791C325.156 291.705 324.615 291.401 323.868 291.114C319.469 289.429 311.006 286.094 309.404 285.414C308.372 284.975 307.656 284.823 307.811 285.074ZM367.187 286.332C367.187 286.616 372.948 290.038 373.426 290.038C373.841 290.038 372.459 289.115 369.507 287.422C368.231 286.69 367.187 286.199 367.187 286.332ZM267.402 288.806C269.867 291.026 270.629 291.036 268.277 288.818C267.28 287.878 266.251 287.109 265.991 287.109C265.73 287.109 266.365 287.873 267.402 288.806ZM306.355 287.681L307.29 288.224L306.427 288.856L305.562 289.488L307.32 289.397C308.286 289.347 309.078 289.189 309.08 289.045C309.082 288.707 306.373 287.104 305.833 287.123C305.606 287.132 305.841 287.383 306.355 287.681ZM248.047 288.085L246.826 288.476L249.267 288.49L251.709 288.505L250.732 288.085C249.574 287.588 249.601 287.588 248.047 288.085ZM354.004 289.504C355.451 290.663 360.302 293.181 360.567 292.912C360.668 292.808 358.959 291.78 356.767 290.625C354.576 289.471 353.332 288.967 354.004 289.504ZM377.93 288.838C377.93 288.972 379.413 290.062 381.225 291.261C383.038 292.46 385.789 294.378 387.338 295.524C391.384 298.515 396.426 301.997 395.186 300.944C392.921 299.018 388.31 295.492 385.986 293.908C381.347 290.746 377.93 288.595 377.93 288.838ZM328.393 289.505C329.046 290.129 337.491 293.043 337.786 292.746C337.921 292.613 337.614 292.367 337.106 292.201C335.834 291.785 331.056 290.05 329.689 289.507C328.263 288.941 327.803 288.94 328.393 289.505ZM329.736 293.545L332.08 294.578L331.933 295.604L331.787 296.63L329.834 296.534L327.881 296.438L329.546 296.855C330.463 297.084 331.508 297.158 331.869 297.019C332.231 296.881 333.067 297.121 333.727 297.553C335.55 298.747 335.707 298.493 334.022 297.075C333.196 296.38 332.519 295.483 332.519 295.083V294.355L334.045 294.69L335.571 295.026L335.237 294.485C335.054 294.188 334.394 293.945 333.773 293.945C333.151 293.945 331.708 293.615 330.566 293.212C327.532 292.142 327.02 292.347 329.736 293.545ZM352.783 294.14C354.126 294.791 356.018 295.458 356.989 295.621C357.959 295.783 360.76 296.894 363.214 298.088C368.987 300.898 368.928 300.548 363.098 297.396L358.521 294.921H356.971C356.118 294.921 354.827 294.619 354.101 294.251C353.376 293.882 352.234 293.439 351.562 293.267C350.891 293.095 351.44 293.488 352.783 294.14ZM378.662 293.344C379.357 294.05 384.765 297.438 384.765 297.168C384.765 296.902 380.854 294.228 379.277 293.416C378.67 293.104 378.393 293.072 378.662 293.344ZM336.426 295.028C336.926 295.565 344.238 298.751 344.233 298.429C344.23 298.245 342.756 297.467 340.958 296.699C337.051 295.029 336.1 294.678 336.426 295.028ZM369.14 296.584C369.14 296.825 375.47 299.814 375.909 299.78C376.296 299.751 370.012 296.442 369.507 296.41C369.305 296.397 369.14 296.475 369.14 296.584ZM328.125 298.028C328.125 298.557 331.039 304.198 331.313 304.198C331.447 304.198 330.868 302.825 330.027 301.147C328.432 297.965 328.125 297.461 328.125 298.028ZM306.965 298.942C306.652 299.139 308.209 299.304 310.425 299.308C312.64 299.312 314.453 299.151 314.453 298.949C314.454 298.476 307.712 298.469 306.965 298.942ZM388.63 299.687C389.96 300.787 396.484 304.395 396.484 304.031C396.484 303.901 395.001 302.97 393.188 301.962C391.376 300.955 389.343 299.811 388.672 299.421L387.451 298.712L388.63 299.687ZM346.72 299.504C347.235 299.98 358.096 305.216 357.666 304.78C357.111 304.218 347.432 299.316 346.878 299.316C346.68 299.316 346.608 299.401 346.72 299.504ZM359.131 302.126C359.747 302.785 370.473 309.051 371.948 309.614C374.149 310.454 372.948 309.6 368.53 307.183C366.046 305.823 362.805 304.012 361.328 303.158C359.851 302.303 358.862 301.84 359.131 302.126ZM364.298 301.959C364.803 302.459 375.227 307.552 375.397 307.382C375.502 307.277 373.116 305.968 370.094 304.474C365.047 301.979 363.751 301.416 364.298 301.959ZM376.221 304.568C376.967 305.326 383.343 308.714 383.579 308.477C383.693 308.363 381.974 307.325 379.76 306.171C377.544 305.017 375.952 304.296 376.221 304.568ZM391.601 304.43C391.601 304.565 393.139 305.449 395.019 306.396C396.899 307.343 398.437 308.007 398.437 307.873C398.437 307.739 396.899 306.854 395.019 305.907C393.139 304.961 391.601 304.296 391.601 304.43ZM353.76 306.033C354.028 306.295 355.346 307.109 356.689 307.84C358.032 308.572 358.691 308.803 358.154 308.355C357.05 307.433 353.006 305.296 353.76 306.033ZM364.933 309.107C366.781 310.185 368.385 310.976 368.496 310.864C368.715 310.646 362.501 307.122 361.922 307.137C361.729 307.141 363.084 308.028 364.933 309.107ZM331.067 307.753C331.044 308.438 334.013 314.012 335.479 316.036C336.268 317.126 336.914 317.853 336.914 317.653C336.914 317.452 336.419 316.596 335.815 315.749C335.211 314.903 333.898 312.672 332.898 310.791C331.898 308.911 331.075 307.543 331.067 307.753ZM337.801 309.203C339.417 311.858 343.359 318.95 344.585 321.41C345.221 322.686 345.965 323.73 346.238 323.73C346.511 323.73 346.393 323.241 345.975 322.644C345.557 322.048 345.215 321.279 345.215 320.937C345.215 320.594 344.446 319.243 343.506 317.935C342.566 316.627 341.797 315.426 341.797 315.266C341.797 314.814 337.36 307.616 337.082 307.616C336.946 307.616 337.269 308.33 337.801 309.203ZM402.724 310.33C403.792 311.078 404.785 310.933 404.785 310.029C404.785 309.776 404.077 309.57 403.211 309.57H401.638L402.724 310.33ZM323.949 312.545C324.154 313.191 324.489 314.709 324.693 315.917L325.065 318.114L325.141 316.65L325.217 315.185L326.168 316.406L327.118 317.626L326.852 318.603L326.586 319.579L327.592 318.114C329.056 315.981 329.901 316.226 330.788 319.044L331.081 319.973L331.761 319.045C332.134 318.534 332.336 318.012 332.209 317.885C332.082 317.759 331.774 317.978 331.524 318.373L331.07 319.091L331.062 318.146C331.058 317.626 330.579 316.695 329.998 316.076L328.942 314.952L328.411 315.99C327.629 317.522 326.972 317.349 326.359 315.45C326.059 314.523 325.564 313.68 325.26 313.579C324.956 313.477 324.707 313.096 324.707 312.732C324.707 312.367 324.452 311.911 324.141 311.719L323.576 311.37L323.949 312.545ZM364.835 313.333L364.995 314.164L367.311 314.992C369.811 315.887 370.11 315.461 367.686 314.457C366.875 314.121 366.211 313.676 366.211 313.469C366.211 313.261 365.865 312.959 365.443 312.797L364.675 312.503L364.835 313.333ZM373.047 315.666C373.047 315.797 374.319 316.545 375.873 317.33L378.7 318.757L379.561 318.275L380.422 317.793L381.141 318.39C381.536 318.718 381.969 318.877 382.101 318.744C382.235 318.611 381.406 317.887 380.259 317.136L378.174 315.77L379.104 316.821L380.034 317.87H379.055C378.516 317.87 377.042 317.321 375.779 316.65C373.413 315.392 373.047 315.26 373.047 315.666ZM229.321 318.245C229.595 319.292 231.949 321.8 231.913 321.007C231.903 320.759 231.256 319.81 230.476 318.898L229.058 317.24L229.321 318.245ZM350.671 320.322C351.56 321.94 352.353 323.067 352.433 322.827C352.576 322.397 349.653 317.382 349.259 317.382C349.147 317.382 349.782 318.705 350.671 320.322ZM355.957 318.227C356.36 318.803 357.568 320.597 358.642 322.213C359.717 323.83 360.911 325.162 361.297 325.174L361.999 325.195L360.759 323.852C360.076 323.113 358.824 321.476 357.975 320.215C357.127 318.953 356.16 317.754 355.828 317.55L355.224 317.179L355.957 318.227ZM363.769 318.162C363.769 318.354 364.33 319.245 365.015 320.144L366.261 321.777H367.296C367.865 321.777 368.788 322.161 369.346 322.631L370.361 323.486L369.431 322.387C368.919 321.783 367.991 321.288 367.368 321.288H366.236L365.494 319.854C364.768 318.45 363.769 317.47 363.769 318.162ZM247.365 319.739C248.321 321.417 249.398 322.548 249.719 322.213C249.82 322.107 249.123 321.142 248.17 320.068L246.439 318.114L247.365 319.739ZM375.769 319.904C376.262 321.04 382.041 325.683 382.963 325.683C383.449 325.683 383.711 325.463 383.545 325.195C383.379 324.926 382.854 324.706 382.378 324.706C381.903 324.706 380.158 323.479 378.5 321.979C376.843 320.479 375.614 319.546 375.769 319.904ZM391.113 320.016C391.113 320.371 395.968 322.753 396.691 322.753C397.082 322.753 397.537 322.536 397.701 322.27L398 321.788L397.243 322.078C396.827 322.238 395.391 321.796 394.053 321.096C391.645 319.837 391.113 319.641 391.113 320.016ZM209.692 322.387C210.929 328.128 211.491 332.351 211.527 336.181L211.569 340.575L210.07 345.007C209.246 347.444 206.718 353.486 204.452 358.434C202.186 363.383 200.192 368.014 200.022 368.726L199.712 370.021L197.39 371.931C193.421 375.196 180.681 382.41 175.049 384.583C166.557 387.858 157.054 393.491 153.736 397.216C150.351 401.016 149.751 403.537 153.052 400.093L155.224 397.825L156.013 398.128L156.802 398.43L160.066 396.493C161.861 395.428 164.319 393.951 165.527 393.212C168.704 391.266 177.388 386.698 177.568 386.877C177.652 386.961 175.801 388.089 173.455 389.384C165.39 393.836 160.77 397.763 158.502 402.095L157.226 404.532L157.248 406.245L157.269 407.958L158.257 406.087L159.244 404.217L159.94 404.484L160.637 404.751L161.429 403.219C161.864 402.377 163.823 400.132 165.781 398.231L169.341 394.775L173.08 392.649C175.137 391.479 176.909 390.613 177.018 390.722C177.128 390.831 175.827 391.72 174.129 392.697C172.431 393.674 170.357 395.05 169.519 395.754L167.997 397.035L167.497 398.834C166.729 401.599 166.894 404.143 167.978 406.269C169.285 408.829 169.364 408.742 169.07 405.071C168.719 400.707 169.035 399.889 172.356 396.569L175.28 393.645L181.381 390.67C184.737 389.033 187.62 387.695 187.787 387.695C187.955 387.695 190.189 386.233 192.751 384.447L197.409 381.199L200.804 380.018C204.974 378.568 204.371 378.578 212.646 379.826C216.406 380.392 220.327 380.857 221.359 380.858L223.236 380.859L223.491 379.882C223.632 379.345 223.804 378.906 223.874 378.906C224.662 378.906 228.082 380.743 229.126 381.728C231.329 383.806 230.465 381.311 228.09 378.734C226.1 376.576 225.433 376.38 217.087 375.492C214.428 375.21 211.327 374.569 210.197 374.07L208.143 373.161L207.885 371.808C207.449 369.528 209.254 362.342 211.683 356.689C212.952 353.735 214.632 349.788 215.415 347.919C216.835 344.53 219.835 339.483 225.199 331.462L228.027 327.231V325.909V324.587L228.674 325.123L229.32 325.659L229.894 325.085C230.976 324.004 230.462 323.832 225.952 323.773C221.142 323.709 214.203 322.611 211.488 321.484C209.292 320.572 209.3 320.568 209.692 322.387ZM332.519 324.287C332.519 324.952 332.867 325.923 333.292 326.444L334.064 327.392L333.717 326.415C333.526 325.878 333.329 325.059 333.28 324.594C333.134 323.221 332.519 322.973 332.519 324.287ZM251.953 325.042C251.953 325.597 254.121 328.606 254.523 328.609C254.728 328.611 254.315 327.734 253.604 326.659C252.337 324.745 251.953 324.369 251.953 325.042ZM217.814 327.66C217.174 330.646 217.164 330.891 217.716 330.297C218.184 329.794 218.959 325.195 218.576 325.195C218.448 325.195 218.104 326.304 217.814 327.66ZM223.237 329.937C222.616 331.145 222.216 332.242 222.348 332.374C222.658 332.684 224.714 328.667 224.515 328.14C224.433 327.92 223.857 328.729 223.237 329.937ZM407.687 329.31C408.613 330.001 409.821 330.544 410.373 330.517L411.377 330.469L410.156 330.129C409.485 329.942 408.935 329.469 408.935 329.079V328.368L407.471 328.212L406.006 328.055L407.687 329.31ZM348.633 332.47C348.633 332.726 349.292 333.264 350.097 333.666C350.903 334.068 351.562 334.2 351.562 333.959C351.562 333.718 350.903 333.179 350.097 332.763C349.292 332.346 348.633 332.215 348.633 332.47ZM377.413 334.908C377.668 335.384 378.206 336.047 378.61 336.382L379.343 336.99L380.223 336.435L381.103 335.88L380.371 336.087C379.968 336.2 379.24 336.088 378.752 335.837L377.867 335.381L378.361 334.784L378.856 334.188L377.904 334.116L376.951 334.044L377.413 334.908ZM428.968 342.938C430.511 343.984 433.245 345.238 433.477 345.005C433.945 344.537 432.985 343.749 431.949 343.749C431.345 343.749 430.424 343.426 429.903 343.032C429.382 342.638 428.741 342.308 428.48 342.3C428.219 342.291 428.439 342.578 428.968 342.938ZM355.79 354.554C355.966 355.46 356.324 356.341 356.584 356.512C356.845 356.683 356.908 357.068 356.723 357.366L356.388 357.909H357.478H358.569L357.445 356.714L356.322 355.518L356.598 354.796C356.751 354.399 356.559 353.812 356.172 353.491L355.469 352.907L355.79 354.554ZM340.187 355.287C340.003 355.471 340.044 355.862 340.278 356.156C340.513 356.449 340.825 357.458 340.971 358.398C341.473 361.607 341.953 363.036 342.73 363.631C344.079 364.666 344.453 364.305 343.303 363.08C342.694 362.432 342.271 361.548 342.363 361.114L342.529 360.324L344.482 361.862L346.435 363.4L343.872 360.947C341.337 358.521 340.733 357.428 341.919 357.414L342.529 357.406L341.999 357.048C341.708 356.85 341.256 356.298 340.995 355.821C340.735 355.343 340.371 355.103 340.187 355.287ZM398.831 362.592C399.395 363.421 400.177 364.366 400.568 364.69L401.28 365.281L401.596 364.769C401.77 364.488 401.668 364.257 401.368 364.257C401.069 364.257 400.145 363.543 399.315 362.67L397.806 361.083L398.831 362.592ZM353.812 363.565C353.355 364.755 353.461 366.21 354.004 366.21C354.272 366.21 354.492 365.441 354.492 364.501C354.492 362.648 354.277 362.352 353.812 363.565ZM373.863 364.204C373.682 365.106 373.561 366.531 373.592 367.37L373.649 368.896L374.09 366.239C374.576 363.306 374.385 361.593 373.863 364.204ZM358.679 364.686C358.511 364.958 358.675 365.906 359.042 366.794L359.71 368.407L359.607 366.559C359.495 364.566 359.165 363.9 358.679 364.686ZM360.125 369.391C360.25 369.79 360.473 370.495 360.622 370.957L360.892 371.798L361.346 371.079C361.98 370.078 361.943 369.942 360.858 369.264L359.899 368.666L360.125 369.391ZM382.812 375.272C382.812 375.691 383.034 375.897 383.304 375.73C383.575 375.562 383.928 375.769 384.089 376.189C384.25 376.609 384.726 376.952 385.147 376.952H385.912L384.765 375.732C383.45 374.331 382.812 374.181 382.812 375.272Z" fill="#FBFDFD"/>
</svg>
