<svg width="500" height="500" viewBox="0 0 500 500" fill="none" xmlns="http://www.w3.org/2000/svg">
<path fill-rule="evenodd" clip-rule="evenodd" d="M141.042 100.177C116.364 104.781 110.505 107.146 98.4614 117.362L95.245 120.091L87.5167 120.38L79.7876 120.669L73.287 119.539C69.7115 118.918 66.6231 118.573 66.4231 118.773C66.2238 118.973 66.5795 119.136 67.2135 119.136C67.8482 119.136 68.3673 119.386 68.3673 119.693C68.3673 119.999 65.9532 119.776 63.0033 119.197C60.0534 118.617 58.1334 118.042 58.737 117.918C59.3412 117.794 61.1317 117.984 62.7167 118.341L65.5988 118.989V118.37C65.5988 118.029 65.0541 117.725 64.3876 117.693C63.721 117.66 61.4065 117.412 59.2436 117.141C57.08 116.87 55.4431 116.864 55.6057 117.127C56.0099 117.782 53.8664 118.546 53.0476 118.04C52.3866 117.631 50.3718 118.917 50.3718 119.747C50.3718 121.127 58.0275 123.425 71.4819 126.082C73.3853 126.458 75.7213 126.933 76.673 127.137C81.8564 128.25 90.8797 129.869 109.203 132.975C135.505 137.433 145.77 139.912 146.455 141.972L146.755 142.872L144.763 142.511C143.668 142.313 139.813 141.47 136.197 140.64C132.58 139.809 123.392 138.073 115.779 136.783C108.165 135.492 98.6656 133.794 94.6685 133.008C90.6714 132.223 85.688 131.278 83.5943 130.908C67.9147 128.137 51.4072 124.305 49.5523 123.004C47.3326 121.449 45.6168 121.644 44.7489 123.552L44 125.195L44.7842 126.661C45.8169 128.593 48.1687 129.741 54.8707 131.587C61.1629 133.319 74.9392 137.665 77.019 138.574C77.7804 138.906 82.7028 140.744 87.9582 142.656C106.316 149.337 145.527 169.144 160.767 179.436C167.325 183.865 185.769 194.643 186.789 194.643C187.133 194.643 187.415 192.988 187.415 190.966V187.289L184.473 186.005C182.856 185.299 178.573 183.279 174.956 181.517C171.34 179.755 166.356 177.447 163.882 176.386C158.213 173.956 140.223 164.059 140.667 163.614C140.849 163.432 141.82 163.821 142.822 164.479C146.28 166.746 159.727 173.81 164.74 175.993C170.026 178.293 183.382 184.539 185.604 185.748L186.908 186.457L187.488 185.528C188.119 184.516 189.22 176.928 188.98 175.246C188.898 174.675 189.101 173.584 189.432 172.822C189.763 172.06 190.875 168.475 191.904 164.856C193.433 159.475 196.354 152.789 196.401 154.563C196.414 155.061 193.391 166.664 192.276 170.397C188.982 181.422 188.685 206.519 191.668 221.659C193.08 228.825 200.323 248.675 201.526 248.675C201.957 248.675 200.93 245.131 200.007 243.432C197.21 238.283 194.881 231.066 192.536 220.273L191.557 215.771L191.114 201.05L190.672 186.33H191.464C191.899 186.33 192.698 187.343 193.24 188.581L194.223 190.833L194.27 189.447C194.296 188.685 194.125 187.343 193.89 186.464L193.462 184.866L192.411 185.269L191.361 185.673L191.82 179.688C192.073 176.395 192.531 173.254 192.837 172.706L193.394 171.709L194.687 175.517C195.398 177.611 196.234 179.167 196.544 178.975C196.855 178.783 196.836 178.099 196.503 177.456C195.562 175.637 194.916 170.047 195.416 168.051C196.126 165.221 197.113 166.672 196.68 169.908L196.291 172.822L197.38 174.899L198.469 176.978L198.033 172.302L197.597 167.627H198.319C198.717 167.627 199.049 168.952 199.056 170.571C199.079 175.715 199.187 176.554 199.884 176.985L200.565 177.406V175.634C200.565 173.263 201.783 173.364 202.165 175.766C202.331 176.813 202.359 176.112 202.227 174.207C202.096 172.302 202.228 170.358 202.523 169.886L203.06 169.027L203.13 171.516C203.169 172.885 203.574 174.363 204.031 174.799L204.861 175.593L204.367 172.476L203.874 169.358L205.234 170.744C205.983 171.506 206.45 172.519 206.275 172.995C206.098 173.472 206.299 173.861 206.72 173.861H207.487V176.591C207.487 179.255 208.817 181.412 208.926 178.924L208.98 177.671L209.329 178.537C209.936 180.041 210.947 179.475 210.947 177.63V175.857L210.178 176.333C209.243 176.912 208.195 175.408 208.214 173.515L208.228 172.129L209.185 173.86L210.142 175.591L210.405 173.167L210.669 170.744L211.1 171.783C211.338 172.354 211.763 174.069 212.046 175.593L212.562 178.364L213.03 176.286L213.499 174.207L213.897 175.246C214.117 175.818 214.459 177.065 214.659 178.017C214.859 178.97 215.339 180.84 215.725 182.174L216.427 184.598L216.142 181.481C215.985 179.766 215.666 177.117 215.434 175.593L215.011 172.822L215.71 173.841C216.095 174.401 216.603 174.665 216.842 174.427C217.386 173.883 213.775 164.688 212.746 164L211.986 163.492L212.813 163.481C213.588 163.471 218.665 173.361 218.428 174.417C218.368 174.683 218.735 175.835 219.243 176.978C219.752 178.121 220.929 180.771 221.859 182.866C222.788 184.962 224.218 187.205 225.035 187.851L226.52 189.026L225.712 189.838L224.904 190.65L225.283 193.166C225.492 194.55 225.974 195.993 226.356 196.374L227.049 197.067L226.689 194.989C226.49 193.846 226.583 192.287 226.894 191.525L227.461 190.14L227.51 191.122C227.536 191.661 227.748 191.913 227.98 191.681C228.212 191.448 227.745 190.335 226.942 189.207C226.139 188.078 225.482 186.784 225.482 186.33C225.482 185.876 224.827 184.583 224.025 183.457C222.44 181.229 220.198 175.736 219.187 171.599C218.408 168.413 214.674 160.354 212.772 157.755L211.379 155.85H209.812C208.949 155.85 207.528 155.564 206.654 155.213C203.762 154.055 197.518 152.261 194.346 151.677C186.88 150.302 172.345 144.959 168.381 142.132L166.997 141.145L168.381 141.492C169.142 141.683 170.241 142.037 170.823 142.279C171.405 142.521 172.495 142.219 173.246 141.608L174.61 140.498L173.393 140.881C172.723 141.092 171.41 140.973 170.473 140.617L168.771 139.968L169.787 137.085C171.264 132.897 171.054 130.886 168.764 127.272C164.689 120.841 158.503 118.511 145.194 118.396C140.817 118.358 135.435 118.102 133.236 117.827L129.237 117.327L127.774 115.863C126.969 115.058 126.235 113.432 126.142 112.25L125.973 110.101L128.355 108.136C129.666 107.055 132.044 105.785 133.64 105.313C138.223 103.96 141.042 102.6 141.042 101.745V100.956L141.907 101.653L142.772 102.35L148.121 101.994C151.063 101.798 153.303 101.367 153.099 101.036C152.894 100.704 153.212 100.433 153.805 100.433C154.398 100.433 154.884 100.745 154.884 101.126C154.884 101.507 155.896 101.787 157.134 101.749L159.383 101.68L157.653 101.13L155.923 100.579L159.383 100.625C161.287 100.651 163.311 101.063 163.882 101.541C164.976 102.458 169.765 103.225 176.687 103.591C180.535 103.795 185.893 104.868 197.048 107.668C199.49 108.281 201.826 108.671 202.239 108.533C202.651 108.395 200.808 107.765 198.143 107.133C195.478 106.5 188.47 104.697 182.57 103.124L171.842 100.265L157.307 100.059C149.313 99.9466 141.993 99.9992 141.042 100.177ZM203.391 109C203.55 109.141 206.639 110.236 210.255 111.433C213.872 112.63 217.453 113.903 218.215 114.26C218.976 114.617 221.935 115.878 224.79 117.062C227.645 118.246 231.282 119.977 232.873 120.908C234.463 121.839 236.09 122.6 236.488 122.6C237.145 122.6 240.317 123.928 247.977 127.411C249.499 128.103 252.614 129.31 254.898 130.093C264.548 133.401 269.473 135.264 270.09 135.841C270.452 136.178 271.331 136.454 272.043 136.454H273.338L272.407 135.522C271.894 135.009 269.77 134.187 267.685 133.696C263.462 132.701 255.135 129.409 246.246 125.218C243.01 123.693 236.158 120.745 231.019 118.666C225.88 116.587 220.43 114.323 218.907 113.635C214.777 111.767 202.309 108.044 203.391 109ZM133.082 110.824L131.698 111.419L134.252 111.468C135.657 111.494 137 111.205 137.235 110.824L137.663 110.131L136.064 110.179C135.185 110.206 133.843 110.496 133.082 110.824ZM150.39 110.831C150.88 111.625 154.814 111.498 155.324 110.672C155.508 110.375 154.376 110.131 152.808 110.131H149.958L150.39 110.831ZM106.781 113.534C105.258 114.246 103.389 115.343 102.628 115.972C101.867 116.601 103.268 116.13 105.743 114.927C108.217 113.723 110.372 112.618 110.53 112.473C111.262 111.803 109.29 112.361 106.781 113.534ZM149.347 113.638C149.347 113.995 150.593 114.287 152.116 114.287C153.638 114.287 154.884 114.012 154.884 113.676C154.884 113.34 153.638 113.048 152.116 113.027C150.593 113.006 149.347 113.281 149.347 113.638ZM159.729 114.287C161.096 115.171 164.574 115.171 164.574 114.287C164.574 113.906 163.25 113.599 161.633 113.605L158.691 113.616L159.729 114.287ZM109.895 115.285C108.563 115.779 105.355 117.332 102.767 118.734L98.0613 121.283L90.3087 121.895L82.5561 122.506L90.5157 122.29L98.4752 122.074L103.472 119.22C106.22 117.65 108.754 116.365 109.103 116.365C109.451 116.365 110.785 115.91 112.065 115.353C114.94 114.104 113.22 114.05 109.895 115.285ZM169.787 114.894C170.179 115.308 171.581 115.849 172.901 116.097L175.302 116.548L174.61 115.838C174.229 115.446 172.828 114.904 171.496 114.634L169.073 114.141L169.787 114.894ZM157.289 117.086L156.768 117.93L157.73 117.598C158.258 117.415 159.908 117.69 161.395 118.208C162.881 118.727 164.213 119.037 164.353 118.896C164.903 118.345 162.717 117.159 160.328 116.712L157.811 116.241L157.289 117.086ZM179.717 117.684C180.993 118.493 180.07 119.867 178.568 119.396L177.379 119.023L178.722 120.119L180.066 121.214L180.615 120.349C180.917 119.872 181.169 118.937 181.175 118.27L181.185 117.058L179.974 117.069L178.763 117.08L179.717 117.684ZM204.026 118.047C204.026 118.324 208.114 120.522 208.631 120.522C209.565 120.522 208.552 119.213 207.108 118.555C205.302 117.731 204.026 117.521 204.026 118.047ZM226.297 119.851C226.647 120.902 231.019 123.574 231.019 122.736C231.019 122.355 229.901 121.383 228.534 120.577C227.168 119.77 226.161 119.443 226.297 119.851ZM168.727 120.41C168.727 120.978 171.772 122.623 172.739 122.577C173.438 122.544 170.082 119.829 169.342 119.829C169.004 119.829 168.727 120.091 168.727 120.41ZM202.27 120.563C201.916 121.137 202.683 121.555 206.68 122.967C208.613 123.651 206.989 121.725 204.884 120.84L202.674 119.909L202.27 120.563ZM167.343 122.587C167.343 123.507 169.96 124.81 171.284 124.548L172.386 124.332L169.864 123.13C168.477 122.47 167.343 122.225 167.343 122.587ZM216.79 123.629C217.529 124.206 218.759 124.678 219.524 124.678H220.914L220.257 124.075C219.895 123.743 218.665 123.27 217.523 123.025L215.446 122.578L216.79 123.629ZM90.8617 123.985L82.5561 124.4L91.2078 124.47C95.9662 124.508 100.638 124.29 101.59 123.985L103.32 123.43L101.244 123.501C100.102 123.54 95.4298 123.757 90.8617 123.985ZM228.513 125.13C229.522 126.14 230.549 126.765 230.795 126.519C231.426 125.888 228.939 123.293 227.703 123.293H226.677L228.513 125.13ZM148.811 125.374C147.564 126.134 146.217 127.614 145.816 128.661L145.088 130.566L145.846 133.113C146.765 136.201 149.843 138.932 153.52 139.923L156.246 140.658L158.313 139.588C159.45 138.999 160.701 137.919 161.093 137.185C161.97 135.546 162.03 133.463 161.186 133.985C160.845 134.196 160.378 133.877 160.148 133.276C159.562 131.75 159.623 131.458 160.421 131.952C163.008 133.552 159.213 127.619 156.446 125.737C153.342 123.626 151.796 123.552 148.811 125.374ZM193.164 126.444C194.232 127.378 195.448 128.142 195.866 128.142C197.091 128.142 194.392 125.545 192.734 125.128L191.221 124.748L193.164 126.444ZM213.024 125.006C213.024 125.64 217.279 127.53 218.089 127.256C218.539 127.104 217.91 126.462 216.692 125.829C214.51 124.695 213.024 124.362 213.024 125.006ZM150.086 128.075C149.299 129.182 148.662 130.818 148.671 131.712L148.687 133.337L149.81 131.056C151.171 128.292 152.993 127.218 155.656 127.608C156.754 127.77 157.653 127.68 157.653 127.409C157.653 126.818 155.12 126.086 153.028 126.073L151.518 126.063L150.086 128.075ZM209.807 127.231C210.461 127.886 215.332 129.526 215.657 129.201C216.078 128.779 211.828 126.756 210.52 126.756C209.867 126.756 209.546 126.97 209.807 127.231ZM191.181 129.203C191.92 129.762 193.166 130.21 193.949 130.198L195.374 130.175L194.031 129.159C193.292 128.599 192.046 128.151 191.262 128.164L189.837 128.186L191.181 129.203ZM208.179 129.2C208.179 129.686 209.191 130.484 210.428 130.973C211.666 131.462 212.911 131.986 213.197 132.137C213.483 132.289 213.716 132.108 213.716 131.735C213.716 131.362 212.47 130.44 210.947 129.686L208.179 128.316V129.2ZM237.941 129.805C237.941 129.958 239.031 130.727 240.363 131.513L242.786 132.944V131.911C242.786 131.343 241.987 130.574 241.01 130.202C239.146 129.493 237.941 129.337 237.941 129.805ZM200.735 131.086C200.891 131.562 201.759 132.06 202.662 132.191L204.306 132.431L203.389 131.325C202.305 130.018 200.324 129.839 200.735 131.086ZM254.925 132.489C256.844 133.717 259.802 135.832 261.5 137.189C265.495 140.38 267.965 141.94 272.106 143.886C273.958 144.756 276.354 146.168 277.432 147.023C278.509 147.877 282.553 150.447 286.418 152.733C293.296 156.8 300.036 161.886 309.139 169.878C311.634 172.069 313.965 173.861 314.319 173.861C315.868 173.861 296.005 157.563 290.288 154.143C287.954 152.746 283.708 150.078 280.853 148.213C277.998 146.348 274.26 144.121 272.547 143.264C270.834 142.407 266.822 139.824 263.631 137.522C258.067 133.509 252.714 130.2 251.848 130.238C251.622 130.247 253.007 131.26 254.925 132.489ZM249.707 132.16C249.707 132.685 253.339 135.069 254.139 135.069C255.364 135.069 254.24 133.791 252.129 132.784C250.797 132.148 249.707 131.867 249.707 132.16ZM185.338 132.882C185.338 133.79 189.838 135.993 190.934 135.62L191.914 135.288L189 133.793C185.773 132.137 185.338 132.029 185.338 132.882ZM206.794 132.628C206.794 133.135 212.53 135.794 212.876 135.448C213.285 135.038 208.753 132.303 207.66 132.301C207.184 132.299 206.794 132.446 206.794 132.628ZM219.949 132.773C219.953 133.239 222.951 135.362 224.963 136.322C226.901 137.247 224.94 135.019 222.714 133.766C221.191 132.91 219.947 132.463 219.949 132.773ZM239.145 134.132C240.378 134.782 241.598 135.103 241.856 134.845C242.565 134.135 241.887 133.736 239.274 133.324L236.902 132.95L239.145 134.132ZM148.655 134.877C148.655 136.003 151.451 138.532 152.696 138.532C153.367 138.532 154.223 138.841 154.599 139.217L155.283 139.901L157.679 138.616C158.997 137.91 160.187 136.767 160.323 136.076L160.571 134.82L159.408 135.984C158.769 136.623 157.723 137.151 157.085 137.157C156.445 137.162 155.273 137.34 154.479 137.554L153.036 137.942L150.845 136.097C149.641 135.083 148.655 134.533 148.655 134.877ZM231.019 135.069C231.019 135.45 231.604 135.762 232.319 135.762C233.033 135.762 234.006 136.229 234.48 136.801C235.445 137.965 237.248 138.202 237.248 137.165C237.248 136.352 233.595 134.376 232.092 134.376C231.502 134.376 231.019 134.688 231.019 135.069ZM249.142 135.104C249.494 136.161 253.86 138.801 253.86 137.958C253.86 137.141 250.537 134.376 249.556 134.376C249.195 134.376 249.009 134.704 249.142 135.104ZM292.273 135.069L285.352 135.493L292.446 135.627L299.541 135.762V135.069C299.541 134.688 299.463 134.436 299.368 134.51C299.272 134.584 296.08 134.835 292.273 135.069ZM305.078 134.937C305.078 135.228 307.786 135.542 311.097 135.635C314.408 135.727 316.976 135.662 316.805 135.491C316.239 134.925 305.078 134.398 305.078 134.937ZM277.85 135.887L279.346 136.611L281.311 135.895L283.275 135.178L279.815 135.171L276.354 135.162L277.85 135.887ZM185.934 137.17C187.66 138.609 188.799 138.919 188.799 137.951C188.799 137.383 185.754 135.739 184.787 135.784C184.519 135.798 185.035 136.421 185.934 137.17ZM207.867 136.418C208.905 137.454 213.716 139.307 213.716 138.67C213.716 138.029 209.273 135.762 208.017 135.762H207.21L207.867 136.418ZM219.945 136.382C219.945 136.803 220.247 137.147 220.616 137.147C220.984 137.147 221.131 137.552 220.94 138.047L220.595 138.949L223.124 140.155C224.515 140.82 225.848 141.151 226.087 140.892C226.325 140.633 226.101 140.272 225.588 140.089C225.075 139.907 223.596 138.826 222.3 137.688C221.005 136.549 219.945 135.962 219.945 136.382ZM324.595 137.145C328.287 137.833 332.959 138.941 334.977 139.605C336.995 140.269 339.114 140.947 339.685 141.11L340.723 141.408L339.559 140.655C337.767 139.496 330.152 137.297 325.15 136.494C317.767 135.309 317.354 135.793 324.595 137.145ZM197.797 136.977C197.797 137.265 198.887 137.842 200.219 138.259C202.811 139.071 203.52 138.359 201.303 137.171C199.738 136.333 197.797 136.226 197.797 136.977ZM276.27 137.971C277.747 138.851 280.292 140.564 281.927 141.777C283.561 142.991 285.842 144.471 286.994 145.068C288.147 145.664 289.339 146.542 289.643 147.018C289.948 147.494 291.443 148.456 292.965 149.154C294.488 149.852 295.422 150.13 295.042 149.771C293.605 148.417 276.189 137.177 274.916 136.782C274.184 136.555 274.794 137.089 276.27 137.971ZM301.345 137.55C300.72 139.179 300.766 139.229 302.828 139.177L304.732 139.127L303.347 138.532C302.586 138.205 302.353 137.915 302.828 137.888C304.02 137.821 303.926 136.454 302.729 136.454C302.199 136.454 301.576 136.947 301.345 137.55ZM172.188 137.799C172.188 138.837 173.808 139.556 174.109 138.651C174.259 138.2 174.645 137.994 174.967 138.193C175.289 138.392 175.748 138.238 175.988 137.851L176.422 137.147H174.305C173.141 137.147 172.188 137.44 172.188 137.799ZM246.706 138.303C246.328 138.681 251.259 141.996 252.2 141.996C253.27 141.996 252.063 140.504 250.014 139.294C247.226 137.648 247.33 137.679 246.706 138.303ZM258.013 138.464C258.013 139.011 262.433 141.996 263.243 141.996C264.227 141.996 263.21 140.748 261.129 139.398C258.476 137.679 258.013 137.54 258.013 138.464ZM233.096 139.08C233.096 139.784 236.076 142.689 236.799 142.689C237.073 142.689 236.967 142.072 236.565 141.319C235.771 139.835 233.096 138.108 233.096 139.08ZM195.028 139.761C195.028 140.553 200.419 142.374 201.011 141.781C201.426 141.365 200.081 140.707 196.585 139.617C195.729 139.351 195.028 139.415 195.028 139.761ZM209.563 140.611C211.457 142.093 213.024 142.399 213.024 141.286C213.024 140.563 210.139 139.213 208.653 139.24C208.202 139.249 208.611 139.865 209.563 140.611ZM297.118 141.303L295.734 141.898H297.81C298.952 141.898 300.51 141.631 301.271 141.303L302.655 140.708H300.579C299.437 140.708 297.88 140.976 297.118 141.303ZM243.478 141.632C243.478 142.015 246.846 143.81 249.356 144.765C252.245 145.864 251.3 144.424 248.073 142.811C245.184 141.367 243.478 140.929 243.478 141.632ZM257.72 141.909C257.317 142.562 260.194 144.767 261.449 144.767C262.792 144.767 262.169 143.683 260.137 142.481C259.021 141.821 257.934 141.564 257.72 141.909ZM306.635 141.799C308.627 142.101 309.151 143.018 307.673 143.616C307.198 143.807 307.479 143.99 308.3 144.019L309.793 144.074L309.431 142.689L309.069 141.303L306.9 141.407L304.732 141.511L306.635 141.799ZM341.069 141.64C341.069 141.825 343.01 142.957 345.382 144.155C357.753 150.405 372.762 163.933 376.545 172.242L377.327 173.96L376.328 174.593L375.33 175.225L376.216 175.236C381.719 175.302 368.783 158.521 356.892 150.166C350.664 145.79 341.069 140.62 341.069 141.64ZM193.644 142.568C193.644 142.964 194.267 143.465 195.028 143.681C195.79 143.898 197.035 144.251 197.797 144.467C198.558 144.683 199.181 144.564 199.181 144.202C199.181 143.839 198.481 143.391 197.624 143.205C196.767 143.019 195.521 142.637 194.855 142.358L193.644 141.848V142.568ZM207.18 142.624C206.678 143.437 208.125 144.554 210.432 145.133L212.332 145.61V144.82C212.332 144.386 211.786 143.862 211.12 143.656C210.455 143.449 209.378 142.998 208.73 142.652L207.551 142.024L207.18 142.624ZM220.637 142.608C220.637 142.944 221.183 143.377 221.848 143.568C222.514 143.76 223.605 144.141 224.271 144.416L225.482 144.915V144.216C225.482 143.832 224.501 143.175 223.303 142.757C220.675 141.839 220.637 141.837 220.637 142.608ZM165.983 144.39C165.101 145.455 165.543 146.845 166.764 146.845C167.162 146.845 169.027 147.619 170.909 148.565C172.791 149.511 174.167 150.018 173.964 149.691C173.763 149.365 171.801 148.224 169.605 147.157L165.612 145.215L166.765 144.952C167.4 144.806 169.845 145.661 172.199 146.851C174.554 148.041 176.637 148.857 176.828 148.667C177.119 148.375 167.928 143.381 167.098 143.381C166.945 143.381 166.444 143.835 165.983 144.39ZM232.404 144.062C232.404 144.651 238.625 148.23 239.648 148.23C240.887 148.23 239.554 146.932 236.627 145.286C232.909 143.197 232.404 143.05 232.404 144.062ZM219.945 145.435C219.945 146.224 222.23 147.547 223.533 147.515L224.444 147.491L222.81 146.129C221.033 144.648 219.945 144.384 219.945 145.435ZM244.516 146.813C245.658 148.039 247.138 149.338 247.804 149.7L249.015 150.357L249.006 149.467C249.002 148.977 247.833 147.798 246.411 146.845C242.634 144.317 242.183 144.31 244.516 146.813ZM257.32 146.499C258.925 148.208 260.781 148.808 260.781 147.617C260.781 146.856 257.667 144.767 256.532 144.767C256.072 144.767 256.426 145.546 257.32 146.499ZM269.108 145.286C269.147 146.199 272.449 148.257 272.846 147.615C273.056 147.275 272.463 146.495 271.528 145.881C269.647 144.649 269.076 144.508 269.108 145.286ZM308.538 145.46C308.538 146.258 310.2 146.258 312.691 145.46L314.422 144.905L311.48 144.836C309.863 144.798 308.538 145.079 308.538 145.46ZM325.15 145.433C325.15 145.651 326.396 145.862 327.918 145.902C329.441 145.942 330.687 145.69 330.687 145.343C330.687 144.995 329.441 144.784 327.918 144.874C326.396 144.964 325.15 145.216 325.15 145.433ZM131.006 147.103C132.909 147.998 135.245 148.936 136.197 149.184C137.148 149.434 136.319 148.883 134.353 147.961C132.388 147.038 130.052 146.102 129.162 145.879C128.273 145.656 129.102 146.206 131.006 147.103ZM340.723 146.152L340.295 146.845H342.799H345.303L344.876 146.152C344.64 145.771 343.706 145.46 342.799 145.46C341.892 145.46 340.958 145.771 340.723 146.152ZM120.316 146.393C120.948 147.072 130.119 150.388 130.449 150.057C130.617 149.889 129.098 149.137 127.074 148.386C122.216 146.586 119.844 145.886 120.316 146.393ZM230.746 147.349C230.518 147.577 231.273 148.336 232.423 149.036C234.668 150.403 235.864 150.649 235.864 149.744C235.864 148.98 231.267 146.828 230.746 147.349ZM218.578 148.219L217.682 148.774L219.114 149.542C221.819 150.99 223.266 150.034 220.749 148.46L219.475 147.665L218.578 148.219ZM268.606 149.292C270.379 150.852 271.855 151.484 271.855 150.682C271.855 149.916 268.727 147.54 267.745 147.56L266.664 147.581L268.606 149.292ZM202.642 148.818C202.642 149.141 203.888 149.896 205.41 150.494C208.831 151.839 209.079 150.995 205.733 149.398C202.936 148.063 202.642 148.008 202.642 148.818ZM254.932 149.096C255.418 150.349 260.631 153.19 261.088 152.451C261.3 152.107 260.094 151.017 258.408 150.028C254.948 147.998 254.454 147.866 254.932 149.096ZM165.958 149.265C165.958 149.732 172.964 153.226 173.275 152.915C173.417 152.773 171.829 151.82 169.746 150.797C167.663 149.775 165.958 149.085 165.958 149.265ZM349.044 149.556L347.675 150.091L349.291 150.957L350.908 151.822L351.663 151.066L352.42 150.309H351.202C350.533 150.309 350.177 149.997 350.413 149.616C350.898 148.83 350.9 148.83 349.044 149.556ZM138.33 149.897C138.978 150.528 151.379 155.645 151.078 155.157C150.898 154.867 148.645 153.757 146.069 152.691C143.495 151.625 141.091 150.496 140.73 150.184C140.084 149.626 137.768 149.349 138.33 149.897ZM131.409 150.536C131.568 150.661 137.46 153.626 144.502 157.126C151.545 160.626 156.684 162.996 155.923 162.394C154.353 161.152 132.636 150.309 131.719 150.309C131.39 150.309 131.251 150.411 131.409 150.536ZM277.392 150.904C277.392 151.698 280.724 154.465 281.679 154.465C282.657 154.465 281.726 153.303 279.448 151.679C278.317 150.873 277.392 150.525 277.392 150.904ZM151.481 151.268C152.204 151.935 164.841 157.991 164.228 157.376C163.211 156.355 152.94 151.001 151.998 151.001C151.555 151.001 151.323 151.121 151.481 151.268ZM217.08 152.41C218.806 153.848 219.945 154.159 219.945 153.191C219.945 152.623 216.9 150.978 215.933 151.024C215.665 151.037 216.181 151.661 217.08 152.41ZM163.735 152.777C166.298 154.574 185.427 163.613 185.824 163.215C186.028 163.012 183.899 161.834 181.094 160.599C178.29 159.363 173.109 156.854 169.582 155.023C163.056 151.635 160.954 150.827 163.735 152.777ZM239.325 152.968C239.325 153.472 242.281 155.158 243.164 155.158C244.255 155.158 243.193 153.165 241.92 152.823C239.811 152.258 239.325 152.285 239.325 152.968ZM252.475 152.715C252.475 153.132 255.793 154.831 257.839 155.463L259.397 155.944V155.28C259.397 154.915 258.145 154.114 256.614 153.501C253.791 152.37 252.475 152.121 252.475 152.715ZM325.467 153.126C325.216 153.532 325.175 154.028 325.375 154.228C325.918 154.772 328.61 153.778 328.61 153.033C328.61 152.141 326.028 152.217 325.467 153.126ZM208.871 153.695L206.448 154.128L207.282 154.664C208.287 155.31 211.639 154.567 211.639 153.697C211.639 153.357 211.561 153.12 211.466 153.171C211.372 153.221 210.203 153.456 208.871 153.695ZM317.709 154.261C316.853 154.426 316.152 154.857 316.152 155.219V155.877L318.055 155.428C319.103 155.181 320.255 154.707 320.616 154.376L321.274 153.772L320.27 153.866C319.719 153.918 318.565 154.096 317.709 154.261ZM248.323 154.989C248.323 155.751 252.324 157.403 253.34 157.059L254.206 156.766L251.991 155.616C249.601 154.374 248.323 154.156 248.323 154.989ZM302.309 155.621C302.309 155.964 303.165 156.759 304.213 157.389C305.26 158.019 307.206 159.531 308.538 160.751C309.871 161.971 312.362 164.243 314.076 165.799C315.789 167.356 319.137 170.744 321.516 173.327C323.896 175.91 325.842 177.71 325.842 177.327C325.842 173.715 328.363 181.173 328.767 185.984C328.832 186.746 329.253 187.681 329.703 188.062C333.905 191.62 363.647 239.223 367.305 248.245C367.75 249.342 368.279 250.073 368.482 249.871C368.684 249.668 368.542 248.926 368.166 248.222C367.789 247.519 366.006 243.995 364.205 240.393C360.314 232.613 353.005 220.732 343.491 206.719C327.569 183.267 326.204 180.168 329.561 175.107C330.243 174.079 332.12 172.598 333.731 171.817L336.661 170.397L344.575 170.409C348.928 170.416 355.272 170.878 358.673 171.436C362.074 171.994 364.968 172.34 365.102 172.205C365.729 171.579 358.162 170.296 350.206 169.681L341.415 169.002L337.608 169.77C333.891 170.52 329.303 172.753 329.303 173.812C329.303 174.104 328.601 174.663 327.745 175.056L326.188 175.771L324.458 174.744C323.506 174.178 321.481 172.19 319.959 170.324C315.71 165.12 302.309 153.956 302.309 155.621ZM156.961 158.694C165.549 163.338 187.523 173.983 187.849 173.657C188.016 173.49 186.352 172.496 184.15 171.448C181.948 170.401 173.991 166.463 166.467 162.697C152.466 155.691 147.677 153.674 156.961 158.694ZM225.086 157.073C224.677 157.353 224.128 158.163 223.867 158.871L223.39 160.161L224.391 159.777C224.942 159.565 225.53 159.764 225.697 160.219L226.001 161.046L226.918 160.18L227.835 159.314H226.7C226.075 159.314 225.341 158.953 225.069 158.512L224.573 157.71L226.066 158.101L227.559 158.492V157.517C227.559 156.471 226.295 156.245 225.086 157.073ZM266.318 157.167C266.318 157.522 267.597 158.826 269.16 160.065L272.001 162.317L271.756 161.063C271.498 159.753 266.318 156.042 266.318 157.167ZM248.669 158.946C250.911 160.785 251.783 161.087 251.783 160.025C251.783 159.363 248.236 157.232 247.146 157.239C246.841 157.241 247.527 158.01 248.669 158.946ZM324.111 157.929L322.727 158.524L324.804 158.562C325.946 158.583 327.347 158.298 327.918 157.929L328.956 157.257L327.226 157.295C326.274 157.316 324.873 157.601 324.111 157.929ZM166.323 158.882C167.622 159.79 173.079 162.439 182.224 166.601C184.508 167.64 186.922 168.775 187.588 169.122C188.254 169.469 188.799 169.568 188.799 169.342C188.799 169.116 185.295 167.278 181.012 165.257C176.73 163.238 171.532 160.762 169.463 159.757C165.286 157.728 164.263 157.443 166.323 158.882ZM262.857 158.564C262.857 159.493 268.702 164.211 268.955 163.487C269.18 162.845 264.28 157.98 263.377 157.947C263.091 157.937 262.857 158.215 262.857 158.564ZM245.9 160.426C246.662 161.013 247.81 161.784 248.453 162.137L249.623 162.781L250.052 162.087C250.288 161.705 250.034 161.392 249.486 161.392C248.939 161.392 248.105 160.925 247.63 160.353C247.156 159.782 246.262 159.324 245.643 159.336L244.516 159.358L245.9 160.426ZM276.008 160.532C276.008 161.254 278.824 162.961 279.272 162.512C279.747 162.037 277.703 160.007 276.749 160.007C276.342 160.007 276.008 160.244 276.008 160.532ZM259.397 161.378C259.397 161.751 260.643 162.693 262.165 163.47C265.566 165.206 265.8 164.389 262.513 162.258C259.829 160.518 259.397 160.396 259.397 161.378ZM243.153 161.948C242.744 162.358 246.605 164.856 247.647 164.856C248.019 164.856 248.312 164.622 248.3 164.336C248.27 163.644 243.615 161.485 243.153 161.948ZM231.711 162.528C231.711 162.772 232.257 163.416 232.923 163.961L234.134 164.95L232.057 164.546L229.981 164.142L231.334 165.198L232.687 166.255L233.682 165.258L234.678 164.262L233.59 163.173C232.451 162.033 231.711 161.779 231.711 162.528ZM257.32 164.087C257.32 164.732 260.774 166.934 261.785 166.934C263.472 166.934 261.842 165.56 257.839 163.608C257.554 163.469 257.32 163.684 257.32 164.087ZM274.97 164.856C275.659 165.618 276.486 166.241 276.807 166.241C277.844 166.241 277.428 164.325 276.297 163.891C274.233 163.098 273.718 163.472 274.97 164.856ZM286.791 164.075C286.602 164.38 287.837 165.609 289.534 166.806L292.619 168.984L292.593 168.132C292.56 167.047 287.248 163.333 286.791 164.075ZM239.02 165.873C239.758 166.432 240.986 166.89 241.747 166.89H243.132L241.788 165.873C241.049 165.314 239.822 164.856 239.06 164.856H237.676L239.02 165.873ZM255.153 166.363C255.832 168.197 257.32 168.883 257.32 167.363C257.32 166.772 256.705 165.96 255.953 165.557L254.585 164.825L255.153 166.363ZM298.849 165.509C298.849 166.255 301.592 168.319 302.584 168.319C302.946 168.319 302.511 167.54 301.617 166.588C299.936 164.797 298.849 164.373 298.849 165.509ZM350.719 165.588L349.721 166.22L352.662 166.231C354.28 166.236 355.604 165.977 355.604 165.654C355.604 164.854 351.955 164.805 350.719 165.588ZM154.192 165.831C154.192 166.368 168.105 173.329 168.463 172.971C168.618 172.815 165.707 171.159 161.993 169.291C153.797 165.168 154.192 165.344 154.192 165.831ZM162.498 165.857C162.498 166.357 186.684 178.021 187.694 178.008C188.365 177.999 173.687 170.63 166.305 167.268C164.782 166.575 163.303 165.886 163.017 165.738C162.731 165.589 162.498 165.642 162.498 165.857ZM272.096 166.563C272.345 167.21 272.547 167.87 272.547 168.03C272.547 168.189 273.189 168.319 273.972 168.319C275.618 168.319 275.199 167.291 273.096 166.164L271.646 165.387L272.096 166.563ZM367.024 166.241L368.408 166.836L367.197 166.885C366.531 166.912 365.986 167.268 365.986 167.677C365.986 168.896 368.373 168.06 368.624 166.753L368.856 165.548L367.247 165.597L365.64 165.646L367.024 166.241ZM283.651 166.797C283.694 167.503 288.579 170.515 288.999 170.095C289.624 169.469 287.763 167.758 285.658 167.024C284.538 166.633 283.635 166.531 283.651 166.797ZM236.567 167.333C236.561 167.742 237.288 168.766 238.183 169.607L239.809 171.137L240.614 170.166L241.419 169.196L240.402 168.352C239.843 167.887 239.026 167.73 238.586 168.002C238.145 168.274 237.514 168.067 237.182 167.542C236.849 167.017 236.573 166.923 236.567 167.333ZM350.759 167.627L349.028 168.181L351.583 168.25C352.988 168.288 354.33 168.008 354.565 167.627C355.06 166.825 353.259 166.825 350.759 167.627ZM200.062 170.38C200.062 171.894 200.321 172.973 200.637 172.777C201.327 172.351 201.244 167.627 200.547 167.627C200.28 167.627 200.062 168.866 200.062 170.38ZM268.395 168.33C268.395 169.097 272.652 171.909 273.114 171.446C273.453 171.107 269.663 167.68 268.914 167.649C268.628 167.636 268.395 167.943 268.395 168.33ZM219.945 169.773C219.945 171.786 222.003 175.939 223 175.939C223.973 175.939 247.63 187.51 247.63 187.985C247.63 188.165 242.157 185.655 235.467 182.408C228.777 179.16 223.102 176.705 222.856 176.951C222.61 177.197 223.116 178.732 223.979 180.36L225.549 183.322L228.457 184.561C231.887 186.024 233.043 186.584 240.363 190.334C243.408 191.894 246.523 193.666 247.284 194.272C248.046 194.878 243.903 192.992 238.078 190.08C232.253 187.167 227.323 184.95 227.122 185.151C226.92 185.353 227.472 186.762 228.347 188.283L229.937 191.05L233.074 192.557C236.685 194.292 249.116 201.431 254.206 204.693C256.109 205.912 262.027 209.714 267.356 213.142C272.686 216.569 279.226 220.55 281.891 221.989C290.295 226.528 310.454 240.462 311.755 242.631L312.265 243.479L311.267 242.737C310.718 242.329 308.867 240.894 307.154 239.548C302.635 235.997 288.111 226.376 283.275 223.729C278.441 221.082 266.702 213.821 259.743 209.172C252.822 204.547 245.535 200.195 237.768 196.046L231.019 192.441V193.32C231.019 193.802 231.392 195.229 231.848 196.491L232.676 198.784L231.794 204.16L230.913 209.536L228.505 214.665C224.823 222.511 223.713 232.725 225.338 243.826L225.896 247.637L224.153 247.746C223.195 247.805 222.292 248.208 222.148 248.64L221.887 249.425L220.787 248.531L219.686 247.636L220.178 248.946L220.669 250.256L219.615 249.381L218.561 248.505V249.762V251.017L217.487 249.673L216.412 248.328L216.83 250.06L217.249 251.792L216.271 250.58C214.872 248.844 214.451 249.081 215.036 251.272L215.545 253.177L217.053 253.256C217.883 253.299 218.561 253.052 218.561 252.706C218.561 252.361 218.95 252.128 219.426 252.19C221.304 252.434 222.022 252.086 222.032 250.926L222.043 249.714L222.606 250.603L223.17 251.493L224.322 251.05C224.956 250.807 225.304 250.332 225.096 249.996C224.888 249.659 225.219 249.576 225.832 249.811L226.946 250.239L226.56 251.245C226.348 251.799 226.174 252.382 226.174 252.541C226.174 252.701 225.707 252.831 225.136 252.831C224.565 252.831 224.098 253.107 224.098 253.443C224.098 254.126 222.038 254.873 218.907 255.325C217.765 255.491 216.732 255.914 216.612 256.268C216.493 256.621 215.894 256.717 215.281 256.482L214.168 256.054L214.65 257.312L215.132 258.569L214.182 257.78L213.232 256.991L211.68 258.337C210.826 259.079 210.331 260.013 210.578 260.414C210.826 260.815 210.707 261.144 210.314 261.144C209.92 261.144 209.075 260.131 208.436 258.892L207.273 256.641L208.418 257.591L209.563 258.542V257.44V256.338L210.601 256.737L211.639 257.136V256.099C211.639 255.529 211 254.327 210.218 253.427L208.798 251.792L209.272 253.524L209.747 255.256L208.17 253.87L206.593 252.485L206.94 254.369C207.42 256.978 206.539 256.207 204.795 252.494C203.408 249.54 201.486 247.981 202.436 250.58C206.855 262.675 234.99 289.384 250.605 296.307C255.719 298.575 255.571 297.301 250.042 291.494C245.081 286.284 243.381 284.019 239.063 276.861C235.893 271.606 228.943 256.16 228.943 254.37C228.943 253.88 228.476 253.301 227.905 253.082C227.334 252.862 226.866 252.386 226.866 252.023C226.866 251.66 227.145 251.536 227.485 251.746L228.103 252.129L227.456 249.536C225.386 241.233 225.048 227.446 226.782 222.005C227.146 220.862 227.631 219.069 227.86 218.022C228.431 215.41 228.468 215.423 237.716 221.538C249.831 229.549 258.41 234.455 268.982 239.415C284.793 246.833 300.907 255.649 306.935 260.18C309.869 262.386 310.552 262.277 308.486 259.931L306.808 258.026L308.69 259.685C309.725 260.598 310.44 261.56 310.277 261.822C310.115 262.085 312.181 264.27 314.868 266.678C329.462 279.755 351.865 309.651 358.413 324.787C359.505 327.311 360.415 328.909 360.434 328.337L360.47 327.298L361.115 328.319L361.76 329.34L361.069 329.767L360.378 330.195L361.216 332.037C361.678 333.05 362.274 333.879 362.54 333.879C363.007 333.879 364.601 340.701 364.601 342.695C364.601 343.225 364.29 343.466 363.909 343.231C363.529 342.995 363.217 343.094 363.217 343.45C363.217 344.469 354.562 346.888 346.606 348.092C336.979 349.549 332.812 350.794 326.29 354.161L320.855 356.967L314.829 362.914L308.802 368.861L303.404 379.53C294.716 396.698 291.318 400.992 283.368 404.843L279.815 406.564L281.718 406.589C282.765 406.603 283.622 406.353 283.622 406.033C283.622 405.53 286.578 403.844 287.461 403.844C288.552 403.844 287.455 405.24 285.871 405.869L283.968 406.623L286.044 406.227C287.186 406.01 289.678 404.951 291.581 403.874L295.042 401.916L294.838 400.802C294.727 400.189 294.979 399.687 295.398 399.687C295.818 399.687 295.969 399.999 295.734 400.38C294.816 401.866 296.5 400.9 302.23 396.653C309.831 391.019 314.608 388.393 320.537 386.589C323.139 385.797 325.575 384.96 325.948 384.728C326.323 384.496 330.89 384.343 336.099 384.387L345.568 384.468L349.23 382.745C356.257 379.438 363.038 373.273 368.295 365.41L370.139 362.652V363.879C370.139 365.996 372.704 370.259 376.437 374.347L380.031 378.283L381.031 377.899C381.58 377.689 382.346 377.712 382.733 377.951L383.437 378.386L382.578 378.918L381.718 379.45L383.284 380.288L384.849 381.127L385.519 380.189L386.188 379.252L385.826 380.394L385.463 381.535L390.125 383.621C392.688 384.768 396.17 386.066 397.862 386.506C407.78 389.079 413.686 392.14 421.273 398.634C425.155 401.958 436.653 408 439.095 408C441.126 408 441.593 407.239 440.206 406.187L439.006 405.276L436.836 405.661L434.666 406.047L434.137 405.19L433.609 404.334L435.615 404.818L437.622 405.301L434.8 402.667C430.772 398.909 428.63 394.748 426.845 387.218C421.525 364.774 415.031 357.736 392.335 349.819L382.346 346.334L381.001 346.762L379.655 347.189L380.13 346.421L380.604 345.653L378.976 345.033C378.081 344.693 376.926 343.903 376.408 343.279L375.466 342.143L376.233 338.531C376.656 336.544 377.162 333.36 377.359 331.455L377.717 327.991L376.943 330.239L376.169 332.487L375.338 331.349L374.507 330.21L374.118 331.698L373.729 333.186H375.095H376.461L376.08 334.399C375.224 337.123 374.325 343.071 374.682 343.65C374.893 343.991 374.713 344.27 374.282 344.27C373.853 344.27 373.591 344.972 373.702 345.828C373.812 346.685 373.654 347.787 373.35 348.276C373.046 348.764 372.54 350.062 372.225 351.16L371.654 353.157L373.378 354.774C374.327 355.664 376.494 358.341 378.193 360.722C379.892 363.104 381.578 365.051 381.94 365.051C383.144 365.051 382.618 363.775 380.458 361.458C377.711 358.511 376.084 356.099 376.537 355.646C376.733 355.45 377.787 356.502 378.88 357.983C379.972 359.465 383.033 363.067 385.681 365.989C388.329 368.911 391.085 372.312 391.806 373.546L393.115 375.789L391.637 374.057C386.292 367.795 383.721 365.051 383.198 365.051C382.057 365.051 382.603 366.451 384.327 367.952C385.279 368.78 386.058 369.898 386.058 370.437C386.058 370.976 384.934 370.063 383.56 368.408C382.187 366.752 380.552 364.875 379.927 364.237C379.302 363.597 378.012 361.922 377.06 360.511C376.108 359.102 374.597 357.163 373.702 356.203L372.076 354.458L371.491 355.405C370.256 357.404 370.169 355.349 371.25 349.748L372.373 343.924L371.968 335.265C371.235 319.605 369.102 311.97 360.988 295.952C357.949 289.952 354.435 282.01 353.181 278.305C344.867 253.754 332.378 239.559 305.77 224.417C300.25 221.276 292.308 216.404 288.12 213.59C272.491 203.088 265.313 197.968 264.406 196.671C263.435 195.284 261.725 194.754 262.554 196.097L263.024 196.859L261.384 196.003C259.085 194.805 258.777 194.386 260.608 194.949C262.934 195.665 262.664 195.294 256.41 189.186C246.622 179.624 239.339 175.001 226.747 170.353C220.175 167.928 219.945 167.909 219.945 169.773ZM328.555 169.425L327.639 170.53L329.282 170.291C330.185 170.159 331.053 169.662 331.209 169.185C331.62 167.939 329.639 168.118 328.555 169.425ZM360.795 169.339C363.079 169.882 366.193 170.49 367.716 170.69L370.485 171.053L366.678 169.957C364.584 169.354 361.47 168.747 359.756 168.606L356.642 168.351L360.795 169.339ZM236.425 171.167C237.685 172.349 238.889 173.143 239.1 172.931C239.56 172.472 235.819 169.064 234.826 169.037C234.445 169.027 235.164 169.985 236.425 171.167ZM264.934 169.555C264.934 169.854 265.868 170.651 267.01 171.326C269.402 172.74 269.853 171.706 267.548 170.091C265.86 168.907 264.934 168.717 264.934 169.555ZM281.94 169.626C281.471 170.385 286.197 174.285 286.825 173.657C287.221 173.261 285.688 171.488 283.51 169.823L282.36 168.945L281.94 169.626ZM249.015 171.437C249.909 172.389 251.077 173.168 251.611 173.168H252.581L250.525 171.437C249.394 170.484 248.226 169.705 247.929 169.705C247.632 169.705 248.121 170.484 249.015 171.437ZM260.131 172.439C259.277 173.181 258.78 174.116 259.028 174.517C259.771 175.72 260.781 175.342 260.781 173.861C260.781 171.965 261.475 172.104 265.484 174.805C269.618 177.589 273.221 181.132 274.568 183.737C275.562 185.661 276.7 186.27 276.7 184.878C276.7 183.84 273.927 179.956 272.379 178.827C271.684 178.32 269.206 176.371 266.873 174.498C262.015 170.596 262.192 170.65 260.131 172.439ZM278.785 172.302C278.796 172.976 283.363 175.939 284.388 175.939H285.175L284.276 174.854C282.787 173.059 278.767 171.19 278.785 172.302ZM365.986 172.356C365.986 172.672 367.465 173.274 369.273 173.693C371.081 174.113 373.184 174.68 373.945 174.953L375.33 175.45L374.637 174.719C374.257 174.316 372.254 173.491 370.186 172.885C365.793 171.597 365.986 171.621 365.986 172.356ZM245.528 174.582C248.017 176.712 249.015 177.106 249.015 175.961C249.015 175.592 249.465 175.463 250.016 175.675L251.018 176.059L250.189 174.273L249.361 172.487L247.977 172.503L246.592 172.52L247.926 173.529C248.66 174.085 249.045 174.755 248.783 175.017C248.521 175.28 247.388 174.815 246.266 173.985C243.272 171.77 242.742 172.199 245.528 174.582ZM177.971 177.749C182.865 180.229 187.037 182.089 187.244 181.883C187.653 181.474 170.891 173.154 169.765 173.208C169.385 173.226 173.077 175.269 177.971 177.749ZM271.163 175.116C271.163 175.869 275.174 178.843 277.645 179.922C280.038 180.967 280.161 180.976 280.161 180.096C280.161 179.715 279.846 179.403 279.462 179.403C279.077 179.403 277.212 178.312 275.316 176.978C271.703 174.437 271.163 174.195 271.163 175.116ZM277.026 175.214C277.25 175.578 278.337 176.518 279.441 177.305L281.448 178.735L281.847 178.089C282.066 177.734 281.195 176.793 279.91 175.998C277.39 174.439 276.378 174.164 277.026 175.214ZM293.311 175.791C293.311 176.608 299.026 180.843 299.487 180.368C299.707 180.142 298.667 178.897 297.176 177.602C294.505 175.281 293.311 174.722 293.311 175.791ZM263.206 176.627C262.972 177.007 263.576 177.682 264.549 178.125C265.522 178.569 266.318 179.194 266.318 179.514C266.318 179.834 266.641 180.096 267.035 180.096H267.751L267.019 178.726C266.616 177.973 265.69 177.036 264.96 176.646L263.633 175.936L263.206 176.627ZM217.197 178.106C217.186 179.107 217.689 180.351 218.314 180.871L219.452 181.816L218.923 180.09C218.631 179.14 218.129 177.896 217.806 177.325L217.219 176.286L217.197 178.106ZM193.117 178.883C193.046 179.741 193.409 181.377 193.924 182.52C194.438 183.663 195.045 185.066 195.27 185.637C195.726 186.789 195.108 180.459 194.578 178.537C194.106 176.831 193.271 177.029 193.117 178.883ZM205.237 179.039C205.423 180.012 205.874 180.993 206.238 181.218L206.9 181.629L206.675 179.703C206.55 178.644 206.1 177.663 205.674 177.523L204.899 177.27L205.237 179.039ZM291.901 179.431C293.219 180.558 294.776 181.473 295.362 181.462L296.426 181.444L294.004 179.403C292.671 178.281 291.114 177.366 290.543 177.372L289.505 177.381L291.901 179.431ZM309.231 178.694C309.231 179.589 312.615 181.789 313.157 181.245C313.39 181.013 312.835 180.202 311.924 179.443C310.087 177.912 309.231 177.674 309.231 178.694ZM253.264 179.329C252.746 179.657 251.697 179.762 250.934 179.562L249.546 179.199L250.818 180.686C252.455 182.6 253.743 182.575 254.53 180.615C254.874 179.757 255.176 179.446 255.2 179.922C255.224 180.399 255.594 180.788 256.021 180.788H256.798L255.936 179.749C254.948 178.558 254.572 178.499 253.264 179.329ZM262.511 180.096C263.2 180.858 264.261 181.471 264.868 181.458L265.972 181.435L264.338 180.073C262.207 178.296 260.899 178.312 262.511 180.096ZM288.467 180.039C288.467 180.783 291.814 183.559 292.713 183.559C293.974 183.559 293.199 182.458 290.881 180.955C289.552 180.094 288.467 179.682 288.467 180.039ZM320.32 179.756C320.346 180.878 322.94 183.923 323.442 183.421C323.697 183.166 323.095 182.083 322.105 181.014C321.115 179.945 320.312 179.379 320.32 179.756ZM198.562 180.788C198.533 181.36 198.959 183.074 199.507 184.598C200.056 186.122 200.518 187.009 200.535 186.568L200.565 185.767L201.902 186.117L203.24 186.467L202.86 185.013C202.651 184.214 202.031 183.559 201.482 183.559H200.484L200.977 184.359L201.471 185.159L200.683 184.671C200.25 184.403 199.607 183.186 199.254 181.967C198.902 180.747 198.591 180.217 198.562 180.788ZM260.089 181.067C260.089 181.601 261.023 182.364 262.165 182.762C264.677 183.639 264.888 182.757 262.536 181.214C260.448 179.845 260.089 179.823 260.089 181.067ZM308.099 181.885C309.19 182.845 310.252 183.46 310.46 183.252C311.066 182.645 308.429 180.093 307.22 180.118L306.116 180.139L308.099 181.885ZM210.412 183.159C210.516 184.273 210.991 185.312 211.466 185.468C212.662 185.862 212.552 184.104 211.277 182.479L210.224 181.135L210.412 183.159ZM304.386 182.038C304.386 182.344 305.44 183.618 306.73 184.869L309.075 187.143L309.496 186.46C309.728 186.084 308.818 184.81 307.474 183.629C304.922 181.387 304.386 181.11 304.386 182.038ZM206.113 183.018L206.102 184.208L205.064 183.81C203.912 183.367 203.732 184.102 204.642 185.538L205.237 186.478L205.756 185.637L206.275 184.796L206.871 185.736L207.465 186.676V185.291C207.465 184.529 207.163 183.438 206.794 182.866L206.124 181.827L206.113 183.018ZM208.189 183.691C208.195 184.571 208.502 185.759 208.871 186.33L209.542 187.369L209.553 185.159C209.558 183.943 209.252 182.756 208.871 182.52L208.179 182.092L208.189 183.691ZM286.428 183.258C287.626 184.703 291.235 186.541 291.235 185.705C291.235 184.773 287.793 182.174 286.558 182.174H285.528L286.428 183.258ZM300.233 183.343C300.233 183.948 306.638 189.787 307.306 189.791C308.401 189.797 306.938 187.828 304.055 185.416C301.009 182.868 300.233 182.447 300.233 183.343ZM197.115 185.423C197.109 186.639 197.416 187.826 197.797 188.062L198.489 188.49L198.478 186.89C198.472 186.011 198.166 184.823 197.797 184.252L197.126 183.213L197.115 185.423ZM213.585 185.99C213.741 187.327 214.146 188.592 214.484 188.802C215.181 189.233 215.319 186.321 214.68 184.655C213.934 182.709 213.294 183.491 213.585 185.99ZM217.869 184.466C217.869 184.965 218.326 185.977 218.885 186.717L219.901 188.062L219.923 186.906C219.954 185.276 219.217 183.559 218.487 183.559C218.147 183.559 217.869 183.967 217.869 184.466ZM255.936 185.563C255.936 186.371 257.958 187.138 258.767 186.638C259.987 185.883 259.377 184.945 257.666 184.945C256.715 184.945 255.936 185.223 255.936 185.563ZM283.622 185.526C283.622 186.309 287.149 187.88 287.69 187.339C288.221 186.806 285.762 184.945 284.528 184.945C284.029 184.945 283.622 185.206 283.622 185.526ZM320.305 185.685C320.305 187.021 324.952 191.608 325.625 190.935C325.897 190.662 324.812 189.129 323.212 187.528L320.305 184.618V185.685ZM160.916 192.029C158.355 201.265 157.717 204.982 156.997 214.86L156.356 223.646L157.314 230.792C158.765 241.621 161.002 248.533 166.804 260.105C170.535 267.548 171.799 269.626 176.187 275.52L179.927 280.544L180.663 280.088L181.399 279.633L180.955 280.353C180.396 281.258 190.486 290.931 191.99 290.931H193.1L192.725 289.954C192.52 289.418 191.16 287.002 189.703 284.586C185.65 277.864 182.653 270.849 181.04 264.307C180.235 261.043 179.295 258.373 178.95 258.373C178.605 258.373 178.521 259.074 178.762 259.931L179.2 261.49L178.636 260.706C178.325 260.275 177.292 259.969 176.341 260.026L174.61 260.131L174.732 261.503L174.854 262.875L173.964 261.663C172.861 260.162 172.188 260.112 172.188 261.531C172.188 262.125 171.876 262.418 171.496 262.183C171.115 261.947 170.803 261.155 170.803 260.423V259.092L172.486 258.669L174.168 258.247L174.11 256.232C174.042 253.811 173.737 253.696 172.901 255.775L172.276 257.334L172.231 255.967L172.188 254.601L171.11 256.14C169.874 257.907 168.362 258.146 167.793 256.663C167.311 255.405 168.454 254.568 169.013 255.771C169.235 256.25 169.305 255.55 169.168 254.216L168.919 251.792L169.614 252.892L170.309 253.993L171.928 253.238C173.888 252.326 174.245 251.536 173.525 249.714C173.224 248.952 172.955 248.718 172.928 249.194C172.902 249.671 172.215 250.06 171.404 250.06C170.592 250.06 169.351 250.726 168.646 251.539L167.364 253.018L166.323 252.154C165.75 251.678 165.432 251.045 165.617 250.747C165.801 250.448 165.34 249.471 164.594 248.574L163.236 246.943L163.213 247.9C163.2 248.427 163.769 249.829 164.477 251.017C165.184 252.206 166.487 254.969 167.373 257.16C168.258 259.352 169.236 261.144 169.547 261.144C169.857 261.144 170.111 261.674 170.111 262.321V263.499L169.505 262.841C166.737 259.839 160.428 244.277 162.498 245.557L163.19 245.986V243.907C163.19 241.215 161.972 240.449 161.662 242.948L161.425 244.865L160.228 240.935C159.569 238.774 158.688 232.923 158.271 227.933L157.512 218.861L158.275 211.081C158.695 206.803 159.985 199.445 161.143 194.73C163.627 184.623 163.472 182.803 160.916 192.029ZM265.626 186.282C265.626 186.636 265.011 187.026 264.26 187.147L262.893 187.369L263.395 188.141C263.67 188.567 264.672 189.157 265.62 189.453L267.345 189.993L266.387 188.838C265.135 187.328 265.815 186.704 267.643 187.684C269.216 188.527 269.584 187.798 268.256 186.469C267.271 185.483 265.626 185.366 265.626 186.282ZM297.464 186.013C297.464 187.188 304.776 192.781 305.846 192.424C306.246 192.29 304.679 190.709 302.364 188.909C298.252 185.713 297.464 185.247 297.464 186.013ZM280.853 187.466C280.853 188.132 283.154 189.746 284.141 189.771C285.618 189.81 285.092 188.67 283.243 187.827C281.221 186.905 280.853 186.849 280.853 187.466ZM316.268 187.585C316.724 188.696 322.381 193.401 322.381 192.669C322.381 191.473 318.188 187.023 317.061 187.023C316.497 187.023 316.14 187.276 316.268 187.585ZM277.046 189.794C278.141 190.937 279.347 191.872 279.728 191.872C280.108 191.872 279.525 190.937 278.431 189.794C277.336 188.651 276.13 187.715 275.749 187.715C275.369 187.715 275.952 188.651 277.046 189.794ZM202.775 189.004L201.869 189.579L202.33 191.413C202.925 193.791 203.929 193.184 203.549 190.676L203.258 188.755L204.31 190.486L205.361 192.218L205.386 190.313L205.41 188.408L204.545 188.419C204.07 188.425 203.272 188.688 202.775 189.004ZM295.388 188.87C295.388 189.634 300.234 193.488 300.658 193.062C300.841 192.88 299.728 191.733 298.188 190.512C296.648 189.291 295.388 188.552 295.388 188.87ZM314.324 189.635C314.811 190.424 320.997 194.794 320.997 194.349C320.997 193.604 315.79 189.138 314.9 189.12C314.402 189.109 314.143 189.341 314.324 189.635ZM273.24 190.486C273.24 190.867 273.509 191.179 273.838 191.179C274.166 191.179 275.261 192.005 276.27 193.016C277.28 194.026 278.334 194.619 278.614 194.334C278.894 194.048 278.044 192.91 276.727 191.804C274.215 189.697 273.24 189.328 273.24 190.486ZM197.797 191.013C197.797 191.397 197.174 191.873 196.412 192.073L195.028 192.435V193.885C195.028 194.683 195.34 195.335 195.72 195.335C196.101 195.335 196.412 194.652 196.412 193.818V192.3L197.429 193.644L198.445 194.989L198.467 193.736C198.479 193.047 198.8 192.675 199.181 192.911C200.276 193.588 199.985 192.135 198.835 191.179L197.797 190.317V191.013ZM314.642 193.343C316.285 194.895 317.842 195.948 318.102 195.681C318.646 195.124 313.532 190.477 312.403 190.504C311.991 190.513 312.998 191.791 314.642 193.343ZM217.177 192.524C217.177 193.791 218.332 195.103 218.926 194.508C219.401 194.033 218.426 191.179 217.788 191.179C217.452 191.179 217.177 191.784 217.177 192.524ZM271.163 191.831C271.163 192.253 271.911 192.884 272.826 193.232C273.741 193.58 274.694 194.195 274.944 194.6C275.193 195.004 275.69 195.335 276.049 195.335C277.352 195.335 276.64 194.265 274.447 192.927C271.314 191.018 271.163 190.968 271.163 191.831ZM293.391 192.469C294.299 193.179 295.82 194.004 296.772 194.302L298.502 194.846L296.326 193.012C295.129 192.004 293.608 191.179 292.945 191.179H291.74L293.391 192.469ZM309.928 192.738C309.932 193.613 313.986 196.721 315.123 196.721C315.852 196.721 311.201 191.926 310.442 191.894C310.156 191.881 309.925 192.262 309.928 192.738ZM191.578 193.777C191.602 194.949 192.849 196.174 193.566 195.73C194.847 194.938 194.429 193.257 192.952 193.257C192.19 193.257 191.572 193.491 191.578 193.777ZM208.822 194.816L208.773 196.374L208.179 194.989L207.584 193.604L207.535 195.466L207.487 197.328L208.871 197.223L210.255 197.118V195.188C210.255 192.901 208.893 192.547 208.822 194.816ZM269.779 194.643C270.187 195.405 270.683 196.028 270.882 196.028C271.081 196.028 271.052 195.716 270.817 195.335C270.582 194.954 270.708 194.643 271.098 194.643C271.488 194.643 272.181 195.343 272.639 196.199L273.471 197.756L273.761 196.888C273.92 196.41 274.334 196.196 274.683 196.411C275.031 196.627 275.316 196.635 275.316 196.429C275.316 196.045 270.148 193.257 269.436 193.257C269.217 193.257 269.371 193.881 269.779 194.643ZM228.588 196.201C228.868 197.44 229.339 199.544 229.633 200.877L230.168 203.302L230.248 200.791C230.355 197.384 229.614 193.95 228.77 193.95H228.078L228.588 196.201ZM249.937 196.242C250.634 196.696 252.815 198.114 254.782 199.393C256.749 200.672 259.602 202.353 261.122 203.129L263.884 204.539L262.94 203.401C262.421 202.775 261.719 202.263 261.381 202.263C261.043 202.263 258.281 200.704 255.244 198.799C252.207 196.894 249.485 195.353 249.195 195.376C248.905 195.398 249.24 195.788 249.937 196.242ZM285.251 196.361C285.497 197.002 285.698 197.657 285.698 197.817C285.698 197.976 286.188 198.106 286.787 198.106H287.876L287.644 196.902C287.517 196.239 286.825 195.585 286.108 195.446L284.804 195.195L285.251 196.361ZM302.309 195.948C302.309 196.582 305.344 198.799 306.212 198.799C306.482 198.799 305.972 198.02 305.078 197.067C303.418 195.299 302.309 194.851 302.309 195.948ZM310.776 198.591C312.185 200.001 313.581 200.905 313.88 200.601C314.453 200.017 310.128 196.028 308.922 196.028C308.534 196.028 309.368 197.181 310.776 198.591ZM322.381 197.999C322.381 198.93 325.11 201.148 325.622 200.635C325.878 200.379 325.422 199.55 324.609 198.791C323.012 197.303 322.381 197.078 322.381 197.999ZM300.609 198.75C300.389 199.106 300.907 199.886 301.76 200.484C304.635 202.499 305.512 201.382 302.675 199.318L301.008 198.104L300.609 198.75ZM234.134 199.855C234.895 200.468 239.102 202.939 243.483 205.347C247.862 207.754 254.5 211.63 258.232 213.96C261.964 216.289 265.228 218.195 265.486 218.195C266.032 218.195 259.878 213.992 256.514 212.068C255.245 211.341 252.181 209.515 249.707 208.008C243.836 204.434 232.35 198.42 234.134 199.855ZM208.698 199.969C207.382 200.313 207.066 201.92 208.179 202.609C208.559 202.844 208.871 202.717 208.871 202.325C208.871 201.933 209.338 201.793 209.909 202.012L210.947 202.411V200.951C210.947 199.465 210.826 199.413 208.698 199.969ZM226.785 200.317C226.739 200.815 226.744 201.535 226.794 201.916C226.845 202.297 226.445 202.045 225.904 201.355L224.923 200.101L224.422 200.913C223.849 201.841 225.25 202.929 227.039 202.945L228.251 202.955V201.611C228.251 200.094 226.911 198.913 226.785 200.317ZM321.507 201.708C322.724 202.926 323.952 203.692 324.235 203.408C324.774 202.869 321.148 199.56 319.972 199.517C319.599 199.503 320.29 200.488 321.507 201.708ZM162.289 201.208C161.642 201.682 161.114 202.58 161.114 203.205C161.114 204.739 163.184 204.663 163.212 203.128L163.234 201.916L164.25 203.261L165.266 204.605V203.226C165.266 202.468 165.562 201.55 165.923 201.189L166.58 200.531L165.023 200.439C164.166 200.389 162.936 200.735 162.289 201.208ZM288.634 202.745C289.661 203.773 290.659 204.456 290.852 204.262C291.486 203.628 289.107 200.877 287.924 200.877H286.767L288.634 202.745ZM290.858 201.519C291.076 201.873 292.574 203.184 294.186 204.434L297.118 206.706L295.734 205.03C293.251 202.024 289.503 199.325 290.858 201.519ZM199.873 203.302C199.364 204.253 199.156 205.24 199.411 205.494C199.665 205.749 199.873 205.378 199.873 204.67V203.383L200.922 204.728L201.971 206.072L201.517 203.994C200.924 201.282 200.948 201.292 199.873 203.302ZM296.08 202.477C296.08 202.975 296.499 203.958 297.012 204.659L297.945 205.936L298.42 205.166C298.918 204.359 297.511 201.57 296.605 201.57C296.317 201.57 296.08 201.978 296.08 202.477ZM317.536 202.08C317.536 203.043 322.313 207.411 322.816 206.908C323.066 206.657 322.864 205.962 322.368 205.364C321.038 203.759 317.536 201.379 317.536 202.08ZM219.684 203.325L218.387 204.274L218.857 205.5L219.328 206.726L219.887 205.821C220.194 205.323 220.72 204.864 221.056 204.801C221.392 204.738 221.561 204.219 221.432 203.648C221.115 202.244 221.153 202.25 219.684 203.325ZM334.923 203.401L335.867 204.54L334.315 204.048C333.462 203.776 332.763 203.739 332.763 203.965C332.763 204.609 336.271 205.779 336.946 205.361C337.619 204.945 335.588 202.263 334.601 202.263C334.258 202.263 334.403 202.775 334.923 203.401ZM314.627 203.327C314.36 203.594 314.516 204.201 314.974 204.677C321.656 211.612 325.976 216.72 328.138 220.24L330.78 224.542L331.771 224.161C332.317 223.952 332.773 224.004 332.785 224.278C332.797 224.552 333.565 225.328 334.491 226.002L336.175 227.229L334.988 224.963C334.336 223.717 333.731 222.575 333.645 222.425C333.559 222.277 333.055 222.515 332.524 222.955L331.559 223.757L329.838 221.496C328.892 220.252 327.43 217.882 326.589 216.229C324.853 212.817 315.367 202.586 314.627 203.327ZM213.716 205.108C213.716 205.784 214.027 206.53 214.408 206.765C214.789 207.001 215.1 206.645 215.1 205.975V204.756L215.931 205.588C217.123 206.781 217.869 206.613 217.869 205.149V203.879H215.792H213.716V205.108ZM264.266 204.56C264.771 205.114 281.058 215.33 285.352 217.786C287.255 218.874 288.501 219.459 288.12 219.086C287.279 218.261 275.394 210.575 274.959 210.575C274.79 210.575 273.01 209.531 271.003 208.255C267.137 205.795 263.648 203.881 264.266 204.56ZM309.577 206.051C312.286 208.273 313.385 208.287 311.307 206.072C310.413 205.12 309.19 204.342 308.591 204.344L307.5 204.348L309.577 206.051ZM331.589 205.207L332.027 206.419H331.011H329.995V208.11C329.995 209.04 329.671 210.001 329.275 210.246L328.555 210.692L328.828 209.075C328.978 208.185 328.967 207.851 328.803 208.332C328.639 208.813 328.218 209.028 327.866 208.811C326.937 208.237 327.122 209.341 328.19 210.748C329.298 212.209 329.995 212.304 329.995 210.996C329.995 210.465 330.482 209.844 331.076 209.615C331.672 209.386 331.965 208.886 331.728 208.502C331.491 208.118 331.51 207.459 331.771 207.037L332.244 206.271L332.812 207.191C333.124 207.697 333.526 207.964 333.705 207.784C333.882 207.605 333.381 206.679 332.589 205.726L331.149 203.994L331.589 205.207ZM208.881 206.592C208.876 207.639 209.182 208.497 209.563 208.497C209.944 208.497 210.255 208.167 210.255 207.763C210.255 207.36 210.567 207.222 210.947 207.458C211.328 207.693 211.639 207.538 211.639 207.112C211.639 206.686 211.951 206.53 212.332 206.765C212.712 207.001 213.024 206.707 213.024 206.113C213.024 204.885 212.438 204.768 210.965 205.701L209.946 206.345L209.419 205.516L208.892 204.687L208.881 206.592ZM227.696 207.574C227.744 208.843 228.01 209.882 228.287 209.882C228.564 209.882 228.912 208.843 229.06 207.574L229.33 205.264H228.469H227.609L227.696 207.574ZM232.75 206.218C233.13 206.6 234.843 207.645 236.556 208.539C242.536 211.662 248.065 215.019 260.435 223.037C272.396 230.791 278.147 234.352 283.839 237.529C285.29 238.339 287.303 239.543 288.311 240.202C289.319 240.862 289.935 241.064 289.681 240.651C289.427 240.238 285.079 237.447 280.018 234.449C274.957 231.451 265.989 225.83 260.089 221.957C249.611 215.08 235.863 206.868 233.327 205.971L232.057 205.522L232.75 206.218ZM292.78 207.804C293.671 209.233 295.388 209.705 295.388 208.521C295.388 207.902 293.219 206.419 292.313 206.419C292.094 206.419 292.304 207.042 292.78 207.804ZM305.775 206.938C305.782 207.61 309.367 209.285 309.822 208.829C310.279 208.371 307.74 206.469 306.635 206.441C306.16 206.429 305.773 206.652 305.775 206.938ZM171.916 208.9C171.35 210.374 171.35 210.371 172.534 210.826L173.572 211.224V209.515C173.572 207.597 172.559 207.222 171.916 208.9ZM184.323 213.14C183.293 216.111 182.166 219.082 181.818 219.744C181.47 220.406 181.185 221.438 181.185 222.038C181.185 223.957 177.426 238.621 176.873 238.861C176.58 238.988 176.341 239.396 176.341 239.768C176.341 240.14 176.652 240.251 177.033 240.016L177.725 239.588V241.111C177.725 241.948 177.207 243.013 176.574 243.476L175.423 244.318L175.956 245.63L176.489 246.943L177.058 245.557L177.627 244.172L177.665 246.943L177.703 249.714L177.033 248.675C176.335 247.595 176.129 248.051 176.255 250.406L176.328 251.792L175.563 250.06L174.798 248.328L174.451 249.262C174.26 249.776 174.618 250.711 175.247 251.34L176.39 252.485L177.047 251.446L177.703 250.406L177.714 251.965C177.723 253.357 177.046 253.854 175.475 253.605C175.189 253.56 174.956 254.459 174.956 255.602C174.956 256.745 175.239 257.68 175.583 257.68C175.929 257.68 176.081 256.978 175.922 256.121C175.763 255.265 175.819 254.956 176.047 255.436C176.275 255.917 176.997 256.597 177.651 256.948L178.84 257.584V247.068L178.839 236.552L180.65 229.279C181.647 225.278 183.444 218.938 184.645 215.188C187.25 207.052 186.995 205.43 184.323 213.14ZM192.548 209.363C192.77 209.839 193.143 210.775 193.378 211.441C193.844 212.763 195.028 213.104 195.028 211.915C195.028 210.689 193.644 208.497 192.869 208.497C192.471 208.497 192.326 208.887 192.548 209.363ZM302.104 210.207C302.787 211.147 303.97 211.916 304.732 211.914L306.116 211.911L304.04 210.207C301.378 208.023 300.516 208.023 302.104 210.207ZM212.277 211.787L212.222 213L211.873 212.134C211.314 210.746 210.255 211.135 210.255 212.727V214.187L211.35 213.767C211.952 213.535 212.731 213.346 213.08 213.346C213.43 213.346 213.716 212.723 213.716 211.961C213.716 210.26 212.353 210.096 212.277 211.787ZM232.852 211.735C240.317 218.088 280.161 242.561 280.161 240.793C280.161 240.615 275.722 238.064 270.298 235.124C264.874 232.184 254.362 225.679 246.938 220.669C233.089 211.323 230.258 209.527 232.852 211.735ZM225.21 213.749C224.04 216.8 225.427 217.963 226.755 215.045C227.774 212.807 227.764 212.653 226.594 212.653C226.064 212.653 225.441 213.147 225.21 213.749ZM202.381 214.411L201.875 215.732L201.231 214.712C200.877 214.151 200.582 214.022 200.576 214.426C200.57 214.829 200.955 215.68 201.43 216.318L202.296 217.477L203.29 216.849L204.284 216.222L203.586 214.656L202.888 213.09L202.381 214.411ZM321.481 215.378C322.203 216.686 323.169 217.881 323.626 218.033C325.123 218.532 324.5 217.109 322.313 215.034L320.168 213L321.481 215.378ZM198.489 214.806C198.489 215.227 198.022 215.393 197.451 215.173L196.412 214.775V215.992V217.207L197.797 217.312L199.181 217.416V215.728C199.181 214.799 199.025 214.039 198.835 214.039C198.645 214.039 198.489 214.384 198.489 214.806ZM333.455 215.424V216.979L332.417 216.117L331.379 215.254V215.992C331.379 216.396 331.695 216.924 332.082 217.163C332.469 217.403 332.602 217.966 332.377 218.416C332.152 218.866 332.415 218.688 332.961 218.022C333.507 217.355 334.309 216.81 334.743 216.81C335.851 216.81 335.724 215.754 334.494 214.731L333.455 213.869V215.424ZM308.007 216.117C308.482 216.879 309.275 217.502 309.768 217.502H310.663L309.923 216.117C309.515 215.355 308.723 214.731 308.162 214.731H307.142L308.007 216.117ZM304.796 216.012C304.549 216.413 305.005 217.093 305.81 217.524C306.614 217.955 307.1 218.48 306.889 218.691C306.678 218.902 305.717 218.559 304.753 217.926C302.582 216.503 302.457 217.163 304.559 218.952L306.116 220.276L304.732 219.821C303.97 219.57 303.008 219.105 302.592 218.786C302.176 218.468 301.618 218.424 301.353 218.69C301.088 218.956 301.895 219.664 303.147 220.262L305.424 221.351L306.731 219.715L308.038 218.079L306.642 216.681L305.246 215.284L304.796 216.012ZM327.943 215.944C327.957 216.23 328.734 217.398 329.67 218.541C331.565 220.855 332.008 219.799 330.261 217.132C329.196 215.505 327.89 214.835 327.943 215.944ZM216.484 216.752C216.484 217.164 216.406 217.707 216.311 217.956C216.217 218.205 216.702 218.492 217.39 218.593L218.641 218.777L218.428 217.678C218.184 216.422 216.484 215.612 216.484 216.752ZM315.114 217.951L313.729 219.047L314.595 219.371C315.071 219.55 315.46 219.993 315.46 220.356V221.014L314.166 220.322C313.455 219.941 312.669 219.833 312.42 220.083C312.171 220.333 312.83 220.947 313.886 221.447L315.806 222.358L313.902 222.104C312.032 221.855 311.35 222.561 312.671 223.378C313.63 223.972 317.559 221.794 317.358 220.78C317.266 220.313 316.723 219.551 316.152 219.085C314.857 218.03 315.772 217.943 317.641 218.944C319.38 219.876 320.102 219.274 318.934 217.865C317.834 216.538 316.87 216.56 315.114 217.951ZM211.062 218.929C211.19 219.799 211.709 220.648 212.217 220.816L213.14 221.12L212.909 219.539C212.781 218.669 212.262 217.82 211.754 217.653L210.831 217.348L211.062 218.929ZM208.871 218.929C208.871 219.332 208.53 219.451 208.112 219.193L207.354 218.724L207.593 219.952C207.725 220.629 208.378 221.261 209.044 221.359L210.255 221.536V219.866C210.255 218.947 209.944 218.195 209.563 218.195C209.182 218.195 208.871 218.525 208.871 218.929ZM273.449 223.91C288.474 234.135 304.688 244.697 303.347 243.386C302.14 242.207 297.772 239.119 291.114 234.741C287.564 232.406 280.708 227.884 275.879 224.692C271.049 221.499 266.866 218.888 266.583 218.888C266.3 218.888 269.39 221.147 273.449 223.91ZM223.136 220.473L221.828 221.436L222.496 222.63L223.163 223.824L224.034 222.775C224.512 222.198 224.8 221.227 224.674 220.618L224.444 219.511L223.136 220.473ZM194.396 221.659C194.416 222.611 194.701 224.014 195.028 224.776L195.623 226.161L195.661 224.083C195.682 222.94 195.397 221.537 195.028 220.966L194.357 219.927L194.396 221.659ZM199.181 222.311C199.181 223.476 199.492 224.43 199.873 224.43C200.254 224.43 200.565 223.669 200.565 222.739C200.565 221.808 200.254 220.855 199.873 220.62L199.181 220.191V222.311ZM196.68 221.961C196.134 223.384 196.902 225.329 197.792 224.779C198.175 224.542 198.489 223.761 198.489 223.044C198.489 221.337 197.212 220.573 196.68 221.961ZM218.042 221.456L217.177 221.774L217.28 223.967L217.384 226.161L217.708 224.083L218.033 222.005L218.568 223.39L219.104 224.776L219.616 223.517C220.196 222.094 219.343 220.979 218.042 221.456ZM325.842 223.003C325.842 223.813 326.8 224.427 328.608 224.775C330.377 225.117 330.409 224.007 328.656 223.068C326.989 222.175 325.842 222.149 325.842 223.003ZM322.535 223.898C320.655 224.805 320.849 225.858 323.104 226.993C325.097 227.995 325.675 227.629 324.444 226.145L323.542 225.056L322.972 225.956L322.403 226.854L322.392 226.029C322.374 224.674 323.635 224.312 325.308 225.191L326.88 226.017L325.562 224.531C324.836 223.713 324.213 223.065 324.177 223.091C324.141 223.117 323.402 223.48 322.535 223.898ZM162.498 226.048V227.37L163.469 226.564L164.44 225.757L164.798 226.652L165.157 227.547L165.212 226.136L165.266 224.727H163.882H162.498V226.048ZM208.467 225.566L208.903 226.704L207.958 225.919C207.438 225.487 206.808 225.339 206.558 225.59C205.844 226.304 206.025 228.586 206.794 228.586C207.175 228.586 207.487 228.309 207.487 227.97C207.487 227.631 207.876 227.398 208.352 227.45C209.284 227.554 209.563 227.098 209.563 225.469C209.563 224.897 209.218 224.43 208.797 224.43H208.031L208.467 225.566ZM297.118 224.918C297.499 225.298 301.081 227.843 305.078 230.572C309.075 233.301 314.058 237.01 316.152 238.814C318.246 240.618 319.503 241.513 318.945 240.805C316.569 237.783 304.187 228.561 297.464 224.806L296.426 224.227L297.118 224.918ZM204.207 225.98C204.83 227.604 203.956 228.041 202.826 226.67L201.837 225.469L202.249 226.765L202.662 228.06L201.268 227.695L199.873 227.33V228.651C199.873 229.377 200.185 229.971 200.565 229.971C200.946 229.971 201.262 229.582 201.268 229.105L201.279 228.239L201.873 229.18L202.469 230.12L202.923 229.382C203.173 228.978 203.836 228.822 204.394 229.037L205.41 229.427V227.662C205.41 226.691 205.046 225.672 204.6 225.396L203.791 224.895L204.207 225.98ZM319.613 226.671C319.613 227.2 320.547 228.324 321.689 229.169L323.765 230.706L323.727 229.819C323.706 229.331 322.772 228.207 321.651 227.321L319.613 225.71V226.671ZM217.51 228.88L217.956 230.906L216.874 230.007L215.792 229.109V230.117C215.792 231.501 216.435 232.025 217.59 231.581C218.737 231.141 218.84 229.355 217.802 227.893L217.064 226.854L217.51 228.88ZM219.945 228.891C219.945 229.822 220.257 230.775 220.637 231.01L221.329 231.438V229.319C221.329 228.154 221.018 227.2 220.637 227.2C220.257 227.2 219.945 227.961 219.945 228.891ZM341.962 229.279C342.161 230.042 342.041 230.492 341.697 230.277C341.351 230.064 341.069 230.268 341.069 230.731V231.571L339.802 230.424C338.27 229.036 337.391 229.655 338.349 231.447C339.074 232.803 341.069 233.244 341.069 232.049C341.069 231.668 341.536 231.357 342.107 231.357H343.145V229.625C343.145 228.672 342.798 227.893 342.372 227.893H341.6L341.962 229.279ZM332.39 230.312C333.517 231.234 334.607 231.819 334.813 231.613C335.294 231.128 332.165 228.578 331.129 228.611C330.696 228.625 331.263 229.39 332.39 230.312ZM166.053 231.53L165.958 233.435H168.035H170.111L170.063 231.53L170.014 229.625L169.484 230.98L168.955 232.334L168.116 230.98L167.277 229.625L167.703 231.184L168.128 232.742H167.438C167.058 232.742 166.612 232.041 166.447 231.184L166.147 229.625L166.053 231.53ZM210.958 231.01L210.926 232.396L210.255 231.357L209.584 230.318L209.573 232.223C209.568 233.27 209.874 234.128 210.255 234.128C210.636 234.128 210.952 233.738 210.958 233.262L210.969 232.396L211.554 233.32L212.139 234.244L212.534 233.214C212.751 232.647 212.493 231.608 211.96 230.904L210.992 229.625L210.958 231.01ZM329.303 230.648C329.303 231.614 332.709 233.721 333.304 233.122C333.578 232.848 333.066 232.027 332.167 231.297C330.375 229.843 329.303 229.6 329.303 230.648ZM335.532 230.093C335.532 230.302 336.466 231.65 337.608 233.089C338.75 234.527 339.685 235.251 339.685 234.699C339.685 234.146 338.75 232.798 337.608 231.703C336.466 230.608 335.532 229.883 335.532 230.093ZM206.304 233.918C206.268 235.176 206.52 236.206 206.863 236.206C207.206 236.206 207.518 235.193 207.556 233.954L207.624 231.703L208.179 233.435L208.733 235.167L208.802 233.305L208.871 231.443L207.62 231.537L206.369 231.632L206.304 233.918ZM199.181 233.24C199.181 235.239 199.877 236.898 200.714 236.898H201.408L200.938 234.993C200.679 233.946 200.178 232.792 199.824 232.43L199.181 231.772V233.24ZM202.006 233.476C201.975 234.45 202.407 235.853 202.966 236.593L203.982 237.938L203.973 236.898C203.968 236.327 203.536 234.924 203.013 233.781L202.062 231.703L202.006 233.476ZM326.701 233.425C325.581 235.22 325.616 235.513 326.954 235.513H328.066L327.686 234.52L327.305 233.527L328.666 233.63L330.029 233.732L329.65 234.721L329.271 235.709L330.332 234.827L331.394 233.945L330.175 233.019C328.485 231.735 327.697 231.827 326.701 233.425ZM351.624 232.539C349.696 232.91 349.625 233.842 351.451 234.82L352.835 235.562V234.563V233.564L354.392 233.966L355.95 234.368L355 233.208C354.478 232.571 353.855 232.092 353.616 232.144C353.376 232.196 352.48 232.373 351.624 232.539ZM221.099 233.897C220.351 234.646 220.571 237.591 221.376 237.591H222.115L221.65 236.033L221.186 234.474L222.274 235.859L223.361 237.245L223.384 235.34L223.406 233.435H222.483C221.975 233.435 221.352 233.643 221.099 233.897ZM173.852 235.09C173.4 236.267 174.007 237.591 174.997 237.591C175.87 237.591 175.832 235.016 174.951 234.471C174.568 234.234 174.073 234.512 173.852 235.09ZM217.718 236.187C217.887 237.34 218.323 238.284 218.685 238.284C219.582 238.284 219.097 234.643 218.159 234.335L217.41 234.09L217.718 236.187ZM215.1 236.436V238.053H216.138C217.269 238.053 217.401 237.597 216.756 235.916C216.127 234.274 215.1 234.597 215.1 236.436ZM336.463 236.061L336.054 237.624L335.044 236.395L334.035 235.167L334.433 236.424L334.831 237.682L333.278 237.219L331.725 236.755L333.109 237.844L334.494 238.932L333.421 238.954C332.83 238.967 331.904 238.587 331.363 238.111C330.821 237.635 330.915 237.894 331.572 238.686C332.229 239.48 332.558 240.336 332.304 240.591C332.049 240.846 332.148 241.055 332.523 241.055C332.898 241.055 333.837 240.354 334.61 239.496C335.382 238.639 336.606 237.58 337.33 237.144L338.646 236.349L337.758 235.424L336.87 234.498L336.463 236.061ZM213.2 236.379C213.378 236.856 213.278 237.868 212.977 238.63L212.429 240.016L212.38 238.884C212.354 238.262 211.745 237.6 211.029 237.412L209.726 237.071L210.856 239.076L211.986 241.08L213.197 239.606C214.552 237.956 214.817 235.513 213.642 235.513C213.22 235.513 213.022 235.903 213.2 236.379ZM204.82 238.899L203.883 239.493L204.648 240.924L205.413 242.354L206.796 242.25C208.424 242.127 208.387 242.27 207.375 240.048C206.502 238.128 206.228 238.005 204.82 238.899ZM207.487 238.887C207.487 239.172 207.933 240.009 208.478 240.749L209.47 242.094L210.231 241.344C211.299 240.292 210.485 238.596 208.853 238.473C208.101 238.416 207.487 238.603 207.487 238.887ZM342.717 238.844C342.969 239.251 342.623 239.897 341.949 240.28L340.723 240.977L341.761 242.012L342.799 243.048L344.168 242.033L345.537 241.017L344.811 239.865C344.411 239.232 343.674 238.576 343.172 238.409L342.261 238.104L342.717 238.844ZM199.873 239.983C199.873 243.16 201.96 245.21 203.616 243.662L204.532 242.805L203.865 240.891C203.499 239.838 202.884 238.977 202.499 238.977H201.799L202.249 240.767L202.697 242.557L201.977 242.111C201.581 241.866 201.257 241.061 201.257 240.321C201.257 239.581 200.946 238.977 200.565 238.977C200.185 238.977 199.873 239.43 199.873 239.983ZM356.989 241.221C355.657 241.581 354.338 242.237 354.058 242.678L353.549 243.479L353.538 242.71L353.527 241.939L351.757 242.278L349.986 242.617L350.373 243.624C350.585 244.178 350.759 244.762 350.759 244.922C350.759 245.081 351.089 245.211 351.492 245.211H352.225L351.705 244.345L351.185 243.479L352.356 244.43L353.527 245.381V244.603C353.527 244.175 353.761 243.862 354.046 243.907C355.48 244.134 356.983 243.731 357.816 242.898C358.326 242.388 359.19 241.821 359.735 241.639C361.764 240.963 359.32 240.59 356.989 241.221ZM217.28 243.134C218.011 245.23 219.253 246.584 219.253 245.285C219.253 244.131 217.688 241.055 217.102 241.055C216.801 241.055 216.882 241.991 217.28 243.134ZM219.263 242.267C219.27 242.933 219.537 243.896 219.86 244.404L220.445 245.328L220.775 244.058C220.956 243.359 220.973 242.397 220.813 241.921C220.378 240.625 219.252 240.877 219.263 242.267ZM221.644 242.729C221.675 244.399 222.714 246.207 222.714 244.593C222.714 244.126 223.025 243.936 223.406 244.172L224.098 244.6V242.827V241.055H222.855H221.611L221.644 242.729ZM163.882 243.429C163.882 244.409 164.194 245.211 164.574 245.211C164.955 245.211 165.266 244.725 165.266 244.131V243.051L166.048 243.535L166.83 244.018L166.51 243.056C166.334 242.527 165.671 241.993 165.036 241.87L163.882 241.646V243.429ZM215.319 243.023L215.696 244.646L214.268 243.37L212.84 242.094L213.355 243.826C213.639 244.778 214.186 245.869 214.572 246.25L215.273 246.943L215.6 246.048L215.927 245.154L216.914 245.973L217.9 246.793L217.424 245.482C217.161 244.762 216.495 243.549 215.945 242.787L214.942 241.401L215.319 243.023ZM324.111 245.904C326.372 248.19 328.376 250.06 328.567 250.06C328.757 250.06 327.064 248.19 324.804 245.904C322.543 243.618 320.539 241.748 320.348 241.748C320.158 241.748 321.851 243.618 324.111 245.904ZM337.142 242.748L336.329 243.654L337.107 244.432C338.183 245.509 338.992 245.406 338.992 244.193V243.177L340.125 243.612L341.258 244.047L340.954 243.134C340.537 241.884 338.135 241.641 337.142 242.748ZM315.46 245.672C322.513 251.651 326.239 255.601 332.15 263.362C335.573 267.857 338.522 271.534 338.704 271.534C339.03 271.534 336.033 267.346 330.225 259.687C326.959 255.379 316.213 244.933 313.856 243.774C313.025 243.366 313.747 244.22 315.46 245.672ZM209.563 244.564C209.563 244.97 209.899 245.932 210.311 246.701C210.723 247.471 210.887 248.273 210.677 248.484C210.466 248.695 209.993 248.075 209.625 247.106C209.257 246.138 208.58 245.113 208.121 244.829L207.285 244.312L207.75 246.32L208.214 248.328L206.772 246.597L205.331 244.865L205.796 247.289C206.053 248.623 206.573 250.1 206.953 250.572C207.707 251.51 209.127 251.035 208.518 250.048C208.311 249.714 208.773 249.561 209.544 249.71C210.316 249.859 210.947 249.668 210.947 249.287C210.947 248.905 211.259 248.786 211.639 249.021C212.572 249.598 212.513 249.065 211.329 246.228C210.339 243.857 209.563 243.126 209.563 244.564ZM348.593 244.146C348.438 244.301 347.382 244.579 346.247 244.762C345.112 244.946 344.095 245.123 343.986 245.154C343.448 245.309 345.373 247.982 346.023 247.982H346.775L345.965 247.005L345.155 246.027L345.808 245.623C346.167 245.401 346.67 245.763 346.926 246.428L347.391 247.636L348.079 246.409C348.458 245.734 349.06 245.363 349.417 245.584C349.775 245.805 350.067 245.674 350.067 245.293C350.067 244.517 349.029 243.709 348.593 244.146ZM296.772 244.716C296.772 244.912 299.186 246.608 302.136 248.486C310.724 253.95 317.324 260.398 323.247 269.11C324.283 270.634 325.938 272.816 326.924 273.959C327.911 275.102 327.148 273.699 325.229 270.842C318.302 260.524 310.341 252.436 302.942 248.199C301.576 247.417 299.63 246.233 298.616 245.568C297.602 244.903 296.772 244.52 296.772 244.716ZM167.98 246.978L167.926 248.328L167.577 247.462C166.985 245.995 165.958 246.505 165.958 248.267V249.938L167.132 249.765C167.778 249.67 168.627 249.083 169.02 248.46L169.734 247.327L168.885 246.477L168.035 245.627L167.98 246.978ZM204.074 247.071C204.015 248.927 205.469 252.765 205.85 251.757C206.002 251.357 205.675 249.798 205.124 248.294L204.124 245.557L204.074 247.071ZM342.453 246.597C342.453 246.978 342.22 247.253 341.934 247.208C340.603 246.997 339.685 247.361 339.685 248.098C339.685 248.542 339.889 248.7 340.14 248.45C340.391 248.199 340.986 248.318 341.463 248.714L342.33 249.435L342.785 248.697C343.036 248.292 343.531 248.139 343.885 248.358C344.637 248.823 344.689 248.511 344.109 247C343.646 245.791 342.453 245.501 342.453 246.597ZM358.893 247.891C357.086 248.894 355.606 249.917 355.606 250.165C355.603 250.747 362.391 247.374 362.908 246.536C363.513 245.556 362.466 245.91 358.893 247.891ZM314.076 251.171C316.55 253.414 320.233 256.965 322.259 259.062C324.287 261.16 325.618 262.208 325.218 261.394C324.437 259.802 316.878 252.64 312.345 249.196C310.822 248.039 311.601 248.928 314.076 251.171ZM294.696 248.812C296.488 250.567 303.311 255.278 302.754 254.376C302.462 253.903 300.296 252.23 297.94 250.656C295.585 249.083 294.125 248.253 294.696 248.812ZM348.951 251.037L349.401 252.831H348.695C348.308 252.831 347.99 252.363 347.99 251.792C347.99 250.379 346.873 250.485 345.315 252.045L344.024 253.337L344.679 254.508L345.333 255.679L346.244 254.922C346.745 254.506 347.023 253.476 346.861 252.632L346.567 251.099L347.252 252.646L347.937 254.194L349.002 253.784C349.588 253.56 350.067 252.923 350.067 252.37C350.067 251.816 350.378 251.556 350.759 251.792C351.139 252.027 351.451 251.965 351.451 251.653C351.451 251.341 350.787 250.671 349.976 250.164L348.501 249.242L348.951 251.037ZM212.817 251.601C213.015 252.635 213.61 253.841 214.139 254.28L215.1 255.079V254.031C215.1 253.456 214.506 252.25 213.78 251.352L212.458 249.719L212.817 251.601ZM361.341 251.446C360.932 253.009 360.046 253.263 359.523 251.965L359.174 251.099L359.119 252.215L359.064 253.332L357.443 253.022C356.552 252.851 355.381 253.153 354.842 253.693C354.302 254.232 353.522 254.561 353.106 254.422C352.692 254.284 351.631 254.756 350.748 255.471L349.143 256.771L349.727 258.091L350.31 259.412L350.59 257.797L350.869 256.182L351.888 257.451L352.907 258.719L352.522 256.987L352.135 255.256L352.938 256.814C353.941 258.766 355.201 258.861 354.7 256.948L354.328 255.523L355.427 256.428L356.526 257.334L356.051 255.429L355.577 253.524H356.283C356.67 253.524 356.988 254.18 356.988 254.983V256.443L358.083 256.022C358.685 255.791 359.308 255.602 359.467 255.602C359.626 255.602 359.781 255.056 359.811 254.39L359.866 253.177L360.215 254.043C360.407 254.52 360.849 254.909 361.198 254.909C361.547 254.909 361.755 254.52 361.66 254.043L361.487 253.177L362.698 253.381C363.364 253.493 363.909 253.259 363.909 252.861C363.909 252.464 363.409 252.138 362.797 252.138H361.685L362.083 251.099C362.302 250.528 362.306 250.06 362.092 250.06C361.879 250.06 361.54 250.684 361.341 251.446ZM332.418 254.155C333.941 255.903 336.226 258.581 337.495 260.105L339.804 262.875L338.257 260.546C337.407 259.265 335.121 256.587 333.18 254.596L329.649 250.975L332.418 254.155ZM369.467 252.927C369.456 253.17 370.564 256.443 371.93 260.2C373.295 263.957 374.985 268.902 375.684 271.188C376.382 273.474 376.975 274.877 377 274.305C377.052 273.101 375.967 269.523 372.904 260.807C370.856 254.977 369.516 251.906 369.467 252.927ZM227.607 256.946L227.559 258.637L226.493 257.293L225.427 255.948L225.636 257.334L225.847 258.719L227.395 258.797C229.076 258.883 229.142 258.717 228.251 256.641L227.656 255.256L227.607 256.946ZM223.242 257.942C222.662 258.524 221.994 258.806 221.758 258.571C221.522 258.335 221.329 258.466 221.329 258.863C221.329 259.26 220.395 259.772 219.253 260.001C216.857 260.48 216.58 261.468 218.545 262.521L219.914 263.254L219.583 262.372L219.252 261.49L221.08 260.644C222.086 260.178 223.224 259.992 223.61 260.231L224.312 260.665L223.745 259.748L223.179 258.83L224.33 259.273C225.588 259.755 225.785 259.23 224.88 257.802L224.299 256.885L223.242 257.942ZM366.258 258.083C366.489 258.686 366.678 259.465 366.678 259.815C366.678 260.165 367.145 260.451 367.716 260.451C368.944 260.451 368.994 260.117 368.038 258.327C367.181 256.725 365.657 256.516 366.258 258.083ZM360.901 260.107C359.873 260.642 358.805 261.107 358.529 261.142C354.852 261.6 354.489 262.1 356.013 264.607L357.067 266.339L356.634 264.299L356.202 262.26L357.61 263.953L359.018 265.646L359.09 263.914L359.162 262.183L359.765 263.568L360.368 264.954L360.871 263.259L361.373 261.564L361.901 262.913L362.427 264.261L362.477 262.661L362.525 261.062L363.217 261.49C363.598 261.725 363.909 261.45 363.909 260.879C363.909 259.285 362.956 259.041 360.901 260.107ZM214.418 262.451C214.425 262.684 214.76 263.343 215.163 263.914L215.897 264.954L216.25 264.084C216.444 263.605 216.928 263.414 217.325 263.66L218.048 264.107L217.728 263.145C217.419 262.218 214.397 261.584 214.418 262.451ZM227.965 263.607L226.819 264.754L227.685 265.893C228.161 266.519 228.669 267.188 228.815 267.378C228.959 267.569 228.97 266.945 228.838 265.993L228.597 264.261L230.231 264.491L231.864 264.72L231.558 263.798C231.096 262.411 229.258 262.313 227.965 263.607ZM213.062 264.994L214.726 266.768L214.979 266.011C215.329 264.958 213.768 263.222 212.472 263.222H211.398L213.062 264.994ZM332.446 272.575C338.7 281.474 345.214 290.266 346.816 291.97C348.673 293.945 345.249 288.593 342.161 284.696C338.686 280.309 333.737 273.489 329.732 267.567C328.643 265.956 327.275 264.242 326.692 263.758C326.109 263.274 328.699 267.242 332.446 272.575ZM350.932 263.711C350.076 263.876 349.374 264.322 349.374 264.702C349.374 265.082 349.971 265.204 350.701 264.972C352.133 264.517 353.309 265.617 352.154 266.332C351.219 266.91 351.255 268.071 352.208 268.071C352.624 268.071 353.135 267.421 353.342 266.626L353.719 265.183L354.278 266.088C355.181 267.549 355.789 266.249 354.943 264.667C354.171 263.222 353.855 263.147 350.932 263.711ZM170.111 264.797C170.111 265.322 170.89 266.483 171.842 267.378C172.793 268.273 173.572 268.685 173.572 268.293C173.572 267.901 172.793 266.739 171.842 265.712L170.111 263.843V264.797ZM367.693 265.878L367.178 267.495L366.62 266.59C365.859 265.359 365.362 266.049 365.915 267.57L366.363 268.8L367.634 267.871L368.904 266.94L368.557 265.601L368.209 264.261L367.693 265.878ZM344.772 269.629C345.764 270.868 347.68 273.504 349.03 275.487C351.632 279.311 354.098 281.572 351.868 278.088C350.205 275.493 343.7 267.378 343.282 267.378C343.109 267.378 343.78 268.391 344.772 269.629ZM355.984 271.188L356.375 273.266L355.321 271.534C354.743 270.582 354.257 270.211 354.244 270.709C354.23 271.208 353.908 271.424 353.527 271.188C353.147 270.953 352.835 271.09 352.835 271.494C352.835 271.897 353.302 272.227 353.873 272.227C354.444 272.227 354.912 272.539 354.912 272.92C354.912 273.729 356.754 273.859 357.232 273.084C357.412 272.794 357.116 271.781 356.575 270.833L355.593 269.11L355.984 271.188ZM369.446 273.745V275.263L370.462 273.918L371.479 272.573L371.501 273.48C371.513 273.979 371.839 274.191 372.226 273.952C373.255 273.316 372.348 272.227 370.79 272.227H369.446V273.745ZM372.237 277.476L372.215 278.222L370.272 277.937L368.329 277.651L367.331 278.882C366.781 279.559 366.699 279.892 367.149 279.623C367.598 279.352 368.165 279.454 368.408 279.847C368.651 280.24 369.118 280.396 369.446 280.193C369.774 279.99 370.274 280.198 370.556 280.655L371.069 281.487L371.593 280.148L372.117 278.808L372.166 279.924L372.215 281.041L373.945 280.709C375.839 280.347 375.99 280.02 374.983 278.462L374.313 277.423L374.302 278.421L374.291 279.419L373.275 278.074C372.716 277.335 372.249 277.066 372.237 277.476ZM350.325 289.706C353.842 295.523 356.944 300.872 357.216 301.594C357.489 302.315 357.892 302.725 358.112 302.506C358.533 302.083 345.606 280.167 344.55 279.513C344.209 279.303 346.809 283.89 350.325 289.706ZM365.749 282.393C364.941 283.201 365.265 284.696 366.247 284.696C366.771 284.696 367.618 284.15 368.128 283.484C368.637 282.817 368.782 282.503 368.449 282.785C368.116 283.068 367.474 282.992 367.024 282.618C366.573 282.244 366 282.142 365.749 282.393ZM373.945 286.774L374.385 288.16H373.646C373.239 288.16 372.907 287.692 372.907 287.121C372.907 286.549 372.44 286.081 371.869 286.081C371.298 286.081 370.831 286.672 370.831 287.393C370.831 288.862 372.371 289.708 373.945 289.103C375.119 288.652 375.382 285.389 374.245 285.389H373.506L373.945 286.774ZM379.597 300.282C379.77 314.416 379.411 319.911 378.117 322.969L377.604 324.181H378.308C378.695 324.181 379.405 321.921 379.885 319.159L380.759 314.137L380.622 303.746C380.545 298.031 380.242 291.485 379.947 289.199L379.41 285.042L379.597 300.282ZM367.434 297.67L366.72 298.897L366.699 298.031C366.688 297.555 366.22 297.165 365.661 297.165H364.645L365.023 298.151C365.51 299.422 367.616 300.238 367.935 299.279C368.07 298.873 368.465 298.718 368.813 298.934C369.161 299.149 369.446 298.857 369.446 298.286C369.446 296.677 368.228 296.305 367.434 297.67ZM373.78 307.244C372.789 308.318 373.259 310.047 374.691 310.598L375.676 310.976L375.627 309.786C375.6 309.13 375.367 308.082 375.108 307.455L374.637 306.314L373.78 307.244ZM375.746 317.516C375.242 318.124 375.008 319.088 375.226 319.658L375.623 320.694L376.706 320.278L377.787 319.863L376.905 318.772L376.022 317.681L376.839 318.171C377.288 318.441 377.881 318.297 378.157 317.851L378.658 317.04L377.918 317.498C377.511 317.749 377.062 317.607 376.921 317.182L376.663 316.409L375.746 317.516ZM369.226 336.996C369.45 339.663 369.88 342.469 370.181 343.231L370.73 344.616L370.352 340.806C370.144 338.711 369.714 335.905 369.397 334.572L368.819 332.147L369.226 336.996ZM366.839 342.538C366.841 344.062 367.079 346.244 367.37 347.387L367.898 349.465L367.94 347.387C367.963 346.244 367.724 344.062 367.409 342.538L366.837 339.767L366.839 342.538ZM363.542 345.309C363.363 345.88 363.081 346.79 362.915 347.33C362.749 347.87 363.06 348.484 363.607 348.694L364.601 349.075V346.673C364.601 344.169 364.099 343.522 363.542 345.309ZM380.259 357.432C382.982 360.308 384.133 361.094 382.542 358.99C380.572 356.387 378.867 354.661 378.265 354.661C377.919 354.661 378.816 355.908 380.259 357.432ZM381.905 355.479C381.905 355.718 382.808 356.956 383.912 358.231C385.59 360.168 390.4 365.872 397.161 373.943C398.702 375.781 398.895 376.828 397.695 376.828C397.243 376.828 397.765 377.759 398.855 378.899C399.945 380.038 400.982 380.825 401.159 380.648C401.336 380.471 400.736 379.701 399.826 378.937L398.17 377.549L399.149 376.904L400.127 376.259L398.273 373.946C397.254 372.673 396.184 371.321 395.898 370.94C395.186 369.993 384.792 358.108 383.193 356.412C382.484 355.66 381.905 355.241 381.905 355.479ZM386.13 356.458C386.376 357.141 387.91 359.04 393.801 365.956C394.824 367.157 395.815 367.986 396.002 367.798C396.19 367.61 394.958 365.787 393.265 363.746C391.571 361.705 389.958 359.683 389.679 359.253C388.881 358.02 385.824 355.615 386.13 356.458ZM371.523 357.407C371.523 357.774 372.146 358.409 372.907 358.817C373.668 359.225 374.291 360.015 374.291 360.573C374.291 361.131 374.614 361.588 375.008 361.588H375.724L375.019 360.376C373.242 357.318 371.523 355.859 371.523 357.407ZM357.321 358.146C357.079 358.538 355.892 358.737 354.685 358.588C353.477 358.439 353.041 358.453 353.715 358.617L354.941 358.917L353.369 360.229C352.504 360.951 352.168 361.552 352.621 361.565C353.075 361.577 353.638 361.276 353.873 360.895C354.109 360.514 354.642 360.202 355.06 360.202C355.477 360.202 355.254 360.826 354.565 361.588L353.313 362.973H354.424C355.035 362.973 355.784 362.577 356.088 362.093C356.393 361.609 357.53 360.822 358.616 360.344L360.59 359.475L359.742 358.453C358.748 357.254 357.935 357.151 357.321 358.146ZM397.268 363.397C399.287 366.298 401.831 369.425 402.921 370.346L404.903 372.022L406.208 371.607L407.514 371.192V372.324C407.514 373.449 409.892 376.977 412.878 380.284C413.734 381.233 414.435 382.367 414.435 382.805C414.435 383.243 415.073 384.337 415.853 385.237L417.272 386.872L416.093 384.448C415.444 383.114 413.764 380.464 412.359 378.559C410.954 376.654 409.248 374.005 408.569 372.671C407.89 371.338 406.919 369.779 406.411 369.208C405.903 368.636 404.55 367.078 403.406 365.744C402.261 364.411 401.316 363.653 401.305 364.059C401.294 364.467 402.374 366.025 403.706 367.523C405.037 369.021 405.794 370.358 405.387 370.494C404.279 370.865 401.618 368.095 398.023 362.829C396.256 360.242 394.538 358.124 394.205 358.124C393.871 358.124 395.249 360.497 397.268 363.397ZM341.983 359.79L340.476 360.627L340.948 361.392L341.42 362.157L343.359 360.486C345.382 358.746 344.588 358.344 341.983 359.79ZM346.235 360.042C346.364 361.796 347.224 362.973 348.377 362.973H349.374V361.449V359.925L348.544 360.757C348.087 361.214 347.402 361.588 347.021 361.588H346.329L347.16 360.757C348.254 359.661 348.214 358.817 347.068 358.817C346.56 358.817 346.186 359.368 346.235 360.042ZM360.732 360.549C359.78 361.501 358.618 362.281 358.149 362.281C357.679 362.281 356.617 362.756 355.786 363.338L354.278 364.397L354.669 365.416C354.884 365.978 355.376 366.437 355.762 366.437H356.465L355.674 365.482L354.882 364.528L356.229 364.175L357.576 363.823L357.164 364.897L356.753 365.971L357.504 365.507C357.916 365.252 358.379 365.419 358.533 365.879L358.811 366.715L359.325 365.883C359.607 365.426 359.508 365.051 359.105 365.051C357.958 365.051 358.246 363.565 359.581 362.587L360.791 361.702L361.627 362.398C362.597 363.203 364.128 362.502 363.527 361.529C363.304 361.168 362.832 361.052 362.477 361.271C361.545 361.848 361.685 360.628 362.663 359.648C363.12 359.191 363.262 358.817 362.978 358.817C362.695 358.817 361.683 359.596 360.732 360.549ZM330.687 361.226C330.687 361.907 331.378 363.064 332.222 363.797L333.757 365.13L332.741 365.773L331.725 366.415L332.862 366.426C334.241 366.439 335.094 364.589 333.936 364.098L333.109 363.746L334.147 363.034C334.718 362.641 335.644 362.017 336.204 361.645C336.764 361.274 336.999 360.748 336.727 360.475C336.455 360.203 335.608 360.546 334.844 361.237L333.455 362.495L332.071 361.241L330.687 359.988V361.226ZM392.643 360.895C394.002 363.275 396.022 365.701 396.935 366.052L397.911 366.427L396.558 364.527C395.814 363.482 394.495 362.003 393.627 361.241L392.049 359.856L392.643 360.895ZM326.445 361.068C326.396 361.164 326.303 362.098 326.24 363.146L326.124 365.051H326.963C327.425 365.051 327.946 365.441 328.12 365.917L328.437 366.783L329.354 365.917L330.272 365.051H329.462H328.654L329.098 363.892L329.543 362.733L328.385 363.178C327.035 363.696 326.861 362.923 328.057 361.726L328.887 360.895H327.711C327.063 360.895 326.494 360.973 326.445 361.068ZM385.403 363.478C388.099 366.399 389.02 367.167 389.385 366.801C389.767 366.418 384.426 360.898 383.673 360.897C383.312 360.896 384.091 362.058 385.403 363.478ZM322.381 362.272C321.81 362.603 320.72 363.088 319.959 363.35L318.574 363.827L319.613 364.148C320.184 364.324 321.083 364.606 321.61 364.774L322.569 365.081L321.283 366.625C320.575 367.474 320.439 367.779 320.981 367.303C321.522 366.827 322.404 366.437 322.94 366.437H323.914L323.515 367.476L323.117 368.515H324.133C325.463 368.515 325.428 369.499 324.059 370.637L322.968 371.543L322.406 370.633C322.097 370.133 321.484 369.945 321.044 370.218C320.604 370.49 319.845 370.381 319.358 369.977C318.223 369.034 315.339 369.578 314.353 370.921C313.416 372.198 312.631 371.567 313.215 370.006L313.642 368.861L312.475 369.812L311.307 370.763V369.554V368.345L310.277 369.201C308.801 370.427 306.231 374.75 306.699 375.218C306.917 375.436 307.633 374.484 308.291 373.104C308.949 371.723 309.915 370.593 310.438 370.593C310.961 370.593 311.198 370.901 310.966 371.278L310.543 371.963L311.617 371.551L312.691 371.138V373.535V375.933L311.027 377.73L309.363 379.527L310.162 379.856L310.961 380.186L309.943 380.893C309.383 381.283 309.112 381.789 309.341 382.018C309.57 382.247 310.24 381.953 310.829 381.364C311.418 380.773 312.216 380.291 312.601 380.291C312.986 380.291 313.515 379.946 313.775 379.524L314.249 378.758L312.778 379.225L311.307 379.692V379.029C311.307 378.665 311.92 377.631 312.668 376.731L314.029 375.096L314.096 376.828L314.163 378.559L314.773 377.046C315.108 376.214 315.997 375.203 316.749 374.8L318.117 374.068L318.432 374.928L318.747 375.789L319.665 374.923C320.169 374.447 320.987 374.057 321.481 374.057C322.802 374.057 322.578 375.411 321.17 375.943C320.504 376.195 318.869 377.429 317.536 378.686C316.204 379.944 314.88 380.975 314.595 380.978C314.309 380.981 314.076 381.244 314.076 381.561C314.076 381.879 314.529 382.139 315.083 382.139C315.638 382.139 315.937 381.89 315.75 381.586C315.562 381.283 316.593 380.286 318.04 379.371C319.487 378.457 321.094 377.199 321.611 376.576C322.128 375.952 322.824 375.442 323.158 375.442C324.091 375.442 323.878 377.36 322.9 377.755L322.035 378.104L322.876 378.158C323.338 378.188 324.05 377.59 324.458 376.828L325.198 375.442H324.441C324.024 375.442 323.876 375.13 324.111 374.75C324.347 374.369 324.053 374.057 323.46 374.057C321.621 374.057 322.27 372.739 324.631 371.684C325.868 371.131 327.97 369.738 329.303 368.589L331.725 366.499L330.191 366.889C329.346 367.104 328.296 367.714 327.856 368.243C326.888 369.412 325.622 369.521 325.994 368.404C326.142 367.962 325.539 366.82 324.657 365.867L323.052 364.133L323.455 362.86C323.905 361.444 323.855 361.417 322.381 362.272ZM336.57 362.989L335.186 364.543L336.825 364.032L338.464 363.521L338.182 364.368C338.026 364.835 338.776 366.156 339.847 367.304L341.796 369.391L343.135 368.178L344.473 366.965L346.232 367.407L347.99 367.849V366.515V365.181L346.433 365.577C345.577 365.794 344.165 366.431 343.297 366.991C341.503 368.149 340.469 367.648 341.668 366.202L342.465 365.241L340.719 365.575L338.972 365.91L339.403 364.788C339.639 364.171 339.511 363.666 339.117 363.666C338.724 363.666 338.301 363.164 338.178 362.551L337.954 361.435L336.57 362.989ZM405.865 366.437C407.767 368.913 410.426 372.654 411.775 374.75C413.122 376.845 415.518 380.57 417.099 383.027C418.679 385.484 419.972 386.983 419.972 386.358C419.972 385.733 419.661 385.029 419.28 384.794C418.899 384.558 418.588 383.875 418.588 383.275C418.588 382.676 418.035 381.682 417.359 381.065C416.26 380.064 414.809 378.059 412.713 374.648C410.207 370.57 406.588 365.788 404.662 364.012L402.407 361.934L405.865 366.437ZM408.333 365.817C409.686 367.491 411.665 370.263 412.73 371.976C413.796 373.689 414.794 374.709 414.949 374.244C415.245 373.358 407.932 363.522 406.624 363.046C406.211 362.895 406.98 364.142 408.333 365.817ZM410.975 364.404C410.975 365.686 412.374 367.822 413.214 367.822H414.02L413.189 366.991C411.776 365.577 412.276 364.762 413.743 366.091C414.504 366.78 415.127 367.002 415.127 366.584C415.127 365.804 412.479 363.666 411.512 363.666C411.217 363.666 410.975 363.999 410.975 364.404ZM335.355 366.934L333.449 367.222L334.466 368.24L335.483 369.257L336.891 367.847C337.666 367.071 338.067 366.483 337.781 366.541C337.495 366.598 336.404 366.774 335.355 366.934ZM351.762 367.08C351.401 367.434 350.638 367.824 350.067 367.946C349.496 368.068 348.481 368.764 347.812 369.493C347.143 370.221 345.998 371.156 345.267 371.571C344.536 371.986 342.475 373.182 340.686 374.23C337.378 376.168 334.84 376.694 334.84 375.442C334.84 375.061 334.528 374.75 334.147 374.75C332.811 374.75 333.474 375.921 335.276 376.742L337.095 377.572L338.271 376.508C338.918 375.922 339.89 375.421 340.431 375.397C340.972 375.371 342.816 374.285 344.53 372.984C346.243 371.682 348.812 369.982 350.24 369.206C351.668 368.429 352.835 367.488 352.835 367.116C352.835 366.269 352.599 366.262 351.762 367.08ZM330.231 369.373C329.455 370.235 328.257 371.268 327.567 371.668L326.312 372.398L326.942 373.499L327.572 374.601L330.989 372.944C334.808 371.091 335.982 370.906 336.38 372.099C336.528 372.547 337.36 371.916 338.227 370.696L339.803 368.481L337.149 369.633C335.688 370.267 333.792 371.054 332.936 371.382C332.08 371.71 330.601 372.343 329.65 372.788C326.977 374.038 326.785 372.92 329.397 371.326C330.678 370.545 332.036 369.788 332.417 369.644L333.109 369.381L332.375 368.594L331.641 367.808L330.231 369.373ZM345.222 368.537C345.222 368.931 344.676 369.48 344.01 369.758C341.281 370.896 336.802 373.481 337.079 373.758C337.383 374.062 342.253 371.695 345.049 369.884C346.676 368.83 347.099 367.822 345.914 367.822C345.533 367.822 345.222 368.144 345.222 368.537ZM390.21 368.864C390.21 370.004 394.278 374.373 394.827 373.823C394.978 373.673 394.001 372.231 392.656 370.62L390.21 367.691V368.864ZM397.844 368.837C396.664 370.26 398.99 374.782 400.873 374.727C401.289 374.716 401.137 374.326 400.532 373.861C399.14 372.791 397.584 369.909 398.114 369.38C398.335 369.158 398.594 369.11 398.689 369.273C398.785 369.436 399.949 370.748 401.276 372.19L403.691 374.81L402.681 375.435C402.126 375.778 401.881 376.269 402.137 376.526C402.393 376.783 403.118 376.477 403.747 375.848L404.891 374.702L401.735 371.326L398.58 367.95L397.844 368.837ZM415.324 369.764L414.482 370.299L415.54 372.351C416.122 373.48 416.926 374.715 417.326 375.096C417.726 375.477 417.529 374.748 416.887 373.476L415.721 371.164L416.982 370.208L418.242 369.252L417.204 369.24C416.633 369.234 415.787 369.47 415.324 369.764ZM317.086 371.653L316.68 372.713L315.375 372.298L314.069 371.883L313.634 373.016C313.395 373.64 313.516 374.466 313.902 374.853L314.604 375.556L316.762 373.444C319.051 371.205 319.361 370.593 318.207 370.593C317.814 370.593 317.31 371.07 317.086 371.653ZM319.227 372.268C318.489 372.809 318.075 373.441 318.307 373.673C318.981 374.348 322.509 372.746 322.036 371.98C321.456 371.04 320.815 371.106 319.227 372.268ZM307.192 379.054C306.065 381.421 305.263 383.478 305.41 383.626C305.991 384.207 307.154 382.907 307.154 381.677C307.154 380.96 307.466 380.18 307.846 379.945C308.227 379.709 308.538 378.929 308.538 378.212C308.538 377.493 309.231 376.421 310.077 375.828L311.615 374.75H310.427H309.24L307.192 379.054ZM326.734 377.066C323.599 379.173 323.919 379.776 327.221 377.982C328.74 377.157 329.986 376.248 329.989 375.962C329.998 375.155 329.149 375.444 326.734 377.066ZM405.258 376.952C405.731 377.525 405.966 378.146 405.78 378.332C405.595 378.517 406.261 379.424 407.261 380.346L409.08 382.023L408.189 380.291C407.699 379.339 407.091 378.111 406.838 377.562C406.584 377.013 405.932 376.417 405.388 376.237L404.399 375.91L405.258 376.952ZM409.675 380.45C410.753 382.466 412.326 384.019 412.804 383.541C413.012 383.332 412.53 382.602 411.732 381.918C410.935 381.235 410.282 380.278 410.282 379.791C410.282 379.304 409.96 378.906 409.566 378.906H408.85L409.675 380.45ZM304.141 380.126C303.962 380.417 302.104 383.98 300.013 388.043L296.21 395.433L297.261 395.837L298.314 396.24L297.927 397.717L297.542 399.194L298.351 398.384L299.16 397.575L298.265 396.14L297.369 394.705L298.339 393.56C298.872 392.929 300.018 390.699 300.885 388.604C301.752 386.508 302.857 384.326 303.342 383.755C304.308 382.614 305.38 379.599 304.819 379.599C304.626 379.599 304.321 379.836 304.141 380.126ZM392.319 382.687C392.909 383.283 394.43 384.069 395.701 384.434C398.652 385.281 397.98 384.603 394.199 382.918L391.249 381.603L392.319 382.687ZM423.433 387.795C423.433 388.24 423.004 388.604 422.479 388.604C421.955 388.604 421.172 389.03 420.741 389.551L419.955 390.498L421.135 391.456L422.314 392.414L421.82 391.589L421.326 390.765L422.848 389.345C423.686 388.564 424.16 387.714 423.902 387.457C423.644 387.198 423.433 387.351 423.433 387.795ZM300.683 394.146C299.435 396.647 300.312 396.917 301.884 394.516C303.165 392.558 303.261 392.067 302.36 392.067C302.007 392.067 301.252 393.003 300.683 394.146ZM428.3 399.496C428.312 399.792 429.091 400.909 430.031 401.979C431.756 403.941 433.403 403.994 432.663 402.064C432.232 400.941 428.263 398.605 428.3 399.496Z" fill="#FBFDFD"/>
</svg>
